M48
;GenerationSoftware,Autodesk,EAGLE,9.6.2*%
;CreationDate,2021-09-10T18:32:14Z*%
FMAT,2
ICI,OFF
METRIC,TZ,000.000
T12C0.305
T11C0.350
T10C0.381
T9C0.400
T8C0.508
T7C0.650
T6C1.000
T5C1.016
T4C1.100
T3C1.600
T2C3.048
T1C3.800
%
G90
M71
T1
X130048Y20980
X81280Y21006
X111836Y27254
X168148Y21006
X43180Y20980
X24968Y27254
T2
X89408Y22860
X2540Y22860
X89408Y71120
X170688Y71120
X170688Y2540
X89408Y2540
X2540Y71120
X83820Y71120
X83820Y2540
X2540Y2540
T3
X125824Y47498
X159098Y63246
X38956Y47498
X72230Y63246
T4
X18956Y47498
X105824Y47498
X139098Y63246
X52230Y63246
T5
X4115Y53746
X13284Y33757
X10744Y33757
X97612Y33757
X90983Y53746
X100152Y33757
T6
X20450Y4929
X107318Y4929
X28450Y4929
X115318Y4929
T7
X94138Y4956
X99918Y4956
X13050Y4956
X7270Y4956
T8
X89344Y60966
X89344Y59696
X89344Y58426
X89344Y63506
X90614Y62236
X3746Y59696
X90614Y60966
X90614Y58426
X90614Y63506
X90614Y59696
X2476Y58426
X2476Y63506
X3746Y62236
X3746Y60966
X3746Y58426
X3746Y63506
X2476Y59696
X2476Y62236
X2476Y60966
X89344Y62236
T9
X5842Y1306
X14478Y1306
X14478Y5486
X92710Y1306
X101346Y1306
X101346Y5486
X92710Y5486
X5842Y5486
T10
X20828Y59309
X107696Y59309
T11
X16205Y43688
X70968Y59334
X17780Y66040
X104648Y66040
X104419Y59258
X157836Y59334
X103073Y43688
X17551Y59258
X19558Y43688
X106426Y43688
T12
X23266Y39192
X24130Y47244
X25578Y48616
X50292Y67056
X57963Y67005
X26010Y35230
X22758Y38557
X23876Y48006
X25044Y49251
X50089Y67793
X57328Y67310
X67310Y65024
X67056Y66523
X66802Y64491
X66548Y67132
X67818Y64008
X67818Y66548
X74879Y63144
X77495Y65735
X23705Y60705
X28628Y60690
X55470Y66134
X56500Y66154
X65024Y65024
X65024Y66548
X52950Y66040
X53990Y66031
X35306Y51562
X34231Y51562
X50856Y66520
X50881Y64925
X34544Y49784
X32766Y51562
X18136Y49530
X7112Y49530
X21971Y50089
X8382Y45212
X63670Y66446
X62967Y67259
X19050Y61976
X6604Y61976
X18542Y61468
X6858Y61214
X23876Y39624
X27153Y36347
X27991Y51511
X13132Y50724
X13995Y27407
X10922Y27432
X64465Y67158
X21948Y42672
X37338Y42672
X65557Y64211
X27051Y37262
X24384Y40132
X24196Y60135
X29000Y60000
X23114Y58572
X28473Y58598
X22606Y58064
X28016Y58039
X73914Y61468
X68326Y67031
X12979Y53619
X17348Y53594
X7772Y13360
X3810Y8128
X8636Y7874
X10414Y29210
X7798Y12192
X3099Y27407
X3048Y31242
X8382Y44450
X13970Y48260
X97892Y32029
X94336Y56540
X98882Y54966
X100330Y58547
X98654Y13233
X91110Y11074
X94056Y38913
X94056Y37135
X94056Y35357
X97434Y25121
X97434Y23317
X97409Y21260
X96114Y60604
X101829Y70256
X109584Y20452
X108915Y17248
X108932Y13614
X109804Y60300
X108534Y58014
X116891Y61620
X115138Y57252
X105994Y62840
X118948Y51384
X122834Y51054
X111455Y49886
X106604Y50419
X99924Y51562
X100025Y54432
X95961Y44069
X119019Y16277
X158420Y67158
X156058Y66929
X139624Y69952
X6528Y7264
X162941Y66751
X153949Y63576
X152730Y65024
X150368Y65532
X144424Y66040
X136957Y64821
X96545Y48108
X116154Y55778
X118034Y54559
X100051Y7036
X148158Y62738
X148082Y58471
X93396Y7264
X108915Y37948
X111608Y41072
X112395Y34366
X114808Y36703
X93574Y63449
X102108Y60579
X93066Y70764
X101702Y11074
X102148Y15504
X115164Y46787
X125064Y51077
X106602Y54437
X11024Y32029
X107594Y49759
X108331Y50571
X7468Y56540
X12014Y54966
X124968Y43688
X124968Y29723
X135890Y68580
X157683Y67031
X97536Y41910
X94234Y62738
X103200Y62662
X105664Y34163
X161138Y63525
X163754Y66142
X113767Y35560
X110134Y39192
X110998Y47244
X112446Y48616
X137160Y67056
X144831Y67005
X112878Y35230
X109626Y38557
X110744Y48006
X111912Y49251
X136957Y67793
X144196Y67310
X154178Y65024
X153924Y66523
X153670Y64491
X153416Y67132
X154686Y64008
X154686Y66548
X161747Y63144
X164363Y65735
X110573Y60705
X115496Y60690
X142338Y66134
X143368Y66154
X151892Y65024
X151892Y66548
X139818Y66040
X140858Y66031
X122174Y51562
X121099Y51562
X137724Y66520
X137749Y64925
X121412Y49784
X119634Y51562
X105004Y49530
X93980Y49530
X108839Y50089
X95250Y45212
X150538Y66446
X149835Y67259
X105918Y61976
X93472Y61976
X105410Y61468
X93726Y61214
X110744Y39624
X114021Y36347
X114859Y51511
X100000Y50724
X100863Y27407
X97790Y27432
X151333Y67158
X13462Y58547
X124206Y42672
X152425Y64211
X113919Y37262
X111252Y40132
X111064Y60135
X115868Y60000
X109982Y58572
X115341Y58598
X109474Y58064
X114884Y58039
X160782Y61468
X155194Y67031
X11786Y13233
X4242Y11074
X99847Y53619
X104216Y53594
X94640Y13360
X7188Y38913
X90678Y8128
X95504Y7874
X97282Y29210
X94666Y12192
X89967Y27407
X89916Y31242
X95250Y44450
X100838Y48260
X7188Y37135
X7188Y35357
X10566Y25121
X10566Y23317
X10541Y21260
X9246Y60604
X14961Y70256
X22716Y20452
X22047Y17248
X22064Y13614
X22936Y60300
X21666Y58014
X30023Y61620
X28270Y57252
X19126Y62840
X32080Y51384
X35966Y51054
X24587Y49886
X19736Y50419
X160909Y62484
X13056Y51562
X13157Y54432
X9093Y44069
X32151Y16277
X71552Y67158
X69190Y66929
X52756Y69952
X74041Y62484
X76073Y66751
X67081Y63576
X65862Y65024
X63500Y65532
X57556Y66040
X50089Y64821
X9677Y48108
X29286Y55778
X31166Y54559
X13183Y7036
X61290Y62738
X61214Y58471
X22047Y37948
X24740Y41072
X25527Y34366
X27940Y36703
X6706Y63449
X15240Y60579
X6198Y70764
X14834Y11074
X15280Y15504
X28296Y46787
X38196Y51077
X19734Y54437
X20726Y49759
X21463Y50571
X38100Y43688
X38100Y29723
X49022Y68580
X70815Y67031
X10668Y41910
X7366Y62738
X16332Y62662
X18796Y34163
X74270Y63525
X76886Y66142
X26899Y35560
X108816Y42672
M30