M48
;GenerationSoftware,Autodesk,EAGLE,9.6.2*%
;CreationDate,2021-09-10T18:41:38Z*%
FMAT,2
ICI,OFF
METRIC,TZ,000.000
T12C0.305
T11C0.350
T10C0.381
T9C0.400
T8C0.508
T7C0.650
T6C1.000
T5C1.016
T4C1.100
T3C1.600
T2C3.048
T1C3.800
%
G90
M71
T1
X24968Y27254
X81280Y21006
X130048Y98958
X111836Y105232
X130048Y20980
X168148Y98984
X43180Y98958
X24968Y105232
X81280Y98984
X168148Y21006
X43180Y20980
X111836Y27254
T2
X89408Y22860
X2540Y149098
X2540Y22860
X83820Y80518
X2540Y80518
X89408Y100838
X83820Y149098
X2540Y100838
X170688Y149098
X170688Y80518
X89408Y80518
X89408Y149098
X170688Y2540
X2540Y71120
X83820Y71120
X83820Y2540
X2540Y2540
X89408Y71120
X170688Y71120
X89408Y2540
T3
X72230Y63246
X159098Y141224
X72230Y141224
X38956Y125476
X125824Y125476
X38956Y47498
X125824Y47498
X159098Y63246
T4
X18956Y125476
X105824Y125476
X52230Y141224
X139098Y141224
X18956Y47498
X105824Y47498
X139098Y63246
X52230Y63246
T5
X90983Y53746
X97612Y111735
X100152Y33757
X97612Y33757
X4115Y131724
X13284Y111735
X90983Y131724
X100152Y111735
X10744Y111735
X4115Y53746
X13284Y33757
X10744Y33757
T6
X20450Y82907
X115318Y82907
X28450Y4929
X20450Y4929
X28450Y82907
X115318Y4929
X107318Y4929
X107318Y82907
T7
X7270Y4956
X7270Y82934
X13050Y82934
X94138Y82934
X94138Y4956
X99918Y4956
X13050Y4956
X99918Y82934
T8
X2476Y141484
X3746Y140214
X3746Y138944
X3746Y137674
X3746Y136404
X3746Y141484
X3746Y60966
X89344Y141484
X3746Y59696
X89344Y140214
X89344Y138944
X90614Y63506
X89344Y137674
X89344Y136404
X90614Y140214
X90614Y138944
X90614Y137674
X90614Y136404
X90614Y141484
X3746Y58426
X2476Y62236
X2476Y60966
X2476Y59696
X89344Y62236
X89344Y60966
X89344Y59696
X89344Y58426
X89344Y63506
X90614Y62236
X90614Y60966
X90614Y59696
X90614Y58426
X3746Y63506
X2476Y58426
X2476Y63506
X3746Y62236
X2476Y140214
X2476Y138944
X2476Y137674
X2476Y136404
T9
X5842Y79284
X14478Y5486
X14478Y1306
X101346Y1306
X101346Y5486
X92710Y5486
X5842Y5486
X5842Y1306
X92710Y1306
X14478Y79284
X14478Y83464
X5842Y83464
X92710Y79284
X101346Y79284
X101346Y83464
X92710Y83464
T10
X20828Y59309
X20828Y137287
X107696Y59309
X107696Y137287
T11
X106426Y43688
X104648Y144018
X19558Y43688
X103073Y43688
X19558Y121666
X104419Y59258
X157836Y59334
X17780Y144018
X104648Y66040
X17780Y66040
X16205Y121666
X17551Y59258
X16205Y43688
X17551Y137236
X70968Y137312
X106426Y121666
X103073Y121666
X104419Y137236
X157836Y137312
X70968Y59334
T12
X7798Y12192
X3099Y27407
X3048Y31242
X8382Y44450
X13970Y48260
X97892Y32029
X94336Y56540
X98882Y54966
X100330Y58547
X98654Y13233
X91110Y11074
X94056Y38913
X94056Y37135
X94056Y35357
X97434Y25121
X97434Y23317
X97409Y21260
X96114Y60604
X101829Y70256
X109584Y20452
X108915Y17248
X108932Y13614
X109804Y60300
X108534Y58014
X116891Y61620
X115138Y57252
X105994Y62840
X118948Y51384
X122834Y51054
X111455Y49886
X106604Y50419
X99924Y51562
X100025Y54432
X95961Y44069
X119019Y16277
X158420Y67158
X156058Y66929
X139624Y69952
X160909Y62484
X162941Y66751
X153949Y63576
X152730Y65024
X150368Y65532
X144424Y66040
X136957Y64821
X96545Y48108
X116154Y55778
X118034Y54559
X100051Y7036
X148158Y62738
X148082Y58471
X93396Y7264
X108915Y37948
X111608Y41072
X112395Y34366
X114808Y36703
X93574Y63449
X102108Y60579
X93066Y70764
X101702Y11074
X102148Y15504
X115164Y46787
X125064Y51077
X106602Y54437
X107594Y49759
X108331Y50571
X124968Y43688
X124968Y29723
X135890Y68580
X157683Y67031
X97536Y41910
X94234Y62738
X103200Y62662
X105664Y34163
X161138Y63525
X163754Y66142
X113767Y35560
X110134Y39192
X110998Y47244
X112446Y48616
X137160Y67056
X144831Y67005
X112878Y35230
X109626Y38557
X110744Y48006
X111912Y49251
X136957Y67793
X144196Y67310
X154178Y65024
X153924Y66523
X153670Y64491
X153416Y67132
X154686Y64008
X154686Y66548
X161747Y63144
X164363Y65735
X110573Y60705
X115496Y60690
X142338Y66134
X143368Y66154
X151892Y65024
X151892Y66548
X139818Y66040
X140858Y66031
X122174Y51562
X121099Y51562
X137724Y66520
X137749Y64925
X121412Y49784
X119634Y51562
X105004Y49530
X93980Y49530
X108839Y50089
X95250Y45212
X150538Y66446
X149835Y67259
X105918Y61976
X93472Y61976
X105410Y61468
X93726Y61214
X110744Y39624
X114021Y36347
X114859Y51511
X100000Y50724
X100863Y27407
X97790Y27432
X151333Y67158
X108816Y42672
X124206Y42672
X152425Y64211
X113919Y37262
X111252Y40132
X111064Y60135
X115868Y60000
X109982Y58572
X115341Y58598
X109474Y58064
X114884Y58039
X160782Y61468
X155194Y67031
X99847Y53619
X104216Y53594
X94640Y13360
X90678Y8128
X95504Y7874
X97282Y29210
X94666Y12192
X89967Y27407
X89916Y31242
X95250Y44450
X100838Y48260
X11024Y110007
X7468Y134518
X12014Y132944
X13462Y136525
X11786Y91211
X4242Y89052
X7188Y116891
X7188Y115113
X7188Y113335
X10566Y103099
X10566Y101295
X10541Y99238
X9246Y138582
X14961Y148234
X22716Y98430
X22047Y95226
X22064Y91592
X22936Y138278
X21666Y135992
X30023Y139598
X28270Y135230
X19126Y140818
X32080Y129362
X35966Y129032
X24587Y127864
X19736Y128397
X13056Y129540
X13157Y132410
X9093Y122047
X32151Y94255
X71552Y145136
X69190Y144907
X52756Y147930
X74041Y140462
X76073Y144729
X67081Y141554
X65862Y143002
X63500Y143510
X57556Y144018
X50089Y142799
X9677Y126086
X29286Y133756
X31166Y132537
X13183Y85014
X61290Y140716
X61214Y136449
X6528Y85242
X22047Y115926
X24740Y119050
X25527Y112344
X27940Y114681
X6706Y141427
X15240Y138557
X6198Y148742
X14834Y89052
X15280Y93482
X28296Y124765
X38196Y129055
X19734Y132415
X20726Y127737
X21463Y128549
X38100Y121666
X38100Y107701
X74879Y63144
X70815Y145009
X10668Y119888
X7366Y140716
X16332Y140640
X18796Y112141
X74270Y141503
X76886Y144120
X26899Y113538
X23266Y117170
X24130Y125222
X25578Y126594
X50292Y145034
X57963Y144983
X26010Y113208
X22758Y116535
X23876Y125984
X25044Y127229
X50089Y145771
X57328Y145288
X67310Y143002
X67056Y144501
X66802Y142469
X66548Y145110
X67818Y141986
X67818Y144526
X74879Y141122
X77495Y143713
X23705Y138683
X28628Y138668
X55470Y144112
X56500Y144132
X65024Y143002
X65024Y144526
X52950Y144018
X53990Y144009
X35306Y129540
X34231Y129540
X50856Y144498
X50881Y142903
X34544Y127762
X32766Y129540
X18136Y127508
X7112Y127508
X21971Y128067
X8382Y123190
X63670Y144424
X62967Y145237
X19050Y139954
X6604Y139954
X18542Y139446
X6858Y139192
X23876Y117602
X27153Y114325
X27991Y129489
X13132Y128702
X13995Y105385
X10922Y105410
X64465Y145136
X21948Y120650
X37338Y120650
X65557Y142189
X27051Y115240
X24384Y118110
X24196Y138113
X29000Y137978
X23114Y136550
X28473Y136576
X22606Y136042
X28016Y136017
X73914Y139446
X68326Y145009
X11024Y32029
X7468Y56540
X12979Y131597
X17348Y131572
X7772Y91338
X12014Y54966
X3810Y86106
X8636Y85852
X10414Y107188
X7798Y90170
X3099Y105385
X3048Y109220
X8382Y122428
X13970Y126238
X97892Y110007
X94336Y134518
X98882Y132944
X100330Y136525
X98654Y91211
X91110Y89052
X94056Y116891
X94056Y115113
X94056Y113335
X97434Y103099
X97434Y101295
X97409Y99238
X96114Y138582
X101829Y148234
X109584Y98430
X108915Y95226
X108932Y91592
X109804Y138278
X108534Y135992
X116891Y139598
X115138Y135230
X105994Y140818
X118948Y129362
X122834Y129032
X111455Y127864
X106604Y128397
X99924Y129540
X100025Y132410
X95961Y122047
X119019Y94255
X158420Y145136
X156058Y144907
X139624Y147930
X160909Y140462
X162941Y144729
X153949Y141554
X152730Y143002
X150368Y143510
X144424Y144018
X136957Y142799
X96545Y126086
X116154Y133756
X118034Y132537
X100051Y85014
X148158Y140716
X148082Y136449
X93396Y85242
X108915Y115926
X111608Y119050
X112395Y112344
X114808Y114681
X93574Y141427
X102108Y138557
X93066Y148742
X101702Y89052
X102148Y93482
X115164Y124765
X125064Y129055
X106602Y132415
X13462Y58547
X107594Y127737
X108331Y128549
X11786Y13233
X4242Y11074
X124968Y121666
X124968Y107701
X135890Y146558
X157683Y145009
X97536Y119888
X94234Y140716
X103200Y140640
X105664Y112141
X161138Y141503
X163754Y144120
X113767Y113538
X110134Y117170
X110998Y125222
X112446Y126594
X137160Y145034
X144831Y144983
X112878Y113208
X109626Y116535
X110744Y125984
X111912Y127229
X136957Y145771
X144196Y145288
X154178Y143002
X153924Y144501
X153670Y142469
X153416Y145110
X154686Y141986
X154686Y144526
X161747Y141122
X164363Y143713
X110573Y138683
X115496Y138668
X142338Y144112
X143368Y144132
X151892Y143002
X7188Y38913
X139818Y144018
X140858Y144009
X122174Y129540
X121099Y129540
X137724Y144498
X137749Y142903
X121412Y127762
X119634Y129540
X105004Y127508
X93980Y127508
X108839Y128067
X95250Y123190
X150538Y144424
X149835Y145237
X105918Y139954
X93472Y139954
X105410Y139446
X93726Y139192
X110744Y117602
X114021Y114325
X114859Y129489
X100000Y128702
X100863Y105385
X97790Y105410
X151333Y145136
X108816Y120650
X124206Y120650
X152425Y142189
X113919Y115240
X111252Y118110
X111064Y138113
X115868Y137978
X109982Y136550
X115341Y136576
X109474Y136042
X114884Y136017
X160782Y139446
X155194Y145009
X7188Y37135
X7188Y35357
X99847Y131597
X104216Y131572
X94640Y91338
X10566Y25121
X90678Y86106
X95504Y85852
X97282Y107188
X94666Y90170
X89967Y105385
X89916Y109220
X95250Y122428
X100838Y126238
X10566Y23317
X10541Y21260
X9246Y60604
X14961Y70256
X22716Y20452
X22047Y17248
X22064Y13614
X22936Y60300
X21666Y58014
X30023Y61620
X28270Y57252
X19126Y62840
X32080Y51384
X35966Y51054
X24587Y49886
X19736Y50419
X13056Y51562
X13157Y54432
X9093Y44069
X32151Y16277
X71552Y67158
X69190Y66929
X52756Y69952
X74041Y62484
X76073Y66751
X67081Y63576
X65862Y65024
X63500Y65532
X57556Y66040
X50089Y64821
X9677Y48108
X29286Y55778
X31166Y54559
X13183Y7036
X61290Y62738
X61214Y58471
X6528Y7264
X22047Y37948
X24740Y41072
X49022Y146558
X25527Y34366
X27940Y36703
X6706Y63449
X15240Y60579
X6198Y70764
X14834Y11074
X15280Y15504
X28296Y46787
X38196Y51077
X19734Y54437
X20726Y49759
X21463Y50571
X38100Y43688
X38100Y29723
X49022Y68580
X70815Y67031
X10668Y41910
X7366Y62738
X16332Y62662
X18796Y34163
X74270Y63525
X76886Y66142
X26899Y35560
X23266Y39192
X24130Y47244
X25578Y48616
X50292Y67056
X57963Y67005
X26010Y35230
X22758Y38557
X23876Y48006
X25044Y49251
X50089Y67793
X57328Y67310
X67310Y65024
X67056Y66523
X66802Y64491
X66548Y67132
X67818Y64008
X67818Y66548
X77495Y65735
X23705Y60705
X28628Y60690
X55470Y66134
X56500Y66154
X65024Y65024
X65024Y66548
X52950Y66040
X53990Y66031
X35306Y51562
X34231Y51562
X50856Y66520
X50881Y64925
X34544Y49784
X32766Y51562
X18136Y49530
X7112Y49530
X21971Y50089
X8382Y45212
X63670Y66446
X62967Y67259
X19050Y61976
X6604Y61976
X18542Y61468
X6858Y61214
X23876Y39624
X27153Y36347
X27991Y51511
X13132Y50724
X13995Y27407
X10922Y27432
X64465Y67158
X21948Y42672
X37338Y42672
X65557Y64211
X27051Y37262
X24384Y40132
X24196Y60135
X29000Y60000
X23114Y58572
X28473Y58598
X22606Y58064
X28016Y58039
X73914Y61468
X68326Y67031
X12979Y53619
X17348Y53594
X7772Y13360
X3810Y8128
X8636Y7874
X10414Y29210
X151892Y144526
M30