G04 EAGLE Gerber RS-274X export*
G75*
%MOMM*%
%FSLAX34Y34*%
%LPD*%
%INSoldermask Bottom*%
%IPPOS*%
%AMOC8*
5,1,8,0,0,1.08239X$1,22.5*%
G01*
%ADD10C,6.127000*%
%ADD11C,3.175000*%
%ADD12C,1.227000*%
%ADD13C,1.727000*%
%ADD14C,1.127000*%
%ADD15C,2.006600*%
%ADD16C,0.777000*%
%ADD17C,0.228600*%
%ADD18C,0.228344*%
%ADD19C,1.397000*%
%ADD20C,1.270000*%
%ADD21C,1.627000*%

G36*
X889827Y1873516D02*
X889827Y1873516D01*
X889893Y1873518D01*
X889936Y1873536D01*
X889983Y1873544D01*
X890040Y1873578D01*
X890100Y1873603D01*
X890135Y1873634D01*
X890176Y1873659D01*
X890218Y1873710D01*
X890266Y1873754D01*
X890288Y1873796D01*
X890317Y1873833D01*
X890338Y1873895D01*
X890369Y1873954D01*
X890377Y1874008D01*
X890389Y1874045D01*
X890388Y1874085D01*
X890396Y1874139D01*
X890396Y1877949D01*
X890385Y1878014D01*
X890383Y1878080D01*
X890365Y1878123D01*
X890357Y1878170D01*
X890323Y1878227D01*
X890298Y1878287D01*
X890267Y1878322D01*
X890242Y1878363D01*
X890191Y1878405D01*
X890147Y1878453D01*
X890105Y1878475D01*
X890068Y1878504D01*
X890006Y1878525D01*
X889947Y1878556D01*
X889893Y1878564D01*
X889856Y1878576D01*
X889816Y1878575D01*
X889762Y1878583D01*
X887222Y1878583D01*
X887157Y1878572D01*
X887091Y1878570D01*
X887048Y1878552D01*
X887001Y1878544D01*
X886944Y1878510D01*
X886884Y1878485D01*
X886849Y1878454D01*
X886808Y1878429D01*
X886767Y1878378D01*
X886718Y1878334D01*
X886696Y1878292D01*
X886667Y1878255D01*
X886646Y1878193D01*
X886615Y1878134D01*
X886607Y1878080D01*
X886595Y1878043D01*
X886595Y1878039D01*
X886595Y1878038D01*
X886596Y1878003D01*
X886588Y1877949D01*
X886588Y1874139D01*
X886599Y1874074D01*
X886601Y1874008D01*
X886619Y1873965D01*
X886627Y1873918D01*
X886661Y1873861D01*
X886686Y1873801D01*
X886717Y1873766D01*
X886742Y1873725D01*
X886793Y1873684D01*
X886837Y1873635D01*
X886879Y1873613D01*
X886916Y1873584D01*
X886978Y1873563D01*
X887037Y1873532D01*
X887091Y1873524D01*
X887128Y1873512D01*
X887168Y1873513D01*
X887222Y1873505D01*
X889762Y1873505D01*
X889827Y1873516D01*
G37*
G36*
X21147Y1873516D02*
X21147Y1873516D01*
X21213Y1873518D01*
X21256Y1873536D01*
X21303Y1873544D01*
X21360Y1873578D01*
X21420Y1873603D01*
X21455Y1873634D01*
X21496Y1873659D01*
X21538Y1873710D01*
X21586Y1873754D01*
X21608Y1873796D01*
X21637Y1873833D01*
X21658Y1873895D01*
X21689Y1873954D01*
X21697Y1874008D01*
X21709Y1874045D01*
X21708Y1874085D01*
X21716Y1874139D01*
X21716Y1877949D01*
X21705Y1878014D01*
X21703Y1878080D01*
X21685Y1878123D01*
X21677Y1878170D01*
X21643Y1878227D01*
X21618Y1878287D01*
X21587Y1878322D01*
X21562Y1878363D01*
X21511Y1878405D01*
X21467Y1878453D01*
X21425Y1878475D01*
X21388Y1878504D01*
X21326Y1878525D01*
X21267Y1878556D01*
X21213Y1878564D01*
X21176Y1878576D01*
X21136Y1878575D01*
X21082Y1878583D01*
X18542Y1878583D01*
X18477Y1878572D01*
X18411Y1878570D01*
X18368Y1878552D01*
X18321Y1878544D01*
X18264Y1878510D01*
X18204Y1878485D01*
X18169Y1878454D01*
X18128Y1878429D01*
X18087Y1878378D01*
X18038Y1878334D01*
X18016Y1878292D01*
X17987Y1878255D01*
X17966Y1878193D01*
X17935Y1878134D01*
X17927Y1878080D01*
X17915Y1878043D01*
X17915Y1878039D01*
X17915Y1878038D01*
X17916Y1878003D01*
X17908Y1877949D01*
X17908Y1874139D01*
X17919Y1874074D01*
X17921Y1874008D01*
X17939Y1873965D01*
X17947Y1873918D01*
X17981Y1873861D01*
X18006Y1873801D01*
X18037Y1873766D01*
X18062Y1873725D01*
X18113Y1873684D01*
X18157Y1873635D01*
X18199Y1873613D01*
X18236Y1873584D01*
X18298Y1873563D01*
X18357Y1873532D01*
X18411Y1873524D01*
X18448Y1873512D01*
X18488Y1873513D01*
X18542Y1873505D01*
X21082Y1873505D01*
X21147Y1873516D01*
G37*
G36*
X889319Y1831860D02*
X889319Y1831860D01*
X889385Y1831862D01*
X889428Y1831880D01*
X889475Y1831888D01*
X889532Y1831922D01*
X889592Y1831947D01*
X889627Y1831978D01*
X889668Y1832003D01*
X889710Y1832054D01*
X889758Y1832098D01*
X889780Y1832140D01*
X889809Y1832177D01*
X889830Y1832239D01*
X889861Y1832298D01*
X889869Y1832352D01*
X889881Y1832389D01*
X889880Y1832429D01*
X889888Y1832483D01*
X889888Y1836293D01*
X889877Y1836358D01*
X889875Y1836424D01*
X889857Y1836467D01*
X889849Y1836514D01*
X889815Y1836571D01*
X889790Y1836631D01*
X889759Y1836666D01*
X889734Y1836707D01*
X889683Y1836749D01*
X889639Y1836797D01*
X889597Y1836819D01*
X889560Y1836848D01*
X889498Y1836869D01*
X889439Y1836900D01*
X889385Y1836908D01*
X889348Y1836920D01*
X889308Y1836919D01*
X889254Y1836927D01*
X886714Y1836927D01*
X886649Y1836916D01*
X886583Y1836914D01*
X886540Y1836896D01*
X886493Y1836888D01*
X886436Y1836854D01*
X886376Y1836829D01*
X886341Y1836798D01*
X886300Y1836773D01*
X886259Y1836722D01*
X886210Y1836678D01*
X886188Y1836636D01*
X886159Y1836599D01*
X886138Y1836537D01*
X886107Y1836478D01*
X886099Y1836424D01*
X886087Y1836387D01*
X886087Y1836383D01*
X886087Y1836382D01*
X886088Y1836347D01*
X886080Y1836293D01*
X886080Y1832483D01*
X886091Y1832418D01*
X886093Y1832352D01*
X886111Y1832309D01*
X886119Y1832262D01*
X886153Y1832205D01*
X886178Y1832145D01*
X886209Y1832110D01*
X886234Y1832069D01*
X886285Y1832028D01*
X886329Y1831979D01*
X886371Y1831957D01*
X886408Y1831928D01*
X886470Y1831907D01*
X886529Y1831876D01*
X886583Y1831868D01*
X886620Y1831856D01*
X886660Y1831857D01*
X886714Y1831849D01*
X889254Y1831849D01*
X889319Y1831860D01*
G37*
G36*
X20639Y1831860D02*
X20639Y1831860D01*
X20705Y1831862D01*
X20748Y1831880D01*
X20795Y1831888D01*
X20852Y1831922D01*
X20912Y1831947D01*
X20947Y1831978D01*
X20988Y1832003D01*
X21030Y1832054D01*
X21078Y1832098D01*
X21100Y1832140D01*
X21129Y1832177D01*
X21150Y1832239D01*
X21181Y1832298D01*
X21189Y1832352D01*
X21201Y1832389D01*
X21200Y1832429D01*
X21208Y1832483D01*
X21208Y1836293D01*
X21197Y1836358D01*
X21195Y1836424D01*
X21177Y1836467D01*
X21169Y1836514D01*
X21135Y1836571D01*
X21110Y1836631D01*
X21079Y1836666D01*
X21054Y1836707D01*
X21003Y1836749D01*
X20959Y1836797D01*
X20917Y1836819D01*
X20880Y1836848D01*
X20818Y1836869D01*
X20759Y1836900D01*
X20705Y1836908D01*
X20668Y1836920D01*
X20628Y1836919D01*
X20574Y1836927D01*
X18034Y1836927D01*
X17969Y1836916D01*
X17903Y1836914D01*
X17860Y1836896D01*
X17813Y1836888D01*
X17756Y1836854D01*
X17696Y1836829D01*
X17661Y1836798D01*
X17620Y1836773D01*
X17579Y1836722D01*
X17530Y1836678D01*
X17508Y1836636D01*
X17479Y1836599D01*
X17458Y1836537D01*
X17427Y1836478D01*
X17419Y1836424D01*
X17407Y1836387D01*
X17407Y1836383D01*
X17407Y1836382D01*
X17408Y1836347D01*
X17400Y1836293D01*
X17400Y1832483D01*
X17411Y1832418D01*
X17413Y1832352D01*
X17431Y1832309D01*
X17439Y1832262D01*
X17473Y1832205D01*
X17498Y1832145D01*
X17529Y1832110D01*
X17554Y1832069D01*
X17605Y1832028D01*
X17649Y1831979D01*
X17691Y1831957D01*
X17728Y1831928D01*
X17790Y1831907D01*
X17849Y1831876D01*
X17903Y1831868D01*
X17940Y1831856D01*
X17980Y1831857D01*
X18034Y1831849D01*
X20574Y1831849D01*
X20639Y1831860D01*
G37*
G36*
X21147Y1093736D02*
X21147Y1093736D01*
X21213Y1093738D01*
X21256Y1093756D01*
X21303Y1093764D01*
X21360Y1093798D01*
X21420Y1093823D01*
X21455Y1093854D01*
X21496Y1093879D01*
X21538Y1093930D01*
X21586Y1093974D01*
X21608Y1094016D01*
X21637Y1094053D01*
X21658Y1094115D01*
X21689Y1094174D01*
X21697Y1094228D01*
X21709Y1094265D01*
X21708Y1094305D01*
X21716Y1094359D01*
X21716Y1098169D01*
X21705Y1098234D01*
X21703Y1098300D01*
X21685Y1098343D01*
X21677Y1098390D01*
X21643Y1098447D01*
X21618Y1098507D01*
X21587Y1098542D01*
X21562Y1098583D01*
X21511Y1098625D01*
X21467Y1098673D01*
X21425Y1098695D01*
X21388Y1098724D01*
X21326Y1098745D01*
X21267Y1098776D01*
X21213Y1098784D01*
X21176Y1098796D01*
X21136Y1098795D01*
X21082Y1098803D01*
X18542Y1098803D01*
X18477Y1098792D01*
X18411Y1098790D01*
X18368Y1098772D01*
X18321Y1098764D01*
X18264Y1098730D01*
X18204Y1098705D01*
X18169Y1098674D01*
X18128Y1098649D01*
X18087Y1098598D01*
X18038Y1098554D01*
X18016Y1098512D01*
X17987Y1098475D01*
X17966Y1098413D01*
X17935Y1098354D01*
X17927Y1098300D01*
X17915Y1098263D01*
X17915Y1098259D01*
X17915Y1098258D01*
X17916Y1098223D01*
X17908Y1098169D01*
X17908Y1094359D01*
X17919Y1094294D01*
X17921Y1094228D01*
X17939Y1094185D01*
X17947Y1094138D01*
X17981Y1094081D01*
X18006Y1094021D01*
X18037Y1093986D01*
X18062Y1093945D01*
X18113Y1093904D01*
X18157Y1093855D01*
X18199Y1093833D01*
X18236Y1093804D01*
X18298Y1093783D01*
X18357Y1093752D01*
X18411Y1093744D01*
X18448Y1093732D01*
X18488Y1093733D01*
X18542Y1093725D01*
X21082Y1093725D01*
X21147Y1093736D01*
G37*
G36*
X889827Y1093736D02*
X889827Y1093736D01*
X889893Y1093738D01*
X889936Y1093756D01*
X889983Y1093764D01*
X890040Y1093798D01*
X890100Y1093823D01*
X890135Y1093854D01*
X890176Y1093879D01*
X890218Y1093930D01*
X890266Y1093974D01*
X890288Y1094016D01*
X890317Y1094053D01*
X890338Y1094115D01*
X890369Y1094174D01*
X890377Y1094228D01*
X890389Y1094265D01*
X890388Y1094305D01*
X890396Y1094359D01*
X890396Y1098169D01*
X890385Y1098234D01*
X890383Y1098300D01*
X890365Y1098343D01*
X890357Y1098390D01*
X890323Y1098447D01*
X890298Y1098507D01*
X890267Y1098542D01*
X890242Y1098583D01*
X890191Y1098625D01*
X890147Y1098673D01*
X890105Y1098695D01*
X890068Y1098724D01*
X890006Y1098745D01*
X889947Y1098776D01*
X889893Y1098784D01*
X889856Y1098796D01*
X889816Y1098795D01*
X889762Y1098803D01*
X887222Y1098803D01*
X887157Y1098792D01*
X887091Y1098790D01*
X887048Y1098772D01*
X887001Y1098764D01*
X886944Y1098730D01*
X886884Y1098705D01*
X886849Y1098674D01*
X886808Y1098649D01*
X886767Y1098598D01*
X886718Y1098554D01*
X886696Y1098512D01*
X886667Y1098475D01*
X886646Y1098413D01*
X886615Y1098354D01*
X886607Y1098300D01*
X886595Y1098263D01*
X886595Y1098259D01*
X886595Y1098258D01*
X886596Y1098223D01*
X886588Y1098169D01*
X886588Y1094359D01*
X886599Y1094294D01*
X886601Y1094228D01*
X886619Y1094185D01*
X886627Y1094138D01*
X886661Y1094081D01*
X886686Y1094021D01*
X886717Y1093986D01*
X886742Y1093945D01*
X886793Y1093904D01*
X886837Y1093855D01*
X886879Y1093833D01*
X886916Y1093804D01*
X886978Y1093783D01*
X887037Y1093752D01*
X887091Y1093744D01*
X887128Y1093732D01*
X887168Y1093733D01*
X887222Y1093725D01*
X889762Y1093725D01*
X889827Y1093736D01*
G37*
G36*
X889319Y1052080D02*
X889319Y1052080D01*
X889385Y1052082D01*
X889428Y1052100D01*
X889475Y1052108D01*
X889532Y1052142D01*
X889592Y1052167D01*
X889627Y1052198D01*
X889668Y1052223D01*
X889710Y1052274D01*
X889758Y1052318D01*
X889780Y1052360D01*
X889809Y1052397D01*
X889830Y1052459D01*
X889861Y1052518D01*
X889869Y1052572D01*
X889881Y1052609D01*
X889880Y1052649D01*
X889888Y1052703D01*
X889888Y1056513D01*
X889877Y1056578D01*
X889875Y1056644D01*
X889857Y1056687D01*
X889849Y1056734D01*
X889815Y1056791D01*
X889790Y1056851D01*
X889759Y1056886D01*
X889734Y1056927D01*
X889683Y1056969D01*
X889639Y1057017D01*
X889597Y1057039D01*
X889560Y1057068D01*
X889498Y1057089D01*
X889439Y1057120D01*
X889385Y1057128D01*
X889348Y1057140D01*
X889308Y1057139D01*
X889254Y1057147D01*
X886714Y1057147D01*
X886649Y1057136D01*
X886583Y1057134D01*
X886540Y1057116D01*
X886493Y1057108D01*
X886436Y1057074D01*
X886376Y1057049D01*
X886341Y1057018D01*
X886300Y1056993D01*
X886259Y1056942D01*
X886210Y1056898D01*
X886188Y1056856D01*
X886159Y1056819D01*
X886138Y1056757D01*
X886107Y1056698D01*
X886099Y1056644D01*
X886087Y1056607D01*
X886087Y1056603D01*
X886087Y1056602D01*
X886088Y1056567D01*
X886080Y1056513D01*
X886080Y1052703D01*
X886091Y1052638D01*
X886093Y1052572D01*
X886111Y1052529D01*
X886119Y1052482D01*
X886153Y1052425D01*
X886178Y1052365D01*
X886209Y1052330D01*
X886234Y1052289D01*
X886285Y1052248D01*
X886329Y1052199D01*
X886371Y1052177D01*
X886408Y1052148D01*
X886470Y1052127D01*
X886529Y1052096D01*
X886583Y1052088D01*
X886620Y1052076D01*
X886660Y1052077D01*
X886714Y1052069D01*
X889254Y1052069D01*
X889319Y1052080D01*
G37*
G36*
X20639Y1052080D02*
X20639Y1052080D01*
X20705Y1052082D01*
X20748Y1052100D01*
X20795Y1052108D01*
X20852Y1052142D01*
X20912Y1052167D01*
X20947Y1052198D01*
X20988Y1052223D01*
X21030Y1052274D01*
X21078Y1052318D01*
X21100Y1052360D01*
X21129Y1052397D01*
X21150Y1052459D01*
X21181Y1052518D01*
X21189Y1052572D01*
X21201Y1052609D01*
X21200Y1052649D01*
X21208Y1052703D01*
X21208Y1056513D01*
X21197Y1056578D01*
X21195Y1056644D01*
X21177Y1056687D01*
X21169Y1056734D01*
X21135Y1056791D01*
X21110Y1056851D01*
X21079Y1056886D01*
X21054Y1056927D01*
X21003Y1056969D01*
X20959Y1057017D01*
X20917Y1057039D01*
X20880Y1057068D01*
X20818Y1057089D01*
X20759Y1057120D01*
X20705Y1057128D01*
X20668Y1057140D01*
X20628Y1057139D01*
X20574Y1057147D01*
X18034Y1057147D01*
X17969Y1057136D01*
X17903Y1057134D01*
X17860Y1057116D01*
X17813Y1057108D01*
X17756Y1057074D01*
X17696Y1057049D01*
X17661Y1057018D01*
X17620Y1056993D01*
X17579Y1056942D01*
X17530Y1056898D01*
X17508Y1056856D01*
X17479Y1056819D01*
X17458Y1056757D01*
X17427Y1056698D01*
X17419Y1056644D01*
X17407Y1056607D01*
X17407Y1056603D01*
X17407Y1056602D01*
X17408Y1056567D01*
X17400Y1056513D01*
X17400Y1052703D01*
X17411Y1052638D01*
X17413Y1052572D01*
X17431Y1052529D01*
X17439Y1052482D01*
X17473Y1052425D01*
X17498Y1052365D01*
X17529Y1052330D01*
X17554Y1052289D01*
X17605Y1052248D01*
X17649Y1052199D01*
X17691Y1052177D01*
X17728Y1052148D01*
X17790Y1052127D01*
X17849Y1052096D01*
X17903Y1052088D01*
X17940Y1052076D01*
X17980Y1052077D01*
X18034Y1052069D01*
X20574Y1052069D01*
X20639Y1052080D01*
G37*
G36*
X889827Y313956D02*
X889827Y313956D01*
X889893Y313958D01*
X889936Y313976D01*
X889983Y313984D01*
X890040Y314018D01*
X890100Y314043D01*
X890135Y314074D01*
X890176Y314099D01*
X890218Y314150D01*
X890266Y314194D01*
X890288Y314236D01*
X890317Y314273D01*
X890338Y314335D01*
X890369Y314394D01*
X890377Y314448D01*
X890389Y314485D01*
X890388Y314525D01*
X890396Y314579D01*
X890396Y318389D01*
X890385Y318454D01*
X890383Y318520D01*
X890365Y318563D01*
X890357Y318610D01*
X890323Y318667D01*
X890298Y318727D01*
X890267Y318762D01*
X890242Y318803D01*
X890191Y318845D01*
X890147Y318893D01*
X890105Y318915D01*
X890068Y318944D01*
X890006Y318965D01*
X889947Y318996D01*
X889893Y319004D01*
X889856Y319016D01*
X889816Y319015D01*
X889762Y319023D01*
X887222Y319023D01*
X887157Y319012D01*
X887091Y319010D01*
X887048Y318992D01*
X887001Y318984D01*
X886944Y318950D01*
X886884Y318925D01*
X886849Y318894D01*
X886808Y318869D01*
X886767Y318818D01*
X886718Y318774D01*
X886696Y318732D01*
X886667Y318695D01*
X886646Y318633D01*
X886615Y318574D01*
X886607Y318520D01*
X886595Y318483D01*
X886595Y318479D01*
X886595Y318478D01*
X886596Y318443D01*
X886588Y318389D01*
X886588Y314579D01*
X886599Y314514D01*
X886601Y314448D01*
X886619Y314405D01*
X886627Y314358D01*
X886661Y314301D01*
X886686Y314241D01*
X886717Y314206D01*
X886742Y314165D01*
X886793Y314124D01*
X886837Y314075D01*
X886879Y314053D01*
X886916Y314024D01*
X886978Y314003D01*
X887037Y313972D01*
X887091Y313964D01*
X887128Y313952D01*
X887168Y313953D01*
X887222Y313945D01*
X889762Y313945D01*
X889827Y313956D01*
G37*
G36*
X21147Y313956D02*
X21147Y313956D01*
X21213Y313958D01*
X21256Y313976D01*
X21303Y313984D01*
X21360Y314018D01*
X21420Y314043D01*
X21455Y314074D01*
X21496Y314099D01*
X21538Y314150D01*
X21586Y314194D01*
X21608Y314236D01*
X21637Y314273D01*
X21658Y314335D01*
X21689Y314394D01*
X21697Y314448D01*
X21709Y314485D01*
X21708Y314525D01*
X21716Y314579D01*
X21716Y318389D01*
X21705Y318454D01*
X21703Y318520D01*
X21685Y318563D01*
X21677Y318610D01*
X21643Y318667D01*
X21618Y318727D01*
X21587Y318762D01*
X21562Y318803D01*
X21511Y318845D01*
X21467Y318893D01*
X21425Y318915D01*
X21388Y318944D01*
X21326Y318965D01*
X21267Y318996D01*
X21213Y319004D01*
X21176Y319016D01*
X21136Y319015D01*
X21082Y319023D01*
X18542Y319023D01*
X18477Y319012D01*
X18411Y319010D01*
X18368Y318992D01*
X18321Y318984D01*
X18264Y318950D01*
X18204Y318925D01*
X18169Y318894D01*
X18128Y318869D01*
X18087Y318818D01*
X18038Y318774D01*
X18016Y318732D01*
X17987Y318695D01*
X17966Y318633D01*
X17935Y318574D01*
X17927Y318520D01*
X17915Y318483D01*
X17915Y318479D01*
X17915Y318478D01*
X17916Y318443D01*
X17908Y318389D01*
X17908Y314579D01*
X17919Y314514D01*
X17921Y314448D01*
X17939Y314405D01*
X17947Y314358D01*
X17981Y314301D01*
X18006Y314241D01*
X18037Y314206D01*
X18062Y314165D01*
X18113Y314124D01*
X18157Y314075D01*
X18199Y314053D01*
X18236Y314024D01*
X18298Y314003D01*
X18357Y313972D01*
X18411Y313964D01*
X18448Y313952D01*
X18488Y313953D01*
X18542Y313945D01*
X21082Y313945D01*
X21147Y313956D01*
G37*
G36*
X889319Y272300D02*
X889319Y272300D01*
X889385Y272302D01*
X889428Y272320D01*
X889475Y272328D01*
X889532Y272362D01*
X889592Y272387D01*
X889627Y272418D01*
X889668Y272443D01*
X889710Y272494D01*
X889758Y272538D01*
X889780Y272580D01*
X889809Y272617D01*
X889830Y272679D01*
X889861Y272738D01*
X889869Y272792D01*
X889881Y272829D01*
X889880Y272869D01*
X889888Y272923D01*
X889888Y276733D01*
X889877Y276798D01*
X889875Y276864D01*
X889857Y276907D01*
X889849Y276954D01*
X889815Y277011D01*
X889790Y277071D01*
X889759Y277106D01*
X889734Y277147D01*
X889683Y277189D01*
X889639Y277237D01*
X889597Y277259D01*
X889560Y277288D01*
X889498Y277309D01*
X889439Y277340D01*
X889385Y277348D01*
X889348Y277360D01*
X889308Y277359D01*
X889254Y277367D01*
X886714Y277367D01*
X886649Y277356D01*
X886583Y277354D01*
X886540Y277336D01*
X886493Y277328D01*
X886436Y277294D01*
X886376Y277269D01*
X886341Y277238D01*
X886300Y277213D01*
X886259Y277162D01*
X886210Y277118D01*
X886188Y277076D01*
X886159Y277039D01*
X886138Y276977D01*
X886107Y276918D01*
X886099Y276864D01*
X886087Y276827D01*
X886087Y276823D01*
X886087Y276822D01*
X886088Y276787D01*
X886080Y276733D01*
X886080Y272923D01*
X886091Y272858D01*
X886093Y272792D01*
X886111Y272749D01*
X886119Y272702D01*
X886153Y272645D01*
X886178Y272585D01*
X886209Y272550D01*
X886234Y272509D01*
X886285Y272468D01*
X886329Y272419D01*
X886371Y272397D01*
X886408Y272368D01*
X886470Y272347D01*
X886529Y272316D01*
X886583Y272308D01*
X886620Y272296D01*
X886660Y272297D01*
X886714Y272289D01*
X889254Y272289D01*
X889319Y272300D01*
G37*
G36*
X20639Y272300D02*
X20639Y272300D01*
X20705Y272302D01*
X20748Y272320D01*
X20795Y272328D01*
X20852Y272362D01*
X20912Y272387D01*
X20947Y272418D01*
X20988Y272443D01*
X21030Y272494D01*
X21078Y272538D01*
X21100Y272580D01*
X21129Y272617D01*
X21150Y272679D01*
X21181Y272738D01*
X21189Y272792D01*
X21201Y272829D01*
X21200Y272869D01*
X21208Y272923D01*
X21208Y276733D01*
X21197Y276798D01*
X21195Y276864D01*
X21177Y276907D01*
X21169Y276954D01*
X21135Y277011D01*
X21110Y277071D01*
X21079Y277106D01*
X21054Y277147D01*
X21003Y277189D01*
X20959Y277237D01*
X20917Y277259D01*
X20880Y277288D01*
X20818Y277309D01*
X20759Y277340D01*
X20705Y277348D01*
X20668Y277360D01*
X20628Y277359D01*
X20574Y277367D01*
X18034Y277367D01*
X17969Y277356D01*
X17903Y277354D01*
X17860Y277336D01*
X17813Y277328D01*
X17756Y277294D01*
X17696Y277269D01*
X17661Y277238D01*
X17620Y277213D01*
X17579Y277162D01*
X17530Y277118D01*
X17508Y277076D01*
X17479Y277039D01*
X17458Y276977D01*
X17427Y276918D01*
X17419Y276864D01*
X17407Y276827D01*
X17407Y276823D01*
X17407Y276822D01*
X17408Y276787D01*
X17400Y276733D01*
X17400Y272923D01*
X17411Y272858D01*
X17413Y272792D01*
X17431Y272749D01*
X17439Y272702D01*
X17473Y272645D01*
X17498Y272585D01*
X17529Y272550D01*
X17554Y272509D01*
X17605Y272468D01*
X17649Y272419D01*
X17691Y272397D01*
X17728Y272368D01*
X17790Y272347D01*
X17849Y272316D01*
X17903Y272308D01*
X17940Y272296D01*
X17980Y272297D01*
X18034Y272289D01*
X20574Y272289D01*
X20639Y272300D01*
G37*
D10*
X812800Y210058D03*
X249682Y272542D03*
D11*
X25400Y711200D03*
X838200Y711200D03*
X838200Y25400D03*
X25400Y25400D03*
D12*
X189560Y474980D03*
D13*
X389560Y474980D03*
D14*
X24762Y622358D03*
X24762Y609658D03*
X24762Y596958D03*
X24762Y584258D03*
X24762Y635058D03*
X37462Y622358D03*
X37462Y609658D03*
X37462Y596958D03*
X37462Y584258D03*
X37462Y635058D03*
X835660Y683260D03*
X26670Y77470D03*
D15*
X41148Y537464D03*
D12*
X522300Y632460D03*
D13*
X722300Y632460D03*
D14*
X284500Y49290D03*
X204500Y49290D03*
D10*
X431800Y209804D03*
D16*
X72700Y49558D03*
X130500Y49558D03*
D17*
X67310Y120269D02*
X67310Y125603D01*
X67310Y120269D02*
X55626Y120269D01*
X55626Y125603D01*
X67310Y125603D01*
X67310Y122441D02*
X55626Y122441D01*
X55626Y124613D02*
X67310Y124613D01*
X67310Y128397D02*
X67310Y133731D01*
X67310Y128397D02*
X55626Y128397D01*
X55626Y133731D01*
X67310Y133731D01*
X67310Y130569D02*
X55626Y130569D01*
X55626Y132741D02*
X67310Y132741D01*
D15*
X132842Y337566D03*
X107442Y337566D03*
D17*
X81788Y302895D02*
X81788Y297561D01*
X81788Y302895D02*
X93472Y302895D01*
X93472Y297561D01*
X81788Y297561D01*
X81788Y299733D02*
X93472Y299733D01*
X93472Y301905D02*
X81788Y301905D01*
X81788Y294767D02*
X81788Y289433D01*
X81788Y294767D02*
X93472Y294767D01*
X93472Y289433D01*
X81788Y289433D01*
X81788Y291605D02*
X93472Y291605D01*
X93472Y293777D02*
X81788Y293777D01*
D18*
X13968Y318895D02*
X13968Y324487D01*
X25656Y324487D01*
X25656Y318895D01*
X13968Y318895D01*
X13968Y321064D02*
X25656Y321064D01*
X25656Y323233D02*
X13968Y323233D01*
X13968Y314073D02*
X13968Y308481D01*
X13968Y314073D02*
X25656Y314073D01*
X25656Y308481D01*
X13968Y308481D01*
X13968Y310650D02*
X25656Y310650D01*
X25656Y312819D02*
X13968Y312819D01*
X13460Y282831D02*
X13460Y277239D01*
X13460Y282831D02*
X25148Y282831D01*
X25148Y277239D01*
X13460Y277239D01*
X13460Y279408D02*
X25148Y279408D01*
X25148Y281577D02*
X13460Y281577D01*
X13460Y272417D02*
X13460Y266825D01*
X13460Y272417D02*
X25148Y272417D01*
X25148Y266825D01*
X13460Y266825D01*
X13460Y268994D02*
X25148Y268994D01*
X25148Y271163D02*
X13460Y271163D01*
D19*
X62230Y558800D03*
X165100Y660400D03*
X36830Y130810D03*
X25400Y558800D03*
D11*
X25400Y228600D03*
D10*
X1681480Y210058D03*
X1118362Y272542D03*
D11*
X894080Y711200D03*
X1706880Y711200D03*
X1706880Y25400D03*
X894080Y25400D03*
D12*
X1058240Y474980D03*
D13*
X1258240Y474980D03*
D14*
X893442Y622358D03*
X893442Y609658D03*
X893442Y596958D03*
X893442Y584258D03*
X893442Y635058D03*
X906142Y622358D03*
X906142Y609658D03*
X906142Y596958D03*
X906142Y584258D03*
X906142Y635058D03*
X1704340Y683260D03*
X895350Y77470D03*
D15*
X909828Y537464D03*
D12*
X1390980Y632460D03*
D13*
X1590980Y632460D03*
D14*
X1153180Y49290D03*
X1073180Y49290D03*
D10*
X1300480Y209804D03*
D16*
X941380Y49558D03*
X999180Y49558D03*
D17*
X935990Y120269D02*
X935990Y125603D01*
X935990Y120269D02*
X924306Y120269D01*
X924306Y125603D01*
X935990Y125603D01*
X935990Y122441D02*
X924306Y122441D01*
X924306Y124613D02*
X935990Y124613D01*
X935990Y128397D02*
X935990Y133731D01*
X935990Y128397D02*
X924306Y128397D01*
X924306Y133731D01*
X935990Y133731D01*
X935990Y130569D02*
X924306Y130569D01*
X924306Y132741D02*
X935990Y132741D01*
D15*
X1001522Y337566D03*
X976122Y337566D03*
D17*
X950468Y302895D02*
X950468Y297561D01*
X950468Y302895D02*
X962152Y302895D01*
X962152Y297561D01*
X950468Y297561D01*
X950468Y299733D02*
X962152Y299733D01*
X962152Y301905D02*
X950468Y301905D01*
X950468Y294767D02*
X950468Y289433D01*
X950468Y294767D02*
X962152Y294767D01*
X962152Y289433D01*
X950468Y289433D01*
X950468Y291605D02*
X962152Y291605D01*
X962152Y293777D02*
X950468Y293777D01*
D18*
X882648Y318895D02*
X882648Y324487D01*
X894336Y324487D01*
X894336Y318895D01*
X882648Y318895D01*
X882648Y321064D02*
X894336Y321064D01*
X894336Y323233D02*
X882648Y323233D01*
X882648Y314073D02*
X882648Y308481D01*
X882648Y314073D02*
X894336Y314073D01*
X894336Y308481D01*
X882648Y308481D01*
X882648Y310650D02*
X894336Y310650D01*
X894336Y312819D02*
X882648Y312819D01*
X882140Y282831D02*
X882140Y277239D01*
X882140Y282831D02*
X893828Y282831D01*
X893828Y277239D01*
X882140Y277239D01*
X882140Y279408D02*
X893828Y279408D01*
X893828Y281577D02*
X882140Y281577D01*
X882140Y272417D02*
X882140Y266825D01*
X882140Y272417D02*
X893828Y272417D01*
X893828Y266825D01*
X882140Y266825D01*
X882140Y268994D02*
X893828Y268994D01*
X893828Y271163D02*
X882140Y271163D01*
D19*
X930910Y558800D03*
X1033780Y660400D03*
X905510Y130810D03*
X894080Y558800D03*
D11*
X894080Y228600D03*
D10*
X812800Y989838D03*
X249682Y1052322D03*
D11*
X25400Y1490980D03*
X838200Y1490980D03*
X838200Y805180D03*
X25400Y805180D03*
D12*
X189560Y1254760D03*
D13*
X389560Y1254760D03*
D14*
X24762Y1402138D03*
X24762Y1389438D03*
X24762Y1376738D03*
X24762Y1364038D03*
X24762Y1414838D03*
X37462Y1402138D03*
X37462Y1389438D03*
X37462Y1376738D03*
X37462Y1364038D03*
X37462Y1414838D03*
X835660Y1463040D03*
X26670Y857250D03*
D15*
X41148Y1317244D03*
D12*
X522300Y1412240D03*
D13*
X722300Y1412240D03*
D14*
X284500Y829070D03*
X204500Y829070D03*
D10*
X431800Y989584D03*
D16*
X72700Y829338D03*
X130500Y829338D03*
D17*
X67310Y900049D02*
X67310Y905383D01*
X67310Y900049D02*
X55626Y900049D01*
X55626Y905383D01*
X67310Y905383D01*
X67310Y902221D02*
X55626Y902221D01*
X55626Y904393D02*
X67310Y904393D01*
X67310Y908177D02*
X67310Y913511D01*
X67310Y908177D02*
X55626Y908177D01*
X55626Y913511D01*
X67310Y913511D01*
X67310Y910349D02*
X55626Y910349D01*
X55626Y912521D02*
X67310Y912521D01*
D15*
X132842Y1117346D03*
X107442Y1117346D03*
D17*
X81788Y1082675D02*
X81788Y1077341D01*
X81788Y1082675D02*
X93472Y1082675D01*
X93472Y1077341D01*
X81788Y1077341D01*
X81788Y1079513D02*
X93472Y1079513D01*
X93472Y1081685D02*
X81788Y1081685D01*
X81788Y1074547D02*
X81788Y1069213D01*
X81788Y1074547D02*
X93472Y1074547D01*
X93472Y1069213D01*
X81788Y1069213D01*
X81788Y1071385D02*
X93472Y1071385D01*
X93472Y1073557D02*
X81788Y1073557D01*
D18*
X13968Y1098675D02*
X13968Y1104267D01*
X25656Y1104267D01*
X25656Y1098675D01*
X13968Y1098675D01*
X13968Y1100844D02*
X25656Y1100844D01*
X25656Y1103013D02*
X13968Y1103013D01*
X13968Y1093853D02*
X13968Y1088261D01*
X13968Y1093853D02*
X25656Y1093853D01*
X25656Y1088261D01*
X13968Y1088261D01*
X13968Y1090430D02*
X25656Y1090430D01*
X25656Y1092599D02*
X13968Y1092599D01*
X13460Y1062611D02*
X13460Y1057019D01*
X13460Y1062611D02*
X25148Y1062611D01*
X25148Y1057019D01*
X13460Y1057019D01*
X13460Y1059188D02*
X25148Y1059188D01*
X25148Y1061357D02*
X13460Y1061357D01*
X13460Y1052197D02*
X13460Y1046605D01*
X13460Y1052197D02*
X25148Y1052197D01*
X25148Y1046605D01*
X13460Y1046605D01*
X13460Y1048774D02*
X25148Y1048774D01*
X25148Y1050943D02*
X13460Y1050943D01*
D19*
X62230Y1338580D03*
X165100Y1440180D03*
X36830Y910590D03*
X25400Y1338580D03*
D11*
X25400Y1008380D03*
D10*
X1681480Y989838D03*
X1118362Y1052322D03*
D11*
X894080Y1490980D03*
X1706880Y1490980D03*
X1706880Y805180D03*
X894080Y805180D03*
D12*
X1058240Y1254760D03*
D13*
X1258240Y1254760D03*
D14*
X893442Y1402138D03*
X893442Y1389438D03*
X893442Y1376738D03*
X893442Y1364038D03*
X893442Y1414838D03*
X906142Y1402138D03*
X906142Y1389438D03*
X906142Y1376738D03*
X906142Y1364038D03*
X906142Y1414838D03*
X1704340Y1463040D03*
X895350Y857250D03*
D15*
X909828Y1317244D03*
D12*
X1390980Y1412240D03*
D13*
X1590980Y1412240D03*
D14*
X1153180Y829070D03*
X1073180Y829070D03*
D10*
X1300480Y989584D03*
D16*
X941380Y829338D03*
X999180Y829338D03*
D17*
X935990Y900049D02*
X935990Y905383D01*
X935990Y900049D02*
X924306Y900049D01*
X924306Y905383D01*
X935990Y905383D01*
X935990Y902221D02*
X924306Y902221D01*
X924306Y904393D02*
X935990Y904393D01*
X935990Y908177D02*
X935990Y913511D01*
X935990Y908177D02*
X924306Y908177D01*
X924306Y913511D01*
X935990Y913511D01*
X935990Y910349D02*
X924306Y910349D01*
X924306Y912521D02*
X935990Y912521D01*
D15*
X1001522Y1117346D03*
X976122Y1117346D03*
D17*
X950468Y1082675D02*
X950468Y1077341D01*
X950468Y1082675D02*
X962152Y1082675D01*
X962152Y1077341D01*
X950468Y1077341D01*
X950468Y1079513D02*
X962152Y1079513D01*
X962152Y1081685D02*
X950468Y1081685D01*
X950468Y1074547D02*
X950468Y1069213D01*
X950468Y1074547D02*
X962152Y1074547D01*
X962152Y1069213D01*
X950468Y1069213D01*
X950468Y1071385D02*
X962152Y1071385D01*
X962152Y1073557D02*
X950468Y1073557D01*
D18*
X882648Y1098675D02*
X882648Y1104267D01*
X894336Y1104267D01*
X894336Y1098675D01*
X882648Y1098675D01*
X882648Y1100844D02*
X894336Y1100844D01*
X894336Y1103013D02*
X882648Y1103013D01*
X882648Y1093853D02*
X882648Y1088261D01*
X882648Y1093853D02*
X894336Y1093853D01*
X894336Y1088261D01*
X882648Y1088261D01*
X882648Y1090430D02*
X894336Y1090430D01*
X894336Y1092599D02*
X882648Y1092599D01*
X882140Y1062611D02*
X882140Y1057019D01*
X882140Y1062611D02*
X893828Y1062611D01*
X893828Y1057019D01*
X882140Y1057019D01*
X882140Y1059188D02*
X893828Y1059188D01*
X893828Y1061357D02*
X882140Y1061357D01*
X882140Y1052197D02*
X882140Y1046605D01*
X882140Y1052197D02*
X893828Y1052197D01*
X893828Y1046605D01*
X882140Y1046605D01*
X882140Y1048774D02*
X893828Y1048774D01*
X893828Y1050943D02*
X882140Y1050943D01*
D19*
X930910Y1338580D03*
X1033780Y1440180D03*
X905510Y910590D03*
X894080Y1338580D03*
D11*
X894080Y1008380D03*
D10*
X812800Y1769618D03*
X249682Y1832102D03*
D11*
X25400Y2270760D03*
X838200Y2270760D03*
X838200Y1584960D03*
X25400Y1584960D03*
D12*
X189560Y2034540D03*
D13*
X389560Y2034540D03*
D14*
X24762Y2181918D03*
X24762Y2169218D03*
X24762Y2156518D03*
X24762Y2143818D03*
X24762Y2194618D03*
X37462Y2181918D03*
X37462Y2169218D03*
X37462Y2156518D03*
X37462Y2143818D03*
X37462Y2194618D03*
X835660Y2242820D03*
X26670Y1637030D03*
D15*
X41148Y2097024D03*
D12*
X522300Y2192020D03*
D13*
X722300Y2192020D03*
D14*
X284500Y1608850D03*
X204500Y1608850D03*
D10*
X431800Y1769364D03*
D16*
X72700Y1609118D03*
X130500Y1609118D03*
D17*
X67310Y1679829D02*
X67310Y1685163D01*
X67310Y1679829D02*
X55626Y1679829D01*
X55626Y1685163D01*
X67310Y1685163D01*
X67310Y1682001D02*
X55626Y1682001D01*
X55626Y1684173D02*
X67310Y1684173D01*
X67310Y1687957D02*
X67310Y1693291D01*
X67310Y1687957D02*
X55626Y1687957D01*
X55626Y1693291D01*
X67310Y1693291D01*
X67310Y1690129D02*
X55626Y1690129D01*
X55626Y1692301D02*
X67310Y1692301D01*
D15*
X132842Y1897126D03*
X107442Y1897126D03*
D17*
X81788Y1862455D02*
X81788Y1857121D01*
X81788Y1862455D02*
X93472Y1862455D01*
X93472Y1857121D01*
X81788Y1857121D01*
X81788Y1859293D02*
X93472Y1859293D01*
X93472Y1861465D02*
X81788Y1861465D01*
X81788Y1854327D02*
X81788Y1848993D01*
X81788Y1854327D02*
X93472Y1854327D01*
X93472Y1848993D01*
X81788Y1848993D01*
X81788Y1851165D02*
X93472Y1851165D01*
X93472Y1853337D02*
X81788Y1853337D01*
D18*
X13968Y1878455D02*
X13968Y1884047D01*
X25656Y1884047D01*
X25656Y1878455D01*
X13968Y1878455D01*
X13968Y1880624D02*
X25656Y1880624D01*
X25656Y1882793D02*
X13968Y1882793D01*
X13968Y1873633D02*
X13968Y1868041D01*
X13968Y1873633D02*
X25656Y1873633D01*
X25656Y1868041D01*
X13968Y1868041D01*
X13968Y1870210D02*
X25656Y1870210D01*
X25656Y1872379D02*
X13968Y1872379D01*
X13460Y1842391D02*
X13460Y1836799D01*
X13460Y1842391D02*
X25148Y1842391D01*
X25148Y1836799D01*
X13460Y1836799D01*
X13460Y1838968D02*
X25148Y1838968D01*
X25148Y1841137D02*
X13460Y1841137D01*
X13460Y1831977D02*
X13460Y1826385D01*
X13460Y1831977D02*
X25148Y1831977D01*
X25148Y1826385D01*
X13460Y1826385D01*
X13460Y1828554D02*
X25148Y1828554D01*
X25148Y1830723D02*
X13460Y1830723D01*
D19*
X62230Y2118360D03*
X165100Y2219960D03*
X36830Y1690370D03*
X25400Y2118360D03*
D11*
X25400Y1788160D03*
D10*
X1681480Y1769618D03*
X1118362Y1832102D03*
D11*
X894080Y2270760D03*
X1706880Y2270760D03*
X1706880Y1584960D03*
X894080Y1584960D03*
D12*
X1058240Y2034540D03*
D13*
X1258240Y2034540D03*
D14*
X893442Y2181918D03*
X893442Y2169218D03*
X893442Y2156518D03*
X893442Y2143818D03*
X893442Y2194618D03*
X906142Y2181918D03*
X906142Y2169218D03*
X906142Y2156518D03*
X906142Y2143818D03*
X906142Y2194618D03*
X1704340Y2242820D03*
X895350Y1637030D03*
D15*
X909828Y2097024D03*
D12*
X1390980Y2192020D03*
D13*
X1590980Y2192020D03*
D14*
X1153180Y1608850D03*
X1073180Y1608850D03*
D10*
X1300480Y1769364D03*
D16*
X941380Y1609118D03*
X999180Y1609118D03*
D17*
X935990Y1679829D02*
X935990Y1685163D01*
X935990Y1679829D02*
X924306Y1679829D01*
X924306Y1685163D01*
X935990Y1685163D01*
X935990Y1682001D02*
X924306Y1682001D01*
X924306Y1684173D02*
X935990Y1684173D01*
X935990Y1687957D02*
X935990Y1693291D01*
X935990Y1687957D02*
X924306Y1687957D01*
X924306Y1693291D01*
X935990Y1693291D01*
X935990Y1690129D02*
X924306Y1690129D01*
X924306Y1692301D02*
X935990Y1692301D01*
D15*
X1001522Y1897126D03*
X976122Y1897126D03*
D17*
X950468Y1862455D02*
X950468Y1857121D01*
X950468Y1862455D02*
X962152Y1862455D01*
X962152Y1857121D01*
X950468Y1857121D01*
X950468Y1859293D02*
X962152Y1859293D01*
X962152Y1861465D02*
X950468Y1861465D01*
X950468Y1854327D02*
X950468Y1848993D01*
X950468Y1854327D02*
X962152Y1854327D01*
X962152Y1848993D01*
X950468Y1848993D01*
X950468Y1851165D02*
X962152Y1851165D01*
X962152Y1853337D02*
X950468Y1853337D01*
D18*
X882648Y1878455D02*
X882648Y1884047D01*
X894336Y1884047D01*
X894336Y1878455D01*
X882648Y1878455D01*
X882648Y1880624D02*
X894336Y1880624D01*
X894336Y1882793D02*
X882648Y1882793D01*
X882648Y1873633D02*
X882648Y1868041D01*
X882648Y1873633D02*
X894336Y1873633D01*
X894336Y1868041D01*
X882648Y1868041D01*
X882648Y1870210D02*
X894336Y1870210D01*
X894336Y1872379D02*
X882648Y1872379D01*
X882140Y1842391D02*
X882140Y1836799D01*
X882140Y1842391D02*
X893828Y1842391D01*
X893828Y1836799D01*
X882140Y1836799D01*
X882140Y1838968D02*
X893828Y1838968D01*
X893828Y1841137D02*
X882140Y1841137D01*
X882140Y1831977D02*
X882140Y1826385D01*
X882140Y1831977D02*
X893828Y1831977D01*
X893828Y1826385D01*
X882140Y1826385D01*
X882140Y1828554D02*
X893828Y1828554D01*
X893828Y1830723D02*
X882140Y1830723D01*
D19*
X930910Y2118360D03*
X1033780Y2219960D03*
X905510Y1690370D03*
X894080Y2118360D03*
D11*
X894080Y1788160D03*
D14*
X-26238Y2307590D03*
X1758518Y2307590D03*
D20*
X-35293Y63500D02*
X-35290Y63722D01*
X-35282Y63944D01*
X-35268Y64166D01*
X-35249Y64388D01*
X-35225Y64608D01*
X-35195Y64829D01*
X-35160Y65048D01*
X-35119Y65267D01*
X-35073Y65484D01*
X-35022Y65700D01*
X-34965Y65915D01*
X-34903Y66129D01*
X-34836Y66340D01*
X-34764Y66551D01*
X-34686Y66759D01*
X-34604Y66965D01*
X-34516Y67169D01*
X-34424Y67372D01*
X-34326Y67571D01*
X-34224Y67768D01*
X-34117Y67963D01*
X-34005Y68155D01*
X-33888Y68344D01*
X-33767Y68531D01*
X-33641Y68714D01*
X-33511Y68894D01*
X-33376Y69071D01*
X-33238Y69244D01*
X-33095Y69414D01*
X-32947Y69581D01*
X-32796Y69744D01*
X-32641Y69903D01*
X-32482Y70058D01*
X-32319Y70209D01*
X-32152Y70357D01*
X-31982Y70500D01*
X-31809Y70638D01*
X-31632Y70773D01*
X-31452Y70903D01*
X-31269Y71029D01*
X-31082Y71150D01*
X-30893Y71267D01*
X-30701Y71379D01*
X-30506Y71486D01*
X-30309Y71588D01*
X-30110Y71686D01*
X-29907Y71778D01*
X-29703Y71866D01*
X-29497Y71948D01*
X-29289Y72026D01*
X-29078Y72098D01*
X-28867Y72165D01*
X-28653Y72227D01*
X-28438Y72284D01*
X-28222Y72335D01*
X-28005Y72381D01*
X-27786Y72422D01*
X-27567Y72457D01*
X-27346Y72487D01*
X-27126Y72511D01*
X-26904Y72530D01*
X-26682Y72544D01*
X-26460Y72552D01*
X-26238Y72555D01*
X-26016Y72552D01*
X-25794Y72544D01*
X-25572Y72530D01*
X-25350Y72511D01*
X-25130Y72487D01*
X-24909Y72457D01*
X-24690Y72422D01*
X-24471Y72381D01*
X-24254Y72335D01*
X-24038Y72284D01*
X-23823Y72227D01*
X-23609Y72165D01*
X-23398Y72098D01*
X-23187Y72026D01*
X-22979Y71948D01*
X-22773Y71866D01*
X-22569Y71778D01*
X-22366Y71686D01*
X-22167Y71588D01*
X-21970Y71486D01*
X-21775Y71379D01*
X-21583Y71267D01*
X-21394Y71150D01*
X-21207Y71029D01*
X-21024Y70903D01*
X-20844Y70773D01*
X-20667Y70638D01*
X-20494Y70500D01*
X-20324Y70357D01*
X-20157Y70209D01*
X-19994Y70058D01*
X-19835Y69903D01*
X-19680Y69744D01*
X-19529Y69581D01*
X-19381Y69414D01*
X-19238Y69244D01*
X-19100Y69071D01*
X-18965Y68894D01*
X-18835Y68714D01*
X-18709Y68531D01*
X-18588Y68344D01*
X-18471Y68155D01*
X-18359Y67963D01*
X-18252Y67768D01*
X-18150Y67571D01*
X-18052Y67372D01*
X-17960Y67169D01*
X-17872Y66965D01*
X-17790Y66759D01*
X-17712Y66551D01*
X-17640Y66340D01*
X-17573Y66129D01*
X-17511Y65915D01*
X-17454Y65700D01*
X-17403Y65484D01*
X-17357Y65267D01*
X-17316Y65048D01*
X-17281Y64829D01*
X-17251Y64608D01*
X-17227Y64388D01*
X-17208Y64166D01*
X-17194Y63944D01*
X-17186Y63722D01*
X-17183Y63500D01*
X-17186Y63278D01*
X-17194Y63056D01*
X-17208Y62834D01*
X-17227Y62612D01*
X-17251Y62392D01*
X-17281Y62171D01*
X-17316Y61952D01*
X-17357Y61733D01*
X-17403Y61516D01*
X-17454Y61300D01*
X-17511Y61085D01*
X-17573Y60871D01*
X-17640Y60660D01*
X-17712Y60449D01*
X-17790Y60241D01*
X-17872Y60035D01*
X-17960Y59831D01*
X-18052Y59628D01*
X-18150Y59429D01*
X-18252Y59232D01*
X-18359Y59037D01*
X-18471Y58845D01*
X-18588Y58656D01*
X-18709Y58469D01*
X-18835Y58286D01*
X-18965Y58106D01*
X-19100Y57929D01*
X-19238Y57756D01*
X-19381Y57586D01*
X-19529Y57419D01*
X-19680Y57256D01*
X-19835Y57097D01*
X-19994Y56942D01*
X-20157Y56791D01*
X-20324Y56643D01*
X-20494Y56500D01*
X-20667Y56362D01*
X-20844Y56227D01*
X-21024Y56097D01*
X-21207Y55971D01*
X-21394Y55850D01*
X-21583Y55733D01*
X-21775Y55621D01*
X-21970Y55514D01*
X-22167Y55412D01*
X-22366Y55314D01*
X-22569Y55222D01*
X-22773Y55134D01*
X-22979Y55052D01*
X-23187Y54974D01*
X-23398Y54902D01*
X-23609Y54835D01*
X-23823Y54773D01*
X-24038Y54716D01*
X-24254Y54665D01*
X-24471Y54619D01*
X-24690Y54578D01*
X-24909Y54543D01*
X-25130Y54513D01*
X-25350Y54489D01*
X-25572Y54470D01*
X-25794Y54456D01*
X-26016Y54448D01*
X-26238Y54445D01*
X-26460Y54448D01*
X-26682Y54456D01*
X-26904Y54470D01*
X-27126Y54489D01*
X-27346Y54513D01*
X-27567Y54543D01*
X-27786Y54578D01*
X-28005Y54619D01*
X-28222Y54665D01*
X-28438Y54716D01*
X-28653Y54773D01*
X-28867Y54835D01*
X-29078Y54902D01*
X-29289Y54974D01*
X-29497Y55052D01*
X-29703Y55134D01*
X-29907Y55222D01*
X-30110Y55314D01*
X-30309Y55412D01*
X-30506Y55514D01*
X-30701Y55621D01*
X-30893Y55733D01*
X-31082Y55850D01*
X-31269Y55971D01*
X-31452Y56097D01*
X-31632Y56227D01*
X-31809Y56362D01*
X-31982Y56500D01*
X-32152Y56643D01*
X-32319Y56791D01*
X-32482Y56942D01*
X-32641Y57097D01*
X-32796Y57256D01*
X-32947Y57419D01*
X-33095Y57586D01*
X-33238Y57756D01*
X-33376Y57929D01*
X-33511Y58106D01*
X-33641Y58286D01*
X-33767Y58469D01*
X-33888Y58656D01*
X-34005Y58845D01*
X-34117Y59037D01*
X-34224Y59232D01*
X-34326Y59429D01*
X-34424Y59628D01*
X-34516Y59831D01*
X-34604Y60035D01*
X-34686Y60241D01*
X-34764Y60449D01*
X-34836Y60660D01*
X-34903Y60871D01*
X-34965Y61085D01*
X-35022Y61300D01*
X-35073Y61516D01*
X-35119Y61733D01*
X-35160Y61952D01*
X-35195Y62171D01*
X-35225Y62392D01*
X-35249Y62612D01*
X-35268Y62834D01*
X-35282Y63056D01*
X-35290Y63278D01*
X-35293Y63500D01*
D21*
X-26238Y63500D03*
M02*
