G04 EAGLE Gerber RS-274X export*
G75*
%MOMM*%
%FSLAX34Y34*%
%LPD*%
%INSilkscreen Bottom*%
%IPPOS*%
%AMOC8*
5,1,8,0,0,1.08239X$1,22.5*%
G01*
%ADD10C,0.152400*%
%ADD11C,0.203200*%

G36*
X592585Y339152D02*
X592585Y339152D01*
X592611Y339153D01*
X592665Y339183D01*
X592723Y339205D01*
X592740Y339224D01*
X592763Y339236D01*
X592798Y339287D01*
X592840Y339332D01*
X592848Y339357D01*
X592863Y339378D01*
X592879Y339462D01*
X592890Y339498D01*
X592888Y339508D01*
X592890Y339520D01*
X592890Y380820D01*
X592884Y380845D01*
X592885Y380880D01*
X592485Y383380D01*
X592478Y383399D01*
X592476Y383424D01*
X591876Y385524D01*
X591860Y385553D01*
X591846Y385598D01*
X590946Y387298D01*
X590924Y387323D01*
X590900Y387366D01*
X589800Y388666D01*
X589783Y388678D01*
X589767Y388700D01*
X588567Y389800D01*
X588543Y389814D01*
X588516Y389840D01*
X587116Y390740D01*
X587098Y390746D01*
X587080Y390760D01*
X585680Y391460D01*
X585654Y391466D01*
X585623Y391483D01*
X584023Y391983D01*
X583995Y391985D01*
X583957Y391997D01*
X582357Y392197D01*
X582348Y392196D01*
X582337Y392199D01*
X580937Y392299D01*
X580912Y392295D01*
X580878Y392299D01*
X579678Y392199D01*
X579660Y392193D01*
X579635Y392193D01*
X578635Y391993D01*
X578628Y391989D01*
X578618Y391989D01*
X577827Y391791D01*
X577335Y391693D01*
X577301Y391677D01*
X577240Y391660D01*
X577069Y391575D01*
X577040Y391560D01*
X576975Y391506D01*
X576909Y391452D01*
X576908Y391450D01*
X576907Y391449D01*
X576873Y391373D01*
X576837Y391294D01*
X576837Y391292D01*
X576836Y391291D01*
X576840Y391206D01*
X576843Y391121D01*
X576844Y391119D01*
X576844Y391118D01*
X576885Y391042D01*
X576925Y390968D01*
X576926Y390967D01*
X576927Y390966D01*
X576937Y390959D01*
X577040Y390880D01*
X577240Y390780D01*
X577273Y390772D01*
X577318Y390751D01*
X577663Y390665D01*
X578114Y390394D01*
X578136Y390387D01*
X578160Y390371D01*
X578822Y390087D01*
X580163Y389129D01*
X580719Y388574D01*
X581167Y387945D01*
X581430Y387158D01*
X581430Y386276D01*
X581159Y385375D01*
X580602Y384446D01*
X579853Y383603D01*
X578817Y382850D01*
X577583Y382280D01*
X576063Y381900D01*
X573769Y381900D01*
X571669Y382568D01*
X569959Y383614D01*
X568749Y385010D01*
X568193Y386770D01*
X568287Y388740D01*
X569140Y390920D01*
X571088Y393160D01*
X573579Y395651D01*
X573590Y395670D01*
X573611Y395688D01*
X575611Y398288D01*
X575622Y398312D01*
X575645Y398340D01*
X577045Y400940D01*
X577054Y400975D01*
X577078Y401025D01*
X577778Y403725D01*
X577779Y403762D01*
X577790Y403820D01*
X577790Y406320D01*
X577781Y406358D01*
X577772Y406436D01*
X576972Y408936D01*
X576952Y408969D01*
X576920Y409040D01*
X575220Y411440D01*
X575193Y411464D01*
X575156Y411510D01*
X572556Y413710D01*
X572524Y413727D01*
X572480Y413760D01*
X569080Y415460D01*
X569044Y415469D01*
X568989Y415492D01*
X565689Y416192D01*
X565653Y416191D01*
X565597Y416200D01*
X562597Y416100D01*
X562565Y416091D01*
X562515Y416088D01*
X559815Y415388D01*
X559797Y415379D01*
X559771Y415374D01*
X557471Y414474D01*
X557453Y414461D01*
X557425Y414452D01*
X555625Y413452D01*
X555610Y413439D01*
X555586Y413428D01*
X554486Y412628D01*
X554485Y412626D01*
X554482Y412624D01*
X554082Y412324D01*
X554048Y412284D01*
X554008Y412251D01*
X553993Y412218D01*
X553971Y412191D01*
X553958Y412140D01*
X553937Y412092D01*
X553938Y412057D01*
X553930Y412023D01*
X553941Y411972D01*
X553943Y411919D01*
X553960Y411888D01*
X553968Y411854D01*
X554001Y411813D01*
X554026Y411767D01*
X554055Y411747D01*
X554077Y411719D01*
X554125Y411698D01*
X554168Y411667D01*
X554208Y411660D01*
X554235Y411647D01*
X554266Y411648D01*
X554310Y411640D01*
X554510Y411640D01*
X554536Y411646D01*
X554573Y411645D01*
X555162Y411743D01*
X556031Y411840D01*
X557079Y411840D01*
X558236Y411647D01*
X559468Y411362D01*
X560584Y410712D01*
X561648Y409745D01*
X562298Y409095D01*
X562658Y408374D01*
X562937Y407538D01*
X563027Y406720D01*
X562936Y405896D01*
X562655Y404961D01*
X562188Y404026D01*
X561419Y403065D01*
X560640Y402188D01*
X559664Y401310D01*
X558694Y400534D01*
X557535Y399858D01*
X556466Y399372D01*
X555410Y398988D01*
X554376Y398800D01*
X553577Y398800D01*
X552607Y399153D01*
X551917Y399757D01*
X551571Y400448D01*
X551386Y401282D01*
X551290Y402141D01*
X551290Y402882D01*
X551373Y403296D01*
X551450Y403450D01*
X551454Y403465D01*
X551463Y403478D01*
X551489Y403612D01*
X551490Y403619D01*
X551490Y403620D01*
X551490Y403720D01*
X551476Y403781D01*
X551470Y403844D01*
X551456Y403865D01*
X551451Y403889D01*
X551411Y403937D01*
X551377Y403990D01*
X551356Y404003D01*
X551341Y404022D01*
X551283Y404048D01*
X551230Y404081D01*
X551205Y404083D01*
X551182Y404093D01*
X551120Y404091D01*
X551057Y404097D01*
X551031Y404088D01*
X551009Y404087D01*
X550976Y404069D01*
X550920Y404049D01*
X548320Y402549D01*
X548291Y402523D01*
X548231Y402478D01*
X545831Y399878D01*
X545813Y399848D01*
X545804Y399837D01*
X545796Y399830D01*
X545793Y399824D01*
X545780Y399809D01*
X543780Y396309D01*
X543772Y396283D01*
X543754Y396253D01*
X542154Y391953D01*
X542149Y391920D01*
X542134Y391875D01*
X541434Y387075D01*
X541436Y387043D01*
X541430Y386999D01*
X541730Y381699D01*
X541740Y381667D01*
X541743Y381620D01*
X543243Y376120D01*
X543259Y376090D01*
X543274Y376043D01*
X546174Y370543D01*
X546194Y370519D01*
X546214Y370481D01*
X548314Y367881D01*
X548326Y367872D01*
X548335Y367857D01*
X550635Y365457D01*
X550651Y365447D01*
X550665Y365429D01*
X553165Y363329D01*
X553188Y363318D01*
X553213Y363295D01*
X556013Y361595D01*
X556032Y361589D01*
X556054Y361573D01*
X559154Y360173D01*
X559179Y360168D01*
X559210Y360153D01*
X562510Y359253D01*
X562535Y359252D01*
X562567Y359242D01*
X566067Y358842D01*
X566086Y358844D01*
X566110Y358840D01*
X570000Y358840D01*
X571858Y358742D01*
X573591Y358357D01*
X575119Y357688D01*
X576567Y356627D01*
X578041Y355251D01*
X579630Y353563D01*
X581327Y351666D01*
X581328Y351665D01*
X583228Y349565D01*
X583231Y349563D01*
X583234Y349559D01*
X585030Y347663D01*
X586727Y345766D01*
X588220Y344074D01*
X589515Y342480D01*
X589524Y342474D01*
X589531Y342462D01*
X590721Y341172D01*
X591506Y340191D01*
X592001Y339499D01*
X592021Y339481D01*
X592041Y339451D01*
X592241Y339251D01*
X592263Y339238D01*
X592279Y339218D01*
X592336Y339192D01*
X592388Y339160D01*
X592414Y339157D01*
X592438Y339147D01*
X592499Y339149D01*
X592561Y339143D01*
X592585Y339152D01*
G37*
G36*
X729636Y262750D02*
X729636Y262750D01*
X729711Y262753D01*
X729721Y262759D01*
X729733Y262760D01*
X729859Y262833D01*
X731359Y264133D01*
X731363Y264137D01*
X731369Y264141D01*
X732764Y265437D01*
X735759Y268033D01*
X735763Y268037D01*
X735769Y268041D01*
X737164Y269337D01*
X738659Y270633D01*
X738663Y270637D01*
X738669Y270641D01*
X740064Y271937D01*
X741559Y273233D01*
X741561Y273235D01*
X741563Y273236D01*
X741611Y273304D01*
X741661Y273373D01*
X741661Y273376D01*
X741663Y273378D01*
X741690Y273520D01*
X741690Y328820D01*
X741688Y328831D01*
X741690Y328842D01*
X741668Y328914D01*
X741651Y328989D01*
X741644Y328997D01*
X741641Y329008D01*
X741589Y329064D01*
X741541Y329122D01*
X741531Y329127D01*
X741523Y329135D01*
X741390Y329192D01*
X739990Y329492D01*
X739978Y329492D01*
X739964Y329496D01*
X738577Y329695D01*
X737190Y329992D01*
X737178Y329992D01*
X737164Y329996D01*
X735780Y330194D01*
X734496Y330491D01*
X734481Y330490D01*
X734464Y330496D01*
X733077Y330695D01*
X731690Y330992D01*
X731678Y330992D01*
X731664Y330996D01*
X730264Y331196D01*
X730187Y331190D01*
X730109Y331187D01*
X730101Y331182D01*
X730091Y331181D01*
X730025Y331141D01*
X729957Y331104D01*
X729952Y331096D01*
X729943Y331091D01*
X729908Y331036D01*
X729908Y331035D01*
X729907Y331034D01*
X729902Y331025D01*
X729857Y330962D01*
X729855Y330952D01*
X729851Y330945D01*
X729847Y330909D01*
X729844Y330893D01*
X729837Y330877D01*
X729837Y330859D01*
X729830Y330820D01*
X729830Y326499D01*
X729323Y327235D01*
X729311Y327247D01*
X729306Y327255D01*
X729301Y327258D01*
X729289Y327279D01*
X727989Y328679D01*
X727967Y328693D01*
X727945Y328719D01*
X726545Y329819D01*
X726522Y329830D01*
X726496Y329851D01*
X724896Y330751D01*
X724877Y330757D01*
X724855Y330772D01*
X723155Y331472D01*
X723137Y331474D01*
X723117Y331485D01*
X721417Y331985D01*
X721396Y331986D01*
X721369Y331996D01*
X719469Y332296D01*
X719452Y332294D01*
X719430Y332300D01*
X717530Y332400D01*
X717504Y332395D01*
X717470Y332398D01*
X712770Y331898D01*
X712736Y331886D01*
X712682Y331878D01*
X708782Y330478D01*
X708751Y330458D01*
X708699Y330436D01*
X705399Y328236D01*
X705376Y328212D01*
X705336Y328184D01*
X702636Y325384D01*
X702619Y325355D01*
X702601Y325336D01*
X702596Y325331D01*
X702595Y325329D01*
X702586Y325320D01*
X700486Y321920D01*
X700476Y321889D01*
X700452Y321848D01*
X699052Y317948D01*
X699050Y317926D01*
X699038Y317900D01*
X698138Y313700D01*
X698139Y313676D01*
X698131Y313646D01*
X697831Y309246D01*
X697834Y309223D01*
X697831Y309193D01*
X698131Y304993D01*
X698138Y304969D01*
X698139Y304937D01*
X699039Y300937D01*
X699042Y300929D01*
X699043Y300922D01*
X699050Y300909D01*
X699053Y300889D01*
X700453Y297089D01*
X700472Y297059D01*
X700492Y297011D01*
X702592Y293811D01*
X702612Y293793D01*
X702631Y293761D01*
X705231Y290961D01*
X705262Y290941D01*
X705301Y290902D01*
X708501Y288802D01*
X708534Y288790D01*
X708579Y288763D01*
X712379Y287363D01*
X712414Y287359D01*
X712466Y287342D01*
X716766Y286842D01*
X716799Y286846D01*
X716848Y286842D01*
X718848Y287042D01*
X718859Y287045D01*
X718873Y287045D01*
X720673Y287345D01*
X720689Y287352D01*
X720712Y287354D01*
X722512Y287854D01*
X722529Y287863D01*
X722555Y287868D01*
X724255Y288568D01*
X724275Y288583D01*
X724306Y288594D01*
X725806Y289494D01*
X725817Y289505D01*
X725835Y289513D01*
X727335Y290613D01*
X727351Y290632D01*
X727379Y290651D01*
X728679Y291951D01*
X728686Y291962D01*
X728699Y291973D01*
X729230Y292592D01*
X729230Y263120D01*
X729233Y263108D01*
X729231Y263096D01*
X729252Y263025D01*
X729269Y262951D01*
X729277Y262942D01*
X729280Y262930D01*
X729332Y262876D01*
X729379Y262818D01*
X729391Y262813D01*
X729399Y262804D01*
X729469Y262777D01*
X729538Y262747D01*
X729550Y262747D01*
X729561Y262743D01*
X729636Y262750D01*
G37*
G36*
X680421Y286742D02*
X680421Y286742D01*
X680435Y286741D01*
X683435Y286941D01*
X683449Y286945D01*
X683468Y286944D01*
X684768Y287144D01*
X684787Y287152D01*
X684814Y287154D01*
X686214Y287554D01*
X686221Y287558D01*
X686230Y287559D01*
X687430Y287959D01*
X687450Y287972D01*
X687480Y287980D01*
X688121Y288300D01*
X688680Y288580D01*
X688685Y288584D01*
X688692Y288586D01*
X689792Y289186D01*
X689801Y289194D01*
X689814Y289199D01*
X690914Y289899D01*
X690938Y289923D01*
X690979Y289951D01*
X691879Y290851D01*
X691884Y290860D01*
X691894Y290867D01*
X692694Y291767D01*
X692704Y291785D01*
X692722Y291802D01*
X693422Y292802D01*
X693431Y292825D01*
X693450Y292850D01*
X694050Y294050D01*
X694053Y294061D01*
X694061Y294074D01*
X694561Y295274D01*
X694566Y295303D01*
X694582Y295340D01*
X694882Y296740D01*
X694882Y296743D01*
X694883Y296745D01*
X695183Y298245D01*
X695182Y298277D01*
X695190Y298320D01*
X695190Y299820D01*
X695187Y299835D01*
X695189Y299854D01*
X694889Y303154D01*
X694880Y303181D01*
X694879Y303191D01*
X694876Y303197D01*
X694871Y303240D01*
X693971Y305940D01*
X693950Y305974D01*
X693919Y306041D01*
X692419Y308141D01*
X692393Y308164D01*
X692363Y308204D01*
X690563Y309804D01*
X690532Y309821D01*
X690492Y309854D01*
X688292Y311054D01*
X688270Y311060D01*
X688244Y311076D01*
X685844Y311976D01*
X685829Y311978D01*
X685813Y311986D01*
X683313Y312686D01*
X683292Y312687D01*
X683266Y312696D01*
X680567Y313096D01*
X677968Y313496D01*
X677961Y313495D01*
X677954Y313498D01*
X675354Y313798D01*
X672978Y314095D01*
X670918Y314585D01*
X669269Y315167D01*
X667977Y315906D01*
X667276Y316956D01*
X667090Y318444D01*
X667090Y319293D01*
X667183Y319941D01*
X667555Y321242D01*
X667907Y321682D01*
X667917Y321703D01*
X667936Y321724D01*
X668201Y322166D01*
X668628Y322507D01*
X669570Y323072D01*
X670698Y323448D01*
X672737Y323740D01*
X674986Y323740D01*
X675759Y323643D01*
X676431Y323547D01*
X677797Y323157D01*
X678364Y322968D01*
X678904Y322698D01*
X679839Y321949D01*
X680197Y321502D01*
X680484Y321024D01*
X680490Y321018D01*
X680494Y321009D01*
X680865Y320452D01*
X681047Y319907D01*
X681243Y319222D01*
X681436Y318450D01*
X681533Y317673D01*
X681542Y317647D01*
X681543Y317619D01*
X681572Y317567D01*
X681593Y317510D01*
X681613Y317491D01*
X681626Y317467D01*
X681675Y317433D01*
X681719Y317391D01*
X681745Y317383D01*
X681768Y317367D01*
X681848Y317352D01*
X681884Y317341D01*
X681896Y317343D01*
X681910Y317340D01*
X693510Y317340D01*
X693579Y317356D01*
X693649Y317366D01*
X693662Y317375D01*
X693679Y317379D01*
X693733Y317424D01*
X693791Y317464D01*
X693799Y317479D01*
X693812Y317489D01*
X693841Y317554D01*
X693876Y317615D01*
X693877Y317634D01*
X693883Y317648D01*
X693882Y317687D01*
X693888Y317760D01*
X693688Y319660D01*
X693682Y319678D01*
X693681Y319703D01*
X693281Y321503D01*
X693271Y321523D01*
X693266Y321554D01*
X692666Y323154D01*
X692654Y323172D01*
X692646Y323199D01*
X691846Y324699D01*
X691828Y324719D01*
X691811Y324752D01*
X690811Y326052D01*
X690795Y326066D01*
X690779Y326089D01*
X689679Y327189D01*
X689672Y327193D01*
X689667Y327200D01*
X688467Y328300D01*
X688440Y328315D01*
X688409Y328344D01*
X687109Y329144D01*
X687099Y329147D01*
X687089Y329156D01*
X685589Y329956D01*
X685571Y329960D01*
X685551Y329973D01*
X684051Y330573D01*
X684047Y330574D01*
X684044Y330576D01*
X682444Y331176D01*
X682422Y331179D01*
X682397Y331190D01*
X680697Y331590D01*
X680687Y331590D01*
X680676Y331594D01*
X678976Y331894D01*
X678966Y331894D01*
X678954Y331898D01*
X677254Y332098D01*
X677244Y332096D01*
X677231Y332100D01*
X673631Y332300D01*
X673622Y332298D01*
X673610Y332300D01*
X672010Y332300D01*
X671999Y332298D01*
X671986Y332300D01*
X670386Y332200D01*
X670377Y332197D01*
X670366Y332198D01*
X668666Y331998D01*
X668664Y331997D01*
X668663Y331997D01*
X667063Y331797D01*
X667053Y331794D01*
X667040Y331794D01*
X665440Y331494D01*
X665428Y331489D01*
X665412Y331487D01*
X663912Y331087D01*
X663903Y331082D01*
X663890Y331081D01*
X662390Y330581D01*
X662378Y330573D01*
X662360Y330570D01*
X660960Y329970D01*
X660948Y329961D01*
X660930Y329955D01*
X659630Y329255D01*
X659618Y329244D01*
X659599Y329236D01*
X658399Y328436D01*
X658378Y328414D01*
X658341Y328389D01*
X657341Y327389D01*
X657332Y327375D01*
X657316Y327361D01*
X656416Y326261D01*
X656402Y326233D01*
X656375Y326200D01*
X655675Y324900D01*
X655670Y324882D01*
X655657Y324861D01*
X655057Y323361D01*
X655052Y323331D01*
X655050Y323324D01*
X655046Y323316D01*
X655046Y323315D01*
X655036Y323290D01*
X654736Y321690D01*
X654737Y321668D01*
X654730Y321641D01*
X654630Y319841D01*
X654632Y319832D01*
X654630Y319820D01*
X654630Y297047D01*
X654534Y296374D01*
X654536Y296350D01*
X654530Y296320D01*
X654530Y294247D01*
X654334Y292877D01*
X654036Y291089D01*
X653844Y290129D01*
X653657Y289661D01*
X653653Y289632D01*
X653637Y289595D01*
X653547Y289144D01*
X653381Y288811D01*
X653194Y288531D01*
X653167Y288461D01*
X653137Y288392D01*
X653137Y288380D01*
X653133Y288369D01*
X653140Y288294D01*
X653143Y288219D01*
X653149Y288209D01*
X653150Y288196D01*
X653190Y288133D01*
X653226Y288067D01*
X653236Y288060D01*
X653243Y288050D01*
X653307Y288010D01*
X653368Y287967D01*
X653381Y287965D01*
X653390Y287959D01*
X653428Y287956D01*
X653510Y287940D01*
X665310Y287940D01*
X665359Y287951D01*
X665409Y287953D01*
X665442Y287971D01*
X665479Y287979D01*
X665518Y288011D01*
X665562Y288035D01*
X665588Y288070D01*
X665612Y288089D01*
X665625Y288117D01*
X665650Y288150D01*
X665750Y288350D01*
X665756Y288373D01*
X665771Y288400D01*
X665862Y288674D01*
X665950Y288850D01*
X665956Y288873D01*
X665971Y288900D01*
X666171Y289500D01*
X666174Y289537D01*
X666190Y289620D01*
X666190Y289758D01*
X666271Y290000D01*
X666274Y290037D01*
X666290Y290120D01*
X666290Y290258D01*
X666371Y290500D01*
X666374Y290537D01*
X666390Y290620D01*
X666390Y291058D01*
X666471Y291300D01*
X666474Y291337D01*
X666490Y291420D01*
X666490Y291502D01*
X666541Y291451D01*
X666561Y291439D01*
X666582Y291416D01*
X668182Y290216D01*
X668195Y290210D01*
X668208Y290198D01*
X669808Y289198D01*
X669817Y289195D01*
X669825Y289188D01*
X670725Y288688D01*
X670748Y288681D01*
X670766Y288669D01*
X670777Y288666D01*
X670790Y288659D01*
X671673Y288365D01*
X672556Y287973D01*
X672572Y287969D01*
X672590Y287959D01*
X673490Y287659D01*
X673507Y287658D01*
X673528Y287649D01*
X674428Y287449D01*
X674431Y287449D01*
X674435Y287447D01*
X676435Y287047D01*
X676450Y287048D01*
X676468Y287042D01*
X677368Y286942D01*
X677370Y286942D01*
X677372Y286942D01*
X679372Y286742D01*
X679389Y286744D01*
X679410Y286740D01*
X680410Y286740D01*
X680421Y286742D01*
G37*
G36*
X588843Y288048D02*
X588843Y288048D01*
X588877Y288046D01*
X588926Y288067D01*
X588979Y288079D01*
X589005Y288101D01*
X589036Y288114D01*
X589082Y288165D01*
X589112Y288189D01*
X589119Y288205D01*
X589134Y288221D01*
X600488Y306720D01*
X604530Y302857D01*
X604530Y288420D01*
X604541Y288370D01*
X604543Y288319D01*
X604561Y288287D01*
X604569Y288251D01*
X604602Y288212D01*
X604626Y288167D01*
X604656Y288146D01*
X604679Y288118D01*
X604726Y288097D01*
X604768Y288067D01*
X604810Y288059D01*
X604838Y288047D01*
X604868Y288048D01*
X604910Y288040D01*
X616610Y288040D01*
X616660Y288051D01*
X616711Y288053D01*
X616743Y288071D01*
X616779Y288079D01*
X616818Y288112D01*
X616863Y288136D01*
X616884Y288166D01*
X616912Y288189D01*
X616933Y288236D01*
X616963Y288278D01*
X616971Y288320D01*
X616983Y288348D01*
X616982Y288378D01*
X616990Y288420D01*
X616990Y340620D01*
X616980Y340662D01*
X616981Y340706D01*
X616961Y340745D01*
X616951Y340789D01*
X616923Y340822D01*
X616904Y340861D01*
X616863Y340895D01*
X616841Y340922D01*
X616818Y340933D01*
X616792Y340954D01*
X605092Y347354D01*
X605036Y347369D01*
X604982Y347393D01*
X604953Y347392D01*
X604926Y347400D01*
X604868Y347389D01*
X604809Y347387D01*
X604784Y347373D01*
X604755Y347367D01*
X604709Y347332D01*
X604657Y347304D01*
X604640Y347280D01*
X604617Y347263D01*
X604591Y347210D01*
X604557Y347162D01*
X604551Y347130D01*
X604540Y347108D01*
X604540Y347072D01*
X604530Y347020D01*
X604530Y316465D01*
X590484Y331083D01*
X590417Y331127D01*
X590352Y331173D01*
X590344Y331174D01*
X590339Y331178D01*
X590306Y331182D01*
X590210Y331200D01*
X576510Y331200D01*
X576483Y331194D01*
X576454Y331196D01*
X576399Y331174D01*
X576341Y331161D01*
X576320Y331143D01*
X576293Y331132D01*
X576254Y331088D01*
X576208Y331051D01*
X576196Y331025D01*
X576177Y331004D01*
X576161Y330947D01*
X576137Y330892D01*
X576138Y330864D01*
X576130Y330837D01*
X576141Y330779D01*
X576143Y330719D01*
X576157Y330695D01*
X576162Y330667D01*
X576208Y330601D01*
X576226Y330567D01*
X576236Y330560D01*
X576245Y330548D01*
X592019Y315168D01*
X574393Y288630D01*
X574367Y288560D01*
X574337Y288492D01*
X574337Y288480D01*
X574333Y288468D01*
X574340Y288394D01*
X574343Y288319D01*
X574349Y288308D01*
X574351Y288296D01*
X574390Y288233D01*
X574426Y288167D01*
X574436Y288160D01*
X574443Y288149D01*
X574507Y288110D01*
X574568Y288067D01*
X574581Y288065D01*
X574591Y288059D01*
X574629Y288055D01*
X574710Y288040D01*
X588810Y288040D01*
X588843Y288048D01*
G37*
G36*
X470460Y288051D02*
X470460Y288051D01*
X470511Y288053D01*
X470543Y288071D01*
X470579Y288079D01*
X470618Y288112D01*
X470663Y288136D01*
X470684Y288166D01*
X470712Y288189D01*
X470733Y288236D01*
X470763Y288278D01*
X470771Y288320D01*
X470783Y288348D01*
X470782Y288378D01*
X470790Y288420D01*
X470790Y312412D01*
X470889Y314785D01*
X471183Y316842D01*
X471668Y318588D01*
X472326Y319999D01*
X473347Y321020D01*
X474572Y321773D01*
X475991Y322246D01*
X477813Y322438D01*
X479944Y322244D01*
X481766Y321765D01*
X483271Y320918D01*
X484406Y319688D01*
X485359Y318164D01*
X485938Y316139D01*
X486332Y313578D01*
X486530Y310607D01*
X486530Y288420D01*
X486541Y288370D01*
X486543Y288319D01*
X486561Y288287D01*
X486569Y288251D01*
X486602Y288212D01*
X486626Y288167D01*
X486656Y288146D01*
X486679Y288118D01*
X486726Y288097D01*
X486768Y288067D01*
X486810Y288059D01*
X486838Y288047D01*
X486868Y288048D01*
X486910Y288040D01*
X498510Y288040D01*
X498560Y288051D01*
X498611Y288053D01*
X498643Y288071D01*
X498679Y288079D01*
X498718Y288112D01*
X498763Y288136D01*
X498784Y288166D01*
X498812Y288189D01*
X498833Y288236D01*
X498863Y288278D01*
X498871Y288320D01*
X498883Y288348D01*
X498882Y288378D01*
X498890Y288420D01*
X498890Y325520D01*
X498890Y325523D01*
X498890Y325527D01*
X498790Y330827D01*
X498779Y330873D01*
X498777Y330921D01*
X498757Y330956D01*
X498748Y330995D01*
X498717Y331031D01*
X498694Y331073D01*
X498661Y331096D01*
X498635Y331127D01*
X498591Y331145D01*
X498552Y331173D01*
X498506Y331182D01*
X498475Y331195D01*
X498447Y331193D01*
X498410Y331200D01*
X487310Y331200D01*
X487260Y331189D01*
X487209Y331187D01*
X487177Y331169D01*
X487141Y331161D01*
X487102Y331128D01*
X487057Y331104D01*
X487036Y331074D01*
X487008Y331051D01*
X486987Y331004D01*
X486957Y330962D01*
X486949Y330920D01*
X486937Y330892D01*
X486938Y330862D01*
X486930Y330820D01*
X486930Y325976D01*
X486321Y326839D01*
X486304Y326854D01*
X486288Y326879D01*
X484888Y328379D01*
X484868Y328393D01*
X484848Y328417D01*
X483348Y329617D01*
X483326Y329627D01*
X483303Y329648D01*
X481603Y330648D01*
X481580Y330655D01*
X481555Y330672D01*
X479855Y331372D01*
X479835Y331375D01*
X479812Y331386D01*
X478012Y331886D01*
X478003Y331887D01*
X477993Y331891D01*
X476193Y332291D01*
X476165Y332291D01*
X476130Y332300D01*
X474230Y332400D01*
X474206Y332395D01*
X474174Y332399D01*
X469974Y331999D01*
X469949Y331990D01*
X469913Y331988D01*
X466513Y331088D01*
X466480Y331070D01*
X466425Y331052D01*
X463725Y329552D01*
X463698Y329527D01*
X463648Y329495D01*
X461548Y327495D01*
X461527Y327463D01*
X461514Y327448D01*
X461500Y327436D01*
X461494Y327424D01*
X461475Y327400D01*
X460075Y324800D01*
X460068Y324775D01*
X460051Y324744D01*
X459051Y321844D01*
X459048Y321814D01*
X459034Y321775D01*
X458534Y318375D01*
X458535Y318359D01*
X458530Y318340D01*
X458330Y314540D01*
X458332Y314531D01*
X458330Y314520D01*
X458330Y288420D01*
X458341Y288370D01*
X458343Y288319D01*
X458361Y288287D01*
X458369Y288251D01*
X458402Y288212D01*
X458426Y288167D01*
X458456Y288146D01*
X458479Y288118D01*
X458526Y288097D01*
X458568Y288067D01*
X458610Y288059D01*
X458638Y288047D01*
X458668Y288048D01*
X458710Y288040D01*
X470410Y288040D01*
X470460Y288051D01*
G37*
G36*
X529014Y286845D02*
X529014Y286845D01*
X529046Y286841D01*
X533246Y287241D01*
X533271Y287250D01*
X533307Y287252D01*
X536707Y288152D01*
X536740Y288170D01*
X536795Y288188D01*
X539495Y289688D01*
X539522Y289713D01*
X539572Y289745D01*
X541672Y291745D01*
X541694Y291777D01*
X541739Y291830D01*
X543239Y294430D01*
X543250Y294464D01*
X543274Y294511D01*
X544174Y297511D01*
X544176Y297534D01*
X544186Y297563D01*
X544686Y300863D01*
X544685Y300880D01*
X544690Y300900D01*
X544890Y304700D01*
X544888Y304709D01*
X544890Y304720D01*
X544890Y330820D01*
X544879Y330870D01*
X544877Y330921D01*
X544859Y330953D01*
X544851Y330989D01*
X544818Y331028D01*
X544794Y331073D01*
X544764Y331094D01*
X544741Y331122D01*
X544694Y331143D01*
X544652Y331173D01*
X544610Y331181D01*
X544582Y331193D01*
X544552Y331192D01*
X544510Y331200D01*
X532910Y331200D01*
X532860Y331189D01*
X532809Y331187D01*
X532777Y331169D01*
X532741Y331161D01*
X532702Y331128D01*
X532657Y331104D01*
X532636Y331074D01*
X532608Y331051D01*
X532587Y331004D01*
X532557Y330962D01*
X532549Y330920D01*
X532537Y330892D01*
X532538Y330862D01*
X532530Y330820D01*
X532530Y306935D01*
X532332Y304462D01*
X532037Y302398D01*
X531552Y300652D01*
X530890Y299233D01*
X529965Y298216D01*
X528751Y297469D01*
X527233Y296994D01*
X525407Y296802D01*
X523276Y296996D01*
X521454Y297475D01*
X519949Y298322D01*
X518814Y299552D01*
X517861Y301076D01*
X517282Y303101D01*
X516889Y305656D01*
X516790Y308626D01*
X516790Y330820D01*
X516779Y330870D01*
X516777Y330921D01*
X516759Y330953D01*
X516751Y330989D01*
X516718Y331028D01*
X516694Y331073D01*
X516664Y331094D01*
X516641Y331122D01*
X516594Y331143D01*
X516552Y331173D01*
X516510Y331181D01*
X516482Y331193D01*
X516452Y331192D01*
X516410Y331200D01*
X504710Y331200D01*
X504660Y331189D01*
X504609Y331187D01*
X504577Y331169D01*
X504541Y331161D01*
X504502Y331128D01*
X504457Y331104D01*
X504436Y331074D01*
X504408Y331051D01*
X504387Y331004D01*
X504357Y330962D01*
X504349Y330920D01*
X504337Y330892D01*
X504338Y330862D01*
X504330Y330820D01*
X504330Y293720D01*
X504331Y293717D01*
X504330Y293713D01*
X504430Y288413D01*
X504442Y288367D01*
X504443Y288319D01*
X504463Y288284D01*
X504472Y288245D01*
X504503Y288209D01*
X504526Y288167D01*
X504559Y288144D01*
X504585Y288113D01*
X504629Y288095D01*
X504668Y288067D01*
X504714Y288058D01*
X504745Y288045D01*
X504773Y288047D01*
X504810Y288040D01*
X515910Y288040D01*
X515960Y288051D01*
X516011Y288053D01*
X516043Y288071D01*
X516079Y288079D01*
X516118Y288112D01*
X516163Y288136D01*
X516184Y288166D01*
X516212Y288189D01*
X516233Y288236D01*
X516263Y288278D01*
X516271Y288320D01*
X516283Y288348D01*
X516282Y288378D01*
X516290Y288420D01*
X516290Y293264D01*
X516899Y292401D01*
X516920Y292382D01*
X516941Y292351D01*
X518341Y290951D01*
X518352Y290945D01*
X518361Y290933D01*
X519861Y289633D01*
X519892Y289616D01*
X519932Y289584D01*
X521632Y288684D01*
X521640Y288682D01*
X521648Y288676D01*
X523348Y287876D01*
X523375Y287870D01*
X523408Y287854D01*
X525208Y287354D01*
X525217Y287353D01*
X525228Y287349D01*
X527028Y286949D01*
X527055Y286949D01*
X527090Y286940D01*
X528990Y286840D01*
X529014Y286845D01*
G37*
G36*
X769131Y287040D02*
X769131Y287040D01*
X769149Y287046D01*
X769174Y287045D01*
X772674Y287645D01*
X772693Y287653D01*
X772720Y287656D01*
X776020Y288656D01*
X776044Y288670D01*
X776080Y288680D01*
X776281Y288780D01*
X776281Y288781D01*
X777042Y289161D01*
X777802Y289541D01*
X778563Y289921D01*
X779080Y290180D01*
X779105Y290201D01*
X779148Y290223D01*
X781648Y292223D01*
X781670Y292252D01*
X781711Y292288D01*
X783711Y294888D01*
X783726Y294921D01*
X783758Y294968D01*
X785158Y298168D01*
X785165Y298206D01*
X785187Y298272D01*
X785687Y302172D01*
X785680Y302246D01*
X785677Y302321D01*
X785671Y302332D01*
X785669Y302344D01*
X785630Y302407D01*
X785594Y302473D01*
X785584Y302480D01*
X785577Y302491D01*
X785513Y302530D01*
X785452Y302573D01*
X785439Y302575D01*
X785429Y302581D01*
X785392Y302584D01*
X785310Y302600D01*
X774310Y302600D01*
X774281Y302593D01*
X774250Y302596D01*
X774197Y302574D01*
X774141Y302561D01*
X774118Y302542D01*
X774090Y302530D01*
X774052Y302487D01*
X774008Y302451D01*
X773995Y302423D01*
X773975Y302400D01*
X773953Y302328D01*
X773937Y302292D01*
X773937Y302279D01*
X773932Y302262D01*
X773738Y300518D01*
X773176Y299205D01*
X772322Y297972D01*
X771293Y297037D01*
X770593Y296687D01*
X769964Y296372D01*
X768504Y295885D01*
X766952Y295498D01*
X765313Y295401D01*
X764054Y295498D01*
X762800Y295691D01*
X761643Y296076D01*
X760487Y296558D01*
X759467Y297207D01*
X758737Y298121D01*
X758279Y299128D01*
X758094Y300418D01*
X758272Y301575D01*
X758891Y302459D01*
X759922Y303302D01*
X761366Y304072D01*
X763234Y304760D01*
X765411Y305453D01*
X767989Y306048D01*
X770985Y306647D01*
X770991Y306650D01*
X770999Y306650D01*
X773499Y307250D01*
X773510Y307256D01*
X773526Y307258D01*
X776026Y308058D01*
X776038Y308065D01*
X776054Y308068D01*
X778254Y308968D01*
X778267Y308977D01*
X778286Y308983D01*
X780386Y310083D01*
X780414Y310107D01*
X780462Y310135D01*
X782162Y311635D01*
X782180Y311660D01*
X782212Y311689D01*
X783512Y313389D01*
X783528Y313425D01*
X783565Y313485D01*
X784365Y315585D01*
X784370Y315621D01*
X784382Y315660D01*
X784385Y315666D01*
X784385Y315669D01*
X784388Y315676D01*
X784688Y318276D01*
X784684Y318311D01*
X784688Y318361D01*
X784288Y322061D01*
X784275Y322097D01*
X784263Y322161D01*
X783063Y325161D01*
X783041Y325192D01*
X783014Y325248D01*
X781214Y327648D01*
X781184Y327673D01*
X781138Y327724D01*
X778738Y329524D01*
X778708Y329537D01*
X778670Y329565D01*
X775870Y330865D01*
X775846Y330870D01*
X775816Y330885D01*
X772716Y331785D01*
X772690Y331787D01*
X772656Y331798D01*
X769356Y332198D01*
X769345Y332196D01*
X769332Y332200D01*
X765932Y332400D01*
X765913Y332396D01*
X765888Y332400D01*
X762488Y332200D01*
X762473Y332195D01*
X762453Y332196D01*
X759153Y331696D01*
X759131Y331687D01*
X759101Y331684D01*
X756101Y330784D01*
X756080Y330772D01*
X756050Y330765D01*
X753250Y329465D01*
X753222Y329443D01*
X753176Y329419D01*
X750876Y327619D01*
X750853Y327592D01*
X750812Y327556D01*
X748912Y325156D01*
X748896Y325123D01*
X748863Y325076D01*
X747563Y322176D01*
X747556Y322141D01*
X747537Y322093D01*
X746837Y318493D01*
X746837Y318492D01*
X746842Y318361D01*
X746843Y318319D01*
X746901Y318213D01*
X746926Y318167D01*
X746973Y318134D01*
X747068Y318067D01*
X747210Y318040D01*
X758310Y318040D01*
X758337Y318046D01*
X758364Y318044D01*
X758420Y318066D01*
X758479Y318079D01*
X758500Y318097D01*
X758526Y318107D01*
X758566Y318151D01*
X758612Y318189D01*
X758624Y318215D01*
X758642Y318235D01*
X758668Y318313D01*
X758683Y318348D01*
X758683Y318359D01*
X758687Y318373D01*
X758879Y319908D01*
X759438Y321025D01*
X760090Y321957D01*
X761011Y322694D01*
X762042Y323162D01*
X763389Y323547D01*
X764750Y323742D01*
X766223Y323840D01*
X767176Y323840D01*
X768242Y323646D01*
X768257Y323647D01*
X768276Y323641D01*
X769320Y323546D01*
X770246Y323176D01*
X771090Y322707D01*
X771797Y322089D01*
X772143Y321310D01*
X772323Y320229D01*
X772055Y318979D01*
X771340Y317996D01*
X770127Y317156D01*
X768483Y316479D01*
X766515Y315888D01*
X764231Y315392D01*
X761832Y314892D01*
X761826Y314889D01*
X761818Y314889D01*
X759419Y314289D01*
X756921Y313690D01*
X756910Y313684D01*
X756894Y313682D01*
X754394Y312882D01*
X754379Y312873D01*
X754358Y312869D01*
X752058Y311869D01*
X752041Y311856D01*
X752014Y311846D01*
X750014Y310646D01*
X749993Y310626D01*
X749958Y310605D01*
X748258Y309105D01*
X748239Y309077D01*
X748202Y309043D01*
X746902Y307243D01*
X746887Y307208D01*
X746856Y307159D01*
X745956Y304859D01*
X745951Y304821D01*
X745946Y304807D01*
X745936Y304784D01*
X745936Y304775D01*
X745932Y304762D01*
X745632Y302062D01*
X745636Y302026D01*
X745633Y301970D01*
X746133Y298170D01*
X746139Y298153D01*
X746140Y298147D01*
X746146Y298136D01*
X746154Y298087D01*
X747354Y294887D01*
X747375Y294854D01*
X747403Y294796D01*
X749303Y292196D01*
X749332Y292171D01*
X749372Y292123D01*
X751872Y290123D01*
X751905Y290108D01*
X751949Y290075D01*
X754949Y288675D01*
X754971Y288671D01*
X754997Y288657D01*
X758197Y287657D01*
X758219Y287655D01*
X758246Y287645D01*
X761746Y287045D01*
X761765Y287046D01*
X761789Y287040D01*
X765389Y286840D01*
X765407Y286844D01*
X765431Y286840D01*
X769131Y287040D01*
G37*
G36*
X567660Y288051D02*
X567660Y288051D01*
X567711Y288053D01*
X567743Y288071D01*
X567779Y288079D01*
X567818Y288112D01*
X567863Y288136D01*
X567884Y288166D01*
X567912Y288189D01*
X567933Y288236D01*
X567963Y288278D01*
X567971Y288320D01*
X567983Y288348D01*
X567982Y288378D01*
X567990Y288420D01*
X567990Y322640D01*
X579110Y322640D01*
X579135Y322646D01*
X579161Y322643D01*
X579219Y322665D01*
X579279Y322679D01*
X579299Y322696D01*
X579323Y322705D01*
X579365Y322750D01*
X579412Y322789D01*
X579423Y322813D01*
X579440Y322832D01*
X579458Y322891D01*
X579483Y322948D01*
X579482Y322973D01*
X579490Y322998D01*
X579479Y323059D01*
X579477Y323121D01*
X579464Y323143D01*
X579460Y323169D01*
X579412Y323240D01*
X579394Y323273D01*
X579392Y323274D01*
X579391Y323276D01*
X579385Y323280D01*
X579379Y323289D01*
X577379Y325289D01*
X577371Y325294D01*
X577364Y325303D01*
X576372Y326196D01*
X573379Y329189D01*
X573371Y329194D01*
X573364Y329203D01*
X572372Y330096D01*
X571379Y331089D01*
X571314Y331129D01*
X571252Y331173D01*
X571240Y331175D01*
X571232Y331180D01*
X571195Y331184D01*
X571110Y331200D01*
X567990Y331200D01*
X567990Y334120D01*
X567987Y334132D01*
X567989Y334148D01*
X567789Y336848D01*
X567780Y336878D01*
X567776Y336923D01*
X567701Y337193D01*
X567594Y337573D01*
X567488Y337953D01*
X567381Y338333D01*
X567381Y338334D01*
X567275Y338714D01*
X567168Y339094D01*
X567076Y339423D01*
X567062Y339449D01*
X567050Y339490D01*
X565950Y341690D01*
X565927Y341718D01*
X565901Y341765D01*
X564301Y343665D01*
X564275Y343684D01*
X564246Y343718D01*
X562346Y345218D01*
X562312Y345234D01*
X562263Y345268D01*
X559763Y346368D01*
X559735Y346373D01*
X559699Y346390D01*
X556799Y347090D01*
X556775Y347090D01*
X556744Y347099D01*
X553444Y347399D01*
X553429Y347397D01*
X553410Y347400D01*
X552610Y347400D01*
X552590Y347396D01*
X552563Y347397D01*
X551786Y347300D01*
X550310Y347300D01*
X550290Y347296D01*
X550263Y347297D01*
X548686Y347100D01*
X547210Y347100D01*
X547160Y347089D01*
X547109Y347087D01*
X547077Y347069D01*
X547041Y347061D01*
X547002Y347028D01*
X546957Y347004D01*
X546936Y346974D01*
X546908Y346951D01*
X546887Y346904D01*
X546857Y346862D01*
X546849Y346820D01*
X546837Y346792D01*
X546838Y346762D01*
X546830Y346720D01*
X546830Y338020D01*
X546848Y337940D01*
X546865Y337860D01*
X546868Y337856D01*
X546869Y337851D01*
X546922Y337788D01*
X546972Y337724D01*
X546976Y337722D01*
X546979Y337718D01*
X547054Y337684D01*
X547128Y337649D01*
X547133Y337649D01*
X547138Y337647D01*
X547165Y337648D01*
X547273Y337645D01*
X547841Y337740D01*
X548810Y337740D01*
X548836Y337746D01*
X548873Y337745D01*
X549441Y337840D01*
X551493Y337840D01*
X552551Y337744D01*
X553402Y337555D01*
X554116Y337287D01*
X554629Y336859D01*
X555072Y336240D01*
X555343Y335515D01*
X555530Y334582D01*
X555530Y331200D01*
X547910Y331200D01*
X547860Y331189D01*
X547809Y331187D01*
X547777Y331169D01*
X547741Y331161D01*
X547702Y331128D01*
X547657Y331104D01*
X547636Y331074D01*
X547608Y331051D01*
X547587Y331004D01*
X547557Y330962D01*
X547549Y330920D01*
X547537Y330892D01*
X547538Y330862D01*
X547530Y330820D01*
X547530Y323020D01*
X547541Y322970D01*
X547543Y322919D01*
X547561Y322887D01*
X547569Y322851D01*
X547602Y322812D01*
X547626Y322767D01*
X547656Y322746D01*
X547679Y322718D01*
X547726Y322697D01*
X547768Y322667D01*
X547810Y322659D01*
X547838Y322647D01*
X547868Y322648D01*
X547910Y322640D01*
X555530Y322640D01*
X555530Y288420D01*
X555541Y288370D01*
X555543Y288319D01*
X555561Y288287D01*
X555569Y288251D01*
X555602Y288212D01*
X555626Y288167D01*
X555656Y288146D01*
X555679Y288118D01*
X555726Y288097D01*
X555768Y288067D01*
X555810Y288059D01*
X555838Y288047D01*
X555868Y288048D01*
X555910Y288040D01*
X567610Y288040D01*
X567660Y288051D01*
G37*
G36*
X648560Y288051D02*
X648560Y288051D01*
X648611Y288053D01*
X648643Y288071D01*
X648679Y288079D01*
X648718Y288112D01*
X648763Y288136D01*
X648784Y288166D01*
X648812Y288189D01*
X648833Y288236D01*
X648863Y288278D01*
X648871Y288320D01*
X648883Y288348D01*
X648882Y288378D01*
X648890Y288420D01*
X648890Y323820D01*
X648889Y323823D01*
X648890Y323828D01*
X648790Y328828D01*
X648788Y328835D01*
X648790Y328842D01*
X648767Y328918D01*
X648747Y328996D01*
X648743Y329001D01*
X648741Y329008D01*
X648687Y329066D01*
X648634Y329127D01*
X648628Y329130D01*
X648623Y329135D01*
X648490Y329192D01*
X647090Y329492D01*
X647078Y329492D01*
X647064Y329496D01*
X645677Y329695D01*
X644290Y329992D01*
X644280Y329992D01*
X644268Y329996D01*
X642979Y330194D01*
X641590Y330492D01*
X641578Y330492D01*
X641564Y330496D01*
X640177Y330695D01*
X638790Y330992D01*
X638778Y330992D01*
X638764Y330996D01*
X637364Y331196D01*
X637287Y331190D01*
X637209Y331187D01*
X637201Y331182D01*
X637191Y331181D01*
X637125Y331141D01*
X637057Y331104D01*
X637052Y331096D01*
X637043Y331091D01*
X637002Y331025D01*
X636957Y330962D01*
X636955Y330952D01*
X636951Y330945D01*
X636947Y330909D01*
X636930Y330820D01*
X636930Y324459D01*
X636647Y324997D01*
X636631Y325015D01*
X636618Y325043D01*
X635318Y326843D01*
X635299Y326860D01*
X635279Y326889D01*
X633779Y328389D01*
X633760Y328401D01*
X633741Y328422D01*
X632041Y329722D01*
X632025Y329729D01*
X632008Y329744D01*
X630208Y330844D01*
X630182Y330853D01*
X630151Y330873D01*
X628151Y331673D01*
X628127Y331677D01*
X628098Y331690D01*
X625998Y332190D01*
X625968Y332190D01*
X625927Y332200D01*
X623727Y332300D01*
X623720Y332298D01*
X623710Y332300D01*
X622410Y332300D01*
X622373Y332292D01*
X622290Y332281D01*
X621090Y331881D01*
X621024Y331841D01*
X620957Y331804D01*
X620951Y331795D01*
X620942Y331790D01*
X620901Y331725D01*
X620857Y331662D01*
X620855Y331651D01*
X620850Y331643D01*
X620847Y331607D01*
X620830Y331520D01*
X620830Y320720D01*
X620832Y320710D01*
X620830Y320700D01*
X620843Y320657D01*
X620843Y320641D01*
X620852Y320624D01*
X620869Y320551D01*
X620876Y320543D01*
X620879Y320533D01*
X620930Y320477D01*
X620979Y320418D01*
X620989Y320413D01*
X620996Y320406D01*
X621067Y320378D01*
X621138Y320347D01*
X621148Y320347D01*
X621158Y320343D01*
X621302Y320351D01*
X621693Y320449D01*
X622648Y320640D01*
X623110Y320640D01*
X623136Y320646D01*
X623173Y320645D01*
X623741Y320740D01*
X625391Y320740D01*
X628232Y320446D01*
X630652Y319671D01*
X632564Y318524D01*
X634002Y316894D01*
X635164Y314958D01*
X635939Y312728D01*
X636331Y310184D01*
X636430Y307513D01*
X636430Y288420D01*
X636441Y288370D01*
X636443Y288319D01*
X636461Y288287D01*
X636469Y288251D01*
X636502Y288212D01*
X636526Y288167D01*
X636556Y288146D01*
X636579Y288118D01*
X636626Y288097D01*
X636668Y288067D01*
X636710Y288059D01*
X636738Y288047D01*
X636768Y288048D01*
X636810Y288040D01*
X648510Y288040D01*
X648560Y288051D01*
G37*
G36*
X24197Y324607D02*
X24197Y324607D01*
X24192Y324614D01*
X24199Y324620D01*
X24199Y373920D01*
X24195Y373926D01*
X24198Y373930D01*
X24099Y374425D01*
X24099Y374920D01*
X24091Y374931D01*
X24096Y374938D01*
X23897Y375434D01*
X23798Y375930D01*
X23789Y375938D01*
X23792Y375945D01*
X23493Y376443D01*
X23294Y376842D01*
X23284Y376847D01*
X23285Y376855D01*
X22887Y377252D01*
X22589Y377650D01*
X22580Y377652D01*
X22580Y377659D01*
X21780Y378259D01*
X21770Y378259D01*
X21768Y378266D01*
X21270Y378465D01*
X20872Y378664D01*
X20869Y378663D01*
X20868Y378666D01*
X20368Y378866D01*
X20362Y378864D01*
X20360Y378868D01*
X19860Y378968D01*
X19853Y378965D01*
X19850Y378969D01*
X18350Y378969D01*
X18344Y378965D01*
X18340Y378968D01*
X17340Y378768D01*
X17336Y378763D01*
X17332Y378766D01*
X16832Y378566D01*
X16827Y378558D01*
X16820Y378559D01*
X15620Y377659D01*
X15619Y377654D01*
X15615Y377655D01*
X15215Y377255D01*
X15214Y377250D01*
X15211Y377250D01*
X14611Y376450D01*
X14611Y376443D01*
X14606Y376442D01*
X14406Y376042D01*
X14407Y376039D01*
X14404Y376038D01*
X14004Y375038D01*
X14008Y375025D01*
X14001Y375020D01*
X14001Y374525D01*
X13902Y374030D01*
X13905Y374023D01*
X13901Y374020D01*
X13901Y325120D01*
X13905Y325114D01*
X13902Y325110D01*
X14002Y324610D01*
X14046Y324571D01*
X14048Y324573D01*
X14050Y324571D01*
X24150Y324571D01*
X24197Y324607D01*
G37*
G36*
X19456Y211715D02*
X19456Y211715D01*
X19460Y211712D01*
X20460Y211912D01*
X20464Y211917D01*
X20468Y211914D01*
X20968Y212114D01*
X20970Y212117D01*
X20972Y212116D01*
X21370Y212315D01*
X21868Y212514D01*
X21873Y212522D01*
X21880Y212521D01*
X22680Y213121D01*
X22682Y213130D01*
X22689Y213130D01*
X23289Y213930D01*
X23289Y213934D01*
X23292Y213935D01*
X23592Y214435D01*
X23592Y214438D01*
X23594Y214438D01*
X23794Y214838D01*
X23793Y214841D01*
X23796Y214842D01*
X23996Y215342D01*
X23994Y215348D01*
X23998Y215350D01*
X24198Y216350D01*
X24195Y216357D01*
X24199Y216360D01*
X24199Y263060D01*
X24174Y263093D01*
X24172Y263104D01*
X23772Y263304D01*
X23756Y263301D01*
X23750Y263309D01*
X14150Y263309D01*
X14117Y263284D01*
X14106Y263282D01*
X13906Y262882D01*
X13909Y262866D01*
X13901Y262860D01*
X13901Y216660D01*
X13904Y216655D01*
X13901Y216652D01*
X14001Y216052D01*
X14004Y216050D01*
X14002Y216048D01*
X14102Y215649D01*
X14202Y215150D01*
X14207Y215146D01*
X14204Y215142D01*
X14404Y214642D01*
X14409Y214639D01*
X14408Y214635D01*
X14707Y214137D01*
X14906Y213738D01*
X14916Y213733D01*
X14915Y213725D01*
X15615Y213025D01*
X15620Y213024D01*
X15620Y213021D01*
X16420Y212421D01*
X16430Y212421D01*
X16432Y212414D01*
X17932Y211814D01*
X17938Y211816D01*
X17940Y211812D01*
X18440Y211712D01*
X18447Y211715D01*
X18450Y211711D01*
X19450Y211711D01*
X19456Y211715D01*
G37*
G36*
X92777Y307587D02*
X92777Y307587D01*
X92772Y307594D01*
X92779Y307600D01*
X92779Y350800D01*
X92775Y350806D01*
X92778Y350810D01*
X92578Y351810D01*
X92573Y351814D01*
X92576Y351818D01*
X92376Y352318D01*
X92373Y352320D01*
X92374Y352322D01*
X92174Y352722D01*
X92168Y352725D01*
X92169Y352730D01*
X91269Y353930D01*
X91264Y353931D01*
X91265Y353935D01*
X90865Y354335D01*
X90860Y354336D01*
X90860Y354339D01*
X90460Y354639D01*
X90450Y354639D01*
X90448Y354646D01*
X89950Y354845D01*
X89552Y355044D01*
X89549Y355043D01*
X89548Y355046D01*
X89048Y355246D01*
X89042Y355244D01*
X89040Y355248D01*
X88040Y355448D01*
X88033Y355445D01*
X88030Y355449D01*
X87530Y355449D01*
X87524Y355445D01*
X87520Y355448D01*
X86020Y355148D01*
X86016Y355143D01*
X86012Y355146D01*
X85012Y354746D01*
X85007Y354738D01*
X85000Y354739D01*
X84200Y354139D01*
X84198Y354130D01*
X84191Y354130D01*
X83893Y353732D01*
X83495Y353335D01*
X83494Y353323D01*
X83486Y353322D01*
X83288Y352926D01*
X82991Y352530D01*
X82991Y352520D01*
X82984Y352518D01*
X82784Y352018D01*
X82786Y352012D01*
X82782Y352010D01*
X82482Y350510D01*
X82485Y350503D01*
X82481Y350500D01*
X82481Y307600D01*
X82517Y307553D01*
X82524Y307558D01*
X82530Y307551D01*
X92730Y307551D01*
X92777Y307587D01*
G37*
%LPC*%
G36*
X717408Y296692D02*
X717408Y296692D01*
X715398Y297553D01*
X713678Y298795D01*
X712434Y300422D01*
X711464Y302361D01*
X710781Y304607D01*
X710389Y306959D01*
X710291Y309520D01*
X710389Y311982D01*
X710781Y314434D01*
X711463Y316675D01*
X712532Y318715D01*
X713782Y320350D01*
X715502Y321688D01*
X717606Y322549D01*
X720012Y322837D01*
X722612Y322548D01*
X724622Y321687D01*
X726343Y320444D01*
X727684Y318719D01*
X728651Y316689D01*
X729237Y314442D01*
X729631Y311982D01*
X729729Y309520D01*
X729631Y306959D01*
X729239Y304607D01*
X728556Y302361D01*
X727589Y300429D01*
X726248Y298800D01*
X724522Y297553D01*
X722511Y296691D01*
X720009Y296403D01*
X717408Y296692D01*
G37*
%LPD*%
G36*
X833186Y53208D02*
X833186Y53208D01*
X833252Y53213D01*
X833270Y53224D01*
X833291Y53229D01*
X833376Y53289D01*
X833400Y53303D01*
X833403Y53308D01*
X833408Y53312D01*
X835608Y55612D01*
X835616Y55625D01*
X835629Y55635D01*
X835660Y55699D01*
X835696Y55761D01*
X835697Y55777D01*
X835704Y55791D01*
X835703Y55862D01*
X835709Y55933D01*
X835703Y55948D01*
X835702Y55964D01*
X835645Y56089D01*
X835643Y56093D01*
X835643Y56094D01*
X833775Y58709D01*
X833777Y58720D01*
X833786Y58733D01*
X833797Y58791D01*
X833806Y58812D01*
X833806Y58834D01*
X833812Y58867D01*
X833813Y58872D01*
X833813Y58873D01*
X833813Y58874D01*
X833813Y58884D01*
X833846Y58949D01*
X833902Y59006D01*
X833913Y59024D01*
X833925Y59033D01*
X833933Y59051D01*
X833973Y59104D01*
X834046Y59249D01*
X834102Y59306D01*
X834142Y59370D01*
X834186Y59433D01*
X834188Y59445D01*
X834193Y59453D01*
X834197Y59488D01*
X834213Y59574D01*
X834213Y59623D01*
X834242Y59670D01*
X834286Y59733D01*
X834288Y59745D01*
X834293Y59753D01*
X834297Y59788D01*
X834313Y59874D01*
X834313Y59984D01*
X834346Y60049D01*
X834402Y60106D01*
X834442Y60170D01*
X834486Y60233D01*
X834488Y60245D01*
X834493Y60253D01*
X834497Y60288D01*
X834503Y60321D01*
X834506Y60329D01*
X834506Y60337D01*
X834513Y60374D01*
X834513Y60423D01*
X834542Y60470D01*
X834586Y60533D01*
X834588Y60545D01*
X834593Y60553D01*
X834597Y60588D01*
X834613Y60674D01*
X834613Y60784D01*
X834642Y60842D01*
X837898Y61400D01*
X837916Y61407D01*
X837935Y61408D01*
X837995Y61441D01*
X838057Y61467D01*
X838070Y61482D01*
X838087Y61491D01*
X838126Y61547D01*
X838170Y61598D01*
X838175Y61617D01*
X838186Y61633D01*
X838208Y61744D01*
X838213Y61766D01*
X838212Y61770D01*
X838213Y61774D01*
X838213Y64974D01*
X838209Y64993D01*
X838211Y65012D01*
X838200Y65046D01*
X838199Y65052D01*
X838194Y65063D01*
X838189Y65076D01*
X838174Y65142D01*
X838161Y65157D01*
X838155Y65175D01*
X838107Y65223D01*
X838064Y65276D01*
X838046Y65283D01*
X838032Y65297D01*
X837926Y65337D01*
X837906Y65346D01*
X837902Y65346D01*
X837898Y65348D01*
X834686Y65898D01*
X834675Y65937D01*
X834674Y65942D01*
X834673Y65943D01*
X834613Y66063D01*
X834613Y66074D01*
X834610Y66089D01*
X834612Y66105D01*
X834592Y66175D01*
X834592Y66190D01*
X834584Y66204D01*
X834575Y66237D01*
X834574Y66242D01*
X834573Y66243D01*
X834513Y66363D01*
X834513Y66374D01*
X834510Y66389D01*
X834512Y66405D01*
X834475Y66537D01*
X834474Y66542D01*
X834473Y66543D01*
X834313Y66863D01*
X834313Y66874D01*
X834310Y66889D01*
X834312Y66905D01*
X834275Y67037D01*
X834274Y67042D01*
X834273Y67043D01*
X834173Y67243D01*
X834150Y67271D01*
X834113Y67325D01*
X834113Y67374D01*
X834096Y67448D01*
X834082Y67523D01*
X834076Y67533D01*
X834074Y67542D01*
X834051Y67570D01*
X834002Y67642D01*
X833946Y67698D01*
X833873Y67843D01*
X833850Y67871D01*
X833813Y67925D01*
X833813Y67974D01*
X833796Y68048D01*
X833792Y68070D01*
X835646Y70758D01*
X835652Y70774D01*
X835664Y70787D01*
X835684Y70854D01*
X835709Y70919D01*
X835708Y70937D01*
X835713Y70953D01*
X835700Y71022D01*
X835694Y71092D01*
X835685Y71106D01*
X835682Y71123D01*
X835611Y71229D01*
X835604Y71240D01*
X835603Y71240D01*
X835602Y71242D01*
X833402Y73442D01*
X833388Y73451D01*
X833377Y73465D01*
X833315Y73496D01*
X833255Y73533D01*
X833238Y73535D01*
X833223Y73542D01*
X833153Y73543D01*
X833083Y73549D01*
X833067Y73543D01*
X833050Y73543D01*
X832932Y73492D01*
X832921Y73488D01*
X832920Y73487D01*
X832919Y73486D01*
X830220Y71624D01*
X830202Y71642D01*
X830137Y71682D01*
X830075Y71726D01*
X830063Y71728D01*
X830055Y71733D01*
X830020Y71736D01*
X829934Y71753D01*
X829884Y71753D01*
X829872Y71761D01*
X829804Y71813D01*
X829659Y71885D01*
X829602Y71942D01*
X829537Y71982D01*
X829475Y72026D01*
X829463Y72028D01*
X829455Y72033D01*
X829420Y72036D01*
X829334Y72053D01*
X829284Y72053D01*
X829272Y72061D01*
X829204Y72113D01*
X829004Y72213D01*
X828988Y72217D01*
X828975Y72226D01*
X828841Y72252D01*
X828835Y72253D01*
X828834Y72253D01*
X828824Y72253D01*
X828704Y72313D01*
X828688Y72317D01*
X828675Y72326D01*
X828541Y72352D01*
X828535Y72353D01*
X828534Y72353D01*
X828484Y72353D01*
X828437Y72382D01*
X828375Y72426D01*
X828363Y72428D01*
X828355Y72433D01*
X828320Y72436D01*
X828234Y72453D01*
X828124Y72453D01*
X828066Y72482D01*
X827508Y75738D01*
X827500Y75756D01*
X827499Y75775D01*
X827467Y75834D01*
X827440Y75897D01*
X827426Y75910D01*
X827416Y75927D01*
X827361Y75966D01*
X827309Y76010D01*
X827290Y76015D01*
X827275Y76026D01*
X827164Y76047D01*
X827142Y76053D01*
X827138Y76052D01*
X827134Y76053D01*
X823934Y76053D01*
X823915Y76049D01*
X823896Y76051D01*
X823832Y76029D01*
X823766Y76013D01*
X823751Y76001D01*
X823732Y75995D01*
X823685Y75947D01*
X823632Y75903D01*
X823624Y75886D01*
X823611Y75872D01*
X823571Y75766D01*
X823562Y75745D01*
X823562Y75742D01*
X823560Y75738D01*
X823010Y72526D01*
X822971Y72515D01*
X822966Y72513D01*
X822965Y72513D01*
X822964Y72513D01*
X822844Y72453D01*
X822834Y72453D01*
X822818Y72449D01*
X822802Y72452D01*
X822671Y72415D01*
X822666Y72413D01*
X822665Y72413D01*
X822664Y72413D01*
X822544Y72353D01*
X822534Y72353D01*
X822518Y72349D01*
X822502Y72352D01*
X822371Y72315D01*
X822366Y72313D01*
X822365Y72313D01*
X822364Y72313D01*
X822244Y72253D01*
X822134Y72253D01*
X822060Y72236D01*
X821984Y72222D01*
X821975Y72216D01*
X821966Y72213D01*
X821938Y72191D01*
X821866Y72142D01*
X821809Y72085D01*
X821744Y72053D01*
X821734Y72053D01*
X821718Y72049D01*
X821702Y72052D01*
X821571Y72015D01*
X821566Y72013D01*
X821565Y72013D01*
X821564Y72013D01*
X821364Y71913D01*
X821337Y71890D01*
X821266Y71842D01*
X821209Y71785D01*
X821144Y71753D01*
X821134Y71753D01*
X821118Y71749D01*
X821102Y71752D01*
X820971Y71715D01*
X820966Y71713D01*
X820965Y71713D01*
X820964Y71713D01*
X820823Y71642D01*
X818149Y73486D01*
X818137Y73491D01*
X818128Y73500D01*
X818057Y73522D01*
X817988Y73549D01*
X817975Y73548D01*
X817963Y73552D01*
X817890Y73540D01*
X817816Y73534D01*
X817805Y73527D01*
X817792Y73525D01*
X817672Y73448D01*
X815372Y71248D01*
X815358Y71226D01*
X815338Y71210D01*
X815311Y71154D01*
X815277Y71103D01*
X815274Y71077D01*
X815263Y71054D01*
X815264Y70992D01*
X815257Y70931D01*
X815266Y70907D01*
X815266Y70881D01*
X815304Y70801D01*
X815315Y70768D01*
X815322Y70762D01*
X815327Y70751D01*
X817262Y68078D01*
X817222Y67998D01*
X817166Y67942D01*
X817126Y67877D01*
X817082Y67814D01*
X817080Y67803D01*
X817075Y67795D01*
X817071Y67760D01*
X817055Y67674D01*
X817055Y67624D01*
X817047Y67611D01*
X816995Y67543D01*
X816922Y67398D01*
X816866Y67342D01*
X816826Y67277D01*
X816782Y67214D01*
X816780Y67203D01*
X816775Y67195D01*
X816771Y67160D01*
X816755Y67074D01*
X816755Y67024D01*
X816726Y66977D01*
X816682Y66914D01*
X816680Y66903D01*
X816675Y66895D01*
X816671Y66860D01*
X816655Y66774D01*
X816655Y66663D01*
X816622Y66598D01*
X816566Y66542D01*
X816526Y66477D01*
X816482Y66414D01*
X816480Y66403D01*
X816475Y66395D01*
X816471Y66360D01*
X816455Y66274D01*
X816455Y66224D01*
X816426Y66177D01*
X816382Y66114D01*
X816380Y66103D01*
X816375Y66095D01*
X816371Y66060D01*
X816355Y65974D01*
X816355Y65895D01*
X813072Y65348D01*
X813053Y65340D01*
X813033Y65339D01*
X812974Y65307D01*
X812912Y65281D01*
X812899Y65266D01*
X812881Y65256D01*
X812843Y65201D01*
X812799Y65151D01*
X812793Y65131D01*
X812782Y65114D01*
X812766Y65033D01*
X812762Y65023D01*
X812762Y65011D01*
X812761Y65008D01*
X812755Y64983D01*
X812756Y64979D01*
X812755Y64974D01*
X812755Y61774D01*
X812759Y61755D01*
X812757Y61736D01*
X812779Y61671D01*
X812794Y61605D01*
X812807Y61590D01*
X812813Y61572D01*
X812861Y61524D01*
X812904Y61472D01*
X812922Y61464D01*
X812936Y61450D01*
X813042Y61410D01*
X813062Y61401D01*
X813066Y61401D01*
X813070Y61400D01*
X816358Y60836D01*
X816393Y60711D01*
X816394Y60705D01*
X816395Y60705D01*
X816395Y60704D01*
X816455Y60584D01*
X816455Y60574D01*
X816458Y60558D01*
X816456Y60542D01*
X816493Y60411D01*
X816494Y60405D01*
X816495Y60405D01*
X816495Y60404D01*
X816555Y60284D01*
X816555Y60274D01*
X816558Y60258D01*
X816556Y60242D01*
X816593Y60111D01*
X816594Y60105D01*
X816595Y60105D01*
X816595Y60104D01*
X816755Y59784D01*
X816755Y59774D01*
X816758Y59758D01*
X816756Y59742D01*
X816793Y59611D01*
X816794Y59605D01*
X816795Y59605D01*
X816795Y59604D01*
X816895Y59404D01*
X816918Y59376D01*
X816966Y59306D01*
X817022Y59249D01*
X817055Y59184D01*
X817055Y59174D01*
X817058Y59158D01*
X817056Y59142D01*
X817093Y59011D01*
X817094Y59005D01*
X817095Y59005D01*
X817095Y59004D01*
X817195Y58804D01*
X817218Y58776D01*
X817266Y58706D01*
X817276Y58695D01*
X815331Y56101D01*
X815321Y56079D01*
X815304Y56060D01*
X815286Y56000D01*
X815261Y55943D01*
X815262Y55918D01*
X815255Y55894D01*
X815266Y55833D01*
X815269Y55770D01*
X815281Y55748D01*
X815286Y55724D01*
X815337Y55649D01*
X815353Y55619D01*
X815360Y55614D01*
X815366Y55606D01*
X817666Y53306D01*
X817680Y53297D01*
X817691Y53283D01*
X817753Y53251D01*
X817813Y53214D01*
X817830Y53213D01*
X817845Y53205D01*
X817916Y53205D01*
X817985Y53198D01*
X818001Y53204D01*
X818018Y53204D01*
X818136Y53256D01*
X818147Y53260D01*
X818148Y53261D01*
X818149Y53261D01*
X820848Y55123D01*
X820866Y55106D01*
X820931Y55065D01*
X820993Y55021D01*
X821005Y55019D01*
X821013Y55014D01*
X821048Y55011D01*
X821063Y55008D01*
X821066Y55006D01*
X821131Y54965D01*
X821193Y54921D01*
X821205Y54919D01*
X821213Y54914D01*
X821248Y54911D01*
X821334Y54894D01*
X821384Y54894D01*
X821431Y54865D01*
X821493Y54821D01*
X821505Y54819D01*
X821513Y54814D01*
X821548Y54811D01*
X821563Y54808D01*
X821566Y54806D01*
X821631Y54765D01*
X821693Y54721D01*
X821705Y54719D01*
X821713Y54714D01*
X821748Y54711D01*
X821763Y54708D01*
X821766Y54706D01*
X821831Y54665D01*
X821893Y54621D01*
X821905Y54619D01*
X821913Y54614D01*
X821948Y54611D01*
X821977Y54605D01*
X822004Y54572D01*
X822023Y54564D01*
X822038Y54549D01*
X822101Y54529D01*
X822162Y54501D01*
X822183Y54502D01*
X822202Y54496D01*
X822268Y54506D01*
X822335Y54508D01*
X822353Y54518D01*
X822373Y54521D01*
X822428Y54559D01*
X822487Y54591D01*
X822499Y54608D01*
X822515Y54620D01*
X822572Y54712D01*
X822586Y54733D01*
X822587Y54738D01*
X822590Y54742D01*
X824590Y60142D01*
X824594Y60173D01*
X824606Y60201D01*
X824604Y60257D01*
X824611Y60314D01*
X824601Y60343D01*
X824600Y60374D01*
X824573Y60424D01*
X824554Y60477D01*
X824532Y60499D01*
X824517Y60526D01*
X824457Y60572D01*
X824430Y60598D01*
X824417Y60602D01*
X824404Y60613D01*
X823859Y60885D01*
X823702Y61042D01*
X823672Y61061D01*
X823604Y61113D01*
X823459Y61185D01*
X823146Y61498D01*
X823073Y61643D01*
X823050Y61671D01*
X823002Y61742D01*
X822846Y61898D01*
X822785Y62019D01*
X822694Y62294D01*
X822682Y62313D01*
X822673Y62343D01*
X822613Y62463D01*
X822613Y62574D01*
X822605Y62609D01*
X822594Y62694D01*
X822513Y62935D01*
X822513Y63712D01*
X822594Y63954D01*
X822597Y63990D01*
X822613Y64074D01*
X822613Y64259D01*
X822750Y64463D01*
X822763Y64498D01*
X822794Y64554D01*
X822878Y64806D01*
X823229Y65332D01*
X823576Y65679D01*
X824102Y66030D01*
X824354Y66114D01*
X824372Y66125D01*
X824386Y66128D01*
X824399Y66139D01*
X824444Y66158D01*
X824649Y66294D01*
X824834Y66294D01*
X824869Y66303D01*
X824954Y66314D01*
X825196Y66394D01*
X825787Y66394D01*
X826142Y66306D01*
X826178Y66305D01*
X826234Y66294D01*
X826419Y66294D01*
X826624Y66158D01*
X826659Y66145D01*
X826708Y66117D01*
X826710Y66116D01*
X826711Y66116D01*
X826714Y66114D01*
X826966Y66030D01*
X827193Y65879D01*
X827366Y65706D01*
X827392Y65689D01*
X827424Y65658D01*
X827693Y65479D01*
X827839Y65332D01*
X828190Y64806D01*
X828555Y63712D01*
X828555Y63235D01*
X828474Y62994D01*
X828471Y62958D01*
X828455Y62874D01*
X828455Y62663D01*
X828295Y62343D01*
X828289Y62321D01*
X828274Y62294D01*
X828183Y62019D01*
X828022Y61698D01*
X827866Y61542D01*
X827847Y61511D01*
X827795Y61443D01*
X827722Y61298D01*
X827609Y61185D01*
X827464Y61113D01*
X827437Y61090D01*
X827366Y61042D01*
X827209Y60885D01*
X826888Y60725D01*
X826614Y60633D01*
X826565Y60603D01*
X826512Y60581D01*
X826492Y60559D01*
X826467Y60543D01*
X826436Y60494D01*
X826399Y60451D01*
X826391Y60422D01*
X826375Y60396D01*
X826369Y60339D01*
X826355Y60283D01*
X826361Y60249D01*
X826358Y60224D01*
X826370Y60192D01*
X826378Y60142D01*
X828378Y54742D01*
X828404Y54704D01*
X828420Y54661D01*
X828451Y54633D01*
X828474Y54598D01*
X828514Y54575D01*
X828547Y54544D01*
X828587Y54532D01*
X828624Y54511D01*
X828669Y54508D01*
X828713Y54495D01*
X828754Y54502D01*
X828796Y54500D01*
X828839Y54517D01*
X828884Y54525D01*
X828925Y54553D01*
X828956Y54566D01*
X828973Y54586D01*
X828986Y54594D01*
X829034Y54594D01*
X829108Y54612D01*
X829184Y54625D01*
X829193Y54632D01*
X829202Y54634D01*
X829230Y54657D01*
X829302Y54706D01*
X829309Y54712D01*
X829384Y54725D01*
X829393Y54732D01*
X829402Y54734D01*
X829430Y54757D01*
X829502Y54806D01*
X829509Y54812D01*
X829584Y54825D01*
X829593Y54832D01*
X829602Y54834D01*
X829630Y54857D01*
X829702Y54906D01*
X829709Y54912D01*
X829784Y54925D01*
X829793Y54932D01*
X829802Y54934D01*
X829830Y54957D01*
X829902Y55006D01*
X829909Y55012D01*
X829984Y55025D01*
X829993Y55032D01*
X830002Y55034D01*
X830030Y55057D01*
X830102Y55106D01*
X830109Y55112D01*
X830184Y55125D01*
X830193Y55132D01*
X830202Y55134D01*
X830203Y55134D01*
X832919Y53261D01*
X832939Y53254D01*
X832955Y53240D01*
X833018Y53222D01*
X833080Y53198D01*
X833101Y53200D01*
X833122Y53195D01*
X833186Y53208D01*
G37*
G36*
X67158Y138272D02*
X67158Y138272D01*
X67171Y138273D01*
X67371Y138573D01*
X67371Y138579D01*
X67374Y138582D01*
X67370Y138588D01*
X67370Y138593D01*
X67379Y138600D01*
X67379Y164000D01*
X67375Y164006D01*
X67378Y164010D01*
X67279Y164505D01*
X67279Y165000D01*
X67271Y165011D01*
X67276Y165018D01*
X66676Y166518D01*
X66668Y166523D01*
X66669Y166530D01*
X66069Y167330D01*
X66064Y167331D01*
X66065Y167335D01*
X65365Y168035D01*
X65360Y168036D01*
X65360Y168039D01*
X64960Y168339D01*
X64950Y168339D01*
X64948Y168346D01*
X64450Y168545D01*
X64052Y168744D01*
X64049Y168743D01*
X64048Y168746D01*
X63548Y168946D01*
X63542Y168944D01*
X63540Y168948D01*
X63040Y169048D01*
X63033Y169045D01*
X63030Y169049D01*
X61530Y169049D01*
X61524Y169045D01*
X61520Y169048D01*
X61020Y168948D01*
X61016Y168943D01*
X61012Y168946D01*
X60012Y168546D01*
X60010Y168543D01*
X60008Y168544D01*
X59608Y168344D01*
X59607Y168341D01*
X59605Y168342D01*
X59105Y168042D01*
X59103Y168039D01*
X59100Y168039D01*
X58700Y167739D01*
X58698Y167730D01*
X58691Y167730D01*
X57791Y166530D01*
X57791Y166520D01*
X57784Y166518D01*
X57385Y165520D01*
X57186Y165122D01*
X57188Y165110D01*
X57183Y165105D01*
X57184Y165103D01*
X57181Y165100D01*
X57181Y164604D01*
X57081Y164008D01*
X57084Y164003D01*
X57081Y164000D01*
X57081Y138500D01*
X57102Y138472D01*
X57103Y138459D01*
X57403Y138259D01*
X57423Y138260D01*
X57430Y138251D01*
X67130Y138251D01*
X67158Y138272D01*
G37*
%LPC*%
G36*
X676122Y295400D02*
X676122Y295400D01*
X674549Y295499D01*
X673193Y295692D01*
X671952Y296074D01*
X671001Y296550D01*
X670130Y297131D01*
X669382Y297692D01*
X668818Y298444D01*
X668326Y299132D01*
X667853Y299889D01*
X667575Y300628D01*
X667381Y301503D01*
X667379Y301507D01*
X667379Y301512D01*
X667184Y302293D01*
X667090Y302947D01*
X667090Y308378D01*
X667341Y308278D01*
X667814Y307994D01*
X667839Y307986D01*
X667869Y307967D01*
X668869Y307567D01*
X668902Y307562D01*
X668948Y307545D01*
X669518Y307450D01*
X670090Y307259D01*
X670119Y307257D01*
X670156Y307244D01*
X670853Y307144D01*
X671448Y307045D01*
X671452Y307045D01*
X671456Y307044D01*
X675653Y306444D01*
X676226Y306349D01*
X676906Y306154D01*
X676928Y306153D01*
X676956Y306144D01*
X677622Y306048D01*
X678190Y305859D01*
X679364Y305468D01*
X679927Y305186D01*
X680892Y304607D01*
X681356Y304236D01*
X681726Y303866D01*
X682097Y303402D01*
X682362Y302960D01*
X682738Y301832D01*
X682830Y301193D01*
X682830Y299747D01*
X682737Y299099D01*
X682558Y298473D01*
X681719Y297074D01*
X681277Y296720D01*
X680898Y296436D01*
X680450Y296168D01*
X679318Y295790D01*
X678748Y295695D01*
X678730Y295688D01*
X678706Y295686D01*
X678026Y295492D01*
X677479Y295400D01*
X676122Y295400D01*
G37*
%LPD*%
%LPC*%
G36*
X16256Y246309D02*
X16256Y246309D01*
X15875Y246404D01*
X15596Y246684D01*
X15499Y247264D01*
X15499Y250756D01*
X15598Y251348D01*
X15690Y251623D01*
X16156Y251809D01*
X16832Y251713D01*
X17106Y251530D01*
X17201Y251055D01*
X17201Y247960D01*
X17237Y247913D01*
X17244Y247918D01*
X17250Y247911D01*
X17750Y247911D01*
X17757Y247916D01*
X17762Y247912D01*
X18162Y248012D01*
X18199Y248059D01*
X18198Y248059D01*
X18199Y248060D01*
X18199Y249556D01*
X18298Y250150D01*
X18392Y250526D01*
X18762Y250711D01*
X19435Y250711D01*
X19710Y250528D01*
X19901Y250051D01*
X19901Y248060D01*
X19937Y248013D01*
X19938Y248013D01*
X19938Y248012D01*
X20338Y247912D01*
X20346Y247916D01*
X20350Y247911D01*
X20850Y247911D01*
X20897Y247947D01*
X20896Y247949D01*
X20898Y247950D01*
X20998Y248450D01*
X20995Y248457D01*
X20999Y248460D01*
X20999Y251440D01*
X21274Y251714D01*
X21858Y251811D01*
X21899Y251855D01*
X21898Y251856D01*
X21899Y251857D01*
X21999Y253357D01*
X21966Y253406D01*
X21957Y253400D01*
X21950Y253409D01*
X21000Y253409D01*
X20703Y255043D01*
X20985Y255325D01*
X20989Y255352D01*
X20999Y255360D01*
X20999Y255860D01*
X20995Y255866D01*
X20998Y255870D01*
X20798Y256870D01*
X20787Y256880D01*
X20789Y256890D01*
X20489Y257290D01*
X20480Y257292D01*
X20480Y257299D01*
X20080Y257599D01*
X20070Y257599D01*
X20068Y257606D01*
X19568Y257806D01*
X19562Y257804D01*
X19560Y257808D01*
X19060Y257908D01*
X19058Y257907D01*
X19042Y257907D01*
X19040Y257908D01*
X18540Y257808D01*
X18534Y257801D01*
X18528Y257804D01*
X18128Y257604D01*
X18125Y257598D01*
X18120Y257599D01*
X17720Y257299D01*
X17719Y257294D01*
X17715Y257295D01*
X17215Y256795D01*
X17212Y256768D01*
X17201Y256760D01*
X17201Y255160D01*
X17237Y255113D01*
X17238Y255113D01*
X17238Y255112D01*
X17638Y255012D01*
X17646Y255016D01*
X17650Y255011D01*
X20609Y255011D01*
X20900Y253409D01*
X16355Y253409D01*
X15869Y253506D01*
X15595Y253689D01*
X15499Y254263D01*
X15599Y256358D01*
X15598Y256359D01*
X15599Y256360D01*
X15599Y256848D01*
X15794Y257238D01*
X15793Y257241D01*
X15796Y257242D01*
X15993Y257736D01*
X16289Y258130D01*
X16585Y258525D01*
X16978Y258819D01*
X17473Y259117D01*
X17866Y259313D01*
X18855Y259511D01*
X19345Y259511D01*
X19840Y259412D01*
X20336Y259313D01*
X20826Y259117D01*
X21220Y258821D01*
X21615Y258525D01*
X21909Y258132D01*
X22207Y257637D01*
X22403Y257244D01*
X22601Y256255D01*
X22601Y253872D01*
X22416Y253502D01*
X22038Y253408D01*
X22004Y253365D01*
X22001Y253363D01*
X21901Y251863D01*
X21934Y251814D01*
X21938Y251817D01*
X21940Y251812D01*
X22417Y251716D01*
X22601Y251348D01*
X22601Y246675D01*
X22420Y246404D01*
X21945Y246309D01*
X16256Y246309D01*
G37*
%LPD*%
%LPC*%
G36*
X84739Y311249D02*
X84739Y311249D01*
X84266Y311439D01*
X84079Y311812D01*
X84079Y312295D01*
X84173Y312762D01*
X84443Y312852D01*
X84935Y312951D01*
X88030Y312951D01*
X88077Y312987D01*
X88072Y312994D01*
X88079Y313000D01*
X88079Y313100D01*
X88059Y313126D01*
X88059Y313140D01*
X84760Y315539D01*
X84269Y315932D01*
X84079Y316312D01*
X84079Y316888D01*
X84267Y317263D01*
X84642Y317451D01*
X90325Y317451D01*
X90811Y317354D01*
X91085Y317171D01*
X91179Y316604D01*
X90989Y316032D01*
X90715Y315849D01*
X87130Y315849D01*
X87117Y315840D01*
X87101Y315840D01*
X87101Y315827D01*
X87083Y315813D01*
X87100Y315790D01*
X87099Y315762D01*
X87599Y315362D01*
X87600Y315362D01*
X87600Y315361D01*
X90599Y313061D01*
X91085Y312673D01*
X91180Y312199D01*
X91084Y311624D01*
X90806Y311345D01*
X90325Y311249D01*
X84739Y311249D01*
G37*
%LPD*%
%LPC*%
G36*
X15962Y229409D02*
X15962Y229409D01*
X15594Y229593D01*
X15500Y230160D01*
X15594Y230727D01*
X15962Y230911D01*
X19451Y231011D01*
X19461Y231019D01*
X19474Y231017D01*
X19476Y231031D01*
X19498Y231048D01*
X19481Y231069D01*
X19485Y231095D01*
X19385Y231195D01*
X19380Y231195D01*
X19380Y231199D01*
X16180Y233699D01*
X16177Y233699D01*
X16177Y233701D01*
X15593Y234090D01*
X15500Y234463D01*
X15597Y235142D01*
X15780Y235416D01*
X16255Y235511D01*
X21845Y235511D01*
X22322Y235415D01*
X22601Y235044D01*
X22601Y234565D01*
X22507Y234098D01*
X22237Y234008D01*
X21745Y233909D01*
X18750Y233909D01*
X18729Y233893D01*
X18715Y233895D01*
X18615Y233795D01*
X18607Y233736D01*
X18620Y233734D01*
X18620Y233721D01*
X21820Y231321D01*
X22413Y230827D01*
X22601Y230545D01*
X22601Y229972D01*
X22413Y229597D01*
X22038Y229409D01*
X15962Y229409D01*
G37*
%LPD*%
%LPC*%
G36*
X21270Y336069D02*
X21270Y336069D01*
X20995Y336344D01*
X20899Y336825D01*
X20899Y339820D01*
X20863Y339867D01*
X20856Y339862D01*
X20850Y339869D01*
X19950Y339869D01*
X19903Y339833D01*
X19908Y339826D01*
X19901Y339820D01*
X19901Y338225D01*
X19802Y337731D01*
X19708Y337354D01*
X19338Y337169D01*
X18665Y337169D01*
X18388Y337354D01*
X18199Y337732D01*
X18199Y339820D01*
X18163Y339867D01*
X18156Y339862D01*
X18150Y339869D01*
X17250Y339869D01*
X17203Y339833D01*
X17203Y339832D01*
X17202Y339832D01*
X17102Y339432D01*
X17106Y339424D01*
X17101Y339420D01*
X17101Y336346D01*
X16832Y336167D01*
X16250Y336070D01*
X15683Y336164D01*
X15499Y336532D01*
X15499Y341105D01*
X15683Y341380D01*
X16159Y341571D01*
X21750Y341571D01*
X21797Y341607D01*
X21798Y341607D01*
X21803Y341627D01*
X21828Y341576D01*
X21835Y341580D01*
X21838Y341572D01*
X22225Y341476D01*
X22504Y341196D01*
X22601Y340616D01*
X22601Y337025D01*
X22502Y336531D01*
X22410Y336162D01*
X21945Y336069D01*
X21270Y336069D01*
G37*
%LPD*%
%LPC*%
G36*
X84450Y319049D02*
X84450Y319049D01*
X84175Y319324D01*
X84079Y319805D01*
X84079Y323895D01*
X84174Y324367D01*
X84542Y324551D01*
X90130Y324551D01*
X90177Y324587D01*
X90169Y324597D01*
X90179Y324607D01*
X90178Y324615D01*
X90181Y324592D01*
X90224Y324551D01*
X90227Y324554D01*
X90230Y324551D01*
X90715Y324551D01*
X90989Y324368D01*
X91181Y323792D01*
X91181Y319706D01*
X91086Y319329D01*
X90714Y319049D01*
X90042Y319049D01*
X89667Y319237D01*
X89479Y319612D01*
X89479Y322700D01*
X89458Y322728D01*
X89457Y322741D01*
X89157Y322941D01*
X89137Y322940D01*
X89130Y322949D01*
X88630Y322949D01*
X88583Y322913D01*
X88583Y322912D01*
X88582Y322912D01*
X88482Y322512D01*
X88486Y322504D01*
X88481Y322500D01*
X88481Y320906D01*
X88385Y320522D01*
X88105Y320149D01*
X87535Y320149D01*
X87058Y320245D01*
X86779Y320616D01*
X86779Y322600D01*
X86767Y322616D01*
X86771Y322627D01*
X86571Y322927D01*
X86538Y322939D01*
X86530Y322949D01*
X86030Y322949D01*
X86009Y322933D01*
X85995Y322935D01*
X85695Y322635D01*
X85692Y322608D01*
X85681Y322600D01*
X85681Y319515D01*
X85498Y319240D01*
X85021Y319049D01*
X84450Y319049D01*
G37*
%LPD*%
%LPC*%
G36*
X18259Y328369D02*
X18259Y328369D01*
X17768Y328566D01*
X17270Y328765D01*
X16879Y328961D01*
X16487Y329352D01*
X16189Y329750D01*
X15893Y330144D01*
X15697Y330635D01*
X15598Y331031D01*
X15499Y331525D01*
X15499Y334005D01*
X15680Y334277D01*
X16056Y334371D01*
X17109Y334371D01*
X17396Y332743D01*
X17123Y332561D01*
X17111Y332528D01*
X17101Y332520D01*
X17101Y332020D01*
X17104Y332015D01*
X17101Y332012D01*
X17201Y331412D01*
X17204Y331410D01*
X17202Y331408D01*
X17302Y331008D01*
X17313Y330999D01*
X17311Y330990D01*
X17611Y330590D01*
X17616Y330589D01*
X17615Y330585D01*
X18015Y330185D01*
X18027Y330184D01*
X18028Y330176D01*
X18428Y329976D01*
X18444Y329979D01*
X18450Y329971D01*
X19550Y329971D01*
X19563Y329980D01*
X19572Y329976D01*
X19972Y330176D01*
X19977Y330186D01*
X19985Y330185D01*
X20382Y330583D01*
X20780Y330881D01*
X20785Y330901D01*
X20798Y330911D01*
X20797Y330912D01*
X20799Y330913D01*
X20899Y331613D01*
X20896Y331618D01*
X20899Y331620D01*
X20899Y332620D01*
X20863Y332667D01*
X20862Y332667D01*
X20862Y332668D01*
X20462Y332768D01*
X20454Y332764D01*
X20450Y332769D01*
X17491Y332769D01*
X17209Y334371D01*
X22230Y334371D01*
X22504Y334096D01*
X22601Y333517D01*
X22501Y331522D01*
X22502Y331521D01*
X22501Y331520D01*
X22501Y331029D01*
X22305Y330540D01*
X22108Y330146D01*
X21811Y329750D01*
X21513Y329352D01*
X21122Y328962D01*
X20632Y328766D01*
X20630Y328763D01*
X20628Y328764D01*
X20230Y328565D01*
X19741Y328369D01*
X18259Y328369D01*
G37*
%LPD*%
%LPC*%
G36*
X19859Y352469D02*
X19859Y352469D01*
X19378Y352662D01*
X18985Y353055D01*
X18978Y353056D01*
X18977Y353061D01*
X18677Y353261D01*
X18618Y353257D01*
X18618Y353250D01*
X18611Y353250D01*
X18318Y352859D01*
X17934Y352667D01*
X17450Y352570D01*
X16964Y352667D01*
X16474Y352863D01*
X16082Y353157D01*
X15393Y353847D01*
X15299Y354128D01*
X15299Y355711D01*
X15495Y356200D01*
X15692Y356594D01*
X15985Y356985D01*
X16373Y357276D01*
X16952Y357469D01*
X17321Y357376D01*
X17608Y356994D01*
X17798Y356613D01*
X17705Y356148D01*
X17320Y355859D01*
X17319Y355854D01*
X17315Y355855D01*
X17015Y355555D01*
X17012Y355534D01*
X17001Y355528D01*
X16901Y354928D01*
X16908Y354915D01*
X16902Y354908D01*
X17002Y354508D01*
X17028Y354487D01*
X17032Y354474D01*
X17532Y354274D01*
X17565Y354283D01*
X17577Y354279D01*
X17877Y354479D01*
X17884Y354497D01*
X17890Y354501D01*
X17887Y354505D01*
X17888Y354508D01*
X17899Y354516D01*
X17997Y355588D01*
X18365Y355773D01*
X18945Y355869D01*
X19408Y355684D01*
X19502Y355309D01*
X19602Y354810D01*
X19607Y354806D01*
X19604Y354802D01*
X19804Y354302D01*
X19826Y354289D01*
X19828Y354276D01*
X20228Y354076D01*
X20243Y354079D01*
X20249Y354072D01*
X20252Y354072D01*
X20261Y354079D01*
X20268Y354074D01*
X20768Y354274D01*
X20782Y354297D01*
X20792Y354304D01*
X20790Y354306D01*
X20798Y354310D01*
X20998Y355310D01*
X20990Y355328D01*
X20996Y355338D01*
X20796Y355838D01*
X20777Y355849D01*
X20776Y355862D01*
X19994Y356351D01*
X19899Y356825D01*
X19899Y357404D01*
X20175Y357771D01*
X20545Y357771D01*
X21032Y357673D01*
X21522Y357379D01*
X21915Y357085D01*
X22208Y356694D01*
X22403Y356304D01*
X22501Y355812D01*
X22600Y355221D01*
X22402Y354230D01*
X22304Y353741D01*
X22011Y353350D01*
X21715Y352955D01*
X21329Y352666D01*
X20840Y352568D01*
X20345Y352469D01*
X19859Y352469D01*
G37*
%LPD*%
%LPC*%
G36*
X20155Y368269D02*
X20155Y368269D01*
X19666Y368367D01*
X19279Y368561D01*
X18885Y368955D01*
X18858Y368959D01*
X18850Y368969D01*
X18550Y368969D01*
X18529Y368953D01*
X18515Y368955D01*
X18221Y368661D01*
X17835Y368467D01*
X17252Y368370D01*
X16862Y368468D01*
X16807Y368444D01*
X16810Y368439D01*
X16804Y368437D01*
X16795Y368412D01*
X16780Y368454D01*
X16780Y368459D01*
X15982Y369057D01*
X15592Y369448D01*
X15299Y370130D01*
X15299Y371115D01*
X15397Y371606D01*
X15595Y372100D01*
X15792Y372494D01*
X16084Y372883D01*
X16568Y373173D01*
X17049Y373270D01*
X17418Y373177D01*
X17703Y372702D01*
X17798Y372227D01*
X17613Y371857D01*
X17228Y371664D01*
X17219Y371647D01*
X17208Y371645D01*
X16908Y371145D01*
X16909Y371130D01*
X16903Y371125D01*
X16904Y371123D01*
X16901Y371120D01*
X16901Y370620D01*
X16910Y370607D01*
X16906Y370598D01*
X17106Y370198D01*
X17134Y370184D01*
X17140Y370172D01*
X17640Y370072D01*
X17653Y370078D01*
X17655Y370078D01*
X17658Y370080D01*
X17683Y370092D01*
X17691Y370093D01*
X17891Y370393D01*
X17890Y370404D01*
X17897Y370409D01*
X17893Y370415D01*
X17899Y370420D01*
X17899Y371108D01*
X18087Y371483D01*
X18458Y371669D01*
X19132Y371573D01*
X19412Y371386D01*
X19601Y371008D01*
X19601Y370420D01*
X19614Y370402D01*
X19611Y370390D01*
X19911Y369990D01*
X19933Y369984D01*
X19938Y369972D01*
X20338Y369872D01*
X20358Y369881D01*
X20363Y369881D01*
X20368Y369884D01*
X20380Y369881D01*
X20780Y370181D01*
X20785Y370199D01*
X20796Y370202D01*
X20996Y370702D01*
X20995Y370704D01*
X20997Y370705D01*
X20994Y370708D01*
X20990Y370721D01*
X20998Y370730D01*
X20898Y371230D01*
X20893Y371234D01*
X20896Y371238D01*
X20696Y371738D01*
X20672Y371753D01*
X20668Y371766D01*
X20178Y371962D01*
X19899Y372240D01*
X19899Y372816D01*
X19995Y373391D01*
X20265Y373571D01*
X20642Y373571D01*
X21227Y373376D01*
X21618Y373083D01*
X21913Y372788D01*
X22207Y372396D01*
X22403Y371906D01*
X22502Y371410D01*
X22600Y370919D01*
X22502Y370330D01*
X22403Y369935D01*
X22207Y369444D01*
X21911Y369050D01*
X21619Y368661D01*
X21132Y368466D01*
X21130Y368463D01*
X21128Y368464D01*
X20738Y368269D01*
X20155Y368269D01*
G37*
%LPD*%
%LPC*%
G36*
X88442Y328849D02*
X88442Y328849D01*
X88059Y329041D01*
X87365Y329735D01*
X87306Y329743D01*
X87304Y329730D01*
X87291Y329730D01*
X86995Y329335D01*
X86614Y329049D01*
X85542Y329049D01*
X85156Y329242D01*
X84761Y329538D01*
X83972Y330228D01*
X83879Y330508D01*
X83879Y331991D01*
X84076Y332482D01*
X84273Y332976D01*
X84565Y333365D01*
X84954Y333657D01*
X85439Y333851D01*
X85810Y333851D01*
X86189Y333471D01*
X86378Y333093D01*
X86285Y332628D01*
X85900Y332339D01*
X85898Y332330D01*
X85891Y332330D01*
X85591Y331930D01*
X85591Y331914D01*
X85582Y331910D01*
X85482Y331410D01*
X85486Y331401D01*
X85486Y331400D01*
X85488Y331396D01*
X85482Y331388D01*
X85582Y330988D01*
X85600Y330973D01*
X85600Y330961D01*
X86000Y330661D01*
X86052Y330661D01*
X86057Y330659D01*
X86357Y330859D01*
X86363Y330877D01*
X86370Y330882D01*
X86367Y330886D01*
X86379Y330892D01*
X86479Y331492D01*
X86574Y331970D01*
X86848Y332153D01*
X87429Y332250D01*
X87897Y332156D01*
X88083Y331784D01*
X88282Y330790D01*
X88303Y330771D01*
X88305Y330758D01*
X88805Y330458D01*
X88822Y330460D01*
X88828Y330452D01*
X88833Y330452D01*
X88843Y330460D01*
X88852Y330456D01*
X89252Y330656D01*
X89262Y330676D01*
X89274Y330678D01*
X89474Y331078D01*
X89472Y331089D01*
X89479Y331092D01*
X89579Y331692D01*
X89570Y331709D01*
X89576Y331718D01*
X89376Y332218D01*
X89364Y332226D01*
X89365Y332235D01*
X89065Y332535D01*
X89051Y332537D01*
X89048Y332546D01*
X88572Y332736D01*
X88479Y333106D01*
X88479Y333784D01*
X88755Y334151D01*
X89026Y334151D01*
X89615Y334053D01*
X90004Y333858D01*
X90395Y333565D01*
X90687Y333176D01*
X90884Y332682D01*
X90887Y332680D01*
X90886Y332678D01*
X91083Y332285D01*
X91180Y331701D01*
X91082Y331210D01*
X91084Y331205D01*
X91083Y331204D01*
X91084Y331202D01*
X91081Y331200D01*
X91081Y330709D01*
X90887Y330224D01*
X90591Y329830D01*
X90295Y329435D01*
X89904Y329142D01*
X89514Y328947D01*
X89025Y328849D01*
X88442Y328849D01*
G37*
%LPD*%
%LPC*%
G36*
X88346Y344747D02*
X88346Y344747D01*
X87959Y344941D01*
X87565Y345335D01*
X87549Y345337D01*
X87546Y345347D01*
X87246Y345447D01*
X87195Y345430D01*
X87191Y345430D01*
X86899Y345041D01*
X86421Y344849D01*
X85442Y344849D01*
X85059Y345041D01*
X84665Y345435D01*
X84662Y345435D01*
X84662Y345437D01*
X83879Y346122D01*
X83879Y347396D01*
X83978Y347990D01*
X84077Y348385D01*
X84271Y348869D01*
X84660Y349161D01*
X84661Y349166D01*
X84665Y349165D01*
X85054Y349555D01*
X85529Y349650D01*
X85905Y349556D01*
X86286Y349175D01*
X86380Y348799D01*
X86286Y348331D01*
X85805Y348042D01*
X85800Y348030D01*
X85791Y348030D01*
X85491Y347630D01*
X85491Y347610D01*
X85483Y347604D01*
X85484Y347602D01*
X85481Y347600D01*
X85481Y347100D01*
X85490Y347087D01*
X85486Y347078D01*
X85686Y346678D01*
X85706Y346668D01*
X85708Y346656D01*
X86108Y346456D01*
X86120Y346458D01*
X86138Y346458D01*
X86143Y346463D01*
X86161Y346466D01*
X86165Y346465D01*
X86465Y346765D01*
X86467Y346782D01*
X86477Y346790D01*
X86473Y346795D01*
X86479Y346800D01*
X86479Y347395D01*
X86574Y347867D01*
X86942Y348051D01*
X87618Y348051D01*
X87988Y347866D01*
X88082Y347490D01*
X88181Y346892D01*
X88189Y346885D01*
X88186Y346878D01*
X88386Y346478D01*
X88408Y346467D01*
X88412Y346454D01*
X88912Y346254D01*
X88937Y346261D01*
X88944Y346261D01*
X88948Y346264D01*
X88960Y346261D01*
X89360Y346561D01*
X89364Y346576D01*
X89374Y346578D01*
X89574Y346978D01*
X89573Y346983D01*
X89577Y346987D01*
X89572Y346994D01*
X89579Y347000D01*
X89579Y347600D01*
X89571Y347611D01*
X89576Y347618D01*
X89376Y348118D01*
X89352Y348133D01*
X89348Y348146D01*
X88858Y348342D01*
X88575Y348624D01*
X88480Y349101D01*
X88577Y349682D01*
X88756Y349951D01*
X89225Y349951D01*
X89712Y349853D01*
X90200Y349561D01*
X90493Y349268D01*
X90787Y348876D01*
X90983Y348386D01*
X91082Y347890D01*
X91180Y347400D01*
X91082Y346910D01*
X90983Y346414D01*
X90785Y345920D01*
X90589Y345529D01*
X90198Y345137D01*
X89809Y344846D01*
X89320Y344748D01*
X88830Y344650D01*
X88346Y344747D01*
G37*
%LPD*%
%LPC*%
G36*
X59546Y142249D02*
X59546Y142249D01*
X59165Y142535D01*
X58873Y142924D01*
X58677Y143414D01*
X58578Y143910D01*
X58480Y144400D01*
X58578Y144890D01*
X58575Y144897D01*
X58579Y144900D01*
X58579Y145391D01*
X58776Y145882D01*
X58973Y146376D01*
X59269Y146770D01*
X59567Y147168D01*
X59862Y147463D01*
X60254Y147757D01*
X60748Y147954D01*
X60763Y147979D01*
X60777Y147989D01*
X60772Y147994D01*
X60779Y148005D01*
X60771Y148010D01*
X60776Y148018D01*
X60761Y148056D01*
X61240Y148152D01*
X61735Y148251D01*
X62225Y148251D01*
X62720Y148152D01*
X63216Y148053D01*
X63710Y147855D01*
X64104Y147658D01*
X64498Y147363D01*
X64893Y146968D01*
X65187Y146576D01*
X65384Y146082D01*
X65583Y145585D01*
X65682Y145189D01*
X65780Y144700D01*
X65682Y144210D01*
X65582Y143713D01*
X65384Y143119D01*
X65188Y142726D01*
X64901Y142344D01*
X64534Y142252D01*
X64055Y142443D01*
X63579Y142824D01*
X63579Y143186D01*
X63872Y143675D01*
X63871Y143683D01*
X63877Y143684D01*
X63977Y143984D01*
X63975Y143989D01*
X63978Y143990D01*
X64078Y144490D01*
X64077Y144492D01*
X64075Y144497D01*
X64079Y144500D01*
X64079Y145000D01*
X64070Y145013D01*
X64074Y145022D01*
X63875Y145420D01*
X63676Y145918D01*
X63664Y145926D01*
X63665Y145935D01*
X63265Y146335D01*
X63253Y146336D01*
X63252Y146344D01*
X62852Y146544D01*
X62843Y146542D01*
X62840Y146548D01*
X62340Y146648D01*
X62328Y146643D01*
X62322Y146649D01*
X61722Y146549D01*
X61721Y146548D01*
X61720Y146548D01*
X61220Y146448D01*
X61210Y146437D01*
X61200Y146439D01*
X60800Y146139D01*
X60798Y146130D01*
X60791Y146130D01*
X60491Y145730D01*
X60491Y145723D01*
X60486Y145722D01*
X60286Y145322D01*
X60288Y145313D01*
X60282Y145310D01*
X60182Y144810D01*
X60185Y144803D01*
X60181Y144800D01*
X60181Y144200D01*
X60186Y144193D01*
X60182Y144188D01*
X60282Y143788D01*
X60291Y143781D01*
X60288Y143775D01*
X60584Y143281D01*
X60675Y142915D01*
X60397Y142637D01*
X59913Y142249D01*
X59546Y142249D01*
G37*
%LPD*%
%LPC*%
G36*
X16162Y359569D02*
X16162Y359569D01*
X15784Y359758D01*
X15594Y360043D01*
X15403Y360520D01*
X15588Y360983D01*
X20170Y363075D01*
X20176Y363085D01*
X20186Y363087D01*
X20184Y363100D01*
X20199Y363128D01*
X20177Y363139D01*
X20172Y363164D01*
X19972Y363264D01*
X19970Y363264D01*
X19970Y363265D01*
X15974Y365063D01*
X15684Y365256D01*
X15406Y365627D01*
X15594Y366098D01*
X15885Y366582D01*
X16252Y366766D01*
X16730Y366575D01*
X22121Y363879D01*
X22505Y363496D01*
X22599Y363025D01*
X22409Y362551D01*
X22024Y362262D01*
X17030Y359765D01*
X16541Y359569D01*
X16162Y359569D01*
G37*
%LPD*%
%LPC*%
G36*
X21370Y217205D02*
X21370Y217205D01*
X15979Y219901D01*
X15595Y220284D01*
X15502Y220753D01*
X15691Y221131D01*
X16079Y221519D01*
X21070Y224015D01*
X21559Y224211D01*
X21938Y224211D01*
X22316Y224022D01*
X22506Y223737D01*
X22697Y223260D01*
X22512Y222797D01*
X17930Y220705D01*
X17928Y220703D01*
X17926Y220703D01*
X17925Y220696D01*
X17901Y220652D01*
X17918Y220644D01*
X17915Y220625D01*
X18115Y220425D01*
X18129Y220423D01*
X18131Y220415D01*
X22126Y218717D01*
X22416Y218524D01*
X22694Y218153D01*
X22506Y217682D01*
X22215Y217198D01*
X21848Y217014D01*
X21370Y217205D01*
G37*
%LPD*%
%LPC*%
G36*
X84369Y336135D02*
X84369Y336135D01*
X84082Y336903D01*
X84172Y337266D01*
X84552Y337456D01*
X88751Y339456D01*
X88752Y339457D01*
X88754Y339457D01*
X88755Y339463D01*
X88779Y339508D01*
X88762Y339517D01*
X88765Y339535D01*
X88665Y339635D01*
X88652Y339637D01*
X88650Y339645D01*
X84654Y341443D01*
X84364Y341636D01*
X84079Y342016D01*
X84079Y342388D01*
X84367Y342963D01*
X84732Y343146D01*
X85210Y342955D01*
X90701Y340259D01*
X90988Y339972D01*
X91177Y339500D01*
X90988Y339028D01*
X90701Y338741D01*
X85214Y336047D01*
X84737Y335952D01*
X84369Y336135D01*
G37*
%LPD*%
%LPC*%
G36*
X60542Y158049D02*
X60542Y158049D01*
X60153Y158243D01*
X59664Y158537D01*
X59369Y158930D01*
X59104Y159284D01*
X60521Y160039D01*
X60795Y159765D01*
X60816Y159762D01*
X60822Y159751D01*
X61422Y159651D01*
X61441Y159661D01*
X61452Y159656D01*
X61852Y159856D01*
X61865Y159883D01*
X61878Y159888D01*
X62078Y160688D01*
X62075Y160694D01*
X62077Y160695D01*
X62076Y160697D01*
X62079Y160700D01*
X62079Y161700D01*
X62047Y161743D01*
X62046Y161747D01*
X61746Y161847D01*
X61735Y161843D01*
X61730Y161849D01*
X60630Y161849D01*
X60620Y161842D01*
X60618Y161842D01*
X60613Y161837D01*
X60603Y161841D01*
X60331Y161660D01*
X58688Y162841D01*
X58774Y163267D01*
X59142Y163451D01*
X65218Y163451D01*
X65586Y163267D01*
X65681Y162795D01*
X65681Y162215D01*
X65500Y161944D01*
X65025Y161849D01*
X63930Y161849D01*
X63887Y161817D01*
X63883Y161816D01*
X63783Y161516D01*
X63785Y161512D01*
X63783Y161510D01*
X63787Y161505D01*
X63781Y161500D01*
X63781Y160406D01*
X63683Y160015D01*
X63484Y159518D01*
X63288Y159028D01*
X62898Y158637D01*
X62504Y158342D01*
X62114Y158147D01*
X61625Y158049D01*
X60542Y158049D01*
G37*
%LPD*%
%LPC*%
G36*
X58950Y149949D02*
X58950Y149949D01*
X58679Y150220D01*
X58679Y155995D01*
X58774Y156467D01*
X59142Y156651D01*
X59630Y156651D01*
X59657Y156671D01*
X59671Y156672D01*
X59691Y156701D01*
X59694Y156667D01*
X59695Y156667D01*
X59695Y156665D01*
X59981Y156380D01*
X59981Y154300D01*
X60002Y154272D01*
X60003Y154259D01*
X60303Y154059D01*
X60319Y154060D01*
X60323Y154060D01*
X60330Y154051D01*
X65405Y154051D01*
X65684Y153679D01*
X65780Y153200D01*
X65687Y152736D01*
X65221Y152549D01*
X60230Y152549D01*
X60197Y152524D01*
X60186Y152522D01*
X59986Y152122D01*
X59989Y152108D01*
X59983Y152103D01*
X59984Y152102D01*
X59981Y152100D01*
X59981Y150506D01*
X59888Y150134D01*
X59518Y149949D01*
X58950Y149949D01*
G37*
%LPD*%
%LPC*%
G36*
X21570Y343169D02*
X21570Y343169D01*
X21295Y343444D01*
X21199Y343925D01*
X21199Y345920D01*
X21185Y345938D01*
X21188Y345951D01*
X20788Y346451D01*
X20758Y346458D01*
X20750Y346469D01*
X16156Y346469D01*
X15779Y346564D01*
X15499Y346936D01*
X15499Y347511D01*
X15689Y347984D01*
X16062Y348171D01*
X21550Y348171D01*
X21597Y348207D01*
X21589Y348218D01*
X21598Y348228D01*
X21602Y348211D01*
X21637Y348179D01*
X21640Y348172D01*
X22131Y348074D01*
X22410Y347888D01*
X22601Y347411D01*
X22601Y343825D01*
X22506Y343353D01*
X22138Y343169D01*
X21570Y343169D01*
G37*
%LPD*%
%LPC*%
G36*
X15965Y239709D02*
X15965Y239709D01*
X15691Y239892D01*
X15499Y240468D01*
X15499Y244055D01*
X15593Y244524D01*
X16055Y244709D01*
X16526Y244615D01*
X16805Y244336D01*
X16901Y243855D01*
X16901Y241860D01*
X16915Y241842D01*
X16912Y241829D01*
X17312Y241329D01*
X17342Y241322D01*
X17350Y241311D01*
X21944Y241311D01*
X22321Y241216D01*
X22601Y240844D01*
X22601Y240269D01*
X22414Y239802D01*
X22044Y239709D01*
X15965Y239709D01*
G37*
%LPD*%
%LPC*%
G36*
X16455Y226109D02*
X16455Y226109D01*
X15963Y226208D01*
X15689Y226299D01*
X15501Y226864D01*
X15596Y227436D01*
X15874Y227715D01*
X16354Y227811D01*
X21945Y227711D01*
X22417Y227616D01*
X22601Y227248D01*
X22601Y226672D01*
X22413Y226297D01*
X22038Y226109D01*
X16455Y226109D01*
G37*
%LPD*%
%LPC*%
G36*
X58777Y159814D02*
X58777Y159814D01*
X58679Y160305D01*
X58679Y162726D01*
X60281Y161575D01*
X60281Y160600D01*
X60289Y160589D01*
X60284Y160582D01*
X60467Y160124D01*
X58956Y159368D01*
X58777Y159814D01*
G37*
%LPD*%
D10*
X51308Y135636D02*
X51308Y118364D01*
X69088Y138176D02*
X69188Y138174D01*
X69287Y138168D01*
X69387Y138158D01*
X69485Y138145D01*
X69584Y138127D01*
X69681Y138106D01*
X69777Y138081D01*
X69873Y138052D01*
X69967Y138019D01*
X70060Y137983D01*
X70151Y137943D01*
X70241Y137899D01*
X70329Y137852D01*
X70415Y137802D01*
X70499Y137748D01*
X70581Y137691D01*
X70660Y137631D01*
X70738Y137567D01*
X70812Y137501D01*
X70884Y137432D01*
X70953Y137360D01*
X71019Y137286D01*
X71083Y137208D01*
X71143Y137129D01*
X71200Y137047D01*
X71254Y136963D01*
X71304Y136877D01*
X71351Y136789D01*
X71395Y136699D01*
X71435Y136608D01*
X71471Y136515D01*
X71504Y136421D01*
X71533Y136325D01*
X71558Y136229D01*
X71579Y136132D01*
X71597Y136033D01*
X71610Y135935D01*
X71620Y135835D01*
X71626Y135736D01*
X71628Y135636D01*
X71628Y118364D02*
X71626Y118264D01*
X71620Y118165D01*
X71610Y118065D01*
X71597Y117967D01*
X71579Y117868D01*
X71558Y117771D01*
X71533Y117675D01*
X71504Y117579D01*
X71471Y117485D01*
X71435Y117392D01*
X71395Y117301D01*
X71351Y117211D01*
X71304Y117123D01*
X71254Y117037D01*
X71200Y116953D01*
X71143Y116871D01*
X71083Y116792D01*
X71019Y116714D01*
X70953Y116640D01*
X70884Y116568D01*
X70812Y116499D01*
X70738Y116433D01*
X70660Y116369D01*
X70581Y116309D01*
X70499Y116252D01*
X70415Y116198D01*
X70329Y116148D01*
X70241Y116101D01*
X70151Y116057D01*
X70060Y116017D01*
X69967Y115981D01*
X69873Y115948D01*
X69777Y115919D01*
X69681Y115894D01*
X69584Y115873D01*
X69485Y115855D01*
X69387Y115842D01*
X69287Y115832D01*
X69188Y115826D01*
X69088Y115824D01*
X53848Y115824D02*
X53748Y115826D01*
X53649Y115832D01*
X53549Y115842D01*
X53451Y115855D01*
X53352Y115873D01*
X53255Y115894D01*
X53159Y115919D01*
X53063Y115948D01*
X52969Y115981D01*
X52876Y116017D01*
X52785Y116057D01*
X52695Y116101D01*
X52607Y116148D01*
X52521Y116198D01*
X52437Y116252D01*
X52355Y116309D01*
X52276Y116369D01*
X52198Y116433D01*
X52124Y116499D01*
X52052Y116568D01*
X51983Y116640D01*
X51917Y116714D01*
X51853Y116792D01*
X51793Y116871D01*
X51736Y116953D01*
X51682Y117037D01*
X51632Y117123D01*
X51585Y117211D01*
X51541Y117301D01*
X51501Y117392D01*
X51465Y117485D01*
X51432Y117579D01*
X51403Y117675D01*
X51378Y117771D01*
X51357Y117868D01*
X51339Y117967D01*
X51326Y118065D01*
X51316Y118165D01*
X51310Y118264D01*
X51308Y118364D01*
X51308Y135636D02*
X51310Y135736D01*
X51316Y135835D01*
X51326Y135935D01*
X51339Y136033D01*
X51357Y136132D01*
X51378Y136229D01*
X51403Y136325D01*
X51432Y136421D01*
X51465Y136515D01*
X51501Y136608D01*
X51541Y136699D01*
X51585Y136789D01*
X51632Y136877D01*
X51682Y136963D01*
X51736Y137047D01*
X51793Y137129D01*
X51853Y137208D01*
X51917Y137286D01*
X51983Y137360D01*
X52052Y137432D01*
X52124Y137501D01*
X52198Y137567D01*
X52276Y137631D01*
X52355Y137691D01*
X52437Y137748D01*
X52521Y137802D01*
X52607Y137852D01*
X52695Y137899D01*
X52785Y137943D01*
X52876Y137983D01*
X52969Y138019D01*
X53063Y138052D01*
X53159Y138081D01*
X53255Y138106D01*
X53352Y138127D01*
X53451Y138145D01*
X53549Y138158D01*
X53649Y138168D01*
X53748Y138174D01*
X53848Y138176D01*
X69088Y138176D01*
X69088Y115824D02*
X53848Y115824D01*
X71628Y118364D02*
X71628Y135636D01*
X97790Y287528D02*
X97790Y304800D01*
X80010Y284988D02*
X79910Y284990D01*
X79811Y284996D01*
X79711Y285006D01*
X79613Y285019D01*
X79514Y285037D01*
X79417Y285058D01*
X79321Y285083D01*
X79225Y285112D01*
X79131Y285145D01*
X79038Y285181D01*
X78947Y285221D01*
X78857Y285265D01*
X78769Y285312D01*
X78683Y285362D01*
X78599Y285416D01*
X78517Y285473D01*
X78438Y285533D01*
X78360Y285597D01*
X78286Y285663D01*
X78214Y285732D01*
X78145Y285804D01*
X78079Y285878D01*
X78015Y285956D01*
X77955Y286035D01*
X77898Y286117D01*
X77844Y286201D01*
X77794Y286287D01*
X77747Y286375D01*
X77703Y286465D01*
X77663Y286556D01*
X77627Y286649D01*
X77594Y286743D01*
X77565Y286839D01*
X77540Y286935D01*
X77519Y287032D01*
X77501Y287131D01*
X77488Y287229D01*
X77478Y287329D01*
X77472Y287428D01*
X77470Y287528D01*
X77470Y304800D02*
X77472Y304900D01*
X77478Y304999D01*
X77488Y305099D01*
X77501Y305197D01*
X77519Y305296D01*
X77540Y305393D01*
X77565Y305489D01*
X77594Y305585D01*
X77627Y305679D01*
X77663Y305772D01*
X77703Y305863D01*
X77747Y305953D01*
X77794Y306041D01*
X77844Y306127D01*
X77898Y306211D01*
X77955Y306293D01*
X78015Y306372D01*
X78079Y306450D01*
X78145Y306524D01*
X78214Y306596D01*
X78286Y306665D01*
X78360Y306731D01*
X78438Y306795D01*
X78517Y306855D01*
X78599Y306912D01*
X78683Y306966D01*
X78769Y307016D01*
X78857Y307063D01*
X78947Y307107D01*
X79038Y307147D01*
X79131Y307183D01*
X79225Y307216D01*
X79321Y307245D01*
X79417Y307270D01*
X79514Y307291D01*
X79613Y307309D01*
X79711Y307322D01*
X79811Y307332D01*
X79910Y307338D01*
X80010Y307340D01*
X95250Y307340D02*
X95350Y307338D01*
X95449Y307332D01*
X95549Y307322D01*
X95647Y307309D01*
X95746Y307291D01*
X95843Y307270D01*
X95939Y307245D01*
X96035Y307216D01*
X96129Y307183D01*
X96222Y307147D01*
X96313Y307107D01*
X96403Y307063D01*
X96491Y307016D01*
X96577Y306966D01*
X96661Y306912D01*
X96743Y306855D01*
X96822Y306795D01*
X96900Y306731D01*
X96974Y306665D01*
X97046Y306596D01*
X97115Y306524D01*
X97181Y306450D01*
X97245Y306372D01*
X97305Y306293D01*
X97362Y306211D01*
X97416Y306127D01*
X97466Y306041D01*
X97513Y305953D01*
X97557Y305863D01*
X97597Y305772D01*
X97633Y305679D01*
X97666Y305585D01*
X97695Y305489D01*
X97720Y305393D01*
X97741Y305296D01*
X97759Y305197D01*
X97772Y305099D01*
X97782Y304999D01*
X97788Y304900D01*
X97790Y304800D01*
X97790Y287528D02*
X97788Y287428D01*
X97782Y287329D01*
X97772Y287229D01*
X97759Y287131D01*
X97741Y287032D01*
X97720Y286935D01*
X97695Y286839D01*
X97666Y286743D01*
X97633Y286649D01*
X97597Y286556D01*
X97557Y286465D01*
X97513Y286375D01*
X97466Y286287D01*
X97416Y286201D01*
X97362Y286117D01*
X97305Y286035D01*
X97245Y285956D01*
X97181Y285878D01*
X97115Y285804D01*
X97046Y285732D01*
X96974Y285663D01*
X96900Y285597D01*
X96822Y285533D01*
X96743Y285473D01*
X96661Y285416D01*
X96577Y285362D01*
X96491Y285312D01*
X96403Y285265D01*
X96313Y285221D01*
X96222Y285181D01*
X96129Y285145D01*
X96035Y285112D01*
X95939Y285083D01*
X95843Y285058D01*
X95746Y285037D01*
X95647Y285019D01*
X95549Y285006D01*
X95449Y284996D01*
X95350Y284990D01*
X95250Y284988D01*
X80010Y284988D01*
X80010Y307340D02*
X95250Y307340D01*
X77470Y304800D02*
X77470Y287528D01*
D11*
X29464Y304800D02*
X29464Y320040D01*
X13716Y300228D02*
X13583Y300230D01*
X13450Y300236D01*
X13318Y300245D01*
X13185Y300259D01*
X13053Y300276D01*
X12922Y300297D01*
X12791Y300322D01*
X12662Y300351D01*
X12533Y300384D01*
X12405Y300420D01*
X12278Y300460D01*
X12152Y300504D01*
X12028Y300551D01*
X11905Y300602D01*
X11784Y300656D01*
X11664Y300714D01*
X11546Y300776D01*
X11430Y300841D01*
X11316Y300909D01*
X11204Y300980D01*
X11094Y301055D01*
X10986Y301133D01*
X10880Y301214D01*
X10777Y301298D01*
X10677Y301385D01*
X10579Y301474D01*
X10483Y301567D01*
X10390Y301663D01*
X10301Y301761D01*
X10214Y301861D01*
X10130Y301964D01*
X10049Y302070D01*
X9971Y302178D01*
X9896Y302288D01*
X9825Y302400D01*
X9757Y302514D01*
X9692Y302630D01*
X9630Y302748D01*
X9572Y302868D01*
X9518Y302989D01*
X9467Y303112D01*
X9420Y303236D01*
X9376Y303362D01*
X9336Y303489D01*
X9300Y303617D01*
X9267Y303746D01*
X9238Y303875D01*
X9213Y304006D01*
X9192Y304137D01*
X9175Y304269D01*
X9161Y304402D01*
X9152Y304534D01*
X9146Y304667D01*
X9144Y304800D01*
X9144Y320040D02*
X9146Y320173D01*
X9152Y320306D01*
X9161Y320438D01*
X9175Y320571D01*
X9192Y320703D01*
X9213Y320834D01*
X9238Y320965D01*
X9267Y321094D01*
X9300Y321223D01*
X9336Y321351D01*
X9376Y321478D01*
X9420Y321604D01*
X9467Y321728D01*
X9518Y321851D01*
X9572Y321972D01*
X9630Y322092D01*
X9692Y322210D01*
X9757Y322326D01*
X9825Y322440D01*
X9896Y322552D01*
X9971Y322662D01*
X10049Y322770D01*
X10130Y322876D01*
X10214Y322979D01*
X10301Y323079D01*
X10390Y323177D01*
X10483Y323273D01*
X10579Y323366D01*
X10677Y323455D01*
X10777Y323542D01*
X10880Y323626D01*
X10986Y323707D01*
X11094Y323785D01*
X11204Y323860D01*
X11316Y323931D01*
X11430Y323999D01*
X11546Y324064D01*
X11664Y324126D01*
X11784Y324184D01*
X11905Y324238D01*
X12028Y324289D01*
X12152Y324336D01*
X12278Y324380D01*
X12405Y324420D01*
X12533Y324456D01*
X12662Y324489D01*
X12791Y324518D01*
X12922Y324543D01*
X13053Y324564D01*
X13185Y324581D01*
X13318Y324595D01*
X13450Y324604D01*
X13583Y324610D01*
X13716Y324612D01*
X24892Y324612D02*
X25025Y324610D01*
X25158Y324604D01*
X25290Y324595D01*
X25423Y324581D01*
X25555Y324564D01*
X25686Y324543D01*
X25817Y324518D01*
X25946Y324489D01*
X26075Y324456D01*
X26203Y324420D01*
X26330Y324380D01*
X26456Y324336D01*
X26580Y324289D01*
X26703Y324238D01*
X26824Y324184D01*
X26944Y324126D01*
X27062Y324064D01*
X27178Y323999D01*
X27292Y323931D01*
X27404Y323860D01*
X27514Y323785D01*
X27622Y323707D01*
X27728Y323626D01*
X27831Y323542D01*
X27931Y323455D01*
X28029Y323366D01*
X28125Y323273D01*
X28218Y323177D01*
X28307Y323079D01*
X28394Y322979D01*
X28478Y322876D01*
X28559Y322770D01*
X28637Y322662D01*
X28712Y322552D01*
X28783Y322440D01*
X28851Y322326D01*
X28916Y322210D01*
X28978Y322092D01*
X29036Y321972D01*
X29090Y321851D01*
X29141Y321728D01*
X29188Y321604D01*
X29232Y321478D01*
X29272Y321351D01*
X29308Y321223D01*
X29341Y321094D01*
X29370Y320965D01*
X29395Y320834D01*
X29416Y320703D01*
X29433Y320571D01*
X29447Y320438D01*
X29456Y320306D01*
X29462Y320173D01*
X29464Y320040D01*
X29464Y304800D02*
X29462Y304667D01*
X29456Y304534D01*
X29447Y304402D01*
X29433Y304269D01*
X29416Y304137D01*
X29395Y304006D01*
X29370Y303875D01*
X29341Y303746D01*
X29308Y303617D01*
X29272Y303489D01*
X29232Y303362D01*
X29188Y303236D01*
X29141Y303112D01*
X29090Y302989D01*
X29036Y302868D01*
X28978Y302748D01*
X28916Y302630D01*
X28851Y302514D01*
X28783Y302400D01*
X28712Y302288D01*
X28637Y302178D01*
X28559Y302070D01*
X28478Y301964D01*
X28394Y301861D01*
X28307Y301761D01*
X28218Y301663D01*
X28125Y301567D01*
X28029Y301474D01*
X27931Y301385D01*
X27831Y301298D01*
X27728Y301214D01*
X27622Y301133D01*
X27514Y301055D01*
X27404Y300980D01*
X27292Y300909D01*
X27178Y300841D01*
X27062Y300776D01*
X26944Y300714D01*
X26824Y300656D01*
X26703Y300602D01*
X26580Y300551D01*
X26456Y300504D01*
X26330Y300460D01*
X26203Y300420D01*
X26075Y300384D01*
X25946Y300351D01*
X25817Y300322D01*
X25686Y300297D01*
X25555Y300276D01*
X25423Y300259D01*
X25290Y300245D01*
X25158Y300236D01*
X25025Y300230D01*
X24892Y300228D01*
X13716Y300228D01*
X13716Y324612D02*
X24892Y324612D01*
X9144Y320040D02*
X9144Y304800D01*
X29464Y282448D02*
X29464Y267208D01*
X13716Y262636D02*
X13583Y262638D01*
X13450Y262644D01*
X13318Y262653D01*
X13185Y262667D01*
X13053Y262684D01*
X12922Y262705D01*
X12791Y262730D01*
X12662Y262759D01*
X12533Y262792D01*
X12405Y262828D01*
X12278Y262868D01*
X12152Y262912D01*
X12028Y262959D01*
X11905Y263010D01*
X11784Y263064D01*
X11664Y263122D01*
X11546Y263184D01*
X11430Y263249D01*
X11316Y263317D01*
X11204Y263388D01*
X11094Y263463D01*
X10986Y263541D01*
X10880Y263622D01*
X10777Y263706D01*
X10677Y263793D01*
X10579Y263882D01*
X10483Y263975D01*
X10390Y264071D01*
X10301Y264169D01*
X10214Y264269D01*
X10130Y264372D01*
X10049Y264478D01*
X9971Y264586D01*
X9896Y264696D01*
X9825Y264808D01*
X9757Y264922D01*
X9692Y265038D01*
X9630Y265156D01*
X9572Y265276D01*
X9518Y265397D01*
X9467Y265520D01*
X9420Y265644D01*
X9376Y265770D01*
X9336Y265897D01*
X9300Y266025D01*
X9267Y266154D01*
X9238Y266283D01*
X9213Y266414D01*
X9192Y266545D01*
X9175Y266677D01*
X9161Y266810D01*
X9152Y266942D01*
X9146Y267075D01*
X9144Y267208D01*
X9144Y282448D02*
X9146Y282581D01*
X9152Y282714D01*
X9161Y282846D01*
X9175Y282979D01*
X9192Y283111D01*
X9213Y283242D01*
X9238Y283373D01*
X9267Y283502D01*
X9300Y283631D01*
X9336Y283759D01*
X9376Y283886D01*
X9420Y284012D01*
X9467Y284136D01*
X9518Y284259D01*
X9572Y284380D01*
X9630Y284500D01*
X9692Y284618D01*
X9757Y284734D01*
X9825Y284848D01*
X9896Y284960D01*
X9971Y285070D01*
X10049Y285178D01*
X10130Y285284D01*
X10214Y285387D01*
X10301Y285487D01*
X10390Y285585D01*
X10483Y285681D01*
X10579Y285774D01*
X10677Y285863D01*
X10777Y285950D01*
X10880Y286034D01*
X10986Y286115D01*
X11094Y286193D01*
X11204Y286268D01*
X11316Y286339D01*
X11430Y286407D01*
X11546Y286472D01*
X11664Y286534D01*
X11784Y286592D01*
X11905Y286646D01*
X12028Y286697D01*
X12152Y286744D01*
X12278Y286788D01*
X12405Y286828D01*
X12533Y286864D01*
X12662Y286897D01*
X12791Y286926D01*
X12922Y286951D01*
X13053Y286972D01*
X13185Y286989D01*
X13318Y287003D01*
X13450Y287012D01*
X13583Y287018D01*
X13716Y287020D01*
X24892Y287020D02*
X25025Y287018D01*
X25158Y287012D01*
X25290Y287003D01*
X25423Y286989D01*
X25555Y286972D01*
X25686Y286951D01*
X25817Y286926D01*
X25946Y286897D01*
X26075Y286864D01*
X26203Y286828D01*
X26330Y286788D01*
X26456Y286744D01*
X26580Y286697D01*
X26703Y286646D01*
X26824Y286592D01*
X26944Y286534D01*
X27062Y286472D01*
X27178Y286407D01*
X27292Y286339D01*
X27404Y286268D01*
X27514Y286193D01*
X27622Y286115D01*
X27728Y286034D01*
X27831Y285950D01*
X27931Y285863D01*
X28029Y285774D01*
X28125Y285681D01*
X28218Y285585D01*
X28307Y285487D01*
X28394Y285387D01*
X28478Y285284D01*
X28559Y285178D01*
X28637Y285070D01*
X28712Y284960D01*
X28783Y284848D01*
X28851Y284734D01*
X28916Y284618D01*
X28978Y284500D01*
X29036Y284380D01*
X29090Y284259D01*
X29141Y284136D01*
X29188Y284012D01*
X29232Y283886D01*
X29272Y283759D01*
X29308Y283631D01*
X29341Y283502D01*
X29370Y283373D01*
X29395Y283242D01*
X29416Y283111D01*
X29433Y282979D01*
X29447Y282846D01*
X29456Y282714D01*
X29462Y282581D01*
X29464Y282448D01*
X29464Y267208D02*
X29462Y267075D01*
X29456Y266942D01*
X29447Y266810D01*
X29433Y266677D01*
X29416Y266545D01*
X29395Y266414D01*
X29370Y266283D01*
X29341Y266154D01*
X29308Y266025D01*
X29272Y265897D01*
X29232Y265770D01*
X29188Y265644D01*
X29141Y265520D01*
X29090Y265397D01*
X29036Y265276D01*
X28978Y265156D01*
X28916Y265038D01*
X28851Y264922D01*
X28783Y264808D01*
X28712Y264696D01*
X28637Y264586D01*
X28559Y264478D01*
X28478Y264372D01*
X28394Y264269D01*
X28307Y264169D01*
X28218Y264071D01*
X28125Y263975D01*
X28029Y263882D01*
X27931Y263793D01*
X27831Y263706D01*
X27728Y263622D01*
X27622Y263541D01*
X27514Y263463D01*
X27404Y263388D01*
X27292Y263317D01*
X27178Y263249D01*
X27062Y263184D01*
X26944Y263122D01*
X26824Y263064D01*
X26703Y263010D01*
X26580Y262959D01*
X26456Y262912D01*
X26330Y262868D01*
X26203Y262828D01*
X26075Y262792D01*
X25946Y262759D01*
X25817Y262730D01*
X25686Y262705D01*
X25555Y262684D01*
X25423Y262667D01*
X25290Y262653D01*
X25158Y262644D01*
X25025Y262638D01*
X24892Y262636D01*
X13716Y262636D01*
X13716Y287020D02*
X24892Y287020D01*
X9144Y282448D02*
X9144Y267208D01*
M02*
