G04 EAGLE Gerber RS-274X export*
G75*
%MOMM*%
%FSLAX34Y34*%
%LPD*%
%INSolderpaste Top*%
%IPPOS*%
%AMOC8*
5,1,8,0,0,1.08239X$1,22.5*%
G01*
%ADD10C,0.102000*%
%ADD11C,0.096000*%
%ADD12R,0.300000X1.750000*%
%ADD13C,0.099059*%
%ADD14C,0.100000*%
%ADD15C,0.105000*%
%ADD16C,0.098000*%
%ADD17C,0.100800*%
%ADD18R,1.375000X0.800000*%
%ADD19C,0.300000*%
%ADD20C,0.104000*%
%ADD21C,0.099000*%

G36*
X245741Y242053D02*
X245741Y242053D01*
X245786Y242054D01*
X245837Y242076D01*
X245892Y242089D01*
X245928Y242115D01*
X245968Y242133D01*
X246007Y242174D01*
X246052Y242207D01*
X246075Y242245D01*
X246105Y242277D01*
X246125Y242330D01*
X246154Y242378D01*
X246162Y242429D01*
X246175Y242463D01*
X246174Y242497D01*
X246181Y242542D01*
X246181Y253542D01*
X246171Y253595D01*
X246170Y253648D01*
X246151Y253691D01*
X246142Y253737D01*
X246111Y253781D01*
X246090Y253830D01*
X246056Y253862D01*
X246029Y253901D01*
X245984Y253930D01*
X245945Y253966D01*
X245894Y253987D01*
X245862Y254008D01*
X245830Y254013D01*
X245791Y254029D01*
X243056Y254640D01*
X240492Y255668D01*
X238128Y257095D01*
X236024Y258884D01*
X234235Y260988D01*
X232808Y263352D01*
X231780Y265916D01*
X231169Y268651D01*
X231147Y268700D01*
X231135Y268752D01*
X231107Y268790D01*
X231088Y268832D01*
X231049Y268869D01*
X231017Y268912D01*
X230977Y268936D01*
X230943Y268968D01*
X230892Y268986D01*
X230846Y269014D01*
X230792Y269023D01*
X230756Y269036D01*
X230724Y269034D01*
X230682Y269041D01*
X219682Y269041D01*
X219627Y269030D01*
X219571Y269029D01*
X219530Y269010D01*
X219487Y269002D01*
X219441Y268970D01*
X219390Y268947D01*
X219360Y268914D01*
X219323Y268889D01*
X219293Y268842D01*
X219255Y268800D01*
X219240Y268759D01*
X219216Y268722D01*
X219207Y268666D01*
X219188Y268613D01*
X219189Y268561D01*
X219183Y268525D01*
X219191Y268493D01*
X219191Y268488D01*
X219191Y268486D01*
X219191Y268485D01*
X219192Y268447D01*
X220031Y264126D01*
X220043Y264097D01*
X220051Y264055D01*
X221520Y259905D01*
X221536Y259878D01*
X221550Y259838D01*
X223616Y255951D01*
X223636Y255927D01*
X223655Y255889D01*
X226273Y252350D01*
X226297Y252329D01*
X226322Y252294D01*
X229434Y249182D01*
X229449Y249172D01*
X229457Y249161D01*
X229472Y249152D01*
X229490Y249133D01*
X233029Y246515D01*
X233057Y246502D01*
X233091Y246476D01*
X236978Y244410D01*
X237008Y244401D01*
X237045Y244380D01*
X241195Y242911D01*
X241226Y242906D01*
X241266Y242891D01*
X245587Y242052D01*
X245643Y242052D01*
X245699Y242043D01*
X245741Y242053D01*
G37*
G36*
X808859Y179569D02*
X808859Y179569D01*
X808904Y179570D01*
X808955Y179592D01*
X809010Y179605D01*
X809046Y179631D01*
X809086Y179649D01*
X809125Y179690D01*
X809170Y179723D01*
X809193Y179761D01*
X809223Y179793D01*
X809243Y179846D01*
X809272Y179894D01*
X809280Y179945D01*
X809293Y179979D01*
X809292Y180013D01*
X809299Y180058D01*
X809299Y191058D01*
X809289Y191111D01*
X809288Y191164D01*
X809269Y191207D01*
X809260Y191253D01*
X809229Y191297D01*
X809208Y191346D01*
X809174Y191378D01*
X809147Y191417D01*
X809102Y191446D01*
X809063Y191482D01*
X809012Y191503D01*
X808980Y191524D01*
X808948Y191529D01*
X808909Y191545D01*
X806174Y192156D01*
X803610Y193184D01*
X801246Y194611D01*
X799142Y196400D01*
X797353Y198504D01*
X795926Y200868D01*
X794898Y203432D01*
X794287Y206167D01*
X794265Y206216D01*
X794253Y206268D01*
X794225Y206306D01*
X794206Y206348D01*
X794167Y206385D01*
X794135Y206428D01*
X794095Y206452D01*
X794061Y206484D01*
X794010Y206502D01*
X793964Y206530D01*
X793910Y206539D01*
X793874Y206552D01*
X793842Y206550D01*
X793800Y206557D01*
X782800Y206557D01*
X782745Y206546D01*
X782689Y206545D01*
X782648Y206526D01*
X782605Y206518D01*
X782559Y206486D01*
X782508Y206463D01*
X782478Y206430D01*
X782441Y206405D01*
X782411Y206358D01*
X782373Y206316D01*
X782358Y206275D01*
X782334Y206238D01*
X782325Y206182D01*
X782306Y206129D01*
X782307Y206077D01*
X782301Y206041D01*
X782309Y206009D01*
X782309Y206004D01*
X782309Y206002D01*
X782309Y206001D01*
X782310Y205963D01*
X783149Y201642D01*
X783161Y201613D01*
X783169Y201571D01*
X784638Y197421D01*
X784654Y197394D01*
X784668Y197354D01*
X786734Y193467D01*
X786754Y193443D01*
X786773Y193405D01*
X789391Y189866D01*
X789415Y189845D01*
X789440Y189810D01*
X792552Y186698D01*
X792567Y186688D01*
X792575Y186677D01*
X792590Y186668D01*
X792608Y186649D01*
X796147Y184031D01*
X796175Y184018D01*
X796209Y183992D01*
X800096Y181926D01*
X800126Y181917D01*
X800163Y181896D01*
X804313Y180427D01*
X804344Y180422D01*
X804384Y180407D01*
X808705Y179568D01*
X808761Y179568D01*
X808817Y179559D01*
X808859Y179569D01*
G37*
G36*
X427859Y179315D02*
X427859Y179315D01*
X427904Y179316D01*
X427955Y179338D01*
X428010Y179351D01*
X428046Y179377D01*
X428086Y179395D01*
X428125Y179436D01*
X428170Y179469D01*
X428193Y179507D01*
X428223Y179539D01*
X428243Y179592D01*
X428272Y179640D01*
X428280Y179691D01*
X428293Y179725D01*
X428292Y179759D01*
X428299Y179804D01*
X428299Y190804D01*
X428289Y190857D01*
X428288Y190910D01*
X428269Y190953D01*
X428260Y190999D01*
X428229Y191043D01*
X428208Y191092D01*
X428174Y191124D01*
X428147Y191163D01*
X428102Y191192D01*
X428063Y191228D01*
X428012Y191249D01*
X427980Y191270D01*
X427948Y191275D01*
X427909Y191291D01*
X425174Y191902D01*
X422610Y192930D01*
X420246Y194357D01*
X418142Y196146D01*
X416353Y198250D01*
X414926Y200614D01*
X413898Y203178D01*
X413287Y205913D01*
X413265Y205962D01*
X413253Y206014D01*
X413225Y206052D01*
X413206Y206094D01*
X413167Y206131D01*
X413135Y206174D01*
X413095Y206198D01*
X413061Y206230D01*
X413010Y206248D01*
X412964Y206276D01*
X412910Y206285D01*
X412874Y206298D01*
X412842Y206296D01*
X412800Y206303D01*
X401800Y206303D01*
X401745Y206292D01*
X401689Y206291D01*
X401648Y206272D01*
X401605Y206264D01*
X401559Y206232D01*
X401508Y206209D01*
X401478Y206176D01*
X401441Y206151D01*
X401411Y206104D01*
X401373Y206062D01*
X401358Y206021D01*
X401334Y205984D01*
X401325Y205928D01*
X401306Y205875D01*
X401307Y205823D01*
X401301Y205787D01*
X401309Y205755D01*
X401309Y205750D01*
X401309Y205748D01*
X401309Y205747D01*
X401310Y205709D01*
X402149Y201388D01*
X402161Y201359D01*
X402169Y201317D01*
X403638Y197167D01*
X403654Y197140D01*
X403668Y197100D01*
X405734Y193213D01*
X405754Y193189D01*
X405773Y193151D01*
X408391Y189612D01*
X408415Y189591D01*
X408440Y189556D01*
X411552Y186444D01*
X411567Y186434D01*
X411575Y186423D01*
X411590Y186414D01*
X411608Y186395D01*
X415147Y183777D01*
X415175Y183764D01*
X415209Y183738D01*
X419096Y181672D01*
X419126Y181663D01*
X419163Y181642D01*
X423313Y180173D01*
X423344Y180168D01*
X423384Y180153D01*
X427705Y179314D01*
X427761Y179314D01*
X427817Y179305D01*
X427859Y179315D01*
G37*
G36*
X230735Y276053D02*
X230735Y276053D01*
X230788Y276054D01*
X230831Y276073D01*
X230877Y276082D01*
X230921Y276113D01*
X230970Y276134D01*
X231002Y276168D01*
X231041Y276195D01*
X231070Y276240D01*
X231106Y276279D01*
X231127Y276330D01*
X231148Y276362D01*
X231153Y276394D01*
X231169Y276433D01*
X231780Y279168D01*
X232808Y281732D01*
X234235Y284096D01*
X236024Y286200D01*
X238128Y287989D01*
X240492Y289416D01*
X243056Y290444D01*
X245791Y291055D01*
X245840Y291077D01*
X245892Y291089D01*
X245930Y291117D01*
X245972Y291136D01*
X246009Y291175D01*
X246052Y291207D01*
X246076Y291247D01*
X246108Y291281D01*
X246126Y291332D01*
X246154Y291378D01*
X246163Y291432D01*
X246176Y291468D01*
X246174Y291500D01*
X246181Y291542D01*
X246181Y302542D01*
X246170Y302597D01*
X246169Y302653D01*
X246150Y302694D01*
X246142Y302737D01*
X246110Y302783D01*
X246087Y302835D01*
X246054Y302864D01*
X246029Y302901D01*
X245982Y302931D01*
X245940Y302969D01*
X245899Y302984D01*
X245862Y303008D01*
X245806Y303017D01*
X245753Y303036D01*
X245701Y303035D01*
X245665Y303041D01*
X245633Y303033D01*
X245587Y303032D01*
X241266Y302193D01*
X241237Y302181D01*
X241195Y302173D01*
X237045Y300704D01*
X237018Y300688D01*
X236978Y300674D01*
X233091Y298608D01*
X233067Y298588D01*
X233029Y298569D01*
X229490Y295951D01*
X229469Y295927D01*
X229434Y295902D01*
X226322Y292790D01*
X226304Y292764D01*
X226273Y292734D01*
X223655Y289196D01*
X223642Y289167D01*
X223616Y289133D01*
X221550Y285246D01*
X221543Y285223D01*
X221534Y285209D01*
X221533Y285201D01*
X221520Y285179D01*
X220051Y281029D01*
X220046Y280998D01*
X220031Y280958D01*
X219192Y276637D01*
X219192Y276581D01*
X219183Y276525D01*
X219193Y276483D01*
X219194Y276438D01*
X219216Y276387D01*
X219229Y276332D01*
X219255Y276297D01*
X219273Y276256D01*
X219314Y276217D01*
X219347Y276172D01*
X219385Y276149D01*
X219417Y276119D01*
X219470Y276099D01*
X219518Y276070D01*
X219569Y276062D01*
X219603Y276049D01*
X219637Y276050D01*
X219682Y276043D01*
X230682Y276043D01*
X230735Y276053D01*
G37*
G36*
X793853Y213569D02*
X793853Y213569D01*
X793906Y213570D01*
X793949Y213589D01*
X793995Y213598D01*
X794039Y213629D01*
X794088Y213650D01*
X794120Y213684D01*
X794159Y213711D01*
X794188Y213756D01*
X794224Y213795D01*
X794245Y213846D01*
X794266Y213878D01*
X794271Y213910D01*
X794287Y213949D01*
X794898Y216684D01*
X795926Y219248D01*
X797353Y221612D01*
X799142Y223716D01*
X801246Y225505D01*
X803610Y226932D01*
X806174Y227960D01*
X808909Y228571D01*
X808958Y228593D01*
X809010Y228605D01*
X809048Y228633D01*
X809090Y228652D01*
X809127Y228691D01*
X809170Y228723D01*
X809194Y228763D01*
X809226Y228797D01*
X809244Y228848D01*
X809272Y228894D01*
X809281Y228948D01*
X809294Y228984D01*
X809292Y229016D01*
X809299Y229058D01*
X809299Y240058D01*
X809288Y240113D01*
X809287Y240169D01*
X809268Y240210D01*
X809260Y240253D01*
X809228Y240299D01*
X809205Y240351D01*
X809172Y240380D01*
X809147Y240417D01*
X809100Y240447D01*
X809058Y240485D01*
X809017Y240500D01*
X808980Y240524D01*
X808924Y240533D01*
X808871Y240552D01*
X808819Y240551D01*
X808783Y240557D01*
X808751Y240549D01*
X808705Y240548D01*
X804384Y239709D01*
X804355Y239697D01*
X804313Y239689D01*
X800163Y238220D01*
X800136Y238204D01*
X800096Y238190D01*
X796209Y236124D01*
X796185Y236104D01*
X796147Y236085D01*
X792608Y233467D01*
X792587Y233443D01*
X792552Y233418D01*
X789440Y230306D01*
X789422Y230280D01*
X789391Y230250D01*
X786773Y226712D01*
X786760Y226683D01*
X786734Y226649D01*
X784668Y222762D01*
X784661Y222739D01*
X784652Y222725D01*
X784651Y222717D01*
X784638Y222695D01*
X783169Y218545D01*
X783164Y218514D01*
X783149Y218474D01*
X782310Y214153D01*
X782310Y214097D01*
X782301Y214041D01*
X782311Y213999D01*
X782312Y213954D01*
X782334Y213903D01*
X782347Y213848D01*
X782373Y213813D01*
X782391Y213772D01*
X782432Y213733D01*
X782465Y213688D01*
X782503Y213665D01*
X782535Y213635D01*
X782588Y213615D01*
X782636Y213586D01*
X782687Y213578D01*
X782721Y213565D01*
X782755Y213566D01*
X782800Y213559D01*
X793800Y213559D01*
X793853Y213569D01*
G37*
G36*
X412853Y213315D02*
X412853Y213315D01*
X412906Y213316D01*
X412949Y213335D01*
X412995Y213344D01*
X413039Y213375D01*
X413088Y213396D01*
X413120Y213430D01*
X413159Y213457D01*
X413188Y213502D01*
X413224Y213541D01*
X413245Y213592D01*
X413266Y213624D01*
X413271Y213656D01*
X413287Y213695D01*
X413898Y216430D01*
X414926Y218994D01*
X416353Y221358D01*
X418142Y223462D01*
X420246Y225251D01*
X422610Y226678D01*
X425174Y227706D01*
X427909Y228317D01*
X427958Y228339D01*
X428010Y228351D01*
X428048Y228379D01*
X428090Y228398D01*
X428127Y228437D01*
X428170Y228469D01*
X428194Y228509D01*
X428226Y228543D01*
X428244Y228594D01*
X428272Y228640D01*
X428281Y228694D01*
X428294Y228730D01*
X428292Y228762D01*
X428299Y228804D01*
X428299Y239804D01*
X428288Y239859D01*
X428287Y239915D01*
X428268Y239956D01*
X428260Y239999D01*
X428228Y240045D01*
X428205Y240097D01*
X428172Y240126D01*
X428147Y240163D01*
X428100Y240193D01*
X428058Y240231D01*
X428017Y240246D01*
X427980Y240270D01*
X427924Y240279D01*
X427871Y240298D01*
X427819Y240297D01*
X427783Y240303D01*
X427751Y240295D01*
X427705Y240294D01*
X423384Y239455D01*
X423355Y239443D01*
X423313Y239435D01*
X419163Y237966D01*
X419136Y237950D01*
X419096Y237936D01*
X415209Y235870D01*
X415185Y235850D01*
X415147Y235831D01*
X411608Y233213D01*
X411587Y233189D01*
X411552Y233164D01*
X408440Y230052D01*
X408422Y230026D01*
X408391Y229996D01*
X405773Y226458D01*
X405760Y226429D01*
X405734Y226395D01*
X403668Y222508D01*
X403661Y222485D01*
X403652Y222471D01*
X403651Y222463D01*
X403638Y222441D01*
X402169Y218291D01*
X402164Y218260D01*
X402149Y218220D01*
X401310Y213899D01*
X401310Y213843D01*
X401301Y213787D01*
X401311Y213745D01*
X401312Y213700D01*
X401334Y213649D01*
X401347Y213594D01*
X401373Y213559D01*
X401391Y213518D01*
X401432Y213479D01*
X401465Y213434D01*
X401503Y213411D01*
X401535Y213381D01*
X401588Y213361D01*
X401636Y213332D01*
X401687Y213324D01*
X401721Y213311D01*
X401755Y213312D01*
X401800Y213305D01*
X412800Y213305D01*
X412853Y213315D01*
G37*
G36*
X279737Y276054D02*
X279737Y276054D01*
X279793Y276055D01*
X279834Y276074D01*
X279877Y276082D01*
X279923Y276114D01*
X279975Y276137D01*
X280004Y276170D01*
X280041Y276195D01*
X280071Y276242D01*
X280109Y276284D01*
X280124Y276325D01*
X280148Y276362D01*
X280157Y276418D01*
X280176Y276471D01*
X280175Y276523D01*
X280181Y276559D01*
X280173Y276591D01*
X280172Y276637D01*
X279333Y280958D01*
X279321Y280987D01*
X279313Y281029D01*
X277844Y285179D01*
X277828Y285206D01*
X277819Y285233D01*
X277817Y285239D01*
X277816Y285241D01*
X277814Y285246D01*
X275748Y289133D01*
X275728Y289157D01*
X275709Y289196D01*
X273091Y292734D01*
X273067Y292755D01*
X273042Y292790D01*
X269930Y295902D01*
X269904Y295920D01*
X269874Y295951D01*
X266336Y298569D01*
X266307Y298582D01*
X266273Y298608D01*
X262386Y300674D01*
X262356Y300683D01*
X262319Y300704D01*
X258169Y302173D01*
X258138Y302178D01*
X258098Y302193D01*
X253777Y303032D01*
X253721Y303032D01*
X253665Y303041D01*
X253623Y303031D01*
X253578Y303030D01*
X253527Y303008D01*
X253472Y302995D01*
X253437Y302969D01*
X253396Y302951D01*
X253357Y302910D01*
X253312Y302877D01*
X253289Y302839D01*
X253259Y302807D01*
X253239Y302754D01*
X253210Y302706D01*
X253202Y302655D01*
X253189Y302621D01*
X253190Y302587D01*
X253183Y302542D01*
X253183Y291542D01*
X253193Y291489D01*
X253194Y291436D01*
X253213Y291393D01*
X253222Y291347D01*
X253253Y291303D01*
X253274Y291254D01*
X253308Y291222D01*
X253335Y291183D01*
X253380Y291154D01*
X253419Y291118D01*
X253470Y291097D01*
X253502Y291076D01*
X253534Y291071D01*
X253573Y291055D01*
X256308Y290444D01*
X258872Y289416D01*
X261236Y287989D01*
X263340Y286200D01*
X265129Y284096D01*
X266556Y281732D01*
X267584Y279168D01*
X268195Y276433D01*
X268217Y276384D01*
X268229Y276332D01*
X268257Y276294D01*
X268276Y276252D01*
X268315Y276215D01*
X268347Y276172D01*
X268387Y276148D01*
X268421Y276116D01*
X268472Y276098D01*
X268518Y276070D01*
X268572Y276061D01*
X268608Y276048D01*
X268640Y276050D01*
X268682Y276043D01*
X279682Y276043D01*
X279737Y276054D01*
G37*
G36*
X842855Y213570D02*
X842855Y213570D01*
X842911Y213571D01*
X842952Y213590D01*
X842995Y213598D01*
X843041Y213630D01*
X843093Y213653D01*
X843122Y213686D01*
X843159Y213711D01*
X843189Y213758D01*
X843227Y213800D01*
X843242Y213841D01*
X843266Y213878D01*
X843275Y213934D01*
X843294Y213987D01*
X843293Y214039D01*
X843299Y214075D01*
X843291Y214107D01*
X843290Y214153D01*
X842451Y218474D01*
X842439Y218503D01*
X842431Y218545D01*
X840962Y222695D01*
X840946Y222722D01*
X840937Y222749D01*
X840935Y222755D01*
X840934Y222757D01*
X840932Y222762D01*
X838866Y226649D01*
X838846Y226673D01*
X838827Y226712D01*
X836209Y230250D01*
X836185Y230271D01*
X836160Y230306D01*
X833048Y233418D01*
X833022Y233436D01*
X832992Y233467D01*
X829454Y236085D01*
X829425Y236098D01*
X829391Y236124D01*
X825504Y238190D01*
X825474Y238199D01*
X825437Y238220D01*
X821287Y239689D01*
X821256Y239694D01*
X821216Y239709D01*
X816895Y240548D01*
X816839Y240548D01*
X816783Y240557D01*
X816741Y240547D01*
X816696Y240546D01*
X816645Y240524D01*
X816590Y240511D01*
X816555Y240485D01*
X816514Y240467D01*
X816475Y240426D01*
X816430Y240393D01*
X816407Y240355D01*
X816377Y240323D01*
X816357Y240270D01*
X816328Y240222D01*
X816320Y240171D01*
X816307Y240137D01*
X816308Y240103D01*
X816301Y240058D01*
X816301Y229058D01*
X816311Y229005D01*
X816312Y228952D01*
X816331Y228909D01*
X816340Y228863D01*
X816371Y228819D01*
X816392Y228770D01*
X816426Y228738D01*
X816453Y228699D01*
X816498Y228670D01*
X816537Y228634D01*
X816588Y228613D01*
X816620Y228592D01*
X816652Y228587D01*
X816691Y228571D01*
X819426Y227960D01*
X821990Y226932D01*
X824354Y225505D01*
X826458Y223716D01*
X828247Y221612D01*
X829674Y219248D01*
X830702Y216684D01*
X831313Y213949D01*
X831335Y213900D01*
X831347Y213848D01*
X831375Y213810D01*
X831394Y213768D01*
X831433Y213731D01*
X831465Y213688D01*
X831505Y213664D01*
X831539Y213632D01*
X831590Y213614D01*
X831636Y213586D01*
X831690Y213577D01*
X831726Y213564D01*
X831758Y213566D01*
X831800Y213559D01*
X842800Y213559D01*
X842855Y213570D01*
G37*
G36*
X461855Y213316D02*
X461855Y213316D01*
X461911Y213317D01*
X461952Y213336D01*
X461995Y213344D01*
X462041Y213376D01*
X462093Y213399D01*
X462122Y213432D01*
X462159Y213457D01*
X462189Y213504D01*
X462227Y213546D01*
X462242Y213587D01*
X462266Y213624D01*
X462275Y213680D01*
X462294Y213733D01*
X462293Y213785D01*
X462299Y213821D01*
X462291Y213853D01*
X462290Y213899D01*
X461451Y218220D01*
X461439Y218249D01*
X461431Y218291D01*
X459962Y222441D01*
X459946Y222468D01*
X459937Y222495D01*
X459935Y222501D01*
X459934Y222503D01*
X459932Y222508D01*
X457866Y226395D01*
X457846Y226419D01*
X457827Y226458D01*
X455209Y229996D01*
X455185Y230017D01*
X455160Y230052D01*
X452048Y233164D01*
X452022Y233182D01*
X451992Y233213D01*
X448454Y235831D01*
X448425Y235844D01*
X448391Y235870D01*
X444504Y237936D01*
X444474Y237945D01*
X444437Y237966D01*
X440287Y239435D01*
X440256Y239440D01*
X440216Y239455D01*
X435895Y240294D01*
X435839Y240294D01*
X435783Y240303D01*
X435741Y240293D01*
X435696Y240292D01*
X435645Y240270D01*
X435590Y240257D01*
X435555Y240231D01*
X435514Y240213D01*
X435475Y240172D01*
X435430Y240139D01*
X435407Y240101D01*
X435377Y240069D01*
X435357Y240016D01*
X435328Y239968D01*
X435320Y239917D01*
X435307Y239883D01*
X435308Y239849D01*
X435301Y239804D01*
X435301Y228804D01*
X435311Y228751D01*
X435312Y228698D01*
X435331Y228655D01*
X435340Y228609D01*
X435371Y228565D01*
X435392Y228516D01*
X435426Y228484D01*
X435453Y228445D01*
X435498Y228416D01*
X435537Y228380D01*
X435588Y228359D01*
X435620Y228338D01*
X435652Y228333D01*
X435691Y228317D01*
X438426Y227706D01*
X440990Y226678D01*
X443354Y225251D01*
X445458Y223462D01*
X447247Y221358D01*
X448674Y218994D01*
X449702Y216430D01*
X450313Y213695D01*
X450335Y213646D01*
X450347Y213594D01*
X450375Y213556D01*
X450394Y213514D01*
X450433Y213477D01*
X450465Y213434D01*
X450505Y213410D01*
X450539Y213378D01*
X450590Y213360D01*
X450636Y213332D01*
X450690Y213323D01*
X450726Y213310D01*
X450758Y213312D01*
X450800Y213305D01*
X461800Y213305D01*
X461855Y213316D01*
G37*
G36*
X253731Y242051D02*
X253731Y242051D01*
X253777Y242052D01*
X258098Y242891D01*
X258127Y242903D01*
X258169Y242911D01*
X262319Y244380D01*
X262346Y244396D01*
X262386Y244410D01*
X266273Y246476D01*
X266297Y246496D01*
X266336Y246515D01*
X269874Y249133D01*
X269895Y249157D01*
X269930Y249182D01*
X273042Y252294D01*
X273060Y252321D01*
X273091Y252350D01*
X275709Y255889D01*
X275722Y255917D01*
X275748Y255951D01*
X277814Y259838D01*
X277823Y259868D01*
X277844Y259905D01*
X279313Y264055D01*
X279318Y264086D01*
X279333Y264126D01*
X280172Y268447D01*
X280172Y268503D01*
X280181Y268559D01*
X280171Y268601D01*
X280170Y268646D01*
X280148Y268697D01*
X280135Y268752D01*
X280109Y268788D01*
X280091Y268828D01*
X280050Y268867D01*
X280017Y268912D01*
X279979Y268935D01*
X279947Y268965D01*
X279894Y268985D01*
X279846Y269014D01*
X279795Y269022D01*
X279761Y269035D01*
X279727Y269034D01*
X279682Y269041D01*
X268682Y269041D01*
X268629Y269031D01*
X268576Y269030D01*
X268533Y269011D01*
X268487Y269002D01*
X268443Y268971D01*
X268394Y268950D01*
X268362Y268916D01*
X268323Y268889D01*
X268294Y268844D01*
X268258Y268805D01*
X268237Y268754D01*
X268216Y268722D01*
X268211Y268690D01*
X268208Y268684D01*
X268207Y268683D01*
X268207Y268682D01*
X268195Y268651D01*
X267584Y265916D01*
X266556Y263352D01*
X265129Y260988D01*
X263340Y258884D01*
X261236Y257095D01*
X258872Y255668D01*
X256308Y254640D01*
X253573Y254029D01*
X253524Y254007D01*
X253472Y253995D01*
X253434Y253967D01*
X253392Y253948D01*
X253355Y253909D01*
X253312Y253877D01*
X253288Y253837D01*
X253256Y253803D01*
X253238Y253752D01*
X253210Y253706D01*
X253201Y253652D01*
X253188Y253616D01*
X253190Y253584D01*
X253183Y253542D01*
X253183Y242542D01*
X253194Y242487D01*
X253195Y242431D01*
X253214Y242390D01*
X253222Y242347D01*
X253254Y242301D01*
X253277Y242250D01*
X253310Y242220D01*
X253335Y242183D01*
X253382Y242153D01*
X253424Y242115D01*
X253465Y242100D01*
X253502Y242076D01*
X253558Y242067D01*
X253611Y242048D01*
X253663Y242049D01*
X253699Y242043D01*
X253731Y242051D01*
G37*
G36*
X816849Y179567D02*
X816849Y179567D01*
X816895Y179568D01*
X821216Y180407D01*
X821245Y180419D01*
X821287Y180427D01*
X825437Y181896D01*
X825464Y181912D01*
X825504Y181926D01*
X829391Y183992D01*
X829415Y184012D01*
X829454Y184031D01*
X832992Y186649D01*
X833013Y186673D01*
X833048Y186698D01*
X836160Y189810D01*
X836178Y189837D01*
X836209Y189866D01*
X838827Y193405D01*
X838840Y193433D01*
X838866Y193467D01*
X840932Y197354D01*
X840941Y197384D01*
X840962Y197421D01*
X842431Y201571D01*
X842436Y201602D01*
X842451Y201642D01*
X843290Y205963D01*
X843290Y206019D01*
X843299Y206075D01*
X843289Y206117D01*
X843288Y206162D01*
X843266Y206213D01*
X843253Y206268D01*
X843227Y206304D01*
X843209Y206344D01*
X843168Y206383D01*
X843135Y206428D01*
X843097Y206451D01*
X843065Y206481D01*
X843012Y206501D01*
X842964Y206530D01*
X842913Y206538D01*
X842879Y206551D01*
X842845Y206550D01*
X842800Y206557D01*
X831800Y206557D01*
X831747Y206547D01*
X831694Y206546D01*
X831651Y206527D01*
X831605Y206518D01*
X831561Y206487D01*
X831512Y206466D01*
X831480Y206432D01*
X831441Y206405D01*
X831412Y206360D01*
X831376Y206321D01*
X831355Y206270D01*
X831334Y206238D01*
X831329Y206206D01*
X831326Y206200D01*
X831325Y206199D01*
X831325Y206198D01*
X831313Y206167D01*
X830702Y203432D01*
X829674Y200868D01*
X828247Y198504D01*
X826458Y196400D01*
X824354Y194611D01*
X821990Y193184D01*
X819426Y192156D01*
X816691Y191545D01*
X816642Y191523D01*
X816590Y191511D01*
X816552Y191483D01*
X816510Y191464D01*
X816473Y191425D01*
X816430Y191393D01*
X816406Y191353D01*
X816374Y191319D01*
X816356Y191268D01*
X816328Y191222D01*
X816319Y191168D01*
X816306Y191132D01*
X816308Y191100D01*
X816301Y191058D01*
X816301Y180058D01*
X816312Y180003D01*
X816313Y179947D01*
X816332Y179906D01*
X816340Y179863D01*
X816372Y179817D01*
X816395Y179766D01*
X816428Y179736D01*
X816453Y179699D01*
X816500Y179669D01*
X816542Y179631D01*
X816583Y179616D01*
X816620Y179592D01*
X816676Y179583D01*
X816729Y179564D01*
X816781Y179565D01*
X816817Y179559D01*
X816849Y179567D01*
G37*
G36*
X435849Y179313D02*
X435849Y179313D01*
X435895Y179314D01*
X440216Y180153D01*
X440245Y180165D01*
X440287Y180173D01*
X444437Y181642D01*
X444464Y181658D01*
X444504Y181672D01*
X448391Y183738D01*
X448415Y183758D01*
X448454Y183777D01*
X451992Y186395D01*
X452013Y186419D01*
X452048Y186444D01*
X455160Y189556D01*
X455178Y189583D01*
X455209Y189612D01*
X457827Y193151D01*
X457840Y193179D01*
X457866Y193213D01*
X459932Y197100D01*
X459941Y197130D01*
X459962Y197167D01*
X461431Y201317D01*
X461436Y201348D01*
X461451Y201388D01*
X462290Y205709D01*
X462290Y205765D01*
X462299Y205821D01*
X462289Y205863D01*
X462288Y205908D01*
X462266Y205959D01*
X462253Y206014D01*
X462227Y206050D01*
X462209Y206090D01*
X462168Y206129D01*
X462135Y206174D01*
X462097Y206197D01*
X462065Y206227D01*
X462012Y206247D01*
X461964Y206276D01*
X461913Y206284D01*
X461879Y206297D01*
X461845Y206296D01*
X461800Y206303D01*
X450800Y206303D01*
X450747Y206293D01*
X450694Y206292D01*
X450651Y206273D01*
X450605Y206264D01*
X450561Y206233D01*
X450512Y206212D01*
X450480Y206178D01*
X450441Y206151D01*
X450412Y206106D01*
X450376Y206067D01*
X450355Y206016D01*
X450334Y205984D01*
X450329Y205952D01*
X450326Y205946D01*
X450325Y205945D01*
X450325Y205944D01*
X450313Y205913D01*
X449702Y203178D01*
X448674Y200614D01*
X447247Y198250D01*
X445458Y196146D01*
X443354Y194357D01*
X440990Y192930D01*
X438426Y191902D01*
X435691Y191291D01*
X435642Y191269D01*
X435590Y191257D01*
X435552Y191229D01*
X435510Y191210D01*
X435473Y191171D01*
X435430Y191139D01*
X435406Y191099D01*
X435374Y191065D01*
X435356Y191014D01*
X435328Y190968D01*
X435319Y190914D01*
X435306Y190878D01*
X435308Y190846D01*
X435301Y190804D01*
X435301Y179804D01*
X435312Y179749D01*
X435313Y179693D01*
X435332Y179652D01*
X435340Y179609D01*
X435372Y179563D01*
X435395Y179512D01*
X435428Y179482D01*
X435453Y179445D01*
X435500Y179415D01*
X435542Y179377D01*
X435583Y179362D01*
X435620Y179338D01*
X435676Y179329D01*
X435729Y179310D01*
X435781Y179311D01*
X435817Y179305D01*
X435849Y179313D01*
G37*
G36*
X144600Y44459D02*
X144600Y44459D01*
X144601Y44459D01*
X145669Y44478D01*
X145676Y44483D01*
X145680Y44479D01*
X146717Y44735D01*
X146722Y44742D01*
X146728Y44739D01*
X147682Y45220D01*
X147686Y45227D01*
X147691Y45226D01*
X148515Y45907D01*
X148516Y45915D01*
X148522Y45915D01*
X149173Y46762D01*
X149173Y46770D01*
X149179Y46771D01*
X149626Y47742D01*
X149624Y47750D01*
X149629Y47752D01*
X149848Y48798D01*
X149845Y48805D01*
X149849Y48808D01*
X149849Y60808D01*
X149846Y60813D01*
X149849Y60816D01*
X149669Y61911D01*
X149663Y61917D01*
X149666Y61922D01*
X149247Y62950D01*
X149240Y62954D01*
X149242Y62959D01*
X148605Y63868D01*
X148597Y63871D01*
X148597Y63876D01*
X147774Y64620D01*
X147766Y64621D01*
X147765Y64627D01*
X146797Y65169D01*
X146788Y65168D01*
X146786Y65174D01*
X145722Y65487D01*
X145717Y65485D01*
X145713Y65485D01*
X145711Y65489D01*
X144603Y65557D01*
X144597Y65553D01*
X144593Y65557D01*
X143485Y65387D01*
X143479Y65381D01*
X143474Y65384D01*
X142432Y64972D01*
X142428Y64965D01*
X142423Y64967D01*
X141498Y64333D01*
X141496Y64325D01*
X141490Y64326D01*
X140730Y63503D01*
X140729Y63494D01*
X140723Y63494D01*
X140166Y62522D01*
X140167Y62514D01*
X140161Y62512D01*
X139834Y61440D01*
X139837Y61432D01*
X139832Y61429D01*
X139751Y60312D01*
X139752Y60309D01*
X139751Y60308D01*
X139751Y48308D01*
X139756Y48301D01*
X139752Y48297D01*
X139971Y47353D01*
X139977Y47347D01*
X139975Y47342D01*
X140399Y46470D01*
X140406Y46467D01*
X140404Y46461D01*
X141011Y45705D01*
X141019Y45703D01*
X141019Y45697D01*
X141779Y45096D01*
X141788Y45096D01*
X141789Y45090D01*
X142664Y44672D01*
X142672Y44674D01*
X142674Y44669D01*
X143620Y44457D01*
X143627Y44460D01*
X143631Y44455D01*
X144600Y44459D01*
G37*
G36*
X59181Y44468D02*
X59181Y44468D01*
X59188Y44473D01*
X59192Y44469D01*
X60244Y44719D01*
X60249Y44725D01*
X60254Y44722D01*
X61224Y45199D01*
X61227Y45207D01*
X61233Y45205D01*
X62072Y45886D01*
X62074Y45894D01*
X62080Y45894D01*
X62746Y46745D01*
X62747Y46753D01*
X62752Y46754D01*
X63213Y47731D01*
X63211Y47739D01*
X63217Y47742D01*
X63448Y48797D01*
X63445Y48805D01*
X63449Y48808D01*
X63449Y60808D01*
X63445Y60813D01*
X63449Y60816D01*
X63256Y61922D01*
X63250Y61927D01*
X63253Y61932D01*
X62820Y62967D01*
X62813Y62971D01*
X62815Y62976D01*
X62162Y63889D01*
X62154Y63891D01*
X62155Y63897D01*
X61316Y64641D01*
X61307Y64642D01*
X61307Y64647D01*
X60323Y65186D01*
X60315Y65185D01*
X60313Y65190D01*
X59234Y65497D01*
X59226Y65494D01*
X59223Y65499D01*
X58103Y65557D01*
X58098Y65554D01*
X58095Y65557D01*
X57049Y65439D01*
X57043Y65433D01*
X57038Y65437D01*
X56044Y65089D01*
X56040Y65082D01*
X56035Y65084D01*
X55143Y64524D01*
X55141Y64517D01*
X55135Y64517D01*
X54391Y63773D01*
X54389Y63765D01*
X54384Y63765D01*
X53824Y62873D01*
X53824Y62865D01*
X53819Y62864D01*
X53471Y61870D01*
X53474Y61862D01*
X53469Y61859D01*
X53351Y60814D01*
X53353Y60810D01*
X53351Y60808D01*
X53351Y48808D01*
X53354Y48803D01*
X53351Y48800D01*
X53509Y47804D01*
X53515Y47798D01*
X53512Y47793D01*
X53887Y46857D01*
X53894Y46853D01*
X53892Y46847D01*
X54466Y46018D01*
X54474Y46015D01*
X54473Y46010D01*
X55217Y45329D01*
X55226Y45328D01*
X55226Y45322D01*
X56103Y44824D01*
X56112Y44825D01*
X56114Y44820D01*
X57079Y44529D01*
X57087Y44532D01*
X57090Y44527D01*
X58097Y44459D01*
X58099Y44460D01*
X58100Y44459D01*
X59181Y44468D01*
G37*
G36*
X145104Y4963D02*
X145104Y4963D01*
X145107Y4959D01*
X146183Y5114D01*
X146188Y5120D01*
X146193Y5117D01*
X147207Y5507D01*
X147211Y5514D01*
X147217Y5513D01*
X148119Y6119D01*
X148121Y6127D01*
X148127Y6126D01*
X148871Y6918D01*
X148872Y6926D01*
X148878Y6926D01*
X149427Y7864D01*
X149426Y7872D01*
X149432Y7874D01*
X149759Y8910D01*
X149756Y8918D01*
X149761Y8921D01*
X149849Y10004D01*
X149847Y10007D01*
X149849Y10008D01*
X149849Y16008D01*
X149846Y16012D01*
X149849Y16014D01*
X149699Y17147D01*
X149693Y17153D01*
X149696Y17158D01*
X149298Y18228D01*
X149291Y18232D01*
X149293Y18238D01*
X148666Y19193D01*
X148658Y19196D01*
X148659Y19201D01*
X147836Y19993D01*
X147828Y19994D01*
X147827Y20000D01*
X146848Y20589D01*
X146840Y20588D01*
X146838Y20593D01*
X145753Y20949D01*
X145745Y20947D01*
X145742Y20951D01*
X144605Y21057D01*
X144596Y21052D01*
X144591Y21056D01*
X143454Y20849D01*
X143448Y20843D01*
X143443Y20846D01*
X142381Y20391D01*
X142377Y20384D01*
X142371Y20386D01*
X141436Y19706D01*
X141434Y19698D01*
X141428Y19699D01*
X140668Y18828D01*
X140668Y18820D01*
X140662Y18819D01*
X140115Y17800D01*
X140116Y17792D01*
X140111Y17790D01*
X140107Y17777D01*
X140094Y17728D01*
X140093Y17728D01*
X140094Y17728D01*
X140080Y17679D01*
X140066Y17629D01*
X140053Y17580D01*
X140039Y17531D01*
X140026Y17482D01*
X140012Y17432D01*
X139999Y17383D01*
X139985Y17334D01*
X139971Y17285D01*
X139958Y17235D01*
X139944Y17186D01*
X139931Y17137D01*
X139917Y17088D01*
X139904Y17038D01*
X139890Y16989D01*
X139877Y16940D01*
X139876Y16940D01*
X139863Y16891D01*
X139849Y16841D01*
X139804Y16676D01*
X139807Y16668D01*
X139802Y16665D01*
X139751Y15510D01*
X139752Y15509D01*
X139751Y15508D01*
X139751Y9508D01*
X139755Y9502D01*
X139752Y9499D01*
X139964Y8418D01*
X139970Y8413D01*
X139967Y8408D01*
X140414Y7402D01*
X140421Y7398D01*
X140419Y7392D01*
X141079Y6511D01*
X141087Y6508D01*
X141087Y6503D01*
X141926Y5790D01*
X141934Y5790D01*
X141935Y5784D01*
X142912Y5276D01*
X142920Y5277D01*
X142922Y5272D01*
X143987Y4994D01*
X143995Y4997D01*
X143998Y4993D01*
X145099Y4959D01*
X145104Y4963D01*
G37*
G36*
X58602Y4963D02*
X58602Y4963D01*
X58607Y4959D01*
X59694Y5104D01*
X59700Y5110D01*
X59705Y5107D01*
X60733Y5491D01*
X60738Y5497D01*
X60743Y5496D01*
X61660Y6098D01*
X61663Y6106D01*
X61669Y6105D01*
X62429Y6897D01*
X62430Y6905D01*
X62436Y6906D01*
X63000Y7847D01*
X63000Y7850D01*
X63001Y7851D01*
X63000Y7853D01*
X62999Y7855D01*
X63005Y7857D01*
X63346Y8900D01*
X63344Y8908D01*
X63348Y8911D01*
X63449Y10004D01*
X63447Y10006D01*
X63449Y10008D01*
X63449Y16008D01*
X63447Y16011D01*
X63449Y16013D01*
X63348Y17105D01*
X63343Y17111D01*
X63346Y17116D01*
X63005Y18159D01*
X62998Y18164D01*
X63000Y18169D01*
X62436Y19110D01*
X62428Y19113D01*
X62429Y19119D01*
X61669Y19911D01*
X61661Y19912D01*
X61660Y19918D01*
X60743Y20521D01*
X60735Y20520D01*
X60733Y20526D01*
X59705Y20909D01*
X59697Y20907D01*
X59694Y20912D01*
X58607Y21057D01*
X58599Y21053D01*
X58595Y21057D01*
X57458Y20951D01*
X57452Y20946D01*
X57447Y20949D01*
X56362Y20593D01*
X56357Y20586D01*
X56352Y20589D01*
X55373Y20000D01*
X55370Y19992D01*
X55364Y19993D01*
X54541Y19201D01*
X54540Y19193D01*
X54534Y19193D01*
X53907Y18238D01*
X53908Y18230D01*
X53902Y18228D01*
X53504Y17158D01*
X53506Y17150D01*
X53501Y17147D01*
X53351Y16014D01*
X53354Y16010D01*
X53351Y16008D01*
X53351Y10008D01*
X53354Y10004D01*
X53351Y10002D01*
X53501Y8869D01*
X53507Y8863D01*
X53504Y8858D01*
X53902Y7788D01*
X53909Y7784D01*
X53907Y7778D01*
X54534Y6823D01*
X54542Y6820D01*
X54541Y6815D01*
X55364Y6023D01*
X55372Y6022D01*
X55373Y6016D01*
X56352Y5427D01*
X56360Y5428D01*
X56362Y5423D01*
X57447Y5067D01*
X57455Y5070D01*
X57458Y5065D01*
X58595Y4959D01*
X58602Y4963D01*
G37*
D10*
X368710Y114810D02*
X363730Y114810D01*
X363730Y129290D01*
X368710Y129290D01*
X368710Y114810D01*
X368710Y115779D02*
X363730Y115779D01*
X363730Y116748D02*
X368710Y116748D01*
X368710Y117717D02*
X363730Y117717D01*
X363730Y118686D02*
X368710Y118686D01*
X368710Y119655D02*
X363730Y119655D01*
X363730Y120624D02*
X368710Y120624D01*
X368710Y121593D02*
X363730Y121593D01*
X363730Y122562D02*
X368710Y122562D01*
X368710Y123531D02*
X363730Y123531D01*
X363730Y124500D02*
X368710Y124500D01*
X368710Y125469D02*
X363730Y125469D01*
X363730Y126438D02*
X368710Y126438D01*
X368710Y127407D02*
X363730Y127407D01*
X363730Y128376D02*
X368710Y128376D01*
X373730Y114810D02*
X378710Y114810D01*
X373730Y114810D02*
X373730Y129290D01*
X378710Y129290D01*
X378710Y114810D01*
X378710Y115779D02*
X373730Y115779D01*
X373730Y116748D02*
X378710Y116748D01*
X378710Y117717D02*
X373730Y117717D01*
X373730Y118686D02*
X378710Y118686D01*
X378710Y119655D02*
X373730Y119655D01*
X373730Y120624D02*
X378710Y120624D01*
X378710Y121593D02*
X373730Y121593D01*
X373730Y122562D02*
X378710Y122562D01*
X378710Y123531D02*
X373730Y123531D01*
X373730Y124500D02*
X378710Y124500D01*
X378710Y125469D02*
X373730Y125469D01*
X373730Y126438D02*
X378710Y126438D01*
X378710Y127407D02*
X373730Y127407D01*
X373730Y128376D02*
X378710Y128376D01*
X383730Y114810D02*
X388710Y114810D01*
X383730Y114810D02*
X383730Y129290D01*
X388710Y129290D01*
X388710Y114810D01*
X388710Y115779D02*
X383730Y115779D01*
X383730Y116748D02*
X388710Y116748D01*
X388710Y117717D02*
X383730Y117717D01*
X383730Y118686D02*
X388710Y118686D01*
X388710Y119655D02*
X383730Y119655D01*
X383730Y120624D02*
X388710Y120624D01*
X388710Y121593D02*
X383730Y121593D01*
X383730Y122562D02*
X388710Y122562D01*
X388710Y123531D02*
X383730Y123531D01*
X383730Y124500D02*
X388710Y124500D01*
X388710Y125469D02*
X383730Y125469D01*
X383730Y126438D02*
X388710Y126438D01*
X388710Y127407D02*
X383730Y127407D01*
X383730Y128376D02*
X388710Y128376D01*
X393730Y114810D02*
X398710Y114810D01*
X393730Y114810D02*
X393730Y129290D01*
X398710Y129290D01*
X398710Y114810D01*
X398710Y115779D02*
X393730Y115779D01*
X393730Y116748D02*
X398710Y116748D01*
X398710Y117717D02*
X393730Y117717D01*
X393730Y118686D02*
X398710Y118686D01*
X398710Y119655D02*
X393730Y119655D01*
X393730Y120624D02*
X398710Y120624D01*
X398710Y121593D02*
X393730Y121593D01*
X393730Y122562D02*
X398710Y122562D01*
X398710Y123531D02*
X393730Y123531D01*
X393730Y124500D02*
X398710Y124500D01*
X398710Y125469D02*
X393730Y125469D01*
X393730Y126438D02*
X398710Y126438D01*
X398710Y127407D02*
X393730Y127407D01*
X393730Y128376D02*
X398710Y128376D01*
D11*
X358740Y136780D02*
X347700Y136780D01*
X347700Y155820D01*
X358740Y155820D01*
X358740Y136780D01*
X358740Y137692D02*
X347700Y137692D01*
X347700Y138604D02*
X358740Y138604D01*
X358740Y139516D02*
X347700Y139516D01*
X347700Y140428D02*
X358740Y140428D01*
X358740Y141340D02*
X347700Y141340D01*
X347700Y142252D02*
X358740Y142252D01*
X358740Y143164D02*
X347700Y143164D01*
X347700Y144076D02*
X358740Y144076D01*
X358740Y144988D02*
X347700Y144988D01*
X347700Y145900D02*
X358740Y145900D01*
X358740Y146812D02*
X347700Y146812D01*
X347700Y147724D02*
X358740Y147724D01*
X358740Y148636D02*
X347700Y148636D01*
X347700Y149548D02*
X358740Y149548D01*
X358740Y150460D02*
X347700Y150460D01*
X347700Y151372D02*
X358740Y151372D01*
X358740Y152284D02*
X347700Y152284D01*
X347700Y153196D02*
X358740Y153196D01*
X358740Y154108D02*
X347700Y154108D01*
X347700Y155020D02*
X358740Y155020D01*
X403700Y136780D02*
X414740Y136780D01*
X403700Y136780D02*
X403700Y155820D01*
X414740Y155820D01*
X414740Y136780D01*
X414740Y137692D02*
X403700Y137692D01*
X403700Y138604D02*
X414740Y138604D01*
X414740Y139516D02*
X403700Y139516D01*
X403700Y140428D02*
X414740Y140428D01*
X414740Y141340D02*
X403700Y141340D01*
X403700Y142252D02*
X414740Y142252D01*
X414740Y143164D02*
X403700Y143164D01*
X403700Y144076D02*
X414740Y144076D01*
X414740Y144988D02*
X403700Y144988D01*
X403700Y145900D02*
X414740Y145900D01*
X414740Y146812D02*
X403700Y146812D01*
X403700Y147724D02*
X414740Y147724D01*
X414740Y148636D02*
X403700Y148636D01*
X403700Y149548D02*
X414740Y149548D01*
X414740Y150460D02*
X403700Y150460D01*
X403700Y151372D02*
X414740Y151372D01*
X414740Y152284D02*
X403700Y152284D01*
X403700Y153196D02*
X414740Y153196D01*
X414740Y154108D02*
X403700Y154108D01*
X403700Y155020D02*
X414740Y155020D01*
X358520Y4530D02*
X347480Y4530D01*
X347480Y23570D01*
X358520Y23570D01*
X358520Y4530D01*
X358520Y5442D02*
X347480Y5442D01*
X347480Y6354D02*
X358520Y6354D01*
X358520Y7266D02*
X347480Y7266D01*
X347480Y8178D02*
X358520Y8178D01*
X358520Y9090D02*
X347480Y9090D01*
X347480Y10002D02*
X358520Y10002D01*
X358520Y10914D02*
X347480Y10914D01*
X347480Y11826D02*
X358520Y11826D01*
X358520Y12738D02*
X347480Y12738D01*
X347480Y13650D02*
X358520Y13650D01*
X358520Y14562D02*
X347480Y14562D01*
X347480Y15474D02*
X358520Y15474D01*
X358520Y16386D02*
X347480Y16386D01*
X347480Y17298D02*
X358520Y17298D01*
X358520Y18210D02*
X347480Y18210D01*
X347480Y19122D02*
X358520Y19122D01*
X358520Y20034D02*
X347480Y20034D01*
X347480Y20946D02*
X358520Y20946D01*
X358520Y21858D02*
X347480Y21858D01*
X347480Y22770D02*
X358520Y22770D01*
X403480Y4530D02*
X414520Y4530D01*
X403480Y4530D02*
X403480Y23570D01*
X414520Y23570D01*
X414520Y4530D01*
X414520Y5442D02*
X403480Y5442D01*
X403480Y6354D02*
X414520Y6354D01*
X414520Y7266D02*
X403480Y7266D01*
X403480Y8178D02*
X414520Y8178D01*
X414520Y9090D02*
X403480Y9090D01*
X403480Y10002D02*
X414520Y10002D01*
X414520Y10914D02*
X403480Y10914D01*
X403480Y11826D02*
X414520Y11826D01*
X414520Y12738D02*
X403480Y12738D01*
X403480Y13650D02*
X414520Y13650D01*
X414520Y14562D02*
X403480Y14562D01*
X403480Y15474D02*
X414520Y15474D01*
X414520Y16386D02*
X403480Y16386D01*
X403480Y17298D02*
X414520Y17298D01*
X414520Y18210D02*
X403480Y18210D01*
X403480Y19122D02*
X414520Y19122D01*
X414520Y20034D02*
X403480Y20034D01*
X403480Y20946D02*
X414520Y20946D01*
X414520Y21858D02*
X403480Y21858D01*
X403480Y22770D02*
X414520Y22770D01*
D10*
X368490Y44560D02*
X363510Y44560D01*
X363510Y57040D01*
X368490Y57040D01*
X368490Y44560D01*
X368490Y45529D02*
X363510Y45529D01*
X363510Y46498D02*
X368490Y46498D01*
X368490Y47467D02*
X363510Y47467D01*
X363510Y48436D02*
X368490Y48436D01*
X368490Y49405D02*
X363510Y49405D01*
X363510Y50374D02*
X368490Y50374D01*
X368490Y51343D02*
X363510Y51343D01*
X363510Y52312D02*
X368490Y52312D01*
X368490Y53281D02*
X363510Y53281D01*
X363510Y54250D02*
X368490Y54250D01*
X368490Y55219D02*
X363510Y55219D01*
X363510Y56188D02*
X368490Y56188D01*
X373510Y44560D02*
X378490Y44560D01*
X373510Y44560D02*
X373510Y57040D01*
X378490Y57040D01*
X378490Y44560D01*
X378490Y45529D02*
X373510Y45529D01*
X373510Y46498D02*
X378490Y46498D01*
X378490Y47467D02*
X373510Y47467D01*
X373510Y48436D02*
X378490Y48436D01*
X378490Y49405D02*
X373510Y49405D01*
X373510Y50374D02*
X378490Y50374D01*
X378490Y51343D02*
X373510Y51343D01*
X373510Y52312D02*
X378490Y52312D01*
X378490Y53281D02*
X373510Y53281D01*
X373510Y54250D02*
X378490Y54250D01*
X378490Y55219D02*
X373510Y55219D01*
X373510Y56188D02*
X378490Y56188D01*
X383510Y44560D02*
X388490Y44560D01*
X383510Y44560D02*
X383510Y57040D01*
X388490Y57040D01*
X388490Y44560D01*
X388490Y45529D02*
X383510Y45529D01*
X383510Y46498D02*
X388490Y46498D01*
X388490Y47467D02*
X383510Y47467D01*
X383510Y48436D02*
X388490Y48436D01*
X388490Y49405D02*
X383510Y49405D01*
X383510Y50374D02*
X388490Y50374D01*
X388490Y51343D02*
X383510Y51343D01*
X383510Y52312D02*
X388490Y52312D01*
X388490Y53281D02*
X383510Y53281D01*
X383510Y54250D02*
X388490Y54250D01*
X388490Y55219D02*
X383510Y55219D01*
X383510Y56188D02*
X388490Y56188D01*
X393510Y44560D02*
X398490Y44560D01*
X393510Y44560D02*
X393510Y57040D01*
X398490Y57040D01*
X398490Y44560D01*
X398490Y45529D02*
X393510Y45529D01*
X393510Y46498D02*
X398490Y46498D01*
X398490Y47467D02*
X393510Y47467D01*
X393510Y48436D02*
X398490Y48436D01*
X398490Y49405D02*
X393510Y49405D01*
X393510Y50374D02*
X398490Y50374D01*
X398490Y51343D02*
X393510Y51343D01*
X393510Y52312D02*
X398490Y52312D01*
X398490Y53281D02*
X393510Y53281D01*
X393510Y54250D02*
X398490Y54250D01*
X398490Y55219D02*
X393510Y55219D01*
X393510Y56188D02*
X398490Y56188D01*
D11*
X191580Y506710D02*
X180540Y506710D01*
X180540Y533250D01*
X191580Y533250D01*
X191580Y506710D01*
X191580Y507622D02*
X180540Y507622D01*
X180540Y508534D02*
X191580Y508534D01*
X191580Y509446D02*
X180540Y509446D01*
X180540Y510358D02*
X191580Y510358D01*
X191580Y511270D02*
X180540Y511270D01*
X180540Y512182D02*
X191580Y512182D01*
X191580Y513094D02*
X180540Y513094D01*
X180540Y514006D02*
X191580Y514006D01*
X191580Y514918D02*
X180540Y514918D01*
X180540Y515830D02*
X191580Y515830D01*
X191580Y516742D02*
X180540Y516742D01*
X180540Y517654D02*
X191580Y517654D01*
X191580Y518566D02*
X180540Y518566D01*
X180540Y519478D02*
X191580Y519478D01*
X191580Y520390D02*
X180540Y520390D01*
X180540Y521302D02*
X191580Y521302D01*
X191580Y522214D02*
X180540Y522214D01*
X180540Y523126D02*
X191580Y523126D01*
X191580Y524038D02*
X180540Y524038D01*
X180540Y524950D02*
X191580Y524950D01*
X191580Y525862D02*
X180540Y525862D01*
X180540Y526774D02*
X191580Y526774D01*
X191580Y527686D02*
X180540Y527686D01*
X180540Y528598D02*
X191580Y528598D01*
X191580Y529510D02*
X180540Y529510D01*
X180540Y530422D02*
X191580Y530422D01*
X191580Y531334D02*
X180540Y531334D01*
X180540Y532246D02*
X191580Y532246D01*
X191580Y533158D02*
X180540Y533158D01*
X387540Y506710D02*
X398580Y506710D01*
X387540Y506710D02*
X387540Y533250D01*
X398580Y533250D01*
X398580Y506710D01*
X398580Y507622D02*
X387540Y507622D01*
X387540Y508534D02*
X398580Y508534D01*
X398580Y509446D02*
X387540Y509446D01*
X387540Y510358D02*
X398580Y510358D01*
X398580Y511270D02*
X387540Y511270D01*
X387540Y512182D02*
X398580Y512182D01*
X398580Y513094D02*
X387540Y513094D01*
X387540Y514006D02*
X398580Y514006D01*
X398580Y514918D02*
X387540Y514918D01*
X387540Y515830D02*
X398580Y515830D01*
X398580Y516742D02*
X387540Y516742D01*
X387540Y517654D02*
X398580Y517654D01*
X398580Y518566D02*
X387540Y518566D01*
X387540Y519478D02*
X398580Y519478D01*
X398580Y520390D02*
X387540Y520390D01*
X387540Y521302D02*
X398580Y521302D01*
X398580Y522214D02*
X387540Y522214D01*
X387540Y523126D02*
X398580Y523126D01*
X398580Y524038D02*
X387540Y524038D01*
X387540Y524950D02*
X398580Y524950D01*
X398580Y525862D02*
X387540Y525862D01*
X387540Y526774D02*
X398580Y526774D01*
X398580Y527686D02*
X387540Y527686D01*
X387540Y528598D02*
X398580Y528598D01*
X398580Y529510D02*
X387540Y529510D01*
X387540Y530422D02*
X398580Y530422D01*
X398580Y531334D02*
X387540Y531334D01*
X387540Y532246D02*
X398580Y532246D01*
X398580Y533158D02*
X387540Y533158D01*
D12*
X379560Y452230D03*
X369560Y452230D03*
X364560Y452230D03*
X374560Y452230D03*
X359560Y452230D03*
X349560Y452230D03*
X344560Y452230D03*
X354560Y452230D03*
X339560Y452230D03*
X329560Y452230D03*
X324560Y452230D03*
X334560Y452230D03*
X319560Y452230D03*
X309560Y452230D03*
X304560Y452230D03*
X314560Y452230D03*
X299560Y452230D03*
X289560Y452230D03*
X284560Y452230D03*
X294560Y452230D03*
X279560Y452230D03*
X274560Y452230D03*
X249560Y452230D03*
X244560Y452230D03*
X239560Y452230D03*
X229560Y452230D03*
X224560Y452230D03*
X234560Y452230D03*
X219560Y452230D03*
X209560Y452230D03*
X204560Y452230D03*
X214560Y452230D03*
X199560Y452230D03*
X382060Y527730D03*
X372060Y527730D03*
X367060Y527730D03*
X377060Y527730D03*
X362060Y527730D03*
X352060Y527730D03*
X347060Y527730D03*
X357060Y527730D03*
X342060Y527730D03*
X332060Y527730D03*
X327060Y527730D03*
X337060Y527730D03*
X322060Y527730D03*
X312060Y527730D03*
X307060Y527730D03*
X317060Y527730D03*
X302060Y527730D03*
X292060Y527730D03*
X287060Y527730D03*
X297060Y527730D03*
X282060Y527730D03*
X277060Y527730D03*
X252060Y527730D03*
X247060Y527730D03*
X242060Y527730D03*
X232060Y527730D03*
X227060Y527730D03*
X237060Y527730D03*
X222060Y527730D03*
X212060Y527730D03*
X207060Y527730D03*
X217060Y527730D03*
X202060Y527730D03*
X197060Y527730D03*
D13*
X62725Y483375D02*
X62725Y476745D01*
X62725Y483375D02*
X76975Y483375D01*
X76975Y476745D01*
X62725Y476745D01*
X62725Y477686D02*
X76975Y477686D01*
X76975Y478627D02*
X62725Y478627D01*
X62725Y479568D02*
X76975Y479568D01*
X76975Y480509D02*
X62725Y480509D01*
X62725Y481450D02*
X76975Y481450D01*
X76975Y482391D02*
X62725Y482391D01*
X62725Y483332D02*
X76975Y483332D01*
X6845Y483375D02*
X6845Y476745D01*
X6845Y483375D02*
X21095Y483375D01*
X21095Y476745D01*
X6845Y476745D01*
X6845Y477686D02*
X21095Y477686D01*
X21095Y478627D02*
X6845Y478627D01*
X6845Y479568D02*
X21095Y479568D01*
X21095Y480509D02*
X6845Y480509D01*
X6845Y481450D02*
X21095Y481450D01*
X21095Y482391D02*
X6845Y482391D01*
X6845Y483332D02*
X21095Y483332D01*
X62725Y514845D02*
X62725Y521475D01*
X76975Y521475D01*
X76975Y514845D01*
X62725Y514845D01*
X62725Y515786D02*
X76975Y515786D01*
X76975Y516727D02*
X62725Y516727D01*
X62725Y517668D02*
X76975Y517668D01*
X76975Y518609D02*
X62725Y518609D01*
X62725Y519550D02*
X76975Y519550D01*
X76975Y520491D02*
X62725Y520491D01*
X62725Y521432D02*
X76975Y521432D01*
X6845Y521475D02*
X6845Y514845D01*
X6845Y521475D02*
X21095Y521475D01*
X21095Y514845D01*
X6845Y514845D01*
X6845Y515786D02*
X21095Y515786D01*
X21095Y516727D02*
X6845Y516727D01*
X6845Y517668D02*
X21095Y517668D01*
X21095Y518609D02*
X6845Y518609D01*
X6845Y519550D02*
X21095Y519550D01*
X21095Y520491D02*
X6845Y520491D01*
X6845Y521432D02*
X21095Y521432D01*
X62725Y416065D02*
X62725Y409435D01*
X62725Y416065D02*
X76975Y416065D01*
X76975Y409435D01*
X62725Y409435D01*
X62725Y410376D02*
X76975Y410376D01*
X76975Y411317D02*
X62725Y411317D01*
X62725Y412258D02*
X76975Y412258D01*
X76975Y413199D02*
X62725Y413199D01*
X62725Y414140D02*
X76975Y414140D01*
X76975Y415081D02*
X62725Y415081D01*
X62725Y416022D02*
X76975Y416022D01*
X6845Y416065D02*
X6845Y409435D01*
X6845Y416065D02*
X21095Y416065D01*
X21095Y409435D01*
X6845Y409435D01*
X6845Y410376D02*
X21095Y410376D01*
X21095Y411317D02*
X6845Y411317D01*
X6845Y412258D02*
X21095Y412258D01*
X21095Y413199D02*
X6845Y413199D01*
X6845Y414140D02*
X21095Y414140D01*
X21095Y415081D02*
X6845Y415081D01*
X6845Y416022D02*
X21095Y416022D01*
X62725Y447535D02*
X62725Y454165D01*
X76975Y454165D01*
X76975Y447535D01*
X62725Y447535D01*
X62725Y448476D02*
X76975Y448476D01*
X76975Y449417D02*
X62725Y449417D01*
X62725Y450358D02*
X76975Y450358D01*
X76975Y451299D02*
X62725Y451299D01*
X62725Y452240D02*
X76975Y452240D01*
X76975Y453181D02*
X62725Y453181D01*
X62725Y454122D02*
X76975Y454122D01*
X6845Y454165D02*
X6845Y447535D01*
X6845Y454165D02*
X21095Y454165D01*
X21095Y447535D01*
X6845Y447535D01*
X6845Y448476D02*
X21095Y448476D01*
X21095Y449417D02*
X6845Y449417D01*
X6845Y450358D02*
X21095Y450358D01*
X21095Y451299D02*
X6845Y451299D01*
X6845Y452240D02*
X21095Y452240D01*
X21095Y453181D02*
X6845Y453181D01*
X6845Y454122D02*
X21095Y454122D01*
D14*
X95720Y490292D02*
X105720Y490292D01*
X95720Y490292D02*
X95720Y499292D01*
X105720Y499292D01*
X105720Y490292D01*
X105720Y491242D02*
X95720Y491242D01*
X95720Y492192D02*
X105720Y492192D01*
X105720Y493142D02*
X95720Y493142D01*
X95720Y494092D02*
X105720Y494092D01*
X105720Y495042D02*
X95720Y495042D01*
X95720Y495992D02*
X105720Y495992D01*
X105720Y496942D02*
X95720Y496942D01*
X95720Y497892D02*
X105720Y497892D01*
X105720Y498842D02*
X95720Y498842D01*
X112720Y490292D02*
X122720Y490292D01*
X112720Y490292D02*
X112720Y499292D01*
X122720Y499292D01*
X122720Y490292D01*
X122720Y491242D02*
X112720Y491242D01*
X112720Y492192D02*
X122720Y492192D01*
X122720Y493142D02*
X112720Y493142D01*
X112720Y494092D02*
X122720Y494092D01*
X122720Y495042D02*
X112720Y495042D01*
X112720Y495992D02*
X122720Y495992D01*
X122720Y496942D02*
X112720Y496942D01*
X112720Y497892D02*
X122720Y497892D01*
X122720Y498842D02*
X112720Y498842D01*
X112720Y515548D02*
X122720Y515548D01*
X122720Y506548D01*
X112720Y506548D01*
X112720Y515548D01*
X112720Y507498D02*
X122720Y507498D01*
X122720Y508448D02*
X112720Y508448D01*
X112720Y509398D02*
X122720Y509398D01*
X122720Y510348D02*
X112720Y510348D01*
X112720Y511298D02*
X122720Y511298D01*
X122720Y512248D02*
X112720Y512248D01*
X112720Y513198D02*
X122720Y513198D01*
X122720Y514148D02*
X112720Y514148D01*
X112720Y515098D02*
X122720Y515098D01*
X105720Y515548D02*
X95720Y515548D01*
X105720Y515548D02*
X105720Y506548D01*
X95720Y506548D01*
X95720Y515548D01*
X95720Y507498D02*
X105720Y507498D01*
X105720Y508448D02*
X95720Y508448D01*
X95720Y509398D02*
X105720Y509398D01*
X105720Y510348D02*
X95720Y510348D01*
X95720Y511298D02*
X105720Y511298D01*
X105720Y512248D02*
X95720Y512248D01*
X95720Y513198D02*
X105720Y513198D01*
X105720Y514148D02*
X95720Y514148D01*
X95720Y515098D02*
X105720Y515098D01*
D11*
X513280Y664190D02*
X524320Y664190D01*
X513280Y664190D02*
X513280Y690730D01*
X524320Y690730D01*
X524320Y664190D01*
X524320Y665102D02*
X513280Y665102D01*
X513280Y666014D02*
X524320Y666014D01*
X524320Y666926D02*
X513280Y666926D01*
X513280Y667838D02*
X524320Y667838D01*
X524320Y668750D02*
X513280Y668750D01*
X513280Y669662D02*
X524320Y669662D01*
X524320Y670574D02*
X513280Y670574D01*
X513280Y671486D02*
X524320Y671486D01*
X524320Y672398D02*
X513280Y672398D01*
X513280Y673310D02*
X524320Y673310D01*
X524320Y674222D02*
X513280Y674222D01*
X513280Y675134D02*
X524320Y675134D01*
X524320Y676046D02*
X513280Y676046D01*
X513280Y676958D02*
X524320Y676958D01*
X524320Y677870D02*
X513280Y677870D01*
X513280Y678782D02*
X524320Y678782D01*
X524320Y679694D02*
X513280Y679694D01*
X513280Y680606D02*
X524320Y680606D01*
X524320Y681518D02*
X513280Y681518D01*
X513280Y682430D02*
X524320Y682430D01*
X524320Y683342D02*
X513280Y683342D01*
X513280Y684254D02*
X524320Y684254D01*
X524320Y685166D02*
X513280Y685166D01*
X513280Y686078D02*
X524320Y686078D01*
X524320Y686990D02*
X513280Y686990D01*
X513280Y687902D02*
X524320Y687902D01*
X524320Y688814D02*
X513280Y688814D01*
X513280Y689726D02*
X524320Y689726D01*
X524320Y690638D02*
X513280Y690638D01*
X720280Y664190D02*
X731320Y664190D01*
X720280Y664190D02*
X720280Y690730D01*
X731320Y690730D01*
X731320Y664190D01*
X731320Y665102D02*
X720280Y665102D01*
X720280Y666014D02*
X731320Y666014D01*
X731320Y666926D02*
X720280Y666926D01*
X720280Y667838D02*
X731320Y667838D01*
X731320Y668750D02*
X720280Y668750D01*
X720280Y669662D02*
X731320Y669662D01*
X731320Y670574D02*
X720280Y670574D01*
X720280Y671486D02*
X731320Y671486D01*
X731320Y672398D02*
X720280Y672398D01*
X720280Y673310D02*
X731320Y673310D01*
X731320Y674222D02*
X720280Y674222D01*
X720280Y675134D02*
X731320Y675134D01*
X731320Y676046D02*
X720280Y676046D01*
X720280Y676958D02*
X731320Y676958D01*
X731320Y677870D02*
X720280Y677870D01*
X720280Y678782D02*
X731320Y678782D01*
X731320Y679694D02*
X720280Y679694D01*
X720280Y680606D02*
X731320Y680606D01*
X731320Y681518D02*
X720280Y681518D01*
X720280Y682430D02*
X731320Y682430D01*
X731320Y683342D02*
X720280Y683342D01*
X720280Y684254D02*
X731320Y684254D01*
X731320Y685166D02*
X720280Y685166D01*
X720280Y686078D02*
X731320Y686078D01*
X731320Y686990D02*
X720280Y686990D01*
X720280Y687902D02*
X731320Y687902D01*
X731320Y688814D02*
X720280Y688814D01*
X720280Y689726D02*
X731320Y689726D01*
X731320Y690638D02*
X720280Y690638D01*
D12*
X712300Y609710D03*
X702300Y609710D03*
X697300Y609710D03*
X707300Y609710D03*
X692300Y609710D03*
X682300Y609710D03*
X677300Y609710D03*
X687300Y609710D03*
X672300Y609710D03*
X662300Y609710D03*
X657300Y609710D03*
X667300Y609710D03*
X652300Y609710D03*
X642300Y609710D03*
X637300Y609710D03*
X647300Y609710D03*
X632300Y609710D03*
X622300Y609710D03*
X617300Y609710D03*
X627300Y609710D03*
X612300Y609710D03*
X607300Y609710D03*
X582300Y609710D03*
X577300Y609710D03*
X572300Y609710D03*
X562300Y609710D03*
X557300Y609710D03*
X567300Y609710D03*
X552300Y609710D03*
X542300Y609710D03*
X537300Y609710D03*
X547300Y609710D03*
X532300Y609710D03*
X714800Y685210D03*
X704800Y685210D03*
X699800Y685210D03*
X709800Y685210D03*
X694800Y685210D03*
X684800Y685210D03*
X679800Y685210D03*
X689800Y685210D03*
X674800Y685210D03*
X664800Y685210D03*
X659800Y685210D03*
X669800Y685210D03*
X654800Y685210D03*
X644800Y685210D03*
X639800Y685210D03*
X649800Y685210D03*
X634800Y685210D03*
X624800Y685210D03*
X619800Y685210D03*
X629800Y685210D03*
X614800Y685210D03*
X609800Y685210D03*
X584800Y685210D03*
X579800Y685210D03*
X574800Y685210D03*
X564800Y685210D03*
X559800Y685210D03*
X569800Y685210D03*
X554800Y685210D03*
X544800Y685210D03*
X539800Y685210D03*
X549800Y685210D03*
X534800Y685210D03*
X529800Y685210D03*
D15*
X257475Y136605D02*
X257475Y121655D01*
X251525Y121655D01*
X251525Y136605D01*
X257475Y136605D01*
X257475Y122652D02*
X251525Y122652D01*
X251525Y123649D02*
X257475Y123649D01*
X257475Y124646D02*
X251525Y124646D01*
X251525Y125643D02*
X257475Y125643D01*
X257475Y126640D02*
X251525Y126640D01*
X251525Y127637D02*
X257475Y127637D01*
X257475Y128634D02*
X251525Y128634D01*
X251525Y129631D02*
X257475Y129631D01*
X257475Y130628D02*
X251525Y130628D01*
X251525Y131625D02*
X257475Y131625D01*
X257475Y132622D02*
X251525Y132622D01*
X251525Y133619D02*
X257475Y133619D01*
X257475Y134616D02*
X251525Y134616D01*
X251525Y135613D02*
X257475Y135613D01*
X268475Y136605D02*
X268475Y121655D01*
X262525Y121655D01*
X262525Y136605D01*
X268475Y136605D01*
X268475Y122652D02*
X262525Y122652D01*
X262525Y123649D02*
X268475Y123649D01*
X268475Y124646D02*
X262525Y124646D01*
X262525Y125643D02*
X268475Y125643D01*
X268475Y126640D02*
X262525Y126640D01*
X262525Y127637D02*
X268475Y127637D01*
X268475Y128634D02*
X262525Y128634D01*
X262525Y129631D02*
X268475Y129631D01*
X268475Y130628D02*
X262525Y130628D01*
X262525Y131625D02*
X268475Y131625D01*
X268475Y132622D02*
X262525Y132622D01*
X262525Y133619D02*
X268475Y133619D01*
X268475Y134616D02*
X262525Y134616D01*
X262525Y135613D02*
X268475Y135613D01*
X279475Y136605D02*
X279475Y121655D01*
X273525Y121655D01*
X273525Y136605D01*
X279475Y136605D01*
X279475Y122652D02*
X273525Y122652D01*
X273525Y123649D02*
X279475Y123649D01*
X279475Y124646D02*
X273525Y124646D01*
X273525Y125643D02*
X279475Y125643D01*
X279475Y126640D02*
X273525Y126640D01*
X273525Y127637D02*
X279475Y127637D01*
X279475Y128634D02*
X273525Y128634D01*
X273525Y129631D02*
X279475Y129631D01*
X279475Y130628D02*
X273525Y130628D01*
X273525Y131625D02*
X279475Y131625D01*
X279475Y132622D02*
X273525Y132622D01*
X273525Y133619D02*
X279475Y133619D01*
X279475Y134616D02*
X273525Y134616D01*
X273525Y135613D02*
X279475Y135613D01*
X246475Y136605D02*
X246475Y121655D01*
X240525Y121655D01*
X240525Y136605D01*
X246475Y136605D01*
X246475Y122652D02*
X240525Y122652D01*
X240525Y123649D02*
X246475Y123649D01*
X246475Y124646D02*
X240525Y124646D01*
X240525Y125643D02*
X246475Y125643D01*
X246475Y126640D02*
X240525Y126640D01*
X240525Y127637D02*
X246475Y127637D01*
X246475Y128634D02*
X240525Y128634D01*
X240525Y129631D02*
X246475Y129631D01*
X246475Y130628D02*
X240525Y130628D01*
X240525Y131625D02*
X246475Y131625D01*
X246475Y132622D02*
X240525Y132622D01*
X240525Y133619D02*
X246475Y133619D01*
X246475Y134616D02*
X240525Y134616D01*
X240525Y135613D02*
X246475Y135613D01*
X235475Y136605D02*
X235475Y121655D01*
X229525Y121655D01*
X229525Y136605D01*
X235475Y136605D01*
X235475Y122652D02*
X229525Y122652D01*
X229525Y123649D02*
X235475Y123649D01*
X235475Y124646D02*
X229525Y124646D01*
X229525Y125643D02*
X235475Y125643D01*
X235475Y126640D02*
X229525Y126640D01*
X229525Y127637D02*
X235475Y127637D01*
X235475Y128634D02*
X229525Y128634D01*
X229525Y129631D02*
X235475Y129631D01*
X235475Y130628D02*
X229525Y130628D01*
X229525Y131625D02*
X235475Y131625D01*
X235475Y132622D02*
X229525Y132622D01*
X229525Y133619D02*
X235475Y133619D01*
X235475Y134616D02*
X229525Y134616D01*
X229525Y135613D02*
X235475Y135613D01*
X224475Y136605D02*
X224475Y121655D01*
X218525Y121655D01*
X218525Y136605D01*
X224475Y136605D01*
X224475Y122652D02*
X218525Y122652D01*
X218525Y123649D02*
X224475Y123649D01*
X224475Y124646D02*
X218525Y124646D01*
X218525Y125643D02*
X224475Y125643D01*
X224475Y126640D02*
X218525Y126640D01*
X218525Y127637D02*
X224475Y127637D01*
X224475Y128634D02*
X218525Y128634D01*
X218525Y129631D02*
X224475Y129631D01*
X224475Y130628D02*
X218525Y130628D01*
X218525Y131625D02*
X224475Y131625D01*
X224475Y132622D02*
X218525Y132622D01*
X218525Y133619D02*
X224475Y133619D01*
X224475Y134616D02*
X218525Y134616D01*
X218525Y135613D02*
X224475Y135613D01*
X213475Y136605D02*
X213475Y121655D01*
X207525Y121655D01*
X207525Y136605D01*
X213475Y136605D01*
X213475Y122652D02*
X207525Y122652D01*
X207525Y123649D02*
X213475Y123649D01*
X213475Y124646D02*
X207525Y124646D01*
X207525Y125643D02*
X213475Y125643D01*
X213475Y126640D02*
X207525Y126640D01*
X207525Y127637D02*
X213475Y127637D01*
X213475Y128634D02*
X207525Y128634D01*
X207525Y129631D02*
X213475Y129631D01*
X213475Y130628D02*
X207525Y130628D01*
X207525Y131625D02*
X213475Y131625D01*
X213475Y132622D02*
X207525Y132622D01*
X207525Y133619D02*
X213475Y133619D01*
X213475Y134616D02*
X207525Y134616D01*
X207525Y135613D02*
X213475Y135613D01*
X202475Y136605D02*
X202475Y121655D01*
X196525Y121655D01*
X196525Y136605D01*
X202475Y136605D01*
X202475Y122652D02*
X196525Y122652D01*
X196525Y123649D02*
X202475Y123649D01*
X202475Y124646D02*
X196525Y124646D01*
X196525Y125643D02*
X202475Y125643D01*
X202475Y126640D02*
X196525Y126640D01*
X196525Y127637D02*
X202475Y127637D01*
X202475Y128634D02*
X196525Y128634D01*
X196525Y129631D02*
X202475Y129631D01*
X202475Y130628D02*
X196525Y130628D01*
X196525Y131625D02*
X202475Y131625D01*
X202475Y132622D02*
X196525Y132622D01*
X196525Y133619D02*
X202475Y133619D01*
X202475Y134616D02*
X196525Y134616D01*
X196525Y135613D02*
X202475Y135613D01*
X191475Y136605D02*
X191475Y121655D01*
X185525Y121655D01*
X185525Y136605D01*
X191475Y136605D01*
X191475Y122652D02*
X185525Y122652D01*
X185525Y123649D02*
X191475Y123649D01*
X191475Y124646D02*
X185525Y124646D01*
X185525Y125643D02*
X191475Y125643D01*
X191475Y126640D02*
X185525Y126640D01*
X185525Y127637D02*
X191475Y127637D01*
X191475Y128634D02*
X185525Y128634D01*
X185525Y129631D02*
X191475Y129631D01*
X191475Y130628D02*
X185525Y130628D01*
X185525Y131625D02*
X191475Y131625D01*
X191475Y132622D02*
X185525Y132622D01*
X185525Y133619D02*
X191475Y133619D01*
X191475Y134616D02*
X185525Y134616D01*
X185525Y135613D02*
X191475Y135613D01*
D11*
X325980Y17610D02*
X337020Y17610D01*
X325980Y17610D02*
X325980Y38650D01*
X337020Y38650D01*
X337020Y17610D01*
X337020Y18522D02*
X325980Y18522D01*
X325980Y19434D02*
X337020Y19434D01*
X337020Y20346D02*
X325980Y20346D01*
X325980Y21258D02*
X337020Y21258D01*
X337020Y22170D02*
X325980Y22170D01*
X325980Y23082D02*
X337020Y23082D01*
X337020Y23994D02*
X325980Y23994D01*
X325980Y24906D02*
X337020Y24906D01*
X337020Y25818D02*
X325980Y25818D01*
X325980Y26730D02*
X337020Y26730D01*
X337020Y27642D02*
X325980Y27642D01*
X325980Y28554D02*
X337020Y28554D01*
X337020Y29466D02*
X325980Y29466D01*
X325980Y30378D02*
X337020Y30378D01*
X337020Y31290D02*
X325980Y31290D01*
X325980Y32202D02*
X337020Y32202D01*
X337020Y33114D02*
X325980Y33114D01*
X325980Y34026D02*
X337020Y34026D01*
X337020Y34938D02*
X325980Y34938D01*
X325980Y35850D02*
X337020Y35850D01*
X337020Y36762D02*
X325980Y36762D01*
X325980Y37674D02*
X337020Y37674D01*
X337020Y38586D02*
X325980Y38586D01*
X182020Y17610D02*
X170980Y17610D01*
X170980Y38650D01*
X182020Y38650D01*
X182020Y17610D01*
X182020Y18522D02*
X170980Y18522D01*
X170980Y19434D02*
X182020Y19434D01*
X182020Y20346D02*
X170980Y20346D01*
X170980Y21258D02*
X182020Y21258D01*
X182020Y22170D02*
X170980Y22170D01*
X170980Y23082D02*
X182020Y23082D01*
X182020Y23994D02*
X170980Y23994D01*
X170980Y24906D02*
X182020Y24906D01*
X182020Y25818D02*
X170980Y25818D01*
X170980Y26730D02*
X182020Y26730D01*
X182020Y27642D02*
X170980Y27642D01*
X170980Y28554D02*
X182020Y28554D01*
X182020Y29466D02*
X170980Y29466D01*
X170980Y30378D02*
X182020Y30378D01*
X182020Y31290D02*
X170980Y31290D01*
X170980Y32202D02*
X182020Y32202D01*
X182020Y33114D02*
X170980Y33114D01*
X170980Y34026D02*
X182020Y34026D01*
X182020Y34938D02*
X170980Y34938D01*
X170980Y35850D02*
X182020Y35850D01*
X182020Y36762D02*
X170980Y36762D01*
X170980Y37674D02*
X182020Y37674D01*
X182020Y38586D02*
X170980Y38586D01*
D16*
X314990Y117620D02*
X330010Y117620D01*
X314990Y117620D02*
X314990Y130640D01*
X330010Y130640D01*
X330010Y117620D01*
X330010Y118551D02*
X314990Y118551D01*
X314990Y119482D02*
X330010Y119482D01*
X330010Y120413D02*
X314990Y120413D01*
X314990Y121344D02*
X330010Y121344D01*
X330010Y122275D02*
X314990Y122275D01*
X314990Y123206D02*
X330010Y123206D01*
X330010Y124137D02*
X314990Y124137D01*
X314990Y125068D02*
X330010Y125068D01*
X330010Y125999D02*
X314990Y125999D01*
X314990Y126930D02*
X330010Y126930D01*
X330010Y127861D02*
X314990Y127861D01*
X314990Y128792D02*
X330010Y128792D01*
X330010Y129723D02*
X314990Y129723D01*
D11*
X182020Y115610D02*
X170980Y115610D01*
X170980Y130650D01*
X182020Y130650D01*
X182020Y115610D01*
X182020Y116522D02*
X170980Y116522D01*
X170980Y117434D02*
X182020Y117434D01*
X182020Y118346D02*
X170980Y118346D01*
X170980Y119258D02*
X182020Y119258D01*
X182020Y120170D02*
X170980Y120170D01*
X170980Y121082D02*
X182020Y121082D01*
X182020Y121994D02*
X170980Y121994D01*
X170980Y122906D02*
X182020Y122906D01*
X182020Y123818D02*
X170980Y123818D01*
X170980Y124730D02*
X182020Y124730D01*
X182020Y125642D02*
X170980Y125642D01*
X170980Y126554D02*
X182020Y126554D01*
X182020Y127466D02*
X170980Y127466D01*
X170980Y128378D02*
X182020Y128378D01*
X182020Y129290D02*
X170980Y129290D01*
X170980Y130202D02*
X182020Y130202D01*
D14*
X246816Y151600D02*
X246816Y161600D01*
X246816Y151600D02*
X237816Y151600D01*
X237816Y161600D01*
X246816Y161600D01*
X246816Y152550D02*
X237816Y152550D01*
X237816Y153500D02*
X246816Y153500D01*
X246816Y154450D02*
X237816Y154450D01*
X237816Y155400D02*
X246816Y155400D01*
X246816Y156350D02*
X237816Y156350D01*
X237816Y157300D02*
X246816Y157300D01*
X246816Y158250D02*
X237816Y158250D01*
X237816Y159200D02*
X246816Y159200D01*
X246816Y160150D02*
X237816Y160150D01*
X237816Y161100D02*
X246816Y161100D01*
X246816Y168600D02*
X246816Y178600D01*
X246816Y168600D02*
X237816Y168600D01*
X237816Y178600D01*
X246816Y178600D01*
X246816Y169550D02*
X237816Y169550D01*
X237816Y170500D02*
X246816Y170500D01*
X246816Y171450D02*
X237816Y171450D01*
X237816Y172400D02*
X246816Y172400D01*
X246816Y173350D02*
X237816Y173350D01*
X237816Y174300D02*
X246816Y174300D01*
X246816Y175250D02*
X237816Y175250D01*
X237816Y176200D02*
X246816Y176200D01*
X246816Y177150D02*
X237816Y177150D01*
X237816Y178100D02*
X246816Y178100D01*
D10*
X110090Y56118D02*
X108110Y56118D01*
X108110Y65098D01*
X110090Y65098D01*
X110090Y56118D01*
X110090Y57087D02*
X108110Y57087D01*
X108110Y58056D02*
X110090Y58056D01*
X110090Y59025D02*
X108110Y59025D01*
X108110Y59994D02*
X110090Y59994D01*
X110090Y60963D02*
X108110Y60963D01*
X108110Y61932D02*
X110090Y61932D01*
X110090Y62901D02*
X108110Y62901D01*
X108110Y63870D02*
X110090Y63870D01*
X110090Y64839D02*
X108110Y64839D01*
X105090Y56118D02*
X103110Y56118D01*
X103110Y65098D01*
X105090Y65098D01*
X105090Y56118D01*
X105090Y57087D02*
X103110Y57087D01*
X103110Y58056D02*
X105090Y58056D01*
X105090Y59025D02*
X103110Y59025D01*
X103110Y59994D02*
X105090Y59994D01*
X105090Y60963D02*
X103110Y60963D01*
X103110Y61932D02*
X105090Y61932D01*
X105090Y62901D02*
X103110Y62901D01*
X103110Y63870D02*
X105090Y63870D01*
X105090Y64839D02*
X103110Y64839D01*
X131360Y56118D02*
X136340Y56118D01*
X131360Y56118D02*
X131360Y65098D01*
X136340Y65098D01*
X136340Y56118D01*
X136340Y57087D02*
X131360Y57087D01*
X131360Y58056D02*
X136340Y58056D01*
X136340Y59025D02*
X131360Y59025D01*
X131360Y59994D02*
X136340Y59994D01*
X136340Y60963D02*
X131360Y60963D01*
X131360Y61932D02*
X136340Y61932D01*
X136340Y62901D02*
X131360Y62901D01*
X131360Y63870D02*
X136340Y63870D01*
X136340Y64839D02*
X131360Y64839D01*
X128590Y56118D02*
X123610Y56118D01*
X123610Y65098D01*
X128590Y65098D01*
X128590Y56118D01*
X128590Y57087D02*
X123610Y57087D01*
X123610Y58056D02*
X128590Y58056D01*
X128590Y59025D02*
X123610Y59025D01*
X123610Y59994D02*
X128590Y59994D01*
X128590Y60963D02*
X123610Y60963D01*
X123610Y61932D02*
X128590Y61932D01*
X128590Y62901D02*
X123610Y62901D01*
X123610Y63870D02*
X128590Y63870D01*
X128590Y64839D02*
X123610Y64839D01*
X120090Y56118D02*
X118110Y56118D01*
X118110Y65098D01*
X120090Y65098D01*
X120090Y56118D01*
X120090Y57087D02*
X118110Y57087D01*
X118110Y58056D02*
X120090Y58056D01*
X120090Y59025D02*
X118110Y59025D01*
X118110Y59994D02*
X120090Y59994D01*
X120090Y60963D02*
X118110Y60963D01*
X118110Y61932D02*
X120090Y61932D01*
X120090Y62901D02*
X118110Y62901D01*
X118110Y63870D02*
X120090Y63870D01*
X120090Y64839D02*
X118110Y64839D01*
X115090Y56118D02*
X113110Y56118D01*
X113110Y65098D01*
X115090Y65098D01*
X115090Y56118D01*
X115090Y57087D02*
X113110Y57087D01*
X113110Y58056D02*
X115090Y58056D01*
X115090Y59025D02*
X113110Y59025D01*
X113110Y59994D02*
X115090Y59994D01*
X115090Y60963D02*
X113110Y60963D01*
X113110Y61932D02*
X115090Y61932D01*
X115090Y62901D02*
X113110Y62901D01*
X113110Y63870D02*
X115090Y63870D01*
X115090Y64839D02*
X113110Y64839D01*
X95090Y65098D02*
X93110Y65098D01*
X95090Y65098D02*
X95090Y56118D01*
X93110Y56118D01*
X93110Y65098D01*
X93110Y57087D02*
X95090Y57087D01*
X95090Y58056D02*
X93110Y58056D01*
X93110Y59025D02*
X95090Y59025D01*
X95090Y59994D02*
X93110Y59994D01*
X93110Y60963D02*
X95090Y60963D01*
X95090Y61932D02*
X93110Y61932D01*
X93110Y62901D02*
X95090Y62901D01*
X95090Y63870D02*
X93110Y63870D01*
X93110Y64839D02*
X95090Y64839D01*
X98110Y65098D02*
X100090Y65098D01*
X100090Y56118D01*
X98110Y56118D01*
X98110Y65098D01*
X98110Y57087D02*
X100090Y57087D01*
X100090Y58056D02*
X98110Y58056D01*
X98110Y59025D02*
X100090Y59025D01*
X100090Y59994D02*
X98110Y59994D01*
X98110Y60963D02*
X100090Y60963D01*
X100090Y61932D02*
X98110Y61932D01*
X98110Y62901D02*
X100090Y62901D01*
X100090Y63870D02*
X98110Y63870D01*
X98110Y64839D02*
X100090Y64839D01*
X71840Y65098D02*
X66860Y65098D01*
X71840Y65098D02*
X71840Y56118D01*
X66860Y56118D01*
X66860Y65098D01*
X66860Y57087D02*
X71840Y57087D01*
X71840Y58056D02*
X66860Y58056D01*
X66860Y59025D02*
X71840Y59025D01*
X71840Y59994D02*
X66860Y59994D01*
X66860Y60963D02*
X71840Y60963D01*
X71840Y61932D02*
X66860Y61932D01*
X66860Y62901D02*
X71840Y62901D01*
X71840Y63870D02*
X66860Y63870D01*
X66860Y64839D02*
X71840Y64839D01*
X74610Y65098D02*
X79590Y65098D01*
X79590Y56118D01*
X74610Y56118D01*
X74610Y65098D01*
X74610Y57087D02*
X79590Y57087D01*
X79590Y58056D02*
X74610Y58056D01*
X74610Y59025D02*
X79590Y59025D01*
X79590Y59994D02*
X74610Y59994D01*
X74610Y60963D02*
X79590Y60963D01*
X79590Y61932D02*
X74610Y61932D01*
X74610Y62901D02*
X79590Y62901D01*
X79590Y63870D02*
X74610Y63870D01*
X74610Y64839D02*
X79590Y64839D01*
X83110Y65098D02*
X85090Y65098D01*
X85090Y56118D01*
X83110Y56118D01*
X83110Y65098D01*
X83110Y57087D02*
X85090Y57087D01*
X85090Y58056D02*
X83110Y58056D01*
X83110Y59025D02*
X85090Y59025D01*
X85090Y59994D02*
X83110Y59994D01*
X83110Y60963D02*
X85090Y60963D01*
X85090Y61932D02*
X83110Y61932D01*
X83110Y62901D02*
X85090Y62901D01*
X85090Y63870D02*
X83110Y63870D01*
X83110Y64839D02*
X85090Y64839D01*
X88110Y65098D02*
X90090Y65098D01*
X90090Y56118D01*
X88110Y56118D01*
X88110Y65098D01*
X88110Y57087D02*
X90090Y57087D01*
X90090Y58056D02*
X88110Y58056D01*
X88110Y59025D02*
X90090Y59025D01*
X90090Y59994D02*
X88110Y59994D01*
X88110Y60963D02*
X90090Y60963D01*
X90090Y61932D02*
X88110Y61932D01*
X88110Y62901D02*
X90090Y62901D01*
X90090Y63870D02*
X88110Y63870D01*
X88110Y64839D02*
X90090Y64839D01*
D14*
X46300Y92400D02*
X46300Y102400D01*
X55300Y102400D01*
X55300Y92400D01*
X46300Y92400D01*
X46300Y93350D02*
X55300Y93350D01*
X55300Y94300D02*
X46300Y94300D01*
X46300Y95250D02*
X55300Y95250D01*
X55300Y96200D02*
X46300Y96200D01*
X46300Y97150D02*
X55300Y97150D01*
X55300Y98100D02*
X46300Y98100D01*
X46300Y99050D02*
X55300Y99050D01*
X55300Y100000D02*
X46300Y100000D01*
X46300Y100950D02*
X55300Y100950D01*
X55300Y101900D02*
X46300Y101900D01*
X46300Y85400D02*
X46300Y75400D01*
X46300Y85400D02*
X55300Y85400D01*
X55300Y75400D01*
X46300Y75400D01*
X46300Y76350D02*
X55300Y76350D01*
X55300Y77300D02*
X46300Y77300D01*
X46300Y78250D02*
X55300Y78250D01*
X55300Y79200D02*
X46300Y79200D01*
X46300Y80150D02*
X55300Y80150D01*
X55300Y81100D02*
X46300Y81100D01*
X46300Y82050D02*
X55300Y82050D01*
X55300Y83000D02*
X46300Y83000D01*
X46300Y83950D02*
X55300Y83950D01*
X55300Y84900D02*
X46300Y84900D01*
X137740Y92400D02*
X137740Y102400D01*
X146740Y102400D01*
X146740Y92400D01*
X137740Y92400D01*
X137740Y93350D02*
X146740Y93350D01*
X146740Y94300D02*
X137740Y94300D01*
X137740Y95250D02*
X146740Y95250D01*
X146740Y96200D02*
X137740Y96200D01*
X137740Y97150D02*
X146740Y97150D01*
X146740Y98100D02*
X137740Y98100D01*
X137740Y99050D02*
X146740Y99050D01*
X146740Y100000D02*
X137740Y100000D01*
X137740Y100950D02*
X146740Y100950D01*
X146740Y101900D02*
X137740Y101900D01*
X137740Y85400D02*
X137740Y75400D01*
X137740Y85400D02*
X146740Y85400D01*
X146740Y75400D01*
X137740Y75400D01*
X137740Y76350D02*
X146740Y76350D01*
X146740Y77300D02*
X137740Y77300D01*
X137740Y78250D02*
X146740Y78250D01*
X146740Y79200D02*
X137740Y79200D01*
X137740Y80150D02*
X146740Y80150D01*
X146740Y81100D02*
X137740Y81100D01*
X137740Y82050D02*
X146740Y82050D01*
X146740Y83000D02*
X137740Y83000D01*
X137740Y83950D02*
X146740Y83950D01*
X146740Y84900D02*
X137740Y84900D01*
D17*
X115734Y189194D02*
X115734Y194486D01*
X123026Y194486D01*
X123026Y189194D01*
X115734Y189194D01*
X115734Y190152D02*
X123026Y190152D01*
X123026Y191110D02*
X115734Y191110D01*
X115734Y192068D02*
X123026Y192068D01*
X123026Y193026D02*
X115734Y193026D01*
X115734Y193984D02*
X123026Y193984D01*
X115734Y171486D02*
X115734Y166194D01*
X115734Y171486D02*
X123026Y171486D01*
X123026Y166194D01*
X115734Y166194D01*
X115734Y167152D02*
X123026Y167152D01*
X123026Y168110D02*
X115734Y168110D01*
X115734Y169068D02*
X123026Y169068D01*
X123026Y170026D02*
X115734Y170026D01*
X115734Y170984D02*
X123026Y170984D01*
D18*
X128524Y299466D03*
D10*
X137284Y315956D02*
X139264Y315956D01*
X139264Y310476D01*
X137284Y310476D01*
X137284Y315956D01*
X137284Y311445D02*
X139264Y311445D01*
X139264Y312414D02*
X137284Y312414D01*
X137284Y313383D02*
X139264Y313383D01*
X139264Y314352D02*
X137284Y314352D01*
X137284Y315321D02*
X139264Y315321D01*
X132764Y315956D02*
X130784Y315956D01*
X132764Y315956D02*
X132764Y310476D01*
X130784Y310476D01*
X130784Y315956D01*
X130784Y311445D02*
X132764Y311445D01*
X132764Y312414D02*
X130784Y312414D01*
X130784Y313383D02*
X132764Y313383D01*
X132764Y314352D02*
X130784Y314352D01*
X130784Y315321D02*
X132764Y315321D01*
X126264Y315956D02*
X124284Y315956D01*
X126264Y315956D02*
X126264Y310476D01*
X124284Y310476D01*
X124284Y315956D01*
X124284Y311445D02*
X126264Y311445D01*
X126264Y312414D02*
X124284Y312414D01*
X124284Y313383D02*
X126264Y313383D01*
X126264Y314352D02*
X124284Y314352D01*
X124284Y315321D02*
X126264Y315321D01*
X119764Y315956D02*
X117784Y315956D01*
X119764Y315956D02*
X119764Y310476D01*
X117784Y310476D01*
X117784Y315956D01*
X117784Y311445D02*
X119764Y311445D01*
X119764Y312414D02*
X117784Y312414D01*
X117784Y313383D02*
X119764Y313383D01*
X119764Y314352D02*
X117784Y314352D01*
X117784Y315321D02*
X119764Y315321D01*
X119764Y282976D02*
X117784Y282976D01*
X117784Y288456D01*
X119764Y288456D01*
X119764Y282976D01*
X119764Y283945D02*
X117784Y283945D01*
X117784Y284914D02*
X119764Y284914D01*
X119764Y285883D02*
X117784Y285883D01*
X117784Y286852D02*
X119764Y286852D01*
X119764Y287821D02*
X117784Y287821D01*
X124284Y282976D02*
X126264Y282976D01*
X124284Y282976D02*
X124284Y288456D01*
X126264Y288456D01*
X126264Y282976D01*
X126264Y283945D02*
X124284Y283945D01*
X124284Y284914D02*
X126264Y284914D01*
X126264Y285883D02*
X124284Y285883D01*
X124284Y286852D02*
X126264Y286852D01*
X126264Y287821D02*
X124284Y287821D01*
X130784Y282976D02*
X132764Y282976D01*
X130784Y282976D02*
X130784Y288456D01*
X132764Y288456D01*
X132764Y282976D01*
X132764Y283945D02*
X130784Y283945D01*
X130784Y284914D02*
X132764Y284914D01*
X132764Y285883D02*
X130784Y285883D01*
X130784Y286852D02*
X132764Y286852D01*
X132764Y287821D02*
X130784Y287821D01*
X137284Y282976D02*
X139264Y282976D01*
X137284Y282976D02*
X137284Y288456D01*
X139264Y288456D01*
X139264Y282976D01*
X139264Y283945D02*
X137284Y283945D01*
X137284Y284914D02*
X139264Y284914D01*
X139264Y285883D02*
X137284Y285883D01*
X137284Y286852D02*
X139264Y286852D01*
X139264Y287821D02*
X137284Y287821D01*
D14*
X141262Y247324D02*
X131262Y247324D01*
X141262Y247324D02*
X141262Y238324D01*
X131262Y238324D01*
X131262Y247324D01*
X131262Y239274D02*
X141262Y239274D01*
X141262Y240224D02*
X131262Y240224D01*
X131262Y241174D02*
X141262Y241174D01*
X141262Y242124D02*
X131262Y242124D01*
X131262Y243074D02*
X141262Y243074D01*
X141262Y244024D02*
X131262Y244024D01*
X131262Y244974D02*
X141262Y244974D01*
X141262Y245924D02*
X131262Y245924D01*
X131262Y246874D02*
X141262Y246874D01*
X124262Y247324D02*
X114262Y247324D01*
X124262Y247324D02*
X124262Y238324D01*
X114262Y238324D01*
X114262Y247324D01*
X114262Y239274D02*
X124262Y239274D01*
X124262Y240224D02*
X114262Y240224D01*
X114262Y241174D02*
X124262Y241174D01*
X124262Y242124D02*
X114262Y242124D01*
X114262Y243074D02*
X124262Y243074D01*
X124262Y244024D02*
X114262Y244024D01*
X114262Y244974D02*
X124262Y244974D01*
X124262Y245924D02*
X114262Y245924D01*
X114262Y246874D02*
X124262Y246874D01*
X130500Y230560D02*
X140500Y230560D01*
X140500Y221560D01*
X130500Y221560D01*
X130500Y230560D01*
X130500Y222510D02*
X140500Y222510D01*
X140500Y223460D02*
X130500Y223460D01*
X130500Y224410D02*
X140500Y224410D01*
X140500Y225360D02*
X130500Y225360D01*
X130500Y226310D02*
X140500Y226310D01*
X140500Y227260D02*
X130500Y227260D01*
X130500Y228210D02*
X140500Y228210D01*
X140500Y229160D02*
X130500Y229160D01*
X130500Y230110D02*
X140500Y230110D01*
X123500Y230560D02*
X113500Y230560D01*
X123500Y230560D02*
X123500Y221560D01*
X113500Y221560D01*
X113500Y230560D01*
X113500Y222510D02*
X123500Y222510D01*
X123500Y223460D02*
X113500Y223460D01*
X113500Y224410D02*
X123500Y224410D01*
X123500Y225360D02*
X113500Y225360D01*
X113500Y226310D02*
X123500Y226310D01*
X123500Y227260D02*
X113500Y227260D01*
X113500Y228210D02*
X123500Y228210D01*
X123500Y229160D02*
X113500Y229160D01*
X113500Y230110D02*
X123500Y230110D01*
X90970Y117262D02*
X90970Y108262D01*
X63970Y108262D01*
X63970Y117262D01*
X90970Y117262D01*
X90970Y109212D02*
X63970Y109212D01*
X63970Y110162D02*
X90970Y110162D01*
X90970Y111112D02*
X63970Y111112D01*
X63970Y112062D02*
X90970Y112062D01*
X90970Y113012D02*
X63970Y113012D01*
X63970Y113962D02*
X90970Y113962D01*
X90970Y114912D02*
X63970Y114912D01*
X63970Y115862D02*
X90970Y115862D01*
X90970Y116812D02*
X63970Y116812D01*
X90970Y138262D02*
X90970Y147262D01*
X90970Y138262D02*
X63970Y138262D01*
X63970Y147262D01*
X90970Y147262D01*
X90970Y139212D02*
X63970Y139212D01*
X63970Y140162D02*
X90970Y140162D01*
X90970Y141112D02*
X63970Y141112D01*
X63970Y142062D02*
X90970Y142062D01*
X90970Y143012D02*
X63970Y143012D01*
X63970Y143962D02*
X90970Y143962D01*
X90970Y144912D02*
X63970Y144912D01*
X63970Y145862D02*
X90970Y145862D01*
X90970Y146812D02*
X63970Y146812D01*
X114008Y257120D02*
X124008Y257120D01*
X114008Y257120D02*
X114008Y266120D01*
X124008Y266120D01*
X124008Y257120D01*
X124008Y258070D02*
X114008Y258070D01*
X114008Y259020D02*
X124008Y259020D01*
X124008Y259970D02*
X114008Y259970D01*
X114008Y260920D02*
X124008Y260920D01*
X124008Y261870D02*
X114008Y261870D01*
X114008Y262820D02*
X124008Y262820D01*
X124008Y263770D02*
X114008Y263770D01*
X114008Y264720D02*
X124008Y264720D01*
X124008Y265670D02*
X114008Y265670D01*
X131008Y257120D02*
X141008Y257120D01*
X131008Y257120D02*
X131008Y266120D01*
X141008Y266120D01*
X141008Y257120D01*
X141008Y258070D02*
X131008Y258070D01*
X131008Y259020D02*
X141008Y259020D01*
X141008Y259970D02*
X131008Y259970D01*
X131008Y260920D02*
X141008Y260920D01*
X141008Y261870D02*
X131008Y261870D01*
X131008Y262820D02*
X141008Y262820D01*
X141008Y263770D02*
X131008Y263770D01*
X131008Y264720D02*
X141008Y264720D01*
X141008Y265670D02*
X131008Y265670D01*
D17*
X97626Y283034D02*
X97626Y288326D01*
X97626Y283034D02*
X90334Y283034D01*
X90334Y288326D01*
X97626Y288326D01*
X97626Y283992D02*
X90334Y283992D01*
X90334Y284950D02*
X97626Y284950D01*
X97626Y285908D02*
X90334Y285908D01*
X90334Y286866D02*
X97626Y286866D01*
X97626Y287824D02*
X90334Y287824D01*
X97626Y306034D02*
X97626Y311326D01*
X97626Y306034D02*
X90334Y306034D01*
X90334Y311326D01*
X97626Y311326D01*
X97626Y306992D02*
X90334Y306992D01*
X90334Y307950D02*
X97626Y307950D01*
X97626Y308908D02*
X90334Y308908D01*
X90334Y309866D02*
X97626Y309866D01*
X97626Y310824D02*
X90334Y310824D01*
D14*
X100020Y375340D02*
X110020Y375340D01*
X110020Y366340D01*
X100020Y366340D01*
X100020Y375340D01*
X100020Y367290D02*
X110020Y367290D01*
X110020Y368240D02*
X100020Y368240D01*
X100020Y369190D02*
X110020Y369190D01*
X110020Y370140D02*
X100020Y370140D01*
X100020Y371090D02*
X110020Y371090D01*
X110020Y372040D02*
X100020Y372040D01*
X100020Y372990D02*
X110020Y372990D01*
X110020Y373940D02*
X100020Y373940D01*
X100020Y374890D02*
X110020Y374890D01*
X93020Y375340D02*
X83020Y375340D01*
X93020Y375340D02*
X93020Y366340D01*
X83020Y366340D01*
X83020Y375340D01*
X83020Y367290D02*
X93020Y367290D01*
X93020Y368240D02*
X83020Y368240D01*
X83020Y369190D02*
X93020Y369190D01*
X93020Y370140D02*
X83020Y370140D01*
X83020Y371090D02*
X93020Y371090D01*
X93020Y372040D02*
X83020Y372040D01*
X83020Y372990D02*
X93020Y372990D01*
X93020Y373940D02*
X83020Y373940D01*
X83020Y374890D02*
X93020Y374890D01*
X100020Y360100D02*
X110020Y360100D01*
X110020Y351100D01*
X100020Y351100D01*
X100020Y360100D01*
X100020Y352050D02*
X110020Y352050D01*
X110020Y353000D02*
X100020Y353000D01*
X100020Y353950D02*
X110020Y353950D01*
X110020Y354900D02*
X100020Y354900D01*
X100020Y355850D02*
X110020Y355850D01*
X110020Y356800D02*
X100020Y356800D01*
X100020Y357750D02*
X110020Y357750D01*
X110020Y358700D02*
X100020Y358700D01*
X100020Y359650D02*
X110020Y359650D01*
X93020Y360100D02*
X83020Y360100D01*
X93020Y360100D02*
X93020Y351100D01*
X83020Y351100D01*
X83020Y360100D01*
X83020Y352050D02*
X93020Y352050D01*
X93020Y353000D02*
X83020Y353000D01*
X83020Y353950D02*
X93020Y353950D01*
X93020Y354900D02*
X83020Y354900D01*
X83020Y355850D02*
X93020Y355850D01*
X93020Y356800D02*
X83020Y356800D01*
X83020Y357750D02*
X93020Y357750D01*
X93020Y358700D02*
X83020Y358700D01*
X83020Y359650D02*
X93020Y359650D01*
X100020Y390580D02*
X110020Y390580D01*
X110020Y381580D01*
X100020Y381580D01*
X100020Y390580D01*
X100020Y382530D02*
X110020Y382530D01*
X110020Y383480D02*
X100020Y383480D01*
X100020Y384430D02*
X110020Y384430D01*
X110020Y385380D02*
X100020Y385380D01*
X100020Y386330D02*
X110020Y386330D01*
X110020Y387280D02*
X100020Y387280D01*
X100020Y388230D02*
X110020Y388230D01*
X110020Y389180D02*
X100020Y389180D01*
X100020Y390130D02*
X110020Y390130D01*
X93020Y390580D02*
X83020Y390580D01*
X93020Y390580D02*
X93020Y381580D01*
X83020Y381580D01*
X83020Y390580D01*
X83020Y382530D02*
X93020Y382530D01*
X93020Y383480D02*
X83020Y383480D01*
X83020Y384430D02*
X93020Y384430D01*
X93020Y385380D02*
X83020Y385380D01*
X83020Y386330D02*
X93020Y386330D01*
X93020Y387280D02*
X83020Y387280D01*
X83020Y388230D02*
X93020Y388230D01*
X93020Y389180D02*
X83020Y389180D01*
X83020Y390130D02*
X93020Y390130D01*
X37410Y326428D02*
X37410Y316428D01*
X37410Y326428D02*
X46410Y326428D01*
X46410Y316428D01*
X37410Y316428D01*
X37410Y317378D02*
X46410Y317378D01*
X46410Y318328D02*
X37410Y318328D01*
X37410Y319278D02*
X46410Y319278D01*
X46410Y320228D02*
X37410Y320228D01*
X37410Y321178D02*
X46410Y321178D01*
X46410Y322128D02*
X37410Y322128D01*
X37410Y323078D02*
X46410Y323078D01*
X46410Y324028D02*
X37410Y324028D01*
X37410Y324978D02*
X46410Y324978D01*
X46410Y325928D02*
X37410Y325928D01*
X37410Y309428D02*
X37410Y299428D01*
X37410Y309428D02*
X46410Y309428D01*
X46410Y299428D01*
X37410Y299428D01*
X37410Y300378D02*
X46410Y300378D01*
X46410Y301328D02*
X37410Y301328D01*
X37410Y302278D02*
X46410Y302278D01*
X46410Y303228D02*
X37410Y303228D01*
X37410Y304178D02*
X46410Y304178D01*
X46410Y305128D02*
X37410Y305128D01*
X37410Y306078D02*
X46410Y306078D01*
X46410Y307028D02*
X37410Y307028D01*
X37410Y307978D02*
X46410Y307978D01*
X46410Y308928D02*
X37410Y308928D01*
D19*
X22550Y307150D02*
X15550Y307150D01*
X22550Y307150D02*
X22550Y300150D01*
X15550Y300150D01*
X15550Y307150D01*
X15550Y303000D02*
X22550Y303000D01*
X22550Y305850D02*
X15550Y305850D01*
X15550Y324690D02*
X22550Y324690D01*
X22550Y317690D01*
X15550Y317690D01*
X15550Y324690D01*
X15550Y320540D02*
X22550Y320540D01*
X22550Y323390D02*
X15550Y323390D01*
D20*
X132520Y213760D02*
X139480Y213760D01*
X139480Y202800D01*
X132520Y202800D01*
X132520Y213760D01*
X132520Y203788D02*
X139480Y203788D01*
X139480Y204776D02*
X132520Y204776D01*
X132520Y205764D02*
X139480Y205764D01*
X139480Y206752D02*
X132520Y206752D01*
X132520Y207740D02*
X139480Y207740D01*
X139480Y208728D02*
X132520Y208728D01*
X132520Y209716D02*
X139480Y209716D01*
X139480Y210704D02*
X132520Y210704D01*
X132520Y211692D02*
X139480Y211692D01*
X139480Y212680D02*
X132520Y212680D01*
X132520Y213668D02*
X139480Y213668D01*
X121480Y213760D02*
X114520Y213760D01*
X121480Y213760D02*
X121480Y202800D01*
X114520Y202800D01*
X114520Y213760D01*
X114520Y203788D02*
X121480Y203788D01*
X121480Y204776D02*
X114520Y204776D01*
X114520Y205764D02*
X121480Y205764D01*
X121480Y206752D02*
X114520Y206752D01*
X114520Y207740D02*
X121480Y207740D01*
X121480Y208728D02*
X114520Y208728D01*
X114520Y209716D02*
X121480Y209716D01*
X121480Y210704D02*
X114520Y210704D01*
X114520Y211692D02*
X121480Y211692D01*
X121480Y212680D02*
X114520Y212680D01*
X114520Y213668D02*
X121480Y213668D01*
D17*
X132752Y194232D02*
X132752Y188940D01*
X132752Y194232D02*
X140044Y194232D01*
X140044Y188940D01*
X132752Y188940D01*
X132752Y189898D02*
X140044Y189898D01*
X140044Y190856D02*
X132752Y190856D01*
X132752Y191814D02*
X140044Y191814D01*
X140044Y192772D02*
X132752Y192772D01*
X132752Y193730D02*
X140044Y193730D01*
X132752Y171232D02*
X132752Y165940D01*
X132752Y171232D02*
X140044Y171232D01*
X140044Y165940D01*
X132752Y165940D01*
X132752Y166898D02*
X140044Y166898D01*
X140044Y167856D02*
X132752Y167856D01*
X132752Y168814D02*
X140044Y168814D01*
X140044Y169772D02*
X132752Y169772D01*
X132752Y170730D02*
X140044Y170730D01*
D14*
X38680Y277820D02*
X38680Y287820D01*
X47680Y287820D01*
X47680Y277820D01*
X38680Y277820D01*
X38680Y278770D02*
X47680Y278770D01*
X47680Y279720D02*
X38680Y279720D01*
X38680Y280670D02*
X47680Y280670D01*
X47680Y281620D02*
X38680Y281620D01*
X38680Y282570D02*
X47680Y282570D01*
X47680Y283520D02*
X38680Y283520D01*
X38680Y284470D02*
X47680Y284470D01*
X47680Y285420D02*
X38680Y285420D01*
X38680Y286370D02*
X47680Y286370D01*
X47680Y287320D02*
X38680Y287320D01*
X38680Y270820D02*
X38680Y260820D01*
X38680Y270820D02*
X47680Y270820D01*
X47680Y260820D01*
X38680Y260820D01*
X38680Y261770D02*
X47680Y261770D01*
X47680Y262720D02*
X38680Y262720D01*
X38680Y263670D02*
X47680Y263670D01*
X47680Y264620D02*
X38680Y264620D01*
X38680Y265570D02*
X47680Y265570D01*
X47680Y266520D02*
X38680Y266520D01*
X38680Y267470D02*
X47680Y267470D01*
X47680Y268420D02*
X38680Y268420D01*
X38680Y269370D02*
X47680Y269370D01*
X47680Y270320D02*
X38680Y270320D01*
D19*
X22550Y269050D02*
X15550Y269050D01*
X22550Y269050D02*
X22550Y262050D01*
X15550Y262050D01*
X15550Y269050D01*
X15550Y264900D02*
X22550Y264900D01*
X22550Y267750D02*
X15550Y267750D01*
X15550Y286590D02*
X22550Y286590D01*
X22550Y279590D01*
X15550Y279590D01*
X15550Y286590D01*
X15550Y282440D02*
X22550Y282440D01*
X22550Y285290D02*
X15550Y285290D01*
D14*
X61912Y694856D02*
X61912Y703856D01*
X106912Y703856D01*
X106912Y694856D01*
X61912Y694856D01*
X61912Y695806D02*
X106912Y695806D01*
X106912Y696756D02*
X61912Y696756D01*
X61912Y697706D02*
X106912Y697706D01*
X106912Y698656D02*
X61912Y698656D01*
X61912Y699606D02*
X106912Y699606D01*
X106912Y700556D02*
X61912Y700556D01*
X61912Y701506D02*
X106912Y701506D01*
X106912Y702456D02*
X61912Y702456D01*
X61912Y703406D02*
X106912Y703406D01*
X61912Y683856D02*
X61912Y674856D01*
X61912Y683856D02*
X106912Y683856D01*
X106912Y674856D01*
X61912Y674856D01*
X61912Y675806D02*
X106912Y675806D01*
X106912Y676756D02*
X61912Y676756D01*
X61912Y677706D02*
X106912Y677706D01*
X106912Y678656D02*
X61912Y678656D01*
X61912Y679606D02*
X106912Y679606D01*
X106912Y680556D02*
X61912Y680556D01*
X61912Y681506D02*
X106912Y681506D01*
X106912Y682456D02*
X61912Y682456D01*
X61912Y683406D02*
X106912Y683406D01*
D11*
X119892Y715836D02*
X152932Y715836D01*
X119892Y715836D02*
X119892Y730876D01*
X152932Y730876D01*
X152932Y715836D01*
X152932Y716748D02*
X119892Y716748D01*
X119892Y717660D02*
X152932Y717660D01*
X152932Y718572D02*
X119892Y718572D01*
X119892Y719484D02*
X152932Y719484D01*
X152932Y720396D02*
X119892Y720396D01*
X119892Y721308D02*
X152932Y721308D01*
X152932Y722220D02*
X119892Y722220D01*
X119892Y723132D02*
X152932Y723132D01*
X152932Y724044D02*
X119892Y724044D01*
X119892Y724956D02*
X152932Y724956D01*
X152932Y725868D02*
X119892Y725868D01*
X119892Y726780D02*
X152932Y726780D01*
X152932Y727692D02*
X119892Y727692D01*
X119892Y728604D02*
X152932Y728604D01*
X152932Y729516D02*
X119892Y729516D01*
X119892Y730428D02*
X152932Y730428D01*
X152932Y647836D02*
X119892Y647836D01*
X119892Y662876D01*
X152932Y662876D01*
X152932Y647836D01*
X152932Y648748D02*
X119892Y648748D01*
X119892Y649660D02*
X152932Y649660D01*
X152932Y650572D02*
X119892Y650572D01*
X119892Y651484D02*
X152932Y651484D01*
X152932Y652396D02*
X119892Y652396D01*
X119892Y653308D02*
X152932Y653308D01*
X152932Y654220D02*
X119892Y654220D01*
X119892Y655132D02*
X152932Y655132D01*
X152932Y656044D02*
X119892Y656044D01*
X119892Y656956D02*
X152932Y656956D01*
X152932Y657868D02*
X119892Y657868D01*
X119892Y658780D02*
X152932Y658780D01*
X152932Y659692D02*
X119892Y659692D01*
X119892Y660604D02*
X152932Y660604D01*
X152932Y661516D02*
X119892Y661516D01*
X119892Y662428D02*
X152932Y662428D01*
D21*
X128234Y578479D02*
X128234Y573969D01*
X117224Y573969D01*
X117224Y578479D01*
X128234Y578479D01*
X128234Y574909D02*
X117224Y574909D01*
X117224Y575849D02*
X128234Y575849D01*
X128234Y576789D02*
X117224Y576789D01*
X117224Y577729D02*
X128234Y577729D01*
X128234Y583469D02*
X128234Y587979D01*
X128234Y583469D02*
X117224Y583469D01*
X117224Y587979D01*
X128234Y587979D01*
X128234Y584409D02*
X117224Y584409D01*
X117224Y585349D02*
X128234Y585349D01*
X128234Y586289D02*
X117224Y586289D01*
X117224Y587229D02*
X128234Y587229D01*
X128234Y592969D02*
X128234Y597479D01*
X128234Y592969D02*
X117224Y592969D01*
X117224Y597479D01*
X128234Y597479D01*
X128234Y593909D02*
X117224Y593909D01*
X117224Y594849D02*
X128234Y594849D01*
X128234Y595789D02*
X117224Y595789D01*
X117224Y596729D02*
X128234Y596729D01*
X102232Y597479D02*
X102232Y592969D01*
X91222Y592969D01*
X91222Y597479D01*
X102232Y597479D01*
X102232Y593909D02*
X91222Y593909D01*
X91222Y594849D02*
X102232Y594849D01*
X102232Y595789D02*
X91222Y595789D01*
X91222Y596729D02*
X102232Y596729D01*
X102232Y578479D02*
X102232Y573969D01*
X91222Y573969D01*
X91222Y578479D01*
X102232Y578479D01*
X102232Y574909D02*
X91222Y574909D01*
X91222Y575849D02*
X102232Y575849D01*
X102232Y576789D02*
X91222Y576789D01*
X91222Y577729D02*
X102232Y577729D01*
D14*
X119070Y564570D02*
X129070Y564570D01*
X129070Y555570D01*
X119070Y555570D01*
X119070Y564570D01*
X119070Y556520D02*
X129070Y556520D01*
X129070Y557470D02*
X119070Y557470D01*
X119070Y558420D02*
X129070Y558420D01*
X129070Y559370D02*
X119070Y559370D01*
X119070Y560320D02*
X129070Y560320D01*
X129070Y561270D02*
X119070Y561270D01*
X119070Y562220D02*
X129070Y562220D01*
X129070Y563170D02*
X119070Y563170D01*
X119070Y564120D02*
X129070Y564120D01*
X112070Y564570D02*
X102070Y564570D01*
X112070Y564570D02*
X112070Y555570D01*
X102070Y555570D01*
X102070Y564570D01*
X102070Y556520D02*
X112070Y556520D01*
X112070Y557470D02*
X102070Y557470D01*
X102070Y558420D02*
X112070Y558420D01*
X112070Y559370D02*
X102070Y559370D01*
X102070Y560320D02*
X112070Y560320D01*
X112070Y561270D02*
X102070Y561270D01*
X102070Y562220D02*
X112070Y562220D01*
X112070Y563170D02*
X102070Y563170D01*
X102070Y564120D02*
X112070Y564120D01*
X37410Y362750D02*
X37410Y352750D01*
X37410Y362750D02*
X46410Y362750D01*
X46410Y352750D01*
X37410Y352750D01*
X37410Y353700D02*
X46410Y353700D01*
X46410Y354650D02*
X37410Y354650D01*
X37410Y355600D02*
X46410Y355600D01*
X46410Y356550D02*
X37410Y356550D01*
X37410Y357500D02*
X46410Y357500D01*
X46410Y358450D02*
X37410Y358450D01*
X37410Y359400D02*
X46410Y359400D01*
X46410Y360350D02*
X37410Y360350D01*
X37410Y361300D02*
X46410Y361300D01*
X46410Y362250D02*
X37410Y362250D01*
X37410Y345750D02*
X37410Y335750D01*
X37410Y345750D02*
X46410Y345750D01*
X46410Y335750D01*
X37410Y335750D01*
X37410Y336700D02*
X46410Y336700D01*
X46410Y337650D02*
X37410Y337650D01*
X37410Y338600D02*
X46410Y338600D01*
X46410Y339550D02*
X37410Y339550D01*
X37410Y340500D02*
X46410Y340500D01*
X46410Y341450D02*
X37410Y341450D01*
X37410Y342400D02*
X46410Y342400D01*
X46410Y343350D02*
X37410Y343350D01*
X37410Y344300D02*
X46410Y344300D01*
X46410Y345250D02*
X37410Y345250D01*
D19*
X22550Y345250D02*
X15550Y345250D01*
X22550Y345250D02*
X22550Y338250D01*
X15550Y338250D01*
X15550Y345250D01*
X15550Y341100D02*
X22550Y341100D01*
X22550Y343950D02*
X15550Y343950D01*
X15550Y362790D02*
X22550Y362790D01*
X22550Y355790D01*
X15550Y355790D01*
X15550Y362790D01*
X15550Y358640D02*
X22550Y358640D01*
X22550Y361490D02*
X15550Y361490D01*
D14*
X72462Y589224D02*
X72462Y599224D01*
X81462Y599224D01*
X81462Y589224D01*
X72462Y589224D01*
X72462Y590174D02*
X81462Y590174D01*
X81462Y591124D02*
X72462Y591124D01*
X72462Y592074D02*
X81462Y592074D01*
X81462Y593024D02*
X72462Y593024D01*
X72462Y593974D02*
X81462Y593974D01*
X81462Y594924D02*
X72462Y594924D01*
X72462Y595874D02*
X81462Y595874D01*
X81462Y596824D02*
X72462Y596824D01*
X72462Y597774D02*
X81462Y597774D01*
X81462Y598724D02*
X72462Y598724D01*
X72462Y582224D02*
X72462Y572224D01*
X72462Y582224D02*
X81462Y582224D01*
X81462Y572224D01*
X72462Y572224D01*
X72462Y573174D02*
X81462Y573174D01*
X81462Y574124D02*
X72462Y574124D01*
X72462Y575074D02*
X81462Y575074D01*
X81462Y576024D02*
X72462Y576024D01*
X72462Y576974D02*
X81462Y576974D01*
X81462Y577924D02*
X72462Y577924D01*
X72462Y578874D02*
X81462Y578874D01*
X81462Y579824D02*
X72462Y579824D01*
X72462Y580774D02*
X81462Y580774D01*
X81462Y581724D02*
X72462Y581724D01*
X117800Y614100D02*
X127800Y614100D01*
X127800Y605100D01*
X117800Y605100D01*
X117800Y614100D01*
X117800Y606050D02*
X127800Y606050D01*
X127800Y607000D02*
X117800Y607000D01*
X117800Y607950D02*
X127800Y607950D01*
X127800Y608900D02*
X117800Y608900D01*
X117800Y609850D02*
X127800Y609850D01*
X127800Y610800D02*
X117800Y610800D01*
X117800Y611750D02*
X127800Y611750D01*
X127800Y612700D02*
X117800Y612700D01*
X117800Y613650D02*
X127800Y613650D01*
X110800Y614100D02*
X100800Y614100D01*
X110800Y614100D02*
X110800Y605100D01*
X100800Y605100D01*
X100800Y614100D01*
X100800Y606050D02*
X110800Y606050D01*
X110800Y607000D02*
X100800Y607000D01*
X100800Y607950D02*
X110800Y607950D01*
X110800Y608900D02*
X100800Y608900D01*
X100800Y609850D02*
X110800Y609850D01*
X110800Y610800D02*
X100800Y610800D01*
X100800Y611750D02*
X110800Y611750D01*
X110800Y612700D02*
X100800Y612700D01*
X100800Y613650D02*
X110800Y613650D01*
M02*
