G04 EAGLE Gerber RS-274X export*
G75*
%MOMM*%
%FSLAX34Y34*%
%LPD*%
%INSilkscreen Top*%
%IPPOS*%
%AMOC8*
5,1,8,0,0,1.08239X$1,22.5*%
G01*
%ADD10C,0.203200*%
%ADD11C,0.406400*%
%ADD12C,0.152400*%
%ADD13C,0.254000*%
%ADD14C,0.127000*%
%ADD15C,0.600000*%
%ADD16C,0.254000*%

G36*
X382129Y70919D02*
X382129Y70919D01*
X382133Y70920D01*
X382141Y70916D01*
X405330Y70917D01*
X405332Y70919D01*
X405335Y70918D01*
X407855Y71138D01*
X407859Y71140D01*
X407865Y71139D01*
X408415Y71279D01*
X408418Y71281D01*
X408429Y71280D01*
X410419Y71900D01*
X410421Y71903D01*
X410428Y71904D01*
X410898Y72134D01*
X410898Y72135D01*
X410900Y72135D01*
X412810Y73185D01*
X412813Y73190D01*
X412820Y73192D01*
X414120Y74272D01*
X414500Y74592D01*
X414501Y74594D01*
X414504Y74595D01*
X414844Y74925D01*
X414844Y74928D01*
X414848Y74930D01*
X415728Y76000D01*
X416158Y76520D01*
X416159Y76524D01*
X416164Y76527D01*
X416444Y76987D01*
X416444Y76989D01*
X416445Y76990D01*
X416725Y77510D01*
X417455Y78840D01*
X417455Y78843D01*
X417457Y78844D01*
X417457Y78848D01*
X417460Y78852D01*
X417830Y80072D01*
X417828Y80078D01*
X417837Y80084D01*
X417837Y80088D01*
X417840Y80092D01*
X418230Y81412D01*
X418229Y81417D01*
X418232Y81424D01*
X418482Y84014D01*
X418480Y84019D01*
X418482Y84027D01*
X418202Y86607D01*
X418199Y86611D01*
X418200Y86619D01*
X418100Y86939D01*
X418089Y86948D01*
X418089Y86950D01*
X418090Y86959D01*
X417530Y88759D01*
X417527Y88761D01*
X417527Y88767D01*
X417167Y89527D01*
X417165Y89528D01*
X417165Y89530D01*
X416675Y90430D01*
X416675Y90431D01*
X416285Y91131D01*
X416281Y91133D01*
X416279Y91139D01*
X415389Y92239D01*
X415388Y92240D01*
X415226Y92434D01*
X414618Y93160D01*
X414613Y93162D01*
X414610Y93169D01*
X412660Y94749D01*
X412654Y94749D01*
X412650Y94755D01*
X410820Y95755D01*
X410817Y95755D01*
X410815Y95758D01*
X410265Y95998D01*
X410262Y95997D01*
X410259Y96000D01*
X408421Y96569D01*
X408416Y96577D01*
X408392Y96574D01*
X408385Y96575D01*
X408382Y96577D01*
X408376Y96587D01*
X408370Y96586D01*
X408363Y96591D01*
X407883Y96691D01*
X407880Y96690D01*
X407876Y96692D01*
X405526Y96932D01*
X405524Y96931D01*
X405520Y96933D01*
X398790Y96933D01*
X398780Y96926D01*
X398776Y96926D01*
X398760Y96933D01*
X391660Y96933D01*
X391656Y96930D01*
X391650Y96933D01*
X376720Y96931D01*
X376716Y96937D01*
X376703Y96935D01*
X376692Y96943D01*
X376683Y96937D01*
X376670Y96943D01*
X355430Y96943D01*
X355411Y96931D01*
X355406Y96930D01*
X355400Y96933D01*
X351460Y96933D01*
X351458Y96931D01*
X351454Y96932D01*
X348884Y96682D01*
X348880Y96679D01*
X348872Y96680D01*
X347652Y96310D01*
X347648Y96305D01*
X347644Y96306D01*
X347636Y96313D01*
X347627Y96308D01*
X347611Y96310D01*
X346301Y95890D01*
X346297Y95886D01*
X346290Y95885D01*
X344960Y95155D01*
X344959Y95155D01*
X344049Y94645D01*
X344047Y94640D01*
X344040Y94638D01*
X343240Y93968D01*
X342380Y93258D01*
X342379Y93255D01*
X342374Y93253D01*
X341944Y92793D01*
X341944Y92791D01*
X341942Y92790D01*
X341272Y91990D01*
X341271Y91990D01*
X340751Y91350D01*
X340751Y91346D01*
X340747Y91343D01*
X340517Y90973D01*
X340517Y90972D01*
X340515Y90970D01*
X339965Y89980D01*
X339965Y89979D01*
X339435Y88979D01*
X339435Y88975D01*
X339430Y88970D01*
X339240Y88390D01*
X339241Y88389D01*
X339240Y88389D01*
X338820Y87039D01*
X338821Y87037D01*
X338819Y87034D01*
X338639Y86264D01*
X338640Y86261D01*
X338638Y86257D01*
X338498Y84967D01*
X338428Y84317D01*
X338429Y84315D01*
X338427Y84312D01*
X338407Y83672D01*
X338408Y83671D01*
X338407Y83670D01*
X338407Y83660D01*
X338418Y83644D01*
X338628Y81614D01*
X338629Y81612D01*
X338628Y81609D01*
X338728Y81059D01*
X338731Y81056D01*
X338730Y81051D01*
X339350Y79071D01*
X339354Y79068D01*
X339354Y79062D01*
X339363Y79043D01*
X339633Y78454D01*
X339635Y78453D01*
X339635Y78450D01*
X340045Y77700D01*
X340345Y77160D01*
X340575Y76730D01*
X340585Y76725D01*
X340592Y76700D01*
X340822Y76420D01*
X341521Y75560D01*
X341522Y75560D01*
X341522Y75559D01*
X341594Y75476D01*
X341647Y75413D01*
X341754Y75287D01*
X341861Y75162D01*
X341914Y75099D01*
X342021Y74974D01*
X342075Y74911D01*
X342182Y74785D01*
X342235Y74723D01*
X342272Y74679D01*
X342277Y74678D01*
X342280Y74672D01*
X342710Y74312D01*
X343620Y73552D01*
X343621Y73552D01*
X343622Y73550D01*
X343952Y73300D01*
X343953Y73300D01*
X343954Y73298D01*
X344374Y73008D01*
X344377Y73008D01*
X344380Y73005D01*
X346190Y72015D01*
X346194Y72015D01*
X346198Y72011D01*
X346718Y71821D01*
X346720Y71822D01*
X346722Y71820D01*
X347061Y71720D01*
X348751Y71190D01*
X348776Y71197D01*
X348778Y71197D01*
X348793Y71188D01*
X351333Y70918D01*
X351344Y70923D01*
X351354Y70924D01*
X351370Y70917D01*
X355410Y70917D01*
X355429Y70929D01*
X355451Y70933D01*
X355458Y70948D01*
X355467Y70954D01*
X355466Y70964D01*
X355473Y70980D01*
X355473Y78210D01*
X355464Y78223D01*
X355466Y78238D01*
X355448Y78249D01*
X355436Y78267D01*
X355421Y78265D01*
X355407Y78273D01*
X355380Y78259D01*
X355369Y78257D01*
X355366Y78252D01*
X355361Y78249D01*
X355282Y78150D01*
X355154Y78003D01*
X354925Y77754D01*
X354597Y77446D01*
X354380Y77249D01*
X354164Y77091D01*
X353947Y76943D01*
X353573Y76737D01*
X353317Y76628D01*
X352970Y76499D01*
X352643Y76390D01*
X352307Y76311D01*
X351860Y76232D01*
X351614Y76193D01*
X351368Y76183D01*
X351361Y76178D01*
X351350Y76183D01*
X351340Y76183D01*
X351340Y76182D01*
X351002Y76173D01*
X349467Y76332D01*
X349452Y76325D01*
X349443Y76327D01*
X349429Y76340D01*
X349079Y76450D01*
X348500Y76629D01*
X347927Y76847D01*
X347421Y77135D01*
X347046Y77352D01*
X346412Y77887D01*
X345888Y78401D01*
X345341Y79157D01*
X345324Y79163D01*
X345317Y79173D01*
X345316Y79188D01*
X344579Y80692D01*
X344202Y82180D01*
X344085Y83743D01*
X344088Y83745D01*
X344086Y83754D01*
X344093Y83766D01*
X344192Y85351D01*
X344550Y86890D01*
X345185Y88278D01*
X345828Y89179D01*
X346551Y89863D01*
X346976Y90218D01*
X347779Y90674D01*
X348372Y90941D01*
X349388Y91240D01*
X349402Y91256D01*
X349425Y91247D01*
X351001Y91377D01*
X351484Y91348D01*
X352010Y91278D01*
X352378Y91209D01*
X352603Y91159D01*
X353038Y91011D01*
X353543Y90803D01*
X353965Y90567D01*
X354292Y90320D01*
X354678Y90013D01*
X354976Y89725D01*
X355356Y89355D01*
X355368Y89353D01*
X355374Y89343D01*
X355399Y89346D01*
X355423Y89342D01*
X355430Y89351D01*
X355441Y89353D01*
X355459Y89391D01*
X355463Y89397D01*
X355462Y89398D01*
X355463Y89400D01*
X355463Y91229D01*
X360297Y91228D01*
X360297Y82710D01*
X360307Y79150D01*
X360297Y76420D01*
X360297Y70980D01*
X360309Y70961D01*
X360313Y70939D01*
X360328Y70932D01*
X360334Y70923D01*
X360344Y70924D01*
X360360Y70917D01*
X366319Y70917D01*
X366321Y70914D01*
X366332Y70915D01*
X366350Y70907D01*
X382110Y70907D01*
X382129Y70919D01*
G37*
%LPC*%
G36*
X366657Y76363D02*
X366657Y76363D01*
X361125Y91228D01*
X366090Y91227D01*
X366096Y91231D01*
X367020Y88062D01*
X369010Y81193D01*
X369024Y81180D01*
X369029Y81162D01*
X369047Y81160D01*
X369061Y81148D01*
X369078Y81156D01*
X369096Y81153D01*
X369112Y81171D01*
X369123Y81176D01*
X369124Y81185D01*
X369130Y81192D01*
X372066Y91237D01*
X376661Y91237D01*
X376664Y91233D01*
X376674Y91234D01*
X376690Y91227D01*
X376694Y91227D01*
X379610Y81173D01*
X379624Y81160D01*
X379629Y81143D01*
X379647Y81140D01*
X379661Y81128D01*
X379678Y81136D01*
X379696Y81133D01*
X379712Y81151D01*
X379723Y81156D01*
X379724Y81165D01*
X379730Y81172D01*
X382716Y91227D01*
X387368Y91227D01*
X381972Y76363D01*
X377159Y76363D01*
X374390Y85498D01*
X374381Y85506D01*
X374374Y85524D01*
X374364Y85534D01*
X374362Y85535D01*
X374362Y85537D01*
X374341Y85540D01*
X374338Y85542D01*
X374336Y85541D01*
X374330Y85542D01*
X374298Y85549D01*
X374297Y85547D01*
X374295Y85547D01*
X374260Y85509D01*
X371371Y76363D01*
X366657Y76363D01*
G37*
%LPD*%
G36*
X214493Y548011D02*
X214493Y548011D01*
X214510Y548025D01*
X214522Y548023D01*
X215222Y548623D01*
X215225Y548636D01*
X215227Y548646D01*
X215239Y548652D01*
X215439Y549852D01*
X215436Y549857D01*
X215439Y549860D01*
X215439Y552226D01*
X216199Y552511D01*
X218490Y552511D01*
X218495Y552515D01*
X218499Y552512D01*
X219599Y552712D01*
X219603Y552716D01*
X219607Y552714D01*
X220707Y553114D01*
X220710Y553118D01*
X220714Y553117D01*
X221814Y553717D01*
X221817Y553724D01*
X221823Y553723D01*
X222723Y554523D01*
X222724Y554530D01*
X222729Y554530D01*
X223429Y555430D01*
X223429Y555438D01*
X223435Y555440D01*
X223935Y556540D01*
X223934Y556545D01*
X223938Y556547D01*
X224238Y557647D01*
X224237Y557648D01*
X224238Y557649D01*
X224236Y557651D01*
X224235Y557653D01*
X224239Y557656D01*
X224339Y558856D01*
X224337Y558859D01*
X224339Y558860D01*
X224339Y560060D01*
X224327Y560076D01*
X224331Y560087D01*
X224133Y560384D01*
X223635Y561480D01*
X223629Y561484D01*
X223630Y561488D01*
X222930Y562488D01*
X222922Y562491D01*
X222923Y562497D01*
X222023Y563297D01*
X222018Y563297D01*
X222018Y563300D01*
X221018Y564000D01*
X221009Y564000D01*
X221007Y564006D01*
X219907Y564406D01*
X219904Y564405D01*
X219903Y564408D01*
X218803Y564708D01*
X218797Y564705D01*
X218793Y564705D01*
X218790Y564709D01*
X212790Y564709D01*
X212784Y564705D01*
X212778Y564705D01*
X212777Y564704D01*
X212773Y564706D01*
X211673Y564306D01*
X211658Y564283D01*
X211652Y564279D01*
X211643Y564276D01*
X211343Y563376D01*
X211347Y563365D01*
X211341Y563360D01*
X211341Y549160D01*
X211350Y549147D01*
X211346Y549138D01*
X211746Y548338D01*
X211770Y548326D01*
X211774Y548313D01*
X212974Y547913D01*
X212987Y547918D01*
X212993Y547911D01*
X214493Y548011D01*
G37*
G36*
X668223Y705400D02*
X668223Y705400D01*
X668232Y705396D01*
X669232Y705896D01*
X669245Y705922D01*
X669258Y705927D01*
X669558Y707027D01*
X669553Y707038D01*
X669559Y707044D01*
X669459Y708344D01*
X669443Y708362D01*
X669445Y708375D01*
X668645Y709175D01*
X668624Y709178D01*
X668619Y709188D01*
X667519Y709388D01*
X667513Y709385D01*
X667510Y709389D01*
X662716Y709389D01*
X661993Y709570D01*
X668950Y719011D01*
X668950Y719018D01*
X668952Y719020D01*
X668950Y719023D01*
X668949Y719027D01*
X668959Y719032D01*
X669159Y720232D01*
X669152Y720245D01*
X669158Y720253D01*
X668858Y721353D01*
X668839Y721367D01*
X668838Y721380D01*
X667838Y722080D01*
X667820Y722080D01*
X667814Y722089D01*
X666714Y722189D01*
X666712Y722187D01*
X666710Y722189D01*
X657210Y722189D01*
X657204Y722185D01*
X657202Y722185D01*
X657195Y722179D01*
X657186Y722183D01*
X656286Y721683D01*
X656277Y721663D01*
X656268Y721657D01*
X656270Y721655D01*
X656262Y721652D01*
X655962Y720452D01*
X655967Y720442D01*
X655961Y720437D01*
X656061Y719037D01*
X656075Y719020D01*
X656073Y719008D01*
X656673Y718308D01*
X656699Y718302D01*
X656706Y718291D01*
X657906Y718191D01*
X657909Y718193D01*
X657910Y718191D01*
X662590Y718191D01*
X662946Y717835D01*
X656770Y709269D01*
X656770Y709268D01*
X656070Y708268D01*
X656070Y708262D01*
X656068Y708261D01*
X656070Y708257D01*
X656070Y708250D01*
X656061Y708244D01*
X655961Y707044D01*
X655971Y707028D01*
X655966Y707018D01*
X656466Y706018D01*
X656483Y706009D01*
X656485Y705998D01*
X657485Y705398D01*
X657503Y705400D01*
X657510Y705391D01*
X668210Y705391D01*
X668223Y705400D01*
G37*
G36*
X538714Y705398D02*
X538714Y705398D01*
X538721Y705392D01*
X540021Y705692D01*
X540036Y705710D01*
X540049Y705710D01*
X540649Y706510D01*
X540649Y706532D01*
X540659Y706540D01*
X540659Y711213D01*
X541424Y711691D01*
X545010Y711691D01*
X545013Y711693D01*
X545014Y711691D01*
X546214Y711791D01*
X546234Y711809D01*
X546247Y711808D01*
X546847Y712508D01*
X546848Y712517D01*
X546851Y712519D01*
X546848Y712522D01*
X546849Y712527D01*
X546859Y712533D01*
X547059Y713933D01*
X547053Y713943D01*
X547059Y713948D01*
X546859Y715148D01*
X546840Y715166D01*
X546840Y715179D01*
X546040Y715779D01*
X546021Y715779D01*
X546019Y715783D01*
X546015Y715783D01*
X546010Y715789D01*
X541230Y715789D01*
X540659Y716360D01*
X540659Y717517D01*
X541328Y718091D01*
X548410Y718091D01*
X548419Y718097D01*
X548421Y718097D01*
X548426Y718101D01*
X548435Y718098D01*
X549435Y718698D01*
X549443Y718716D01*
X549453Y718724D01*
X549451Y718727D01*
X549458Y718731D01*
X549658Y719831D01*
X549654Y719840D01*
X549659Y719844D01*
X549559Y721144D01*
X549545Y721160D01*
X549547Y721172D01*
X548847Y721972D01*
X548824Y721977D01*
X548818Y721989D01*
X547618Y722189D01*
X547613Y722186D01*
X547610Y722189D01*
X538010Y722189D01*
X538004Y722185D01*
X537999Y722185D01*
X537997Y722183D01*
X537992Y722186D01*
X536992Y721786D01*
X536979Y721764D01*
X536975Y721761D01*
X536964Y721758D01*
X536564Y720758D01*
X536568Y720745D01*
X536561Y720740D01*
X536561Y707540D01*
X536563Y707537D01*
X536561Y707536D01*
X536661Y706336D01*
X536675Y706320D01*
X536673Y706308D01*
X537273Y705608D01*
X537297Y705603D01*
X537303Y705591D01*
X538703Y705391D01*
X538714Y705398D01*
G37*
G36*
X708118Y705397D02*
X708118Y705397D01*
X708123Y705393D01*
X709223Y705693D01*
X709226Y705696D01*
X709229Y705695D01*
X710429Y706195D01*
X710433Y706201D01*
X710437Y706199D01*
X711337Y706799D01*
X711340Y706806D01*
X711345Y706805D01*
X712245Y707705D01*
X712246Y707714D01*
X712252Y707715D01*
X712852Y708715D01*
X712852Y708718D01*
X712854Y708718D01*
X713354Y709718D01*
X713352Y709729D01*
X713359Y709732D01*
X713559Y710932D01*
X713557Y710935D01*
X713559Y710936D01*
X713659Y712236D01*
X713654Y712244D01*
X713659Y712248D01*
X713459Y713448D01*
X713454Y713453D01*
X713456Y713457D01*
X713056Y714557D01*
X713049Y714562D01*
X713051Y714567D01*
X712451Y715467D01*
X712446Y715469D01*
X712447Y715473D01*
X711647Y716373D01*
X711638Y716374D01*
X711638Y716380D01*
X710638Y717080D01*
X710631Y717080D01*
X710630Y717085D01*
X709530Y717585D01*
X709525Y717584D01*
X709523Y717588D01*
X708423Y717888D01*
X708414Y717884D01*
X708410Y717889D01*
X707210Y717889D01*
X707207Y717887D01*
X707206Y717889D01*
X706006Y717789D01*
X705999Y717783D01*
X705993Y717786D01*
X704893Y717386D01*
X704891Y717383D01*
X704888Y717384D01*
X703888Y716884D01*
X703885Y716877D01*
X703879Y716878D01*
X702879Y716078D01*
X702879Y716077D01*
X702877Y716077D01*
X701077Y714477D01*
X701072Y714448D01*
X701061Y714440D01*
X701061Y711940D01*
X701063Y711938D01*
X701061Y711936D01*
X701161Y710636D01*
X701166Y710631D01*
X701163Y710627D01*
X701463Y709527D01*
X701467Y709523D01*
X701465Y709520D01*
X701965Y708420D01*
X701975Y708415D01*
X701973Y708407D01*
X702773Y707507D01*
X702775Y707507D01*
X702775Y707505D01*
X703575Y706705D01*
X703584Y706704D01*
X703585Y706698D01*
X704585Y706098D01*
X704644Y706104D01*
X704643Y706114D01*
X704652Y706114D01*
X704670Y706144D01*
X704675Y706106D01*
X704687Y706107D01*
X704690Y706095D01*
X705790Y705595D01*
X705798Y705597D01*
X705801Y705592D01*
X706901Y705392D01*
X706907Y705395D01*
X706910Y705391D01*
X708110Y705391D01*
X708118Y705397D01*
G37*
G36*
X625518Y705397D02*
X625518Y705397D01*
X625523Y705393D01*
X626623Y705693D01*
X626627Y705697D01*
X626630Y705695D01*
X627730Y706195D01*
X627732Y706199D01*
X627735Y706198D01*
X628735Y706798D01*
X628739Y706808D01*
X628747Y706807D01*
X629547Y707707D01*
X629547Y707712D01*
X629550Y707712D01*
X630250Y708712D01*
X630250Y708717D01*
X630254Y708718D01*
X630754Y709718D01*
X630752Y709729D01*
X630759Y709732D01*
X630959Y710932D01*
X630956Y710937D01*
X630959Y710940D01*
X630959Y712240D01*
X630957Y712243D01*
X630959Y712244D01*
X630859Y713444D01*
X630853Y713451D01*
X630856Y713457D01*
X630456Y714557D01*
X630449Y714562D01*
X630451Y714567D01*
X629851Y715467D01*
X629844Y715470D01*
X629845Y715475D01*
X628945Y716375D01*
X628940Y716375D01*
X628940Y716379D01*
X628040Y717079D01*
X628032Y717079D01*
X628030Y717085D01*
X626930Y717585D01*
X626925Y717584D01*
X626923Y717588D01*
X625823Y717888D01*
X625814Y717884D01*
X625810Y717889D01*
X624610Y717889D01*
X624607Y717887D01*
X624606Y717889D01*
X623406Y717789D01*
X623399Y717783D01*
X623393Y717786D01*
X622293Y717386D01*
X622292Y717384D01*
X622290Y717385D01*
X621190Y716885D01*
X621185Y716875D01*
X621177Y716877D01*
X618477Y714477D01*
X618472Y714448D01*
X618461Y714440D01*
X618461Y711940D01*
X618463Y711938D01*
X618461Y711936D01*
X618561Y710636D01*
X618566Y710631D01*
X618563Y710627D01*
X618863Y709527D01*
X618867Y709523D01*
X618865Y709520D01*
X619365Y708420D01*
X619375Y708415D01*
X619373Y708407D01*
X620173Y707507D01*
X620175Y707507D01*
X620175Y707505D01*
X620975Y706705D01*
X620984Y706704D01*
X620985Y706698D01*
X621985Y706098D01*
X621990Y706098D01*
X621991Y706095D01*
X623191Y705595D01*
X623199Y705597D01*
X623201Y705592D01*
X624301Y705392D01*
X624307Y705395D01*
X624310Y705391D01*
X625510Y705391D01*
X625518Y705397D01*
G37*
G36*
X247097Y547916D02*
X247097Y547916D01*
X247102Y547912D01*
X248302Y548212D01*
X248306Y548217D01*
X248310Y548215D01*
X249410Y548715D01*
X249413Y548720D01*
X249417Y548719D01*
X250317Y549319D01*
X250320Y549326D01*
X250325Y549325D01*
X251225Y550225D01*
X251226Y550232D01*
X251230Y550232D01*
X251930Y551232D01*
X251930Y551240D01*
X251936Y551242D01*
X252336Y552242D01*
X252334Y552247D01*
X252338Y552248D01*
X252638Y553448D01*
X252634Y553456D01*
X252639Y553460D01*
X252639Y554760D01*
X252636Y554765D01*
X252639Y554768D01*
X252439Y555968D01*
X252434Y555973D01*
X252436Y555977D01*
X252036Y557077D01*
X252029Y557082D01*
X252031Y557087D01*
X251431Y557987D01*
X251426Y557989D01*
X251427Y557993D01*
X250627Y558893D01*
X250618Y558894D01*
X250618Y558900D01*
X249618Y559600D01*
X249611Y559600D01*
X249610Y559605D01*
X248510Y560105D01*
X248505Y560104D01*
X248503Y560108D01*
X247403Y560408D01*
X247394Y560404D01*
X247390Y560409D01*
X246190Y560409D01*
X246187Y560407D01*
X246186Y560409D01*
X244986Y560309D01*
X244979Y560303D01*
X244973Y560306D01*
X243873Y559906D01*
X243871Y559903D01*
X243868Y559904D01*
X242868Y559404D01*
X242865Y559397D01*
X242859Y559398D01*
X241859Y558598D01*
X241858Y558596D01*
X241856Y558596D01*
X240156Y556996D01*
X240152Y556968D01*
X240141Y556960D01*
X240141Y553160D01*
X240147Y553152D01*
X240143Y553147D01*
X240443Y552047D01*
X240449Y552042D01*
X240447Y552036D01*
X241047Y550936D01*
X241052Y550934D01*
X241051Y550930D01*
X241751Y550030D01*
X241758Y550028D01*
X241757Y550023D01*
X242657Y549223D01*
X242664Y549223D01*
X242665Y549218D01*
X243665Y548618D01*
X243669Y548618D01*
X243670Y548615D01*
X244770Y548115D01*
X244779Y548117D01*
X244782Y548111D01*
X245982Y547911D01*
X245987Y547914D01*
X245990Y547911D01*
X247090Y547911D01*
X247097Y547916D01*
G37*
G36*
X319698Y547917D02*
X319698Y547917D01*
X319703Y547913D01*
X320803Y548213D01*
X320807Y548217D01*
X320810Y548215D01*
X321910Y548715D01*
X321912Y548719D01*
X321915Y548718D01*
X322915Y549318D01*
X322919Y549328D01*
X322927Y549327D01*
X323727Y550227D01*
X323727Y550232D01*
X323730Y550232D01*
X324430Y551232D01*
X324430Y551237D01*
X324434Y551238D01*
X324934Y552238D01*
X324932Y552249D01*
X324939Y552252D01*
X325139Y553452D01*
X325136Y553457D01*
X325139Y553460D01*
X325139Y554760D01*
X325136Y554765D01*
X325139Y554768D01*
X324939Y555968D01*
X324936Y555971D01*
X324938Y555973D01*
X324638Y557073D01*
X324627Y557081D01*
X324629Y557090D01*
X323929Y557990D01*
X323926Y557991D01*
X323927Y557993D01*
X323127Y558893D01*
X323118Y558894D01*
X323118Y558900D01*
X322118Y559600D01*
X322113Y559600D01*
X322112Y559604D01*
X321112Y560104D01*
X321105Y560103D01*
X321103Y560108D01*
X320003Y560408D01*
X319994Y560404D01*
X319990Y560409D01*
X318690Y560409D01*
X318687Y560407D01*
X318686Y560409D01*
X317586Y560309D01*
X317579Y560303D01*
X317573Y560306D01*
X316473Y559906D01*
X316472Y559904D01*
X316470Y559905D01*
X315370Y559405D01*
X315365Y559395D01*
X315357Y559397D01*
X312657Y556997D01*
X312652Y556968D01*
X312641Y556960D01*
X312641Y554460D01*
X312643Y554458D01*
X312641Y554456D01*
X312741Y553156D01*
X312746Y553151D01*
X312743Y553147D01*
X313043Y552047D01*
X313047Y552043D01*
X313045Y552040D01*
X313545Y550940D01*
X313553Y550936D01*
X313551Y550930D01*
X314251Y550030D01*
X314258Y550028D01*
X314257Y550023D01*
X315157Y549223D01*
X315164Y549223D01*
X315165Y549218D01*
X316165Y548618D01*
X316169Y548618D01*
X316170Y548615D01*
X317270Y548115D01*
X317279Y548117D01*
X317282Y548111D01*
X318482Y547911D01*
X318487Y547914D01*
X318490Y547911D01*
X319690Y547911D01*
X319698Y547917D01*
G37*
G36*
X681513Y705491D02*
X681513Y705491D01*
X681518Y705495D01*
X681521Y705492D01*
X682821Y705792D01*
X682828Y705800D01*
X682834Y705797D01*
X683734Y706297D01*
X683739Y706309D01*
X683748Y706308D01*
X684248Y706908D01*
X684249Y706929D01*
X684259Y706935D01*
X684359Y707835D01*
X684348Y707853D01*
X684353Y707865D01*
X683653Y709065D01*
X683633Y709073D01*
X683630Y709085D01*
X682730Y709485D01*
X682707Y709480D01*
X682697Y709488D01*
X681599Y709188D01*
X680605Y708989D01*
X679316Y708989D01*
X678137Y709284D01*
X677396Y710117D01*
X678218Y710391D01*
X683010Y710391D01*
X683023Y710400D01*
X683032Y710396D01*
X684032Y710896D01*
X684036Y710904D01*
X684043Y710903D01*
X684943Y711703D01*
X684947Y711722D01*
X684957Y711731D01*
X684954Y711736D01*
X684959Y711740D01*
X684959Y713040D01*
X684957Y713043D01*
X684959Y713044D01*
X684859Y714244D01*
X684853Y714251D01*
X684856Y714257D01*
X684456Y715357D01*
X684447Y715363D01*
X684449Y715370D01*
X683749Y716270D01*
X683742Y716272D01*
X683743Y716277D01*
X682843Y717077D01*
X682833Y717078D01*
X682832Y717084D01*
X681832Y717584D01*
X681824Y717583D01*
X681822Y717588D01*
X680622Y717888D01*
X680614Y717884D01*
X680610Y717889D01*
X679310Y717889D01*
X679307Y717887D01*
X679306Y717889D01*
X678106Y717789D01*
X678101Y717785D01*
X678098Y717788D01*
X676898Y717488D01*
X676893Y717482D01*
X676888Y717484D01*
X675888Y716984D01*
X675885Y716978D01*
X675880Y716979D01*
X674980Y716279D01*
X674979Y716274D01*
X674975Y716275D01*
X674175Y715475D01*
X674174Y715466D01*
X674168Y715465D01*
X673568Y714465D01*
X673569Y714458D01*
X673564Y714457D01*
X673164Y713357D01*
X673167Y713348D01*
X673161Y713344D01*
X673061Y712144D01*
X673063Y712141D01*
X673061Y712140D01*
X673061Y710840D01*
X673065Y710835D01*
X673062Y710831D01*
X673262Y709731D01*
X673266Y709727D01*
X673264Y709723D01*
X673664Y708623D01*
X673672Y708618D01*
X673670Y708612D01*
X674370Y707612D01*
X674372Y707611D01*
X674371Y707610D01*
X675071Y706710D01*
X675085Y706706D01*
X675086Y706697D01*
X676186Y706097D01*
X676192Y706098D01*
X676193Y706094D01*
X677293Y705694D01*
X677299Y705696D01*
X677301Y705692D01*
X678401Y705492D01*
X678405Y705493D01*
X678407Y705491D01*
X679807Y705391D01*
X679811Y705394D01*
X679813Y705391D01*
X681513Y705491D01*
G37*
G36*
X278793Y548011D02*
X278793Y548011D01*
X278798Y548015D01*
X278801Y548012D01*
X280101Y548312D01*
X280108Y548320D01*
X280114Y548317D01*
X281014Y548817D01*
X281021Y548832D01*
X281031Y548833D01*
X281431Y549433D01*
X281430Y549449D01*
X281439Y549455D01*
X281539Y550355D01*
X281529Y550371D01*
X281534Y550382D01*
X280934Y551582D01*
X280913Y551592D01*
X280910Y551605D01*
X280010Y552005D01*
X279988Y552000D01*
X279978Y552008D01*
X278779Y551708D01*
X277785Y551509D01*
X276496Y551509D01*
X275318Y551804D01*
X274670Y552637D01*
X275399Y552911D01*
X280190Y552911D01*
X280202Y552920D01*
X280210Y552915D01*
X281310Y553415D01*
X281316Y553426D01*
X281325Y553425D01*
X282125Y554225D01*
X282127Y554243D01*
X282137Y554251D01*
X282134Y554256D01*
X282139Y554260D01*
X282139Y555560D01*
X282137Y555563D01*
X282139Y555564D01*
X282039Y556764D01*
X282033Y556771D01*
X282036Y556777D01*
X281636Y557877D01*
X281627Y557883D01*
X281629Y557890D01*
X280929Y558790D01*
X280922Y558792D01*
X280923Y558797D01*
X280023Y559597D01*
X280013Y559598D01*
X280012Y559604D01*
X279012Y560104D01*
X279005Y560103D01*
X279003Y560108D01*
X277903Y560408D01*
X277894Y560404D01*
X277890Y560409D01*
X276590Y560409D01*
X276588Y560407D01*
X276586Y560409D01*
X275286Y560309D01*
X275281Y560304D01*
X275277Y560308D01*
X274177Y560008D01*
X274173Y560003D01*
X274170Y560005D01*
X273070Y559505D01*
X273066Y559497D01*
X273060Y559499D01*
X272160Y558799D01*
X272159Y558794D01*
X272155Y558795D01*
X271355Y557995D01*
X271354Y557986D01*
X271348Y557985D01*
X270748Y556985D01*
X270749Y556976D01*
X270743Y556973D01*
X270443Y555873D01*
X270444Y555869D01*
X270441Y555868D01*
X270241Y554668D01*
X270244Y554663D01*
X270241Y554660D01*
X270241Y553360D01*
X270245Y553355D01*
X270242Y553351D01*
X270442Y552251D01*
X270448Y552245D01*
X270445Y552240D01*
X270945Y551140D01*
X270949Y551138D01*
X270948Y551135D01*
X271548Y550135D01*
X271554Y550132D01*
X271553Y550127D01*
X272353Y549227D01*
X272364Y549225D01*
X272365Y549218D01*
X273365Y548618D01*
X273372Y548619D01*
X273373Y548614D01*
X274473Y548214D01*
X274479Y548216D01*
X274481Y548212D01*
X275581Y548012D01*
X275585Y548013D01*
X275587Y548011D01*
X276987Y547911D01*
X276990Y547913D01*
X276993Y547911D01*
X278793Y548011D01*
G37*
G36*
X579713Y705491D02*
X579713Y705491D01*
X579728Y705504D01*
X579740Y705501D01*
X580540Y706101D01*
X580547Y706125D01*
X580558Y706131D01*
X580758Y707231D01*
X580755Y707237D01*
X580759Y707240D01*
X580759Y712040D01*
X580756Y712045D01*
X580759Y712048D01*
X580559Y713248D01*
X580554Y713253D01*
X580556Y713257D01*
X580156Y714357D01*
X580150Y714361D01*
X580152Y714365D01*
X579552Y715365D01*
X579544Y715369D01*
X579545Y715375D01*
X578645Y716275D01*
X578636Y716276D01*
X578635Y716282D01*
X577635Y716882D01*
X577629Y716882D01*
X577628Y716886D01*
X576628Y717286D01*
X576621Y717284D01*
X576618Y717289D01*
X575418Y717489D01*
X575408Y717483D01*
X575402Y717489D01*
X574202Y717289D01*
X574191Y717277D01*
X574182Y717280D01*
X573191Y716587D01*
X572634Y716494D01*
X572152Y717266D01*
X572124Y717277D01*
X572117Y717289D01*
X570717Y717489D01*
X570708Y717484D01*
X570703Y717489D01*
X569403Y717289D01*
X569384Y717270D01*
X569371Y717270D01*
X568771Y716470D01*
X568771Y716450D01*
X568761Y716444D01*
X568661Y715244D01*
X568663Y715241D01*
X568661Y715240D01*
X568661Y706940D01*
X568667Y706932D01*
X568663Y706926D01*
X568963Y705926D01*
X568985Y705909D01*
X568988Y705896D01*
X569988Y705396D01*
X570006Y705399D01*
X570013Y705391D01*
X571613Y705491D01*
X571626Y705502D01*
X571636Y705498D01*
X572436Y705998D01*
X572446Y706024D01*
X572458Y706030D01*
X572658Y707030D01*
X572655Y707037D01*
X572659Y707040D01*
X572659Y710738D01*
X572758Y711926D01*
X573246Y712902D01*
X574319Y713390D01*
X575493Y713292D01*
X576367Y712710D01*
X576661Y711534D01*
X576661Y706740D01*
X576670Y706728D01*
X576665Y706720D01*
X577065Y705820D01*
X577089Y705807D01*
X577093Y705794D01*
X578193Y705394D01*
X578207Y705398D01*
X578213Y705391D01*
X579713Y705491D01*
G37*
G36*
X558516Y705398D02*
X558516Y705398D01*
X558523Y705393D01*
X559623Y705693D01*
X559628Y705699D01*
X559634Y705697D01*
X560731Y706295D01*
X561190Y706479D01*
X561668Y705714D01*
X561693Y705705D01*
X561698Y705692D01*
X562898Y705392D01*
X562911Y705398D01*
X562917Y705391D01*
X564317Y705591D01*
X564332Y705607D01*
X564345Y705605D01*
X565045Y706305D01*
X565048Y706326D01*
X565058Y706331D01*
X565258Y707431D01*
X565255Y707437D01*
X565259Y707440D01*
X565259Y715840D01*
X565253Y715848D01*
X565257Y715854D01*
X564957Y716854D01*
X564936Y716870D01*
X564934Y716883D01*
X564034Y717383D01*
X564017Y717381D01*
X564010Y717389D01*
X562510Y717389D01*
X562499Y717381D01*
X562492Y717386D01*
X561492Y716986D01*
X561476Y716959D01*
X561463Y716954D01*
X561163Y715954D01*
X561166Y715946D01*
X561162Y715944D01*
X561163Y715943D01*
X561161Y715941D01*
X561061Y712341D01*
X561061Y712340D01*
X561061Y711149D01*
X560670Y710075D01*
X559698Y709589D01*
X558425Y709589D01*
X557551Y710172D01*
X557159Y711249D01*
X557159Y716140D01*
X557150Y716152D01*
X557155Y716160D01*
X556755Y717060D01*
X556731Y717073D01*
X556727Y717086D01*
X555627Y717486D01*
X555611Y717481D01*
X555604Y717489D01*
X554104Y717289D01*
X554089Y717275D01*
X554078Y717277D01*
X553378Y716677D01*
X553373Y716655D01*
X553362Y716650D01*
X553162Y715650D01*
X553165Y715643D01*
X553161Y715640D01*
X553161Y710740D01*
X553164Y710735D01*
X553161Y710732D01*
X553361Y709532D01*
X553369Y709525D01*
X553366Y709518D01*
X553866Y708518D01*
X553869Y708517D01*
X553868Y708515D01*
X554468Y707515D01*
X554474Y707512D01*
X554473Y707507D01*
X555273Y706607D01*
X555280Y706606D01*
X555280Y706601D01*
X556180Y705901D01*
X556191Y705901D01*
X556193Y705894D01*
X557293Y705494D01*
X557302Y705497D01*
X557306Y705491D01*
X558506Y705391D01*
X558516Y705398D01*
G37*
G36*
X645913Y705491D02*
X645913Y705491D01*
X645930Y705505D01*
X645942Y705503D01*
X646642Y706103D01*
X646645Y706116D01*
X646647Y706125D01*
X646658Y706131D01*
X646858Y707231D01*
X646855Y707237D01*
X646859Y707240D01*
X646859Y712040D01*
X646856Y712045D01*
X646859Y712048D01*
X646659Y713248D01*
X646654Y713253D01*
X646656Y713257D01*
X646256Y714357D01*
X646250Y714361D01*
X646252Y714365D01*
X645652Y715365D01*
X645646Y715368D01*
X645647Y715373D01*
X644847Y716273D01*
X644836Y716275D01*
X644835Y716282D01*
X643835Y716882D01*
X643828Y716881D01*
X643827Y716886D01*
X642727Y717286D01*
X642720Y717284D01*
X642718Y717289D01*
X641518Y717489D01*
X641508Y717483D01*
X641502Y717489D01*
X640302Y717289D01*
X640290Y717276D01*
X640280Y717279D01*
X639390Y716587D01*
X638735Y716493D01*
X638252Y717266D01*
X638224Y717277D01*
X638218Y717289D01*
X636918Y717489D01*
X636908Y717484D01*
X636903Y717489D01*
X635503Y717289D01*
X635484Y717270D01*
X635471Y717270D01*
X634871Y716470D01*
X634871Y716448D01*
X634861Y716440D01*
X634861Y706940D01*
X634867Y706932D01*
X634863Y706926D01*
X635163Y705926D01*
X635184Y705910D01*
X635186Y705897D01*
X636086Y705397D01*
X636105Y705400D01*
X636113Y705391D01*
X637713Y705491D01*
X637726Y705502D01*
X637736Y705498D01*
X638536Y705998D01*
X638545Y706021D01*
X638557Y706026D01*
X638857Y707026D01*
X638854Y707036D01*
X638859Y707040D01*
X638859Y711926D01*
X639445Y712902D01*
X640420Y713390D01*
X641593Y713292D01*
X642467Y712710D01*
X642761Y711534D01*
X642761Y707940D01*
X642763Y707937D01*
X642761Y707936D01*
X642861Y706736D01*
X642867Y706729D01*
X642863Y706724D01*
X643163Y705824D01*
X643189Y705807D01*
X643193Y705794D01*
X644293Y705394D01*
X644307Y705398D01*
X644313Y705391D01*
X645913Y705491D01*
G37*
G36*
X305294Y548011D02*
X305294Y548011D01*
X305297Y548013D01*
X305299Y548012D01*
X306399Y548212D01*
X306404Y548217D01*
X306408Y548214D01*
X307408Y548614D01*
X307414Y548623D01*
X307420Y548621D01*
X308320Y549321D01*
X308324Y549334D01*
X308332Y549335D01*
X308932Y550335D01*
X308931Y550347D01*
X308938Y550351D01*
X309138Y551451D01*
X309135Y551457D01*
X309139Y551460D01*
X309139Y552760D01*
X309133Y552768D01*
X309138Y552773D01*
X308838Y553873D01*
X308827Y553881D01*
X308829Y553890D01*
X308129Y554790D01*
X308115Y554794D01*
X308114Y554803D01*
X307014Y555403D01*
X307005Y555402D01*
X307003Y555408D01*
X305903Y555708D01*
X305900Y555706D01*
X305899Y555708D01*
X304801Y555908D01*
X303430Y556300D01*
X303250Y556931D01*
X304196Y557309D01*
X305479Y557112D01*
X306674Y556713D01*
X306685Y556717D01*
X306690Y556711D01*
X307590Y556711D01*
X307616Y556731D01*
X307630Y556731D01*
X308430Y557831D01*
X308430Y557841D01*
X308436Y557846D01*
X308437Y557846D01*
X308737Y558846D01*
X308723Y558883D01*
X308725Y558895D01*
X307925Y559695D01*
X307909Y559697D01*
X307906Y559707D01*
X306706Y560107D01*
X306704Y560106D01*
X306703Y560108D01*
X305603Y560408D01*
X305594Y560404D01*
X305590Y560409D01*
X304390Y560409D01*
X304388Y560408D01*
X304387Y560409D01*
X302887Y560309D01*
X302882Y560305D01*
X302879Y560308D01*
X301579Y560008D01*
X301572Y560000D01*
X301566Y560003D01*
X300666Y559503D01*
X300662Y559494D01*
X300655Y559495D01*
X299955Y558795D01*
X299953Y558781D01*
X299944Y558778D01*
X299544Y557778D01*
X299545Y557776D01*
X299543Y557774D01*
X299547Y557769D01*
X299547Y557768D01*
X299541Y557764D01*
X299441Y556664D01*
X299446Y556657D01*
X299441Y556652D01*
X299641Y555452D01*
X299649Y555445D01*
X299646Y555438D01*
X300146Y554438D01*
X300154Y554434D01*
X300153Y554427D01*
X300953Y553527D01*
X300964Y553525D01*
X300965Y553518D01*
X301965Y552918D01*
X301972Y552919D01*
X301973Y552914D01*
X303073Y552514D01*
X303078Y552515D01*
X303079Y552512D01*
X304377Y552212D01*
X305323Y551929D01*
X305056Y551307D01*
X303797Y551210D01*
X302711Y551605D01*
X301515Y552303D01*
X301497Y552300D01*
X301490Y552309D01*
X300390Y552309D01*
X300365Y552290D01*
X300352Y552291D01*
X299552Y551291D01*
X299551Y551280D01*
X299544Y551278D01*
X299144Y550278D01*
X299150Y550256D01*
X299143Y550246D01*
X299443Y549246D01*
X299464Y549230D01*
X299466Y549217D01*
X300566Y548617D01*
X300572Y548618D01*
X300573Y548614D01*
X301673Y548214D01*
X301680Y548216D01*
X301682Y548211D01*
X302882Y548011D01*
X302884Y548013D01*
X302886Y548011D01*
X303986Y547911D01*
X303991Y547914D01*
X303994Y547911D01*
X305294Y548011D01*
G37*
G36*
X291794Y548011D02*
X291794Y548011D01*
X291797Y548013D01*
X291799Y548012D01*
X292899Y548212D01*
X292904Y548217D01*
X292908Y548214D01*
X293908Y548614D01*
X293914Y548623D01*
X293920Y548621D01*
X294820Y549321D01*
X294824Y549334D01*
X294832Y549335D01*
X295432Y550335D01*
X295431Y550347D01*
X295438Y550351D01*
X295638Y551451D01*
X295635Y551457D01*
X295639Y551460D01*
X295639Y552760D01*
X295633Y552768D01*
X295638Y552773D01*
X295338Y553873D01*
X295327Y553881D01*
X295329Y553890D01*
X294629Y554790D01*
X294615Y554794D01*
X294614Y554803D01*
X293514Y555403D01*
X293505Y555402D01*
X293503Y555408D01*
X292403Y555708D01*
X292400Y555706D01*
X292399Y555708D01*
X291301Y555908D01*
X289926Y556301D01*
X289656Y556932D01*
X290695Y557309D01*
X291979Y557112D01*
X293174Y556713D01*
X293185Y556717D01*
X293190Y556711D01*
X294090Y556711D01*
X294116Y556731D01*
X294130Y556731D01*
X294930Y557831D01*
X294930Y557841D01*
X294937Y557846D01*
X294935Y557849D01*
X294938Y557850D01*
X295138Y558850D01*
X295123Y558882D01*
X295125Y558895D01*
X294325Y559695D01*
X294310Y559697D01*
X294307Y559706D01*
X293207Y560106D01*
X293204Y560105D01*
X293203Y560108D01*
X292103Y560408D01*
X292094Y560404D01*
X292090Y560409D01*
X290890Y560409D01*
X290888Y560408D01*
X290887Y560409D01*
X289387Y560309D01*
X289382Y560305D01*
X289379Y560308D01*
X288079Y560008D01*
X288072Y560000D01*
X288066Y560003D01*
X287166Y559503D01*
X287162Y559494D01*
X287155Y559495D01*
X286455Y558795D01*
X286453Y558781D01*
X286444Y558778D01*
X286044Y557778D01*
X286045Y557776D01*
X286043Y557774D01*
X286047Y557769D01*
X286047Y557768D01*
X286041Y557764D01*
X285941Y556664D01*
X285946Y556657D01*
X285941Y556652D01*
X286141Y555452D01*
X286149Y555445D01*
X286146Y555438D01*
X286646Y554438D01*
X286652Y554435D01*
X286651Y554430D01*
X287351Y553530D01*
X287365Y553526D01*
X287366Y553517D01*
X288466Y552917D01*
X288472Y552918D01*
X288473Y552914D01*
X289573Y552514D01*
X289578Y552515D01*
X289579Y552512D01*
X290877Y552212D01*
X291823Y551929D01*
X291557Y551307D01*
X290197Y551210D01*
X289111Y551605D01*
X287915Y552303D01*
X287897Y552300D01*
X287890Y552309D01*
X286890Y552309D01*
X286865Y552290D01*
X286852Y552291D01*
X286052Y551291D01*
X286051Y551280D01*
X286044Y551278D01*
X285644Y550278D01*
X285650Y550256D01*
X285643Y550246D01*
X285943Y549246D01*
X285964Y549230D01*
X285966Y549217D01*
X287066Y548617D01*
X287072Y548618D01*
X287073Y548614D01*
X288173Y548214D01*
X288180Y548216D01*
X288182Y548211D01*
X289382Y548011D01*
X289384Y548013D01*
X289386Y548011D01*
X290486Y547911D01*
X290491Y547914D01*
X290494Y547911D01*
X291794Y548011D01*
G37*
G36*
X605714Y705491D02*
X605714Y705491D01*
X605728Y705504D01*
X605740Y705501D01*
X606540Y706101D01*
X606547Y706127D01*
X606559Y706133D01*
X606759Y707533D01*
X606753Y707544D01*
X606752Y707545D01*
X606758Y707552D01*
X606458Y708752D01*
X606433Y708772D01*
X606430Y708785D01*
X605530Y709185D01*
X605521Y709183D01*
X605518Y709189D01*
X604342Y709385D01*
X603859Y710253D01*
X603859Y712532D01*
X604144Y713387D01*
X605206Y713291D01*
X605213Y713296D01*
X605218Y713291D01*
X606418Y713491D01*
X606431Y713505D01*
X606442Y713503D01*
X607142Y714103D01*
X607147Y714127D01*
X607159Y714133D01*
X607359Y715533D01*
X607352Y715544D01*
X607358Y715551D01*
X607058Y716851D01*
X607036Y716870D01*
X607034Y716883D01*
X606134Y717383D01*
X606120Y717381D01*
X606115Y717389D01*
X605115Y717489D01*
X605109Y717486D01*
X605106Y717489D01*
X603859Y717393D01*
X603859Y719640D01*
X603857Y719643D01*
X603859Y719644D01*
X603759Y720844D01*
X603740Y720866D01*
X603740Y720879D01*
X602940Y721479D01*
X602920Y721479D01*
X602914Y721489D01*
X601514Y721589D01*
X601504Y721583D01*
X601498Y721588D01*
X600298Y721288D01*
X600278Y721263D01*
X600265Y721260D01*
X599865Y720360D01*
X599868Y720346D01*
X599861Y720340D01*
X599861Y717958D01*
X599384Y717385D01*
X598301Y717188D01*
X598279Y717165D01*
X598266Y717162D01*
X597766Y716162D01*
X597769Y716146D01*
X597761Y716140D01*
X597761Y714840D01*
X597767Y714832D01*
X597763Y714827D01*
X598063Y713727D01*
X598090Y713706D01*
X598094Y713693D01*
X599861Y713105D01*
X599861Y709440D01*
X599864Y709435D01*
X599861Y709433D01*
X600061Y708133D01*
X600069Y708125D01*
X600066Y708118D01*
X600566Y707118D01*
X600574Y707114D01*
X600573Y707108D01*
X601173Y706408D01*
X601182Y706406D01*
X601183Y706399D01*
X602083Y705799D01*
X602094Y705800D01*
X602097Y705793D01*
X603197Y705493D01*
X603204Y705495D01*
X603206Y705491D01*
X604506Y705391D01*
X604511Y705394D01*
X604514Y705391D01*
X605714Y705491D01*
G37*
G36*
X590817Y705396D02*
X590817Y705396D01*
X590822Y705392D01*
X592022Y705692D01*
X592027Y705698D01*
X592032Y705696D01*
X593032Y706196D01*
X593035Y706201D01*
X593039Y706200D01*
X594139Y707000D01*
X594144Y707017D01*
X594155Y707020D01*
X594555Y707920D01*
X594551Y707938D01*
X594552Y707938D01*
X594550Y707941D01*
X594548Y707948D01*
X594555Y707960D01*
X594055Y709060D01*
X594045Y709066D01*
X594046Y709073D01*
X593046Y710173D01*
X593030Y710176D01*
X593027Y710186D01*
X592227Y710486D01*
X592199Y710478D01*
X592186Y710483D01*
X591090Y709885D01*
X590008Y709492D01*
X588933Y709785D01*
X587959Y710564D01*
X587959Y711731D01*
X588351Y712809D01*
X589326Y713491D01*
X590498Y713491D01*
X591688Y712896D01*
X591693Y712897D01*
X591694Y712893D01*
X592594Y712593D01*
X592625Y712603D01*
X592637Y712599D01*
X593537Y713199D01*
X593543Y713214D01*
X593553Y713215D01*
X594253Y714415D01*
X594251Y714427D01*
X594258Y714431D01*
X594458Y715531D01*
X594447Y715555D01*
X594451Y715567D01*
X593851Y716467D01*
X593835Y716473D01*
X593834Y716483D01*
X592734Y717083D01*
X592727Y717082D01*
X592726Y717087D01*
X591526Y717487D01*
X591521Y717485D01*
X591519Y717488D01*
X590419Y717688D01*
X590413Y717685D01*
X590410Y717689D01*
X589210Y717689D01*
X589202Y717683D01*
X589197Y717688D01*
X588097Y717388D01*
X588093Y717383D01*
X588090Y717385D01*
X586990Y716885D01*
X586987Y716880D01*
X586984Y716882D01*
X585884Y716182D01*
X585881Y716174D01*
X585875Y716175D01*
X585075Y715375D01*
X585074Y715365D01*
X585067Y715364D01*
X584467Y714264D01*
X584468Y714258D01*
X584464Y714257D01*
X584064Y713157D01*
X584066Y713150D01*
X584061Y713148D01*
X583861Y711948D01*
X583866Y711940D01*
X583861Y711936D01*
X583961Y710736D01*
X583963Y710733D01*
X583962Y710731D01*
X584162Y709631D01*
X584168Y709625D01*
X584165Y709620D01*
X584665Y708520D01*
X584671Y708516D01*
X584670Y708512D01*
X585370Y707512D01*
X585378Y707509D01*
X585377Y707503D01*
X586277Y706703D01*
X586286Y706703D01*
X586286Y706697D01*
X587386Y706097D01*
X587389Y706097D01*
X587390Y706095D01*
X588490Y705595D01*
X588498Y705597D01*
X588501Y705592D01*
X589601Y705392D01*
X589607Y705395D01*
X589610Y705391D01*
X590810Y705391D01*
X590817Y705396D01*
G37*
G36*
X263097Y547916D02*
X263097Y547916D01*
X263102Y547912D01*
X264302Y548212D01*
X264307Y548218D01*
X264312Y548216D01*
X265312Y548716D01*
X265315Y548723D01*
X265321Y548722D01*
X266321Y549522D01*
X266325Y549538D01*
X266335Y549540D01*
X266735Y550440D01*
X266731Y550457D01*
X266733Y550458D01*
X266730Y550463D01*
X266729Y550466D01*
X266736Y550477D01*
X266336Y551577D01*
X266325Y551584D01*
X266326Y551593D01*
X265326Y552693D01*
X265310Y552696D01*
X265307Y552706D01*
X264507Y553006D01*
X264479Y552998D01*
X264466Y553003D01*
X263370Y552405D01*
X262288Y552012D01*
X261213Y552305D01*
X260239Y553084D01*
X260239Y554251D01*
X260631Y555329D01*
X261606Y556011D01*
X262777Y556011D01*
X263866Y555417D01*
X263874Y555418D01*
X263876Y555413D01*
X264876Y555113D01*
X264907Y555124D01*
X264920Y555121D01*
X265720Y555721D01*
X265723Y555732D01*
X265731Y555733D01*
X266531Y556933D01*
X266530Y556947D01*
X266538Y556951D01*
X266738Y558051D01*
X266725Y558077D01*
X266729Y558090D01*
X266029Y558990D01*
X266016Y558994D01*
X266015Y559002D01*
X265015Y559602D01*
X265007Y559601D01*
X265006Y559607D01*
X263806Y560007D01*
X263800Y560005D01*
X263798Y560009D01*
X262598Y560209D01*
X262593Y560206D01*
X262590Y560209D01*
X261490Y560209D01*
X261483Y560204D01*
X261478Y560208D01*
X260278Y559908D01*
X260274Y559903D01*
X260270Y559905D01*
X259170Y559405D01*
X259166Y559399D01*
X259162Y559400D01*
X258162Y558700D01*
X258160Y558694D01*
X258155Y558695D01*
X257355Y557895D01*
X257354Y557885D01*
X257347Y557884D01*
X256747Y556784D01*
X256748Y556778D01*
X256744Y556777D01*
X256344Y555677D01*
X256346Y555670D01*
X256341Y555668D01*
X256141Y554468D01*
X256144Y554463D01*
X256141Y554460D01*
X256141Y553260D01*
X256147Y553252D01*
X256143Y553247D01*
X256443Y552147D01*
X256447Y552143D01*
X256445Y552140D01*
X256945Y551040D01*
X256951Y551036D01*
X256950Y551032D01*
X257650Y550032D01*
X257658Y550029D01*
X257657Y550023D01*
X258557Y549223D01*
X258564Y549223D01*
X258565Y549218D01*
X259565Y548618D01*
X259569Y548618D01*
X259570Y548615D01*
X260670Y548115D01*
X260679Y548117D01*
X260682Y548111D01*
X261882Y547911D01*
X261887Y547914D01*
X261890Y547911D01*
X263090Y547911D01*
X263097Y547916D01*
G37*
%LPC*%
G36*
X407601Y76203D02*
X407601Y76203D01*
X407286Y76213D01*
X406950Y76262D01*
X406404Y76353D01*
X406390Y76362D01*
X404556Y76671D01*
X404068Y76847D01*
X401825Y78256D01*
X400397Y80447D01*
X400221Y80976D01*
X399763Y83564D01*
X399792Y84073D01*
X400240Y86651D01*
X400466Y87131D01*
X400684Y87498D01*
X400684Y87502D01*
X400687Y87504D01*
X400687Y87506D01*
X400702Y87515D01*
X401885Y89294D01*
X404078Y90714D01*
X404586Y90899D01*
X406461Y91218D01*
X406471Y91227D01*
X406490Y91227D01*
X406494Y91230D01*
X406501Y91228D01*
X407128Y91338D01*
X407663Y91377D01*
X408332Y91377D01*
X408332Y91270D01*
X408325Y87384D01*
X407502Y87413D01*
X407496Y87409D01*
X407486Y87411D01*
X406486Y87181D01*
X406479Y87174D01*
X406463Y87171D01*
X405623Y86561D01*
X405620Y86554D01*
X405611Y86549D01*
X405261Y86109D01*
X405260Y86103D01*
X405254Y86098D01*
X404794Y85178D01*
X404795Y85169D01*
X404788Y85158D01*
X404598Y83658D01*
X404601Y83651D01*
X404598Y83640D01*
X404768Y82540D01*
X404771Y82537D01*
X404770Y82530D01*
X404950Y81980D01*
X404954Y81977D01*
X404955Y81970D01*
X405415Y81110D01*
X405420Y81108D01*
X405421Y81103D01*
X405426Y81100D01*
X405431Y81091D01*
X406281Y80421D01*
X406290Y80420D01*
X406301Y80410D01*
X406801Y80250D01*
X406804Y80251D01*
X406809Y80248D01*
X407399Y80138D01*
X407400Y80139D01*
X407403Y80138D01*
X407843Y80088D01*
X407845Y80089D01*
X407849Y80087D01*
X408340Y80078D01*
X408343Y80059D01*
X408347Y80057D01*
X408347Y76203D01*
X407601Y76203D01*
G37*
%LPD*%
G36*
X92449Y432988D02*
X92449Y432988D01*
X92456Y432983D01*
X93656Y433383D01*
X93659Y433388D01*
X93662Y433386D01*
X94262Y433686D01*
X94264Y433690D01*
X94267Y433689D01*
X94867Y434089D01*
X94871Y434099D01*
X94878Y434099D01*
X95278Y434599D01*
X95778Y435198D01*
X95778Y435207D01*
X95784Y435208D01*
X96084Y435808D01*
X96083Y435813D01*
X96087Y435814D01*
X96487Y437014D01*
X96483Y437025D01*
X96489Y437030D01*
X96489Y438230D01*
X96486Y438235D01*
X96489Y438238D01*
X96389Y438838D01*
X96385Y438841D01*
X96387Y438844D01*
X96187Y439544D01*
X96180Y439549D01*
X96182Y439555D01*
X95882Y440055D01*
X95881Y440056D01*
X95881Y440057D01*
X95481Y440657D01*
X95474Y440660D01*
X95475Y440665D01*
X94975Y441165D01*
X94971Y441165D01*
X94971Y441168D01*
X94471Y441568D01*
X94467Y441569D01*
X94467Y441571D01*
X93867Y441971D01*
X93858Y441970D01*
X93856Y441977D01*
X92656Y442377D01*
X92649Y442375D01*
X92647Y442379D01*
X91947Y442479D01*
X91942Y442476D01*
X91940Y442479D01*
X91240Y442479D01*
X91236Y442476D01*
X91233Y442479D01*
X90533Y442379D01*
X90528Y442374D01*
X90524Y442377D01*
X89324Y441977D01*
X89319Y441969D01*
X89313Y441971D01*
X88713Y441571D01*
X88712Y441568D01*
X88709Y441568D01*
X88209Y441168D01*
X88208Y441164D01*
X88205Y441165D01*
X87705Y440665D01*
X87704Y440658D01*
X87699Y440657D01*
X87299Y440057D01*
X87299Y440053D01*
X87296Y440052D01*
X86996Y439452D01*
X86997Y439448D01*
X86994Y439446D01*
X86993Y439446D01*
X86793Y438846D01*
X86795Y438839D01*
X86791Y438837D01*
X86691Y438137D01*
X86694Y438132D01*
X86691Y438130D01*
X86691Y436830D01*
X86697Y436822D01*
X86693Y436816D01*
X86893Y436116D01*
X86898Y436112D01*
X86896Y436108D01*
X87196Y435508D01*
X87199Y435507D01*
X87198Y435505D01*
X87498Y435005D01*
X87503Y435003D01*
X87502Y434998D01*
X88002Y434398D01*
X88009Y434397D01*
X88009Y434392D01*
X88509Y433992D01*
X88513Y433991D01*
X88513Y433989D01*
X89113Y433589D01*
X89117Y433589D01*
X89118Y433586D01*
X89718Y433286D01*
X89723Y433287D01*
X89724Y433283D01*
X90324Y433083D01*
X90331Y433085D01*
X90333Y433081D01*
X91033Y432981D01*
X91038Y432984D01*
X91040Y432981D01*
X92440Y432981D01*
X92449Y432988D01*
G37*
G36*
X92447Y421581D02*
X92447Y421581D01*
X92448Y421582D01*
X92448Y421581D01*
X93048Y421681D01*
X93055Y421689D01*
X93062Y421686D01*
X94262Y422286D01*
X94264Y422290D01*
X94267Y422289D01*
X94867Y422689D01*
X94871Y422699D01*
X94878Y422699D01*
X95277Y423197D01*
X95775Y423695D01*
X95776Y423707D01*
X95784Y423708D01*
X96084Y424308D01*
X96083Y424313D01*
X96087Y424314D01*
X96287Y424914D01*
X96287Y424915D01*
X96286Y424916D01*
X96287Y424916D01*
X96487Y425616D01*
X96484Y425626D01*
X96489Y425630D01*
X96489Y426730D01*
X96486Y426734D01*
X96489Y426737D01*
X96389Y427437D01*
X96384Y427442D01*
X96387Y427446D01*
X96187Y428046D01*
X96182Y428049D01*
X96184Y428052D01*
X95884Y428652D01*
X95880Y428654D01*
X95881Y428657D01*
X95481Y429257D01*
X95474Y429260D01*
X95475Y429265D01*
X94975Y429765D01*
X94971Y429765D01*
X94971Y429768D01*
X94471Y430168D01*
X94463Y430169D01*
X94462Y430174D01*
X93262Y430774D01*
X93252Y430772D01*
X93248Y430779D01*
X92648Y430879D01*
X92647Y430878D01*
X92647Y430879D01*
X91947Y430979D01*
X91942Y430976D01*
X91940Y430979D01*
X90540Y430979D01*
X90531Y430972D01*
X90524Y430977D01*
X89924Y430777D01*
X89921Y430772D01*
X89918Y430774D01*
X88718Y430174D01*
X88713Y430164D01*
X88705Y430165D01*
X87705Y429165D01*
X87705Y429161D01*
X87702Y429161D01*
X87302Y428661D01*
X87301Y428653D01*
X87296Y428652D01*
X86996Y428052D01*
X86997Y428047D01*
X86996Y428047D01*
X86993Y428046D01*
X86793Y427446D01*
X86795Y427439D01*
X86791Y427437D01*
X86691Y426737D01*
X86694Y426732D01*
X86691Y426730D01*
X86691Y425330D01*
X86698Y425321D01*
X86693Y425314D01*
X86893Y424714D01*
X86898Y424711D01*
X86896Y424708D01*
X87496Y423508D01*
X87506Y423503D01*
X87505Y423495D01*
X88505Y422495D01*
X88517Y422494D01*
X88518Y422486D01*
X89718Y421886D01*
X89723Y421887D01*
X89724Y421883D01*
X90324Y421683D01*
X90331Y421685D01*
X90333Y421681D01*
X91733Y421481D01*
X91742Y421486D01*
X91747Y421481D01*
X92447Y421581D01*
G37*
%LPC*%
G36*
X394330Y76383D02*
X394330Y76383D01*
X393923Y76383D01*
X393923Y91237D01*
X398757Y91237D01*
X398757Y87550D01*
X398760Y87546D01*
X398757Y87540D01*
X398757Y76373D01*
X394330Y76383D01*
G37*
%LPD*%
%LPC*%
G36*
X388074Y76383D02*
X388074Y76383D01*
X388073Y91227D01*
X391650Y91227D01*
X391667Y91238D01*
X391670Y91237D01*
X392867Y91237D01*
X392867Y76383D01*
X388074Y76383D01*
G37*
%LPD*%
G36*
X90647Y444281D02*
X90647Y444281D01*
X90655Y444289D01*
X90662Y444286D01*
X91262Y444586D01*
X91265Y444593D01*
X91271Y444592D01*
X91743Y444969D01*
X92013Y444789D01*
X92022Y444790D01*
X92024Y444783D01*
X92624Y444583D01*
X92631Y444585D01*
X92633Y444581D01*
X93333Y444481D01*
X93338Y444484D01*
X93340Y444481D01*
X94040Y444481D01*
X94053Y444490D01*
X94062Y444486D01*
X95262Y445086D01*
X95267Y445096D01*
X95275Y445095D01*
X95775Y445595D01*
X95776Y445607D01*
X95784Y445608D01*
X96084Y446208D01*
X96083Y446213D01*
X96087Y446214D01*
X96287Y446814D01*
X96284Y446824D01*
X96287Y446827D01*
X96287Y446828D01*
X96289Y446830D01*
X96289Y451130D01*
X96278Y451145D01*
X96282Y451155D01*
X95982Y451655D01*
X95954Y451667D01*
X95948Y451679D01*
X95348Y451779D01*
X95343Y451776D01*
X95340Y451779D01*
X87140Y451779D01*
X87114Y451760D01*
X87101Y451760D01*
X86801Y451360D01*
X86801Y451342D01*
X86798Y451340D01*
X86791Y451336D01*
X86691Y450536D01*
X86693Y450532D01*
X86691Y450530D01*
X86691Y447130D01*
X86694Y447126D01*
X86691Y447123D01*
X86791Y446423D01*
X86796Y446418D01*
X86793Y446414D01*
X86993Y445814D01*
X87001Y445809D01*
X86999Y445803D01*
X87399Y445203D01*
X87409Y445199D01*
X87409Y445192D01*
X87909Y444792D01*
X87913Y444791D01*
X87913Y444789D01*
X88513Y444389D01*
X88528Y444390D01*
X88533Y444381D01*
X89933Y444181D01*
X89942Y444186D01*
X89947Y444181D01*
X90647Y444281D01*
G37*
G36*
X230897Y548111D02*
X230897Y548111D01*
X230911Y548125D01*
X230922Y548123D01*
X231722Y548823D01*
X231728Y548852D01*
X231739Y548860D01*
X231739Y554648D01*
X232228Y555625D01*
X233200Y556208D01*
X234380Y556012D01*
X235477Y555713D01*
X235504Y555724D01*
X235517Y555719D01*
X236417Y556319D01*
X236424Y556338D01*
X236435Y556341D01*
X236935Y557541D01*
X236934Y557548D01*
X236937Y557550D01*
X236933Y557556D01*
X236939Y557560D01*
X236939Y558760D01*
X236929Y558774D01*
X236933Y558784D01*
X236433Y559684D01*
X236407Y559695D01*
X236402Y559708D01*
X235202Y560008D01*
X235197Y560006D01*
X235194Y560009D01*
X234094Y560109D01*
X234082Y560101D01*
X234074Y560107D01*
X232874Y559707D01*
X232868Y559697D01*
X232860Y559699D01*
X231994Y559026D01*
X231625Y559395D01*
X231617Y559396D01*
X231616Y559402D01*
X230816Y559902D01*
X230797Y559900D01*
X230790Y559909D01*
X229190Y559909D01*
X229182Y559903D01*
X229176Y559907D01*
X228176Y559607D01*
X228158Y559583D01*
X228145Y559580D01*
X227745Y558680D01*
X227748Y558666D01*
X227741Y558660D01*
X227741Y549060D01*
X227753Y549044D01*
X227749Y549033D01*
X228349Y548133D01*
X228375Y548124D01*
X228381Y548112D01*
X229481Y547912D01*
X229491Y547917D01*
X229497Y547911D01*
X230897Y548111D01*
G37*
G36*
X691917Y705591D02*
X691917Y705591D01*
X691932Y705607D01*
X691945Y705605D01*
X692645Y706305D01*
X692648Y706329D01*
X692659Y706336D01*
X692759Y707436D01*
X692757Y707438D01*
X692759Y707440D01*
X692759Y712131D01*
X693149Y713105D01*
X694218Y713688D01*
X695299Y713492D01*
X696397Y713193D01*
X696423Y713203D01*
X696435Y713198D01*
X697435Y713798D01*
X697444Y713820D01*
X697457Y713824D01*
X697857Y715024D01*
X697855Y715029D01*
X697858Y715030D01*
X697855Y715034D01*
X697859Y715036D01*
X697959Y716236D01*
X697947Y716255D01*
X697951Y716267D01*
X697351Y717167D01*
X697328Y717175D01*
X697323Y717188D01*
X696223Y717488D01*
X696217Y717485D01*
X696214Y717489D01*
X695114Y717589D01*
X695102Y717581D01*
X695094Y717587D01*
X693894Y717187D01*
X693889Y717178D01*
X693882Y717180D01*
X692916Y716504D01*
X692545Y716875D01*
X692537Y716876D01*
X692536Y716882D01*
X691736Y717382D01*
X691717Y717380D01*
X691710Y717389D01*
X690210Y717389D01*
X690202Y717383D01*
X690196Y717387D01*
X689196Y717087D01*
X689178Y717063D01*
X689165Y717060D01*
X688765Y716160D01*
X688768Y716146D01*
X688761Y716140D01*
X688761Y706540D01*
X688771Y706526D01*
X688767Y706516D01*
X689267Y705616D01*
X689296Y705603D01*
X689302Y705591D01*
X690502Y705391D01*
X690512Y705397D01*
X690517Y705391D01*
X691917Y705591D01*
G37*
G36*
X332197Y548111D02*
X332197Y548111D01*
X332212Y548127D01*
X332225Y548125D01*
X332925Y548825D01*
X332928Y548849D01*
X332939Y548856D01*
X333039Y549956D01*
X333037Y549958D01*
X333039Y549960D01*
X333039Y554651D01*
X333430Y555626D01*
X334400Y556208D01*
X335580Y556012D01*
X336677Y555713D01*
X336704Y555724D01*
X336717Y555719D01*
X337617Y556319D01*
X337624Y556338D01*
X337635Y556341D01*
X338135Y557541D01*
X338134Y557548D01*
X338137Y557550D01*
X338133Y557556D01*
X338139Y557560D01*
X338139Y558760D01*
X338129Y558774D01*
X338133Y558784D01*
X337633Y559684D01*
X337607Y559695D01*
X337602Y559708D01*
X336402Y560008D01*
X336397Y560006D01*
X336394Y560009D01*
X335294Y560109D01*
X335282Y560101D01*
X335274Y560107D01*
X334074Y559707D01*
X334068Y559697D01*
X334060Y559699D01*
X333194Y559026D01*
X332825Y559395D01*
X332817Y559396D01*
X332816Y559402D01*
X332016Y559902D01*
X331997Y559900D01*
X331990Y559909D01*
X330390Y559909D01*
X330382Y559903D01*
X330376Y559907D01*
X329376Y559607D01*
X329356Y559580D01*
X329343Y559576D01*
X329043Y558676D01*
X329047Y558665D01*
X329041Y558660D01*
X329041Y549060D01*
X329051Y549046D01*
X329047Y549036D01*
X329547Y548136D01*
X329576Y548123D01*
X329582Y548111D01*
X330782Y547911D01*
X330792Y547917D01*
X330797Y547911D01*
X332197Y548111D01*
G37*
G36*
X88667Y514191D02*
X88667Y514191D01*
X88672Y514196D01*
X88676Y514193D01*
X89276Y514393D01*
X89281Y514401D01*
X89287Y514399D01*
X89887Y514799D01*
X89891Y514809D01*
X89898Y514809D01*
X90298Y515309D01*
X90299Y515328D01*
X90327Y515303D01*
X90387Y515299D01*
X90388Y515312D01*
X90401Y515313D01*
X90801Y515913D01*
X90801Y515917D01*
X90804Y515918D01*
X91104Y516518D01*
X91102Y516529D01*
X91109Y516532D01*
X91209Y517132D01*
X91208Y517133D01*
X91209Y517133D01*
X91309Y517833D01*
X91306Y517838D01*
X91309Y517840D01*
X91309Y520640D01*
X91302Y520649D01*
X91307Y520656D01*
X91107Y521256D01*
X91087Y521269D01*
X91085Y521282D01*
X90585Y521582D01*
X90567Y521580D01*
X90560Y521589D01*
X82360Y521589D01*
X82345Y521578D01*
X82335Y521582D01*
X81835Y521282D01*
X81826Y521260D01*
X81813Y521256D01*
X81613Y520656D01*
X81614Y520655D01*
X81613Y520654D01*
X81614Y520652D01*
X81618Y520641D01*
X81611Y520635D01*
X81711Y519735D01*
X81727Y519718D01*
X81725Y519705D01*
X82125Y519305D01*
X82146Y519302D01*
X82152Y519291D01*
X82752Y519191D01*
X82757Y519194D01*
X82760Y519191D01*
X84127Y519191D01*
X84311Y518731D01*
X84311Y517370D01*
X83539Y516985D01*
X81940Y516285D01*
X81929Y516264D01*
X81916Y516262D01*
X81616Y515662D01*
X81620Y515641D01*
X81611Y515632D01*
X81711Y515032D01*
X81721Y515023D01*
X81717Y515016D01*
X82117Y514316D01*
X82138Y514307D01*
X82142Y514294D01*
X82642Y514094D01*
X82663Y514100D01*
X82674Y514093D01*
X83374Y514293D01*
X83375Y514294D01*
X83376Y514293D01*
X83676Y514393D01*
X83678Y514397D01*
X83681Y514395D01*
X84971Y514991D01*
X85443Y514991D01*
X85929Y514602D01*
X85937Y514601D01*
X85938Y514596D01*
X86538Y514296D01*
X86549Y514298D01*
X86553Y514291D01*
X87953Y514091D01*
X87962Y514096D01*
X87967Y514091D01*
X88667Y514191D01*
G37*
G36*
X60354Y262474D02*
X60354Y262474D01*
X60357Y262471D01*
X61057Y262571D01*
X61058Y262572D01*
X61058Y262571D01*
X61658Y262671D01*
X61681Y262696D01*
X61694Y262698D01*
X61994Y263298D01*
X61991Y263314D01*
X61999Y263320D01*
X61999Y264020D01*
X61992Y264029D01*
X61997Y264036D01*
X61797Y264636D01*
X61770Y264654D01*
X61766Y264667D01*
X61166Y264867D01*
X61159Y264865D01*
X61157Y264869D01*
X60457Y264969D01*
X60452Y264966D01*
X60450Y264969D01*
X56604Y264969D01*
X58579Y266380D01*
X58579Y266381D01*
X58579Y266380D01*
X61279Y268380D01*
X61281Y268386D01*
X61285Y268385D01*
X61785Y268885D01*
X61787Y268901D01*
X61792Y268904D01*
X61797Y268906D01*
X61997Y269606D01*
X61994Y269616D01*
X61999Y269620D01*
X61999Y270320D01*
X61985Y270338D01*
X61988Y270351D01*
X61588Y270851D01*
X61563Y270857D01*
X61557Y270869D01*
X60857Y270969D01*
X60852Y270966D01*
X60850Y270969D01*
X53450Y270969D01*
X53445Y270966D01*
X53442Y270969D01*
X52842Y270869D01*
X52827Y270853D01*
X52815Y270855D01*
X52415Y270455D01*
X52412Y270428D01*
X52401Y270420D01*
X52401Y269520D01*
X52408Y269511D01*
X52403Y269504D01*
X52603Y268904D01*
X52623Y268891D01*
X52625Y268878D01*
X53125Y268578D01*
X53137Y268579D01*
X53138Y268578D01*
X53145Y268578D01*
X53150Y268571D01*
X57702Y268571D01*
X53020Y265059D01*
X53020Y265058D01*
X53018Y265058D01*
X52418Y264558D01*
X52412Y264528D01*
X52401Y264520D01*
X52401Y263820D01*
X52404Y263816D01*
X52401Y263814D01*
X52501Y263014D01*
X52517Y262998D01*
X52515Y262985D01*
X52915Y262585D01*
X52936Y262582D01*
X52942Y262571D01*
X53542Y262471D01*
X53547Y262474D01*
X53550Y262471D01*
X60350Y262471D01*
X60354Y262474D01*
G37*
G36*
X83378Y486205D02*
X83378Y486205D01*
X83391Y486202D01*
X83891Y486602D01*
X83895Y486617D01*
X83900Y486621D01*
X83897Y486625D01*
X83897Y486626D01*
X83909Y486632D01*
X84009Y487232D01*
X84006Y487237D01*
X84009Y487240D01*
X84009Y491291D01*
X84556Y491291D01*
X85111Y491198D01*
X85111Y489240D01*
X85114Y489236D01*
X85111Y489233D01*
X85211Y488533D01*
X85216Y488528D01*
X85213Y488524D01*
X85413Y487924D01*
X85433Y487911D01*
X85435Y487898D01*
X85935Y487598D01*
X85953Y487600D01*
X85960Y487591D01*
X86860Y487591D01*
X86875Y487602D01*
X86885Y487598D01*
X87385Y487898D01*
X87394Y487920D01*
X87407Y487924D01*
X87607Y488524D01*
X87603Y488535D01*
X87609Y488540D01*
X87609Y491200D01*
X88065Y491291D01*
X88718Y491291D01*
X88811Y490736D01*
X88811Y487340D01*
X88814Y487336D01*
X88811Y487333D01*
X88911Y486633D01*
X88927Y486618D01*
X88925Y486605D01*
X89225Y486305D01*
X89248Y486302D01*
X89255Y486291D01*
X90155Y486191D01*
X90162Y486196D01*
X90167Y486191D01*
X90867Y486291D01*
X90889Y486313D01*
X90902Y486315D01*
X91202Y486815D01*
X91202Y486818D01*
X91200Y486833D01*
X91209Y486840D01*
X91209Y493040D01*
X91196Y493058D01*
X91199Y493070D01*
X90899Y493470D01*
X90878Y493476D01*
X90874Y493487D01*
X90174Y493687D01*
X90164Y493684D01*
X90160Y493689D01*
X82660Y493689D01*
X82655Y493686D01*
X82652Y493689D01*
X82052Y493589D01*
X82037Y493573D01*
X82025Y493575D01*
X81625Y493175D01*
X81623Y493156D01*
X81613Y493148D01*
X81616Y493144D01*
X81611Y493140D01*
X81611Y486840D01*
X81620Y486827D01*
X81616Y486818D01*
X81816Y486418D01*
X81842Y486405D01*
X81846Y486393D01*
X82546Y486193D01*
X82556Y486196D01*
X82560Y486191D01*
X83360Y486191D01*
X83378Y486205D01*
G37*
G36*
X83378Y504605D02*
X83378Y504605D01*
X83391Y504602D01*
X83891Y505002D01*
X83895Y505017D01*
X83900Y505021D01*
X83897Y505025D01*
X83897Y505026D01*
X83909Y505032D01*
X84009Y505632D01*
X84006Y505637D01*
X84009Y505640D01*
X84009Y509691D01*
X85111Y509691D01*
X85111Y507640D01*
X85114Y507636D01*
X85111Y507633D01*
X85211Y506933D01*
X85216Y506928D01*
X85213Y506924D01*
X85413Y506324D01*
X85433Y506311D01*
X85435Y506298D01*
X85935Y505998D01*
X85953Y506000D01*
X85960Y505991D01*
X86860Y505991D01*
X86875Y506002D01*
X86885Y505998D01*
X87385Y506298D01*
X87394Y506320D01*
X87407Y506324D01*
X87607Y506924D01*
X87603Y506935D01*
X87609Y506940D01*
X87609Y509600D01*
X88065Y509691D01*
X88718Y509691D01*
X88811Y509136D01*
X88811Y505740D01*
X88814Y505735D01*
X88811Y505732D01*
X88911Y505132D01*
X88923Y505121D01*
X88921Y505110D01*
X89221Y504710D01*
X89248Y504703D01*
X89255Y504691D01*
X90155Y504591D01*
X90162Y504596D01*
X90167Y504591D01*
X90867Y504691D01*
X90889Y504713D01*
X90902Y504715D01*
X91202Y505215D01*
X91202Y505218D01*
X91200Y505233D01*
X91209Y505240D01*
X91209Y511440D01*
X91198Y511455D01*
X91202Y511465D01*
X90902Y511965D01*
X90874Y511977D01*
X90867Y511989D01*
X90167Y512089D01*
X90162Y512086D01*
X90160Y512089D01*
X82660Y512089D01*
X82655Y512086D01*
X82652Y512089D01*
X82052Y511989D01*
X82037Y511973D01*
X82025Y511975D01*
X81625Y511575D01*
X81623Y511556D01*
X81613Y511548D01*
X81616Y511544D01*
X81611Y511540D01*
X81611Y505340D01*
X81619Y505329D01*
X81614Y505322D01*
X81814Y504822D01*
X81842Y504805D01*
X81846Y504793D01*
X82546Y504593D01*
X82556Y504596D01*
X82560Y504591D01*
X83360Y504591D01*
X83378Y504605D01*
G37*
G36*
X57154Y335504D02*
X57154Y335504D01*
X57157Y335501D01*
X57857Y335601D01*
X57876Y335620D01*
X57889Y335620D01*
X58189Y336020D01*
X58189Y336027D01*
X58192Y336029D01*
X58189Y336032D01*
X58189Y336033D01*
X58197Y336036D01*
X58397Y336736D01*
X58394Y336746D01*
X58399Y336750D01*
X58399Y338850D01*
X58392Y338859D01*
X58397Y338866D01*
X58197Y339466D01*
X58170Y339484D01*
X58166Y339497D01*
X57566Y339697D01*
X57555Y339693D01*
X57550Y339699D01*
X56850Y339699D01*
X56829Y339683D01*
X56815Y339685D01*
X56415Y339285D01*
X56412Y339265D01*
X56402Y339257D01*
X56404Y339255D01*
X56401Y339254D01*
X56304Y337899D01*
X55080Y337899D01*
X54799Y338462D01*
X54799Y339738D01*
X55092Y340323D01*
X55585Y340915D01*
X56074Y341306D01*
X56661Y341502D01*
X57350Y341600D01*
X58040Y341502D01*
X58727Y341305D01*
X59215Y340915D01*
X59605Y340427D01*
X59802Y339740D01*
X59900Y339051D01*
X59803Y338465D01*
X59205Y337171D01*
X59210Y337150D01*
X59202Y337140D01*
X59302Y336640D01*
X59319Y336625D01*
X59318Y336612D01*
X59918Y336112D01*
X59927Y336112D01*
X59928Y336106D01*
X60528Y335806D01*
X60554Y335811D01*
X60566Y335803D01*
X61166Y336003D01*
X61178Y336022D01*
X61191Y336023D01*
X61591Y336623D01*
X61591Y336627D01*
X61594Y336628D01*
X61894Y337228D01*
X61893Y337235D01*
X61897Y337236D01*
X62097Y337935D01*
X62297Y338534D01*
X62295Y338539D01*
X62297Y338541D01*
X62294Y338546D01*
X62299Y338550D01*
X62299Y339250D01*
X62296Y339254D01*
X62299Y339257D01*
X62199Y339957D01*
X62198Y339958D01*
X62199Y339958D01*
X62099Y340558D01*
X62091Y340565D01*
X62094Y340572D01*
X61494Y341772D01*
X61490Y341774D01*
X61491Y341777D01*
X61091Y342377D01*
X61084Y342380D01*
X61085Y342385D01*
X60585Y342885D01*
X60578Y342886D01*
X60577Y342891D01*
X59977Y343291D01*
X59976Y343291D01*
X59975Y343292D01*
X59475Y343592D01*
X59466Y343591D01*
X59464Y343597D01*
X58765Y343797D01*
X58166Y343997D01*
X58155Y343993D01*
X58150Y343999D01*
X56750Y343999D01*
X56746Y343996D01*
X56743Y343999D01*
X56043Y343899D01*
X56035Y343891D01*
X56028Y343894D01*
X54228Y342994D01*
X54223Y342984D01*
X54215Y342985D01*
X53715Y342485D01*
X53715Y342481D01*
X53712Y342481D01*
X53312Y341981D01*
X53311Y341977D01*
X53309Y341977D01*
X52909Y341377D01*
X52909Y341373D01*
X52906Y341372D01*
X52606Y340772D01*
X52607Y340767D01*
X52603Y340766D01*
X52403Y340166D01*
X52407Y340155D01*
X52401Y340150D01*
X52401Y338650D01*
X52404Y338646D01*
X52401Y338643D01*
X52601Y337243D01*
X52609Y337235D01*
X52606Y337228D01*
X52906Y336628D01*
X52909Y336627D01*
X52908Y336625D01*
X53208Y336125D01*
X53219Y336120D01*
X53219Y336112D01*
X53719Y335712D01*
X53732Y335711D01*
X53734Y335703D01*
X54334Y335503D01*
X54345Y335507D01*
X54350Y335501D01*
X57150Y335501D01*
X57154Y335504D01*
G37*
G36*
X61051Y345801D02*
X61051Y345801D01*
X61055Y345804D01*
X61058Y345801D01*
X61658Y345901D01*
X61681Y345926D01*
X61694Y345928D01*
X61994Y346528D01*
X61991Y346544D01*
X61999Y346550D01*
X61999Y347250D01*
X61992Y347259D01*
X61997Y347266D01*
X61797Y347866D01*
X61770Y347884D01*
X61766Y347897D01*
X61166Y348097D01*
X61155Y348093D01*
X61150Y348099D01*
X58375Y348099D01*
X58099Y348466D01*
X58099Y351225D01*
X58466Y351501D01*
X61150Y351501D01*
X61159Y351508D01*
X61166Y351503D01*
X61766Y351703D01*
X61785Y351732D01*
X61797Y351736D01*
X61997Y352436D01*
X61994Y352446D01*
X61999Y352450D01*
X61999Y353250D01*
X61988Y353265D01*
X61992Y353275D01*
X61692Y353775D01*
X61664Y353787D01*
X61657Y353799D01*
X60957Y353899D01*
X60952Y353896D01*
X60950Y353899D01*
X53450Y353899D01*
X53445Y353896D01*
X53442Y353899D01*
X52842Y353799D01*
X52827Y353783D01*
X52815Y353785D01*
X52415Y353385D01*
X52412Y353358D01*
X52401Y353350D01*
X52401Y352450D01*
X52408Y352441D01*
X52403Y352434D01*
X52603Y351834D01*
X52623Y351821D01*
X52625Y351808D01*
X53125Y351508D01*
X53143Y351510D01*
X53150Y351501D01*
X55830Y351501D01*
X56201Y351130D01*
X56201Y348470D01*
X55830Y348099D01*
X53150Y348099D01*
X53139Y348091D01*
X53132Y348096D01*
X52632Y347896D01*
X52615Y347868D01*
X52603Y347864D01*
X52403Y347164D01*
X52406Y347154D01*
X52401Y347150D01*
X52401Y346350D01*
X52417Y346329D01*
X52415Y346315D01*
X52815Y345915D01*
X52831Y345913D01*
X52834Y345903D01*
X53434Y345703D01*
X53446Y345707D01*
X53451Y345701D01*
X61051Y345801D01*
G37*
G36*
X54385Y319974D02*
X54385Y319974D01*
X54388Y319971D01*
X54988Y320071D01*
X54995Y320079D01*
X55002Y320076D01*
X55602Y320376D01*
X55608Y320389D01*
X55618Y320388D01*
X56103Y320971D01*
X56456Y320971D01*
X56842Y320489D01*
X56856Y320486D01*
X56858Y320476D01*
X57458Y320176D01*
X57474Y320179D01*
X57480Y320171D01*
X58180Y320171D01*
X58184Y320174D01*
X58187Y320171D01*
X58887Y320271D01*
X58895Y320279D01*
X58902Y320276D01*
X59502Y320576D01*
X59507Y320586D01*
X59515Y320585D01*
X60014Y321084D01*
X61013Y321983D01*
X61018Y322012D01*
X61029Y322020D01*
X61029Y324120D01*
X61022Y324129D01*
X61027Y324136D01*
X60827Y324735D01*
X60627Y325434D01*
X60616Y325442D01*
X60618Y325451D01*
X60218Y325951D01*
X60214Y325952D01*
X60215Y325955D01*
X59715Y326455D01*
X59702Y326457D01*
X59699Y326465D01*
X58999Y326765D01*
X58992Y326763D01*
X58990Y326768D01*
X58490Y326868D01*
X58484Y326866D01*
X58474Y326866D01*
X58464Y326858D01*
X58455Y326862D01*
X57955Y326562D01*
X57949Y326548D01*
X57939Y326547D01*
X57539Y325947D01*
X57540Y325933D01*
X57531Y325928D01*
X57431Y325328D01*
X57445Y325302D01*
X57442Y325289D01*
X57842Y324789D01*
X57849Y324787D01*
X57849Y324782D01*
X58341Y324388D01*
X58631Y323808D01*
X58631Y323137D01*
X58256Y322669D01*
X57716Y322669D01*
X57528Y323231D01*
X57429Y324026D01*
X57420Y324035D01*
X57424Y324042D01*
X57224Y324442D01*
X57204Y324452D01*
X57202Y324464D01*
X56602Y324764D01*
X56583Y324760D01*
X56575Y324769D01*
X55675Y324669D01*
X55658Y324653D01*
X55645Y324655D01*
X55245Y324255D01*
X55242Y324234D01*
X55231Y324228D01*
X55131Y323628D01*
X55132Y323627D01*
X55131Y323627D01*
X55034Y322943D01*
X54556Y322466D01*
X54000Y322373D01*
X53624Y322844D01*
X53430Y323425D01*
X53528Y324107D01*
X53816Y324779D01*
X54494Y324973D01*
X54507Y324990D01*
X54519Y324990D01*
X54819Y325390D01*
X54819Y325408D01*
X54829Y325414D01*
X54929Y326214D01*
X54922Y326226D01*
X54927Y326234D01*
X54727Y326934D01*
X54710Y326947D01*
X54710Y326959D01*
X54310Y327259D01*
X54293Y327259D01*
X54293Y327260D01*
X54287Y327260D01*
X54280Y327269D01*
X53580Y327269D01*
X53567Y327260D01*
X53558Y327264D01*
X52958Y326964D01*
X52956Y326960D01*
X52953Y326961D01*
X52353Y326561D01*
X52352Y326558D01*
X52349Y326558D01*
X51849Y326158D01*
X51846Y326146D01*
X51838Y326145D01*
X51538Y325645D01*
X51538Y325642D01*
X51536Y325642D01*
X51236Y325042D01*
X51238Y325031D01*
X51231Y325027D01*
X51131Y324327D01*
X51134Y324322D01*
X51131Y324320D01*
X51131Y322820D01*
X51138Y322811D01*
X51133Y322804D01*
X51333Y322204D01*
X51338Y322201D01*
X51336Y322198D01*
X51636Y321598D01*
X51639Y321597D01*
X51638Y321595D01*
X51938Y321095D01*
X51946Y321091D01*
X51945Y321085D01*
X52445Y320585D01*
X52452Y320584D01*
X52453Y320579D01*
X53053Y320179D01*
X53062Y320180D01*
X53064Y320173D01*
X53664Y319973D01*
X53675Y319977D01*
X53680Y319971D01*
X54380Y319971D01*
X54385Y319974D01*
G37*
G36*
X54383Y298877D02*
X54383Y298877D01*
X54388Y298871D01*
X54988Y298971D01*
X54998Y298982D01*
X55007Y298979D01*
X55607Y299379D01*
X55610Y299386D01*
X55615Y299385D01*
X56100Y299871D01*
X56456Y299871D01*
X56842Y299389D01*
X56861Y299384D01*
X56864Y299373D01*
X57464Y299173D01*
X57471Y299175D01*
X57473Y299171D01*
X58173Y299071D01*
X58186Y299078D01*
X58194Y299073D01*
X58894Y299273D01*
X58898Y299278D01*
X58902Y299276D01*
X59502Y299576D01*
X59505Y299583D01*
X59511Y299582D01*
X60011Y299982D01*
X60012Y299986D01*
X60015Y299985D01*
X61015Y300985D01*
X61019Y301012D01*
X61029Y301020D01*
X61029Y303020D01*
X61022Y303029D01*
X61027Y303036D01*
X60827Y303635D01*
X60627Y304334D01*
X60616Y304342D01*
X60618Y304351D01*
X60218Y304851D01*
X60214Y304852D01*
X60215Y304855D01*
X59715Y305355D01*
X59705Y305356D01*
X59704Y305363D01*
X59004Y305763D01*
X58993Y305761D01*
X58990Y305768D01*
X58490Y305868D01*
X58481Y305864D01*
X58472Y305864D01*
X58464Y305858D01*
X58455Y305862D01*
X57955Y305562D01*
X57948Y305546D01*
X57937Y305544D01*
X57537Y304844D01*
X57539Y304832D01*
X57531Y304828D01*
X57431Y304228D01*
X57445Y304202D01*
X57442Y304189D01*
X57842Y303689D01*
X57849Y303687D01*
X57849Y303682D01*
X58341Y303288D01*
X58631Y302708D01*
X58631Y302037D01*
X58256Y301569D01*
X57716Y301569D01*
X57528Y302131D01*
X57429Y302926D01*
X57422Y302933D01*
X57426Y302938D01*
X57226Y303438D01*
X57200Y303454D01*
X57196Y303467D01*
X56596Y303667D01*
X56581Y303662D01*
X56575Y303669D01*
X55675Y303569D01*
X55658Y303553D01*
X55645Y303555D01*
X55245Y303155D01*
X55242Y303135D01*
X55232Y303130D01*
X55132Y302630D01*
X55133Y302628D01*
X55132Y302627D01*
X55131Y302626D01*
X55033Y301843D01*
X54560Y301369D01*
X54000Y301369D01*
X53624Y301746D01*
X53430Y302423D01*
X53528Y303105D01*
X53816Y303682D01*
X54499Y303975D01*
X54508Y303990D01*
X54519Y303990D01*
X54819Y304390D01*
X54819Y304408D01*
X54829Y304414D01*
X54929Y305214D01*
X54922Y305226D01*
X54927Y305234D01*
X54727Y305934D01*
X54710Y305947D01*
X54710Y305959D01*
X54310Y306259D01*
X54283Y306259D01*
X54273Y306269D01*
X53573Y306169D01*
X53568Y306164D01*
X53564Y306167D01*
X52964Y305967D01*
X52959Y305959D01*
X52953Y305961D01*
X52353Y305561D01*
X52350Y305554D01*
X52345Y305555D01*
X51845Y305055D01*
X51844Y305046D01*
X51838Y305045D01*
X51538Y304545D01*
X51538Y304542D01*
X51536Y304542D01*
X51236Y303942D01*
X51238Y303931D01*
X51231Y303927D01*
X51131Y303227D01*
X51134Y303222D01*
X51131Y303220D01*
X51131Y301820D01*
X51137Y301812D01*
X51133Y301806D01*
X51333Y301106D01*
X51338Y301102D01*
X51336Y301098D01*
X51636Y300498D01*
X51639Y300497D01*
X51638Y300495D01*
X51938Y299995D01*
X51946Y299991D01*
X51945Y299985D01*
X52445Y299485D01*
X52457Y299484D01*
X52458Y299476D01*
X53058Y299176D01*
X53063Y299177D01*
X53064Y299173D01*
X53664Y298973D01*
X53671Y298975D01*
X53673Y298971D01*
X54373Y298871D01*
X54383Y298877D01*
G37*
G36*
X613716Y705397D02*
X613716Y705397D01*
X613722Y705392D01*
X614922Y705692D01*
X614942Y705717D01*
X614955Y705720D01*
X615355Y706620D01*
X615352Y706634D01*
X615359Y706640D01*
X615359Y716240D01*
X615349Y716254D01*
X615353Y716264D01*
X614853Y717164D01*
X614827Y717175D01*
X614822Y717188D01*
X613622Y717488D01*
X613610Y717483D01*
X613604Y717489D01*
X612104Y717289D01*
X612086Y717271D01*
X612073Y717272D01*
X611473Y716572D01*
X611471Y716551D01*
X611461Y716544D01*
X611361Y715444D01*
X611363Y715442D01*
X611361Y715440D01*
X611361Y707340D01*
X611363Y707337D01*
X611361Y707336D01*
X611461Y706236D01*
X611477Y706218D01*
X611475Y706205D01*
X612175Y705505D01*
X612200Y705502D01*
X612207Y705491D01*
X613707Y705391D01*
X613716Y705397D01*
G37*
G36*
X85466Y495891D02*
X85466Y495891D01*
X85471Y495896D01*
X85476Y495893D01*
X86076Y496093D01*
X86083Y496104D01*
X86091Y496102D01*
X86591Y496502D01*
X86593Y496509D01*
X86598Y496509D01*
X86998Y497009D01*
X86999Y497017D01*
X87004Y497018D01*
X87304Y497618D01*
X87303Y497625D01*
X87307Y497626D01*
X87507Y498326D01*
X87507Y498328D01*
X87508Y498329D01*
X87805Y499618D01*
X88189Y500098D01*
X88750Y500285D01*
X89214Y499914D01*
X89310Y499245D01*
X89116Y498664D01*
X88622Y498072D01*
X88621Y498048D01*
X88611Y498040D01*
X88611Y497440D01*
X88622Y497425D01*
X88618Y497415D01*
X88918Y496915D01*
X88934Y496908D01*
X88936Y496897D01*
X89636Y496497D01*
X89647Y496499D01*
X89650Y496492D01*
X90150Y496392D01*
X90182Y496407D01*
X90195Y496405D01*
X90695Y496905D01*
X90695Y496909D01*
X90698Y496909D01*
X91098Y497409D01*
X91099Y497423D01*
X91107Y497426D01*
X91307Y498126D01*
X91306Y498131D01*
X91309Y498133D01*
X91509Y499533D01*
X91504Y499542D01*
X91509Y499547D01*
X91409Y500247D01*
X91405Y500251D01*
X91407Y500254D01*
X91207Y500954D01*
X91200Y500959D01*
X91202Y500965D01*
X90902Y501465D01*
X90898Y501467D01*
X90898Y501471D01*
X90498Y501971D01*
X90488Y501973D01*
X90487Y501981D01*
X89887Y502381D01*
X89878Y502380D01*
X89876Y502387D01*
X89276Y502587D01*
X89270Y502585D01*
X89268Y502589D01*
X88668Y502689D01*
X88663Y502686D01*
X88656Y502686D01*
X88653Y502689D01*
X87953Y502589D01*
X87949Y502585D01*
X87946Y502587D01*
X87246Y502387D01*
X87241Y502380D01*
X87235Y502382D01*
X86735Y502082D01*
X86730Y502071D01*
X86722Y502071D01*
X86322Y501571D01*
X86321Y501563D01*
X86316Y501562D01*
X86016Y500962D01*
X86016Y500960D01*
X86015Y500959D01*
X85715Y500259D01*
X85716Y500256D01*
X85713Y500256D01*
X85513Y499656D01*
X85515Y499649D01*
X85511Y499647D01*
X85412Y498955D01*
X85127Y498384D01*
X84565Y498291D01*
X84097Y498478D01*
X83811Y499147D01*
X83907Y499822D01*
X84299Y500410D01*
X84798Y501008D01*
X84798Y501020D01*
X84806Y501022D01*
X85006Y501522D01*
X85002Y501537D01*
X85005Y501540D01*
X85003Y501542D01*
X85009Y501548D01*
X84909Y502148D01*
X84891Y502165D01*
X84892Y502178D01*
X84292Y502678D01*
X84274Y502679D01*
X84270Y502688D01*
X83770Y502788D01*
X83761Y502784D01*
X83748Y502784D01*
X83746Y502782D01*
X83741Y502785D01*
X83041Y502485D01*
X83034Y502474D01*
X83025Y502475D01*
X82625Y502075D01*
X82624Y502068D01*
X82619Y502067D01*
X82220Y501469D01*
X81822Y500971D01*
X81821Y500957D01*
X81813Y500954D01*
X81613Y500254D01*
X81616Y500244D01*
X81611Y500240D01*
X81611Y498840D01*
X81614Y498835D01*
X81611Y498832D01*
X81711Y498232D01*
X81719Y498225D01*
X81716Y498218D01*
X82316Y497018D01*
X82323Y497015D01*
X82322Y497009D01*
X82722Y496509D01*
X82732Y496507D01*
X82733Y496499D01*
X83333Y496099D01*
X83342Y496100D01*
X83344Y496093D01*
X83944Y495893D01*
X83951Y495895D01*
X83953Y495891D01*
X84653Y495791D01*
X84661Y495796D01*
X84666Y495791D01*
X85466Y495891D01*
G37*
G36*
X60871Y356117D02*
X60871Y356117D01*
X60885Y356115D01*
X61385Y356615D01*
X61386Y356627D01*
X61394Y356628D01*
X61994Y357828D01*
X61992Y357839D01*
X61999Y357843D01*
X62199Y359243D01*
X62196Y359248D01*
X62199Y359250D01*
X62199Y359850D01*
X62196Y359854D01*
X62199Y359857D01*
X62099Y360557D01*
X62094Y360562D01*
X62097Y360566D01*
X61897Y361166D01*
X61894Y361167D01*
X61895Y361169D01*
X61595Y361869D01*
X61589Y361873D01*
X61591Y361877D01*
X61191Y362477D01*
X61188Y362478D01*
X61188Y362481D01*
X60788Y362981D01*
X60781Y362983D01*
X60781Y362988D01*
X60281Y363388D01*
X60277Y363389D01*
X60277Y363391D01*
X59677Y363791D01*
X59668Y363790D01*
X59666Y363797D01*
X58466Y364197D01*
X58459Y364195D01*
X58457Y364199D01*
X57757Y364299D01*
X57752Y364296D01*
X57750Y364299D01*
X57050Y364299D01*
X57046Y364296D01*
X57043Y364299D01*
X56343Y364199D01*
X56342Y364198D01*
X56342Y364199D01*
X55742Y364099D01*
X55736Y364092D01*
X55731Y364095D01*
X55031Y363795D01*
X55028Y363791D01*
X55025Y363792D01*
X54525Y363492D01*
X54523Y363488D01*
X54519Y363488D01*
X54019Y363088D01*
X54018Y363084D01*
X54015Y363085D01*
X53515Y362585D01*
X53514Y362578D01*
X53509Y362577D01*
X53109Y361977D01*
X53109Y361973D01*
X53106Y361972D01*
X52806Y361372D01*
X52807Y361367D01*
X52803Y361366D01*
X52603Y360766D01*
X52604Y360764D01*
X52603Y360764D01*
X52403Y360064D01*
X52405Y360056D01*
X52403Y360054D01*
X52404Y360052D01*
X52401Y360050D01*
X52401Y358750D01*
X52407Y358742D01*
X52403Y358736D01*
X52803Y357336D01*
X52810Y357331D01*
X52808Y357325D01*
X53108Y356825D01*
X53112Y356823D01*
X53112Y356819D01*
X53512Y356319D01*
X53531Y356314D01*
X53534Y356303D01*
X54134Y356103D01*
X54162Y356113D01*
X54174Y356107D01*
X54874Y356507D01*
X54878Y356516D01*
X54885Y356515D01*
X55385Y357015D01*
X55387Y357034D01*
X55398Y357038D01*
X55498Y357438D01*
X55488Y357462D01*
X55493Y357474D01*
X55094Y358173D01*
X54799Y358762D01*
X54799Y360038D01*
X55093Y360625D01*
X55487Y361216D01*
X55977Y361608D01*
X56562Y361901D01*
X57938Y361901D01*
X58525Y361607D01*
X59113Y361215D01*
X59407Y360727D01*
X59702Y360135D01*
X59800Y359450D01*
X59702Y358761D01*
X59505Y358172D01*
X59109Y357577D01*
X59110Y357557D01*
X59101Y357550D01*
X59101Y357050D01*
X59117Y357029D01*
X59115Y357015D01*
X59615Y356515D01*
X59622Y356514D01*
X59623Y356509D01*
X60223Y356109D01*
X60243Y356110D01*
X60250Y356101D01*
X60850Y356101D01*
X60871Y356117D01*
G37*
G36*
X61360Y277672D02*
X61360Y277672D01*
X61375Y277689D01*
X61388Y277688D01*
X61888Y278288D01*
X61888Y278296D01*
X61889Y278296D01*
X61888Y278297D01*
X61889Y278303D01*
X61897Y278306D01*
X62097Y279006D01*
X62090Y279026D01*
X62097Y279036D01*
X61897Y279636D01*
X61873Y279651D01*
X61871Y279665D01*
X55817Y282444D01*
X55886Y282582D01*
X61170Y284975D01*
X61171Y284976D01*
X61172Y284976D01*
X61572Y285176D01*
X61577Y285186D01*
X61585Y285185D01*
X62085Y285685D01*
X62089Y285718D01*
X62099Y285728D01*
X61999Y286328D01*
X61989Y286337D01*
X61993Y286344D01*
X61593Y287044D01*
X61577Y287051D01*
X61575Y287062D01*
X61075Y287362D01*
X61051Y287360D01*
X61042Y287369D01*
X60442Y287269D01*
X60435Y287261D01*
X60428Y287264D01*
X53128Y283664D01*
X53125Y283657D01*
X53119Y283658D01*
X52619Y283258D01*
X52614Y283239D01*
X52603Y283236D01*
X52403Y282636D01*
X52408Y282620D01*
X52401Y282613D01*
X52501Y281913D01*
X52514Y281900D01*
X52512Y281889D01*
X52912Y281389D01*
X52926Y281386D01*
X52928Y281376D01*
X60128Y277776D01*
X60135Y277777D01*
X60136Y277773D01*
X60836Y277573D01*
X60852Y277579D01*
X60860Y277572D01*
X61360Y277672D01*
G37*
G36*
X60098Y308474D02*
X60098Y308474D01*
X60107Y308489D01*
X60118Y308488D01*
X60618Y309088D01*
X60618Y309102D01*
X60627Y309104D01*
X60827Y309704D01*
X60820Y309725D01*
X60827Y309736D01*
X60627Y310336D01*
X60604Y310351D01*
X60601Y310364D01*
X54547Y313243D01*
X54616Y313382D01*
X59900Y315675D01*
X59904Y315682D01*
X59910Y315681D01*
X60310Y315981D01*
X60311Y315986D01*
X60315Y315985D01*
X60815Y316485D01*
X60819Y316518D01*
X60829Y316528D01*
X60729Y317128D01*
X60719Y317137D01*
X60723Y317144D01*
X60323Y317844D01*
X60307Y317851D01*
X60305Y317862D01*
X59805Y318162D01*
X59776Y318159D01*
X59764Y318167D01*
X59164Y317967D01*
X59162Y317963D01*
X59158Y317964D01*
X51858Y314364D01*
X51855Y314357D01*
X51849Y314358D01*
X51349Y313958D01*
X51344Y313939D01*
X51333Y313936D01*
X51133Y313336D01*
X51139Y313320D01*
X51131Y313312D01*
X51231Y312712D01*
X51244Y312700D01*
X51242Y312689D01*
X51642Y312189D01*
X51652Y312187D01*
X51653Y312179D01*
X52253Y311779D01*
X52258Y311779D01*
X52259Y311776D01*
X58859Y308576D01*
X58860Y308576D01*
X58861Y308575D01*
X59561Y308275D01*
X59587Y308281D01*
X59598Y308274D01*
X60098Y308474D01*
G37*
G36*
X352515Y80000D02*
X352515Y80000D01*
X352523Y79999D01*
X353513Y80209D01*
X353521Y80216D01*
X353538Y80220D01*
X354368Y80850D01*
X354370Y80856D01*
X354378Y80860D01*
X354708Y81260D01*
X354709Y81265D01*
X354715Y81270D01*
X355225Y82190D01*
X355224Y82199D01*
X355232Y82211D01*
X355462Y83761D01*
X355459Y83768D01*
X355462Y83780D01*
X355212Y85300D01*
X355206Y85307D01*
X355205Y85321D01*
X354685Y86241D01*
X354679Y86244D01*
X354678Y86248D01*
X354678Y86251D01*
X354677Y86251D01*
X354677Y86252D01*
X354622Y86314D01*
X354565Y86376D01*
X354509Y86439D01*
X354453Y86502D01*
X354397Y86565D01*
X354341Y86627D01*
X354337Y86632D01*
X354331Y86633D01*
X354326Y86641D01*
X353496Y87231D01*
X353486Y87232D01*
X353473Y87242D01*
X352443Y87452D01*
X352436Y87449D01*
X352428Y87453D01*
X351898Y87433D01*
X351894Y87430D01*
X351889Y87432D01*
X350889Y87252D01*
X350876Y87240D01*
X350859Y87237D01*
X350852Y87222D01*
X350022Y86590D01*
X350020Y86584D01*
X350012Y86580D01*
X349682Y86180D01*
X349681Y86175D01*
X349675Y86170D01*
X349175Y85250D01*
X349176Y85241D01*
X349168Y85229D01*
X348938Y83689D01*
X348941Y83682D01*
X348938Y83669D01*
X349198Y82159D01*
X349204Y82153D01*
X349205Y82140D01*
X349705Y81230D01*
X349711Y81227D01*
X349713Y81218D01*
X349720Y81211D01*
X349776Y81148D01*
X350003Y80897D01*
X350060Y80834D01*
X350083Y80808D01*
X350090Y80806D01*
X350094Y80798D01*
X350904Y80238D01*
X350914Y80238D01*
X350926Y80229D01*
X351946Y79999D01*
X351952Y80001D01*
X351960Y79997D01*
X352510Y79997D01*
X352515Y80000D01*
G37*
G36*
X95970Y410603D02*
X95970Y410603D01*
X95982Y410605D01*
X96282Y411105D01*
X96282Y411108D01*
X96283Y411109D01*
X96282Y411111D01*
X96280Y411123D01*
X96289Y411130D01*
X96289Y418730D01*
X96286Y418735D01*
X96289Y418738D01*
X96189Y419338D01*
X96165Y419361D01*
X96162Y419374D01*
X95562Y419674D01*
X95546Y419671D01*
X95540Y419679D01*
X94840Y419679D01*
X94819Y419663D01*
X94805Y419665D01*
X94405Y419265D01*
X94402Y419243D01*
X94391Y419237D01*
X94291Y418537D01*
X94294Y418532D01*
X94291Y418530D01*
X94291Y416460D01*
X93928Y416279D01*
X87740Y416279D01*
X87735Y416276D01*
X87732Y416279D01*
X87132Y416179D01*
X87115Y416160D01*
X87102Y416161D01*
X86702Y415661D01*
X86701Y415638D01*
X86691Y415630D01*
X86691Y414930D01*
X86694Y414926D01*
X86691Y414923D01*
X86791Y414223D01*
X86821Y414194D01*
X86824Y414183D01*
X87424Y413983D01*
X87431Y413985D01*
X87433Y413981D01*
X88133Y413881D01*
X88138Y413884D01*
X88140Y413881D01*
X94198Y413881D01*
X94291Y413326D01*
X94291Y411230D01*
X94302Y411215D01*
X94298Y411205D01*
X94598Y410705D01*
X94626Y410694D01*
X94632Y410681D01*
X95232Y410581D01*
X95237Y410584D01*
X95240Y410581D01*
X95940Y410581D01*
X95970Y410603D01*
G37*
G36*
X90893Y475416D02*
X90893Y475416D01*
X90904Y475418D01*
X91204Y476018D01*
X91201Y476034D01*
X91209Y476040D01*
X91209Y483540D01*
X91206Y483544D01*
X91209Y483547D01*
X91109Y484247D01*
X91079Y484276D01*
X91076Y484287D01*
X90476Y484487D01*
X90465Y484483D01*
X90460Y484489D01*
X89760Y484489D01*
X89739Y484473D01*
X89725Y484475D01*
X89325Y484075D01*
X89322Y484053D01*
X89311Y484047D01*
X89211Y483347D01*
X89214Y483342D01*
X89211Y483340D01*
X89211Y481270D01*
X88848Y481089D01*
X82660Y481089D01*
X82655Y481086D01*
X82652Y481089D01*
X82052Y480989D01*
X82035Y480970D01*
X82022Y480971D01*
X81622Y480471D01*
X81621Y480448D01*
X81611Y480440D01*
X81611Y479740D01*
X81614Y479735D01*
X81611Y479732D01*
X81711Y479132D01*
X81736Y479109D01*
X81738Y479096D01*
X82338Y478796D01*
X82354Y478799D01*
X82360Y478791D01*
X89118Y478791D01*
X89211Y478236D01*
X89211Y476140D01*
X89220Y476127D01*
X89216Y476118D01*
X89516Y475518D01*
X89546Y475503D01*
X89552Y475491D01*
X90152Y475391D01*
X90157Y475394D01*
X90160Y475391D01*
X90860Y475391D01*
X90893Y475416D01*
G37*
G36*
X60654Y272874D02*
X60654Y272874D01*
X60657Y272871D01*
X61357Y272971D01*
X61369Y272984D01*
X61380Y272981D01*
X61780Y273281D01*
X61784Y273297D01*
X61789Y273301D01*
X61788Y273303D01*
X61797Y273306D01*
X61997Y274006D01*
X61992Y274020D01*
X61999Y274026D01*
X61899Y274826D01*
X61883Y274842D01*
X61885Y274855D01*
X61485Y275255D01*
X61458Y275259D01*
X61450Y275269D01*
X53350Y275269D01*
X53345Y275266D01*
X53342Y275269D01*
X52742Y275169D01*
X52721Y275147D01*
X52708Y275145D01*
X52408Y274645D01*
X52410Y274627D01*
X52401Y274620D01*
X52401Y273720D01*
X52408Y273711D01*
X52403Y273704D01*
X52603Y273104D01*
X52628Y273087D01*
X52632Y273074D01*
X53132Y272874D01*
X53145Y272878D01*
X53150Y272871D01*
X60650Y272871D01*
X60654Y272874D01*
G37*
%LPC*%
G36*
X91048Y435379D02*
X91048Y435379D01*
X90459Y435576D01*
X89874Y435868D01*
X89483Y436455D01*
X89187Y437045D01*
X89089Y437634D01*
X89089Y438318D01*
X89382Y438903D01*
X89777Y439397D01*
X90460Y440081D01*
X91832Y440081D01*
X92424Y439883D01*
X93013Y439687D01*
X93502Y439199D01*
X93895Y438608D01*
X94091Y438022D01*
X94091Y437338D01*
X93895Y436752D01*
X93503Y436164D01*
X93013Y435772D01*
X92425Y435477D01*
X91836Y435379D01*
X91048Y435379D01*
G37*
%LPD*%
%LPC*%
G36*
X91047Y423979D02*
X91047Y423979D01*
X90458Y424077D01*
X89874Y424467D01*
X89482Y424957D01*
X89188Y425545D01*
X89089Y426233D01*
X89089Y426818D01*
X89383Y427405D01*
X89778Y427999D01*
X90269Y428489D01*
X90452Y428581D01*
X91836Y428581D01*
X92425Y428483D01*
X93013Y428188D01*
X93503Y427796D01*
X93895Y427208D01*
X94091Y426622D01*
X94091Y425938D01*
X93895Y425352D01*
X93503Y424764D01*
X93013Y424372D01*
X92421Y424076D01*
X91835Y423880D01*
X91047Y423979D01*
G37*
%LPD*%
%LPC*%
G36*
X218934Y556683D02*
X218934Y556683D01*
X218897Y556700D01*
X218890Y556709D01*
X215439Y556709D01*
X215439Y560135D01*
X216106Y560611D01*
X218379Y560611D01*
X219457Y560121D01*
X220042Y559243D01*
X220140Y558072D01*
X219553Y557095D01*
X218963Y556701D01*
X218947Y556656D01*
X218934Y556683D01*
G37*
%LPD*%
%LPC*%
G36*
X245609Y552009D02*
X245609Y552009D01*
X244730Y552791D01*
X244240Y553770D01*
X244338Y555041D01*
X245022Y555921D01*
X246000Y556410D01*
X247171Y556312D01*
X248050Y555629D01*
X248539Y554553D01*
X248343Y553380D01*
X247659Y552500D01*
X246579Y552009D01*
X245609Y552009D01*
G37*
%LPD*%
%LPC*%
G36*
X318125Y551994D02*
X318125Y551994D01*
X318123Y551994D01*
X318123Y551997D01*
X317231Y552789D01*
X316840Y553768D01*
X316938Y555043D01*
X317523Y555921D01*
X318599Y556410D01*
X319673Y556312D01*
X320649Y555629D01*
X321040Y554553D01*
X320942Y553380D01*
X320160Y552500D01*
X319178Y552009D01*
X318190Y552009D01*
X318160Y551987D01*
X318148Y551986D01*
X318130Y551956D01*
X318125Y551994D01*
G37*
%LPD*%
%LPC*%
G36*
X706629Y709489D02*
X706629Y709489D01*
X705750Y710271D01*
X705260Y711250D01*
X705358Y712523D01*
X705943Y713401D01*
X707019Y713890D01*
X708191Y713792D01*
X709069Y713110D01*
X709460Y712033D01*
X709362Y710859D01*
X708679Y709980D01*
X707599Y709489D01*
X706629Y709489D01*
G37*
%LPD*%
%LPC*%
G36*
X624027Y709489D02*
X624027Y709489D01*
X623051Y710270D01*
X622660Y711248D01*
X622758Y712523D01*
X623343Y713401D01*
X624419Y713890D01*
X625493Y713792D01*
X626469Y713109D01*
X626860Y712033D01*
X626762Y710860D01*
X625980Y709980D01*
X624998Y709489D01*
X624027Y709489D01*
G37*
%LPD*%
G36*
X613514Y718996D02*
X613514Y718996D01*
X613519Y718992D01*
X614619Y719192D01*
X614621Y719193D01*
X614622Y719192D01*
X615022Y719292D01*
X615045Y719321D01*
X615057Y719326D01*
X615357Y720326D01*
X615354Y720336D01*
X615359Y720340D01*
X615359Y721640D01*
X615351Y721651D01*
X615356Y721658D01*
X614956Y722658D01*
X614928Y722675D01*
X614923Y722688D01*
X613823Y722988D01*
X613812Y722983D01*
X613807Y722989D01*
X612307Y722889D01*
X612292Y722877D01*
X612281Y722880D01*
X611581Y722380D01*
X611576Y722363D01*
X611563Y722353D01*
X611565Y722350D01*
X611561Y722348D01*
X611361Y721148D01*
X611364Y721143D01*
X611361Y721140D01*
X611361Y720040D01*
X611376Y720020D01*
X611373Y720007D01*
X612173Y719107D01*
X612199Y719102D01*
X612206Y719091D01*
X613506Y718991D01*
X613514Y718996D01*
G37*
%LPC*%
G36*
X89279Y446769D02*
X89279Y446769D01*
X89089Y447338D01*
X89089Y449381D01*
X93710Y449381D01*
X93891Y449018D01*
X93891Y447634D01*
X93797Y447069D01*
X93143Y446882D01*
X92685Y447065D01*
X92589Y447836D01*
X92582Y447843D01*
X92586Y447848D01*
X92386Y448348D01*
X92358Y448365D01*
X92354Y448377D01*
X91654Y448577D01*
X91636Y448570D01*
X91626Y448577D01*
X90926Y448377D01*
X90906Y448350D01*
X90893Y448346D01*
X90693Y447746D01*
X90695Y447742D01*
X90693Y447740D01*
X90697Y447735D01*
X90691Y447730D01*
X90691Y447050D01*
X90305Y446665D01*
X90301Y446637D01*
X90276Y446664D01*
X90237Y446670D01*
X90228Y446678D01*
X89842Y446581D01*
X89279Y446769D01*
G37*
%LPD*%
%LPC*%
G36*
X87377Y516589D02*
X87377Y516589D01*
X86902Y516969D01*
X86709Y517548D01*
X86709Y519191D01*
X88635Y519191D01*
X88911Y518824D01*
X88911Y517452D01*
X88623Y516877D01*
X88048Y516589D01*
X87377Y516589D01*
G37*
%LPD*%
%LPC*%
G36*
X275020Y555009D02*
X275020Y555009D01*
X274749Y555552D01*
X275617Y556516D01*
X276690Y556809D01*
X277752Y556519D01*
X278130Y555481D01*
X277376Y555009D01*
X275020Y555009D01*
G37*
%LPD*%
%LPC*%
G36*
X677840Y712489D02*
X677840Y712489D01*
X677569Y713032D01*
X678437Y713997D01*
X679411Y714289D01*
X680573Y713999D01*
X680950Y712961D01*
X680196Y712489D01*
X677840Y712489D01*
G37*
%LPD*%
D10*
X400120Y153000D02*
X362220Y153000D01*
X348820Y127600D02*
X348820Y121100D01*
X356420Y121100D01*
X413720Y120900D02*
X413720Y127800D01*
X413720Y120900D02*
X406420Y120900D01*
D11*
X361520Y110000D03*
D10*
X366000Y4800D02*
X396000Y4800D01*
X351000Y30800D02*
X351000Y47300D01*
X403500Y47300D02*
X411000Y47300D01*
X411000Y30800D01*
X358500Y47300D02*
X351000Y47300D01*
X354984Y53800D02*
X354986Y53863D01*
X354992Y53926D01*
X355002Y53989D01*
X355015Y54050D01*
X355033Y54111D01*
X355054Y54170D01*
X355079Y54229D01*
X355107Y54285D01*
X355139Y54340D01*
X355174Y54392D01*
X355213Y54442D01*
X355254Y54490D01*
X355299Y54535D01*
X355346Y54577D01*
X355395Y54616D01*
X355447Y54652D01*
X355501Y54685D01*
X355557Y54714D01*
X355615Y54740D01*
X355674Y54762D01*
X355734Y54781D01*
X355796Y54795D01*
X355858Y54806D01*
X355921Y54813D01*
X355984Y54816D01*
X356047Y54815D01*
X356110Y54810D01*
X356173Y54801D01*
X356235Y54788D01*
X356296Y54772D01*
X356356Y54752D01*
X356414Y54728D01*
X356471Y54700D01*
X356526Y54669D01*
X356579Y54635D01*
X356630Y54597D01*
X356678Y54556D01*
X356724Y54513D01*
X356767Y54466D01*
X356807Y54417D01*
X356844Y54366D01*
X356877Y54313D01*
X356907Y54257D01*
X356934Y54200D01*
X356957Y54141D01*
X356976Y54081D01*
X356992Y54019D01*
X357004Y53957D01*
X357012Y53895D01*
X357016Y53832D01*
X357016Y53768D01*
X357012Y53705D01*
X357004Y53643D01*
X356992Y53581D01*
X356976Y53519D01*
X356957Y53459D01*
X356934Y53400D01*
X356907Y53343D01*
X356877Y53287D01*
X356844Y53234D01*
X356807Y53183D01*
X356767Y53134D01*
X356724Y53087D01*
X356678Y53044D01*
X356630Y53003D01*
X356579Y52965D01*
X356526Y52931D01*
X356471Y52900D01*
X356414Y52872D01*
X356356Y52848D01*
X356296Y52828D01*
X356235Y52812D01*
X356173Y52799D01*
X356110Y52790D01*
X356047Y52785D01*
X355984Y52784D01*
X355921Y52787D01*
X355858Y52794D01*
X355796Y52805D01*
X355734Y52819D01*
X355674Y52838D01*
X355615Y52860D01*
X355557Y52886D01*
X355501Y52915D01*
X355447Y52948D01*
X355395Y52984D01*
X355346Y53023D01*
X355299Y53065D01*
X355254Y53110D01*
X355213Y53158D01*
X355174Y53208D01*
X355139Y53260D01*
X355107Y53315D01*
X355079Y53371D01*
X355054Y53430D01*
X355033Y53489D01*
X355015Y53550D01*
X355002Y53611D01*
X354992Y53674D01*
X354986Y53737D01*
X354984Y53800D01*
D12*
X179560Y462480D02*
X179560Y499980D01*
X179560Y462480D02*
X194560Y462480D01*
X384560Y462480D02*
X399560Y462480D01*
X399560Y499980D01*
D13*
X41322Y575628D02*
X33702Y575628D01*
D14*
X13962Y577908D02*
X13962Y641408D01*
X13962Y577908D02*
X48262Y577908D01*
X48262Y641408D01*
X13962Y641408D01*
D10*
X67310Y511510D02*
X67310Y486410D01*
X57310Y473710D02*
X26510Y473710D01*
X16510Y486710D02*
X16510Y511510D01*
X26510Y524510D02*
X57310Y524510D01*
X29210Y499110D02*
X29214Y499422D01*
X29225Y499733D01*
X29244Y500044D01*
X29271Y500355D01*
X29306Y500665D01*
X29347Y500973D01*
X29397Y501281D01*
X29454Y501588D01*
X29519Y501893D01*
X29591Y502196D01*
X29670Y502497D01*
X29757Y502797D01*
X29851Y503094D01*
X29952Y503389D01*
X30061Y503681D01*
X30177Y503970D01*
X30300Y504257D01*
X30429Y504540D01*
X30566Y504820D01*
X30710Y505097D01*
X30860Y505370D01*
X31017Y505639D01*
X31180Y505904D01*
X31350Y506166D01*
X31527Y506423D01*
X31709Y506675D01*
X31898Y506923D01*
X32093Y507167D01*
X32293Y507405D01*
X32500Y507639D01*
X32712Y507867D01*
X32930Y508090D01*
X33153Y508308D01*
X33381Y508520D01*
X33615Y508727D01*
X33853Y508927D01*
X34097Y509122D01*
X34345Y509311D01*
X34597Y509493D01*
X34854Y509670D01*
X35116Y509840D01*
X35381Y510003D01*
X35650Y510160D01*
X35923Y510310D01*
X36200Y510454D01*
X36480Y510591D01*
X36763Y510720D01*
X37050Y510843D01*
X37339Y510959D01*
X37631Y511068D01*
X37926Y511169D01*
X38223Y511263D01*
X38523Y511350D01*
X38824Y511429D01*
X39127Y511501D01*
X39432Y511566D01*
X39739Y511623D01*
X40047Y511673D01*
X40355Y511714D01*
X40665Y511749D01*
X40976Y511776D01*
X41287Y511795D01*
X41598Y511806D01*
X41910Y511810D01*
X42222Y511806D01*
X42533Y511795D01*
X42844Y511776D01*
X43155Y511749D01*
X43465Y511714D01*
X43773Y511673D01*
X44081Y511623D01*
X44388Y511566D01*
X44693Y511501D01*
X44996Y511429D01*
X45297Y511350D01*
X45597Y511263D01*
X45894Y511169D01*
X46189Y511068D01*
X46481Y510959D01*
X46770Y510843D01*
X47057Y510720D01*
X47340Y510591D01*
X47620Y510454D01*
X47897Y510310D01*
X48170Y510160D01*
X48439Y510003D01*
X48704Y509840D01*
X48966Y509670D01*
X49223Y509493D01*
X49475Y509311D01*
X49723Y509122D01*
X49967Y508927D01*
X50205Y508727D01*
X50439Y508520D01*
X50667Y508308D01*
X50890Y508090D01*
X51108Y507867D01*
X51320Y507639D01*
X51527Y507405D01*
X51727Y507167D01*
X51922Y506923D01*
X52111Y506675D01*
X52293Y506423D01*
X52470Y506166D01*
X52640Y505904D01*
X52803Y505639D01*
X52960Y505370D01*
X53110Y505097D01*
X53254Y504820D01*
X53391Y504540D01*
X53520Y504257D01*
X53643Y503970D01*
X53759Y503681D01*
X53868Y503389D01*
X53969Y503094D01*
X54063Y502797D01*
X54150Y502497D01*
X54229Y502196D01*
X54301Y501893D01*
X54366Y501588D01*
X54423Y501281D01*
X54473Y500973D01*
X54514Y500665D01*
X54549Y500355D01*
X54576Y500044D01*
X54595Y499733D01*
X54606Y499422D01*
X54610Y499110D01*
X54606Y498798D01*
X54595Y498487D01*
X54576Y498176D01*
X54549Y497865D01*
X54514Y497555D01*
X54473Y497247D01*
X54423Y496939D01*
X54366Y496632D01*
X54301Y496327D01*
X54229Y496024D01*
X54150Y495723D01*
X54063Y495423D01*
X53969Y495126D01*
X53868Y494831D01*
X53759Y494539D01*
X53643Y494250D01*
X53520Y493963D01*
X53391Y493680D01*
X53254Y493400D01*
X53110Y493123D01*
X52960Y492850D01*
X52803Y492581D01*
X52640Y492316D01*
X52470Y492054D01*
X52293Y491797D01*
X52111Y491545D01*
X51922Y491297D01*
X51727Y491053D01*
X51527Y490815D01*
X51320Y490581D01*
X51108Y490353D01*
X50890Y490130D01*
X50667Y489912D01*
X50439Y489700D01*
X50205Y489493D01*
X49967Y489293D01*
X49723Y489098D01*
X49475Y488909D01*
X49223Y488727D01*
X48966Y488550D01*
X48704Y488380D01*
X48439Y488217D01*
X48170Y488060D01*
X47897Y487910D01*
X47620Y487766D01*
X47340Y487629D01*
X47057Y487500D01*
X46770Y487377D01*
X46481Y487261D01*
X46189Y487152D01*
X45894Y487051D01*
X45597Y486957D01*
X45297Y486870D01*
X44996Y486791D01*
X44693Y486719D01*
X44388Y486654D01*
X44081Y486597D01*
X43773Y486547D01*
X43465Y486506D01*
X43155Y486471D01*
X42844Y486444D01*
X42533Y486425D01*
X42222Y486414D01*
X41910Y486410D01*
X41598Y486414D01*
X41287Y486425D01*
X40976Y486444D01*
X40665Y486471D01*
X40355Y486506D01*
X40047Y486547D01*
X39739Y486597D01*
X39432Y486654D01*
X39127Y486719D01*
X38824Y486791D01*
X38523Y486870D01*
X38223Y486957D01*
X37926Y487051D01*
X37631Y487152D01*
X37339Y487261D01*
X37050Y487377D01*
X36763Y487500D01*
X36480Y487629D01*
X36200Y487766D01*
X35923Y487910D01*
X35650Y488060D01*
X35381Y488217D01*
X35116Y488380D01*
X34854Y488550D01*
X34597Y488727D01*
X34345Y488909D01*
X34097Y489098D01*
X33853Y489293D01*
X33615Y489493D01*
X33381Y489700D01*
X33153Y489912D01*
X32930Y490130D01*
X32712Y490353D01*
X32500Y490581D01*
X32293Y490815D01*
X32093Y491053D01*
X31898Y491297D01*
X31709Y491545D01*
X31527Y491797D01*
X31350Y492054D01*
X31180Y492316D01*
X31017Y492581D01*
X30860Y492850D01*
X30710Y493123D01*
X30566Y493400D01*
X30429Y493680D01*
X30300Y493963D01*
X30177Y494250D01*
X30061Y494539D01*
X29952Y494831D01*
X29851Y495126D01*
X29757Y495423D01*
X29670Y495723D01*
X29591Y496024D01*
X29519Y496327D01*
X29454Y496632D01*
X29397Y496939D01*
X29347Y497247D01*
X29306Y497555D01*
X29271Y497865D01*
X29244Y498176D01*
X29225Y498487D01*
X29214Y498798D01*
X29210Y499110D01*
X67310Y444200D02*
X67310Y419100D01*
X57310Y406400D02*
X26510Y406400D01*
X16510Y419400D02*
X16510Y444200D01*
X26510Y457200D02*
X57310Y457200D01*
X29210Y431800D02*
X29214Y432112D01*
X29225Y432423D01*
X29244Y432734D01*
X29271Y433045D01*
X29306Y433355D01*
X29347Y433663D01*
X29397Y433971D01*
X29454Y434278D01*
X29519Y434583D01*
X29591Y434886D01*
X29670Y435187D01*
X29757Y435487D01*
X29851Y435784D01*
X29952Y436079D01*
X30061Y436371D01*
X30177Y436660D01*
X30300Y436947D01*
X30429Y437230D01*
X30566Y437510D01*
X30710Y437787D01*
X30860Y438060D01*
X31017Y438329D01*
X31180Y438594D01*
X31350Y438856D01*
X31527Y439113D01*
X31709Y439365D01*
X31898Y439613D01*
X32093Y439857D01*
X32293Y440095D01*
X32500Y440329D01*
X32712Y440557D01*
X32930Y440780D01*
X33153Y440998D01*
X33381Y441210D01*
X33615Y441417D01*
X33853Y441617D01*
X34097Y441812D01*
X34345Y442001D01*
X34597Y442183D01*
X34854Y442360D01*
X35116Y442530D01*
X35381Y442693D01*
X35650Y442850D01*
X35923Y443000D01*
X36200Y443144D01*
X36480Y443281D01*
X36763Y443410D01*
X37050Y443533D01*
X37339Y443649D01*
X37631Y443758D01*
X37926Y443859D01*
X38223Y443953D01*
X38523Y444040D01*
X38824Y444119D01*
X39127Y444191D01*
X39432Y444256D01*
X39739Y444313D01*
X40047Y444363D01*
X40355Y444404D01*
X40665Y444439D01*
X40976Y444466D01*
X41287Y444485D01*
X41598Y444496D01*
X41910Y444500D01*
X42222Y444496D01*
X42533Y444485D01*
X42844Y444466D01*
X43155Y444439D01*
X43465Y444404D01*
X43773Y444363D01*
X44081Y444313D01*
X44388Y444256D01*
X44693Y444191D01*
X44996Y444119D01*
X45297Y444040D01*
X45597Y443953D01*
X45894Y443859D01*
X46189Y443758D01*
X46481Y443649D01*
X46770Y443533D01*
X47057Y443410D01*
X47340Y443281D01*
X47620Y443144D01*
X47897Y443000D01*
X48170Y442850D01*
X48439Y442693D01*
X48704Y442530D01*
X48966Y442360D01*
X49223Y442183D01*
X49475Y442001D01*
X49723Y441812D01*
X49967Y441617D01*
X50205Y441417D01*
X50439Y441210D01*
X50667Y440998D01*
X50890Y440780D01*
X51108Y440557D01*
X51320Y440329D01*
X51527Y440095D01*
X51727Y439857D01*
X51922Y439613D01*
X52111Y439365D01*
X52293Y439113D01*
X52470Y438856D01*
X52640Y438594D01*
X52803Y438329D01*
X52960Y438060D01*
X53110Y437787D01*
X53254Y437510D01*
X53391Y437230D01*
X53520Y436947D01*
X53643Y436660D01*
X53759Y436371D01*
X53868Y436079D01*
X53969Y435784D01*
X54063Y435487D01*
X54150Y435187D01*
X54229Y434886D01*
X54301Y434583D01*
X54366Y434278D01*
X54423Y433971D01*
X54473Y433663D01*
X54514Y433355D01*
X54549Y433045D01*
X54576Y432734D01*
X54595Y432423D01*
X54606Y432112D01*
X54610Y431800D01*
X54606Y431488D01*
X54595Y431177D01*
X54576Y430866D01*
X54549Y430555D01*
X54514Y430245D01*
X54473Y429937D01*
X54423Y429629D01*
X54366Y429322D01*
X54301Y429017D01*
X54229Y428714D01*
X54150Y428413D01*
X54063Y428113D01*
X53969Y427816D01*
X53868Y427521D01*
X53759Y427229D01*
X53643Y426940D01*
X53520Y426653D01*
X53391Y426370D01*
X53254Y426090D01*
X53110Y425813D01*
X52960Y425540D01*
X52803Y425271D01*
X52640Y425006D01*
X52470Y424744D01*
X52293Y424487D01*
X52111Y424235D01*
X51922Y423987D01*
X51727Y423743D01*
X51527Y423505D01*
X51320Y423271D01*
X51108Y423043D01*
X50890Y422820D01*
X50667Y422602D01*
X50439Y422390D01*
X50205Y422183D01*
X49967Y421983D01*
X49723Y421788D01*
X49475Y421599D01*
X49223Y421417D01*
X48966Y421240D01*
X48704Y421070D01*
X48439Y420907D01*
X48170Y420750D01*
X47897Y420600D01*
X47620Y420456D01*
X47340Y420319D01*
X47057Y420190D01*
X46770Y420067D01*
X46481Y419951D01*
X46189Y419842D01*
X45894Y419741D01*
X45597Y419647D01*
X45297Y419560D01*
X44996Y419481D01*
X44693Y419409D01*
X44388Y419344D01*
X44081Y419287D01*
X43773Y419237D01*
X43465Y419196D01*
X43155Y419161D01*
X42844Y419134D01*
X42533Y419115D01*
X42222Y419104D01*
X41910Y419100D01*
X41598Y419104D01*
X41287Y419115D01*
X40976Y419134D01*
X40665Y419161D01*
X40355Y419196D01*
X40047Y419237D01*
X39739Y419287D01*
X39432Y419344D01*
X39127Y419409D01*
X38824Y419481D01*
X38523Y419560D01*
X38223Y419647D01*
X37926Y419741D01*
X37631Y419842D01*
X37339Y419951D01*
X37050Y420067D01*
X36763Y420190D01*
X36480Y420319D01*
X36200Y420456D01*
X35923Y420600D01*
X35650Y420750D01*
X35381Y420907D01*
X35116Y421070D01*
X34854Y421240D01*
X34597Y421417D01*
X34345Y421599D01*
X34097Y421788D01*
X33853Y421983D01*
X33615Y422183D01*
X33381Y422390D01*
X33153Y422602D01*
X32930Y422820D01*
X32712Y423043D01*
X32500Y423271D01*
X32293Y423505D01*
X32093Y423743D01*
X31898Y423987D01*
X31709Y424235D01*
X31527Y424487D01*
X31350Y424744D01*
X31180Y425006D01*
X31017Y425271D01*
X30860Y425540D01*
X30710Y425813D01*
X30566Y426090D01*
X30429Y426370D01*
X30300Y426653D01*
X30177Y426940D01*
X30061Y427229D01*
X29952Y427521D01*
X29851Y427816D01*
X29757Y428113D01*
X29670Y428413D01*
X29591Y428714D01*
X29519Y429017D01*
X29454Y429322D01*
X29397Y429629D01*
X29347Y429937D01*
X29306Y430245D01*
X29271Y430555D01*
X29244Y430866D01*
X29225Y431177D01*
X29214Y431488D01*
X29210Y431800D01*
D12*
X512300Y619960D02*
X512300Y657460D01*
X512300Y619960D02*
X527300Y619960D01*
X717300Y619960D02*
X732300Y619960D01*
X732300Y657460D01*
D10*
X310000Y129130D02*
X285000Y129130D01*
X326000Y113130D02*
X326000Y44130D01*
X182000Y44130D02*
X182000Y109130D01*
X58400Y42008D02*
X58400Y24008D01*
X144800Y24008D02*
X144800Y42008D01*
X125630Y198040D02*
X113130Y198040D01*
X125630Y189340D02*
X125630Y171340D01*
X113130Y171340D02*
X113130Y189340D01*
D15*
X146524Y317466D03*
D10*
X144524Y315466D02*
X144524Y283466D01*
X141524Y283466D01*
X112524Y283466D02*
X112524Y315466D01*
X115524Y315466D01*
X141524Y315466D02*
X144524Y315466D01*
X115524Y283466D02*
X112524Y283466D01*
X115062Y346456D02*
X125222Y346456D01*
X125222Y328676D02*
X115062Y328676D01*
X100230Y279480D02*
X87730Y279480D01*
X87730Y288180D02*
X87730Y306180D01*
X100230Y306180D02*
X100230Y288180D01*
X23813Y296545D02*
X14288Y296545D01*
X130148Y197786D02*
X142648Y197786D01*
X142648Y189086D02*
X142648Y171086D01*
X130148Y171086D02*
X130148Y189086D01*
X23813Y258445D02*
X14288Y258445D01*
X76412Y729356D02*
X111412Y729356D01*
X76412Y729356D02*
X76412Y721356D01*
X101412Y721356D01*
X101412Y709356D01*
X101412Y669356D02*
X101412Y657356D01*
X76412Y657356D01*
X76412Y649356D01*
X111412Y649356D01*
X151412Y669356D02*
X151412Y709356D01*
D16*
X119888Y569722D03*
D10*
X114022Y598424D02*
X105434Y598424D01*
X105434Y573024D02*
X114022Y573024D01*
X102640Y583040D02*
X102640Y588408D01*
X23813Y334645D02*
X14288Y334645D01*
X68580Y175260D02*
X83820Y175260D01*
X88392Y191008D02*
X88390Y191141D01*
X88384Y191274D01*
X88375Y191406D01*
X88361Y191539D01*
X88344Y191671D01*
X88323Y191802D01*
X88298Y191933D01*
X88269Y192062D01*
X88236Y192191D01*
X88200Y192319D01*
X88160Y192446D01*
X88116Y192572D01*
X88069Y192696D01*
X88018Y192819D01*
X87964Y192940D01*
X87906Y193060D01*
X87844Y193178D01*
X87779Y193294D01*
X87711Y193408D01*
X87640Y193520D01*
X87565Y193630D01*
X87487Y193738D01*
X87406Y193844D01*
X87322Y193947D01*
X87235Y194047D01*
X87146Y194145D01*
X87053Y194241D01*
X86957Y194334D01*
X86859Y194423D01*
X86759Y194510D01*
X86656Y194594D01*
X86550Y194675D01*
X86442Y194753D01*
X86332Y194828D01*
X86220Y194899D01*
X86106Y194967D01*
X85990Y195032D01*
X85872Y195094D01*
X85752Y195152D01*
X85631Y195206D01*
X85508Y195257D01*
X85384Y195304D01*
X85258Y195348D01*
X85131Y195388D01*
X85003Y195424D01*
X84874Y195457D01*
X84745Y195486D01*
X84614Y195511D01*
X84483Y195532D01*
X84351Y195549D01*
X84218Y195563D01*
X84086Y195572D01*
X83953Y195578D01*
X83820Y195580D01*
X68580Y195580D02*
X68447Y195578D01*
X68314Y195572D01*
X68182Y195563D01*
X68049Y195549D01*
X67917Y195532D01*
X67786Y195511D01*
X67655Y195486D01*
X67526Y195457D01*
X67397Y195424D01*
X67269Y195388D01*
X67142Y195348D01*
X67016Y195304D01*
X66892Y195257D01*
X66769Y195206D01*
X66648Y195152D01*
X66528Y195094D01*
X66410Y195032D01*
X66294Y194967D01*
X66180Y194899D01*
X66068Y194828D01*
X65958Y194753D01*
X65850Y194675D01*
X65744Y194594D01*
X65641Y194510D01*
X65541Y194423D01*
X65443Y194334D01*
X65347Y194241D01*
X65254Y194145D01*
X65165Y194047D01*
X65078Y193947D01*
X64994Y193844D01*
X64913Y193738D01*
X64835Y193630D01*
X64760Y193520D01*
X64689Y193408D01*
X64621Y193294D01*
X64556Y193178D01*
X64494Y193060D01*
X64436Y192940D01*
X64382Y192819D01*
X64331Y192696D01*
X64284Y192572D01*
X64240Y192446D01*
X64200Y192319D01*
X64164Y192191D01*
X64131Y192062D01*
X64102Y191933D01*
X64077Y191802D01*
X64056Y191671D01*
X64039Y191539D01*
X64025Y191406D01*
X64016Y191274D01*
X64010Y191141D01*
X64008Y191008D01*
X64008Y179832D02*
X64010Y179699D01*
X64016Y179566D01*
X64025Y179434D01*
X64039Y179301D01*
X64056Y179169D01*
X64077Y179038D01*
X64102Y178907D01*
X64131Y178778D01*
X64164Y178649D01*
X64200Y178521D01*
X64240Y178394D01*
X64284Y178268D01*
X64331Y178144D01*
X64382Y178021D01*
X64436Y177900D01*
X64494Y177780D01*
X64556Y177662D01*
X64621Y177546D01*
X64689Y177432D01*
X64760Y177320D01*
X64835Y177210D01*
X64913Y177102D01*
X64994Y176996D01*
X65078Y176893D01*
X65165Y176793D01*
X65254Y176695D01*
X65347Y176599D01*
X65443Y176506D01*
X65541Y176417D01*
X65641Y176330D01*
X65744Y176246D01*
X65850Y176165D01*
X65958Y176087D01*
X66068Y176012D01*
X66180Y175941D01*
X66294Y175873D01*
X66410Y175808D01*
X66528Y175746D01*
X66648Y175688D01*
X66769Y175634D01*
X66892Y175583D01*
X67016Y175536D01*
X67142Y175492D01*
X67269Y175452D01*
X67397Y175416D01*
X67526Y175383D01*
X67655Y175354D01*
X67786Y175329D01*
X67917Y175308D01*
X68049Y175291D01*
X68182Y175277D01*
X68314Y175268D01*
X68447Y175262D01*
X68580Y175260D01*
X83820Y175260D02*
X83953Y175262D01*
X84086Y175268D01*
X84218Y175277D01*
X84351Y175291D01*
X84483Y175308D01*
X84614Y175329D01*
X84745Y175354D01*
X84874Y175383D01*
X85003Y175416D01*
X85131Y175452D01*
X85258Y175492D01*
X85384Y175536D01*
X85508Y175583D01*
X85631Y175634D01*
X85752Y175688D01*
X85872Y175746D01*
X85990Y175808D01*
X86106Y175873D01*
X86220Y175941D01*
X86332Y176012D01*
X86442Y176087D01*
X86550Y176165D01*
X86656Y176246D01*
X86759Y176330D01*
X86859Y176417D01*
X86957Y176506D01*
X87053Y176599D01*
X87146Y176695D01*
X87235Y176793D01*
X87322Y176893D01*
X87406Y176996D01*
X87487Y177102D01*
X87565Y177210D01*
X87640Y177320D01*
X87711Y177432D01*
X87779Y177546D01*
X87844Y177662D01*
X87906Y177780D01*
X87964Y177900D01*
X88018Y178021D01*
X88069Y178144D01*
X88116Y178268D01*
X88160Y178394D01*
X88200Y178521D01*
X88236Y178649D01*
X88269Y178778D01*
X88298Y178907D01*
X88323Y179038D01*
X88344Y179169D01*
X88361Y179301D01*
X88375Y179434D01*
X88384Y179566D01*
X88390Y179699D01*
X88392Y179832D01*
X88392Y191008D01*
X64008Y191008D02*
X64008Y179832D01*
X68580Y195580D02*
X83820Y195580D01*
M02*
