M48
;GenerationSoftware,Autodesk,EAGLE,9.6.2*%
;CreationDate,2021-08-02T18:51:50Z*%
FMAT,2
ICI,OFF
METRIC,TZ,000.000
T11C0.305
T10C0.350
T9C0.400
T8C0.508
T7C0.650
T6C1.000
T5C1.016
T4C1.100
T3C1.600
T2C3.048
T1C3.800
%
G90
M71
T1
X43180Y20980
X81280Y21006
X24968Y27254
T2
X2413Y71247
X83820Y71120
X83820Y2540
X2540Y2540
T3
X38956Y47498
X72230Y63246
T4
X18956Y47498
X52230Y63246
T5
X13284Y33757
X4115Y53746
X10744Y33757
T6
X28450Y2413
X20450Y2413
T7
X7270Y4956
X13050Y4956
T8
X2476Y62236
X2476Y60966
X2476Y59696
X2476Y58426
X2476Y63506
X3746Y62236
X3746Y60966
X3746Y59696
X3746Y58426
X3746Y63506
T9
X5842Y1306
X14478Y1306
X14478Y5486
X5842Y5486
T10
X17551Y59258
X19558Y43688
X16205Y43688
X70968Y59334
T11
X76073Y66751
X67081Y63576
X65862Y65024
X63500Y65532
X57556Y66040
X50089Y64821
X9677Y48108
X29286Y55778
X31166Y54559
X13183Y7036
X61290Y62738
X61214Y58471
X6528Y7264
X7772Y13360
X12192Y70104
X20726Y49759
X21463Y50571
X38100Y43688
X38100Y29723
X49022Y68580
X70815Y67031
X10668Y41910
X7366Y62738
X16332Y62662
X18288Y32766
X74270Y63525
X76886Y66142
X26899Y35560
X23266Y39192
X24130Y47244
X25578Y48616
X50292Y67056
X57963Y67005
X26010Y35230
X22758Y38557
X23876Y48006
X25044Y49251
X50089Y67793
X57328Y67310
X67310Y65024
X67056Y66523
X66802Y64491
X66548Y67132
X67818Y64008
X67818Y66548
X74879Y63144
X77495Y65735
X23705Y60705
X28628Y60690
X19126Y62840
X56500Y66154
X65024Y65024
X65024Y66548
X52950Y66040
X53990Y66031
X35306Y51562
X34231Y51562
X50856Y66520
X50881Y64925
X34544Y49784
X32766Y51562
X18136Y49530
X7112Y49530
X21971Y50089
X8382Y45212
X63670Y66446
X62967Y67259
X19050Y61976
X6604Y61976
X18542Y61468
X6858Y61214
X23876Y39624
X27153Y36347
X27991Y51511
X13132Y50724
X13995Y27407
X10922Y27432
X64465Y67158
X21948Y42672
X37338Y42672
X65557Y64211
X27051Y37262
X24384Y40132
X24196Y60135
X29000Y60000
X23114Y58572
X28473Y58598
X22606Y58064
X28016Y58039
X73914Y61468
X68326Y67031
X11024Y32029
X7468Y56540
X12979Y53619
X17348Y53594
X3810Y8128
X8636Y7874
X10414Y29210
X7798Y12192
X3099Y27407
X3048Y31242
X8382Y44450
X13970Y48260
X12014Y54966
X11176Y58420
X14834Y11582
X4242Y11074
X7188Y38913
X7188Y37135
X7188Y35357
X10566Y25121
X10566Y23317
X10541Y21260
X55470Y66134
X9246Y60604
X9246Y63906
X23724Y18694
X22454Y14884
X22454Y11074
X22936Y60300
X21666Y58014
X30023Y61620
X28270Y57252
X32080Y51384
X35966Y51054
X24587Y49886
X19736Y50419
X13056Y51562
X13157Y54432
X9093Y44069
X32131Y14757
X71552Y67158
X69190Y66929
X52756Y69952
X74041Y62484
M30