G04 EAGLE Gerber RS-274X export*
G75*
%MOMM*%
%FSLAX34Y34*%
%LPD*%
%INSoldermask Top*%
%IPPOS*%
%AMOC8*
5,1,8,0,0,1.08239X$1,22.5*%
G01*
%ADD10C,0.225369*%
%ADD11C,0.225588*%
%ADD12C,6.127000*%
%ADD13C,3.175000*%
%ADD14C,1.227000*%
%ADD15C,1.727000*%
%ADD16C,0.230578*%
%ADD17C,1.127000*%
%ADD18C,0.222250*%
%ADD19C,2.006600*%
%ADD20C,0.225400*%
%ADD21C,0.231559*%
%ADD22C,0.229050*%
%ADD23C,0.777000*%
%ADD24C,0.227100*%
%ADD25C,0.224509*%
%ADD26C,0.228600*%
%ADD27C,0.428259*%
%ADD28C,0.231750*%
%ADD29C,0.223409*%
%ADD30C,0.228344*%

G36*
X146084Y43391D02*
X146084Y43391D01*
X146090Y43397D01*
X146095Y43393D01*
X147325Y43758D01*
X147330Y43765D01*
X147335Y43763D01*
X148454Y44393D01*
X148457Y44400D01*
X148463Y44399D01*
X149413Y45262D01*
X149414Y45270D01*
X149420Y45270D01*
X150154Y46323D01*
X150154Y46331D01*
X150159Y46333D01*
X150641Y47523D01*
X150639Y47528D01*
X150643Y47531D01*
X150642Y47532D01*
X150644Y47533D01*
X150849Y48800D01*
X150846Y48805D01*
X150849Y48808D01*
X150849Y60808D01*
X150846Y60812D01*
X150849Y60815D01*
X150694Y61937D01*
X150689Y61942D01*
X150692Y61946D01*
X150321Y63017D01*
X150315Y63021D01*
X150317Y63026D01*
X149744Y64003D01*
X149738Y64006D01*
X149739Y64011D01*
X148986Y64858D01*
X148979Y64860D01*
X148979Y64865D01*
X148076Y65549D01*
X148069Y65549D01*
X148068Y65554D01*
X147049Y66049D01*
X147042Y66047D01*
X147040Y66052D01*
X145943Y66339D01*
X145937Y66336D01*
X145934Y66340D01*
X144803Y66407D01*
X144797Y66407D01*
X143666Y66340D01*
X143661Y66335D01*
X143657Y66339D01*
X142560Y66052D01*
X142556Y66046D01*
X142551Y66049D01*
X141532Y65554D01*
X141529Y65548D01*
X141524Y65549D01*
X140621Y64865D01*
X140619Y64858D01*
X140614Y64858D01*
X139861Y64011D01*
X139861Y64004D01*
X139856Y64003D01*
X139283Y63026D01*
X139284Y63023D01*
X139283Y63022D01*
X139284Y63021D01*
X139284Y63019D01*
X139279Y63017D01*
X138908Y61946D01*
X138910Y61941D01*
X138907Y61939D01*
X138907Y61938D01*
X138906Y61937D01*
X138751Y60815D01*
X138754Y60810D01*
X138751Y60808D01*
X138751Y48808D01*
X138754Y48803D01*
X138751Y48800D01*
X138956Y47533D01*
X138962Y47527D01*
X138959Y47523D01*
X139441Y46333D01*
X139448Y46329D01*
X139446Y46323D01*
X140180Y45270D01*
X140188Y45268D01*
X140187Y45262D01*
X141137Y44399D01*
X141146Y44398D01*
X141146Y44393D01*
X142265Y43763D01*
X142273Y43764D01*
X142275Y43758D01*
X143505Y43393D01*
X143513Y43396D01*
X143516Y43391D01*
X144797Y43309D01*
X144801Y43312D01*
X144803Y43309D01*
X146084Y43391D01*
G37*
G36*
X59684Y43391D02*
X59684Y43391D01*
X59690Y43397D01*
X59695Y43393D01*
X60925Y43758D01*
X60930Y43765D01*
X60935Y43763D01*
X62054Y44393D01*
X62057Y44400D01*
X62063Y44399D01*
X63013Y45262D01*
X63014Y45270D01*
X63020Y45270D01*
X63754Y46323D01*
X63754Y46331D01*
X63759Y46333D01*
X64241Y47523D01*
X64239Y47528D01*
X64243Y47531D01*
X64242Y47532D01*
X64244Y47533D01*
X64449Y48800D01*
X64446Y48805D01*
X64449Y48808D01*
X64449Y60808D01*
X64446Y60812D01*
X64449Y60815D01*
X64294Y61937D01*
X64289Y61942D01*
X64292Y61946D01*
X63921Y63017D01*
X63915Y63021D01*
X63917Y63026D01*
X63344Y64003D01*
X63338Y64006D01*
X63339Y64011D01*
X62586Y64858D01*
X62579Y64860D01*
X62579Y64865D01*
X61676Y65549D01*
X61669Y65549D01*
X61668Y65554D01*
X60649Y66049D01*
X60642Y66047D01*
X60640Y66052D01*
X59543Y66339D01*
X59537Y66336D01*
X59534Y66340D01*
X58403Y66407D01*
X58397Y66407D01*
X57266Y66340D01*
X57261Y66335D01*
X57257Y66339D01*
X56160Y66052D01*
X56156Y66046D01*
X56151Y66049D01*
X55132Y65554D01*
X55129Y65548D01*
X55124Y65549D01*
X54221Y64865D01*
X54219Y64858D01*
X54214Y64858D01*
X53461Y64011D01*
X53461Y64004D01*
X53456Y64003D01*
X52883Y63026D01*
X52884Y63023D01*
X52883Y63022D01*
X52884Y63021D01*
X52884Y63019D01*
X52879Y63017D01*
X52508Y61946D01*
X52510Y61941D01*
X52507Y61939D01*
X52507Y61938D01*
X52506Y61937D01*
X52351Y60815D01*
X52354Y60810D01*
X52351Y60808D01*
X52351Y48808D01*
X52354Y48803D01*
X52351Y48800D01*
X52556Y47533D01*
X52562Y47527D01*
X52559Y47523D01*
X53041Y46333D01*
X53048Y46329D01*
X53046Y46323D01*
X53780Y45270D01*
X53788Y45268D01*
X53787Y45262D01*
X54737Y44399D01*
X54746Y44398D01*
X54746Y44393D01*
X55865Y43763D01*
X55873Y43764D01*
X55875Y43758D01*
X57105Y43393D01*
X57113Y43396D01*
X57116Y43391D01*
X58397Y43309D01*
X58401Y43312D01*
X58403Y43309D01*
X59684Y43391D01*
G37*
G36*
X145971Y4119D02*
X145971Y4119D01*
X145976Y4124D01*
X145980Y4121D01*
X147103Y4456D01*
X147107Y4462D01*
X147111Y4460D01*
X148147Y5008D01*
X148150Y5014D01*
X148155Y5013D01*
X149063Y5752D01*
X149065Y5759D01*
X149070Y5759D01*
X149817Y6661D01*
X149817Y6669D01*
X149823Y6669D01*
X150379Y7700D01*
X150378Y7707D01*
X150383Y7709D01*
X150727Y8828D01*
X150725Y8835D01*
X150729Y8838D01*
X150849Y10003D01*
X150847Y10006D01*
X150849Y10008D01*
X150849Y16008D01*
X150847Y16011D01*
X150849Y16013D01*
X150738Y17189D01*
X150733Y17194D01*
X150736Y17198D01*
X150398Y18330D01*
X150392Y18334D01*
X150394Y18339D01*
X149842Y19383D01*
X149835Y19386D01*
X149837Y19391D01*
X149091Y20307D01*
X149084Y20308D01*
X149084Y20314D01*
X148175Y21067D01*
X148167Y21067D01*
X148167Y21072D01*
X147127Y21633D01*
X147120Y21632D01*
X147118Y21637D01*
X145989Y21984D01*
X145983Y21982D01*
X145980Y21986D01*
X144805Y22107D01*
X144798Y22103D01*
X144794Y22107D01*
X143454Y21950D01*
X143448Y21945D01*
X143443Y21948D01*
X142172Y21497D01*
X142167Y21490D01*
X142162Y21492D01*
X141023Y20770D01*
X141020Y20762D01*
X141014Y20763D01*
X140064Y19805D01*
X140063Y19797D01*
X140057Y19796D01*
X139344Y18651D01*
X139345Y18643D01*
X139339Y18641D01*
X138899Y17365D01*
X138901Y17358D01*
X138897Y17355D01*
X138751Y16013D01*
X138753Y16010D01*
X138751Y16008D01*
X138751Y10008D01*
X138753Y10005D01*
X138751Y10002D01*
X138906Y8673D01*
X138912Y8667D01*
X138909Y8663D01*
X139356Y7402D01*
X139363Y7397D01*
X139361Y7392D01*
X140078Y6262D01*
X140085Y6259D01*
X140084Y6253D01*
X141035Y5311D01*
X141043Y5310D01*
X141043Y5304D01*
X142179Y4597D01*
X142187Y4598D01*
X142189Y4592D01*
X143454Y4156D01*
X143459Y4157D01*
X143460Y4157D01*
X143463Y4157D01*
X143465Y4153D01*
X144795Y4009D01*
X144801Y4013D01*
X144805Y4009D01*
X145971Y4119D01*
G37*
G36*
X59571Y4119D02*
X59571Y4119D01*
X59576Y4124D01*
X59580Y4121D01*
X60703Y4456D01*
X60707Y4462D01*
X60711Y4460D01*
X61747Y5008D01*
X61750Y5014D01*
X61755Y5013D01*
X62663Y5752D01*
X62665Y5759D01*
X62670Y5759D01*
X63417Y6661D01*
X63417Y6669D01*
X63423Y6669D01*
X63979Y7700D01*
X63978Y7707D01*
X63983Y7709D01*
X64327Y8828D01*
X64325Y8835D01*
X64329Y8838D01*
X64449Y10003D01*
X64447Y10006D01*
X64449Y10008D01*
X64449Y16008D01*
X64447Y16011D01*
X64449Y16013D01*
X64338Y17189D01*
X64333Y17194D01*
X64336Y17198D01*
X63998Y18330D01*
X63992Y18334D01*
X63994Y18339D01*
X63442Y19383D01*
X63435Y19386D01*
X63437Y19391D01*
X62691Y20307D01*
X62684Y20308D01*
X62684Y20314D01*
X61775Y21067D01*
X61767Y21067D01*
X61767Y21072D01*
X60727Y21633D01*
X60720Y21632D01*
X60718Y21637D01*
X59589Y21984D01*
X59583Y21982D01*
X59580Y21986D01*
X58405Y22107D01*
X58398Y22103D01*
X58394Y22107D01*
X57054Y21950D01*
X57048Y21945D01*
X57043Y21948D01*
X55772Y21497D01*
X55767Y21490D01*
X55762Y21492D01*
X54623Y20770D01*
X54620Y20762D01*
X54614Y20763D01*
X53664Y19805D01*
X53663Y19797D01*
X53657Y19796D01*
X52944Y18651D01*
X52945Y18643D01*
X52939Y18641D01*
X52499Y17365D01*
X52501Y17358D01*
X52497Y17355D01*
X52351Y16013D01*
X52353Y16010D01*
X52351Y16008D01*
X52351Y10008D01*
X52353Y10005D01*
X52351Y10002D01*
X52506Y8673D01*
X52512Y8667D01*
X52509Y8663D01*
X52956Y7402D01*
X52963Y7397D01*
X52961Y7392D01*
X53678Y6262D01*
X53685Y6259D01*
X53684Y6253D01*
X54635Y5311D01*
X54643Y5310D01*
X54643Y5304D01*
X55779Y4597D01*
X55787Y4598D01*
X55789Y4592D01*
X57054Y4156D01*
X57059Y4157D01*
X57060Y4157D01*
X57063Y4157D01*
X57065Y4153D01*
X58395Y4009D01*
X58401Y4013D01*
X58405Y4009D01*
X59571Y4119D01*
G37*
G36*
X122112Y330339D02*
X122112Y330339D01*
X122178Y330341D01*
X122221Y330359D01*
X122268Y330367D01*
X122325Y330401D01*
X122385Y330426D01*
X122420Y330457D01*
X122461Y330482D01*
X122503Y330533D01*
X122551Y330577D01*
X122573Y330619D01*
X122602Y330656D01*
X122623Y330718D01*
X122654Y330777D01*
X122662Y330831D01*
X122674Y330868D01*
X122673Y330908D01*
X122681Y330962D01*
X122681Y344170D01*
X122670Y344235D01*
X122668Y344301D01*
X122650Y344344D01*
X122642Y344391D01*
X122608Y344448D01*
X122583Y344508D01*
X122552Y344543D01*
X122527Y344584D01*
X122476Y344626D01*
X122432Y344674D01*
X122390Y344696D01*
X122353Y344725D01*
X122291Y344746D01*
X122232Y344777D01*
X122178Y344785D01*
X122141Y344797D01*
X122101Y344796D01*
X122047Y344804D01*
X118237Y344804D01*
X118172Y344793D01*
X118106Y344791D01*
X118063Y344773D01*
X118016Y344765D01*
X117959Y344731D01*
X117899Y344706D01*
X117864Y344675D01*
X117823Y344650D01*
X117782Y344599D01*
X117733Y344555D01*
X117711Y344513D01*
X117682Y344476D01*
X117661Y344414D01*
X117630Y344355D01*
X117622Y344301D01*
X117610Y344264D01*
X117611Y344224D01*
X117603Y344170D01*
X117603Y330962D01*
X117614Y330897D01*
X117616Y330831D01*
X117634Y330788D01*
X117642Y330741D01*
X117676Y330684D01*
X117701Y330624D01*
X117732Y330589D01*
X117757Y330548D01*
X117808Y330507D01*
X117852Y330458D01*
X117894Y330436D01*
X117931Y330407D01*
X117993Y330386D01*
X118052Y330355D01*
X118106Y330347D01*
X118143Y330335D01*
X118183Y330336D01*
X118237Y330328D01*
X122047Y330328D01*
X122112Y330339D01*
G37*
G36*
X78170Y183527D02*
X78170Y183527D01*
X78236Y183529D01*
X78279Y183547D01*
X78326Y183555D01*
X78383Y183589D01*
X78443Y183614D01*
X78478Y183645D01*
X78519Y183670D01*
X78561Y183721D01*
X78609Y183765D01*
X78631Y183807D01*
X78660Y183844D01*
X78681Y183906D01*
X78712Y183965D01*
X78720Y184019D01*
X78732Y184056D01*
X78731Y184096D01*
X78739Y184150D01*
X78739Y186690D01*
X78728Y186755D01*
X78726Y186821D01*
X78708Y186864D01*
X78700Y186911D01*
X78666Y186968D01*
X78641Y187028D01*
X78610Y187063D01*
X78585Y187104D01*
X78534Y187146D01*
X78490Y187194D01*
X78448Y187216D01*
X78411Y187245D01*
X78349Y187266D01*
X78290Y187297D01*
X78236Y187305D01*
X78199Y187317D01*
X78159Y187316D01*
X78105Y187324D01*
X74295Y187324D01*
X74230Y187313D01*
X74164Y187311D01*
X74121Y187293D01*
X74074Y187285D01*
X74017Y187251D01*
X73957Y187226D01*
X73922Y187195D01*
X73881Y187170D01*
X73840Y187119D01*
X73791Y187075D01*
X73769Y187033D01*
X73740Y186996D01*
X73719Y186934D01*
X73688Y186875D01*
X73680Y186821D01*
X73668Y186784D01*
X73668Y186781D01*
X73669Y186744D01*
X73661Y186690D01*
X73661Y184150D01*
X73672Y184085D01*
X73674Y184019D01*
X73692Y183976D01*
X73700Y183929D01*
X73734Y183872D01*
X73759Y183812D01*
X73790Y183777D01*
X73815Y183736D01*
X73866Y183695D01*
X73910Y183646D01*
X73952Y183624D01*
X73989Y183595D01*
X74051Y183574D01*
X74110Y183543D01*
X74164Y183535D01*
X74201Y183523D01*
X74241Y183524D01*
X74295Y183516D01*
X78105Y183516D01*
X78170Y183527D01*
G37*
D10*
X368728Y114792D02*
X363712Y114792D01*
X363712Y129308D01*
X368728Y129308D01*
X368728Y114792D01*
X368728Y116933D02*
X363712Y116933D01*
X363712Y119074D02*
X368728Y119074D01*
X368728Y121215D02*
X363712Y121215D01*
X363712Y123356D02*
X368728Y123356D01*
X368728Y125497D02*
X363712Y125497D01*
X363712Y127638D02*
X368728Y127638D01*
X373712Y114792D02*
X378728Y114792D01*
X373712Y114792D02*
X373712Y129308D01*
X378728Y129308D01*
X378728Y114792D01*
X378728Y116933D02*
X373712Y116933D01*
X373712Y119074D02*
X378728Y119074D01*
X378728Y121215D02*
X373712Y121215D01*
X373712Y123356D02*
X378728Y123356D01*
X378728Y125497D02*
X373712Y125497D01*
X373712Y127638D02*
X378728Y127638D01*
X383712Y114792D02*
X388728Y114792D01*
X383712Y114792D02*
X383712Y129308D01*
X388728Y129308D01*
X388728Y114792D01*
X388728Y116933D02*
X383712Y116933D01*
X383712Y119074D02*
X388728Y119074D01*
X388728Y121215D02*
X383712Y121215D01*
X383712Y123356D02*
X388728Y123356D01*
X388728Y125497D02*
X383712Y125497D01*
X383712Y127638D02*
X388728Y127638D01*
X393712Y114792D02*
X398728Y114792D01*
X393712Y114792D02*
X393712Y129308D01*
X398728Y129308D01*
X398728Y114792D01*
X398728Y116933D02*
X393712Y116933D01*
X393712Y119074D02*
X398728Y119074D01*
X398728Y121215D02*
X393712Y121215D01*
X393712Y123356D02*
X398728Y123356D01*
X398728Y125497D02*
X393712Y125497D01*
X393712Y127638D02*
X398728Y127638D01*
D11*
X358727Y136793D02*
X347713Y136793D01*
X347713Y155807D01*
X358727Y155807D01*
X358727Y136793D01*
X358727Y138936D02*
X347713Y138936D01*
X347713Y141079D02*
X358727Y141079D01*
X358727Y143222D02*
X347713Y143222D01*
X347713Y145365D02*
X358727Y145365D01*
X358727Y147508D02*
X347713Y147508D01*
X347713Y149651D02*
X358727Y149651D01*
X358727Y151794D02*
X347713Y151794D01*
X347713Y153937D02*
X358727Y153937D01*
X403713Y136793D02*
X414727Y136793D01*
X403713Y136793D02*
X403713Y155807D01*
X414727Y155807D01*
X414727Y136793D01*
X414727Y138936D02*
X403713Y138936D01*
X403713Y141079D02*
X414727Y141079D01*
X414727Y143222D02*
X403713Y143222D01*
X403713Y145365D02*
X414727Y145365D01*
X414727Y147508D02*
X403713Y147508D01*
X403713Y149651D02*
X414727Y149651D01*
X414727Y151794D02*
X403713Y151794D01*
X403713Y153937D02*
X414727Y153937D01*
X358507Y4543D02*
X347493Y4543D01*
X347493Y23557D01*
X358507Y23557D01*
X358507Y4543D01*
X358507Y6686D02*
X347493Y6686D01*
X347493Y8829D02*
X358507Y8829D01*
X358507Y10972D02*
X347493Y10972D01*
X347493Y13115D02*
X358507Y13115D01*
X358507Y15258D02*
X347493Y15258D01*
X347493Y17401D02*
X358507Y17401D01*
X358507Y19544D02*
X347493Y19544D01*
X347493Y21687D02*
X358507Y21687D01*
X403493Y4543D02*
X414507Y4543D01*
X403493Y4543D02*
X403493Y23557D01*
X414507Y23557D01*
X414507Y4543D01*
X414507Y6686D02*
X403493Y6686D01*
X403493Y8829D02*
X414507Y8829D01*
X414507Y10972D02*
X403493Y10972D01*
X403493Y13115D02*
X414507Y13115D01*
X414507Y15258D02*
X403493Y15258D01*
X403493Y17401D02*
X414507Y17401D01*
X414507Y19544D02*
X403493Y19544D01*
X403493Y21687D02*
X414507Y21687D01*
D10*
X368508Y44542D02*
X363492Y44542D01*
X363492Y57058D01*
X368508Y57058D01*
X368508Y44542D01*
X368508Y46683D02*
X363492Y46683D01*
X363492Y48824D02*
X368508Y48824D01*
X368508Y50965D02*
X363492Y50965D01*
X363492Y53106D02*
X368508Y53106D01*
X368508Y55247D02*
X363492Y55247D01*
X373492Y44542D02*
X378508Y44542D01*
X373492Y44542D02*
X373492Y57058D01*
X378508Y57058D01*
X378508Y44542D01*
X378508Y46683D02*
X373492Y46683D01*
X373492Y48824D02*
X378508Y48824D01*
X378508Y50965D02*
X373492Y50965D01*
X373492Y53106D02*
X378508Y53106D01*
X378508Y55247D02*
X373492Y55247D01*
X383492Y44542D02*
X388508Y44542D01*
X383492Y44542D02*
X383492Y57058D01*
X388508Y57058D01*
X388508Y44542D01*
X388508Y46683D02*
X383492Y46683D01*
X383492Y48824D02*
X388508Y48824D01*
X388508Y50965D02*
X383492Y50965D01*
X383492Y53106D02*
X388508Y53106D01*
X388508Y55247D02*
X383492Y55247D01*
X393492Y44542D02*
X398508Y44542D01*
X393492Y44542D02*
X393492Y57058D01*
X398508Y57058D01*
X398508Y44542D01*
X398508Y46683D02*
X393492Y46683D01*
X393492Y48824D02*
X398508Y48824D01*
X398508Y50965D02*
X393492Y50965D01*
X393492Y53106D02*
X398508Y53106D01*
X398508Y55247D02*
X393492Y55247D01*
D12*
X812800Y210058D03*
X249682Y272542D03*
D13*
X24130Y712470D03*
X838200Y711200D03*
X838200Y25400D03*
X25400Y25400D03*
D14*
X189560Y474980D03*
D15*
X389560Y474980D03*
D16*
X198042Y520498D02*
X196078Y520498D01*
X196078Y534962D01*
X198042Y534962D01*
X198042Y520498D01*
X198042Y522689D02*
X196078Y522689D01*
X196078Y524880D02*
X198042Y524880D01*
X198042Y527071D02*
X196078Y527071D01*
X196078Y529262D02*
X198042Y529262D01*
X198042Y531453D02*
X196078Y531453D01*
X196078Y533644D02*
X198042Y533644D01*
D11*
X191567Y506723D02*
X180553Y506723D01*
X180553Y533237D01*
X191567Y533237D01*
X191567Y506723D01*
X191567Y508866D02*
X180553Y508866D01*
X180553Y511009D02*
X191567Y511009D01*
X191567Y513152D02*
X180553Y513152D01*
X180553Y515295D02*
X191567Y515295D01*
X191567Y517438D02*
X180553Y517438D01*
X180553Y519581D02*
X191567Y519581D01*
X191567Y521724D02*
X180553Y521724D01*
X180553Y523867D02*
X191567Y523867D01*
X191567Y526010D02*
X180553Y526010D01*
X180553Y528153D02*
X191567Y528153D01*
X191567Y530296D02*
X180553Y530296D01*
X180553Y532439D02*
X191567Y532439D01*
X387553Y506723D02*
X398567Y506723D01*
X387553Y506723D02*
X387553Y533237D01*
X398567Y533237D01*
X398567Y506723D01*
X398567Y508866D02*
X387553Y508866D01*
X387553Y511009D02*
X398567Y511009D01*
X398567Y513152D02*
X387553Y513152D01*
X387553Y515295D02*
X398567Y515295D01*
X398567Y517438D02*
X387553Y517438D01*
X387553Y519581D02*
X398567Y519581D01*
X398567Y521724D02*
X387553Y521724D01*
X387553Y523867D02*
X398567Y523867D01*
X398567Y526010D02*
X387553Y526010D01*
X387553Y528153D02*
X398567Y528153D01*
X398567Y530296D02*
X387553Y530296D01*
X387553Y532439D02*
X398567Y532439D01*
D16*
X200542Y444998D02*
X198578Y444998D01*
X198578Y459462D01*
X200542Y459462D01*
X200542Y444998D01*
X200542Y447189D02*
X198578Y447189D01*
X198578Y449380D02*
X200542Y449380D01*
X200542Y451571D02*
X198578Y451571D01*
X198578Y453762D02*
X200542Y453762D01*
X200542Y455953D02*
X198578Y455953D01*
X198578Y458144D02*
X200542Y458144D01*
X201078Y520498D02*
X203042Y520498D01*
X201078Y520498D02*
X201078Y534962D01*
X203042Y534962D01*
X203042Y520498D01*
X203042Y522689D02*
X201078Y522689D01*
X201078Y524880D02*
X203042Y524880D01*
X203042Y527071D02*
X201078Y527071D01*
X201078Y529262D02*
X203042Y529262D01*
X203042Y531453D02*
X201078Y531453D01*
X201078Y533644D02*
X203042Y533644D01*
X203578Y444998D02*
X205542Y444998D01*
X203578Y444998D02*
X203578Y459462D01*
X205542Y459462D01*
X205542Y444998D01*
X205542Y447189D02*
X203578Y447189D01*
X203578Y449380D02*
X205542Y449380D01*
X205542Y451571D02*
X203578Y451571D01*
X203578Y453762D02*
X205542Y453762D01*
X205542Y455953D02*
X203578Y455953D01*
X203578Y458144D02*
X205542Y458144D01*
X206078Y520498D02*
X208042Y520498D01*
X206078Y520498D02*
X206078Y534962D01*
X208042Y534962D01*
X208042Y520498D01*
X208042Y522689D02*
X206078Y522689D01*
X206078Y524880D02*
X208042Y524880D01*
X208042Y527071D02*
X206078Y527071D01*
X206078Y529262D02*
X208042Y529262D01*
X208042Y531453D02*
X206078Y531453D01*
X206078Y533644D02*
X208042Y533644D01*
X208578Y444998D02*
X210542Y444998D01*
X208578Y444998D02*
X208578Y459462D01*
X210542Y459462D01*
X210542Y444998D01*
X210542Y447189D02*
X208578Y447189D01*
X208578Y449380D02*
X210542Y449380D01*
X210542Y451571D02*
X208578Y451571D01*
X208578Y453762D02*
X210542Y453762D01*
X210542Y455953D02*
X208578Y455953D01*
X208578Y458144D02*
X210542Y458144D01*
X211078Y520498D02*
X213042Y520498D01*
X211078Y520498D02*
X211078Y534962D01*
X213042Y534962D01*
X213042Y520498D01*
X213042Y522689D02*
X211078Y522689D01*
X211078Y524880D02*
X213042Y524880D01*
X213042Y527071D02*
X211078Y527071D01*
X211078Y529262D02*
X213042Y529262D01*
X213042Y531453D02*
X211078Y531453D01*
X211078Y533644D02*
X213042Y533644D01*
X213578Y444998D02*
X215542Y444998D01*
X213578Y444998D02*
X213578Y459462D01*
X215542Y459462D01*
X215542Y444998D01*
X215542Y447189D02*
X213578Y447189D01*
X213578Y449380D02*
X215542Y449380D01*
X215542Y451571D02*
X213578Y451571D01*
X213578Y453762D02*
X215542Y453762D01*
X215542Y455953D02*
X213578Y455953D01*
X213578Y458144D02*
X215542Y458144D01*
X216078Y520498D02*
X218042Y520498D01*
X216078Y520498D02*
X216078Y534962D01*
X218042Y534962D01*
X218042Y520498D01*
X218042Y522689D02*
X216078Y522689D01*
X216078Y524880D02*
X218042Y524880D01*
X218042Y527071D02*
X216078Y527071D01*
X216078Y529262D02*
X218042Y529262D01*
X218042Y531453D02*
X216078Y531453D01*
X216078Y533644D02*
X218042Y533644D01*
X218578Y444998D02*
X220542Y444998D01*
X218578Y444998D02*
X218578Y459462D01*
X220542Y459462D01*
X220542Y444998D01*
X220542Y447189D02*
X218578Y447189D01*
X218578Y449380D02*
X220542Y449380D01*
X220542Y451571D02*
X218578Y451571D01*
X218578Y453762D02*
X220542Y453762D01*
X220542Y455953D02*
X218578Y455953D01*
X218578Y458144D02*
X220542Y458144D01*
X221078Y520498D02*
X223042Y520498D01*
X221078Y520498D02*
X221078Y534962D01*
X223042Y534962D01*
X223042Y520498D01*
X223042Y522689D02*
X221078Y522689D01*
X221078Y524880D02*
X223042Y524880D01*
X223042Y527071D02*
X221078Y527071D01*
X221078Y529262D02*
X223042Y529262D01*
X223042Y531453D02*
X221078Y531453D01*
X221078Y533644D02*
X223042Y533644D01*
X223578Y444998D02*
X225542Y444998D01*
X223578Y444998D02*
X223578Y459462D01*
X225542Y459462D01*
X225542Y444998D01*
X225542Y447189D02*
X223578Y447189D01*
X223578Y449380D02*
X225542Y449380D01*
X225542Y451571D02*
X223578Y451571D01*
X223578Y453762D02*
X225542Y453762D01*
X225542Y455953D02*
X223578Y455953D01*
X223578Y458144D02*
X225542Y458144D01*
X226078Y520498D02*
X228042Y520498D01*
X226078Y520498D02*
X226078Y534962D01*
X228042Y534962D01*
X228042Y520498D01*
X228042Y522689D02*
X226078Y522689D01*
X226078Y524880D02*
X228042Y524880D01*
X228042Y527071D02*
X226078Y527071D01*
X226078Y529262D02*
X228042Y529262D01*
X228042Y531453D02*
X226078Y531453D01*
X226078Y533644D02*
X228042Y533644D01*
X228578Y444998D02*
X230542Y444998D01*
X228578Y444998D02*
X228578Y459462D01*
X230542Y459462D01*
X230542Y444998D01*
X230542Y447189D02*
X228578Y447189D01*
X228578Y449380D02*
X230542Y449380D01*
X230542Y451571D02*
X228578Y451571D01*
X228578Y453762D02*
X230542Y453762D01*
X230542Y455953D02*
X228578Y455953D01*
X228578Y458144D02*
X230542Y458144D01*
X231078Y520498D02*
X233042Y520498D01*
X231078Y520498D02*
X231078Y534962D01*
X233042Y534962D01*
X233042Y520498D01*
X233042Y522689D02*
X231078Y522689D01*
X231078Y524880D02*
X233042Y524880D01*
X233042Y527071D02*
X231078Y527071D01*
X231078Y529262D02*
X233042Y529262D01*
X233042Y531453D02*
X231078Y531453D01*
X231078Y533644D02*
X233042Y533644D01*
X233578Y444998D02*
X235542Y444998D01*
X233578Y444998D02*
X233578Y459462D01*
X235542Y459462D01*
X235542Y444998D01*
X235542Y447189D02*
X233578Y447189D01*
X233578Y449380D02*
X235542Y449380D01*
X235542Y451571D02*
X233578Y451571D01*
X233578Y453762D02*
X235542Y453762D01*
X235542Y455953D02*
X233578Y455953D01*
X233578Y458144D02*
X235542Y458144D01*
X236078Y520498D02*
X238042Y520498D01*
X236078Y520498D02*
X236078Y534962D01*
X238042Y534962D01*
X238042Y520498D01*
X238042Y522689D02*
X236078Y522689D01*
X236078Y524880D02*
X238042Y524880D01*
X238042Y527071D02*
X236078Y527071D01*
X236078Y529262D02*
X238042Y529262D01*
X238042Y531453D02*
X236078Y531453D01*
X236078Y533644D02*
X238042Y533644D01*
X238578Y444998D02*
X240542Y444998D01*
X238578Y444998D02*
X238578Y459462D01*
X240542Y459462D01*
X240542Y444998D01*
X240542Y447189D02*
X238578Y447189D01*
X238578Y449380D02*
X240542Y449380D01*
X240542Y451571D02*
X238578Y451571D01*
X238578Y453762D02*
X240542Y453762D01*
X240542Y455953D02*
X238578Y455953D01*
X238578Y458144D02*
X240542Y458144D01*
X241078Y520498D02*
X243042Y520498D01*
X241078Y520498D02*
X241078Y534962D01*
X243042Y534962D01*
X243042Y520498D01*
X243042Y522689D02*
X241078Y522689D01*
X241078Y524880D02*
X243042Y524880D01*
X243042Y527071D02*
X241078Y527071D01*
X241078Y529262D02*
X243042Y529262D01*
X243042Y531453D02*
X241078Y531453D01*
X241078Y533644D02*
X243042Y533644D01*
X243578Y444998D02*
X245542Y444998D01*
X243578Y444998D02*
X243578Y459462D01*
X245542Y459462D01*
X245542Y444998D01*
X245542Y447189D02*
X243578Y447189D01*
X243578Y449380D02*
X245542Y449380D01*
X245542Y451571D02*
X243578Y451571D01*
X243578Y453762D02*
X245542Y453762D01*
X245542Y455953D02*
X243578Y455953D01*
X243578Y458144D02*
X245542Y458144D01*
X246078Y520498D02*
X248042Y520498D01*
X246078Y520498D02*
X246078Y534962D01*
X248042Y534962D01*
X248042Y520498D01*
X248042Y522689D02*
X246078Y522689D01*
X246078Y524880D02*
X248042Y524880D01*
X248042Y527071D02*
X246078Y527071D01*
X246078Y529262D02*
X248042Y529262D01*
X248042Y531453D02*
X246078Y531453D01*
X246078Y533644D02*
X248042Y533644D01*
X248578Y444998D02*
X250542Y444998D01*
X248578Y444998D02*
X248578Y459462D01*
X250542Y459462D01*
X250542Y444998D01*
X250542Y447189D02*
X248578Y447189D01*
X248578Y449380D02*
X250542Y449380D01*
X250542Y451571D02*
X248578Y451571D01*
X248578Y453762D02*
X250542Y453762D01*
X250542Y455953D02*
X248578Y455953D01*
X248578Y458144D02*
X250542Y458144D01*
X251078Y520498D02*
X253042Y520498D01*
X251078Y520498D02*
X251078Y534962D01*
X253042Y534962D01*
X253042Y520498D01*
X253042Y522689D02*
X251078Y522689D01*
X251078Y524880D02*
X253042Y524880D01*
X253042Y527071D02*
X251078Y527071D01*
X251078Y529262D02*
X253042Y529262D01*
X253042Y531453D02*
X251078Y531453D01*
X251078Y533644D02*
X253042Y533644D01*
X273578Y444998D02*
X275542Y444998D01*
X273578Y444998D02*
X273578Y459462D01*
X275542Y459462D01*
X275542Y444998D01*
X275542Y447189D02*
X273578Y447189D01*
X273578Y449380D02*
X275542Y449380D01*
X275542Y451571D02*
X273578Y451571D01*
X273578Y453762D02*
X275542Y453762D01*
X275542Y455953D02*
X273578Y455953D01*
X273578Y458144D02*
X275542Y458144D01*
X276078Y520498D02*
X278042Y520498D01*
X276078Y520498D02*
X276078Y534962D01*
X278042Y534962D01*
X278042Y520498D01*
X278042Y522689D02*
X276078Y522689D01*
X276078Y524880D02*
X278042Y524880D01*
X278042Y527071D02*
X276078Y527071D01*
X276078Y529262D02*
X278042Y529262D01*
X278042Y531453D02*
X276078Y531453D01*
X276078Y533644D02*
X278042Y533644D01*
X278578Y444998D02*
X280542Y444998D01*
X278578Y444998D02*
X278578Y459462D01*
X280542Y459462D01*
X280542Y444998D01*
X280542Y447189D02*
X278578Y447189D01*
X278578Y449380D02*
X280542Y449380D01*
X280542Y451571D02*
X278578Y451571D01*
X278578Y453762D02*
X280542Y453762D01*
X280542Y455953D02*
X278578Y455953D01*
X278578Y458144D02*
X280542Y458144D01*
X281078Y520498D02*
X283042Y520498D01*
X281078Y520498D02*
X281078Y534962D01*
X283042Y534962D01*
X283042Y520498D01*
X283042Y522689D02*
X281078Y522689D01*
X281078Y524880D02*
X283042Y524880D01*
X283042Y527071D02*
X281078Y527071D01*
X281078Y529262D02*
X283042Y529262D01*
X283042Y531453D02*
X281078Y531453D01*
X281078Y533644D02*
X283042Y533644D01*
X283578Y444998D02*
X285542Y444998D01*
X283578Y444998D02*
X283578Y459462D01*
X285542Y459462D01*
X285542Y444998D01*
X285542Y447189D02*
X283578Y447189D01*
X283578Y449380D02*
X285542Y449380D01*
X285542Y451571D02*
X283578Y451571D01*
X283578Y453762D02*
X285542Y453762D01*
X285542Y455953D02*
X283578Y455953D01*
X283578Y458144D02*
X285542Y458144D01*
X286078Y520498D02*
X288042Y520498D01*
X286078Y520498D02*
X286078Y534962D01*
X288042Y534962D01*
X288042Y520498D01*
X288042Y522689D02*
X286078Y522689D01*
X286078Y524880D02*
X288042Y524880D01*
X288042Y527071D02*
X286078Y527071D01*
X286078Y529262D02*
X288042Y529262D01*
X288042Y531453D02*
X286078Y531453D01*
X286078Y533644D02*
X288042Y533644D01*
X288578Y444998D02*
X290542Y444998D01*
X288578Y444998D02*
X288578Y459462D01*
X290542Y459462D01*
X290542Y444998D01*
X290542Y447189D02*
X288578Y447189D01*
X288578Y449380D02*
X290542Y449380D01*
X290542Y451571D02*
X288578Y451571D01*
X288578Y453762D02*
X290542Y453762D01*
X290542Y455953D02*
X288578Y455953D01*
X288578Y458144D02*
X290542Y458144D01*
X291078Y520498D02*
X293042Y520498D01*
X291078Y520498D02*
X291078Y534962D01*
X293042Y534962D01*
X293042Y520498D01*
X293042Y522689D02*
X291078Y522689D01*
X291078Y524880D02*
X293042Y524880D01*
X293042Y527071D02*
X291078Y527071D01*
X291078Y529262D02*
X293042Y529262D01*
X293042Y531453D02*
X291078Y531453D01*
X291078Y533644D02*
X293042Y533644D01*
X293578Y444998D02*
X295542Y444998D01*
X293578Y444998D02*
X293578Y459462D01*
X295542Y459462D01*
X295542Y444998D01*
X295542Y447189D02*
X293578Y447189D01*
X293578Y449380D02*
X295542Y449380D01*
X295542Y451571D02*
X293578Y451571D01*
X293578Y453762D02*
X295542Y453762D01*
X295542Y455953D02*
X293578Y455953D01*
X293578Y458144D02*
X295542Y458144D01*
X296078Y520498D02*
X298042Y520498D01*
X296078Y520498D02*
X296078Y534962D01*
X298042Y534962D01*
X298042Y520498D01*
X298042Y522689D02*
X296078Y522689D01*
X296078Y524880D02*
X298042Y524880D01*
X298042Y527071D02*
X296078Y527071D01*
X296078Y529262D02*
X298042Y529262D01*
X298042Y531453D02*
X296078Y531453D01*
X296078Y533644D02*
X298042Y533644D01*
X298578Y444998D02*
X300542Y444998D01*
X298578Y444998D02*
X298578Y459462D01*
X300542Y459462D01*
X300542Y444998D01*
X300542Y447189D02*
X298578Y447189D01*
X298578Y449380D02*
X300542Y449380D01*
X300542Y451571D02*
X298578Y451571D01*
X298578Y453762D02*
X300542Y453762D01*
X300542Y455953D02*
X298578Y455953D01*
X298578Y458144D02*
X300542Y458144D01*
X301078Y520498D02*
X303042Y520498D01*
X301078Y520498D02*
X301078Y534962D01*
X303042Y534962D01*
X303042Y520498D01*
X303042Y522689D02*
X301078Y522689D01*
X301078Y524880D02*
X303042Y524880D01*
X303042Y527071D02*
X301078Y527071D01*
X301078Y529262D02*
X303042Y529262D01*
X303042Y531453D02*
X301078Y531453D01*
X301078Y533644D02*
X303042Y533644D01*
X303578Y444998D02*
X305542Y444998D01*
X303578Y444998D02*
X303578Y459462D01*
X305542Y459462D01*
X305542Y444998D01*
X305542Y447189D02*
X303578Y447189D01*
X303578Y449380D02*
X305542Y449380D01*
X305542Y451571D02*
X303578Y451571D01*
X303578Y453762D02*
X305542Y453762D01*
X305542Y455953D02*
X303578Y455953D01*
X303578Y458144D02*
X305542Y458144D01*
X306078Y520498D02*
X308042Y520498D01*
X306078Y520498D02*
X306078Y534962D01*
X308042Y534962D01*
X308042Y520498D01*
X308042Y522689D02*
X306078Y522689D01*
X306078Y524880D02*
X308042Y524880D01*
X308042Y527071D02*
X306078Y527071D01*
X306078Y529262D02*
X308042Y529262D01*
X308042Y531453D02*
X306078Y531453D01*
X306078Y533644D02*
X308042Y533644D01*
X308578Y444998D02*
X310542Y444998D01*
X308578Y444998D02*
X308578Y459462D01*
X310542Y459462D01*
X310542Y444998D01*
X310542Y447189D02*
X308578Y447189D01*
X308578Y449380D02*
X310542Y449380D01*
X310542Y451571D02*
X308578Y451571D01*
X308578Y453762D02*
X310542Y453762D01*
X310542Y455953D02*
X308578Y455953D01*
X308578Y458144D02*
X310542Y458144D01*
X311078Y520498D02*
X313042Y520498D01*
X311078Y520498D02*
X311078Y534962D01*
X313042Y534962D01*
X313042Y520498D01*
X313042Y522689D02*
X311078Y522689D01*
X311078Y524880D02*
X313042Y524880D01*
X313042Y527071D02*
X311078Y527071D01*
X311078Y529262D02*
X313042Y529262D01*
X313042Y531453D02*
X311078Y531453D01*
X311078Y533644D02*
X313042Y533644D01*
X313578Y444998D02*
X315542Y444998D01*
X313578Y444998D02*
X313578Y459462D01*
X315542Y459462D01*
X315542Y444998D01*
X315542Y447189D02*
X313578Y447189D01*
X313578Y449380D02*
X315542Y449380D01*
X315542Y451571D02*
X313578Y451571D01*
X313578Y453762D02*
X315542Y453762D01*
X315542Y455953D02*
X313578Y455953D01*
X313578Y458144D02*
X315542Y458144D01*
X316078Y520498D02*
X318042Y520498D01*
X316078Y520498D02*
X316078Y534962D01*
X318042Y534962D01*
X318042Y520498D01*
X318042Y522689D02*
X316078Y522689D01*
X316078Y524880D02*
X318042Y524880D01*
X318042Y527071D02*
X316078Y527071D01*
X316078Y529262D02*
X318042Y529262D01*
X318042Y531453D02*
X316078Y531453D01*
X316078Y533644D02*
X318042Y533644D01*
X318578Y444998D02*
X320542Y444998D01*
X318578Y444998D02*
X318578Y459462D01*
X320542Y459462D01*
X320542Y444998D01*
X320542Y447189D02*
X318578Y447189D01*
X318578Y449380D02*
X320542Y449380D01*
X320542Y451571D02*
X318578Y451571D01*
X318578Y453762D02*
X320542Y453762D01*
X320542Y455953D02*
X318578Y455953D01*
X318578Y458144D02*
X320542Y458144D01*
X321078Y520498D02*
X323042Y520498D01*
X321078Y520498D02*
X321078Y534962D01*
X323042Y534962D01*
X323042Y520498D01*
X323042Y522689D02*
X321078Y522689D01*
X321078Y524880D02*
X323042Y524880D01*
X323042Y527071D02*
X321078Y527071D01*
X321078Y529262D02*
X323042Y529262D01*
X323042Y531453D02*
X321078Y531453D01*
X321078Y533644D02*
X323042Y533644D01*
X323578Y444998D02*
X325542Y444998D01*
X323578Y444998D02*
X323578Y459462D01*
X325542Y459462D01*
X325542Y444998D01*
X325542Y447189D02*
X323578Y447189D01*
X323578Y449380D02*
X325542Y449380D01*
X325542Y451571D02*
X323578Y451571D01*
X323578Y453762D02*
X325542Y453762D01*
X325542Y455953D02*
X323578Y455953D01*
X323578Y458144D02*
X325542Y458144D01*
X326078Y520498D02*
X328042Y520498D01*
X326078Y520498D02*
X326078Y534962D01*
X328042Y534962D01*
X328042Y520498D01*
X328042Y522689D02*
X326078Y522689D01*
X326078Y524880D02*
X328042Y524880D01*
X328042Y527071D02*
X326078Y527071D01*
X326078Y529262D02*
X328042Y529262D01*
X328042Y531453D02*
X326078Y531453D01*
X326078Y533644D02*
X328042Y533644D01*
X328578Y444998D02*
X330542Y444998D01*
X328578Y444998D02*
X328578Y459462D01*
X330542Y459462D01*
X330542Y444998D01*
X330542Y447189D02*
X328578Y447189D01*
X328578Y449380D02*
X330542Y449380D01*
X330542Y451571D02*
X328578Y451571D01*
X328578Y453762D02*
X330542Y453762D01*
X330542Y455953D02*
X328578Y455953D01*
X328578Y458144D02*
X330542Y458144D01*
X331078Y520498D02*
X333042Y520498D01*
X331078Y520498D02*
X331078Y534962D01*
X333042Y534962D01*
X333042Y520498D01*
X333042Y522689D02*
X331078Y522689D01*
X331078Y524880D02*
X333042Y524880D01*
X333042Y527071D02*
X331078Y527071D01*
X331078Y529262D02*
X333042Y529262D01*
X333042Y531453D02*
X331078Y531453D01*
X331078Y533644D02*
X333042Y533644D01*
X333578Y444998D02*
X335542Y444998D01*
X333578Y444998D02*
X333578Y459462D01*
X335542Y459462D01*
X335542Y444998D01*
X335542Y447189D02*
X333578Y447189D01*
X333578Y449380D02*
X335542Y449380D01*
X335542Y451571D02*
X333578Y451571D01*
X333578Y453762D02*
X335542Y453762D01*
X335542Y455953D02*
X333578Y455953D01*
X333578Y458144D02*
X335542Y458144D01*
X336078Y520498D02*
X338042Y520498D01*
X336078Y520498D02*
X336078Y534962D01*
X338042Y534962D01*
X338042Y520498D01*
X338042Y522689D02*
X336078Y522689D01*
X336078Y524880D02*
X338042Y524880D01*
X338042Y527071D02*
X336078Y527071D01*
X336078Y529262D02*
X338042Y529262D01*
X338042Y531453D02*
X336078Y531453D01*
X336078Y533644D02*
X338042Y533644D01*
X338578Y444998D02*
X340542Y444998D01*
X338578Y444998D02*
X338578Y459462D01*
X340542Y459462D01*
X340542Y444998D01*
X340542Y447189D02*
X338578Y447189D01*
X338578Y449380D02*
X340542Y449380D01*
X340542Y451571D02*
X338578Y451571D01*
X338578Y453762D02*
X340542Y453762D01*
X340542Y455953D02*
X338578Y455953D01*
X338578Y458144D02*
X340542Y458144D01*
X341078Y520498D02*
X343042Y520498D01*
X341078Y520498D02*
X341078Y534962D01*
X343042Y534962D01*
X343042Y520498D01*
X343042Y522689D02*
X341078Y522689D01*
X341078Y524880D02*
X343042Y524880D01*
X343042Y527071D02*
X341078Y527071D01*
X341078Y529262D02*
X343042Y529262D01*
X343042Y531453D02*
X341078Y531453D01*
X341078Y533644D02*
X343042Y533644D01*
X343578Y444998D02*
X345542Y444998D01*
X343578Y444998D02*
X343578Y459462D01*
X345542Y459462D01*
X345542Y444998D01*
X345542Y447189D02*
X343578Y447189D01*
X343578Y449380D02*
X345542Y449380D01*
X345542Y451571D02*
X343578Y451571D01*
X343578Y453762D02*
X345542Y453762D01*
X345542Y455953D02*
X343578Y455953D01*
X343578Y458144D02*
X345542Y458144D01*
X346078Y520498D02*
X348042Y520498D01*
X346078Y520498D02*
X346078Y534962D01*
X348042Y534962D01*
X348042Y520498D01*
X348042Y522689D02*
X346078Y522689D01*
X346078Y524880D02*
X348042Y524880D01*
X348042Y527071D02*
X346078Y527071D01*
X346078Y529262D02*
X348042Y529262D01*
X348042Y531453D02*
X346078Y531453D01*
X346078Y533644D02*
X348042Y533644D01*
X348578Y444998D02*
X350542Y444998D01*
X348578Y444998D02*
X348578Y459462D01*
X350542Y459462D01*
X350542Y444998D01*
X350542Y447189D02*
X348578Y447189D01*
X348578Y449380D02*
X350542Y449380D01*
X350542Y451571D02*
X348578Y451571D01*
X348578Y453762D02*
X350542Y453762D01*
X350542Y455953D02*
X348578Y455953D01*
X348578Y458144D02*
X350542Y458144D01*
X351078Y520498D02*
X353042Y520498D01*
X351078Y520498D02*
X351078Y534962D01*
X353042Y534962D01*
X353042Y520498D01*
X353042Y522689D02*
X351078Y522689D01*
X351078Y524880D02*
X353042Y524880D01*
X353042Y527071D02*
X351078Y527071D01*
X351078Y529262D02*
X353042Y529262D01*
X353042Y531453D02*
X351078Y531453D01*
X351078Y533644D02*
X353042Y533644D01*
X353578Y444998D02*
X355542Y444998D01*
X353578Y444998D02*
X353578Y459462D01*
X355542Y459462D01*
X355542Y444998D01*
X355542Y447189D02*
X353578Y447189D01*
X353578Y449380D02*
X355542Y449380D01*
X355542Y451571D02*
X353578Y451571D01*
X353578Y453762D02*
X355542Y453762D01*
X355542Y455953D02*
X353578Y455953D01*
X353578Y458144D02*
X355542Y458144D01*
X356078Y520498D02*
X358042Y520498D01*
X356078Y520498D02*
X356078Y534962D01*
X358042Y534962D01*
X358042Y520498D01*
X358042Y522689D02*
X356078Y522689D01*
X356078Y524880D02*
X358042Y524880D01*
X358042Y527071D02*
X356078Y527071D01*
X356078Y529262D02*
X358042Y529262D01*
X358042Y531453D02*
X356078Y531453D01*
X356078Y533644D02*
X358042Y533644D01*
X358578Y444998D02*
X360542Y444998D01*
X358578Y444998D02*
X358578Y459462D01*
X360542Y459462D01*
X360542Y444998D01*
X360542Y447189D02*
X358578Y447189D01*
X358578Y449380D02*
X360542Y449380D01*
X360542Y451571D02*
X358578Y451571D01*
X358578Y453762D02*
X360542Y453762D01*
X360542Y455953D02*
X358578Y455953D01*
X358578Y458144D02*
X360542Y458144D01*
X361078Y520498D02*
X363042Y520498D01*
X361078Y520498D02*
X361078Y534962D01*
X363042Y534962D01*
X363042Y520498D01*
X363042Y522689D02*
X361078Y522689D01*
X361078Y524880D02*
X363042Y524880D01*
X363042Y527071D02*
X361078Y527071D01*
X361078Y529262D02*
X363042Y529262D01*
X363042Y531453D02*
X361078Y531453D01*
X361078Y533644D02*
X363042Y533644D01*
X363578Y444998D02*
X365542Y444998D01*
X363578Y444998D02*
X363578Y459462D01*
X365542Y459462D01*
X365542Y444998D01*
X365542Y447189D02*
X363578Y447189D01*
X363578Y449380D02*
X365542Y449380D01*
X365542Y451571D02*
X363578Y451571D01*
X363578Y453762D02*
X365542Y453762D01*
X365542Y455953D02*
X363578Y455953D01*
X363578Y458144D02*
X365542Y458144D01*
X366078Y520498D02*
X368042Y520498D01*
X366078Y520498D02*
X366078Y534962D01*
X368042Y534962D01*
X368042Y520498D01*
X368042Y522689D02*
X366078Y522689D01*
X366078Y524880D02*
X368042Y524880D01*
X368042Y527071D02*
X366078Y527071D01*
X366078Y529262D02*
X368042Y529262D01*
X368042Y531453D02*
X366078Y531453D01*
X366078Y533644D02*
X368042Y533644D01*
X368578Y444998D02*
X370542Y444998D01*
X368578Y444998D02*
X368578Y459462D01*
X370542Y459462D01*
X370542Y444998D01*
X370542Y447189D02*
X368578Y447189D01*
X368578Y449380D02*
X370542Y449380D01*
X370542Y451571D02*
X368578Y451571D01*
X368578Y453762D02*
X370542Y453762D01*
X370542Y455953D02*
X368578Y455953D01*
X368578Y458144D02*
X370542Y458144D01*
X371078Y520498D02*
X373042Y520498D01*
X371078Y520498D02*
X371078Y534962D01*
X373042Y534962D01*
X373042Y520498D01*
X373042Y522689D02*
X371078Y522689D01*
X371078Y524880D02*
X373042Y524880D01*
X373042Y527071D02*
X371078Y527071D01*
X371078Y529262D02*
X373042Y529262D01*
X373042Y531453D02*
X371078Y531453D01*
X371078Y533644D02*
X373042Y533644D01*
X373578Y444998D02*
X375542Y444998D01*
X373578Y444998D02*
X373578Y459462D01*
X375542Y459462D01*
X375542Y444998D01*
X375542Y447189D02*
X373578Y447189D01*
X373578Y449380D02*
X375542Y449380D01*
X375542Y451571D02*
X373578Y451571D01*
X373578Y453762D02*
X375542Y453762D01*
X375542Y455953D02*
X373578Y455953D01*
X373578Y458144D02*
X375542Y458144D01*
X376078Y520498D02*
X378042Y520498D01*
X376078Y520498D02*
X376078Y534962D01*
X378042Y534962D01*
X378042Y520498D01*
X378042Y522689D02*
X376078Y522689D01*
X376078Y524880D02*
X378042Y524880D01*
X378042Y527071D02*
X376078Y527071D01*
X376078Y529262D02*
X378042Y529262D01*
X378042Y531453D02*
X376078Y531453D01*
X376078Y533644D02*
X378042Y533644D01*
X378578Y444998D02*
X380542Y444998D01*
X378578Y444998D02*
X378578Y459462D01*
X380542Y459462D01*
X380542Y444998D01*
X380542Y447189D02*
X378578Y447189D01*
X378578Y449380D02*
X380542Y449380D01*
X380542Y451571D02*
X378578Y451571D01*
X378578Y453762D02*
X380542Y453762D01*
X380542Y455953D02*
X378578Y455953D01*
X378578Y458144D02*
X380542Y458144D01*
X381078Y520498D02*
X383042Y520498D01*
X381078Y520498D02*
X381078Y534962D01*
X383042Y534962D01*
X383042Y520498D01*
X383042Y522689D02*
X381078Y522689D01*
X381078Y524880D02*
X383042Y524880D01*
X383042Y527071D02*
X381078Y527071D01*
X381078Y529262D02*
X383042Y529262D01*
X383042Y531453D02*
X381078Y531453D01*
X381078Y533644D02*
X383042Y533644D01*
D17*
X24762Y622358D03*
X24762Y609658D03*
X24762Y596958D03*
X24762Y584258D03*
X24762Y635058D03*
X37462Y622358D03*
X37462Y609658D03*
X37462Y596958D03*
X37462Y584258D03*
X37462Y635058D03*
X835660Y683260D03*
X26670Y77470D03*
D18*
X62706Y476726D02*
X62706Y483394D01*
X76994Y483394D01*
X76994Y476726D01*
X62706Y476726D01*
X62706Y478838D02*
X76994Y478838D01*
X76994Y480950D02*
X62706Y480950D01*
X62706Y483062D02*
X76994Y483062D01*
X6826Y483394D02*
X6826Y476726D01*
X6826Y483394D02*
X21114Y483394D01*
X21114Y476726D01*
X6826Y476726D01*
X6826Y478838D02*
X21114Y478838D01*
X21114Y480950D02*
X6826Y480950D01*
X6826Y483062D02*
X21114Y483062D01*
X62706Y514826D02*
X62706Y521494D01*
X76994Y521494D01*
X76994Y514826D01*
X62706Y514826D01*
X62706Y516938D02*
X76994Y516938D01*
X76994Y519050D02*
X62706Y519050D01*
X62706Y521162D02*
X76994Y521162D01*
X6826Y521494D02*
X6826Y514826D01*
X6826Y521494D02*
X21114Y521494D01*
X21114Y514826D01*
X6826Y514826D01*
X6826Y516938D02*
X21114Y516938D01*
X21114Y519050D02*
X6826Y519050D01*
X6826Y521162D02*
X21114Y521162D01*
X62706Y416084D02*
X62706Y409416D01*
X62706Y416084D02*
X76994Y416084D01*
X76994Y409416D01*
X62706Y409416D01*
X62706Y411528D02*
X76994Y411528D01*
X76994Y413640D02*
X62706Y413640D01*
X62706Y415752D02*
X76994Y415752D01*
X6826Y416084D02*
X6826Y409416D01*
X6826Y416084D02*
X21114Y416084D01*
X21114Y409416D01*
X6826Y409416D01*
X6826Y411528D02*
X21114Y411528D01*
X21114Y413640D02*
X6826Y413640D01*
X6826Y415752D02*
X21114Y415752D01*
X62706Y447516D02*
X62706Y454184D01*
X76994Y454184D01*
X76994Y447516D01*
X62706Y447516D01*
X62706Y449628D02*
X76994Y449628D01*
X76994Y451740D02*
X62706Y451740D01*
X62706Y453852D02*
X76994Y453852D01*
X6826Y454184D02*
X6826Y447516D01*
X6826Y454184D02*
X21114Y454184D01*
X21114Y447516D01*
X6826Y447516D01*
X6826Y449628D02*
X21114Y449628D01*
X21114Y451740D02*
X6826Y451740D01*
X6826Y453852D02*
X21114Y453852D01*
D19*
X41148Y537464D03*
D20*
X95712Y490284D02*
X105728Y490284D01*
X95712Y490284D02*
X95712Y499300D01*
X105728Y499300D01*
X105728Y490284D01*
X105728Y492425D02*
X95712Y492425D01*
X95712Y494566D02*
X105728Y494566D01*
X105728Y496707D02*
X95712Y496707D01*
X95712Y498848D02*
X105728Y498848D01*
X112712Y490284D02*
X122728Y490284D01*
X112712Y490284D02*
X112712Y499300D01*
X122728Y499300D01*
X122728Y490284D01*
X122728Y492425D02*
X112712Y492425D01*
X112712Y494566D02*
X122728Y494566D01*
X122728Y496707D02*
X112712Y496707D01*
X112712Y498848D02*
X122728Y498848D01*
X122728Y515556D02*
X112712Y515556D01*
X122728Y515556D02*
X122728Y506540D01*
X112712Y506540D01*
X112712Y515556D01*
X112712Y508681D02*
X122728Y508681D01*
X122728Y510822D02*
X112712Y510822D01*
X112712Y512963D02*
X122728Y512963D01*
X122728Y515104D02*
X112712Y515104D01*
X105728Y515556D02*
X95712Y515556D01*
X105728Y515556D02*
X105728Y506540D01*
X95712Y506540D01*
X95712Y515556D01*
X95712Y508681D02*
X105728Y508681D01*
X105728Y510822D02*
X95712Y510822D01*
X95712Y512963D02*
X105728Y512963D01*
X105728Y515104D02*
X95712Y515104D01*
D14*
X522300Y632460D03*
D15*
X722300Y632460D03*
D16*
X530782Y677978D02*
X528818Y677978D01*
X528818Y692442D01*
X530782Y692442D01*
X530782Y677978D01*
X530782Y680169D02*
X528818Y680169D01*
X528818Y682360D02*
X530782Y682360D01*
X530782Y684551D02*
X528818Y684551D01*
X528818Y686742D02*
X530782Y686742D01*
X530782Y688933D02*
X528818Y688933D01*
X528818Y691124D02*
X530782Y691124D01*
D11*
X524307Y664203D02*
X513293Y664203D01*
X513293Y690717D01*
X524307Y690717D01*
X524307Y664203D01*
X524307Y666346D02*
X513293Y666346D01*
X513293Y668489D02*
X524307Y668489D01*
X524307Y670632D02*
X513293Y670632D01*
X513293Y672775D02*
X524307Y672775D01*
X524307Y674918D02*
X513293Y674918D01*
X513293Y677061D02*
X524307Y677061D01*
X524307Y679204D02*
X513293Y679204D01*
X513293Y681347D02*
X524307Y681347D01*
X524307Y683490D02*
X513293Y683490D01*
X513293Y685633D02*
X524307Y685633D01*
X524307Y687776D02*
X513293Y687776D01*
X513293Y689919D02*
X524307Y689919D01*
X720293Y664203D02*
X731307Y664203D01*
X720293Y664203D02*
X720293Y690717D01*
X731307Y690717D01*
X731307Y664203D01*
X731307Y666346D02*
X720293Y666346D01*
X720293Y668489D02*
X731307Y668489D01*
X731307Y670632D02*
X720293Y670632D01*
X720293Y672775D02*
X731307Y672775D01*
X731307Y674918D02*
X720293Y674918D01*
X720293Y677061D02*
X731307Y677061D01*
X731307Y679204D02*
X720293Y679204D01*
X720293Y681347D02*
X731307Y681347D01*
X731307Y683490D02*
X720293Y683490D01*
X720293Y685633D02*
X731307Y685633D01*
X731307Y687776D02*
X720293Y687776D01*
X720293Y689919D02*
X731307Y689919D01*
D16*
X533282Y602478D02*
X531318Y602478D01*
X531318Y616942D01*
X533282Y616942D01*
X533282Y602478D01*
X533282Y604669D02*
X531318Y604669D01*
X531318Y606860D02*
X533282Y606860D01*
X533282Y609051D02*
X531318Y609051D01*
X531318Y611242D02*
X533282Y611242D01*
X533282Y613433D02*
X531318Y613433D01*
X531318Y615624D02*
X533282Y615624D01*
X533818Y677978D02*
X535782Y677978D01*
X533818Y677978D02*
X533818Y692442D01*
X535782Y692442D01*
X535782Y677978D01*
X535782Y680169D02*
X533818Y680169D01*
X533818Y682360D02*
X535782Y682360D01*
X535782Y684551D02*
X533818Y684551D01*
X533818Y686742D02*
X535782Y686742D01*
X535782Y688933D02*
X533818Y688933D01*
X533818Y691124D02*
X535782Y691124D01*
X536318Y602478D02*
X538282Y602478D01*
X536318Y602478D02*
X536318Y616942D01*
X538282Y616942D01*
X538282Y602478D01*
X538282Y604669D02*
X536318Y604669D01*
X536318Y606860D02*
X538282Y606860D01*
X538282Y609051D02*
X536318Y609051D01*
X536318Y611242D02*
X538282Y611242D01*
X538282Y613433D02*
X536318Y613433D01*
X536318Y615624D02*
X538282Y615624D01*
X538818Y677978D02*
X540782Y677978D01*
X538818Y677978D02*
X538818Y692442D01*
X540782Y692442D01*
X540782Y677978D01*
X540782Y680169D02*
X538818Y680169D01*
X538818Y682360D02*
X540782Y682360D01*
X540782Y684551D02*
X538818Y684551D01*
X538818Y686742D02*
X540782Y686742D01*
X540782Y688933D02*
X538818Y688933D01*
X538818Y691124D02*
X540782Y691124D01*
X541318Y602478D02*
X543282Y602478D01*
X541318Y602478D02*
X541318Y616942D01*
X543282Y616942D01*
X543282Y602478D01*
X543282Y604669D02*
X541318Y604669D01*
X541318Y606860D02*
X543282Y606860D01*
X543282Y609051D02*
X541318Y609051D01*
X541318Y611242D02*
X543282Y611242D01*
X543282Y613433D02*
X541318Y613433D01*
X541318Y615624D02*
X543282Y615624D01*
X543818Y677978D02*
X545782Y677978D01*
X543818Y677978D02*
X543818Y692442D01*
X545782Y692442D01*
X545782Y677978D01*
X545782Y680169D02*
X543818Y680169D01*
X543818Y682360D02*
X545782Y682360D01*
X545782Y684551D02*
X543818Y684551D01*
X543818Y686742D02*
X545782Y686742D01*
X545782Y688933D02*
X543818Y688933D01*
X543818Y691124D02*
X545782Y691124D01*
X546318Y602478D02*
X548282Y602478D01*
X546318Y602478D02*
X546318Y616942D01*
X548282Y616942D01*
X548282Y602478D01*
X548282Y604669D02*
X546318Y604669D01*
X546318Y606860D02*
X548282Y606860D01*
X548282Y609051D02*
X546318Y609051D01*
X546318Y611242D02*
X548282Y611242D01*
X548282Y613433D02*
X546318Y613433D01*
X546318Y615624D02*
X548282Y615624D01*
X548818Y677978D02*
X550782Y677978D01*
X548818Y677978D02*
X548818Y692442D01*
X550782Y692442D01*
X550782Y677978D01*
X550782Y680169D02*
X548818Y680169D01*
X548818Y682360D02*
X550782Y682360D01*
X550782Y684551D02*
X548818Y684551D01*
X548818Y686742D02*
X550782Y686742D01*
X550782Y688933D02*
X548818Y688933D01*
X548818Y691124D02*
X550782Y691124D01*
X551318Y602478D02*
X553282Y602478D01*
X551318Y602478D02*
X551318Y616942D01*
X553282Y616942D01*
X553282Y602478D01*
X553282Y604669D02*
X551318Y604669D01*
X551318Y606860D02*
X553282Y606860D01*
X553282Y609051D02*
X551318Y609051D01*
X551318Y611242D02*
X553282Y611242D01*
X553282Y613433D02*
X551318Y613433D01*
X551318Y615624D02*
X553282Y615624D01*
X553818Y677978D02*
X555782Y677978D01*
X553818Y677978D02*
X553818Y692442D01*
X555782Y692442D01*
X555782Y677978D01*
X555782Y680169D02*
X553818Y680169D01*
X553818Y682360D02*
X555782Y682360D01*
X555782Y684551D02*
X553818Y684551D01*
X553818Y686742D02*
X555782Y686742D01*
X555782Y688933D02*
X553818Y688933D01*
X553818Y691124D02*
X555782Y691124D01*
X556318Y602478D02*
X558282Y602478D01*
X556318Y602478D02*
X556318Y616942D01*
X558282Y616942D01*
X558282Y602478D01*
X558282Y604669D02*
X556318Y604669D01*
X556318Y606860D02*
X558282Y606860D01*
X558282Y609051D02*
X556318Y609051D01*
X556318Y611242D02*
X558282Y611242D01*
X558282Y613433D02*
X556318Y613433D01*
X556318Y615624D02*
X558282Y615624D01*
X558818Y677978D02*
X560782Y677978D01*
X558818Y677978D02*
X558818Y692442D01*
X560782Y692442D01*
X560782Y677978D01*
X560782Y680169D02*
X558818Y680169D01*
X558818Y682360D02*
X560782Y682360D01*
X560782Y684551D02*
X558818Y684551D01*
X558818Y686742D02*
X560782Y686742D01*
X560782Y688933D02*
X558818Y688933D01*
X558818Y691124D02*
X560782Y691124D01*
X561318Y602478D02*
X563282Y602478D01*
X561318Y602478D02*
X561318Y616942D01*
X563282Y616942D01*
X563282Y602478D01*
X563282Y604669D02*
X561318Y604669D01*
X561318Y606860D02*
X563282Y606860D01*
X563282Y609051D02*
X561318Y609051D01*
X561318Y611242D02*
X563282Y611242D01*
X563282Y613433D02*
X561318Y613433D01*
X561318Y615624D02*
X563282Y615624D01*
X563818Y677978D02*
X565782Y677978D01*
X563818Y677978D02*
X563818Y692442D01*
X565782Y692442D01*
X565782Y677978D01*
X565782Y680169D02*
X563818Y680169D01*
X563818Y682360D02*
X565782Y682360D01*
X565782Y684551D02*
X563818Y684551D01*
X563818Y686742D02*
X565782Y686742D01*
X565782Y688933D02*
X563818Y688933D01*
X563818Y691124D02*
X565782Y691124D01*
X566318Y602478D02*
X568282Y602478D01*
X566318Y602478D02*
X566318Y616942D01*
X568282Y616942D01*
X568282Y602478D01*
X568282Y604669D02*
X566318Y604669D01*
X566318Y606860D02*
X568282Y606860D01*
X568282Y609051D02*
X566318Y609051D01*
X566318Y611242D02*
X568282Y611242D01*
X568282Y613433D02*
X566318Y613433D01*
X566318Y615624D02*
X568282Y615624D01*
X568818Y677978D02*
X570782Y677978D01*
X568818Y677978D02*
X568818Y692442D01*
X570782Y692442D01*
X570782Y677978D01*
X570782Y680169D02*
X568818Y680169D01*
X568818Y682360D02*
X570782Y682360D01*
X570782Y684551D02*
X568818Y684551D01*
X568818Y686742D02*
X570782Y686742D01*
X570782Y688933D02*
X568818Y688933D01*
X568818Y691124D02*
X570782Y691124D01*
X571318Y602478D02*
X573282Y602478D01*
X571318Y602478D02*
X571318Y616942D01*
X573282Y616942D01*
X573282Y602478D01*
X573282Y604669D02*
X571318Y604669D01*
X571318Y606860D02*
X573282Y606860D01*
X573282Y609051D02*
X571318Y609051D01*
X571318Y611242D02*
X573282Y611242D01*
X573282Y613433D02*
X571318Y613433D01*
X571318Y615624D02*
X573282Y615624D01*
X573818Y677978D02*
X575782Y677978D01*
X573818Y677978D02*
X573818Y692442D01*
X575782Y692442D01*
X575782Y677978D01*
X575782Y680169D02*
X573818Y680169D01*
X573818Y682360D02*
X575782Y682360D01*
X575782Y684551D02*
X573818Y684551D01*
X573818Y686742D02*
X575782Y686742D01*
X575782Y688933D02*
X573818Y688933D01*
X573818Y691124D02*
X575782Y691124D01*
X576318Y602478D02*
X578282Y602478D01*
X576318Y602478D02*
X576318Y616942D01*
X578282Y616942D01*
X578282Y602478D01*
X578282Y604669D02*
X576318Y604669D01*
X576318Y606860D02*
X578282Y606860D01*
X578282Y609051D02*
X576318Y609051D01*
X576318Y611242D02*
X578282Y611242D01*
X578282Y613433D02*
X576318Y613433D01*
X576318Y615624D02*
X578282Y615624D01*
X578818Y677978D02*
X580782Y677978D01*
X578818Y677978D02*
X578818Y692442D01*
X580782Y692442D01*
X580782Y677978D01*
X580782Y680169D02*
X578818Y680169D01*
X578818Y682360D02*
X580782Y682360D01*
X580782Y684551D02*
X578818Y684551D01*
X578818Y686742D02*
X580782Y686742D01*
X580782Y688933D02*
X578818Y688933D01*
X578818Y691124D02*
X580782Y691124D01*
X581318Y602478D02*
X583282Y602478D01*
X581318Y602478D02*
X581318Y616942D01*
X583282Y616942D01*
X583282Y602478D01*
X583282Y604669D02*
X581318Y604669D01*
X581318Y606860D02*
X583282Y606860D01*
X583282Y609051D02*
X581318Y609051D01*
X581318Y611242D02*
X583282Y611242D01*
X583282Y613433D02*
X581318Y613433D01*
X581318Y615624D02*
X583282Y615624D01*
X583818Y677978D02*
X585782Y677978D01*
X583818Y677978D02*
X583818Y692442D01*
X585782Y692442D01*
X585782Y677978D01*
X585782Y680169D02*
X583818Y680169D01*
X583818Y682360D02*
X585782Y682360D01*
X585782Y684551D02*
X583818Y684551D01*
X583818Y686742D02*
X585782Y686742D01*
X585782Y688933D02*
X583818Y688933D01*
X583818Y691124D02*
X585782Y691124D01*
X606318Y602478D02*
X608282Y602478D01*
X606318Y602478D02*
X606318Y616942D01*
X608282Y616942D01*
X608282Y602478D01*
X608282Y604669D02*
X606318Y604669D01*
X606318Y606860D02*
X608282Y606860D01*
X608282Y609051D02*
X606318Y609051D01*
X606318Y611242D02*
X608282Y611242D01*
X608282Y613433D02*
X606318Y613433D01*
X606318Y615624D02*
X608282Y615624D01*
X608818Y677978D02*
X610782Y677978D01*
X608818Y677978D02*
X608818Y692442D01*
X610782Y692442D01*
X610782Y677978D01*
X610782Y680169D02*
X608818Y680169D01*
X608818Y682360D02*
X610782Y682360D01*
X610782Y684551D02*
X608818Y684551D01*
X608818Y686742D02*
X610782Y686742D01*
X610782Y688933D02*
X608818Y688933D01*
X608818Y691124D02*
X610782Y691124D01*
X611318Y602478D02*
X613282Y602478D01*
X611318Y602478D02*
X611318Y616942D01*
X613282Y616942D01*
X613282Y602478D01*
X613282Y604669D02*
X611318Y604669D01*
X611318Y606860D02*
X613282Y606860D01*
X613282Y609051D02*
X611318Y609051D01*
X611318Y611242D02*
X613282Y611242D01*
X613282Y613433D02*
X611318Y613433D01*
X611318Y615624D02*
X613282Y615624D01*
X613818Y677978D02*
X615782Y677978D01*
X613818Y677978D02*
X613818Y692442D01*
X615782Y692442D01*
X615782Y677978D01*
X615782Y680169D02*
X613818Y680169D01*
X613818Y682360D02*
X615782Y682360D01*
X615782Y684551D02*
X613818Y684551D01*
X613818Y686742D02*
X615782Y686742D01*
X615782Y688933D02*
X613818Y688933D01*
X613818Y691124D02*
X615782Y691124D01*
X616318Y602478D02*
X618282Y602478D01*
X616318Y602478D02*
X616318Y616942D01*
X618282Y616942D01*
X618282Y602478D01*
X618282Y604669D02*
X616318Y604669D01*
X616318Y606860D02*
X618282Y606860D01*
X618282Y609051D02*
X616318Y609051D01*
X616318Y611242D02*
X618282Y611242D01*
X618282Y613433D02*
X616318Y613433D01*
X616318Y615624D02*
X618282Y615624D01*
X618818Y677978D02*
X620782Y677978D01*
X618818Y677978D02*
X618818Y692442D01*
X620782Y692442D01*
X620782Y677978D01*
X620782Y680169D02*
X618818Y680169D01*
X618818Y682360D02*
X620782Y682360D01*
X620782Y684551D02*
X618818Y684551D01*
X618818Y686742D02*
X620782Y686742D01*
X620782Y688933D02*
X618818Y688933D01*
X618818Y691124D02*
X620782Y691124D01*
X621318Y602478D02*
X623282Y602478D01*
X621318Y602478D02*
X621318Y616942D01*
X623282Y616942D01*
X623282Y602478D01*
X623282Y604669D02*
X621318Y604669D01*
X621318Y606860D02*
X623282Y606860D01*
X623282Y609051D02*
X621318Y609051D01*
X621318Y611242D02*
X623282Y611242D01*
X623282Y613433D02*
X621318Y613433D01*
X621318Y615624D02*
X623282Y615624D01*
X623818Y677978D02*
X625782Y677978D01*
X623818Y677978D02*
X623818Y692442D01*
X625782Y692442D01*
X625782Y677978D01*
X625782Y680169D02*
X623818Y680169D01*
X623818Y682360D02*
X625782Y682360D01*
X625782Y684551D02*
X623818Y684551D01*
X623818Y686742D02*
X625782Y686742D01*
X625782Y688933D02*
X623818Y688933D01*
X623818Y691124D02*
X625782Y691124D01*
X626318Y602478D02*
X628282Y602478D01*
X626318Y602478D02*
X626318Y616942D01*
X628282Y616942D01*
X628282Y602478D01*
X628282Y604669D02*
X626318Y604669D01*
X626318Y606860D02*
X628282Y606860D01*
X628282Y609051D02*
X626318Y609051D01*
X626318Y611242D02*
X628282Y611242D01*
X628282Y613433D02*
X626318Y613433D01*
X626318Y615624D02*
X628282Y615624D01*
X628818Y677978D02*
X630782Y677978D01*
X628818Y677978D02*
X628818Y692442D01*
X630782Y692442D01*
X630782Y677978D01*
X630782Y680169D02*
X628818Y680169D01*
X628818Y682360D02*
X630782Y682360D01*
X630782Y684551D02*
X628818Y684551D01*
X628818Y686742D02*
X630782Y686742D01*
X630782Y688933D02*
X628818Y688933D01*
X628818Y691124D02*
X630782Y691124D01*
X631318Y602478D02*
X633282Y602478D01*
X631318Y602478D02*
X631318Y616942D01*
X633282Y616942D01*
X633282Y602478D01*
X633282Y604669D02*
X631318Y604669D01*
X631318Y606860D02*
X633282Y606860D01*
X633282Y609051D02*
X631318Y609051D01*
X631318Y611242D02*
X633282Y611242D01*
X633282Y613433D02*
X631318Y613433D01*
X631318Y615624D02*
X633282Y615624D01*
X633818Y677978D02*
X635782Y677978D01*
X633818Y677978D02*
X633818Y692442D01*
X635782Y692442D01*
X635782Y677978D01*
X635782Y680169D02*
X633818Y680169D01*
X633818Y682360D02*
X635782Y682360D01*
X635782Y684551D02*
X633818Y684551D01*
X633818Y686742D02*
X635782Y686742D01*
X635782Y688933D02*
X633818Y688933D01*
X633818Y691124D02*
X635782Y691124D01*
X636318Y602478D02*
X638282Y602478D01*
X636318Y602478D02*
X636318Y616942D01*
X638282Y616942D01*
X638282Y602478D01*
X638282Y604669D02*
X636318Y604669D01*
X636318Y606860D02*
X638282Y606860D01*
X638282Y609051D02*
X636318Y609051D01*
X636318Y611242D02*
X638282Y611242D01*
X638282Y613433D02*
X636318Y613433D01*
X636318Y615624D02*
X638282Y615624D01*
X638818Y677978D02*
X640782Y677978D01*
X638818Y677978D02*
X638818Y692442D01*
X640782Y692442D01*
X640782Y677978D01*
X640782Y680169D02*
X638818Y680169D01*
X638818Y682360D02*
X640782Y682360D01*
X640782Y684551D02*
X638818Y684551D01*
X638818Y686742D02*
X640782Y686742D01*
X640782Y688933D02*
X638818Y688933D01*
X638818Y691124D02*
X640782Y691124D01*
X641318Y602478D02*
X643282Y602478D01*
X641318Y602478D02*
X641318Y616942D01*
X643282Y616942D01*
X643282Y602478D01*
X643282Y604669D02*
X641318Y604669D01*
X641318Y606860D02*
X643282Y606860D01*
X643282Y609051D02*
X641318Y609051D01*
X641318Y611242D02*
X643282Y611242D01*
X643282Y613433D02*
X641318Y613433D01*
X641318Y615624D02*
X643282Y615624D01*
X643818Y677978D02*
X645782Y677978D01*
X643818Y677978D02*
X643818Y692442D01*
X645782Y692442D01*
X645782Y677978D01*
X645782Y680169D02*
X643818Y680169D01*
X643818Y682360D02*
X645782Y682360D01*
X645782Y684551D02*
X643818Y684551D01*
X643818Y686742D02*
X645782Y686742D01*
X645782Y688933D02*
X643818Y688933D01*
X643818Y691124D02*
X645782Y691124D01*
X646318Y602478D02*
X648282Y602478D01*
X646318Y602478D02*
X646318Y616942D01*
X648282Y616942D01*
X648282Y602478D01*
X648282Y604669D02*
X646318Y604669D01*
X646318Y606860D02*
X648282Y606860D01*
X648282Y609051D02*
X646318Y609051D01*
X646318Y611242D02*
X648282Y611242D01*
X648282Y613433D02*
X646318Y613433D01*
X646318Y615624D02*
X648282Y615624D01*
X648818Y677978D02*
X650782Y677978D01*
X648818Y677978D02*
X648818Y692442D01*
X650782Y692442D01*
X650782Y677978D01*
X650782Y680169D02*
X648818Y680169D01*
X648818Y682360D02*
X650782Y682360D01*
X650782Y684551D02*
X648818Y684551D01*
X648818Y686742D02*
X650782Y686742D01*
X650782Y688933D02*
X648818Y688933D01*
X648818Y691124D02*
X650782Y691124D01*
X651318Y602478D02*
X653282Y602478D01*
X651318Y602478D02*
X651318Y616942D01*
X653282Y616942D01*
X653282Y602478D01*
X653282Y604669D02*
X651318Y604669D01*
X651318Y606860D02*
X653282Y606860D01*
X653282Y609051D02*
X651318Y609051D01*
X651318Y611242D02*
X653282Y611242D01*
X653282Y613433D02*
X651318Y613433D01*
X651318Y615624D02*
X653282Y615624D01*
X653818Y677978D02*
X655782Y677978D01*
X653818Y677978D02*
X653818Y692442D01*
X655782Y692442D01*
X655782Y677978D01*
X655782Y680169D02*
X653818Y680169D01*
X653818Y682360D02*
X655782Y682360D01*
X655782Y684551D02*
X653818Y684551D01*
X653818Y686742D02*
X655782Y686742D01*
X655782Y688933D02*
X653818Y688933D01*
X653818Y691124D02*
X655782Y691124D01*
X656318Y602478D02*
X658282Y602478D01*
X656318Y602478D02*
X656318Y616942D01*
X658282Y616942D01*
X658282Y602478D01*
X658282Y604669D02*
X656318Y604669D01*
X656318Y606860D02*
X658282Y606860D01*
X658282Y609051D02*
X656318Y609051D01*
X656318Y611242D02*
X658282Y611242D01*
X658282Y613433D02*
X656318Y613433D01*
X656318Y615624D02*
X658282Y615624D01*
X658818Y677978D02*
X660782Y677978D01*
X658818Y677978D02*
X658818Y692442D01*
X660782Y692442D01*
X660782Y677978D01*
X660782Y680169D02*
X658818Y680169D01*
X658818Y682360D02*
X660782Y682360D01*
X660782Y684551D02*
X658818Y684551D01*
X658818Y686742D02*
X660782Y686742D01*
X660782Y688933D02*
X658818Y688933D01*
X658818Y691124D02*
X660782Y691124D01*
X661318Y602478D02*
X663282Y602478D01*
X661318Y602478D02*
X661318Y616942D01*
X663282Y616942D01*
X663282Y602478D01*
X663282Y604669D02*
X661318Y604669D01*
X661318Y606860D02*
X663282Y606860D01*
X663282Y609051D02*
X661318Y609051D01*
X661318Y611242D02*
X663282Y611242D01*
X663282Y613433D02*
X661318Y613433D01*
X661318Y615624D02*
X663282Y615624D01*
X663818Y677978D02*
X665782Y677978D01*
X663818Y677978D02*
X663818Y692442D01*
X665782Y692442D01*
X665782Y677978D01*
X665782Y680169D02*
X663818Y680169D01*
X663818Y682360D02*
X665782Y682360D01*
X665782Y684551D02*
X663818Y684551D01*
X663818Y686742D02*
X665782Y686742D01*
X665782Y688933D02*
X663818Y688933D01*
X663818Y691124D02*
X665782Y691124D01*
X666318Y602478D02*
X668282Y602478D01*
X666318Y602478D02*
X666318Y616942D01*
X668282Y616942D01*
X668282Y602478D01*
X668282Y604669D02*
X666318Y604669D01*
X666318Y606860D02*
X668282Y606860D01*
X668282Y609051D02*
X666318Y609051D01*
X666318Y611242D02*
X668282Y611242D01*
X668282Y613433D02*
X666318Y613433D01*
X666318Y615624D02*
X668282Y615624D01*
X668818Y677978D02*
X670782Y677978D01*
X668818Y677978D02*
X668818Y692442D01*
X670782Y692442D01*
X670782Y677978D01*
X670782Y680169D02*
X668818Y680169D01*
X668818Y682360D02*
X670782Y682360D01*
X670782Y684551D02*
X668818Y684551D01*
X668818Y686742D02*
X670782Y686742D01*
X670782Y688933D02*
X668818Y688933D01*
X668818Y691124D02*
X670782Y691124D01*
X671318Y602478D02*
X673282Y602478D01*
X671318Y602478D02*
X671318Y616942D01*
X673282Y616942D01*
X673282Y602478D01*
X673282Y604669D02*
X671318Y604669D01*
X671318Y606860D02*
X673282Y606860D01*
X673282Y609051D02*
X671318Y609051D01*
X671318Y611242D02*
X673282Y611242D01*
X673282Y613433D02*
X671318Y613433D01*
X671318Y615624D02*
X673282Y615624D01*
X673818Y677978D02*
X675782Y677978D01*
X673818Y677978D02*
X673818Y692442D01*
X675782Y692442D01*
X675782Y677978D01*
X675782Y680169D02*
X673818Y680169D01*
X673818Y682360D02*
X675782Y682360D01*
X675782Y684551D02*
X673818Y684551D01*
X673818Y686742D02*
X675782Y686742D01*
X675782Y688933D02*
X673818Y688933D01*
X673818Y691124D02*
X675782Y691124D01*
X676318Y602478D02*
X678282Y602478D01*
X676318Y602478D02*
X676318Y616942D01*
X678282Y616942D01*
X678282Y602478D01*
X678282Y604669D02*
X676318Y604669D01*
X676318Y606860D02*
X678282Y606860D01*
X678282Y609051D02*
X676318Y609051D01*
X676318Y611242D02*
X678282Y611242D01*
X678282Y613433D02*
X676318Y613433D01*
X676318Y615624D02*
X678282Y615624D01*
X678818Y677978D02*
X680782Y677978D01*
X678818Y677978D02*
X678818Y692442D01*
X680782Y692442D01*
X680782Y677978D01*
X680782Y680169D02*
X678818Y680169D01*
X678818Y682360D02*
X680782Y682360D01*
X680782Y684551D02*
X678818Y684551D01*
X678818Y686742D02*
X680782Y686742D01*
X680782Y688933D02*
X678818Y688933D01*
X678818Y691124D02*
X680782Y691124D01*
X681318Y602478D02*
X683282Y602478D01*
X681318Y602478D02*
X681318Y616942D01*
X683282Y616942D01*
X683282Y602478D01*
X683282Y604669D02*
X681318Y604669D01*
X681318Y606860D02*
X683282Y606860D01*
X683282Y609051D02*
X681318Y609051D01*
X681318Y611242D02*
X683282Y611242D01*
X683282Y613433D02*
X681318Y613433D01*
X681318Y615624D02*
X683282Y615624D01*
X683818Y677978D02*
X685782Y677978D01*
X683818Y677978D02*
X683818Y692442D01*
X685782Y692442D01*
X685782Y677978D01*
X685782Y680169D02*
X683818Y680169D01*
X683818Y682360D02*
X685782Y682360D01*
X685782Y684551D02*
X683818Y684551D01*
X683818Y686742D02*
X685782Y686742D01*
X685782Y688933D02*
X683818Y688933D01*
X683818Y691124D02*
X685782Y691124D01*
X686318Y602478D02*
X688282Y602478D01*
X686318Y602478D02*
X686318Y616942D01*
X688282Y616942D01*
X688282Y602478D01*
X688282Y604669D02*
X686318Y604669D01*
X686318Y606860D02*
X688282Y606860D01*
X688282Y609051D02*
X686318Y609051D01*
X686318Y611242D02*
X688282Y611242D01*
X688282Y613433D02*
X686318Y613433D01*
X686318Y615624D02*
X688282Y615624D01*
X688818Y677978D02*
X690782Y677978D01*
X688818Y677978D02*
X688818Y692442D01*
X690782Y692442D01*
X690782Y677978D01*
X690782Y680169D02*
X688818Y680169D01*
X688818Y682360D02*
X690782Y682360D01*
X690782Y684551D02*
X688818Y684551D01*
X688818Y686742D02*
X690782Y686742D01*
X690782Y688933D02*
X688818Y688933D01*
X688818Y691124D02*
X690782Y691124D01*
X691318Y602478D02*
X693282Y602478D01*
X691318Y602478D02*
X691318Y616942D01*
X693282Y616942D01*
X693282Y602478D01*
X693282Y604669D02*
X691318Y604669D01*
X691318Y606860D02*
X693282Y606860D01*
X693282Y609051D02*
X691318Y609051D01*
X691318Y611242D02*
X693282Y611242D01*
X693282Y613433D02*
X691318Y613433D01*
X691318Y615624D02*
X693282Y615624D01*
X693818Y677978D02*
X695782Y677978D01*
X693818Y677978D02*
X693818Y692442D01*
X695782Y692442D01*
X695782Y677978D01*
X695782Y680169D02*
X693818Y680169D01*
X693818Y682360D02*
X695782Y682360D01*
X695782Y684551D02*
X693818Y684551D01*
X693818Y686742D02*
X695782Y686742D01*
X695782Y688933D02*
X693818Y688933D01*
X693818Y691124D02*
X695782Y691124D01*
X696318Y602478D02*
X698282Y602478D01*
X696318Y602478D02*
X696318Y616942D01*
X698282Y616942D01*
X698282Y602478D01*
X698282Y604669D02*
X696318Y604669D01*
X696318Y606860D02*
X698282Y606860D01*
X698282Y609051D02*
X696318Y609051D01*
X696318Y611242D02*
X698282Y611242D01*
X698282Y613433D02*
X696318Y613433D01*
X696318Y615624D02*
X698282Y615624D01*
X698818Y677978D02*
X700782Y677978D01*
X698818Y677978D02*
X698818Y692442D01*
X700782Y692442D01*
X700782Y677978D01*
X700782Y680169D02*
X698818Y680169D01*
X698818Y682360D02*
X700782Y682360D01*
X700782Y684551D02*
X698818Y684551D01*
X698818Y686742D02*
X700782Y686742D01*
X700782Y688933D02*
X698818Y688933D01*
X698818Y691124D02*
X700782Y691124D01*
X701318Y602478D02*
X703282Y602478D01*
X701318Y602478D02*
X701318Y616942D01*
X703282Y616942D01*
X703282Y602478D01*
X703282Y604669D02*
X701318Y604669D01*
X701318Y606860D02*
X703282Y606860D01*
X703282Y609051D02*
X701318Y609051D01*
X701318Y611242D02*
X703282Y611242D01*
X703282Y613433D02*
X701318Y613433D01*
X701318Y615624D02*
X703282Y615624D01*
X703818Y677978D02*
X705782Y677978D01*
X703818Y677978D02*
X703818Y692442D01*
X705782Y692442D01*
X705782Y677978D01*
X705782Y680169D02*
X703818Y680169D01*
X703818Y682360D02*
X705782Y682360D01*
X705782Y684551D02*
X703818Y684551D01*
X703818Y686742D02*
X705782Y686742D01*
X705782Y688933D02*
X703818Y688933D01*
X703818Y691124D02*
X705782Y691124D01*
X706318Y602478D02*
X708282Y602478D01*
X706318Y602478D02*
X706318Y616942D01*
X708282Y616942D01*
X708282Y602478D01*
X708282Y604669D02*
X706318Y604669D01*
X706318Y606860D02*
X708282Y606860D01*
X708282Y609051D02*
X706318Y609051D01*
X706318Y611242D02*
X708282Y611242D01*
X708282Y613433D02*
X706318Y613433D01*
X706318Y615624D02*
X708282Y615624D01*
X708818Y677978D02*
X710782Y677978D01*
X708818Y677978D02*
X708818Y692442D01*
X710782Y692442D01*
X710782Y677978D01*
X710782Y680169D02*
X708818Y680169D01*
X708818Y682360D02*
X710782Y682360D01*
X710782Y684551D02*
X708818Y684551D01*
X708818Y686742D02*
X710782Y686742D01*
X710782Y688933D02*
X708818Y688933D01*
X708818Y691124D02*
X710782Y691124D01*
X711318Y602478D02*
X713282Y602478D01*
X711318Y602478D02*
X711318Y616942D01*
X713282Y616942D01*
X713282Y602478D01*
X713282Y604669D02*
X711318Y604669D01*
X711318Y606860D02*
X713282Y606860D01*
X713282Y609051D02*
X711318Y609051D01*
X711318Y611242D02*
X713282Y611242D01*
X713282Y613433D02*
X711318Y613433D01*
X711318Y615624D02*
X713282Y615624D01*
X713818Y677978D02*
X715782Y677978D01*
X713818Y677978D02*
X713818Y692442D01*
X715782Y692442D01*
X715782Y677978D01*
X715782Y680169D02*
X713818Y680169D01*
X713818Y682360D02*
X715782Y682360D01*
X715782Y684551D02*
X713818Y684551D01*
X713818Y686742D02*
X715782Y686742D01*
X715782Y688933D02*
X713818Y688933D01*
X713818Y691124D02*
X715782Y691124D01*
D21*
X257477Y136607D02*
X257477Y121653D01*
X251523Y121653D01*
X251523Y136607D01*
X257477Y136607D01*
X257477Y123853D02*
X251523Y123853D01*
X251523Y126053D02*
X257477Y126053D01*
X257477Y128253D02*
X251523Y128253D01*
X251523Y130453D02*
X257477Y130453D01*
X257477Y132653D02*
X251523Y132653D01*
X251523Y134853D02*
X257477Y134853D01*
X268477Y136607D02*
X268477Y121653D01*
X262523Y121653D01*
X262523Y136607D01*
X268477Y136607D01*
X268477Y123853D02*
X262523Y123853D01*
X262523Y126053D02*
X268477Y126053D01*
X268477Y128253D02*
X262523Y128253D01*
X262523Y130453D02*
X268477Y130453D01*
X268477Y132653D02*
X262523Y132653D01*
X262523Y134853D02*
X268477Y134853D01*
X279477Y136607D02*
X279477Y121653D01*
X273523Y121653D01*
X273523Y136607D01*
X279477Y136607D01*
X279477Y123853D02*
X273523Y123853D01*
X273523Y126053D02*
X279477Y126053D01*
X279477Y128253D02*
X273523Y128253D01*
X273523Y130453D02*
X279477Y130453D01*
X279477Y132653D02*
X273523Y132653D01*
X273523Y134853D02*
X279477Y134853D01*
X246477Y136607D02*
X246477Y121653D01*
X240523Y121653D01*
X240523Y136607D01*
X246477Y136607D01*
X246477Y123853D02*
X240523Y123853D01*
X240523Y126053D02*
X246477Y126053D01*
X246477Y128253D02*
X240523Y128253D01*
X240523Y130453D02*
X246477Y130453D01*
X246477Y132653D02*
X240523Y132653D01*
X240523Y134853D02*
X246477Y134853D01*
X235477Y136607D02*
X235477Y121653D01*
X229523Y121653D01*
X229523Y136607D01*
X235477Y136607D01*
X235477Y123853D02*
X229523Y123853D01*
X229523Y126053D02*
X235477Y126053D01*
X235477Y128253D02*
X229523Y128253D01*
X229523Y130453D02*
X235477Y130453D01*
X235477Y132653D02*
X229523Y132653D01*
X229523Y134853D02*
X235477Y134853D01*
X224477Y136607D02*
X224477Y121653D01*
X218523Y121653D01*
X218523Y136607D01*
X224477Y136607D01*
X224477Y123853D02*
X218523Y123853D01*
X218523Y126053D02*
X224477Y126053D01*
X224477Y128253D02*
X218523Y128253D01*
X218523Y130453D02*
X224477Y130453D01*
X224477Y132653D02*
X218523Y132653D01*
X218523Y134853D02*
X224477Y134853D01*
X213477Y136607D02*
X213477Y121653D01*
X207523Y121653D01*
X207523Y136607D01*
X213477Y136607D01*
X213477Y123853D02*
X207523Y123853D01*
X207523Y126053D02*
X213477Y126053D01*
X213477Y128253D02*
X207523Y128253D01*
X207523Y130453D02*
X213477Y130453D01*
X213477Y132653D02*
X207523Y132653D01*
X207523Y134853D02*
X213477Y134853D01*
X202477Y136607D02*
X202477Y121653D01*
X196523Y121653D01*
X196523Y136607D01*
X202477Y136607D01*
X202477Y123853D02*
X196523Y123853D01*
X196523Y126053D02*
X202477Y126053D01*
X202477Y128253D02*
X196523Y128253D01*
X196523Y130453D02*
X202477Y130453D01*
X202477Y132653D02*
X196523Y132653D01*
X196523Y134853D02*
X202477Y134853D01*
X191477Y136607D02*
X191477Y121653D01*
X185523Y121653D01*
X185523Y136607D01*
X191477Y136607D01*
X191477Y123853D02*
X185523Y123853D01*
X185523Y126053D02*
X191477Y126053D01*
X191477Y128253D02*
X185523Y128253D01*
X185523Y130453D02*
X191477Y130453D01*
X191477Y132653D02*
X185523Y132653D01*
X185523Y134853D02*
X191477Y134853D01*
D17*
X284500Y24130D03*
X204500Y24130D03*
D11*
X325993Y17623D02*
X337007Y17623D01*
X325993Y17623D02*
X325993Y38637D01*
X337007Y38637D01*
X337007Y17623D01*
X337007Y19766D02*
X325993Y19766D01*
X325993Y21909D02*
X337007Y21909D01*
X337007Y24052D02*
X325993Y24052D01*
X325993Y26195D02*
X337007Y26195D01*
X337007Y28338D02*
X325993Y28338D01*
X325993Y30481D02*
X337007Y30481D01*
X337007Y32624D02*
X325993Y32624D01*
X325993Y34767D02*
X337007Y34767D01*
X337007Y36910D02*
X325993Y36910D01*
X182007Y17623D02*
X170993Y17623D01*
X170993Y38637D01*
X182007Y38637D01*
X182007Y17623D01*
X182007Y19766D02*
X170993Y19766D01*
X170993Y21909D02*
X182007Y21909D01*
X182007Y24052D02*
X170993Y24052D01*
X170993Y26195D02*
X182007Y26195D01*
X182007Y28338D02*
X170993Y28338D01*
X170993Y30481D02*
X182007Y30481D01*
X182007Y32624D02*
X170993Y32624D01*
X170993Y34767D02*
X182007Y34767D01*
X182007Y36910D02*
X170993Y36910D01*
D22*
X315010Y117640D02*
X329990Y117640D01*
X315010Y117640D02*
X315010Y130620D01*
X329990Y130620D01*
X329990Y117640D01*
X329990Y119816D02*
X315010Y119816D01*
X315010Y121992D02*
X329990Y121992D01*
X329990Y124168D02*
X315010Y124168D01*
X315010Y126344D02*
X329990Y126344D01*
X329990Y128520D02*
X315010Y128520D01*
D11*
X182007Y115623D02*
X170993Y115623D01*
X170993Y130637D01*
X182007Y130637D01*
X182007Y115623D01*
X182007Y117766D02*
X170993Y117766D01*
X170993Y119909D02*
X182007Y119909D01*
X182007Y122052D02*
X170993Y122052D01*
X170993Y124195D02*
X182007Y124195D01*
X182007Y126338D02*
X170993Y126338D01*
X170993Y128481D02*
X182007Y128481D01*
X182007Y130624D02*
X170993Y130624D01*
D20*
X246824Y151592D02*
X246824Y161608D01*
X246824Y151592D02*
X237808Y151592D01*
X237808Y161608D01*
X246824Y161608D01*
X246824Y153733D02*
X237808Y153733D01*
X237808Y155874D02*
X246824Y155874D01*
X246824Y158015D02*
X237808Y158015D01*
X237808Y160156D02*
X246824Y160156D01*
X246824Y168592D02*
X246824Y178608D01*
X246824Y168592D02*
X237808Y168592D01*
X237808Y178608D01*
X246824Y178608D01*
X246824Y170733D02*
X237808Y170733D01*
X237808Y172874D02*
X246824Y172874D01*
X246824Y175015D02*
X237808Y175015D01*
X237808Y177156D02*
X246824Y177156D01*
D12*
X431800Y209804D03*
D16*
X110082Y56126D02*
X108118Y56126D01*
X108118Y65090D01*
X110082Y65090D01*
X110082Y56126D01*
X110082Y58317D02*
X108118Y58317D01*
X108118Y60508D02*
X110082Y60508D01*
X110082Y62699D02*
X108118Y62699D01*
X108118Y64890D02*
X110082Y64890D01*
X105082Y56126D02*
X103118Y56126D01*
X103118Y65090D01*
X105082Y65090D01*
X105082Y56126D01*
X105082Y58317D02*
X103118Y58317D01*
X103118Y60508D02*
X105082Y60508D01*
X105082Y62699D02*
X103118Y62699D01*
X103118Y64890D02*
X105082Y64890D01*
D10*
X131342Y56100D02*
X136358Y56100D01*
X131342Y56100D02*
X131342Y65116D01*
X136358Y65116D01*
X136358Y56100D01*
X136358Y58241D02*
X131342Y58241D01*
X131342Y60382D02*
X136358Y60382D01*
X136358Y62523D02*
X131342Y62523D01*
X131342Y64664D02*
X136358Y64664D01*
X128608Y56100D02*
X123592Y56100D01*
X123592Y65116D01*
X128608Y65116D01*
X128608Y56100D01*
X128608Y58241D02*
X123592Y58241D01*
X123592Y60382D02*
X128608Y60382D01*
X128608Y62523D02*
X123592Y62523D01*
X123592Y64664D02*
X128608Y64664D01*
D16*
X120082Y56126D02*
X118118Y56126D01*
X118118Y65090D01*
X120082Y65090D01*
X120082Y56126D01*
X120082Y58317D02*
X118118Y58317D01*
X118118Y60508D02*
X120082Y60508D01*
X120082Y62699D02*
X118118Y62699D01*
X118118Y64890D02*
X120082Y64890D01*
X115082Y56126D02*
X113118Y56126D01*
X113118Y65090D01*
X115082Y65090D01*
X115082Y56126D01*
X115082Y58317D02*
X113118Y58317D01*
X113118Y60508D02*
X115082Y60508D01*
X115082Y62699D02*
X113118Y62699D01*
X113118Y64890D02*
X115082Y64890D01*
X95082Y65090D02*
X93118Y65090D01*
X95082Y65090D02*
X95082Y56126D01*
X93118Y56126D01*
X93118Y65090D01*
X93118Y58317D02*
X95082Y58317D01*
X95082Y60508D02*
X93118Y60508D01*
X93118Y62699D02*
X95082Y62699D01*
X95082Y64890D02*
X93118Y64890D01*
X98118Y65090D02*
X100082Y65090D01*
X100082Y56126D01*
X98118Y56126D01*
X98118Y65090D01*
X98118Y58317D02*
X100082Y58317D01*
X100082Y60508D02*
X98118Y60508D01*
X98118Y62699D02*
X100082Y62699D01*
X100082Y64890D02*
X98118Y64890D01*
D10*
X71858Y65116D02*
X66842Y65116D01*
X71858Y65116D02*
X71858Y56100D01*
X66842Y56100D01*
X66842Y65116D01*
X66842Y58241D02*
X71858Y58241D01*
X71858Y60382D02*
X66842Y60382D01*
X66842Y62523D02*
X71858Y62523D01*
X71858Y64664D02*
X66842Y64664D01*
X74592Y65116D02*
X79608Y65116D01*
X79608Y56100D01*
X74592Y56100D01*
X74592Y65116D01*
X74592Y58241D02*
X79608Y58241D01*
X79608Y60382D02*
X74592Y60382D01*
X74592Y62523D02*
X79608Y62523D01*
X79608Y64664D02*
X74592Y64664D01*
D16*
X83118Y65090D02*
X85082Y65090D01*
X85082Y56126D01*
X83118Y56126D01*
X83118Y65090D01*
X83118Y58317D02*
X85082Y58317D01*
X85082Y60508D02*
X83118Y60508D01*
X83118Y62699D02*
X85082Y62699D01*
X85082Y64890D02*
X83118Y64890D01*
X88118Y65090D02*
X90082Y65090D01*
X90082Y56126D01*
X88118Y56126D01*
X88118Y65090D01*
X88118Y58317D02*
X90082Y58317D01*
X90082Y60508D02*
X88118Y60508D01*
X88118Y62699D02*
X90082Y62699D01*
X90082Y64890D02*
X88118Y64890D01*
D23*
X72700Y49558D03*
X130500Y49558D03*
D20*
X46292Y92392D02*
X46292Y102408D01*
X55308Y102408D01*
X55308Y92392D01*
X46292Y92392D01*
X46292Y94533D02*
X55308Y94533D01*
X55308Y96674D02*
X46292Y96674D01*
X46292Y98815D02*
X55308Y98815D01*
X55308Y100956D02*
X46292Y100956D01*
X46292Y85408D02*
X46292Y75392D01*
X46292Y85408D02*
X55308Y85408D01*
X55308Y75392D01*
X46292Y75392D01*
X46292Y77533D02*
X55308Y77533D01*
X55308Y79674D02*
X46292Y79674D01*
X46292Y81815D02*
X55308Y81815D01*
X55308Y83956D02*
X46292Y83956D01*
X137732Y92392D02*
X137732Y102408D01*
X146748Y102408D01*
X146748Y92392D01*
X137732Y92392D01*
X137732Y94533D02*
X146748Y94533D01*
X146748Y96674D02*
X137732Y96674D01*
X137732Y98815D02*
X146748Y98815D01*
X146748Y100956D02*
X137732Y100956D01*
X137732Y85408D02*
X137732Y75392D01*
X137732Y85408D02*
X146748Y85408D01*
X146748Y75392D01*
X137732Y75392D01*
X137732Y77533D02*
X146748Y77533D01*
X146748Y79674D02*
X137732Y79674D01*
X137732Y81815D02*
X146748Y81815D01*
X146748Y83956D02*
X137732Y83956D01*
D24*
X115730Y189190D02*
X115730Y194490D01*
X123030Y194490D01*
X123030Y189190D01*
X115730Y189190D01*
X115730Y191347D02*
X123030Y191347D01*
X123030Y193504D02*
X115730Y193504D01*
X115730Y171490D02*
X115730Y166190D01*
X115730Y171490D02*
X123030Y171490D01*
X123030Y166190D01*
X115730Y166190D01*
X115730Y168347D02*
X123030Y168347D01*
X123030Y170504D02*
X115730Y170504D01*
D16*
X137292Y315948D02*
X139256Y315948D01*
X139256Y310484D01*
X137292Y310484D01*
X137292Y315948D01*
X137292Y312675D02*
X139256Y312675D01*
X139256Y314866D02*
X137292Y314866D01*
X132756Y315948D02*
X130792Y315948D01*
X132756Y315948D02*
X132756Y310484D01*
X130792Y310484D01*
X130792Y315948D01*
X130792Y312675D02*
X132756Y312675D01*
X132756Y314866D02*
X130792Y314866D01*
X126256Y315948D02*
X124292Y315948D01*
X126256Y315948D02*
X126256Y310484D01*
X124292Y310484D01*
X124292Y315948D01*
X124292Y312675D02*
X126256Y312675D01*
X126256Y314866D02*
X124292Y314866D01*
X119756Y315948D02*
X117792Y315948D01*
X119756Y315948D02*
X119756Y310484D01*
X117792Y310484D01*
X117792Y315948D01*
X117792Y312675D02*
X119756Y312675D01*
X119756Y314866D02*
X117792Y314866D01*
X117792Y282984D02*
X119756Y282984D01*
X117792Y282984D02*
X117792Y288448D01*
X119756Y288448D01*
X119756Y282984D01*
X119756Y285175D02*
X117792Y285175D01*
X117792Y287366D02*
X119756Y287366D01*
X124292Y282984D02*
X126256Y282984D01*
X124292Y282984D02*
X124292Y288448D01*
X126256Y288448D01*
X126256Y282984D01*
X126256Y285175D02*
X124292Y285175D01*
X124292Y287366D02*
X126256Y287366D01*
X130792Y282984D02*
X132756Y282984D01*
X130792Y282984D02*
X130792Y288448D01*
X132756Y288448D01*
X132756Y282984D01*
X132756Y285175D02*
X130792Y285175D01*
X130792Y287366D02*
X132756Y287366D01*
X137292Y282984D02*
X139256Y282984D01*
X137292Y282984D02*
X137292Y288448D01*
X139256Y288448D01*
X139256Y282984D01*
X139256Y285175D02*
X137292Y285175D01*
X137292Y287366D02*
X139256Y287366D01*
D25*
X139787Y306979D02*
X117261Y306979D01*
X139787Y306979D02*
X139787Y291953D01*
X117261Y291953D01*
X117261Y306979D01*
X117261Y294086D02*
X139787Y294086D01*
X139787Y296219D02*
X117261Y296219D01*
X117261Y298352D02*
X139787Y298352D01*
X139787Y300485D02*
X117261Y300485D01*
X117261Y302618D02*
X139787Y302618D01*
X139787Y304751D02*
X117261Y304751D01*
X117261Y306884D02*
X139787Y306884D01*
D20*
X141270Y247332D02*
X131254Y247332D01*
X141270Y247332D02*
X141270Y238316D01*
X131254Y238316D01*
X131254Y247332D01*
X131254Y240457D02*
X141270Y240457D01*
X141270Y242598D02*
X131254Y242598D01*
X131254Y244739D02*
X141270Y244739D01*
X141270Y246880D02*
X131254Y246880D01*
X124270Y247332D02*
X114254Y247332D01*
X124270Y247332D02*
X124270Y238316D01*
X114254Y238316D01*
X114254Y247332D01*
X114254Y240457D02*
X124270Y240457D01*
X124270Y242598D02*
X114254Y242598D01*
X114254Y244739D02*
X124270Y244739D01*
X124270Y246880D02*
X114254Y246880D01*
X130492Y230568D02*
X140508Y230568D01*
X140508Y221552D01*
X130492Y221552D01*
X130492Y230568D01*
X130492Y223693D02*
X140508Y223693D01*
X140508Y225834D02*
X130492Y225834D01*
X130492Y227975D02*
X140508Y227975D01*
X140508Y230116D02*
X130492Y230116D01*
X123508Y230568D02*
X113492Y230568D01*
X123508Y230568D02*
X123508Y221552D01*
X113492Y221552D01*
X113492Y230568D01*
X113492Y223693D02*
X123508Y223693D01*
X123508Y225834D02*
X113492Y225834D01*
X113492Y227975D02*
X123508Y227975D01*
X123508Y230116D02*
X113492Y230116D01*
X90978Y117270D02*
X90978Y108254D01*
X63962Y108254D01*
X63962Y117270D01*
X90978Y117270D01*
X90978Y110395D02*
X63962Y110395D01*
X63962Y112536D02*
X90978Y112536D01*
X90978Y114677D02*
X63962Y114677D01*
X63962Y116818D02*
X90978Y116818D01*
X90978Y138254D02*
X90978Y147270D01*
X90978Y138254D02*
X63962Y138254D01*
X63962Y147270D01*
X90978Y147270D01*
X90978Y140395D02*
X63962Y140395D01*
X63962Y142536D02*
X90978Y142536D01*
X90978Y144677D02*
X63962Y144677D01*
X63962Y146818D02*
X90978Y146818D01*
D26*
X122555Y343408D02*
X127889Y343408D01*
X127889Y331724D01*
X122555Y331724D01*
X122555Y343408D01*
X122555Y333896D02*
X127889Y333896D01*
X127889Y336068D02*
X122555Y336068D01*
X122555Y338240D02*
X127889Y338240D01*
X127889Y340412D02*
X122555Y340412D01*
X122555Y342584D02*
X127889Y342584D01*
X117729Y343408D02*
X112395Y343408D01*
X117729Y343408D02*
X117729Y331724D01*
X112395Y331724D01*
X112395Y343408D01*
X112395Y333896D02*
X117729Y333896D01*
X117729Y336068D02*
X112395Y336068D01*
X112395Y338240D02*
X117729Y338240D01*
X117729Y340412D02*
X112395Y340412D01*
X112395Y342584D02*
X117729Y342584D01*
D19*
X132842Y337566D03*
X107442Y337566D03*
D20*
X114000Y257112D02*
X124016Y257112D01*
X114000Y257112D02*
X114000Y266128D01*
X124016Y266128D01*
X124016Y257112D01*
X124016Y259253D02*
X114000Y259253D01*
X114000Y261394D02*
X124016Y261394D01*
X124016Y263535D02*
X114000Y263535D01*
X114000Y265676D02*
X124016Y265676D01*
X131000Y257112D02*
X141016Y257112D01*
X131000Y257112D02*
X131000Y266128D01*
X141016Y266128D01*
X141016Y257112D01*
X141016Y259253D02*
X131000Y259253D01*
X131000Y261394D02*
X141016Y261394D01*
X141016Y263535D02*
X131000Y263535D01*
X131000Y265676D02*
X141016Y265676D01*
D24*
X97630Y283030D02*
X97630Y288330D01*
X97630Y283030D02*
X90330Y283030D01*
X90330Y288330D01*
X97630Y288330D01*
X97630Y285187D02*
X90330Y285187D01*
X90330Y287344D02*
X97630Y287344D01*
X97630Y306030D02*
X97630Y311330D01*
X97630Y306030D02*
X90330Y306030D01*
X90330Y311330D01*
X97630Y311330D01*
X97630Y308187D02*
X90330Y308187D01*
X90330Y310344D02*
X97630Y310344D01*
D20*
X100012Y375348D02*
X110028Y375348D01*
X110028Y366332D01*
X100012Y366332D01*
X100012Y375348D01*
X100012Y368473D02*
X110028Y368473D01*
X110028Y370614D02*
X100012Y370614D01*
X100012Y372755D02*
X110028Y372755D01*
X110028Y374896D02*
X100012Y374896D01*
X93028Y375348D02*
X83012Y375348D01*
X93028Y375348D02*
X93028Y366332D01*
X83012Y366332D01*
X83012Y375348D01*
X83012Y368473D02*
X93028Y368473D01*
X93028Y370614D02*
X83012Y370614D01*
X83012Y372755D02*
X93028Y372755D01*
X93028Y374896D02*
X83012Y374896D01*
X100012Y360108D02*
X110028Y360108D01*
X110028Y351092D01*
X100012Y351092D01*
X100012Y360108D01*
X100012Y353233D02*
X110028Y353233D01*
X110028Y355374D02*
X100012Y355374D01*
X100012Y357515D02*
X110028Y357515D01*
X110028Y359656D02*
X100012Y359656D01*
X93028Y360108D02*
X83012Y360108D01*
X93028Y360108D02*
X93028Y351092D01*
X83012Y351092D01*
X83012Y360108D01*
X83012Y353233D02*
X93028Y353233D01*
X93028Y355374D02*
X83012Y355374D01*
X83012Y357515D02*
X93028Y357515D01*
X93028Y359656D02*
X83012Y359656D01*
X100012Y390588D02*
X110028Y390588D01*
X110028Y381572D01*
X100012Y381572D01*
X100012Y390588D01*
X100012Y383713D02*
X110028Y383713D01*
X110028Y385854D02*
X100012Y385854D01*
X100012Y387995D02*
X110028Y387995D01*
X110028Y390136D02*
X100012Y390136D01*
X93028Y390588D02*
X83012Y390588D01*
X93028Y390588D02*
X93028Y381572D01*
X83012Y381572D01*
X83012Y390588D01*
X83012Y383713D02*
X93028Y383713D01*
X93028Y385854D02*
X83012Y385854D01*
X83012Y387995D02*
X93028Y387995D01*
X93028Y390136D02*
X83012Y390136D01*
X37402Y326436D02*
X37402Y316420D01*
X37402Y326436D02*
X46418Y326436D01*
X46418Y316420D01*
X37402Y316420D01*
X37402Y318561D02*
X46418Y318561D01*
X46418Y320702D02*
X37402Y320702D01*
X37402Y322843D02*
X46418Y322843D01*
X46418Y324984D02*
X37402Y324984D01*
X37402Y309436D02*
X37402Y299420D01*
X37402Y309436D02*
X46418Y309436D01*
X46418Y299420D01*
X37402Y299420D01*
X37402Y301561D02*
X46418Y301561D01*
X46418Y303702D02*
X37402Y303702D01*
X37402Y305843D02*
X46418Y305843D01*
X46418Y307984D02*
X37402Y307984D01*
D27*
X22544Y307144D02*
X15556Y307144D01*
X22544Y307144D02*
X22544Y300156D01*
X15556Y300156D01*
X15556Y307144D01*
X15556Y304225D02*
X22544Y304225D01*
X22544Y324684D02*
X15556Y324684D01*
X22544Y324684D02*
X22544Y317696D01*
X15556Y317696D01*
X15556Y324684D01*
X15556Y321765D02*
X22544Y321765D01*
D28*
X132524Y213756D02*
X139476Y213756D01*
X139476Y202804D01*
X132524Y202804D01*
X132524Y213756D01*
X132524Y205006D02*
X139476Y205006D01*
X139476Y207208D02*
X132524Y207208D01*
X132524Y209410D02*
X139476Y209410D01*
X139476Y211612D02*
X132524Y211612D01*
X121476Y213756D02*
X114524Y213756D01*
X121476Y213756D02*
X121476Y202804D01*
X114524Y202804D01*
X114524Y213756D01*
X114524Y205006D02*
X121476Y205006D01*
X121476Y207208D02*
X114524Y207208D01*
X114524Y209410D02*
X121476Y209410D01*
X121476Y211612D02*
X114524Y211612D01*
D24*
X132748Y194236D02*
X132748Y188936D01*
X132748Y194236D02*
X140048Y194236D01*
X140048Y188936D01*
X132748Y188936D01*
X132748Y191093D02*
X140048Y191093D01*
X140048Y193250D02*
X132748Y193250D01*
X132748Y171236D02*
X132748Y165936D01*
X132748Y171236D02*
X140048Y171236D01*
X140048Y165936D01*
X132748Y165936D01*
X132748Y168093D02*
X140048Y168093D01*
X140048Y170250D02*
X132748Y170250D01*
D20*
X38672Y277812D02*
X38672Y287828D01*
X47688Y287828D01*
X47688Y277812D01*
X38672Y277812D01*
X38672Y279953D02*
X47688Y279953D01*
X47688Y282094D02*
X38672Y282094D01*
X38672Y284235D02*
X47688Y284235D01*
X47688Y286376D02*
X38672Y286376D01*
X38672Y270828D02*
X38672Y260812D01*
X38672Y270828D02*
X47688Y270828D01*
X47688Y260812D01*
X38672Y260812D01*
X38672Y262953D02*
X47688Y262953D01*
X47688Y265094D02*
X38672Y265094D01*
X38672Y267235D02*
X47688Y267235D01*
X47688Y269376D02*
X38672Y269376D01*
D27*
X22544Y269044D02*
X15556Y269044D01*
X22544Y269044D02*
X22544Y262056D01*
X15556Y262056D01*
X15556Y269044D01*
X15556Y266125D02*
X22544Y266125D01*
X22544Y286584D02*
X15556Y286584D01*
X22544Y286584D02*
X22544Y279596D01*
X15556Y279596D01*
X15556Y286584D01*
X15556Y283665D02*
X22544Y283665D01*
D20*
X61904Y694848D02*
X61904Y703864D01*
X106920Y703864D01*
X106920Y694848D01*
X61904Y694848D01*
X61904Y696989D02*
X106920Y696989D01*
X106920Y699130D02*
X61904Y699130D01*
X61904Y701271D02*
X106920Y701271D01*
X106920Y703412D02*
X61904Y703412D01*
X61904Y683864D02*
X61904Y674848D01*
X61904Y683864D02*
X106920Y683864D01*
X106920Y674848D01*
X61904Y674848D01*
X61904Y676989D02*
X106920Y676989D01*
X106920Y679130D02*
X61904Y679130D01*
X61904Y681271D02*
X106920Y681271D01*
X106920Y683412D02*
X61904Y683412D01*
D25*
X119899Y715843D02*
X152925Y715843D01*
X119899Y715843D02*
X119899Y730869D01*
X152925Y730869D01*
X152925Y715843D01*
X152925Y717976D02*
X119899Y717976D01*
X119899Y720109D02*
X152925Y720109D01*
X152925Y722242D02*
X119899Y722242D01*
X119899Y724375D02*
X152925Y724375D01*
X152925Y726508D02*
X119899Y726508D01*
X119899Y728641D02*
X152925Y728641D01*
X152925Y730774D02*
X119899Y730774D01*
X119899Y647843D02*
X152925Y647843D01*
X119899Y647843D02*
X119899Y662869D01*
X152925Y662869D01*
X152925Y647843D01*
X152925Y649976D02*
X119899Y649976D01*
X119899Y652109D02*
X152925Y652109D01*
X152925Y654242D02*
X119899Y654242D01*
X119899Y656375D02*
X152925Y656375D01*
X152925Y658508D02*
X119899Y658508D01*
X119899Y660641D02*
X152925Y660641D01*
X152925Y662774D02*
X119899Y662774D01*
D29*
X128247Y578492D02*
X128247Y573956D01*
X117211Y573956D01*
X117211Y578492D01*
X128247Y578492D01*
X128247Y576078D02*
X117211Y576078D01*
X117211Y578200D02*
X128247Y578200D01*
X128247Y583456D02*
X128247Y587992D01*
X128247Y583456D02*
X117211Y583456D01*
X117211Y587992D01*
X128247Y587992D01*
X128247Y585578D02*
X117211Y585578D01*
X117211Y587700D02*
X128247Y587700D01*
X128247Y592956D02*
X128247Y597492D01*
X128247Y592956D02*
X117211Y592956D01*
X117211Y597492D01*
X128247Y597492D01*
X128247Y595078D02*
X117211Y595078D01*
X117211Y597200D02*
X128247Y597200D01*
X102245Y597492D02*
X102245Y592956D01*
X91209Y592956D01*
X91209Y597492D01*
X102245Y597492D01*
X102245Y595078D02*
X91209Y595078D01*
X91209Y597200D02*
X102245Y597200D01*
X102245Y578492D02*
X102245Y573956D01*
X91209Y573956D01*
X91209Y578492D01*
X102245Y578492D01*
X102245Y576078D02*
X91209Y576078D01*
X91209Y578200D02*
X102245Y578200D01*
D20*
X119062Y564578D02*
X129078Y564578D01*
X129078Y555562D01*
X119062Y555562D01*
X119062Y564578D01*
X119062Y557703D02*
X129078Y557703D01*
X129078Y559844D02*
X119062Y559844D01*
X119062Y561985D02*
X129078Y561985D01*
X129078Y564126D02*
X119062Y564126D01*
X112078Y564578D02*
X102062Y564578D01*
X112078Y564578D02*
X112078Y555562D01*
X102062Y555562D01*
X102062Y564578D01*
X102062Y557703D02*
X112078Y557703D01*
X112078Y559844D02*
X102062Y559844D01*
X102062Y561985D02*
X112078Y561985D01*
X112078Y564126D02*
X102062Y564126D01*
X37402Y362758D02*
X37402Y352742D01*
X37402Y362758D02*
X46418Y362758D01*
X46418Y352742D01*
X37402Y352742D01*
X37402Y354883D02*
X46418Y354883D01*
X46418Y357024D02*
X37402Y357024D01*
X37402Y359165D02*
X46418Y359165D01*
X46418Y361306D02*
X37402Y361306D01*
X37402Y345758D02*
X37402Y335742D01*
X37402Y345758D02*
X46418Y345758D01*
X46418Y335742D01*
X37402Y335742D01*
X37402Y337883D02*
X46418Y337883D01*
X46418Y340024D02*
X37402Y340024D01*
X37402Y342165D02*
X46418Y342165D01*
X46418Y344306D02*
X37402Y344306D01*
D27*
X22544Y345244D02*
X15556Y345244D01*
X22544Y345244D02*
X22544Y338256D01*
X15556Y338256D01*
X15556Y345244D01*
X15556Y342325D02*
X22544Y342325D01*
X22544Y362784D02*
X15556Y362784D01*
X22544Y362784D02*
X22544Y355796D01*
X15556Y355796D01*
X15556Y362784D01*
X15556Y359865D02*
X22544Y359865D01*
D20*
X72454Y589216D02*
X72454Y599232D01*
X81470Y599232D01*
X81470Y589216D01*
X72454Y589216D01*
X72454Y591357D02*
X81470Y591357D01*
X81470Y593498D02*
X72454Y593498D01*
X72454Y595639D02*
X81470Y595639D01*
X81470Y597780D02*
X72454Y597780D01*
X72454Y582232D02*
X72454Y572216D01*
X72454Y582232D02*
X81470Y582232D01*
X81470Y572216D01*
X72454Y572216D01*
X72454Y574357D02*
X81470Y574357D01*
X81470Y576498D02*
X72454Y576498D01*
X72454Y578639D02*
X81470Y578639D01*
X81470Y580780D02*
X72454Y580780D01*
X117792Y614108D02*
X127808Y614108D01*
X127808Y605092D01*
X117792Y605092D01*
X117792Y614108D01*
X117792Y607233D02*
X127808Y607233D01*
X127808Y609374D02*
X117792Y609374D01*
X117792Y611515D02*
X127808Y611515D01*
X127808Y613656D02*
X117792Y613656D01*
X110808Y614108D02*
X100792Y614108D01*
X110808Y614108D02*
X110808Y605092D01*
X100792Y605092D01*
X100792Y614108D01*
X100792Y607233D02*
X110808Y607233D01*
X110808Y609374D02*
X100792Y609374D01*
X100792Y611515D02*
X110808Y611515D01*
X110808Y613656D02*
X100792Y613656D01*
D30*
X73789Y179576D02*
X68197Y179576D01*
X68197Y191264D01*
X73789Y191264D01*
X73789Y179576D01*
X73789Y181745D02*
X68197Y181745D01*
X68197Y183914D02*
X73789Y183914D01*
X73789Y186083D02*
X68197Y186083D01*
X68197Y188252D02*
X73789Y188252D01*
X73789Y190421D02*
X68197Y190421D01*
X78611Y179576D02*
X84203Y179576D01*
X78611Y179576D02*
X78611Y191264D01*
X84203Y191264D01*
X84203Y179576D01*
X84203Y181745D02*
X78611Y181745D01*
X78611Y183914D02*
X84203Y183914D01*
X84203Y186083D02*
X78611Y186083D01*
X78611Y188252D02*
X84203Y188252D01*
X84203Y190421D02*
X78611Y190421D01*
M02*
