M48
;GenerationSoftware,Autodesk,EAGLE,9.6.2*%
;CreationDate,2022-10-28T17:54:30Z*%
FMAT,2
ICI,OFF
METRIC,TZ,000.000
T12C0.305
T11C0.350
T10C0.400
T9C0.508
T8C0.650
T7C0.950
T6C1.000
T5C1.016
T4C1.100
T3C1.600
T2C3.048
T1C3.800
%
G90
M71
T1
X148231Y124110
X4937Y52654
X130060Y130404
X91805Y130378
X43192Y130404
X43192Y52680
X4937Y130378
X148231Y46386
X61363Y124110
X61363Y46386
X91805Y52654
X130060Y52680
T2
X83820Y148844
X89408Y80264
X89408Y71120
X170688Y50800
X89408Y2540
X2540Y148844
X83820Y2540
X2540Y2540
X2540Y71120
X83820Y71120
X170688Y2540
X83820Y50800
X83820Y80264
X2540Y80264
X170688Y71120
X83820Y128524
X170688Y80264
X89408Y148844
X170688Y148844
X170688Y128524
T3
X134272Y26162
X134272Y103886
X100998Y10414
X100998Y88138
X14130Y88138
X47404Y26162
X47404Y103886
X14130Y10414
T4
X67404Y26162
X34130Y10414
X120998Y88138
X154272Y26162
X120998Y10414
X34130Y88138
X154272Y103886
X67404Y103886
T5
X1270Y12700
X163576Y128524
X163576Y113767
X161036Y113767
X1270Y95504
X1270Y92964
X88138Y95504
X1270Y90424
X80645Y83566
X80645Y86106
X88138Y92964
X74168Y128524
X80645Y8382
X80645Y5842
X1270Y10160
X76708Y128524
X76708Y50800
X1270Y87884
X88138Y17780
X88138Y15240
X76708Y113767
X88138Y12700
X88138Y10160
X167513Y5842
X167513Y8382
X161036Y50800
X163576Y50800
X74168Y113767
X163576Y36043
X161036Y36043
X74168Y50800
X1270Y17780
X1270Y15240
X74168Y36043
X76708Y36043
X161036Y128524
X167513Y86106
X167513Y83566
X88138Y87884
X88138Y90424
T6
X144778Y146050
X152778Y146050
X65910Y68326
X57910Y68326
X144778Y68326
X152778Y68326
X57910Y146050
X65910Y146050
T7
X168148Y20320
X83820Y20320
X168148Y98044
X81280Y20320
X170688Y98044
X83820Y98044
X81280Y98044
X170688Y20320
T8
X165958Y68349
X160178Y68349
X79090Y146073
X73310Y146073
X165958Y146073
X79090Y68349
X73310Y68349
X160178Y146073
T9
X170752Y11424
X170752Y12694
X170752Y13964
X170752Y15234
X170752Y10154
X169482Y11424
X169482Y12694
X169482Y13964
X169482Y15234
X169482Y10154
X82614Y13964
X82614Y12694
X82614Y11424
X83884Y10154
X83884Y15234
X83884Y13964
X83884Y12694
X83884Y11424
X83884Y90418
X83884Y91688
X83884Y92958
X83884Y87878
X82614Y89148
X82614Y90418
X82614Y92958
X82614Y87878
X83884Y89148
X82614Y91688
X170752Y90418
X170752Y91688
X170752Y92958
X170752Y87878
X169482Y89148
X169482Y90418
X169482Y91688
X169482Y92958
X169482Y87878
X170752Y89148
X82614Y10154
X82614Y15234
T10
X167386Y149723
X158750Y149723
X158750Y145543
X167386Y145543
X80518Y145543
X71882Y145543
X71882Y149723
X80518Y149723
X80518Y71999
X71882Y71999
X80518Y67819
X158750Y71999
X71882Y67819
X167386Y67819
X158750Y67819
X167386Y71999
T11
X66548Y107696
X70155Y29972
X154076Y107696
X157023Y107696
X157023Y29972
X153416Y107696
X67208Y29972
X153416Y29972
X154076Y29972
X67208Y107696
X70155Y107696
X66548Y29972
T12
X48260Y29972
X48260Y43937
X39192Y5156
X15545Y6401
X75692Y31750
X78994Y10956
X64008Y5156
X7270Y11061
X69774Y10922
X47600Y29972
X3759Y7620
X67716Y39294
X61976Y26238
X60782Y25044
X29134Y7163
X38227Y7163
X58014Y37186
X63345Y37084
X62484Y25654
X61316Y24409
X38938Y6477
X29705Y6452
X63955Y37945
X57963Y37998
X20371Y8103
X20345Y7010
X19787Y8687
X19812Y6528
X19075Y9068
X19101Y6528
X12319Y9677
X14884Y7087
X57326Y12716
X62655Y12852
X23165Y35103
X23114Y28956
X17323Y17577
X24105Y14884
X20371Y19456
X13970Y19050
X51054Y22098
X52129Y22098
X52959Y25019
X54610Y23368
X67920Y24105
X79248Y24130
X64592Y27102
X44374Y22504
X64262Y23317
X57173Y15365
X30632Y15291
X25603Y15621
X78080Y28550
X64419Y15159
X22690Y7214
X23368Y6375
X66675Y11684
X79756Y11633
X67462Y12598
X79568Y12685
X58014Y35560
X62890Y35535
X6960Y14224
X22860Y10160
X27872Y6401
X14427Y14122
X78613Y44323
X84836Y44069
X55067Y22149
X74168Y23241
X15113Y14173
X72009Y50292
X49276Y50292
X52578Y50292
X15723Y14173
X48641Y50292
X72644Y18796
X25552Y37262
X24790Y29921
X25451Y18415
X64567Y36322
X57966Y36326
X16358Y18542
X62382Y38506
X57963Y38862
X62164Y13398
X56319Y13336
X57582Y15977
X63210Y15926
X63703Y16535
X56921Y16535
X15989Y9855
X17475Y6452
X83820Y47523
X84929Y40056
X77724Y18288
X79248Y62179
X77724Y16383
X78105Y33528
X69012Y33528
X69012Y19812
X5563Y6147
X8467Y5864
X5994Y7315
X9636Y6994
X49936Y25857
X48260Y46812
X53585Y22281
X45705Y29398
X31572Y14795
X31267Y20523
X18491Y16002
X5537Y15850
X66319Y9017
X61874Y9093
X79324Y63246
X74905Y63246
X81153Y52451
X48934Y58420
X19914Y21666
X8052Y21717
X43739Y19164
X43713Y21666
X77851Y21590
X85090Y43180
X48387Y45847
X54229Y22606
X49657Y26670
X46355Y29845
X9226Y5817
X4275Y12700
X8763Y7747
X163855Y40869
X165506Y18517
X167640Y54610
X166776Y9881
X151105Y56363
X151079Y59284
X150089Y13310
X151917Y15723
X153162Y10998
X137262Y22606
X148641Y23774
X153594Y22682
X163703Y29870
X140970Y56998
X150787Y23975
X137909Y43584
X163855Y39446
X152451Y13208
X129515Y14846
X131826Y22911
X141529Y13360
X138442Y23187
X153619Y19558
X152222Y19558
X143281Y14872
X110744Y6934
X107290Y9093
X145491Y19533
X166294Y27051
X105918Y16739
X112230Y14805
X135951Y22091
X101676Y6375
X120955Y12979
X144450Y11836
X116459Y7798
X121234Y4089
X144386Y30757
X112344Y6452
X109169Y6401
X132766Y20345
X104826Y22962
X103302Y17678
X111811Y17882
X117018Y14783
X119228Y14859
X116764Y9322
X116180Y3200
X105461Y7036
X125654Y7747
X125349Y5893
X135204Y14795
X110769Y29159
X111557Y37567
X152920Y26794
X151574Y26261
X155880Y60046
X139852Y59614
X138913Y67767
X156616Y67920
X107772Y14834
X159918Y43917
X162357Y28499
X171856Y13310
X136652Y62484
X136652Y69850
X148006Y8890
X159893Y66294
X166294Y65507
X170358Y60935
X170358Y63475
X163474Y43917
X161392Y53365
X163830Y46736
X163830Y48514
X136906Y54077
X138709Y56947
X123698Y66040
X158877Y63221
X114808Y66040
X114808Y57150
X123698Y57150
X105918Y66040
X105918Y57150
X97028Y57150
X97028Y66040
X135255Y47752
X107544Y3861
X117756Y2464
X94398Y3404
X135103Y13330
X129591Y13330
X137795Y32090
X138815Y26082
X136144Y31293
X109204Y34967
X99305Y6248
X94539Y24409
X118897Y20676
X142418Y19329
X95513Y4445
X91770Y7391
X150764Y15758
X133870Y28064
X104089Y27178
X123749Y10922
X153137Y9754
X165760Y13106
X171260Y16154
X105232Y20117
X95428Y13564
X96596Y13614
X101371Y15291
X103251Y15291
X143993Y22733
X145313Y22784
X144043Y19583
X144577Y17094
X151917Y17856
X113487Y18745
X153251Y40790
X146647Y41958
X153797Y56337
X150203Y38758
X151473Y37361
X144361Y39393
X145250Y34948
X108941Y8331
X118364Y11227
X103988Y11125
X101422Y29591
X145631Y43736
X146751Y10360
X96317Y34823
X97714Y33426
X98857Y32283
X99746Y31394
X100635Y30505
X102413Y28473
X94666Y36220
X105461Y25806
X155956Y15342
X155956Y13208
X142014Y22934
X135776Y26614
X133731Y31293
X163855Y37922
X150647Y52959
X164516Y62535
X90246Y11430
X162458Y16612
X143383Y48768
X135128Y44958
X159512Y54864
X122911Y11933
X124384Y9271
X142291Y9271
X161569Y8534
X161569Y14122
X89408Y66040
X89408Y57150
X89408Y38100
X89408Y26670
X126238Y1270
X135128Y1270
X145288Y1270
X152908Y1270
X131711Y29842
X133858Y37770
X160401Y6350
X164363Y66269
X167843Y65227
X152552Y23851
X151790Y23038
X135128Y29972
X135128Y43937
X126060Y5156
X102413Y6401
X162560Y31750
X165862Y10956
X150876Y5156
X94138Y11061
X156642Y10922
X134468Y29972
X90627Y7620
X154584Y39294
X148844Y26238
X147650Y25044
X116002Y7163
X125095Y7163
X144882Y37186
X150213Y37084
X149352Y25654
X148184Y24409
X125806Y6477
X116573Y6452
X150823Y37945
X144831Y37998
X107239Y8103
X107213Y7010
X106655Y8687
X106680Y6528
X105943Y9068
X105969Y6528
X99187Y9677
X101752Y7087
X144194Y12716
X149523Y12852
X110033Y35103
X109982Y28956
X104191Y17577
X110973Y14884
X107239Y19456
X100838Y19050
X137922Y22098
X138997Y22098
X139827Y25019
X141478Y23368
X154788Y24105
X166116Y24130
X151460Y27102
X131242Y22504
X151130Y23317
X144041Y15365
X117500Y15291
X112471Y15621
X164948Y28550
X151287Y15159
X109558Y7214
X110236Y6375
X153543Y11684
X166624Y11633
X154330Y12598
X166436Y12685
X144882Y35560
X149758Y35535
X93828Y14224
X109728Y10160
X114740Y6401
X101295Y14122
X165481Y44323
X171704Y44069
X141935Y22149
X161036Y23241
X101981Y14173
X158877Y50292
X136144Y50292
X139446Y50292
X102591Y14173
X135509Y50292
X159512Y18796
X112420Y37262
X111658Y29921
X112319Y18415
X151435Y36322
X144834Y36326
X103226Y18542
X149250Y38506
X144831Y38862
X149032Y13398
X143187Y13336
X144450Y15977
X150078Y15926
X150571Y16535
X143789Y16535
X102857Y9855
X104343Y6452
X170688Y47523
X171797Y40056
X164592Y18288
X166116Y62179
X164592Y16383
X164973Y33528
X155880Y33528
X155880Y19812
X92431Y6147
X95335Y5864
X92862Y7315
X96504Y6994
X136804Y25857
X135128Y46812
X140453Y22281
X132573Y29398
X118440Y14795
X118135Y20523
X105359Y16002
X92405Y15850
X153187Y9017
X148742Y9093
X166192Y63246
X161773Y63246
X168021Y52451
X135802Y58420
X106782Y21666
X94920Y21717
X130607Y19164
X130581Y21666
X164719Y21590
X171958Y43180
X135255Y45847
X141097Y22606
X136525Y26670
X133223Y29845
X96094Y5817
X91143Y12700
X95631Y7747
X76987Y118593
X78638Y96241
X80772Y132334
X79908Y87605
X64237Y134087
X64211Y137008
X63221Y91034
X65049Y93447
X66294Y88722
X50394Y100330
X61773Y101498
X66726Y100406
X76835Y107594
X54102Y134722
X63919Y101699
X51041Y121308
X76987Y117170
X65583Y90932
X42647Y92570
X44958Y100635
X54661Y91084
X51574Y100911
X66751Y97282
X65354Y97282
X56413Y92596
X23876Y84658
X20422Y86817
X58623Y97257
X79426Y104775
X19050Y94463
X25362Y92529
X49083Y99815
X14808Y84099
X34087Y90703
X57582Y89560
X29591Y85522
X34366Y81813
X57518Y108481
X25476Y84176
X22301Y84125
X45898Y98069
X17958Y100686
X16434Y95402
X24943Y95606
X30150Y92507
X32360Y92583
X29896Y87046
X29312Y80924
X18593Y84760
X38786Y85471
X38481Y83617
X48336Y92519
X23901Y106883
X24689Y115291
X66052Y104518
X64706Y103985
X69012Y137770
X52984Y137338
X52045Y145491
X69748Y145644
X20904Y92558
X73050Y121641
X75489Y106223
X84988Y91034
X49784Y140208
X49784Y147574
X61138Y86614
X73025Y144018
X79426Y143231
X83490Y138659
X83490Y141199
X76606Y121641
X74524Y131089
X76962Y124460
X76962Y126238
X50038Y131801
X51841Y134671
X36830Y143764
X72009Y140945
X27940Y143764
X27940Y134874
X36830Y134874
X19050Y143764
X19050Y134874
X10160Y134874
X10160Y143764
X48387Y125476
X20676Y81585
X30888Y80188
X7530Y81128
X48235Y91054
X42723Y91054
X50927Y109814
X51947Y103806
X49276Y109017
X22336Y112691
X12437Y83972
X7671Y102133
X32029Y98400
X55550Y97053
X8645Y82169
X4902Y85115
X63896Y93482
X47002Y105788
X17221Y104902
X36881Y88646
X66269Y87478
X78892Y90830
X84392Y93878
X18364Y97841
X8560Y91288
X9728Y91338
X14503Y93015
X16383Y93015
X57125Y100457
X58445Y100508
X57175Y97307
X57709Y94818
X65049Y95580
X26619Y96469
X66383Y118514
X59779Y119682
X66929Y134061
X63335Y116482
X64605Y115085
X57493Y117117
X58382Y112672
X22073Y86055
X31496Y88951
X17120Y88849
X14554Y107315
X58763Y121460
X59883Y88084
X9449Y112547
X10846Y111150
X11989Y110007
X12878Y109118
X13767Y108229
X15545Y106197
X7798Y113944
X18593Y103530
X69088Y93066
X69088Y90932
X55146Y100658
X48908Y104338
X46863Y109017
X76987Y115646
X63779Y130683
X77648Y140259
X3378Y89154
X75590Y94336
X56515Y126492
X48260Y122682
X72644Y132588
X36043Y89657
X37516Y86995
X55423Y86995
X74701Y86258
X74701Y91846
X2540Y143764
X2540Y134874
X2540Y115824
X2540Y104394
X39370Y78994
X48260Y78994
X58420Y78994
X66040Y78994
X44843Y107566
X46990Y115494
X73533Y84074
X77495Y143993
X80975Y142951
X65684Y101575
X64922Y100762
X78638Y18517
X80772Y54610
X48260Y107696
X48260Y121661
X39192Y82880
X15545Y84125
X75692Y109474
X78994Y88680
X64008Y82880
X7270Y88785
X69774Y88646
X47600Y107696
X79908Y9881
X3759Y85344
X67716Y117018
X61976Y103962
X60782Y102768
X29134Y84887
X38227Y84887
X58014Y114910
X63345Y114808
X62484Y103378
X61316Y102133
X38938Y84201
X29705Y84176
X63955Y115669
X57963Y115722
X20371Y85827
X20345Y84734
X19787Y86411
X19812Y84252
X19075Y86792
X19101Y84252
X12319Y87401
X14884Y84811
X57326Y90440
X62655Y90576
X23165Y112827
X23114Y106680
X17323Y95301
X24105Y92608
X20371Y97180
X13970Y96774
X51054Y99822
X52129Y99822
X52959Y102743
X54610Y101092
X67920Y101829
X79248Y101854
X64592Y104826
X44374Y100228
X64262Y101041
X57173Y93089
X30632Y93015
X25603Y93345
X78080Y106274
X64419Y92883
X22690Y84938
X23368Y84099
X66675Y89408
X79756Y89357
X67462Y90322
X79568Y90409
X58014Y113284
X62890Y113259
X6960Y91948
X22860Y87884
X27872Y84125
X14427Y91846
X78613Y122047
X84836Y121793
X55067Y99873
X74168Y100965
X15113Y91897
X72009Y128016
X49276Y128016
X52578Y128016
X15723Y91897
X48641Y128016
X72644Y96520
X25552Y114986
X24790Y107645
X25451Y96139
X64567Y114046
X57966Y114050
X16358Y96266
X62382Y116230
X57963Y116586
X62164Y91122
X56319Y91060
X57582Y93701
X63210Y93650
X63703Y94259
X56921Y94259
X15989Y87579
X17475Y84176
X83820Y125247
X84929Y117780
X77724Y96012
X79248Y139903
X77724Y94107
X78105Y111252
X69012Y111252
X69012Y97536
X5563Y83871
X8467Y83588
X5994Y85039
X9636Y84718
X49936Y103581
X48260Y124536
X53585Y100005
X45705Y107122
X31572Y92519
X31267Y98247
X18491Y93726
X5537Y93574
X66319Y86741
X61874Y86817
X79324Y140970
X74905Y140970
X81153Y130175
X48934Y136144
X19914Y99390
X8052Y99441
X43739Y96888
X43713Y99390
X77851Y99314
X85090Y120904
X48387Y123571
X54229Y100330
X49657Y104394
X46355Y107569
X9226Y83541
X4275Y90424
X8763Y85471
X163855Y118593
X165506Y96241
X167640Y132334
X166776Y87605
X151105Y134087
X151079Y137008
X150089Y91034
X151917Y93447
X153162Y88722
X137262Y100330
X148641Y101498
X153594Y100406
X163703Y107594
X140970Y134722
X150787Y101699
X137909Y121308
X163855Y117170
X152451Y90932
X129515Y92570
X131826Y100635
X141529Y91084
X138442Y100911
X153619Y97282
X152222Y97282
X143281Y92596
X110744Y84658
X107290Y86817
X145491Y97257
X166294Y104775
X105918Y94463
X112230Y92529
X135951Y99815
X101676Y84099
X120955Y90703
X144450Y89560
X116459Y85522
X121234Y81813
X144386Y108481
X112344Y84176
X109169Y84125
X132766Y98069
X104826Y100686
X103302Y95402
X111811Y95606
X117018Y92507
X119228Y92583
X116764Y87046
X116180Y80924
X105461Y84760
X125654Y85471
X125349Y83617
X135204Y92519
X110769Y106883
X111557Y115291
X152920Y104518
X151574Y103985
X155880Y137770
X139852Y137338
X138913Y145491
X156616Y145644
X107772Y92558
X159918Y121641
X162357Y106223
X171856Y91034
X136652Y140208
X136652Y147574
X148006Y86614
X159893Y144018
X166294Y143231
X170358Y138659
X170358Y141199
X163474Y121641
X161392Y131089
X163830Y124460
X163830Y126238
X136906Y131801
X138709Y134671
X123698Y143764
X158877Y140945
X114808Y143764
X114808Y134874
X123698Y134874
X105918Y143764
X105918Y134874
X97028Y134874
X97028Y143764
X135255Y125476
X107544Y81585
X117756Y80188
X94398Y81128
X135103Y91054
X129591Y91054
X137795Y109814
X138815Y103806
X136144Y109017
X109204Y112691
X99305Y83972
X94539Y102133
X118897Y98400
X142418Y97053
X95513Y82169
X91770Y85115
X150764Y93482
X133870Y105788
X104089Y104902
X123749Y88646
X153137Y87478
X165760Y90830
X171260Y93878
X105232Y97841
X95428Y91288
X96596Y91338
X101371Y93015
X103251Y93015
X143993Y100457
X145313Y100508
X144043Y97307
X144577Y94818
X151917Y95580
X113487Y96469
X153251Y118514
X146647Y119682
X153797Y134061
X150203Y116482
X151473Y115085
X144361Y117117
X64237Y56363
X108941Y86055
X118364Y88951
X103988Y88849
X101422Y107315
X145631Y121460
X146751Y88084
X96317Y112547
X97714Y111150
X98857Y110007
X99746Y109118
X100635Y108229
X102413Y106197
X94666Y113944
X105461Y103530
X155956Y93066
X155956Y90932
X142014Y100658
X135776Y104338
X133731Y109017
X163855Y115646
X150647Y130683
X164516Y140259
X90246Y89154
X162458Y94336
X143383Y126492
X135128Y122682
X159512Y132588
X122911Y89657
X124384Y86995
X142291Y86995
X161569Y86258
X161569Y91846
X89408Y143764
X89408Y134874
X89408Y115824
X89408Y104394
X126238Y78994
X135128Y78994
X145288Y78994
X152908Y78994
X131711Y107566
X133858Y115494
X160401Y84074
X164363Y143993
X167843Y142951
X152552Y101575
X151790Y100762
X64211Y59284
X63221Y13310
X135128Y107696
X135128Y121661
X126060Y82880
X102413Y84125
X162560Y109474
X165862Y88680
X150876Y82880
X94138Y88785
X156642Y88646
X134468Y107696
X65049Y15723
X90627Y85344
X154584Y117018
X148844Y103962
X147650Y102768
X116002Y84887
X125095Y84887
X144882Y114910
X150213Y114808
X149352Y103378
X148184Y102133
X125806Y84201
X116573Y84176
X150823Y115669
X144831Y115722
X107239Y85827
X107213Y84734
X106655Y86411
X106680Y84252
X105943Y86792
X105969Y84252
X99187Y87401
X101752Y84811
X144194Y90440
X149523Y90576
X110033Y112827
X109982Y106680
X104191Y95301
X110973Y92608
X107239Y97180
X100838Y96774
X137922Y99822
X138997Y99822
X139827Y102743
X141478Y101092
X154788Y101829
X166116Y101854
X151460Y104826
X131242Y100228
X151130Y101041
X144041Y93089
X117500Y93015
X112471Y93345
X164948Y106274
X151287Y92883
X109558Y84938
X110236Y84099
X153543Y89408
X166624Y89357
X154330Y90322
X166436Y90409
X144882Y113284
X149758Y113259
X93828Y91948
X109728Y87884
X114740Y84125
X101295Y91846
X165481Y122047
X171704Y121793
X141935Y99873
X161036Y100965
X101981Y91897
X158877Y128016
X136144Y128016
X139446Y128016
X102591Y91897
X135509Y128016
X159512Y96520
X112420Y114986
X111658Y107645
X112319Y96139
X151435Y114046
X144834Y114050
X103226Y96266
X149250Y116230
X144831Y116586
X149032Y91122
X143187Y91060
X144450Y93701
X150078Y93650
X150571Y94259
X143789Y94259
X102857Y87579
X104343Y84176
X170688Y125247
X171797Y117780
X164592Y96012
X166116Y139903
X164592Y94107
X164973Y111252
X155880Y111252
X155880Y97536
X92431Y83871
X95335Y83588
X92862Y85039
X96504Y84718
X136804Y103581
X135128Y124536
X140453Y100005
X132573Y107122
X118440Y92519
X118135Y98247
X105359Y93726
X92405Y93574
X153187Y86741
X148742Y86817
X166192Y140970
X161773Y140970
X168021Y130175
X135802Y136144
X106782Y99390
X94920Y99441
X130607Y96888
X130581Y99390
X164719Y99314
X145250Y112672
X135255Y123571
X141097Y100330
X136525Y104394
X133223Y107569
X96094Y83541
X91143Y90424
X95631Y85471
X66294Y10998
X50394Y22606
X61773Y23774
X66726Y22682
X76835Y29870
X54102Y56998
X63919Y23975
X51041Y43584
X76987Y39446
X65583Y13208
X42647Y14846
X44958Y22911
X54661Y13360
X51574Y23187
X66751Y19558
X65354Y19558
X56413Y14872
X23876Y6934
X20422Y9093
X58623Y19533
X79426Y27051
X19050Y16739
X25362Y14805
X49083Y22091
X14808Y6375
X34087Y12979
X57582Y11836
X29591Y7798
X34366Y4089
X57518Y30757
X25476Y6452
X22301Y6401
X45898Y20345
X17958Y22962
X16434Y17678
X24943Y17882
X30150Y14783
X32360Y14859
X29896Y9322
X29312Y3200
X18593Y7036
X38786Y7747
X38481Y5893
X48336Y14795
X23901Y29159
X24689Y37567
X66052Y26794
X64706Y26261
X69012Y60046
X52984Y59614
X52045Y67767
X69748Y67920
X20904Y14834
X73050Y43917
X75489Y28499
X84988Y13310
X49784Y62484
X49784Y69850
X61138Y8890
X73025Y66294
X79426Y65507
X83490Y60935
X83490Y63475
X76606Y43917
X74524Y53365
X76962Y46736
X76962Y48514
X50038Y54077
X51841Y56947
X36830Y66040
X72009Y63221
X27940Y66040
X27940Y57150
X36830Y57150
X19050Y66040
X19050Y57150
X10160Y57150
X10160Y66040
X48387Y47752
X20676Y3861
X30888Y2464
X7530Y3404
X48235Y13330
X42723Y13330
X50927Y32090
X51947Y26082
X49276Y31293
X22336Y34967
X12437Y6248
X7671Y24409
X32029Y20676
X55550Y19329
X8645Y4445
X4902Y7391
X63896Y15758
X47002Y28064
X17221Y27178
X36881Y10922
X66269Y9754
X78892Y13106
X84392Y16154
X18364Y20117
X8560Y13564
X9728Y13614
X14503Y15291
X16383Y15291
X57125Y22733
X58445Y22784
X57175Y19583
X57709Y17094
X65049Y17856
X26619Y18745
X66383Y40790
X59779Y41958
X66929Y56337
X63335Y38758
X64605Y37361
X57493Y39393
X58382Y34948
X22073Y8331
X31496Y11227
X17120Y11125
X14554Y29591
X58763Y43736
X59883Y10360
X9449Y34823
X10846Y33426
X11989Y32283
X12878Y31394
X13767Y30505
X15545Y28473
X7798Y36220
X18593Y25806
X69088Y15342
X69088Y13208
X55146Y22934
X48908Y26614
X46863Y31293
X76987Y37922
X63779Y52959
X77648Y62535
X3378Y11430
X75590Y16612
X56515Y48768
X48260Y44958
X72644Y54864
X36043Y11933
X37516Y9271
X55423Y9271
X74701Y8534
X74701Y14122
X2540Y66040
X2540Y57150
X2540Y38100
X2540Y26670
X39370Y1270
X48260Y1270
X58420Y1270
X66040Y1270
X44843Y29842
X46990Y37770
X73533Y6350
X77495Y66269
X80975Y65227
X65684Y23851
X64922Y23038
X76987Y40869
X171958Y120904
M30