G04 EAGLE Gerber RS-274X export*
G75*
%MOMM*%
%FSLAX34Y34*%
%LPD*%
%INSoldermask Top*%
%IPPOS*%
%AMOC8*
5,1,8,0,0,1.08239X$1,22.5*%
G01*
%ADD10C,0.225369*%
%ADD11C,0.225588*%
%ADD12C,6.127000*%
%ADD13C,3.175000*%
%ADD14C,1.227000*%
%ADD15C,1.727000*%
%ADD16C,0.230578*%
%ADD17C,1.127000*%
%ADD18C,0.222250*%
%ADD19C,2.006600*%
%ADD20C,0.225400*%
%ADD21C,0.231559*%
%ADD22C,0.229050*%
%ADD23C,0.777000*%
%ADD24C,0.224509*%
%ADD25C,0.228600*%
%ADD26C,0.227100*%
%ADD27C,0.428259*%
%ADD28C,0.231750*%
%ADD29C,0.223409*%
%ADD30C,1.270000*%
%ADD31C,1.627000*%

G36*
X1014764Y43391D02*
X1014764Y43391D01*
X1014770Y43397D01*
X1014775Y43393D01*
X1016005Y43758D01*
X1016010Y43765D01*
X1016015Y43763D01*
X1017134Y44393D01*
X1017137Y44400D01*
X1017143Y44399D01*
X1018093Y45262D01*
X1018094Y45270D01*
X1018100Y45270D01*
X1018834Y46323D01*
X1018834Y46331D01*
X1018839Y46333D01*
X1019321Y47523D01*
X1019319Y47528D01*
X1019323Y47531D01*
X1019322Y47532D01*
X1019324Y47533D01*
X1019529Y48800D01*
X1019526Y48805D01*
X1019529Y48808D01*
X1019529Y60808D01*
X1019526Y60812D01*
X1019529Y60815D01*
X1019374Y61937D01*
X1019369Y61942D01*
X1019372Y61946D01*
X1019001Y63017D01*
X1018995Y63021D01*
X1018997Y63026D01*
X1018424Y64003D01*
X1018418Y64006D01*
X1018419Y64011D01*
X1017666Y64858D01*
X1017659Y64860D01*
X1017659Y64865D01*
X1016756Y65549D01*
X1016749Y65549D01*
X1016748Y65554D01*
X1015729Y66049D01*
X1015722Y66047D01*
X1015720Y66052D01*
X1014623Y66339D01*
X1014617Y66336D01*
X1014614Y66340D01*
X1013483Y66407D01*
X1013477Y66407D01*
X1012346Y66340D01*
X1012341Y66335D01*
X1012337Y66339D01*
X1011240Y66052D01*
X1011236Y66046D01*
X1011231Y66049D01*
X1010212Y65554D01*
X1010209Y65548D01*
X1010204Y65549D01*
X1009301Y64865D01*
X1009299Y64858D01*
X1009294Y64858D01*
X1008541Y64011D01*
X1008541Y64004D01*
X1008536Y64003D01*
X1007963Y63026D01*
X1007964Y63023D01*
X1007963Y63022D01*
X1007964Y63021D01*
X1007964Y63019D01*
X1007959Y63017D01*
X1007588Y61946D01*
X1007590Y61941D01*
X1007587Y61939D01*
X1007587Y61938D01*
X1007586Y61937D01*
X1007431Y60815D01*
X1007434Y60810D01*
X1007431Y60808D01*
X1007431Y48808D01*
X1007434Y48803D01*
X1007431Y48800D01*
X1007636Y47533D01*
X1007642Y47527D01*
X1007639Y47523D01*
X1008121Y46333D01*
X1008128Y46329D01*
X1008126Y46323D01*
X1008860Y45270D01*
X1008868Y45268D01*
X1008867Y45262D01*
X1009817Y44399D01*
X1009826Y44398D01*
X1009826Y44393D01*
X1010945Y43763D01*
X1010953Y43764D01*
X1010955Y43758D01*
X1012185Y43393D01*
X1012193Y43396D01*
X1012196Y43391D01*
X1013477Y43309D01*
X1013481Y43312D01*
X1013483Y43309D01*
X1014764Y43391D01*
G37*
G36*
X59684Y43391D02*
X59684Y43391D01*
X59690Y43397D01*
X59695Y43393D01*
X60925Y43758D01*
X60930Y43765D01*
X60935Y43763D01*
X62054Y44393D01*
X62057Y44400D01*
X62063Y44399D01*
X63013Y45262D01*
X63014Y45270D01*
X63020Y45270D01*
X63754Y46323D01*
X63754Y46331D01*
X63759Y46333D01*
X64241Y47523D01*
X64239Y47528D01*
X64243Y47531D01*
X64242Y47532D01*
X64244Y47533D01*
X64449Y48800D01*
X64446Y48805D01*
X64449Y48808D01*
X64449Y60808D01*
X64446Y60812D01*
X64449Y60815D01*
X64294Y61937D01*
X64289Y61942D01*
X64292Y61946D01*
X63921Y63017D01*
X63915Y63021D01*
X63917Y63026D01*
X63344Y64003D01*
X63338Y64006D01*
X63339Y64011D01*
X62586Y64858D01*
X62579Y64860D01*
X62579Y64865D01*
X61676Y65549D01*
X61669Y65549D01*
X61668Y65554D01*
X60649Y66049D01*
X60642Y66047D01*
X60640Y66052D01*
X59543Y66339D01*
X59537Y66336D01*
X59534Y66340D01*
X58403Y66407D01*
X58397Y66407D01*
X57266Y66340D01*
X57261Y66335D01*
X57257Y66339D01*
X56160Y66052D01*
X56156Y66046D01*
X56151Y66049D01*
X55132Y65554D01*
X55129Y65548D01*
X55124Y65549D01*
X54221Y64865D01*
X54219Y64858D01*
X54214Y64858D01*
X53461Y64011D01*
X53461Y64004D01*
X53456Y64003D01*
X52883Y63026D01*
X52884Y63023D01*
X52883Y63022D01*
X52884Y63021D01*
X52884Y63019D01*
X52879Y63017D01*
X52508Y61946D01*
X52510Y61941D01*
X52507Y61939D01*
X52507Y61938D01*
X52506Y61937D01*
X52351Y60815D01*
X52354Y60810D01*
X52351Y60808D01*
X52351Y48808D01*
X52354Y48803D01*
X52351Y48800D01*
X52556Y47533D01*
X52562Y47527D01*
X52559Y47523D01*
X53041Y46333D01*
X53048Y46329D01*
X53046Y46323D01*
X53780Y45270D01*
X53788Y45268D01*
X53787Y45262D01*
X54737Y44399D01*
X54746Y44398D01*
X54746Y44393D01*
X55865Y43763D01*
X55873Y43764D01*
X55875Y43758D01*
X57105Y43393D01*
X57113Y43396D01*
X57116Y43391D01*
X58397Y43309D01*
X58401Y43312D01*
X58403Y43309D01*
X59684Y43391D01*
G37*
G36*
X928364Y43391D02*
X928364Y43391D01*
X928370Y43397D01*
X928375Y43393D01*
X929605Y43758D01*
X929610Y43765D01*
X929615Y43763D01*
X930734Y44393D01*
X930737Y44400D01*
X930743Y44399D01*
X931693Y45262D01*
X931694Y45270D01*
X931700Y45270D01*
X932434Y46323D01*
X932434Y46331D01*
X932439Y46333D01*
X932921Y47523D01*
X932919Y47528D01*
X932923Y47531D01*
X932922Y47532D01*
X932924Y47533D01*
X933129Y48800D01*
X933126Y48805D01*
X933129Y48808D01*
X933129Y60808D01*
X933126Y60812D01*
X933129Y60815D01*
X932974Y61937D01*
X932969Y61942D01*
X932972Y61946D01*
X932601Y63017D01*
X932595Y63021D01*
X932597Y63026D01*
X932024Y64003D01*
X932018Y64006D01*
X932019Y64011D01*
X931266Y64858D01*
X931259Y64860D01*
X931259Y64865D01*
X930356Y65549D01*
X930349Y65549D01*
X930348Y65554D01*
X929329Y66049D01*
X929322Y66047D01*
X929320Y66052D01*
X928223Y66339D01*
X928217Y66336D01*
X928214Y66340D01*
X927083Y66407D01*
X927077Y66407D01*
X925946Y66340D01*
X925941Y66335D01*
X925937Y66339D01*
X924840Y66052D01*
X924836Y66046D01*
X924831Y66049D01*
X923812Y65554D01*
X923809Y65548D01*
X923804Y65549D01*
X922901Y64865D01*
X922899Y64858D01*
X922894Y64858D01*
X922141Y64011D01*
X922141Y64004D01*
X922136Y64003D01*
X921563Y63026D01*
X921564Y63023D01*
X921563Y63022D01*
X921564Y63021D01*
X921564Y63019D01*
X921559Y63017D01*
X921188Y61946D01*
X921190Y61941D01*
X921187Y61939D01*
X921187Y61938D01*
X921186Y61937D01*
X921031Y60815D01*
X921034Y60810D01*
X921031Y60808D01*
X921031Y48808D01*
X921034Y48803D01*
X921031Y48800D01*
X921236Y47533D01*
X921242Y47527D01*
X921239Y47523D01*
X921721Y46333D01*
X921728Y46329D01*
X921726Y46323D01*
X922460Y45270D01*
X922468Y45268D01*
X922467Y45262D01*
X923417Y44399D01*
X923426Y44398D01*
X923426Y44393D01*
X924545Y43763D01*
X924553Y43764D01*
X924555Y43758D01*
X925785Y43393D01*
X925793Y43396D01*
X925796Y43391D01*
X927077Y43309D01*
X927081Y43312D01*
X927083Y43309D01*
X928364Y43391D01*
G37*
G36*
X146084Y43391D02*
X146084Y43391D01*
X146090Y43397D01*
X146095Y43393D01*
X147325Y43758D01*
X147330Y43765D01*
X147335Y43763D01*
X148454Y44393D01*
X148457Y44400D01*
X148463Y44399D01*
X149413Y45262D01*
X149414Y45270D01*
X149420Y45270D01*
X150154Y46323D01*
X150154Y46331D01*
X150159Y46333D01*
X150641Y47523D01*
X150639Y47528D01*
X150643Y47531D01*
X150642Y47532D01*
X150644Y47533D01*
X150849Y48800D01*
X150846Y48805D01*
X150849Y48808D01*
X150849Y60808D01*
X150846Y60812D01*
X150849Y60815D01*
X150694Y61937D01*
X150689Y61942D01*
X150692Y61946D01*
X150321Y63017D01*
X150315Y63021D01*
X150317Y63026D01*
X149744Y64003D01*
X149738Y64006D01*
X149739Y64011D01*
X148986Y64858D01*
X148979Y64860D01*
X148979Y64865D01*
X148076Y65549D01*
X148069Y65549D01*
X148068Y65554D01*
X147049Y66049D01*
X147042Y66047D01*
X147040Y66052D01*
X145943Y66339D01*
X145937Y66336D01*
X145934Y66340D01*
X144803Y66407D01*
X144797Y66407D01*
X143666Y66340D01*
X143661Y66335D01*
X143657Y66339D01*
X142560Y66052D01*
X142556Y66046D01*
X142551Y66049D01*
X141532Y65554D01*
X141529Y65548D01*
X141524Y65549D01*
X140621Y64865D01*
X140619Y64858D01*
X140614Y64858D01*
X139861Y64011D01*
X139861Y64004D01*
X139856Y64003D01*
X139283Y63026D01*
X139284Y63023D01*
X139283Y63022D01*
X139284Y63021D01*
X139284Y63019D01*
X139279Y63017D01*
X138908Y61946D01*
X138910Y61941D01*
X138907Y61939D01*
X138907Y61938D01*
X138906Y61937D01*
X138751Y60815D01*
X138754Y60810D01*
X138751Y60808D01*
X138751Y48808D01*
X138754Y48803D01*
X138751Y48800D01*
X138956Y47533D01*
X138962Y47527D01*
X138959Y47523D01*
X139441Y46333D01*
X139448Y46329D01*
X139446Y46323D01*
X140180Y45270D01*
X140188Y45268D01*
X140187Y45262D01*
X141137Y44399D01*
X141146Y44398D01*
X141146Y44393D01*
X142265Y43763D01*
X142273Y43764D01*
X142275Y43758D01*
X143505Y43393D01*
X143513Y43396D01*
X143516Y43391D01*
X144797Y43309D01*
X144801Y43312D01*
X144803Y43309D01*
X146084Y43391D01*
G37*
G36*
X59571Y4119D02*
X59571Y4119D01*
X59576Y4124D01*
X59580Y4121D01*
X60703Y4456D01*
X60707Y4462D01*
X60711Y4460D01*
X61747Y5008D01*
X61750Y5014D01*
X61755Y5013D01*
X62663Y5752D01*
X62665Y5759D01*
X62670Y5759D01*
X63417Y6661D01*
X63417Y6669D01*
X63423Y6669D01*
X63979Y7700D01*
X63978Y7707D01*
X63983Y7709D01*
X64327Y8828D01*
X64325Y8835D01*
X64329Y8838D01*
X64449Y10003D01*
X64447Y10006D01*
X64449Y10008D01*
X64449Y16008D01*
X64447Y16011D01*
X64449Y16013D01*
X64338Y17189D01*
X64333Y17194D01*
X64336Y17198D01*
X63998Y18330D01*
X63992Y18334D01*
X63994Y18339D01*
X63442Y19383D01*
X63435Y19386D01*
X63437Y19391D01*
X62691Y20307D01*
X62684Y20308D01*
X62684Y20314D01*
X61775Y21067D01*
X61767Y21067D01*
X61767Y21072D01*
X60727Y21633D01*
X60720Y21632D01*
X60718Y21637D01*
X59589Y21984D01*
X59583Y21982D01*
X59580Y21986D01*
X58405Y22107D01*
X58398Y22103D01*
X58394Y22107D01*
X57054Y21950D01*
X57048Y21945D01*
X57043Y21948D01*
X55772Y21497D01*
X55767Y21490D01*
X55762Y21492D01*
X54623Y20770D01*
X54620Y20762D01*
X54614Y20763D01*
X53664Y19805D01*
X53663Y19797D01*
X53657Y19796D01*
X52944Y18651D01*
X52945Y18643D01*
X52939Y18641D01*
X52499Y17365D01*
X52501Y17358D01*
X52497Y17355D01*
X52351Y16013D01*
X52353Y16010D01*
X52351Y16008D01*
X52351Y10008D01*
X52353Y10005D01*
X52351Y10002D01*
X52506Y8673D01*
X52512Y8667D01*
X52509Y8663D01*
X52956Y7402D01*
X52963Y7397D01*
X52961Y7392D01*
X53678Y6262D01*
X53685Y6259D01*
X53684Y6253D01*
X54635Y5311D01*
X54643Y5310D01*
X54643Y5304D01*
X55779Y4597D01*
X55787Y4598D01*
X55789Y4592D01*
X57054Y4156D01*
X57059Y4157D01*
X57060Y4157D01*
X57063Y4157D01*
X57065Y4153D01*
X58395Y4009D01*
X58401Y4013D01*
X58405Y4009D01*
X59571Y4119D01*
G37*
G36*
X1014651Y4119D02*
X1014651Y4119D01*
X1014656Y4124D01*
X1014660Y4121D01*
X1015783Y4456D01*
X1015787Y4462D01*
X1015791Y4460D01*
X1016827Y5008D01*
X1016830Y5014D01*
X1016835Y5013D01*
X1017743Y5752D01*
X1017745Y5759D01*
X1017750Y5759D01*
X1018497Y6661D01*
X1018497Y6669D01*
X1018503Y6669D01*
X1019059Y7700D01*
X1019058Y7707D01*
X1019063Y7709D01*
X1019407Y8828D01*
X1019405Y8835D01*
X1019409Y8838D01*
X1019529Y10003D01*
X1019527Y10006D01*
X1019529Y10008D01*
X1019529Y16008D01*
X1019527Y16011D01*
X1019529Y16013D01*
X1019418Y17189D01*
X1019413Y17194D01*
X1019416Y17198D01*
X1019078Y18330D01*
X1019072Y18334D01*
X1019074Y18339D01*
X1018522Y19383D01*
X1018515Y19386D01*
X1018517Y19391D01*
X1017771Y20307D01*
X1017764Y20308D01*
X1017764Y20314D01*
X1016855Y21067D01*
X1016847Y21067D01*
X1016847Y21072D01*
X1015807Y21633D01*
X1015800Y21632D01*
X1015798Y21637D01*
X1014669Y21984D01*
X1014663Y21982D01*
X1014660Y21986D01*
X1013485Y22107D01*
X1013478Y22103D01*
X1013474Y22107D01*
X1012134Y21950D01*
X1012128Y21945D01*
X1012123Y21948D01*
X1010852Y21497D01*
X1010847Y21490D01*
X1010842Y21492D01*
X1009703Y20770D01*
X1009700Y20762D01*
X1009694Y20763D01*
X1008744Y19805D01*
X1008743Y19797D01*
X1008737Y19796D01*
X1008024Y18651D01*
X1008025Y18643D01*
X1008019Y18641D01*
X1007579Y17365D01*
X1007581Y17358D01*
X1007577Y17355D01*
X1007431Y16013D01*
X1007433Y16010D01*
X1007431Y16008D01*
X1007431Y10008D01*
X1007433Y10005D01*
X1007431Y10002D01*
X1007586Y8673D01*
X1007592Y8667D01*
X1007589Y8663D01*
X1008036Y7402D01*
X1008043Y7397D01*
X1008041Y7392D01*
X1008758Y6262D01*
X1008765Y6259D01*
X1008764Y6253D01*
X1009715Y5311D01*
X1009723Y5310D01*
X1009723Y5304D01*
X1010859Y4597D01*
X1010867Y4598D01*
X1010869Y4592D01*
X1012134Y4156D01*
X1012139Y4157D01*
X1012140Y4157D01*
X1012143Y4157D01*
X1012145Y4153D01*
X1013475Y4009D01*
X1013481Y4013D01*
X1013485Y4009D01*
X1014651Y4119D01*
G37*
G36*
X928251Y4119D02*
X928251Y4119D01*
X928256Y4124D01*
X928260Y4121D01*
X929383Y4456D01*
X929387Y4462D01*
X929391Y4460D01*
X930427Y5008D01*
X930430Y5014D01*
X930435Y5013D01*
X931343Y5752D01*
X931345Y5759D01*
X931350Y5759D01*
X932097Y6661D01*
X932097Y6669D01*
X932103Y6669D01*
X932659Y7700D01*
X932658Y7707D01*
X932663Y7709D01*
X933007Y8828D01*
X933005Y8835D01*
X933009Y8838D01*
X933129Y10003D01*
X933127Y10006D01*
X933129Y10008D01*
X933129Y16008D01*
X933127Y16011D01*
X933129Y16013D01*
X933018Y17189D01*
X933013Y17194D01*
X933016Y17198D01*
X932678Y18330D01*
X932672Y18334D01*
X932674Y18339D01*
X932122Y19383D01*
X932115Y19386D01*
X932117Y19391D01*
X931371Y20307D01*
X931364Y20308D01*
X931364Y20314D01*
X930455Y21067D01*
X930447Y21067D01*
X930447Y21072D01*
X929407Y21633D01*
X929400Y21632D01*
X929398Y21637D01*
X928269Y21984D01*
X928263Y21982D01*
X928260Y21986D01*
X927085Y22107D01*
X927078Y22103D01*
X927074Y22107D01*
X925734Y21950D01*
X925728Y21945D01*
X925723Y21948D01*
X924452Y21497D01*
X924447Y21490D01*
X924442Y21492D01*
X923303Y20770D01*
X923300Y20762D01*
X923294Y20763D01*
X922344Y19805D01*
X922343Y19797D01*
X922337Y19796D01*
X921624Y18651D01*
X921625Y18643D01*
X921619Y18641D01*
X921179Y17365D01*
X921181Y17358D01*
X921177Y17355D01*
X921031Y16013D01*
X921033Y16010D01*
X921031Y16008D01*
X921031Y10008D01*
X921033Y10005D01*
X921031Y10002D01*
X921186Y8673D01*
X921192Y8667D01*
X921189Y8663D01*
X921636Y7402D01*
X921643Y7397D01*
X921641Y7392D01*
X922358Y6262D01*
X922365Y6259D01*
X922364Y6253D01*
X923315Y5311D01*
X923323Y5310D01*
X923323Y5304D01*
X924459Y4597D01*
X924467Y4598D01*
X924469Y4592D01*
X925734Y4156D01*
X925739Y4157D01*
X925740Y4157D01*
X925743Y4157D01*
X925745Y4153D01*
X927075Y4009D01*
X927081Y4013D01*
X927085Y4009D01*
X928251Y4119D01*
G37*
G36*
X145971Y4119D02*
X145971Y4119D01*
X145976Y4124D01*
X145980Y4121D01*
X147103Y4456D01*
X147107Y4462D01*
X147111Y4460D01*
X148147Y5008D01*
X148150Y5014D01*
X148155Y5013D01*
X149063Y5752D01*
X149065Y5759D01*
X149070Y5759D01*
X149817Y6661D01*
X149817Y6669D01*
X149823Y6669D01*
X150379Y7700D01*
X150378Y7707D01*
X150383Y7709D01*
X150727Y8828D01*
X150725Y8835D01*
X150729Y8838D01*
X150849Y10003D01*
X150847Y10006D01*
X150849Y10008D01*
X150849Y16008D01*
X150847Y16011D01*
X150849Y16013D01*
X150738Y17189D01*
X150733Y17194D01*
X150736Y17198D01*
X150398Y18330D01*
X150392Y18334D01*
X150394Y18339D01*
X149842Y19383D01*
X149835Y19386D01*
X149837Y19391D01*
X149091Y20307D01*
X149084Y20308D01*
X149084Y20314D01*
X148175Y21067D01*
X148167Y21067D01*
X148167Y21072D01*
X147127Y21633D01*
X147120Y21632D01*
X147118Y21637D01*
X145989Y21984D01*
X145983Y21982D01*
X145980Y21986D01*
X144805Y22107D01*
X144798Y22103D01*
X144794Y22107D01*
X143454Y21950D01*
X143448Y21945D01*
X143443Y21948D01*
X142172Y21497D01*
X142167Y21490D01*
X142162Y21492D01*
X141023Y20770D01*
X141020Y20762D01*
X141014Y20763D01*
X140064Y19805D01*
X140063Y19797D01*
X140057Y19796D01*
X139344Y18651D01*
X139345Y18643D01*
X139339Y18641D01*
X138899Y17365D01*
X138901Y17358D01*
X138897Y17355D01*
X138751Y16013D01*
X138753Y16010D01*
X138751Y16008D01*
X138751Y10008D01*
X138753Y10005D01*
X138751Y10002D01*
X138906Y8673D01*
X138912Y8667D01*
X138909Y8663D01*
X139356Y7402D01*
X139363Y7397D01*
X139361Y7392D01*
X140078Y6262D01*
X140085Y6259D01*
X140084Y6253D01*
X141035Y5311D01*
X141043Y5310D01*
X141043Y5304D01*
X142179Y4597D01*
X142187Y4598D01*
X142189Y4592D01*
X143454Y4156D01*
X143459Y4157D01*
X143460Y4157D01*
X143463Y4157D01*
X143465Y4153D01*
X144795Y4009D01*
X144801Y4013D01*
X144805Y4009D01*
X145971Y4119D01*
G37*
G36*
X990792Y330339D02*
X990792Y330339D01*
X990858Y330341D01*
X990901Y330359D01*
X990948Y330367D01*
X991005Y330401D01*
X991065Y330426D01*
X991100Y330457D01*
X991141Y330482D01*
X991183Y330533D01*
X991231Y330577D01*
X991253Y330619D01*
X991282Y330656D01*
X991303Y330718D01*
X991334Y330777D01*
X991342Y330831D01*
X991354Y330868D01*
X991353Y330908D01*
X991361Y330962D01*
X991361Y344170D01*
X991350Y344235D01*
X991348Y344301D01*
X991330Y344344D01*
X991322Y344391D01*
X991288Y344448D01*
X991263Y344508D01*
X991232Y344543D01*
X991207Y344584D01*
X991156Y344626D01*
X991112Y344674D01*
X991070Y344696D01*
X991033Y344725D01*
X990971Y344746D01*
X990912Y344777D01*
X990858Y344785D01*
X990821Y344797D01*
X990781Y344796D01*
X990727Y344804D01*
X986917Y344804D01*
X986852Y344793D01*
X986786Y344791D01*
X986743Y344773D01*
X986696Y344765D01*
X986639Y344731D01*
X986579Y344706D01*
X986544Y344675D01*
X986503Y344650D01*
X986462Y344599D01*
X986413Y344555D01*
X986391Y344513D01*
X986362Y344476D01*
X986341Y344414D01*
X986310Y344355D01*
X986302Y344301D01*
X986290Y344264D01*
X986291Y344224D01*
X986283Y344170D01*
X986283Y330962D01*
X986294Y330897D01*
X986296Y330831D01*
X986314Y330788D01*
X986322Y330741D01*
X986356Y330684D01*
X986381Y330624D01*
X986412Y330589D01*
X986437Y330548D01*
X986488Y330507D01*
X986532Y330458D01*
X986574Y330436D01*
X986611Y330407D01*
X986673Y330386D01*
X986732Y330355D01*
X986786Y330347D01*
X986823Y330335D01*
X986863Y330336D01*
X986917Y330328D01*
X990727Y330328D01*
X990792Y330339D01*
G37*
G36*
X122112Y330339D02*
X122112Y330339D01*
X122178Y330341D01*
X122221Y330359D01*
X122268Y330367D01*
X122325Y330401D01*
X122385Y330426D01*
X122420Y330457D01*
X122461Y330482D01*
X122503Y330533D01*
X122551Y330577D01*
X122573Y330619D01*
X122602Y330656D01*
X122623Y330718D01*
X122654Y330777D01*
X122662Y330831D01*
X122674Y330868D01*
X122673Y330908D01*
X122681Y330962D01*
X122681Y344170D01*
X122670Y344235D01*
X122668Y344301D01*
X122650Y344344D01*
X122642Y344391D01*
X122608Y344448D01*
X122583Y344508D01*
X122552Y344543D01*
X122527Y344584D01*
X122476Y344626D01*
X122432Y344674D01*
X122390Y344696D01*
X122353Y344725D01*
X122291Y344746D01*
X122232Y344777D01*
X122178Y344785D01*
X122141Y344797D01*
X122101Y344796D01*
X122047Y344804D01*
X118237Y344804D01*
X118172Y344793D01*
X118106Y344791D01*
X118063Y344773D01*
X118016Y344765D01*
X117959Y344731D01*
X117899Y344706D01*
X117864Y344675D01*
X117823Y344650D01*
X117782Y344599D01*
X117733Y344555D01*
X117711Y344513D01*
X117682Y344476D01*
X117661Y344414D01*
X117630Y344355D01*
X117622Y344301D01*
X117610Y344264D01*
X117611Y344224D01*
X117603Y344170D01*
X117603Y330962D01*
X117614Y330897D01*
X117616Y330831D01*
X117634Y330788D01*
X117642Y330741D01*
X117676Y330684D01*
X117701Y330624D01*
X117732Y330589D01*
X117757Y330548D01*
X117808Y330507D01*
X117852Y330458D01*
X117894Y330436D01*
X117931Y330407D01*
X117993Y330386D01*
X118052Y330355D01*
X118106Y330347D01*
X118143Y330335D01*
X118183Y330336D01*
X118237Y330328D01*
X122047Y330328D01*
X122112Y330339D01*
G37*
D10*
X368728Y114792D02*
X363712Y114792D01*
X363712Y129308D01*
X368728Y129308D01*
X368728Y114792D01*
X368728Y116933D02*
X363712Y116933D01*
X363712Y119074D02*
X368728Y119074D01*
X368728Y121215D02*
X363712Y121215D01*
X363712Y123356D02*
X368728Y123356D01*
X368728Y125497D02*
X363712Y125497D01*
X363712Y127638D02*
X368728Y127638D01*
X373712Y114792D02*
X378728Y114792D01*
X373712Y114792D02*
X373712Y129308D01*
X378728Y129308D01*
X378728Y114792D01*
X378728Y116933D02*
X373712Y116933D01*
X373712Y119074D02*
X378728Y119074D01*
X378728Y121215D02*
X373712Y121215D01*
X373712Y123356D02*
X378728Y123356D01*
X378728Y125497D02*
X373712Y125497D01*
X373712Y127638D02*
X378728Y127638D01*
X383712Y114792D02*
X388728Y114792D01*
X383712Y114792D02*
X383712Y129308D01*
X388728Y129308D01*
X388728Y114792D01*
X388728Y116933D02*
X383712Y116933D01*
X383712Y119074D02*
X388728Y119074D01*
X388728Y121215D02*
X383712Y121215D01*
X383712Y123356D02*
X388728Y123356D01*
X388728Y125497D02*
X383712Y125497D01*
X383712Y127638D02*
X388728Y127638D01*
X393712Y114792D02*
X398728Y114792D01*
X393712Y114792D02*
X393712Y129308D01*
X398728Y129308D01*
X398728Y114792D01*
X398728Y116933D02*
X393712Y116933D01*
X393712Y119074D02*
X398728Y119074D01*
X398728Y121215D02*
X393712Y121215D01*
X393712Y123356D02*
X398728Y123356D01*
X398728Y125497D02*
X393712Y125497D01*
X393712Y127638D02*
X398728Y127638D01*
D11*
X358727Y136793D02*
X347713Y136793D01*
X347713Y155807D01*
X358727Y155807D01*
X358727Y136793D01*
X358727Y138936D02*
X347713Y138936D01*
X347713Y141079D02*
X358727Y141079D01*
X358727Y143222D02*
X347713Y143222D01*
X347713Y145365D02*
X358727Y145365D01*
X358727Y147508D02*
X347713Y147508D01*
X347713Y149651D02*
X358727Y149651D01*
X358727Y151794D02*
X347713Y151794D01*
X347713Y153937D02*
X358727Y153937D01*
X403713Y136793D02*
X414727Y136793D01*
X403713Y136793D02*
X403713Y155807D01*
X414727Y155807D01*
X414727Y136793D01*
X414727Y138936D02*
X403713Y138936D01*
X403713Y141079D02*
X414727Y141079D01*
X414727Y143222D02*
X403713Y143222D01*
X403713Y145365D02*
X414727Y145365D01*
X414727Y147508D02*
X403713Y147508D01*
X403713Y149651D02*
X414727Y149651D01*
X414727Y151794D02*
X403713Y151794D01*
X403713Y153937D02*
X414727Y153937D01*
X358507Y4543D02*
X347493Y4543D01*
X347493Y23557D01*
X358507Y23557D01*
X358507Y4543D01*
X358507Y6686D02*
X347493Y6686D01*
X347493Y8829D02*
X358507Y8829D01*
X358507Y10972D02*
X347493Y10972D01*
X347493Y13115D02*
X358507Y13115D01*
X358507Y15258D02*
X347493Y15258D01*
X347493Y17401D02*
X358507Y17401D01*
X358507Y19544D02*
X347493Y19544D01*
X347493Y21687D02*
X358507Y21687D01*
X403493Y4543D02*
X414507Y4543D01*
X403493Y4543D02*
X403493Y23557D01*
X414507Y23557D01*
X414507Y4543D01*
X414507Y6686D02*
X403493Y6686D01*
X403493Y8829D02*
X414507Y8829D01*
X414507Y10972D02*
X403493Y10972D01*
X403493Y13115D02*
X414507Y13115D01*
X414507Y15258D02*
X403493Y15258D01*
X403493Y17401D02*
X414507Y17401D01*
X414507Y19544D02*
X403493Y19544D01*
X403493Y21687D02*
X414507Y21687D01*
D10*
X368508Y44542D02*
X363492Y44542D01*
X363492Y57058D01*
X368508Y57058D01*
X368508Y44542D01*
X368508Y46683D02*
X363492Y46683D01*
X363492Y48824D02*
X368508Y48824D01*
X368508Y50965D02*
X363492Y50965D01*
X363492Y53106D02*
X368508Y53106D01*
X368508Y55247D02*
X363492Y55247D01*
X373492Y44542D02*
X378508Y44542D01*
X373492Y44542D02*
X373492Y57058D01*
X378508Y57058D01*
X378508Y44542D01*
X378508Y46683D02*
X373492Y46683D01*
X373492Y48824D02*
X378508Y48824D01*
X378508Y50965D02*
X373492Y50965D01*
X373492Y53106D02*
X378508Y53106D01*
X378508Y55247D02*
X373492Y55247D01*
X383492Y44542D02*
X388508Y44542D01*
X383492Y44542D02*
X383492Y57058D01*
X388508Y57058D01*
X388508Y44542D01*
X388508Y46683D02*
X383492Y46683D01*
X383492Y48824D02*
X388508Y48824D01*
X388508Y50965D02*
X383492Y50965D01*
X383492Y53106D02*
X388508Y53106D01*
X388508Y55247D02*
X383492Y55247D01*
X393492Y44542D02*
X398508Y44542D01*
X393492Y44542D02*
X393492Y57058D01*
X398508Y57058D01*
X398508Y44542D01*
X398508Y46683D02*
X393492Y46683D01*
X393492Y48824D02*
X398508Y48824D01*
X398508Y50965D02*
X393492Y50965D01*
X393492Y53106D02*
X398508Y53106D01*
X398508Y55247D02*
X393492Y55247D01*
D12*
X812800Y210058D03*
X249682Y272542D03*
D13*
X25400Y711200D03*
X838200Y711200D03*
X838200Y25400D03*
X25400Y25400D03*
D14*
X189560Y474980D03*
D15*
X389560Y474980D03*
D16*
X198042Y520498D02*
X196078Y520498D01*
X196078Y534962D01*
X198042Y534962D01*
X198042Y520498D01*
X198042Y522689D02*
X196078Y522689D01*
X196078Y524880D02*
X198042Y524880D01*
X198042Y527071D02*
X196078Y527071D01*
X196078Y529262D02*
X198042Y529262D01*
X198042Y531453D02*
X196078Y531453D01*
X196078Y533644D02*
X198042Y533644D01*
D11*
X191567Y506723D02*
X180553Y506723D01*
X180553Y533237D01*
X191567Y533237D01*
X191567Y506723D01*
X191567Y508866D02*
X180553Y508866D01*
X180553Y511009D02*
X191567Y511009D01*
X191567Y513152D02*
X180553Y513152D01*
X180553Y515295D02*
X191567Y515295D01*
X191567Y517438D02*
X180553Y517438D01*
X180553Y519581D02*
X191567Y519581D01*
X191567Y521724D02*
X180553Y521724D01*
X180553Y523867D02*
X191567Y523867D01*
X191567Y526010D02*
X180553Y526010D01*
X180553Y528153D02*
X191567Y528153D01*
X191567Y530296D02*
X180553Y530296D01*
X180553Y532439D02*
X191567Y532439D01*
X387553Y506723D02*
X398567Y506723D01*
X387553Y506723D02*
X387553Y533237D01*
X398567Y533237D01*
X398567Y506723D01*
X398567Y508866D02*
X387553Y508866D01*
X387553Y511009D02*
X398567Y511009D01*
X398567Y513152D02*
X387553Y513152D01*
X387553Y515295D02*
X398567Y515295D01*
X398567Y517438D02*
X387553Y517438D01*
X387553Y519581D02*
X398567Y519581D01*
X398567Y521724D02*
X387553Y521724D01*
X387553Y523867D02*
X398567Y523867D01*
X398567Y526010D02*
X387553Y526010D01*
X387553Y528153D02*
X398567Y528153D01*
X398567Y530296D02*
X387553Y530296D01*
X387553Y532439D02*
X398567Y532439D01*
D16*
X200542Y444998D02*
X198578Y444998D01*
X198578Y459462D01*
X200542Y459462D01*
X200542Y444998D01*
X200542Y447189D02*
X198578Y447189D01*
X198578Y449380D02*
X200542Y449380D01*
X200542Y451571D02*
X198578Y451571D01*
X198578Y453762D02*
X200542Y453762D01*
X200542Y455953D02*
X198578Y455953D01*
X198578Y458144D02*
X200542Y458144D01*
X201078Y520498D02*
X203042Y520498D01*
X201078Y520498D02*
X201078Y534962D01*
X203042Y534962D01*
X203042Y520498D01*
X203042Y522689D02*
X201078Y522689D01*
X201078Y524880D02*
X203042Y524880D01*
X203042Y527071D02*
X201078Y527071D01*
X201078Y529262D02*
X203042Y529262D01*
X203042Y531453D02*
X201078Y531453D01*
X201078Y533644D02*
X203042Y533644D01*
X203578Y444998D02*
X205542Y444998D01*
X203578Y444998D02*
X203578Y459462D01*
X205542Y459462D01*
X205542Y444998D01*
X205542Y447189D02*
X203578Y447189D01*
X203578Y449380D02*
X205542Y449380D01*
X205542Y451571D02*
X203578Y451571D01*
X203578Y453762D02*
X205542Y453762D01*
X205542Y455953D02*
X203578Y455953D01*
X203578Y458144D02*
X205542Y458144D01*
X206078Y520498D02*
X208042Y520498D01*
X206078Y520498D02*
X206078Y534962D01*
X208042Y534962D01*
X208042Y520498D01*
X208042Y522689D02*
X206078Y522689D01*
X206078Y524880D02*
X208042Y524880D01*
X208042Y527071D02*
X206078Y527071D01*
X206078Y529262D02*
X208042Y529262D01*
X208042Y531453D02*
X206078Y531453D01*
X206078Y533644D02*
X208042Y533644D01*
X208578Y444998D02*
X210542Y444998D01*
X208578Y444998D02*
X208578Y459462D01*
X210542Y459462D01*
X210542Y444998D01*
X210542Y447189D02*
X208578Y447189D01*
X208578Y449380D02*
X210542Y449380D01*
X210542Y451571D02*
X208578Y451571D01*
X208578Y453762D02*
X210542Y453762D01*
X210542Y455953D02*
X208578Y455953D01*
X208578Y458144D02*
X210542Y458144D01*
X211078Y520498D02*
X213042Y520498D01*
X211078Y520498D02*
X211078Y534962D01*
X213042Y534962D01*
X213042Y520498D01*
X213042Y522689D02*
X211078Y522689D01*
X211078Y524880D02*
X213042Y524880D01*
X213042Y527071D02*
X211078Y527071D01*
X211078Y529262D02*
X213042Y529262D01*
X213042Y531453D02*
X211078Y531453D01*
X211078Y533644D02*
X213042Y533644D01*
X213578Y444998D02*
X215542Y444998D01*
X213578Y444998D02*
X213578Y459462D01*
X215542Y459462D01*
X215542Y444998D01*
X215542Y447189D02*
X213578Y447189D01*
X213578Y449380D02*
X215542Y449380D01*
X215542Y451571D02*
X213578Y451571D01*
X213578Y453762D02*
X215542Y453762D01*
X215542Y455953D02*
X213578Y455953D01*
X213578Y458144D02*
X215542Y458144D01*
X216078Y520498D02*
X218042Y520498D01*
X216078Y520498D02*
X216078Y534962D01*
X218042Y534962D01*
X218042Y520498D01*
X218042Y522689D02*
X216078Y522689D01*
X216078Y524880D02*
X218042Y524880D01*
X218042Y527071D02*
X216078Y527071D01*
X216078Y529262D02*
X218042Y529262D01*
X218042Y531453D02*
X216078Y531453D01*
X216078Y533644D02*
X218042Y533644D01*
X218578Y444998D02*
X220542Y444998D01*
X218578Y444998D02*
X218578Y459462D01*
X220542Y459462D01*
X220542Y444998D01*
X220542Y447189D02*
X218578Y447189D01*
X218578Y449380D02*
X220542Y449380D01*
X220542Y451571D02*
X218578Y451571D01*
X218578Y453762D02*
X220542Y453762D01*
X220542Y455953D02*
X218578Y455953D01*
X218578Y458144D02*
X220542Y458144D01*
X221078Y520498D02*
X223042Y520498D01*
X221078Y520498D02*
X221078Y534962D01*
X223042Y534962D01*
X223042Y520498D01*
X223042Y522689D02*
X221078Y522689D01*
X221078Y524880D02*
X223042Y524880D01*
X223042Y527071D02*
X221078Y527071D01*
X221078Y529262D02*
X223042Y529262D01*
X223042Y531453D02*
X221078Y531453D01*
X221078Y533644D02*
X223042Y533644D01*
X223578Y444998D02*
X225542Y444998D01*
X223578Y444998D02*
X223578Y459462D01*
X225542Y459462D01*
X225542Y444998D01*
X225542Y447189D02*
X223578Y447189D01*
X223578Y449380D02*
X225542Y449380D01*
X225542Y451571D02*
X223578Y451571D01*
X223578Y453762D02*
X225542Y453762D01*
X225542Y455953D02*
X223578Y455953D01*
X223578Y458144D02*
X225542Y458144D01*
X226078Y520498D02*
X228042Y520498D01*
X226078Y520498D02*
X226078Y534962D01*
X228042Y534962D01*
X228042Y520498D01*
X228042Y522689D02*
X226078Y522689D01*
X226078Y524880D02*
X228042Y524880D01*
X228042Y527071D02*
X226078Y527071D01*
X226078Y529262D02*
X228042Y529262D01*
X228042Y531453D02*
X226078Y531453D01*
X226078Y533644D02*
X228042Y533644D01*
X228578Y444998D02*
X230542Y444998D01*
X228578Y444998D02*
X228578Y459462D01*
X230542Y459462D01*
X230542Y444998D01*
X230542Y447189D02*
X228578Y447189D01*
X228578Y449380D02*
X230542Y449380D01*
X230542Y451571D02*
X228578Y451571D01*
X228578Y453762D02*
X230542Y453762D01*
X230542Y455953D02*
X228578Y455953D01*
X228578Y458144D02*
X230542Y458144D01*
X231078Y520498D02*
X233042Y520498D01*
X231078Y520498D02*
X231078Y534962D01*
X233042Y534962D01*
X233042Y520498D01*
X233042Y522689D02*
X231078Y522689D01*
X231078Y524880D02*
X233042Y524880D01*
X233042Y527071D02*
X231078Y527071D01*
X231078Y529262D02*
X233042Y529262D01*
X233042Y531453D02*
X231078Y531453D01*
X231078Y533644D02*
X233042Y533644D01*
X233578Y444998D02*
X235542Y444998D01*
X233578Y444998D02*
X233578Y459462D01*
X235542Y459462D01*
X235542Y444998D01*
X235542Y447189D02*
X233578Y447189D01*
X233578Y449380D02*
X235542Y449380D01*
X235542Y451571D02*
X233578Y451571D01*
X233578Y453762D02*
X235542Y453762D01*
X235542Y455953D02*
X233578Y455953D01*
X233578Y458144D02*
X235542Y458144D01*
X236078Y520498D02*
X238042Y520498D01*
X236078Y520498D02*
X236078Y534962D01*
X238042Y534962D01*
X238042Y520498D01*
X238042Y522689D02*
X236078Y522689D01*
X236078Y524880D02*
X238042Y524880D01*
X238042Y527071D02*
X236078Y527071D01*
X236078Y529262D02*
X238042Y529262D01*
X238042Y531453D02*
X236078Y531453D01*
X236078Y533644D02*
X238042Y533644D01*
X238578Y444998D02*
X240542Y444998D01*
X238578Y444998D02*
X238578Y459462D01*
X240542Y459462D01*
X240542Y444998D01*
X240542Y447189D02*
X238578Y447189D01*
X238578Y449380D02*
X240542Y449380D01*
X240542Y451571D02*
X238578Y451571D01*
X238578Y453762D02*
X240542Y453762D01*
X240542Y455953D02*
X238578Y455953D01*
X238578Y458144D02*
X240542Y458144D01*
X241078Y520498D02*
X243042Y520498D01*
X241078Y520498D02*
X241078Y534962D01*
X243042Y534962D01*
X243042Y520498D01*
X243042Y522689D02*
X241078Y522689D01*
X241078Y524880D02*
X243042Y524880D01*
X243042Y527071D02*
X241078Y527071D01*
X241078Y529262D02*
X243042Y529262D01*
X243042Y531453D02*
X241078Y531453D01*
X241078Y533644D02*
X243042Y533644D01*
X243578Y444998D02*
X245542Y444998D01*
X243578Y444998D02*
X243578Y459462D01*
X245542Y459462D01*
X245542Y444998D01*
X245542Y447189D02*
X243578Y447189D01*
X243578Y449380D02*
X245542Y449380D01*
X245542Y451571D02*
X243578Y451571D01*
X243578Y453762D02*
X245542Y453762D01*
X245542Y455953D02*
X243578Y455953D01*
X243578Y458144D02*
X245542Y458144D01*
X246078Y520498D02*
X248042Y520498D01*
X246078Y520498D02*
X246078Y534962D01*
X248042Y534962D01*
X248042Y520498D01*
X248042Y522689D02*
X246078Y522689D01*
X246078Y524880D02*
X248042Y524880D01*
X248042Y527071D02*
X246078Y527071D01*
X246078Y529262D02*
X248042Y529262D01*
X248042Y531453D02*
X246078Y531453D01*
X246078Y533644D02*
X248042Y533644D01*
X248578Y444998D02*
X250542Y444998D01*
X248578Y444998D02*
X248578Y459462D01*
X250542Y459462D01*
X250542Y444998D01*
X250542Y447189D02*
X248578Y447189D01*
X248578Y449380D02*
X250542Y449380D01*
X250542Y451571D02*
X248578Y451571D01*
X248578Y453762D02*
X250542Y453762D01*
X250542Y455953D02*
X248578Y455953D01*
X248578Y458144D02*
X250542Y458144D01*
X251078Y520498D02*
X253042Y520498D01*
X251078Y520498D02*
X251078Y534962D01*
X253042Y534962D01*
X253042Y520498D01*
X253042Y522689D02*
X251078Y522689D01*
X251078Y524880D02*
X253042Y524880D01*
X253042Y527071D02*
X251078Y527071D01*
X251078Y529262D02*
X253042Y529262D01*
X253042Y531453D02*
X251078Y531453D01*
X251078Y533644D02*
X253042Y533644D01*
X273578Y444998D02*
X275542Y444998D01*
X273578Y444998D02*
X273578Y459462D01*
X275542Y459462D01*
X275542Y444998D01*
X275542Y447189D02*
X273578Y447189D01*
X273578Y449380D02*
X275542Y449380D01*
X275542Y451571D02*
X273578Y451571D01*
X273578Y453762D02*
X275542Y453762D01*
X275542Y455953D02*
X273578Y455953D01*
X273578Y458144D02*
X275542Y458144D01*
X276078Y520498D02*
X278042Y520498D01*
X276078Y520498D02*
X276078Y534962D01*
X278042Y534962D01*
X278042Y520498D01*
X278042Y522689D02*
X276078Y522689D01*
X276078Y524880D02*
X278042Y524880D01*
X278042Y527071D02*
X276078Y527071D01*
X276078Y529262D02*
X278042Y529262D01*
X278042Y531453D02*
X276078Y531453D01*
X276078Y533644D02*
X278042Y533644D01*
X278578Y444998D02*
X280542Y444998D01*
X278578Y444998D02*
X278578Y459462D01*
X280542Y459462D01*
X280542Y444998D01*
X280542Y447189D02*
X278578Y447189D01*
X278578Y449380D02*
X280542Y449380D01*
X280542Y451571D02*
X278578Y451571D01*
X278578Y453762D02*
X280542Y453762D01*
X280542Y455953D02*
X278578Y455953D01*
X278578Y458144D02*
X280542Y458144D01*
X281078Y520498D02*
X283042Y520498D01*
X281078Y520498D02*
X281078Y534962D01*
X283042Y534962D01*
X283042Y520498D01*
X283042Y522689D02*
X281078Y522689D01*
X281078Y524880D02*
X283042Y524880D01*
X283042Y527071D02*
X281078Y527071D01*
X281078Y529262D02*
X283042Y529262D01*
X283042Y531453D02*
X281078Y531453D01*
X281078Y533644D02*
X283042Y533644D01*
X283578Y444998D02*
X285542Y444998D01*
X283578Y444998D02*
X283578Y459462D01*
X285542Y459462D01*
X285542Y444998D01*
X285542Y447189D02*
X283578Y447189D01*
X283578Y449380D02*
X285542Y449380D01*
X285542Y451571D02*
X283578Y451571D01*
X283578Y453762D02*
X285542Y453762D01*
X285542Y455953D02*
X283578Y455953D01*
X283578Y458144D02*
X285542Y458144D01*
X286078Y520498D02*
X288042Y520498D01*
X286078Y520498D02*
X286078Y534962D01*
X288042Y534962D01*
X288042Y520498D01*
X288042Y522689D02*
X286078Y522689D01*
X286078Y524880D02*
X288042Y524880D01*
X288042Y527071D02*
X286078Y527071D01*
X286078Y529262D02*
X288042Y529262D01*
X288042Y531453D02*
X286078Y531453D01*
X286078Y533644D02*
X288042Y533644D01*
X288578Y444998D02*
X290542Y444998D01*
X288578Y444998D02*
X288578Y459462D01*
X290542Y459462D01*
X290542Y444998D01*
X290542Y447189D02*
X288578Y447189D01*
X288578Y449380D02*
X290542Y449380D01*
X290542Y451571D02*
X288578Y451571D01*
X288578Y453762D02*
X290542Y453762D01*
X290542Y455953D02*
X288578Y455953D01*
X288578Y458144D02*
X290542Y458144D01*
X291078Y520498D02*
X293042Y520498D01*
X291078Y520498D02*
X291078Y534962D01*
X293042Y534962D01*
X293042Y520498D01*
X293042Y522689D02*
X291078Y522689D01*
X291078Y524880D02*
X293042Y524880D01*
X293042Y527071D02*
X291078Y527071D01*
X291078Y529262D02*
X293042Y529262D01*
X293042Y531453D02*
X291078Y531453D01*
X291078Y533644D02*
X293042Y533644D01*
X293578Y444998D02*
X295542Y444998D01*
X293578Y444998D02*
X293578Y459462D01*
X295542Y459462D01*
X295542Y444998D01*
X295542Y447189D02*
X293578Y447189D01*
X293578Y449380D02*
X295542Y449380D01*
X295542Y451571D02*
X293578Y451571D01*
X293578Y453762D02*
X295542Y453762D01*
X295542Y455953D02*
X293578Y455953D01*
X293578Y458144D02*
X295542Y458144D01*
X296078Y520498D02*
X298042Y520498D01*
X296078Y520498D02*
X296078Y534962D01*
X298042Y534962D01*
X298042Y520498D01*
X298042Y522689D02*
X296078Y522689D01*
X296078Y524880D02*
X298042Y524880D01*
X298042Y527071D02*
X296078Y527071D01*
X296078Y529262D02*
X298042Y529262D01*
X298042Y531453D02*
X296078Y531453D01*
X296078Y533644D02*
X298042Y533644D01*
X298578Y444998D02*
X300542Y444998D01*
X298578Y444998D02*
X298578Y459462D01*
X300542Y459462D01*
X300542Y444998D01*
X300542Y447189D02*
X298578Y447189D01*
X298578Y449380D02*
X300542Y449380D01*
X300542Y451571D02*
X298578Y451571D01*
X298578Y453762D02*
X300542Y453762D01*
X300542Y455953D02*
X298578Y455953D01*
X298578Y458144D02*
X300542Y458144D01*
X301078Y520498D02*
X303042Y520498D01*
X301078Y520498D02*
X301078Y534962D01*
X303042Y534962D01*
X303042Y520498D01*
X303042Y522689D02*
X301078Y522689D01*
X301078Y524880D02*
X303042Y524880D01*
X303042Y527071D02*
X301078Y527071D01*
X301078Y529262D02*
X303042Y529262D01*
X303042Y531453D02*
X301078Y531453D01*
X301078Y533644D02*
X303042Y533644D01*
X303578Y444998D02*
X305542Y444998D01*
X303578Y444998D02*
X303578Y459462D01*
X305542Y459462D01*
X305542Y444998D01*
X305542Y447189D02*
X303578Y447189D01*
X303578Y449380D02*
X305542Y449380D01*
X305542Y451571D02*
X303578Y451571D01*
X303578Y453762D02*
X305542Y453762D01*
X305542Y455953D02*
X303578Y455953D01*
X303578Y458144D02*
X305542Y458144D01*
X306078Y520498D02*
X308042Y520498D01*
X306078Y520498D02*
X306078Y534962D01*
X308042Y534962D01*
X308042Y520498D01*
X308042Y522689D02*
X306078Y522689D01*
X306078Y524880D02*
X308042Y524880D01*
X308042Y527071D02*
X306078Y527071D01*
X306078Y529262D02*
X308042Y529262D01*
X308042Y531453D02*
X306078Y531453D01*
X306078Y533644D02*
X308042Y533644D01*
X308578Y444998D02*
X310542Y444998D01*
X308578Y444998D02*
X308578Y459462D01*
X310542Y459462D01*
X310542Y444998D01*
X310542Y447189D02*
X308578Y447189D01*
X308578Y449380D02*
X310542Y449380D01*
X310542Y451571D02*
X308578Y451571D01*
X308578Y453762D02*
X310542Y453762D01*
X310542Y455953D02*
X308578Y455953D01*
X308578Y458144D02*
X310542Y458144D01*
X311078Y520498D02*
X313042Y520498D01*
X311078Y520498D02*
X311078Y534962D01*
X313042Y534962D01*
X313042Y520498D01*
X313042Y522689D02*
X311078Y522689D01*
X311078Y524880D02*
X313042Y524880D01*
X313042Y527071D02*
X311078Y527071D01*
X311078Y529262D02*
X313042Y529262D01*
X313042Y531453D02*
X311078Y531453D01*
X311078Y533644D02*
X313042Y533644D01*
X313578Y444998D02*
X315542Y444998D01*
X313578Y444998D02*
X313578Y459462D01*
X315542Y459462D01*
X315542Y444998D01*
X315542Y447189D02*
X313578Y447189D01*
X313578Y449380D02*
X315542Y449380D01*
X315542Y451571D02*
X313578Y451571D01*
X313578Y453762D02*
X315542Y453762D01*
X315542Y455953D02*
X313578Y455953D01*
X313578Y458144D02*
X315542Y458144D01*
X316078Y520498D02*
X318042Y520498D01*
X316078Y520498D02*
X316078Y534962D01*
X318042Y534962D01*
X318042Y520498D01*
X318042Y522689D02*
X316078Y522689D01*
X316078Y524880D02*
X318042Y524880D01*
X318042Y527071D02*
X316078Y527071D01*
X316078Y529262D02*
X318042Y529262D01*
X318042Y531453D02*
X316078Y531453D01*
X316078Y533644D02*
X318042Y533644D01*
X318578Y444998D02*
X320542Y444998D01*
X318578Y444998D02*
X318578Y459462D01*
X320542Y459462D01*
X320542Y444998D01*
X320542Y447189D02*
X318578Y447189D01*
X318578Y449380D02*
X320542Y449380D01*
X320542Y451571D02*
X318578Y451571D01*
X318578Y453762D02*
X320542Y453762D01*
X320542Y455953D02*
X318578Y455953D01*
X318578Y458144D02*
X320542Y458144D01*
X321078Y520498D02*
X323042Y520498D01*
X321078Y520498D02*
X321078Y534962D01*
X323042Y534962D01*
X323042Y520498D01*
X323042Y522689D02*
X321078Y522689D01*
X321078Y524880D02*
X323042Y524880D01*
X323042Y527071D02*
X321078Y527071D01*
X321078Y529262D02*
X323042Y529262D01*
X323042Y531453D02*
X321078Y531453D01*
X321078Y533644D02*
X323042Y533644D01*
X323578Y444998D02*
X325542Y444998D01*
X323578Y444998D02*
X323578Y459462D01*
X325542Y459462D01*
X325542Y444998D01*
X325542Y447189D02*
X323578Y447189D01*
X323578Y449380D02*
X325542Y449380D01*
X325542Y451571D02*
X323578Y451571D01*
X323578Y453762D02*
X325542Y453762D01*
X325542Y455953D02*
X323578Y455953D01*
X323578Y458144D02*
X325542Y458144D01*
X326078Y520498D02*
X328042Y520498D01*
X326078Y520498D02*
X326078Y534962D01*
X328042Y534962D01*
X328042Y520498D01*
X328042Y522689D02*
X326078Y522689D01*
X326078Y524880D02*
X328042Y524880D01*
X328042Y527071D02*
X326078Y527071D01*
X326078Y529262D02*
X328042Y529262D01*
X328042Y531453D02*
X326078Y531453D01*
X326078Y533644D02*
X328042Y533644D01*
X328578Y444998D02*
X330542Y444998D01*
X328578Y444998D02*
X328578Y459462D01*
X330542Y459462D01*
X330542Y444998D01*
X330542Y447189D02*
X328578Y447189D01*
X328578Y449380D02*
X330542Y449380D01*
X330542Y451571D02*
X328578Y451571D01*
X328578Y453762D02*
X330542Y453762D01*
X330542Y455953D02*
X328578Y455953D01*
X328578Y458144D02*
X330542Y458144D01*
X331078Y520498D02*
X333042Y520498D01*
X331078Y520498D02*
X331078Y534962D01*
X333042Y534962D01*
X333042Y520498D01*
X333042Y522689D02*
X331078Y522689D01*
X331078Y524880D02*
X333042Y524880D01*
X333042Y527071D02*
X331078Y527071D01*
X331078Y529262D02*
X333042Y529262D01*
X333042Y531453D02*
X331078Y531453D01*
X331078Y533644D02*
X333042Y533644D01*
X333578Y444998D02*
X335542Y444998D01*
X333578Y444998D02*
X333578Y459462D01*
X335542Y459462D01*
X335542Y444998D01*
X335542Y447189D02*
X333578Y447189D01*
X333578Y449380D02*
X335542Y449380D01*
X335542Y451571D02*
X333578Y451571D01*
X333578Y453762D02*
X335542Y453762D01*
X335542Y455953D02*
X333578Y455953D01*
X333578Y458144D02*
X335542Y458144D01*
X336078Y520498D02*
X338042Y520498D01*
X336078Y520498D02*
X336078Y534962D01*
X338042Y534962D01*
X338042Y520498D01*
X338042Y522689D02*
X336078Y522689D01*
X336078Y524880D02*
X338042Y524880D01*
X338042Y527071D02*
X336078Y527071D01*
X336078Y529262D02*
X338042Y529262D01*
X338042Y531453D02*
X336078Y531453D01*
X336078Y533644D02*
X338042Y533644D01*
X338578Y444998D02*
X340542Y444998D01*
X338578Y444998D02*
X338578Y459462D01*
X340542Y459462D01*
X340542Y444998D01*
X340542Y447189D02*
X338578Y447189D01*
X338578Y449380D02*
X340542Y449380D01*
X340542Y451571D02*
X338578Y451571D01*
X338578Y453762D02*
X340542Y453762D01*
X340542Y455953D02*
X338578Y455953D01*
X338578Y458144D02*
X340542Y458144D01*
X341078Y520498D02*
X343042Y520498D01*
X341078Y520498D02*
X341078Y534962D01*
X343042Y534962D01*
X343042Y520498D01*
X343042Y522689D02*
X341078Y522689D01*
X341078Y524880D02*
X343042Y524880D01*
X343042Y527071D02*
X341078Y527071D01*
X341078Y529262D02*
X343042Y529262D01*
X343042Y531453D02*
X341078Y531453D01*
X341078Y533644D02*
X343042Y533644D01*
X343578Y444998D02*
X345542Y444998D01*
X343578Y444998D02*
X343578Y459462D01*
X345542Y459462D01*
X345542Y444998D01*
X345542Y447189D02*
X343578Y447189D01*
X343578Y449380D02*
X345542Y449380D01*
X345542Y451571D02*
X343578Y451571D01*
X343578Y453762D02*
X345542Y453762D01*
X345542Y455953D02*
X343578Y455953D01*
X343578Y458144D02*
X345542Y458144D01*
X346078Y520498D02*
X348042Y520498D01*
X346078Y520498D02*
X346078Y534962D01*
X348042Y534962D01*
X348042Y520498D01*
X348042Y522689D02*
X346078Y522689D01*
X346078Y524880D02*
X348042Y524880D01*
X348042Y527071D02*
X346078Y527071D01*
X346078Y529262D02*
X348042Y529262D01*
X348042Y531453D02*
X346078Y531453D01*
X346078Y533644D02*
X348042Y533644D01*
X348578Y444998D02*
X350542Y444998D01*
X348578Y444998D02*
X348578Y459462D01*
X350542Y459462D01*
X350542Y444998D01*
X350542Y447189D02*
X348578Y447189D01*
X348578Y449380D02*
X350542Y449380D01*
X350542Y451571D02*
X348578Y451571D01*
X348578Y453762D02*
X350542Y453762D01*
X350542Y455953D02*
X348578Y455953D01*
X348578Y458144D02*
X350542Y458144D01*
X351078Y520498D02*
X353042Y520498D01*
X351078Y520498D02*
X351078Y534962D01*
X353042Y534962D01*
X353042Y520498D01*
X353042Y522689D02*
X351078Y522689D01*
X351078Y524880D02*
X353042Y524880D01*
X353042Y527071D02*
X351078Y527071D01*
X351078Y529262D02*
X353042Y529262D01*
X353042Y531453D02*
X351078Y531453D01*
X351078Y533644D02*
X353042Y533644D01*
X353578Y444998D02*
X355542Y444998D01*
X353578Y444998D02*
X353578Y459462D01*
X355542Y459462D01*
X355542Y444998D01*
X355542Y447189D02*
X353578Y447189D01*
X353578Y449380D02*
X355542Y449380D01*
X355542Y451571D02*
X353578Y451571D01*
X353578Y453762D02*
X355542Y453762D01*
X355542Y455953D02*
X353578Y455953D01*
X353578Y458144D02*
X355542Y458144D01*
X356078Y520498D02*
X358042Y520498D01*
X356078Y520498D02*
X356078Y534962D01*
X358042Y534962D01*
X358042Y520498D01*
X358042Y522689D02*
X356078Y522689D01*
X356078Y524880D02*
X358042Y524880D01*
X358042Y527071D02*
X356078Y527071D01*
X356078Y529262D02*
X358042Y529262D01*
X358042Y531453D02*
X356078Y531453D01*
X356078Y533644D02*
X358042Y533644D01*
X358578Y444998D02*
X360542Y444998D01*
X358578Y444998D02*
X358578Y459462D01*
X360542Y459462D01*
X360542Y444998D01*
X360542Y447189D02*
X358578Y447189D01*
X358578Y449380D02*
X360542Y449380D01*
X360542Y451571D02*
X358578Y451571D01*
X358578Y453762D02*
X360542Y453762D01*
X360542Y455953D02*
X358578Y455953D01*
X358578Y458144D02*
X360542Y458144D01*
X361078Y520498D02*
X363042Y520498D01*
X361078Y520498D02*
X361078Y534962D01*
X363042Y534962D01*
X363042Y520498D01*
X363042Y522689D02*
X361078Y522689D01*
X361078Y524880D02*
X363042Y524880D01*
X363042Y527071D02*
X361078Y527071D01*
X361078Y529262D02*
X363042Y529262D01*
X363042Y531453D02*
X361078Y531453D01*
X361078Y533644D02*
X363042Y533644D01*
X363578Y444998D02*
X365542Y444998D01*
X363578Y444998D02*
X363578Y459462D01*
X365542Y459462D01*
X365542Y444998D01*
X365542Y447189D02*
X363578Y447189D01*
X363578Y449380D02*
X365542Y449380D01*
X365542Y451571D02*
X363578Y451571D01*
X363578Y453762D02*
X365542Y453762D01*
X365542Y455953D02*
X363578Y455953D01*
X363578Y458144D02*
X365542Y458144D01*
X366078Y520498D02*
X368042Y520498D01*
X366078Y520498D02*
X366078Y534962D01*
X368042Y534962D01*
X368042Y520498D01*
X368042Y522689D02*
X366078Y522689D01*
X366078Y524880D02*
X368042Y524880D01*
X368042Y527071D02*
X366078Y527071D01*
X366078Y529262D02*
X368042Y529262D01*
X368042Y531453D02*
X366078Y531453D01*
X366078Y533644D02*
X368042Y533644D01*
X368578Y444998D02*
X370542Y444998D01*
X368578Y444998D02*
X368578Y459462D01*
X370542Y459462D01*
X370542Y444998D01*
X370542Y447189D02*
X368578Y447189D01*
X368578Y449380D02*
X370542Y449380D01*
X370542Y451571D02*
X368578Y451571D01*
X368578Y453762D02*
X370542Y453762D01*
X370542Y455953D02*
X368578Y455953D01*
X368578Y458144D02*
X370542Y458144D01*
X371078Y520498D02*
X373042Y520498D01*
X371078Y520498D02*
X371078Y534962D01*
X373042Y534962D01*
X373042Y520498D01*
X373042Y522689D02*
X371078Y522689D01*
X371078Y524880D02*
X373042Y524880D01*
X373042Y527071D02*
X371078Y527071D01*
X371078Y529262D02*
X373042Y529262D01*
X373042Y531453D02*
X371078Y531453D01*
X371078Y533644D02*
X373042Y533644D01*
X373578Y444998D02*
X375542Y444998D01*
X373578Y444998D02*
X373578Y459462D01*
X375542Y459462D01*
X375542Y444998D01*
X375542Y447189D02*
X373578Y447189D01*
X373578Y449380D02*
X375542Y449380D01*
X375542Y451571D02*
X373578Y451571D01*
X373578Y453762D02*
X375542Y453762D01*
X375542Y455953D02*
X373578Y455953D01*
X373578Y458144D02*
X375542Y458144D01*
X376078Y520498D02*
X378042Y520498D01*
X376078Y520498D02*
X376078Y534962D01*
X378042Y534962D01*
X378042Y520498D01*
X378042Y522689D02*
X376078Y522689D01*
X376078Y524880D02*
X378042Y524880D01*
X378042Y527071D02*
X376078Y527071D01*
X376078Y529262D02*
X378042Y529262D01*
X378042Y531453D02*
X376078Y531453D01*
X376078Y533644D02*
X378042Y533644D01*
X378578Y444998D02*
X380542Y444998D01*
X378578Y444998D02*
X378578Y459462D01*
X380542Y459462D01*
X380542Y444998D01*
X380542Y447189D02*
X378578Y447189D01*
X378578Y449380D02*
X380542Y449380D01*
X380542Y451571D02*
X378578Y451571D01*
X378578Y453762D02*
X380542Y453762D01*
X380542Y455953D02*
X378578Y455953D01*
X378578Y458144D02*
X380542Y458144D01*
X381078Y520498D02*
X383042Y520498D01*
X381078Y520498D02*
X381078Y534962D01*
X383042Y534962D01*
X383042Y520498D01*
X383042Y522689D02*
X381078Y522689D01*
X381078Y524880D02*
X383042Y524880D01*
X383042Y527071D02*
X381078Y527071D01*
X381078Y529262D02*
X383042Y529262D01*
X383042Y531453D02*
X381078Y531453D01*
X381078Y533644D02*
X383042Y533644D01*
D17*
X24762Y622358D03*
X24762Y609658D03*
X24762Y596958D03*
X24762Y584258D03*
X24762Y635058D03*
X37462Y622358D03*
X37462Y609658D03*
X37462Y596958D03*
X37462Y584258D03*
X37462Y635058D03*
X835660Y683260D03*
X26670Y77470D03*
D18*
X62706Y476726D02*
X62706Y483394D01*
X76994Y483394D01*
X76994Y476726D01*
X62706Y476726D01*
X62706Y478838D02*
X76994Y478838D01*
X76994Y480950D02*
X62706Y480950D01*
X62706Y483062D02*
X76994Y483062D01*
X6826Y483394D02*
X6826Y476726D01*
X6826Y483394D02*
X21114Y483394D01*
X21114Y476726D01*
X6826Y476726D01*
X6826Y478838D02*
X21114Y478838D01*
X21114Y480950D02*
X6826Y480950D01*
X6826Y483062D02*
X21114Y483062D01*
X62706Y514826D02*
X62706Y521494D01*
X76994Y521494D01*
X76994Y514826D01*
X62706Y514826D01*
X62706Y516938D02*
X76994Y516938D01*
X76994Y519050D02*
X62706Y519050D01*
X62706Y521162D02*
X76994Y521162D01*
X6826Y521494D02*
X6826Y514826D01*
X6826Y521494D02*
X21114Y521494D01*
X21114Y514826D01*
X6826Y514826D01*
X6826Y516938D02*
X21114Y516938D01*
X21114Y519050D02*
X6826Y519050D01*
X6826Y521162D02*
X21114Y521162D01*
X62706Y416084D02*
X62706Y409416D01*
X62706Y416084D02*
X76994Y416084D01*
X76994Y409416D01*
X62706Y409416D01*
X62706Y411528D02*
X76994Y411528D01*
X76994Y413640D02*
X62706Y413640D01*
X62706Y415752D02*
X76994Y415752D01*
X6826Y416084D02*
X6826Y409416D01*
X6826Y416084D02*
X21114Y416084D01*
X21114Y409416D01*
X6826Y409416D01*
X6826Y411528D02*
X21114Y411528D01*
X21114Y413640D02*
X6826Y413640D01*
X6826Y415752D02*
X21114Y415752D01*
X62706Y447516D02*
X62706Y454184D01*
X76994Y454184D01*
X76994Y447516D01*
X62706Y447516D01*
X62706Y449628D02*
X76994Y449628D01*
X76994Y451740D02*
X62706Y451740D01*
X62706Y453852D02*
X76994Y453852D01*
X6826Y454184D02*
X6826Y447516D01*
X6826Y454184D02*
X21114Y454184D01*
X21114Y447516D01*
X6826Y447516D01*
X6826Y449628D02*
X21114Y449628D01*
X21114Y451740D02*
X6826Y451740D01*
X6826Y453852D02*
X21114Y453852D01*
D19*
X41148Y537464D03*
D20*
X95712Y490284D02*
X105728Y490284D01*
X95712Y490284D02*
X95712Y499300D01*
X105728Y499300D01*
X105728Y490284D01*
X105728Y492425D02*
X95712Y492425D01*
X95712Y494566D02*
X105728Y494566D01*
X105728Y496707D02*
X95712Y496707D01*
X95712Y498848D02*
X105728Y498848D01*
X112712Y490284D02*
X122728Y490284D01*
X112712Y490284D02*
X112712Y499300D01*
X122728Y499300D01*
X122728Y490284D01*
X122728Y492425D02*
X112712Y492425D01*
X112712Y494566D02*
X122728Y494566D01*
X122728Y496707D02*
X112712Y496707D01*
X112712Y498848D02*
X122728Y498848D01*
X122728Y515556D02*
X112712Y515556D01*
X122728Y515556D02*
X122728Y506540D01*
X112712Y506540D01*
X112712Y515556D01*
X112712Y508681D02*
X122728Y508681D01*
X122728Y510822D02*
X112712Y510822D01*
X112712Y512963D02*
X122728Y512963D01*
X122728Y515104D02*
X112712Y515104D01*
X105728Y515556D02*
X95712Y515556D01*
X105728Y515556D02*
X105728Y506540D01*
X95712Y506540D01*
X95712Y515556D01*
X95712Y508681D02*
X105728Y508681D01*
X105728Y510822D02*
X95712Y510822D01*
X95712Y512963D02*
X105728Y512963D01*
X105728Y515104D02*
X95712Y515104D01*
D14*
X522300Y632460D03*
D15*
X722300Y632460D03*
D16*
X530782Y677978D02*
X528818Y677978D01*
X528818Y692442D01*
X530782Y692442D01*
X530782Y677978D01*
X530782Y680169D02*
X528818Y680169D01*
X528818Y682360D02*
X530782Y682360D01*
X530782Y684551D02*
X528818Y684551D01*
X528818Y686742D02*
X530782Y686742D01*
X530782Y688933D02*
X528818Y688933D01*
X528818Y691124D02*
X530782Y691124D01*
D11*
X524307Y664203D02*
X513293Y664203D01*
X513293Y690717D01*
X524307Y690717D01*
X524307Y664203D01*
X524307Y666346D02*
X513293Y666346D01*
X513293Y668489D02*
X524307Y668489D01*
X524307Y670632D02*
X513293Y670632D01*
X513293Y672775D02*
X524307Y672775D01*
X524307Y674918D02*
X513293Y674918D01*
X513293Y677061D02*
X524307Y677061D01*
X524307Y679204D02*
X513293Y679204D01*
X513293Y681347D02*
X524307Y681347D01*
X524307Y683490D02*
X513293Y683490D01*
X513293Y685633D02*
X524307Y685633D01*
X524307Y687776D02*
X513293Y687776D01*
X513293Y689919D02*
X524307Y689919D01*
X720293Y664203D02*
X731307Y664203D01*
X720293Y664203D02*
X720293Y690717D01*
X731307Y690717D01*
X731307Y664203D01*
X731307Y666346D02*
X720293Y666346D01*
X720293Y668489D02*
X731307Y668489D01*
X731307Y670632D02*
X720293Y670632D01*
X720293Y672775D02*
X731307Y672775D01*
X731307Y674918D02*
X720293Y674918D01*
X720293Y677061D02*
X731307Y677061D01*
X731307Y679204D02*
X720293Y679204D01*
X720293Y681347D02*
X731307Y681347D01*
X731307Y683490D02*
X720293Y683490D01*
X720293Y685633D02*
X731307Y685633D01*
X731307Y687776D02*
X720293Y687776D01*
X720293Y689919D02*
X731307Y689919D01*
D16*
X533282Y602478D02*
X531318Y602478D01*
X531318Y616942D01*
X533282Y616942D01*
X533282Y602478D01*
X533282Y604669D02*
X531318Y604669D01*
X531318Y606860D02*
X533282Y606860D01*
X533282Y609051D02*
X531318Y609051D01*
X531318Y611242D02*
X533282Y611242D01*
X533282Y613433D02*
X531318Y613433D01*
X531318Y615624D02*
X533282Y615624D01*
X533818Y677978D02*
X535782Y677978D01*
X533818Y677978D02*
X533818Y692442D01*
X535782Y692442D01*
X535782Y677978D01*
X535782Y680169D02*
X533818Y680169D01*
X533818Y682360D02*
X535782Y682360D01*
X535782Y684551D02*
X533818Y684551D01*
X533818Y686742D02*
X535782Y686742D01*
X535782Y688933D02*
X533818Y688933D01*
X533818Y691124D02*
X535782Y691124D01*
X536318Y602478D02*
X538282Y602478D01*
X536318Y602478D02*
X536318Y616942D01*
X538282Y616942D01*
X538282Y602478D01*
X538282Y604669D02*
X536318Y604669D01*
X536318Y606860D02*
X538282Y606860D01*
X538282Y609051D02*
X536318Y609051D01*
X536318Y611242D02*
X538282Y611242D01*
X538282Y613433D02*
X536318Y613433D01*
X536318Y615624D02*
X538282Y615624D01*
X538818Y677978D02*
X540782Y677978D01*
X538818Y677978D02*
X538818Y692442D01*
X540782Y692442D01*
X540782Y677978D01*
X540782Y680169D02*
X538818Y680169D01*
X538818Y682360D02*
X540782Y682360D01*
X540782Y684551D02*
X538818Y684551D01*
X538818Y686742D02*
X540782Y686742D01*
X540782Y688933D02*
X538818Y688933D01*
X538818Y691124D02*
X540782Y691124D01*
X541318Y602478D02*
X543282Y602478D01*
X541318Y602478D02*
X541318Y616942D01*
X543282Y616942D01*
X543282Y602478D01*
X543282Y604669D02*
X541318Y604669D01*
X541318Y606860D02*
X543282Y606860D01*
X543282Y609051D02*
X541318Y609051D01*
X541318Y611242D02*
X543282Y611242D01*
X543282Y613433D02*
X541318Y613433D01*
X541318Y615624D02*
X543282Y615624D01*
X543818Y677978D02*
X545782Y677978D01*
X543818Y677978D02*
X543818Y692442D01*
X545782Y692442D01*
X545782Y677978D01*
X545782Y680169D02*
X543818Y680169D01*
X543818Y682360D02*
X545782Y682360D01*
X545782Y684551D02*
X543818Y684551D01*
X543818Y686742D02*
X545782Y686742D01*
X545782Y688933D02*
X543818Y688933D01*
X543818Y691124D02*
X545782Y691124D01*
X546318Y602478D02*
X548282Y602478D01*
X546318Y602478D02*
X546318Y616942D01*
X548282Y616942D01*
X548282Y602478D01*
X548282Y604669D02*
X546318Y604669D01*
X546318Y606860D02*
X548282Y606860D01*
X548282Y609051D02*
X546318Y609051D01*
X546318Y611242D02*
X548282Y611242D01*
X548282Y613433D02*
X546318Y613433D01*
X546318Y615624D02*
X548282Y615624D01*
X548818Y677978D02*
X550782Y677978D01*
X548818Y677978D02*
X548818Y692442D01*
X550782Y692442D01*
X550782Y677978D01*
X550782Y680169D02*
X548818Y680169D01*
X548818Y682360D02*
X550782Y682360D01*
X550782Y684551D02*
X548818Y684551D01*
X548818Y686742D02*
X550782Y686742D01*
X550782Y688933D02*
X548818Y688933D01*
X548818Y691124D02*
X550782Y691124D01*
X551318Y602478D02*
X553282Y602478D01*
X551318Y602478D02*
X551318Y616942D01*
X553282Y616942D01*
X553282Y602478D01*
X553282Y604669D02*
X551318Y604669D01*
X551318Y606860D02*
X553282Y606860D01*
X553282Y609051D02*
X551318Y609051D01*
X551318Y611242D02*
X553282Y611242D01*
X553282Y613433D02*
X551318Y613433D01*
X551318Y615624D02*
X553282Y615624D01*
X553818Y677978D02*
X555782Y677978D01*
X553818Y677978D02*
X553818Y692442D01*
X555782Y692442D01*
X555782Y677978D01*
X555782Y680169D02*
X553818Y680169D01*
X553818Y682360D02*
X555782Y682360D01*
X555782Y684551D02*
X553818Y684551D01*
X553818Y686742D02*
X555782Y686742D01*
X555782Y688933D02*
X553818Y688933D01*
X553818Y691124D02*
X555782Y691124D01*
X556318Y602478D02*
X558282Y602478D01*
X556318Y602478D02*
X556318Y616942D01*
X558282Y616942D01*
X558282Y602478D01*
X558282Y604669D02*
X556318Y604669D01*
X556318Y606860D02*
X558282Y606860D01*
X558282Y609051D02*
X556318Y609051D01*
X556318Y611242D02*
X558282Y611242D01*
X558282Y613433D02*
X556318Y613433D01*
X556318Y615624D02*
X558282Y615624D01*
X558818Y677978D02*
X560782Y677978D01*
X558818Y677978D02*
X558818Y692442D01*
X560782Y692442D01*
X560782Y677978D01*
X560782Y680169D02*
X558818Y680169D01*
X558818Y682360D02*
X560782Y682360D01*
X560782Y684551D02*
X558818Y684551D01*
X558818Y686742D02*
X560782Y686742D01*
X560782Y688933D02*
X558818Y688933D01*
X558818Y691124D02*
X560782Y691124D01*
X561318Y602478D02*
X563282Y602478D01*
X561318Y602478D02*
X561318Y616942D01*
X563282Y616942D01*
X563282Y602478D01*
X563282Y604669D02*
X561318Y604669D01*
X561318Y606860D02*
X563282Y606860D01*
X563282Y609051D02*
X561318Y609051D01*
X561318Y611242D02*
X563282Y611242D01*
X563282Y613433D02*
X561318Y613433D01*
X561318Y615624D02*
X563282Y615624D01*
X563818Y677978D02*
X565782Y677978D01*
X563818Y677978D02*
X563818Y692442D01*
X565782Y692442D01*
X565782Y677978D01*
X565782Y680169D02*
X563818Y680169D01*
X563818Y682360D02*
X565782Y682360D01*
X565782Y684551D02*
X563818Y684551D01*
X563818Y686742D02*
X565782Y686742D01*
X565782Y688933D02*
X563818Y688933D01*
X563818Y691124D02*
X565782Y691124D01*
X566318Y602478D02*
X568282Y602478D01*
X566318Y602478D02*
X566318Y616942D01*
X568282Y616942D01*
X568282Y602478D01*
X568282Y604669D02*
X566318Y604669D01*
X566318Y606860D02*
X568282Y606860D01*
X568282Y609051D02*
X566318Y609051D01*
X566318Y611242D02*
X568282Y611242D01*
X568282Y613433D02*
X566318Y613433D01*
X566318Y615624D02*
X568282Y615624D01*
X568818Y677978D02*
X570782Y677978D01*
X568818Y677978D02*
X568818Y692442D01*
X570782Y692442D01*
X570782Y677978D01*
X570782Y680169D02*
X568818Y680169D01*
X568818Y682360D02*
X570782Y682360D01*
X570782Y684551D02*
X568818Y684551D01*
X568818Y686742D02*
X570782Y686742D01*
X570782Y688933D02*
X568818Y688933D01*
X568818Y691124D02*
X570782Y691124D01*
X571318Y602478D02*
X573282Y602478D01*
X571318Y602478D02*
X571318Y616942D01*
X573282Y616942D01*
X573282Y602478D01*
X573282Y604669D02*
X571318Y604669D01*
X571318Y606860D02*
X573282Y606860D01*
X573282Y609051D02*
X571318Y609051D01*
X571318Y611242D02*
X573282Y611242D01*
X573282Y613433D02*
X571318Y613433D01*
X571318Y615624D02*
X573282Y615624D01*
X573818Y677978D02*
X575782Y677978D01*
X573818Y677978D02*
X573818Y692442D01*
X575782Y692442D01*
X575782Y677978D01*
X575782Y680169D02*
X573818Y680169D01*
X573818Y682360D02*
X575782Y682360D01*
X575782Y684551D02*
X573818Y684551D01*
X573818Y686742D02*
X575782Y686742D01*
X575782Y688933D02*
X573818Y688933D01*
X573818Y691124D02*
X575782Y691124D01*
X576318Y602478D02*
X578282Y602478D01*
X576318Y602478D02*
X576318Y616942D01*
X578282Y616942D01*
X578282Y602478D01*
X578282Y604669D02*
X576318Y604669D01*
X576318Y606860D02*
X578282Y606860D01*
X578282Y609051D02*
X576318Y609051D01*
X576318Y611242D02*
X578282Y611242D01*
X578282Y613433D02*
X576318Y613433D01*
X576318Y615624D02*
X578282Y615624D01*
X578818Y677978D02*
X580782Y677978D01*
X578818Y677978D02*
X578818Y692442D01*
X580782Y692442D01*
X580782Y677978D01*
X580782Y680169D02*
X578818Y680169D01*
X578818Y682360D02*
X580782Y682360D01*
X580782Y684551D02*
X578818Y684551D01*
X578818Y686742D02*
X580782Y686742D01*
X580782Y688933D02*
X578818Y688933D01*
X578818Y691124D02*
X580782Y691124D01*
X581318Y602478D02*
X583282Y602478D01*
X581318Y602478D02*
X581318Y616942D01*
X583282Y616942D01*
X583282Y602478D01*
X583282Y604669D02*
X581318Y604669D01*
X581318Y606860D02*
X583282Y606860D01*
X583282Y609051D02*
X581318Y609051D01*
X581318Y611242D02*
X583282Y611242D01*
X583282Y613433D02*
X581318Y613433D01*
X581318Y615624D02*
X583282Y615624D01*
X583818Y677978D02*
X585782Y677978D01*
X583818Y677978D02*
X583818Y692442D01*
X585782Y692442D01*
X585782Y677978D01*
X585782Y680169D02*
X583818Y680169D01*
X583818Y682360D02*
X585782Y682360D01*
X585782Y684551D02*
X583818Y684551D01*
X583818Y686742D02*
X585782Y686742D01*
X585782Y688933D02*
X583818Y688933D01*
X583818Y691124D02*
X585782Y691124D01*
X606318Y602478D02*
X608282Y602478D01*
X606318Y602478D02*
X606318Y616942D01*
X608282Y616942D01*
X608282Y602478D01*
X608282Y604669D02*
X606318Y604669D01*
X606318Y606860D02*
X608282Y606860D01*
X608282Y609051D02*
X606318Y609051D01*
X606318Y611242D02*
X608282Y611242D01*
X608282Y613433D02*
X606318Y613433D01*
X606318Y615624D02*
X608282Y615624D01*
X608818Y677978D02*
X610782Y677978D01*
X608818Y677978D02*
X608818Y692442D01*
X610782Y692442D01*
X610782Y677978D01*
X610782Y680169D02*
X608818Y680169D01*
X608818Y682360D02*
X610782Y682360D01*
X610782Y684551D02*
X608818Y684551D01*
X608818Y686742D02*
X610782Y686742D01*
X610782Y688933D02*
X608818Y688933D01*
X608818Y691124D02*
X610782Y691124D01*
X611318Y602478D02*
X613282Y602478D01*
X611318Y602478D02*
X611318Y616942D01*
X613282Y616942D01*
X613282Y602478D01*
X613282Y604669D02*
X611318Y604669D01*
X611318Y606860D02*
X613282Y606860D01*
X613282Y609051D02*
X611318Y609051D01*
X611318Y611242D02*
X613282Y611242D01*
X613282Y613433D02*
X611318Y613433D01*
X611318Y615624D02*
X613282Y615624D01*
X613818Y677978D02*
X615782Y677978D01*
X613818Y677978D02*
X613818Y692442D01*
X615782Y692442D01*
X615782Y677978D01*
X615782Y680169D02*
X613818Y680169D01*
X613818Y682360D02*
X615782Y682360D01*
X615782Y684551D02*
X613818Y684551D01*
X613818Y686742D02*
X615782Y686742D01*
X615782Y688933D02*
X613818Y688933D01*
X613818Y691124D02*
X615782Y691124D01*
X616318Y602478D02*
X618282Y602478D01*
X616318Y602478D02*
X616318Y616942D01*
X618282Y616942D01*
X618282Y602478D01*
X618282Y604669D02*
X616318Y604669D01*
X616318Y606860D02*
X618282Y606860D01*
X618282Y609051D02*
X616318Y609051D01*
X616318Y611242D02*
X618282Y611242D01*
X618282Y613433D02*
X616318Y613433D01*
X616318Y615624D02*
X618282Y615624D01*
X618818Y677978D02*
X620782Y677978D01*
X618818Y677978D02*
X618818Y692442D01*
X620782Y692442D01*
X620782Y677978D01*
X620782Y680169D02*
X618818Y680169D01*
X618818Y682360D02*
X620782Y682360D01*
X620782Y684551D02*
X618818Y684551D01*
X618818Y686742D02*
X620782Y686742D01*
X620782Y688933D02*
X618818Y688933D01*
X618818Y691124D02*
X620782Y691124D01*
X621318Y602478D02*
X623282Y602478D01*
X621318Y602478D02*
X621318Y616942D01*
X623282Y616942D01*
X623282Y602478D01*
X623282Y604669D02*
X621318Y604669D01*
X621318Y606860D02*
X623282Y606860D01*
X623282Y609051D02*
X621318Y609051D01*
X621318Y611242D02*
X623282Y611242D01*
X623282Y613433D02*
X621318Y613433D01*
X621318Y615624D02*
X623282Y615624D01*
X623818Y677978D02*
X625782Y677978D01*
X623818Y677978D02*
X623818Y692442D01*
X625782Y692442D01*
X625782Y677978D01*
X625782Y680169D02*
X623818Y680169D01*
X623818Y682360D02*
X625782Y682360D01*
X625782Y684551D02*
X623818Y684551D01*
X623818Y686742D02*
X625782Y686742D01*
X625782Y688933D02*
X623818Y688933D01*
X623818Y691124D02*
X625782Y691124D01*
X626318Y602478D02*
X628282Y602478D01*
X626318Y602478D02*
X626318Y616942D01*
X628282Y616942D01*
X628282Y602478D01*
X628282Y604669D02*
X626318Y604669D01*
X626318Y606860D02*
X628282Y606860D01*
X628282Y609051D02*
X626318Y609051D01*
X626318Y611242D02*
X628282Y611242D01*
X628282Y613433D02*
X626318Y613433D01*
X626318Y615624D02*
X628282Y615624D01*
X628818Y677978D02*
X630782Y677978D01*
X628818Y677978D02*
X628818Y692442D01*
X630782Y692442D01*
X630782Y677978D01*
X630782Y680169D02*
X628818Y680169D01*
X628818Y682360D02*
X630782Y682360D01*
X630782Y684551D02*
X628818Y684551D01*
X628818Y686742D02*
X630782Y686742D01*
X630782Y688933D02*
X628818Y688933D01*
X628818Y691124D02*
X630782Y691124D01*
X631318Y602478D02*
X633282Y602478D01*
X631318Y602478D02*
X631318Y616942D01*
X633282Y616942D01*
X633282Y602478D01*
X633282Y604669D02*
X631318Y604669D01*
X631318Y606860D02*
X633282Y606860D01*
X633282Y609051D02*
X631318Y609051D01*
X631318Y611242D02*
X633282Y611242D01*
X633282Y613433D02*
X631318Y613433D01*
X631318Y615624D02*
X633282Y615624D01*
X633818Y677978D02*
X635782Y677978D01*
X633818Y677978D02*
X633818Y692442D01*
X635782Y692442D01*
X635782Y677978D01*
X635782Y680169D02*
X633818Y680169D01*
X633818Y682360D02*
X635782Y682360D01*
X635782Y684551D02*
X633818Y684551D01*
X633818Y686742D02*
X635782Y686742D01*
X635782Y688933D02*
X633818Y688933D01*
X633818Y691124D02*
X635782Y691124D01*
X636318Y602478D02*
X638282Y602478D01*
X636318Y602478D02*
X636318Y616942D01*
X638282Y616942D01*
X638282Y602478D01*
X638282Y604669D02*
X636318Y604669D01*
X636318Y606860D02*
X638282Y606860D01*
X638282Y609051D02*
X636318Y609051D01*
X636318Y611242D02*
X638282Y611242D01*
X638282Y613433D02*
X636318Y613433D01*
X636318Y615624D02*
X638282Y615624D01*
X638818Y677978D02*
X640782Y677978D01*
X638818Y677978D02*
X638818Y692442D01*
X640782Y692442D01*
X640782Y677978D01*
X640782Y680169D02*
X638818Y680169D01*
X638818Y682360D02*
X640782Y682360D01*
X640782Y684551D02*
X638818Y684551D01*
X638818Y686742D02*
X640782Y686742D01*
X640782Y688933D02*
X638818Y688933D01*
X638818Y691124D02*
X640782Y691124D01*
X641318Y602478D02*
X643282Y602478D01*
X641318Y602478D02*
X641318Y616942D01*
X643282Y616942D01*
X643282Y602478D01*
X643282Y604669D02*
X641318Y604669D01*
X641318Y606860D02*
X643282Y606860D01*
X643282Y609051D02*
X641318Y609051D01*
X641318Y611242D02*
X643282Y611242D01*
X643282Y613433D02*
X641318Y613433D01*
X641318Y615624D02*
X643282Y615624D01*
X643818Y677978D02*
X645782Y677978D01*
X643818Y677978D02*
X643818Y692442D01*
X645782Y692442D01*
X645782Y677978D01*
X645782Y680169D02*
X643818Y680169D01*
X643818Y682360D02*
X645782Y682360D01*
X645782Y684551D02*
X643818Y684551D01*
X643818Y686742D02*
X645782Y686742D01*
X645782Y688933D02*
X643818Y688933D01*
X643818Y691124D02*
X645782Y691124D01*
X646318Y602478D02*
X648282Y602478D01*
X646318Y602478D02*
X646318Y616942D01*
X648282Y616942D01*
X648282Y602478D01*
X648282Y604669D02*
X646318Y604669D01*
X646318Y606860D02*
X648282Y606860D01*
X648282Y609051D02*
X646318Y609051D01*
X646318Y611242D02*
X648282Y611242D01*
X648282Y613433D02*
X646318Y613433D01*
X646318Y615624D02*
X648282Y615624D01*
X648818Y677978D02*
X650782Y677978D01*
X648818Y677978D02*
X648818Y692442D01*
X650782Y692442D01*
X650782Y677978D01*
X650782Y680169D02*
X648818Y680169D01*
X648818Y682360D02*
X650782Y682360D01*
X650782Y684551D02*
X648818Y684551D01*
X648818Y686742D02*
X650782Y686742D01*
X650782Y688933D02*
X648818Y688933D01*
X648818Y691124D02*
X650782Y691124D01*
X651318Y602478D02*
X653282Y602478D01*
X651318Y602478D02*
X651318Y616942D01*
X653282Y616942D01*
X653282Y602478D01*
X653282Y604669D02*
X651318Y604669D01*
X651318Y606860D02*
X653282Y606860D01*
X653282Y609051D02*
X651318Y609051D01*
X651318Y611242D02*
X653282Y611242D01*
X653282Y613433D02*
X651318Y613433D01*
X651318Y615624D02*
X653282Y615624D01*
X653818Y677978D02*
X655782Y677978D01*
X653818Y677978D02*
X653818Y692442D01*
X655782Y692442D01*
X655782Y677978D01*
X655782Y680169D02*
X653818Y680169D01*
X653818Y682360D02*
X655782Y682360D01*
X655782Y684551D02*
X653818Y684551D01*
X653818Y686742D02*
X655782Y686742D01*
X655782Y688933D02*
X653818Y688933D01*
X653818Y691124D02*
X655782Y691124D01*
X656318Y602478D02*
X658282Y602478D01*
X656318Y602478D02*
X656318Y616942D01*
X658282Y616942D01*
X658282Y602478D01*
X658282Y604669D02*
X656318Y604669D01*
X656318Y606860D02*
X658282Y606860D01*
X658282Y609051D02*
X656318Y609051D01*
X656318Y611242D02*
X658282Y611242D01*
X658282Y613433D02*
X656318Y613433D01*
X656318Y615624D02*
X658282Y615624D01*
X658818Y677978D02*
X660782Y677978D01*
X658818Y677978D02*
X658818Y692442D01*
X660782Y692442D01*
X660782Y677978D01*
X660782Y680169D02*
X658818Y680169D01*
X658818Y682360D02*
X660782Y682360D01*
X660782Y684551D02*
X658818Y684551D01*
X658818Y686742D02*
X660782Y686742D01*
X660782Y688933D02*
X658818Y688933D01*
X658818Y691124D02*
X660782Y691124D01*
X661318Y602478D02*
X663282Y602478D01*
X661318Y602478D02*
X661318Y616942D01*
X663282Y616942D01*
X663282Y602478D01*
X663282Y604669D02*
X661318Y604669D01*
X661318Y606860D02*
X663282Y606860D01*
X663282Y609051D02*
X661318Y609051D01*
X661318Y611242D02*
X663282Y611242D01*
X663282Y613433D02*
X661318Y613433D01*
X661318Y615624D02*
X663282Y615624D01*
X663818Y677978D02*
X665782Y677978D01*
X663818Y677978D02*
X663818Y692442D01*
X665782Y692442D01*
X665782Y677978D01*
X665782Y680169D02*
X663818Y680169D01*
X663818Y682360D02*
X665782Y682360D01*
X665782Y684551D02*
X663818Y684551D01*
X663818Y686742D02*
X665782Y686742D01*
X665782Y688933D02*
X663818Y688933D01*
X663818Y691124D02*
X665782Y691124D01*
X666318Y602478D02*
X668282Y602478D01*
X666318Y602478D02*
X666318Y616942D01*
X668282Y616942D01*
X668282Y602478D01*
X668282Y604669D02*
X666318Y604669D01*
X666318Y606860D02*
X668282Y606860D01*
X668282Y609051D02*
X666318Y609051D01*
X666318Y611242D02*
X668282Y611242D01*
X668282Y613433D02*
X666318Y613433D01*
X666318Y615624D02*
X668282Y615624D01*
X668818Y677978D02*
X670782Y677978D01*
X668818Y677978D02*
X668818Y692442D01*
X670782Y692442D01*
X670782Y677978D01*
X670782Y680169D02*
X668818Y680169D01*
X668818Y682360D02*
X670782Y682360D01*
X670782Y684551D02*
X668818Y684551D01*
X668818Y686742D02*
X670782Y686742D01*
X670782Y688933D02*
X668818Y688933D01*
X668818Y691124D02*
X670782Y691124D01*
X671318Y602478D02*
X673282Y602478D01*
X671318Y602478D02*
X671318Y616942D01*
X673282Y616942D01*
X673282Y602478D01*
X673282Y604669D02*
X671318Y604669D01*
X671318Y606860D02*
X673282Y606860D01*
X673282Y609051D02*
X671318Y609051D01*
X671318Y611242D02*
X673282Y611242D01*
X673282Y613433D02*
X671318Y613433D01*
X671318Y615624D02*
X673282Y615624D01*
X673818Y677978D02*
X675782Y677978D01*
X673818Y677978D02*
X673818Y692442D01*
X675782Y692442D01*
X675782Y677978D01*
X675782Y680169D02*
X673818Y680169D01*
X673818Y682360D02*
X675782Y682360D01*
X675782Y684551D02*
X673818Y684551D01*
X673818Y686742D02*
X675782Y686742D01*
X675782Y688933D02*
X673818Y688933D01*
X673818Y691124D02*
X675782Y691124D01*
X676318Y602478D02*
X678282Y602478D01*
X676318Y602478D02*
X676318Y616942D01*
X678282Y616942D01*
X678282Y602478D01*
X678282Y604669D02*
X676318Y604669D01*
X676318Y606860D02*
X678282Y606860D01*
X678282Y609051D02*
X676318Y609051D01*
X676318Y611242D02*
X678282Y611242D01*
X678282Y613433D02*
X676318Y613433D01*
X676318Y615624D02*
X678282Y615624D01*
X678818Y677978D02*
X680782Y677978D01*
X678818Y677978D02*
X678818Y692442D01*
X680782Y692442D01*
X680782Y677978D01*
X680782Y680169D02*
X678818Y680169D01*
X678818Y682360D02*
X680782Y682360D01*
X680782Y684551D02*
X678818Y684551D01*
X678818Y686742D02*
X680782Y686742D01*
X680782Y688933D02*
X678818Y688933D01*
X678818Y691124D02*
X680782Y691124D01*
X681318Y602478D02*
X683282Y602478D01*
X681318Y602478D02*
X681318Y616942D01*
X683282Y616942D01*
X683282Y602478D01*
X683282Y604669D02*
X681318Y604669D01*
X681318Y606860D02*
X683282Y606860D01*
X683282Y609051D02*
X681318Y609051D01*
X681318Y611242D02*
X683282Y611242D01*
X683282Y613433D02*
X681318Y613433D01*
X681318Y615624D02*
X683282Y615624D01*
X683818Y677978D02*
X685782Y677978D01*
X683818Y677978D02*
X683818Y692442D01*
X685782Y692442D01*
X685782Y677978D01*
X685782Y680169D02*
X683818Y680169D01*
X683818Y682360D02*
X685782Y682360D01*
X685782Y684551D02*
X683818Y684551D01*
X683818Y686742D02*
X685782Y686742D01*
X685782Y688933D02*
X683818Y688933D01*
X683818Y691124D02*
X685782Y691124D01*
X686318Y602478D02*
X688282Y602478D01*
X686318Y602478D02*
X686318Y616942D01*
X688282Y616942D01*
X688282Y602478D01*
X688282Y604669D02*
X686318Y604669D01*
X686318Y606860D02*
X688282Y606860D01*
X688282Y609051D02*
X686318Y609051D01*
X686318Y611242D02*
X688282Y611242D01*
X688282Y613433D02*
X686318Y613433D01*
X686318Y615624D02*
X688282Y615624D01*
X688818Y677978D02*
X690782Y677978D01*
X688818Y677978D02*
X688818Y692442D01*
X690782Y692442D01*
X690782Y677978D01*
X690782Y680169D02*
X688818Y680169D01*
X688818Y682360D02*
X690782Y682360D01*
X690782Y684551D02*
X688818Y684551D01*
X688818Y686742D02*
X690782Y686742D01*
X690782Y688933D02*
X688818Y688933D01*
X688818Y691124D02*
X690782Y691124D01*
X691318Y602478D02*
X693282Y602478D01*
X691318Y602478D02*
X691318Y616942D01*
X693282Y616942D01*
X693282Y602478D01*
X693282Y604669D02*
X691318Y604669D01*
X691318Y606860D02*
X693282Y606860D01*
X693282Y609051D02*
X691318Y609051D01*
X691318Y611242D02*
X693282Y611242D01*
X693282Y613433D02*
X691318Y613433D01*
X691318Y615624D02*
X693282Y615624D01*
X693818Y677978D02*
X695782Y677978D01*
X693818Y677978D02*
X693818Y692442D01*
X695782Y692442D01*
X695782Y677978D01*
X695782Y680169D02*
X693818Y680169D01*
X693818Y682360D02*
X695782Y682360D01*
X695782Y684551D02*
X693818Y684551D01*
X693818Y686742D02*
X695782Y686742D01*
X695782Y688933D02*
X693818Y688933D01*
X693818Y691124D02*
X695782Y691124D01*
X696318Y602478D02*
X698282Y602478D01*
X696318Y602478D02*
X696318Y616942D01*
X698282Y616942D01*
X698282Y602478D01*
X698282Y604669D02*
X696318Y604669D01*
X696318Y606860D02*
X698282Y606860D01*
X698282Y609051D02*
X696318Y609051D01*
X696318Y611242D02*
X698282Y611242D01*
X698282Y613433D02*
X696318Y613433D01*
X696318Y615624D02*
X698282Y615624D01*
X698818Y677978D02*
X700782Y677978D01*
X698818Y677978D02*
X698818Y692442D01*
X700782Y692442D01*
X700782Y677978D01*
X700782Y680169D02*
X698818Y680169D01*
X698818Y682360D02*
X700782Y682360D01*
X700782Y684551D02*
X698818Y684551D01*
X698818Y686742D02*
X700782Y686742D01*
X700782Y688933D02*
X698818Y688933D01*
X698818Y691124D02*
X700782Y691124D01*
X701318Y602478D02*
X703282Y602478D01*
X701318Y602478D02*
X701318Y616942D01*
X703282Y616942D01*
X703282Y602478D01*
X703282Y604669D02*
X701318Y604669D01*
X701318Y606860D02*
X703282Y606860D01*
X703282Y609051D02*
X701318Y609051D01*
X701318Y611242D02*
X703282Y611242D01*
X703282Y613433D02*
X701318Y613433D01*
X701318Y615624D02*
X703282Y615624D01*
X703818Y677978D02*
X705782Y677978D01*
X703818Y677978D02*
X703818Y692442D01*
X705782Y692442D01*
X705782Y677978D01*
X705782Y680169D02*
X703818Y680169D01*
X703818Y682360D02*
X705782Y682360D01*
X705782Y684551D02*
X703818Y684551D01*
X703818Y686742D02*
X705782Y686742D01*
X705782Y688933D02*
X703818Y688933D01*
X703818Y691124D02*
X705782Y691124D01*
X706318Y602478D02*
X708282Y602478D01*
X706318Y602478D02*
X706318Y616942D01*
X708282Y616942D01*
X708282Y602478D01*
X708282Y604669D02*
X706318Y604669D01*
X706318Y606860D02*
X708282Y606860D01*
X708282Y609051D02*
X706318Y609051D01*
X706318Y611242D02*
X708282Y611242D01*
X708282Y613433D02*
X706318Y613433D01*
X706318Y615624D02*
X708282Y615624D01*
X708818Y677978D02*
X710782Y677978D01*
X708818Y677978D02*
X708818Y692442D01*
X710782Y692442D01*
X710782Y677978D01*
X710782Y680169D02*
X708818Y680169D01*
X708818Y682360D02*
X710782Y682360D01*
X710782Y684551D02*
X708818Y684551D01*
X708818Y686742D02*
X710782Y686742D01*
X710782Y688933D02*
X708818Y688933D01*
X708818Y691124D02*
X710782Y691124D01*
X711318Y602478D02*
X713282Y602478D01*
X711318Y602478D02*
X711318Y616942D01*
X713282Y616942D01*
X713282Y602478D01*
X713282Y604669D02*
X711318Y604669D01*
X711318Y606860D02*
X713282Y606860D01*
X713282Y609051D02*
X711318Y609051D01*
X711318Y611242D02*
X713282Y611242D01*
X713282Y613433D02*
X711318Y613433D01*
X711318Y615624D02*
X713282Y615624D01*
X713818Y677978D02*
X715782Y677978D01*
X713818Y677978D02*
X713818Y692442D01*
X715782Y692442D01*
X715782Y677978D01*
X715782Y680169D02*
X713818Y680169D01*
X713818Y682360D02*
X715782Y682360D01*
X715782Y684551D02*
X713818Y684551D01*
X713818Y686742D02*
X715782Y686742D01*
X715782Y688933D02*
X713818Y688933D01*
X713818Y691124D02*
X715782Y691124D01*
D21*
X257477Y161767D02*
X257477Y146813D01*
X251523Y146813D01*
X251523Y161767D01*
X257477Y161767D01*
X257477Y149013D02*
X251523Y149013D01*
X251523Y151213D02*
X257477Y151213D01*
X257477Y153413D02*
X251523Y153413D01*
X251523Y155613D02*
X257477Y155613D01*
X257477Y157813D02*
X251523Y157813D01*
X251523Y160013D02*
X257477Y160013D01*
X268477Y161767D02*
X268477Y146813D01*
X262523Y146813D01*
X262523Y161767D01*
X268477Y161767D01*
X268477Y149013D02*
X262523Y149013D01*
X262523Y151213D02*
X268477Y151213D01*
X268477Y153413D02*
X262523Y153413D01*
X262523Y155613D02*
X268477Y155613D01*
X268477Y157813D02*
X262523Y157813D01*
X262523Y160013D02*
X268477Y160013D01*
X279477Y161767D02*
X279477Y146813D01*
X273523Y146813D01*
X273523Y161767D01*
X279477Y161767D01*
X279477Y149013D02*
X273523Y149013D01*
X273523Y151213D02*
X279477Y151213D01*
X279477Y153413D02*
X273523Y153413D01*
X273523Y155613D02*
X279477Y155613D01*
X279477Y157813D02*
X273523Y157813D01*
X273523Y160013D02*
X279477Y160013D01*
X246477Y161767D02*
X246477Y146813D01*
X240523Y146813D01*
X240523Y161767D01*
X246477Y161767D01*
X246477Y149013D02*
X240523Y149013D01*
X240523Y151213D02*
X246477Y151213D01*
X246477Y153413D02*
X240523Y153413D01*
X240523Y155613D02*
X246477Y155613D01*
X246477Y157813D02*
X240523Y157813D01*
X240523Y160013D02*
X246477Y160013D01*
X235477Y161767D02*
X235477Y146813D01*
X229523Y146813D01*
X229523Y161767D01*
X235477Y161767D01*
X235477Y149013D02*
X229523Y149013D01*
X229523Y151213D02*
X235477Y151213D01*
X235477Y153413D02*
X229523Y153413D01*
X229523Y155613D02*
X235477Y155613D01*
X235477Y157813D02*
X229523Y157813D01*
X229523Y160013D02*
X235477Y160013D01*
X224477Y161767D02*
X224477Y146813D01*
X218523Y146813D01*
X218523Y161767D01*
X224477Y161767D01*
X224477Y149013D02*
X218523Y149013D01*
X218523Y151213D02*
X224477Y151213D01*
X224477Y153413D02*
X218523Y153413D01*
X218523Y155613D02*
X224477Y155613D01*
X224477Y157813D02*
X218523Y157813D01*
X218523Y160013D02*
X224477Y160013D01*
X213477Y161767D02*
X213477Y146813D01*
X207523Y146813D01*
X207523Y161767D01*
X213477Y161767D01*
X213477Y149013D02*
X207523Y149013D01*
X207523Y151213D02*
X213477Y151213D01*
X213477Y153413D02*
X207523Y153413D01*
X207523Y155613D02*
X213477Y155613D01*
X213477Y157813D02*
X207523Y157813D01*
X207523Y160013D02*
X213477Y160013D01*
X202477Y161767D02*
X202477Y146813D01*
X196523Y146813D01*
X196523Y161767D01*
X202477Y161767D01*
X202477Y149013D02*
X196523Y149013D01*
X196523Y151213D02*
X202477Y151213D01*
X202477Y153413D02*
X196523Y153413D01*
X196523Y155613D02*
X202477Y155613D01*
X202477Y157813D02*
X196523Y157813D01*
X196523Y160013D02*
X202477Y160013D01*
X191477Y161767D02*
X191477Y146813D01*
X185523Y146813D01*
X185523Y161767D01*
X191477Y161767D01*
X191477Y149013D02*
X185523Y149013D01*
X185523Y151213D02*
X191477Y151213D01*
X191477Y153413D02*
X185523Y153413D01*
X185523Y155613D02*
X191477Y155613D01*
X191477Y157813D02*
X185523Y157813D01*
X185523Y160013D02*
X191477Y160013D01*
D17*
X284500Y49290D03*
X204500Y49290D03*
D11*
X325993Y42783D02*
X337007Y42783D01*
X325993Y42783D02*
X325993Y63797D01*
X337007Y63797D01*
X337007Y42783D01*
X337007Y44926D02*
X325993Y44926D01*
X325993Y47069D02*
X337007Y47069D01*
X337007Y49212D02*
X325993Y49212D01*
X325993Y51355D02*
X337007Y51355D01*
X337007Y53498D02*
X325993Y53498D01*
X325993Y55641D02*
X337007Y55641D01*
X337007Y57784D02*
X325993Y57784D01*
X325993Y59927D02*
X337007Y59927D01*
X337007Y62070D02*
X325993Y62070D01*
X182007Y42783D02*
X170993Y42783D01*
X170993Y63797D01*
X182007Y63797D01*
X182007Y42783D01*
X182007Y44926D02*
X170993Y44926D01*
X170993Y47069D02*
X182007Y47069D01*
X182007Y49212D02*
X170993Y49212D01*
X170993Y51355D02*
X182007Y51355D01*
X182007Y53498D02*
X170993Y53498D01*
X170993Y55641D02*
X182007Y55641D01*
X182007Y57784D02*
X170993Y57784D01*
X170993Y59927D02*
X182007Y59927D01*
X182007Y62070D02*
X170993Y62070D01*
D22*
X315010Y142800D02*
X329990Y142800D01*
X315010Y142800D02*
X315010Y155780D01*
X329990Y155780D01*
X329990Y142800D01*
X329990Y144976D02*
X315010Y144976D01*
X315010Y147152D02*
X329990Y147152D01*
X329990Y149328D02*
X315010Y149328D01*
X315010Y151504D02*
X329990Y151504D01*
X329990Y153680D02*
X315010Y153680D01*
D11*
X182007Y140783D02*
X170993Y140783D01*
X170993Y155797D01*
X182007Y155797D01*
X182007Y140783D01*
X182007Y142926D02*
X170993Y142926D01*
X170993Y145069D02*
X182007Y145069D01*
X182007Y147212D02*
X170993Y147212D01*
X170993Y149355D02*
X182007Y149355D01*
X182007Y151498D02*
X170993Y151498D01*
X170993Y153641D02*
X182007Y153641D01*
X182007Y155784D02*
X170993Y155784D01*
D20*
X246824Y169640D02*
X246824Y179656D01*
X246824Y169640D02*
X237808Y169640D01*
X237808Y179656D01*
X246824Y179656D01*
X246824Y171781D02*
X237808Y171781D01*
X237808Y173922D02*
X246824Y173922D01*
X246824Y176063D02*
X237808Y176063D01*
X237808Y178204D02*
X246824Y178204D01*
X246824Y186640D02*
X246824Y196656D01*
X246824Y186640D02*
X237808Y186640D01*
X237808Y196656D01*
X246824Y196656D01*
X246824Y188781D02*
X237808Y188781D01*
X237808Y190922D02*
X246824Y190922D01*
X246824Y193063D02*
X237808Y193063D01*
X237808Y195204D02*
X246824Y195204D01*
D12*
X431800Y209804D03*
D16*
X110082Y56126D02*
X108118Y56126D01*
X108118Y65090D01*
X110082Y65090D01*
X110082Y56126D01*
X110082Y58317D02*
X108118Y58317D01*
X108118Y60508D02*
X110082Y60508D01*
X110082Y62699D02*
X108118Y62699D01*
X108118Y64890D02*
X110082Y64890D01*
X105082Y56126D02*
X103118Y56126D01*
X103118Y65090D01*
X105082Y65090D01*
X105082Y56126D01*
X105082Y58317D02*
X103118Y58317D01*
X103118Y60508D02*
X105082Y60508D01*
X105082Y62699D02*
X103118Y62699D01*
X103118Y64890D02*
X105082Y64890D01*
D10*
X131342Y56100D02*
X136358Y56100D01*
X131342Y56100D02*
X131342Y65116D01*
X136358Y65116D01*
X136358Y56100D01*
X136358Y58241D02*
X131342Y58241D01*
X131342Y60382D02*
X136358Y60382D01*
X136358Y62523D02*
X131342Y62523D01*
X131342Y64664D02*
X136358Y64664D01*
X128608Y56100D02*
X123592Y56100D01*
X123592Y65116D01*
X128608Y65116D01*
X128608Y56100D01*
X128608Y58241D02*
X123592Y58241D01*
X123592Y60382D02*
X128608Y60382D01*
X128608Y62523D02*
X123592Y62523D01*
X123592Y64664D02*
X128608Y64664D01*
D16*
X120082Y56126D02*
X118118Y56126D01*
X118118Y65090D01*
X120082Y65090D01*
X120082Y56126D01*
X120082Y58317D02*
X118118Y58317D01*
X118118Y60508D02*
X120082Y60508D01*
X120082Y62699D02*
X118118Y62699D01*
X118118Y64890D02*
X120082Y64890D01*
X115082Y56126D02*
X113118Y56126D01*
X113118Y65090D01*
X115082Y65090D01*
X115082Y56126D01*
X115082Y58317D02*
X113118Y58317D01*
X113118Y60508D02*
X115082Y60508D01*
X115082Y62699D02*
X113118Y62699D01*
X113118Y64890D02*
X115082Y64890D01*
X95082Y65090D02*
X93118Y65090D01*
X95082Y65090D02*
X95082Y56126D01*
X93118Y56126D01*
X93118Y65090D01*
X93118Y58317D02*
X95082Y58317D01*
X95082Y60508D02*
X93118Y60508D01*
X93118Y62699D02*
X95082Y62699D01*
X95082Y64890D02*
X93118Y64890D01*
X98118Y65090D02*
X100082Y65090D01*
X100082Y56126D01*
X98118Y56126D01*
X98118Y65090D01*
X98118Y58317D02*
X100082Y58317D01*
X100082Y60508D02*
X98118Y60508D01*
X98118Y62699D02*
X100082Y62699D01*
X100082Y64890D02*
X98118Y64890D01*
D10*
X71858Y65116D02*
X66842Y65116D01*
X71858Y65116D02*
X71858Y56100D01*
X66842Y56100D01*
X66842Y65116D01*
X66842Y58241D02*
X71858Y58241D01*
X71858Y60382D02*
X66842Y60382D01*
X66842Y62523D02*
X71858Y62523D01*
X71858Y64664D02*
X66842Y64664D01*
X74592Y65116D02*
X79608Y65116D01*
X79608Y56100D01*
X74592Y56100D01*
X74592Y65116D01*
X74592Y58241D02*
X79608Y58241D01*
X79608Y60382D02*
X74592Y60382D01*
X74592Y62523D02*
X79608Y62523D01*
X79608Y64664D02*
X74592Y64664D01*
D16*
X83118Y65090D02*
X85082Y65090D01*
X85082Y56126D01*
X83118Y56126D01*
X83118Y65090D01*
X83118Y58317D02*
X85082Y58317D01*
X85082Y60508D02*
X83118Y60508D01*
X83118Y62699D02*
X85082Y62699D01*
X85082Y64890D02*
X83118Y64890D01*
X88118Y65090D02*
X90082Y65090D01*
X90082Y56126D01*
X88118Y56126D01*
X88118Y65090D01*
X88118Y58317D02*
X90082Y58317D01*
X90082Y60508D02*
X88118Y60508D01*
X88118Y62699D02*
X90082Y62699D01*
X90082Y64890D02*
X88118Y64890D01*
D23*
X72700Y49558D03*
X130500Y49558D03*
D20*
X46292Y92392D02*
X46292Y102408D01*
X55308Y102408D01*
X55308Y92392D01*
X46292Y92392D01*
X46292Y94533D02*
X55308Y94533D01*
X55308Y96674D02*
X46292Y96674D01*
X46292Y98815D02*
X55308Y98815D01*
X55308Y100956D02*
X46292Y100956D01*
X46292Y85408D02*
X46292Y75392D01*
X46292Y85408D02*
X55308Y85408D01*
X55308Y75392D01*
X46292Y75392D01*
X46292Y77533D02*
X55308Y77533D01*
X55308Y79674D02*
X46292Y79674D01*
X46292Y81815D02*
X55308Y81815D01*
X55308Y83956D02*
X46292Y83956D01*
X137732Y92392D02*
X137732Y102408D01*
X146748Y102408D01*
X146748Y92392D01*
X137732Y92392D01*
X137732Y94533D02*
X146748Y94533D01*
X146748Y96674D02*
X137732Y96674D01*
X137732Y98815D02*
X146748Y98815D01*
X146748Y100956D02*
X137732Y100956D01*
X137732Y85408D02*
X137732Y75392D01*
X137732Y85408D02*
X146748Y85408D01*
X146748Y75392D01*
X137732Y75392D01*
X137732Y77533D02*
X146748Y77533D01*
X146748Y79674D02*
X137732Y79674D01*
X137732Y81815D02*
X146748Y81815D01*
X146748Y83956D02*
X137732Y83956D01*
D16*
X137292Y315948D02*
X139256Y315948D01*
X139256Y310484D01*
X137292Y310484D01*
X137292Y315948D01*
X137292Y312675D02*
X139256Y312675D01*
X139256Y314866D02*
X137292Y314866D01*
X132756Y315948D02*
X130792Y315948D01*
X132756Y315948D02*
X132756Y310484D01*
X130792Y310484D01*
X130792Y315948D01*
X130792Y312675D02*
X132756Y312675D01*
X132756Y314866D02*
X130792Y314866D01*
X126256Y315948D02*
X124292Y315948D01*
X126256Y315948D02*
X126256Y310484D01*
X124292Y310484D01*
X124292Y315948D01*
X124292Y312675D02*
X126256Y312675D01*
X126256Y314866D02*
X124292Y314866D01*
X119756Y315948D02*
X117792Y315948D01*
X119756Y315948D02*
X119756Y310484D01*
X117792Y310484D01*
X117792Y315948D01*
X117792Y312675D02*
X119756Y312675D01*
X119756Y314866D02*
X117792Y314866D01*
X117792Y282984D02*
X119756Y282984D01*
X117792Y282984D02*
X117792Y288448D01*
X119756Y288448D01*
X119756Y282984D01*
X119756Y285175D02*
X117792Y285175D01*
X117792Y287366D02*
X119756Y287366D01*
X124292Y282984D02*
X126256Y282984D01*
X124292Y282984D02*
X124292Y288448D01*
X126256Y288448D01*
X126256Y282984D01*
X126256Y285175D02*
X124292Y285175D01*
X124292Y287366D02*
X126256Y287366D01*
X130792Y282984D02*
X132756Y282984D01*
X130792Y282984D02*
X130792Y288448D01*
X132756Y288448D01*
X132756Y282984D01*
X132756Y285175D02*
X130792Y285175D01*
X130792Y287366D02*
X132756Y287366D01*
X137292Y282984D02*
X139256Y282984D01*
X137292Y282984D02*
X137292Y288448D01*
X139256Y288448D01*
X139256Y282984D01*
X139256Y285175D02*
X137292Y285175D01*
X137292Y287366D02*
X139256Y287366D01*
D24*
X139787Y306979D02*
X117261Y306979D01*
X139787Y306979D02*
X139787Y291953D01*
X117261Y291953D01*
X117261Y306979D01*
X117261Y294086D02*
X139787Y294086D01*
X139787Y296219D02*
X117261Y296219D01*
X117261Y298352D02*
X139787Y298352D01*
X139787Y300485D02*
X117261Y300485D01*
X117261Y302618D02*
X139787Y302618D01*
X139787Y304751D02*
X117261Y304751D01*
X117261Y306884D02*
X139787Y306884D01*
D20*
X140889Y247332D02*
X130873Y247332D01*
X140889Y247332D02*
X140889Y238316D01*
X130873Y238316D01*
X130873Y247332D01*
X130873Y240457D02*
X140889Y240457D01*
X140889Y242598D02*
X130873Y242598D01*
X130873Y244739D02*
X140889Y244739D01*
X140889Y246880D02*
X130873Y246880D01*
X123889Y247332D02*
X113873Y247332D01*
X123889Y247332D02*
X123889Y238316D01*
X113873Y238316D01*
X113873Y247332D01*
X113873Y240457D02*
X123889Y240457D01*
X123889Y242598D02*
X113873Y242598D01*
X113873Y244739D02*
X123889Y244739D01*
X123889Y246880D02*
X113873Y246880D01*
X130873Y230568D02*
X140889Y230568D01*
X140889Y221552D01*
X130873Y221552D01*
X130873Y230568D01*
X130873Y223693D02*
X140889Y223693D01*
X140889Y225834D02*
X130873Y225834D01*
X130873Y227975D02*
X140889Y227975D01*
X140889Y230116D02*
X130873Y230116D01*
X123889Y230568D02*
X113873Y230568D01*
X123889Y230568D02*
X123889Y221552D01*
X113873Y221552D01*
X113873Y230568D01*
X113873Y223693D02*
X123889Y223693D01*
X123889Y225834D02*
X113873Y225834D01*
X113873Y227975D02*
X123889Y227975D01*
X123889Y230116D02*
X113873Y230116D01*
X90978Y117270D02*
X90978Y108254D01*
X63962Y108254D01*
X63962Y117270D01*
X90978Y117270D01*
X90978Y110395D02*
X63962Y110395D01*
X63962Y112536D02*
X90978Y112536D01*
X90978Y114677D02*
X63962Y114677D01*
X63962Y116818D02*
X90978Y116818D01*
X90978Y138254D02*
X90978Y147270D01*
X90978Y138254D02*
X63962Y138254D01*
X63962Y147270D01*
X90978Y147270D01*
X90978Y140395D02*
X63962Y140395D01*
X63962Y142536D02*
X90978Y142536D01*
X90978Y144677D02*
X63962Y144677D01*
X63962Y146818D02*
X90978Y146818D01*
D25*
X122555Y343408D02*
X127889Y343408D01*
X127889Y331724D01*
X122555Y331724D01*
X122555Y343408D01*
X122555Y333896D02*
X127889Y333896D01*
X127889Y336068D02*
X122555Y336068D01*
X122555Y338240D02*
X127889Y338240D01*
X127889Y340412D02*
X122555Y340412D01*
X122555Y342584D02*
X127889Y342584D01*
X117729Y343408D02*
X112395Y343408D01*
X117729Y343408D02*
X117729Y331724D01*
X112395Y331724D01*
X112395Y343408D01*
X112395Y333896D02*
X117729Y333896D01*
X117729Y336068D02*
X112395Y336068D01*
X112395Y338240D02*
X117729Y338240D01*
X117729Y340412D02*
X112395Y340412D01*
X112395Y342584D02*
X117729Y342584D01*
D19*
X132842Y337566D03*
X107442Y337566D03*
D20*
X113873Y257112D02*
X123889Y257112D01*
X113873Y257112D02*
X113873Y266128D01*
X123889Y266128D01*
X123889Y257112D01*
X123889Y259253D02*
X113873Y259253D01*
X113873Y261394D02*
X123889Y261394D01*
X123889Y263535D02*
X113873Y263535D01*
X113873Y265676D02*
X123889Y265676D01*
X130873Y257112D02*
X140889Y257112D01*
X130873Y257112D02*
X130873Y266128D01*
X140889Y266128D01*
X140889Y257112D01*
X140889Y259253D02*
X130873Y259253D01*
X130873Y261394D02*
X140889Y261394D01*
X140889Y263535D02*
X130873Y263535D01*
X130873Y265676D02*
X140889Y265676D01*
D26*
X97630Y283030D02*
X97630Y288330D01*
X97630Y283030D02*
X90330Y283030D01*
X90330Y288330D01*
X97630Y288330D01*
X97630Y285187D02*
X90330Y285187D01*
X90330Y287344D02*
X97630Y287344D01*
X97630Y306030D02*
X97630Y311330D01*
X97630Y306030D02*
X90330Y306030D01*
X90330Y311330D01*
X97630Y311330D01*
X97630Y308187D02*
X90330Y308187D01*
X90330Y310344D02*
X97630Y310344D01*
D20*
X100012Y375348D02*
X110028Y375348D01*
X110028Y366332D01*
X100012Y366332D01*
X100012Y375348D01*
X100012Y368473D02*
X110028Y368473D01*
X110028Y370614D02*
X100012Y370614D01*
X100012Y372755D02*
X110028Y372755D01*
X110028Y374896D02*
X100012Y374896D01*
X93028Y375348D02*
X83012Y375348D01*
X93028Y375348D02*
X93028Y366332D01*
X83012Y366332D01*
X83012Y375348D01*
X83012Y368473D02*
X93028Y368473D01*
X93028Y370614D02*
X83012Y370614D01*
X83012Y372755D02*
X93028Y372755D01*
X93028Y374896D02*
X83012Y374896D01*
X100012Y360108D02*
X110028Y360108D01*
X110028Y351092D01*
X100012Y351092D01*
X100012Y360108D01*
X100012Y353233D02*
X110028Y353233D01*
X110028Y355374D02*
X100012Y355374D01*
X100012Y357515D02*
X110028Y357515D01*
X110028Y359656D02*
X100012Y359656D01*
X93028Y360108D02*
X83012Y360108D01*
X93028Y360108D02*
X93028Y351092D01*
X83012Y351092D01*
X83012Y360108D01*
X83012Y353233D02*
X93028Y353233D01*
X93028Y355374D02*
X83012Y355374D01*
X83012Y357515D02*
X93028Y357515D01*
X93028Y359656D02*
X83012Y359656D01*
X100012Y390588D02*
X110028Y390588D01*
X110028Y381572D01*
X100012Y381572D01*
X100012Y390588D01*
X100012Y383713D02*
X110028Y383713D01*
X110028Y385854D02*
X100012Y385854D01*
X100012Y387995D02*
X110028Y387995D01*
X110028Y390136D02*
X100012Y390136D01*
X93028Y390588D02*
X83012Y390588D01*
X93028Y390588D02*
X93028Y381572D01*
X83012Y381572D01*
X83012Y390588D01*
X83012Y383713D02*
X93028Y383713D01*
X93028Y385854D02*
X83012Y385854D01*
X83012Y387995D02*
X93028Y387995D01*
X93028Y390136D02*
X83012Y390136D01*
X37402Y326436D02*
X37402Y316420D01*
X37402Y326436D02*
X46418Y326436D01*
X46418Y316420D01*
X37402Y316420D01*
X37402Y318561D02*
X46418Y318561D01*
X46418Y320702D02*
X37402Y320702D01*
X37402Y322843D02*
X46418Y322843D01*
X46418Y324984D02*
X37402Y324984D01*
X37402Y309436D02*
X37402Y299420D01*
X37402Y309436D02*
X46418Y309436D01*
X46418Y299420D01*
X37402Y299420D01*
X37402Y301561D02*
X46418Y301561D01*
X46418Y303702D02*
X37402Y303702D01*
X37402Y305843D02*
X46418Y305843D01*
X46418Y307984D02*
X37402Y307984D01*
D27*
X22544Y307144D02*
X15556Y307144D01*
X22544Y307144D02*
X22544Y300156D01*
X15556Y300156D01*
X15556Y307144D01*
X15556Y304225D02*
X22544Y304225D01*
X22544Y324684D02*
X15556Y324684D01*
X22544Y324684D02*
X22544Y317696D01*
X15556Y317696D01*
X15556Y324684D01*
X15556Y321765D02*
X22544Y321765D01*
D28*
X132524Y213756D02*
X139476Y213756D01*
X139476Y202804D01*
X132524Y202804D01*
X132524Y213756D01*
X132524Y205006D02*
X139476Y205006D01*
X139476Y207208D02*
X132524Y207208D01*
X132524Y209410D02*
X139476Y209410D01*
X139476Y211612D02*
X132524Y211612D01*
X121476Y213756D02*
X114524Y213756D01*
X121476Y213756D02*
X121476Y202804D01*
X114524Y202804D01*
X114524Y213756D01*
X114524Y205006D02*
X121476Y205006D01*
X121476Y207208D02*
X114524Y207208D01*
X114524Y209410D02*
X121476Y209410D01*
X121476Y211612D02*
X114524Y211612D01*
D26*
X132748Y194236D02*
X132748Y188936D01*
X132748Y194236D02*
X140048Y194236D01*
X140048Y188936D01*
X132748Y188936D01*
X132748Y191093D02*
X140048Y191093D01*
X140048Y193250D02*
X132748Y193250D01*
X132748Y171236D02*
X132748Y165936D01*
X132748Y171236D02*
X140048Y171236D01*
X140048Y165936D01*
X132748Y165936D01*
X132748Y168093D02*
X140048Y168093D01*
X140048Y170250D02*
X132748Y170250D01*
D20*
X38672Y277812D02*
X38672Y287828D01*
X47688Y287828D01*
X47688Y277812D01*
X38672Y277812D01*
X38672Y279953D02*
X47688Y279953D01*
X47688Y282094D02*
X38672Y282094D01*
X38672Y284235D02*
X47688Y284235D01*
X47688Y286376D02*
X38672Y286376D01*
X38672Y270828D02*
X38672Y260812D01*
X38672Y270828D02*
X47688Y270828D01*
X47688Y260812D01*
X38672Y260812D01*
X38672Y262953D02*
X47688Y262953D01*
X47688Y265094D02*
X38672Y265094D01*
X38672Y267235D02*
X47688Y267235D01*
X47688Y269376D02*
X38672Y269376D01*
D27*
X22544Y269044D02*
X15556Y269044D01*
X22544Y269044D02*
X22544Y262056D01*
X15556Y262056D01*
X15556Y269044D01*
X15556Y266125D02*
X22544Y266125D01*
X22544Y286584D02*
X15556Y286584D01*
X22544Y286584D02*
X22544Y279596D01*
X15556Y279596D01*
X15556Y286584D01*
X15556Y283665D02*
X22544Y283665D01*
D20*
X158678Y694848D02*
X158678Y703864D01*
X203694Y703864D01*
X203694Y694848D01*
X158678Y694848D01*
X158678Y696989D02*
X203694Y696989D01*
X203694Y699130D02*
X158678Y699130D01*
X158678Y701271D02*
X203694Y701271D01*
X203694Y703412D02*
X158678Y703412D01*
X158678Y683864D02*
X158678Y674848D01*
X158678Y683864D02*
X203694Y683864D01*
X203694Y674848D01*
X158678Y674848D01*
X158678Y676989D02*
X203694Y676989D01*
X203694Y679130D02*
X158678Y679130D01*
X158678Y681271D02*
X203694Y681271D01*
X203694Y683412D02*
X158678Y683412D01*
D24*
X216673Y715843D02*
X249699Y715843D01*
X216673Y715843D02*
X216673Y730869D01*
X249699Y730869D01*
X249699Y715843D01*
X249699Y717976D02*
X216673Y717976D01*
X216673Y720109D02*
X249699Y720109D01*
X249699Y722242D02*
X216673Y722242D01*
X216673Y724375D02*
X249699Y724375D01*
X249699Y726508D02*
X216673Y726508D01*
X216673Y728641D02*
X249699Y728641D01*
X249699Y730774D02*
X216673Y730774D01*
X216673Y647843D02*
X249699Y647843D01*
X216673Y647843D02*
X216673Y662869D01*
X249699Y662869D01*
X249699Y647843D01*
X249699Y649976D02*
X216673Y649976D01*
X216673Y652109D02*
X249699Y652109D01*
X249699Y654242D02*
X216673Y654242D01*
X216673Y656375D02*
X249699Y656375D01*
X249699Y658508D02*
X216673Y658508D01*
X216673Y660641D02*
X249699Y660641D01*
X249699Y662774D02*
X216673Y662774D01*
D29*
X128247Y578492D02*
X128247Y573956D01*
X117211Y573956D01*
X117211Y578492D01*
X128247Y578492D01*
X128247Y576078D02*
X117211Y576078D01*
X117211Y578200D02*
X128247Y578200D01*
X128247Y583456D02*
X128247Y587992D01*
X128247Y583456D02*
X117211Y583456D01*
X117211Y587992D01*
X128247Y587992D01*
X128247Y585578D02*
X117211Y585578D01*
X117211Y587700D02*
X128247Y587700D01*
X128247Y592956D02*
X128247Y597492D01*
X128247Y592956D02*
X117211Y592956D01*
X117211Y597492D01*
X128247Y597492D01*
X128247Y595078D02*
X117211Y595078D01*
X117211Y597200D02*
X128247Y597200D01*
X102245Y597492D02*
X102245Y592956D01*
X91209Y592956D01*
X91209Y597492D01*
X102245Y597492D01*
X102245Y595078D02*
X91209Y595078D01*
X91209Y597200D02*
X102245Y597200D01*
X102245Y578492D02*
X102245Y573956D01*
X91209Y573956D01*
X91209Y578492D01*
X102245Y578492D01*
X102245Y576078D02*
X91209Y576078D01*
X91209Y578200D02*
X102245Y578200D01*
D20*
X37402Y362758D02*
X37402Y352742D01*
X37402Y362758D02*
X46418Y362758D01*
X46418Y352742D01*
X37402Y352742D01*
X37402Y354883D02*
X46418Y354883D01*
X46418Y357024D02*
X37402Y357024D01*
X37402Y359165D02*
X46418Y359165D01*
X46418Y361306D02*
X37402Y361306D01*
X37402Y345758D02*
X37402Y335742D01*
X37402Y345758D02*
X46418Y345758D01*
X46418Y335742D01*
X37402Y335742D01*
X37402Y337883D02*
X46418Y337883D01*
X46418Y340024D02*
X37402Y340024D01*
X37402Y342165D02*
X46418Y342165D01*
X46418Y344306D02*
X37402Y344306D01*
D27*
X22544Y345244D02*
X15556Y345244D01*
X22544Y345244D02*
X22544Y338256D01*
X15556Y338256D01*
X15556Y345244D01*
X15556Y342325D02*
X22544Y342325D01*
X22544Y362784D02*
X15556Y362784D01*
X22544Y362784D02*
X22544Y355796D01*
X15556Y355796D01*
X15556Y362784D01*
X15556Y359865D02*
X22544Y359865D01*
D20*
X69914Y589216D02*
X69914Y599232D01*
X78930Y599232D01*
X78930Y589216D01*
X69914Y589216D01*
X69914Y591357D02*
X78930Y591357D01*
X78930Y593498D02*
X69914Y593498D01*
X69914Y595639D02*
X78930Y595639D01*
X78930Y597780D02*
X69914Y597780D01*
X69914Y582232D02*
X69914Y572216D01*
X69914Y582232D02*
X78930Y582232D01*
X78930Y572216D01*
X69914Y572216D01*
X69914Y574357D02*
X78930Y574357D01*
X78930Y576498D02*
X69914Y576498D01*
X69914Y578639D02*
X78930Y578639D01*
X78930Y580780D02*
X69914Y580780D01*
X117302Y605092D02*
X127318Y605092D01*
X117302Y605092D02*
X117302Y614108D01*
X127318Y614108D01*
X127318Y605092D01*
X127318Y607233D02*
X117302Y607233D01*
X117302Y609374D02*
X127318Y609374D01*
X127318Y611515D02*
X117302Y611515D01*
X117302Y613656D02*
X127318Y613656D01*
X134302Y605092D02*
X144318Y605092D01*
X134302Y605092D02*
X134302Y614108D01*
X144318Y614108D01*
X144318Y605092D01*
X144318Y607233D02*
X134302Y607233D01*
X134302Y609374D02*
X144318Y609374D01*
X144318Y611515D02*
X134302Y611515D01*
X134302Y613656D02*
X144318Y613656D01*
D13*
X25400Y228600D03*
D18*
X95726Y716926D02*
X95726Y728674D01*
X102394Y728674D01*
X102394Y716926D01*
X95726Y716926D01*
X95726Y719038D02*
X102394Y719038D01*
X102394Y721150D02*
X95726Y721150D01*
X95726Y723262D02*
X102394Y723262D01*
X102394Y725374D02*
X95726Y725374D01*
X95726Y727486D02*
X102394Y727486D01*
X108426Y728674D02*
X108426Y716926D01*
X108426Y728674D02*
X115094Y728674D01*
X115094Y716926D01*
X108426Y716926D01*
X108426Y719038D02*
X115094Y719038D01*
X115094Y721150D02*
X108426Y721150D01*
X108426Y723262D02*
X115094Y723262D01*
X115094Y725374D02*
X108426Y725374D01*
X108426Y727486D02*
X115094Y727486D01*
X108426Y654674D02*
X108426Y642926D01*
X108426Y654674D02*
X115094Y654674D01*
X115094Y642926D01*
X108426Y642926D01*
X108426Y645038D02*
X115094Y645038D01*
X115094Y647150D02*
X108426Y647150D01*
X108426Y649262D02*
X115094Y649262D01*
X115094Y651374D02*
X108426Y651374D01*
X108426Y653486D02*
X115094Y653486D01*
X95726Y654674D02*
X95726Y642926D01*
X95726Y654674D02*
X102394Y654674D01*
X102394Y642926D01*
X95726Y642926D01*
X95726Y645038D02*
X102394Y645038D01*
X102394Y647150D02*
X95726Y647150D01*
X95726Y649262D02*
X102394Y649262D01*
X102394Y651374D02*
X95726Y651374D01*
X95726Y653486D02*
X102394Y653486D01*
D20*
X143192Y727138D02*
X153208Y727138D01*
X153208Y718122D01*
X143192Y718122D01*
X143192Y727138D01*
X143192Y720263D02*
X153208Y720263D01*
X153208Y722404D02*
X143192Y722404D01*
X143192Y724545D02*
X153208Y724545D01*
X153208Y726686D02*
X143192Y726686D01*
X136208Y727138D02*
X126192Y727138D01*
X136208Y727138D02*
X136208Y718122D01*
X126192Y718122D01*
X126192Y727138D01*
X126192Y720263D02*
X136208Y720263D01*
X136208Y722404D02*
X126192Y722404D01*
X126192Y724545D02*
X136208Y724545D01*
X136208Y726686D02*
X126192Y726686D01*
X67628Y718122D02*
X57612Y718122D01*
X57612Y727138D01*
X67628Y727138D01*
X67628Y718122D01*
X67628Y720263D02*
X57612Y720263D01*
X57612Y722404D02*
X67628Y722404D01*
X67628Y724545D02*
X57612Y724545D01*
X57612Y726686D02*
X67628Y726686D01*
X74612Y718122D02*
X84628Y718122D01*
X74612Y718122D02*
X74612Y727138D01*
X84628Y727138D01*
X84628Y718122D01*
X84628Y720263D02*
X74612Y720263D01*
X74612Y722404D02*
X84628Y722404D01*
X84628Y724545D02*
X74612Y724545D01*
X74612Y726686D02*
X84628Y726686D01*
D28*
X120656Y175586D02*
X120656Y168634D01*
X112704Y168634D01*
X112704Y175586D01*
X120656Y175586D01*
X120656Y170836D02*
X112704Y170836D01*
X112704Y173038D02*
X120656Y173038D01*
X120656Y175240D02*
X112704Y175240D01*
X120656Y187634D02*
X120656Y194586D01*
X120656Y187634D02*
X112704Y187634D01*
X112704Y194586D01*
X120656Y194586D01*
X120656Y189836D02*
X112704Y189836D01*
X112704Y192038D02*
X120656Y192038D01*
X120656Y194240D02*
X112704Y194240D01*
X99656Y185086D02*
X99656Y178134D01*
X91704Y178134D01*
X91704Y185086D01*
X99656Y185086D01*
X99656Y180336D02*
X91704Y180336D01*
X91704Y182538D02*
X99656Y182538D01*
X99656Y184740D02*
X91704Y184740D01*
D20*
X75502Y185102D02*
X75502Y195118D01*
X84518Y195118D01*
X84518Y185102D01*
X75502Y185102D01*
X75502Y187243D02*
X84518Y187243D01*
X84518Y189384D02*
X75502Y189384D01*
X75502Y191525D02*
X84518Y191525D01*
X84518Y193666D02*
X75502Y193666D01*
X75502Y178118D02*
X75502Y168102D01*
X75502Y178118D02*
X84518Y178118D01*
X84518Y168102D01*
X75502Y168102D01*
X75502Y170243D02*
X84518Y170243D01*
X84518Y172384D02*
X75502Y172384D01*
X75502Y174525D02*
X84518Y174525D01*
X84518Y176666D02*
X75502Y176666D01*
D10*
X1232392Y114792D02*
X1237408Y114792D01*
X1232392Y114792D02*
X1232392Y129308D01*
X1237408Y129308D01*
X1237408Y114792D01*
X1237408Y116933D02*
X1232392Y116933D01*
X1232392Y119074D02*
X1237408Y119074D01*
X1237408Y121215D02*
X1232392Y121215D01*
X1232392Y123356D02*
X1237408Y123356D01*
X1237408Y125497D02*
X1232392Y125497D01*
X1232392Y127638D02*
X1237408Y127638D01*
X1242392Y114792D02*
X1247408Y114792D01*
X1242392Y114792D02*
X1242392Y129308D01*
X1247408Y129308D01*
X1247408Y114792D01*
X1247408Y116933D02*
X1242392Y116933D01*
X1242392Y119074D02*
X1247408Y119074D01*
X1247408Y121215D02*
X1242392Y121215D01*
X1242392Y123356D02*
X1247408Y123356D01*
X1247408Y125497D02*
X1242392Y125497D01*
X1242392Y127638D02*
X1247408Y127638D01*
X1252392Y114792D02*
X1257408Y114792D01*
X1252392Y114792D02*
X1252392Y129308D01*
X1257408Y129308D01*
X1257408Y114792D01*
X1257408Y116933D02*
X1252392Y116933D01*
X1252392Y119074D02*
X1257408Y119074D01*
X1257408Y121215D02*
X1252392Y121215D01*
X1252392Y123356D02*
X1257408Y123356D01*
X1257408Y125497D02*
X1252392Y125497D01*
X1252392Y127638D02*
X1257408Y127638D01*
X1262392Y114792D02*
X1267408Y114792D01*
X1262392Y114792D02*
X1262392Y129308D01*
X1267408Y129308D01*
X1267408Y114792D01*
X1267408Y116933D02*
X1262392Y116933D01*
X1262392Y119074D02*
X1267408Y119074D01*
X1267408Y121215D02*
X1262392Y121215D01*
X1262392Y123356D02*
X1267408Y123356D01*
X1267408Y125497D02*
X1262392Y125497D01*
X1262392Y127638D02*
X1267408Y127638D01*
D11*
X1227407Y136793D02*
X1216393Y136793D01*
X1216393Y155807D01*
X1227407Y155807D01*
X1227407Y136793D01*
X1227407Y138936D02*
X1216393Y138936D01*
X1216393Y141079D02*
X1227407Y141079D01*
X1227407Y143222D02*
X1216393Y143222D01*
X1216393Y145365D02*
X1227407Y145365D01*
X1227407Y147508D02*
X1216393Y147508D01*
X1216393Y149651D02*
X1227407Y149651D01*
X1227407Y151794D02*
X1216393Y151794D01*
X1216393Y153937D02*
X1227407Y153937D01*
X1272393Y136793D02*
X1283407Y136793D01*
X1272393Y136793D02*
X1272393Y155807D01*
X1283407Y155807D01*
X1283407Y136793D01*
X1283407Y138936D02*
X1272393Y138936D01*
X1272393Y141079D02*
X1283407Y141079D01*
X1283407Y143222D02*
X1272393Y143222D01*
X1272393Y145365D02*
X1283407Y145365D01*
X1283407Y147508D02*
X1272393Y147508D01*
X1272393Y149651D02*
X1283407Y149651D01*
X1283407Y151794D02*
X1272393Y151794D01*
X1272393Y153937D02*
X1283407Y153937D01*
X1227187Y4543D02*
X1216173Y4543D01*
X1216173Y23557D01*
X1227187Y23557D01*
X1227187Y4543D01*
X1227187Y6686D02*
X1216173Y6686D01*
X1216173Y8829D02*
X1227187Y8829D01*
X1227187Y10972D02*
X1216173Y10972D01*
X1216173Y13115D02*
X1227187Y13115D01*
X1227187Y15258D02*
X1216173Y15258D01*
X1216173Y17401D02*
X1227187Y17401D01*
X1227187Y19544D02*
X1216173Y19544D01*
X1216173Y21687D02*
X1227187Y21687D01*
X1272173Y4543D02*
X1283187Y4543D01*
X1272173Y4543D02*
X1272173Y23557D01*
X1283187Y23557D01*
X1283187Y4543D01*
X1283187Y6686D02*
X1272173Y6686D01*
X1272173Y8829D02*
X1283187Y8829D01*
X1283187Y10972D02*
X1272173Y10972D01*
X1272173Y13115D02*
X1283187Y13115D01*
X1283187Y15258D02*
X1272173Y15258D01*
X1272173Y17401D02*
X1283187Y17401D01*
X1283187Y19544D02*
X1272173Y19544D01*
X1272173Y21687D02*
X1283187Y21687D01*
D10*
X1237188Y44542D02*
X1232172Y44542D01*
X1232172Y57058D01*
X1237188Y57058D01*
X1237188Y44542D01*
X1237188Y46683D02*
X1232172Y46683D01*
X1232172Y48824D02*
X1237188Y48824D01*
X1237188Y50965D02*
X1232172Y50965D01*
X1232172Y53106D02*
X1237188Y53106D01*
X1237188Y55247D02*
X1232172Y55247D01*
X1242172Y44542D02*
X1247188Y44542D01*
X1242172Y44542D02*
X1242172Y57058D01*
X1247188Y57058D01*
X1247188Y44542D01*
X1247188Y46683D02*
X1242172Y46683D01*
X1242172Y48824D02*
X1247188Y48824D01*
X1247188Y50965D02*
X1242172Y50965D01*
X1242172Y53106D02*
X1247188Y53106D01*
X1247188Y55247D02*
X1242172Y55247D01*
X1252172Y44542D02*
X1257188Y44542D01*
X1252172Y44542D02*
X1252172Y57058D01*
X1257188Y57058D01*
X1257188Y44542D01*
X1257188Y46683D02*
X1252172Y46683D01*
X1252172Y48824D02*
X1257188Y48824D01*
X1257188Y50965D02*
X1252172Y50965D01*
X1252172Y53106D02*
X1257188Y53106D01*
X1257188Y55247D02*
X1252172Y55247D01*
X1262172Y44542D02*
X1267188Y44542D01*
X1262172Y44542D02*
X1262172Y57058D01*
X1267188Y57058D01*
X1267188Y44542D01*
X1267188Y46683D02*
X1262172Y46683D01*
X1262172Y48824D02*
X1267188Y48824D01*
X1267188Y50965D02*
X1262172Y50965D01*
X1262172Y53106D02*
X1267188Y53106D01*
X1267188Y55247D02*
X1262172Y55247D01*
D12*
X1681480Y210058D03*
X1118362Y272542D03*
D13*
X894080Y711200D03*
X1706880Y711200D03*
X1706880Y25400D03*
X894080Y25400D03*
D14*
X1058240Y474980D03*
D15*
X1258240Y474980D03*
D16*
X1066722Y520498D02*
X1064758Y520498D01*
X1064758Y534962D01*
X1066722Y534962D01*
X1066722Y520498D01*
X1066722Y522689D02*
X1064758Y522689D01*
X1064758Y524880D02*
X1066722Y524880D01*
X1066722Y527071D02*
X1064758Y527071D01*
X1064758Y529262D02*
X1066722Y529262D01*
X1066722Y531453D02*
X1064758Y531453D01*
X1064758Y533644D02*
X1066722Y533644D01*
D11*
X1060247Y506723D02*
X1049233Y506723D01*
X1049233Y533237D01*
X1060247Y533237D01*
X1060247Y506723D01*
X1060247Y508866D02*
X1049233Y508866D01*
X1049233Y511009D02*
X1060247Y511009D01*
X1060247Y513152D02*
X1049233Y513152D01*
X1049233Y515295D02*
X1060247Y515295D01*
X1060247Y517438D02*
X1049233Y517438D01*
X1049233Y519581D02*
X1060247Y519581D01*
X1060247Y521724D02*
X1049233Y521724D01*
X1049233Y523867D02*
X1060247Y523867D01*
X1060247Y526010D02*
X1049233Y526010D01*
X1049233Y528153D02*
X1060247Y528153D01*
X1060247Y530296D02*
X1049233Y530296D01*
X1049233Y532439D02*
X1060247Y532439D01*
X1256233Y506723D02*
X1267247Y506723D01*
X1256233Y506723D02*
X1256233Y533237D01*
X1267247Y533237D01*
X1267247Y506723D01*
X1267247Y508866D02*
X1256233Y508866D01*
X1256233Y511009D02*
X1267247Y511009D01*
X1267247Y513152D02*
X1256233Y513152D01*
X1256233Y515295D02*
X1267247Y515295D01*
X1267247Y517438D02*
X1256233Y517438D01*
X1256233Y519581D02*
X1267247Y519581D01*
X1267247Y521724D02*
X1256233Y521724D01*
X1256233Y523867D02*
X1267247Y523867D01*
X1267247Y526010D02*
X1256233Y526010D01*
X1256233Y528153D02*
X1267247Y528153D01*
X1267247Y530296D02*
X1256233Y530296D01*
X1256233Y532439D02*
X1267247Y532439D01*
D16*
X1069222Y444998D02*
X1067258Y444998D01*
X1067258Y459462D01*
X1069222Y459462D01*
X1069222Y444998D01*
X1069222Y447189D02*
X1067258Y447189D01*
X1067258Y449380D02*
X1069222Y449380D01*
X1069222Y451571D02*
X1067258Y451571D01*
X1067258Y453762D02*
X1069222Y453762D01*
X1069222Y455953D02*
X1067258Y455953D01*
X1067258Y458144D02*
X1069222Y458144D01*
X1069758Y520498D02*
X1071722Y520498D01*
X1069758Y520498D02*
X1069758Y534962D01*
X1071722Y534962D01*
X1071722Y520498D01*
X1071722Y522689D02*
X1069758Y522689D01*
X1069758Y524880D02*
X1071722Y524880D01*
X1071722Y527071D02*
X1069758Y527071D01*
X1069758Y529262D02*
X1071722Y529262D01*
X1071722Y531453D02*
X1069758Y531453D01*
X1069758Y533644D02*
X1071722Y533644D01*
X1072258Y444998D02*
X1074222Y444998D01*
X1072258Y444998D02*
X1072258Y459462D01*
X1074222Y459462D01*
X1074222Y444998D01*
X1074222Y447189D02*
X1072258Y447189D01*
X1072258Y449380D02*
X1074222Y449380D01*
X1074222Y451571D02*
X1072258Y451571D01*
X1072258Y453762D02*
X1074222Y453762D01*
X1074222Y455953D02*
X1072258Y455953D01*
X1072258Y458144D02*
X1074222Y458144D01*
X1074758Y520498D02*
X1076722Y520498D01*
X1074758Y520498D02*
X1074758Y534962D01*
X1076722Y534962D01*
X1076722Y520498D01*
X1076722Y522689D02*
X1074758Y522689D01*
X1074758Y524880D02*
X1076722Y524880D01*
X1076722Y527071D02*
X1074758Y527071D01*
X1074758Y529262D02*
X1076722Y529262D01*
X1076722Y531453D02*
X1074758Y531453D01*
X1074758Y533644D02*
X1076722Y533644D01*
X1077258Y444998D02*
X1079222Y444998D01*
X1077258Y444998D02*
X1077258Y459462D01*
X1079222Y459462D01*
X1079222Y444998D01*
X1079222Y447189D02*
X1077258Y447189D01*
X1077258Y449380D02*
X1079222Y449380D01*
X1079222Y451571D02*
X1077258Y451571D01*
X1077258Y453762D02*
X1079222Y453762D01*
X1079222Y455953D02*
X1077258Y455953D01*
X1077258Y458144D02*
X1079222Y458144D01*
X1079758Y520498D02*
X1081722Y520498D01*
X1079758Y520498D02*
X1079758Y534962D01*
X1081722Y534962D01*
X1081722Y520498D01*
X1081722Y522689D02*
X1079758Y522689D01*
X1079758Y524880D02*
X1081722Y524880D01*
X1081722Y527071D02*
X1079758Y527071D01*
X1079758Y529262D02*
X1081722Y529262D01*
X1081722Y531453D02*
X1079758Y531453D01*
X1079758Y533644D02*
X1081722Y533644D01*
X1082258Y444998D02*
X1084222Y444998D01*
X1082258Y444998D02*
X1082258Y459462D01*
X1084222Y459462D01*
X1084222Y444998D01*
X1084222Y447189D02*
X1082258Y447189D01*
X1082258Y449380D02*
X1084222Y449380D01*
X1084222Y451571D02*
X1082258Y451571D01*
X1082258Y453762D02*
X1084222Y453762D01*
X1084222Y455953D02*
X1082258Y455953D01*
X1082258Y458144D02*
X1084222Y458144D01*
X1084758Y520498D02*
X1086722Y520498D01*
X1084758Y520498D02*
X1084758Y534962D01*
X1086722Y534962D01*
X1086722Y520498D01*
X1086722Y522689D02*
X1084758Y522689D01*
X1084758Y524880D02*
X1086722Y524880D01*
X1086722Y527071D02*
X1084758Y527071D01*
X1084758Y529262D02*
X1086722Y529262D01*
X1086722Y531453D02*
X1084758Y531453D01*
X1084758Y533644D02*
X1086722Y533644D01*
X1087258Y444998D02*
X1089222Y444998D01*
X1087258Y444998D02*
X1087258Y459462D01*
X1089222Y459462D01*
X1089222Y444998D01*
X1089222Y447189D02*
X1087258Y447189D01*
X1087258Y449380D02*
X1089222Y449380D01*
X1089222Y451571D02*
X1087258Y451571D01*
X1087258Y453762D02*
X1089222Y453762D01*
X1089222Y455953D02*
X1087258Y455953D01*
X1087258Y458144D02*
X1089222Y458144D01*
X1089758Y520498D02*
X1091722Y520498D01*
X1089758Y520498D02*
X1089758Y534962D01*
X1091722Y534962D01*
X1091722Y520498D01*
X1091722Y522689D02*
X1089758Y522689D01*
X1089758Y524880D02*
X1091722Y524880D01*
X1091722Y527071D02*
X1089758Y527071D01*
X1089758Y529262D02*
X1091722Y529262D01*
X1091722Y531453D02*
X1089758Y531453D01*
X1089758Y533644D02*
X1091722Y533644D01*
X1092258Y444998D02*
X1094222Y444998D01*
X1092258Y444998D02*
X1092258Y459462D01*
X1094222Y459462D01*
X1094222Y444998D01*
X1094222Y447189D02*
X1092258Y447189D01*
X1092258Y449380D02*
X1094222Y449380D01*
X1094222Y451571D02*
X1092258Y451571D01*
X1092258Y453762D02*
X1094222Y453762D01*
X1094222Y455953D02*
X1092258Y455953D01*
X1092258Y458144D02*
X1094222Y458144D01*
X1094758Y520498D02*
X1096722Y520498D01*
X1094758Y520498D02*
X1094758Y534962D01*
X1096722Y534962D01*
X1096722Y520498D01*
X1096722Y522689D02*
X1094758Y522689D01*
X1094758Y524880D02*
X1096722Y524880D01*
X1096722Y527071D02*
X1094758Y527071D01*
X1094758Y529262D02*
X1096722Y529262D01*
X1096722Y531453D02*
X1094758Y531453D01*
X1094758Y533644D02*
X1096722Y533644D01*
X1097258Y444998D02*
X1099222Y444998D01*
X1097258Y444998D02*
X1097258Y459462D01*
X1099222Y459462D01*
X1099222Y444998D01*
X1099222Y447189D02*
X1097258Y447189D01*
X1097258Y449380D02*
X1099222Y449380D01*
X1099222Y451571D02*
X1097258Y451571D01*
X1097258Y453762D02*
X1099222Y453762D01*
X1099222Y455953D02*
X1097258Y455953D01*
X1097258Y458144D02*
X1099222Y458144D01*
X1099758Y520498D02*
X1101722Y520498D01*
X1099758Y520498D02*
X1099758Y534962D01*
X1101722Y534962D01*
X1101722Y520498D01*
X1101722Y522689D02*
X1099758Y522689D01*
X1099758Y524880D02*
X1101722Y524880D01*
X1101722Y527071D02*
X1099758Y527071D01*
X1099758Y529262D02*
X1101722Y529262D01*
X1101722Y531453D02*
X1099758Y531453D01*
X1099758Y533644D02*
X1101722Y533644D01*
X1102258Y444998D02*
X1104222Y444998D01*
X1102258Y444998D02*
X1102258Y459462D01*
X1104222Y459462D01*
X1104222Y444998D01*
X1104222Y447189D02*
X1102258Y447189D01*
X1102258Y449380D02*
X1104222Y449380D01*
X1104222Y451571D02*
X1102258Y451571D01*
X1102258Y453762D02*
X1104222Y453762D01*
X1104222Y455953D02*
X1102258Y455953D01*
X1102258Y458144D02*
X1104222Y458144D01*
X1104758Y520498D02*
X1106722Y520498D01*
X1104758Y520498D02*
X1104758Y534962D01*
X1106722Y534962D01*
X1106722Y520498D01*
X1106722Y522689D02*
X1104758Y522689D01*
X1104758Y524880D02*
X1106722Y524880D01*
X1106722Y527071D02*
X1104758Y527071D01*
X1104758Y529262D02*
X1106722Y529262D01*
X1106722Y531453D02*
X1104758Y531453D01*
X1104758Y533644D02*
X1106722Y533644D01*
X1107258Y444998D02*
X1109222Y444998D01*
X1107258Y444998D02*
X1107258Y459462D01*
X1109222Y459462D01*
X1109222Y444998D01*
X1109222Y447189D02*
X1107258Y447189D01*
X1107258Y449380D02*
X1109222Y449380D01*
X1109222Y451571D02*
X1107258Y451571D01*
X1107258Y453762D02*
X1109222Y453762D01*
X1109222Y455953D02*
X1107258Y455953D01*
X1107258Y458144D02*
X1109222Y458144D01*
X1109758Y520498D02*
X1111722Y520498D01*
X1109758Y520498D02*
X1109758Y534962D01*
X1111722Y534962D01*
X1111722Y520498D01*
X1111722Y522689D02*
X1109758Y522689D01*
X1109758Y524880D02*
X1111722Y524880D01*
X1111722Y527071D02*
X1109758Y527071D01*
X1109758Y529262D02*
X1111722Y529262D01*
X1111722Y531453D02*
X1109758Y531453D01*
X1109758Y533644D02*
X1111722Y533644D01*
X1112258Y444998D02*
X1114222Y444998D01*
X1112258Y444998D02*
X1112258Y459462D01*
X1114222Y459462D01*
X1114222Y444998D01*
X1114222Y447189D02*
X1112258Y447189D01*
X1112258Y449380D02*
X1114222Y449380D01*
X1114222Y451571D02*
X1112258Y451571D01*
X1112258Y453762D02*
X1114222Y453762D01*
X1114222Y455953D02*
X1112258Y455953D01*
X1112258Y458144D02*
X1114222Y458144D01*
X1114758Y520498D02*
X1116722Y520498D01*
X1114758Y520498D02*
X1114758Y534962D01*
X1116722Y534962D01*
X1116722Y520498D01*
X1116722Y522689D02*
X1114758Y522689D01*
X1114758Y524880D02*
X1116722Y524880D01*
X1116722Y527071D02*
X1114758Y527071D01*
X1114758Y529262D02*
X1116722Y529262D01*
X1116722Y531453D02*
X1114758Y531453D01*
X1114758Y533644D02*
X1116722Y533644D01*
X1117258Y444998D02*
X1119222Y444998D01*
X1117258Y444998D02*
X1117258Y459462D01*
X1119222Y459462D01*
X1119222Y444998D01*
X1119222Y447189D02*
X1117258Y447189D01*
X1117258Y449380D02*
X1119222Y449380D01*
X1119222Y451571D02*
X1117258Y451571D01*
X1117258Y453762D02*
X1119222Y453762D01*
X1119222Y455953D02*
X1117258Y455953D01*
X1117258Y458144D02*
X1119222Y458144D01*
X1119758Y520498D02*
X1121722Y520498D01*
X1119758Y520498D02*
X1119758Y534962D01*
X1121722Y534962D01*
X1121722Y520498D01*
X1121722Y522689D02*
X1119758Y522689D01*
X1119758Y524880D02*
X1121722Y524880D01*
X1121722Y527071D02*
X1119758Y527071D01*
X1119758Y529262D02*
X1121722Y529262D01*
X1121722Y531453D02*
X1119758Y531453D01*
X1119758Y533644D02*
X1121722Y533644D01*
X1142258Y444998D02*
X1144222Y444998D01*
X1142258Y444998D02*
X1142258Y459462D01*
X1144222Y459462D01*
X1144222Y444998D01*
X1144222Y447189D02*
X1142258Y447189D01*
X1142258Y449380D02*
X1144222Y449380D01*
X1144222Y451571D02*
X1142258Y451571D01*
X1142258Y453762D02*
X1144222Y453762D01*
X1144222Y455953D02*
X1142258Y455953D01*
X1142258Y458144D02*
X1144222Y458144D01*
X1144758Y520498D02*
X1146722Y520498D01*
X1144758Y520498D02*
X1144758Y534962D01*
X1146722Y534962D01*
X1146722Y520498D01*
X1146722Y522689D02*
X1144758Y522689D01*
X1144758Y524880D02*
X1146722Y524880D01*
X1146722Y527071D02*
X1144758Y527071D01*
X1144758Y529262D02*
X1146722Y529262D01*
X1146722Y531453D02*
X1144758Y531453D01*
X1144758Y533644D02*
X1146722Y533644D01*
X1147258Y444998D02*
X1149222Y444998D01*
X1147258Y444998D02*
X1147258Y459462D01*
X1149222Y459462D01*
X1149222Y444998D01*
X1149222Y447189D02*
X1147258Y447189D01*
X1147258Y449380D02*
X1149222Y449380D01*
X1149222Y451571D02*
X1147258Y451571D01*
X1147258Y453762D02*
X1149222Y453762D01*
X1149222Y455953D02*
X1147258Y455953D01*
X1147258Y458144D02*
X1149222Y458144D01*
X1149758Y520498D02*
X1151722Y520498D01*
X1149758Y520498D02*
X1149758Y534962D01*
X1151722Y534962D01*
X1151722Y520498D01*
X1151722Y522689D02*
X1149758Y522689D01*
X1149758Y524880D02*
X1151722Y524880D01*
X1151722Y527071D02*
X1149758Y527071D01*
X1149758Y529262D02*
X1151722Y529262D01*
X1151722Y531453D02*
X1149758Y531453D01*
X1149758Y533644D02*
X1151722Y533644D01*
X1152258Y444998D02*
X1154222Y444998D01*
X1152258Y444998D02*
X1152258Y459462D01*
X1154222Y459462D01*
X1154222Y444998D01*
X1154222Y447189D02*
X1152258Y447189D01*
X1152258Y449380D02*
X1154222Y449380D01*
X1154222Y451571D02*
X1152258Y451571D01*
X1152258Y453762D02*
X1154222Y453762D01*
X1154222Y455953D02*
X1152258Y455953D01*
X1152258Y458144D02*
X1154222Y458144D01*
X1154758Y520498D02*
X1156722Y520498D01*
X1154758Y520498D02*
X1154758Y534962D01*
X1156722Y534962D01*
X1156722Y520498D01*
X1156722Y522689D02*
X1154758Y522689D01*
X1154758Y524880D02*
X1156722Y524880D01*
X1156722Y527071D02*
X1154758Y527071D01*
X1154758Y529262D02*
X1156722Y529262D01*
X1156722Y531453D02*
X1154758Y531453D01*
X1154758Y533644D02*
X1156722Y533644D01*
X1157258Y444998D02*
X1159222Y444998D01*
X1157258Y444998D02*
X1157258Y459462D01*
X1159222Y459462D01*
X1159222Y444998D01*
X1159222Y447189D02*
X1157258Y447189D01*
X1157258Y449380D02*
X1159222Y449380D01*
X1159222Y451571D02*
X1157258Y451571D01*
X1157258Y453762D02*
X1159222Y453762D01*
X1159222Y455953D02*
X1157258Y455953D01*
X1157258Y458144D02*
X1159222Y458144D01*
X1159758Y520498D02*
X1161722Y520498D01*
X1159758Y520498D02*
X1159758Y534962D01*
X1161722Y534962D01*
X1161722Y520498D01*
X1161722Y522689D02*
X1159758Y522689D01*
X1159758Y524880D02*
X1161722Y524880D01*
X1161722Y527071D02*
X1159758Y527071D01*
X1159758Y529262D02*
X1161722Y529262D01*
X1161722Y531453D02*
X1159758Y531453D01*
X1159758Y533644D02*
X1161722Y533644D01*
X1162258Y444998D02*
X1164222Y444998D01*
X1162258Y444998D02*
X1162258Y459462D01*
X1164222Y459462D01*
X1164222Y444998D01*
X1164222Y447189D02*
X1162258Y447189D01*
X1162258Y449380D02*
X1164222Y449380D01*
X1164222Y451571D02*
X1162258Y451571D01*
X1162258Y453762D02*
X1164222Y453762D01*
X1164222Y455953D02*
X1162258Y455953D01*
X1162258Y458144D02*
X1164222Y458144D01*
X1164758Y520498D02*
X1166722Y520498D01*
X1164758Y520498D02*
X1164758Y534962D01*
X1166722Y534962D01*
X1166722Y520498D01*
X1166722Y522689D02*
X1164758Y522689D01*
X1164758Y524880D02*
X1166722Y524880D01*
X1166722Y527071D02*
X1164758Y527071D01*
X1164758Y529262D02*
X1166722Y529262D01*
X1166722Y531453D02*
X1164758Y531453D01*
X1164758Y533644D02*
X1166722Y533644D01*
X1167258Y444998D02*
X1169222Y444998D01*
X1167258Y444998D02*
X1167258Y459462D01*
X1169222Y459462D01*
X1169222Y444998D01*
X1169222Y447189D02*
X1167258Y447189D01*
X1167258Y449380D02*
X1169222Y449380D01*
X1169222Y451571D02*
X1167258Y451571D01*
X1167258Y453762D02*
X1169222Y453762D01*
X1169222Y455953D02*
X1167258Y455953D01*
X1167258Y458144D02*
X1169222Y458144D01*
X1169758Y520498D02*
X1171722Y520498D01*
X1169758Y520498D02*
X1169758Y534962D01*
X1171722Y534962D01*
X1171722Y520498D01*
X1171722Y522689D02*
X1169758Y522689D01*
X1169758Y524880D02*
X1171722Y524880D01*
X1171722Y527071D02*
X1169758Y527071D01*
X1169758Y529262D02*
X1171722Y529262D01*
X1171722Y531453D02*
X1169758Y531453D01*
X1169758Y533644D02*
X1171722Y533644D01*
X1172258Y444998D02*
X1174222Y444998D01*
X1172258Y444998D02*
X1172258Y459462D01*
X1174222Y459462D01*
X1174222Y444998D01*
X1174222Y447189D02*
X1172258Y447189D01*
X1172258Y449380D02*
X1174222Y449380D01*
X1174222Y451571D02*
X1172258Y451571D01*
X1172258Y453762D02*
X1174222Y453762D01*
X1174222Y455953D02*
X1172258Y455953D01*
X1172258Y458144D02*
X1174222Y458144D01*
X1174758Y520498D02*
X1176722Y520498D01*
X1174758Y520498D02*
X1174758Y534962D01*
X1176722Y534962D01*
X1176722Y520498D01*
X1176722Y522689D02*
X1174758Y522689D01*
X1174758Y524880D02*
X1176722Y524880D01*
X1176722Y527071D02*
X1174758Y527071D01*
X1174758Y529262D02*
X1176722Y529262D01*
X1176722Y531453D02*
X1174758Y531453D01*
X1174758Y533644D02*
X1176722Y533644D01*
X1177258Y444998D02*
X1179222Y444998D01*
X1177258Y444998D02*
X1177258Y459462D01*
X1179222Y459462D01*
X1179222Y444998D01*
X1179222Y447189D02*
X1177258Y447189D01*
X1177258Y449380D02*
X1179222Y449380D01*
X1179222Y451571D02*
X1177258Y451571D01*
X1177258Y453762D02*
X1179222Y453762D01*
X1179222Y455953D02*
X1177258Y455953D01*
X1177258Y458144D02*
X1179222Y458144D01*
X1179758Y520498D02*
X1181722Y520498D01*
X1179758Y520498D02*
X1179758Y534962D01*
X1181722Y534962D01*
X1181722Y520498D01*
X1181722Y522689D02*
X1179758Y522689D01*
X1179758Y524880D02*
X1181722Y524880D01*
X1181722Y527071D02*
X1179758Y527071D01*
X1179758Y529262D02*
X1181722Y529262D01*
X1181722Y531453D02*
X1179758Y531453D01*
X1179758Y533644D02*
X1181722Y533644D01*
X1182258Y444998D02*
X1184222Y444998D01*
X1182258Y444998D02*
X1182258Y459462D01*
X1184222Y459462D01*
X1184222Y444998D01*
X1184222Y447189D02*
X1182258Y447189D01*
X1182258Y449380D02*
X1184222Y449380D01*
X1184222Y451571D02*
X1182258Y451571D01*
X1182258Y453762D02*
X1184222Y453762D01*
X1184222Y455953D02*
X1182258Y455953D01*
X1182258Y458144D02*
X1184222Y458144D01*
X1184758Y520498D02*
X1186722Y520498D01*
X1184758Y520498D02*
X1184758Y534962D01*
X1186722Y534962D01*
X1186722Y520498D01*
X1186722Y522689D02*
X1184758Y522689D01*
X1184758Y524880D02*
X1186722Y524880D01*
X1186722Y527071D02*
X1184758Y527071D01*
X1184758Y529262D02*
X1186722Y529262D01*
X1186722Y531453D02*
X1184758Y531453D01*
X1184758Y533644D02*
X1186722Y533644D01*
X1187258Y444998D02*
X1189222Y444998D01*
X1187258Y444998D02*
X1187258Y459462D01*
X1189222Y459462D01*
X1189222Y444998D01*
X1189222Y447189D02*
X1187258Y447189D01*
X1187258Y449380D02*
X1189222Y449380D01*
X1189222Y451571D02*
X1187258Y451571D01*
X1187258Y453762D02*
X1189222Y453762D01*
X1189222Y455953D02*
X1187258Y455953D01*
X1187258Y458144D02*
X1189222Y458144D01*
X1189758Y520498D02*
X1191722Y520498D01*
X1189758Y520498D02*
X1189758Y534962D01*
X1191722Y534962D01*
X1191722Y520498D01*
X1191722Y522689D02*
X1189758Y522689D01*
X1189758Y524880D02*
X1191722Y524880D01*
X1191722Y527071D02*
X1189758Y527071D01*
X1189758Y529262D02*
X1191722Y529262D01*
X1191722Y531453D02*
X1189758Y531453D01*
X1189758Y533644D02*
X1191722Y533644D01*
X1192258Y444998D02*
X1194222Y444998D01*
X1192258Y444998D02*
X1192258Y459462D01*
X1194222Y459462D01*
X1194222Y444998D01*
X1194222Y447189D02*
X1192258Y447189D01*
X1192258Y449380D02*
X1194222Y449380D01*
X1194222Y451571D02*
X1192258Y451571D01*
X1192258Y453762D02*
X1194222Y453762D01*
X1194222Y455953D02*
X1192258Y455953D01*
X1192258Y458144D02*
X1194222Y458144D01*
X1194758Y520498D02*
X1196722Y520498D01*
X1194758Y520498D02*
X1194758Y534962D01*
X1196722Y534962D01*
X1196722Y520498D01*
X1196722Y522689D02*
X1194758Y522689D01*
X1194758Y524880D02*
X1196722Y524880D01*
X1196722Y527071D02*
X1194758Y527071D01*
X1194758Y529262D02*
X1196722Y529262D01*
X1196722Y531453D02*
X1194758Y531453D01*
X1194758Y533644D02*
X1196722Y533644D01*
X1197258Y444998D02*
X1199222Y444998D01*
X1197258Y444998D02*
X1197258Y459462D01*
X1199222Y459462D01*
X1199222Y444998D01*
X1199222Y447189D02*
X1197258Y447189D01*
X1197258Y449380D02*
X1199222Y449380D01*
X1199222Y451571D02*
X1197258Y451571D01*
X1197258Y453762D02*
X1199222Y453762D01*
X1199222Y455953D02*
X1197258Y455953D01*
X1197258Y458144D02*
X1199222Y458144D01*
X1199758Y520498D02*
X1201722Y520498D01*
X1199758Y520498D02*
X1199758Y534962D01*
X1201722Y534962D01*
X1201722Y520498D01*
X1201722Y522689D02*
X1199758Y522689D01*
X1199758Y524880D02*
X1201722Y524880D01*
X1201722Y527071D02*
X1199758Y527071D01*
X1199758Y529262D02*
X1201722Y529262D01*
X1201722Y531453D02*
X1199758Y531453D01*
X1199758Y533644D02*
X1201722Y533644D01*
X1202258Y444998D02*
X1204222Y444998D01*
X1202258Y444998D02*
X1202258Y459462D01*
X1204222Y459462D01*
X1204222Y444998D01*
X1204222Y447189D02*
X1202258Y447189D01*
X1202258Y449380D02*
X1204222Y449380D01*
X1204222Y451571D02*
X1202258Y451571D01*
X1202258Y453762D02*
X1204222Y453762D01*
X1204222Y455953D02*
X1202258Y455953D01*
X1202258Y458144D02*
X1204222Y458144D01*
X1204758Y520498D02*
X1206722Y520498D01*
X1204758Y520498D02*
X1204758Y534962D01*
X1206722Y534962D01*
X1206722Y520498D01*
X1206722Y522689D02*
X1204758Y522689D01*
X1204758Y524880D02*
X1206722Y524880D01*
X1206722Y527071D02*
X1204758Y527071D01*
X1204758Y529262D02*
X1206722Y529262D01*
X1206722Y531453D02*
X1204758Y531453D01*
X1204758Y533644D02*
X1206722Y533644D01*
X1207258Y444998D02*
X1209222Y444998D01*
X1207258Y444998D02*
X1207258Y459462D01*
X1209222Y459462D01*
X1209222Y444998D01*
X1209222Y447189D02*
X1207258Y447189D01*
X1207258Y449380D02*
X1209222Y449380D01*
X1209222Y451571D02*
X1207258Y451571D01*
X1207258Y453762D02*
X1209222Y453762D01*
X1209222Y455953D02*
X1207258Y455953D01*
X1207258Y458144D02*
X1209222Y458144D01*
X1209758Y520498D02*
X1211722Y520498D01*
X1209758Y520498D02*
X1209758Y534962D01*
X1211722Y534962D01*
X1211722Y520498D01*
X1211722Y522689D02*
X1209758Y522689D01*
X1209758Y524880D02*
X1211722Y524880D01*
X1211722Y527071D02*
X1209758Y527071D01*
X1209758Y529262D02*
X1211722Y529262D01*
X1211722Y531453D02*
X1209758Y531453D01*
X1209758Y533644D02*
X1211722Y533644D01*
X1212258Y444998D02*
X1214222Y444998D01*
X1212258Y444998D02*
X1212258Y459462D01*
X1214222Y459462D01*
X1214222Y444998D01*
X1214222Y447189D02*
X1212258Y447189D01*
X1212258Y449380D02*
X1214222Y449380D01*
X1214222Y451571D02*
X1212258Y451571D01*
X1212258Y453762D02*
X1214222Y453762D01*
X1214222Y455953D02*
X1212258Y455953D01*
X1212258Y458144D02*
X1214222Y458144D01*
X1214758Y520498D02*
X1216722Y520498D01*
X1214758Y520498D02*
X1214758Y534962D01*
X1216722Y534962D01*
X1216722Y520498D01*
X1216722Y522689D02*
X1214758Y522689D01*
X1214758Y524880D02*
X1216722Y524880D01*
X1216722Y527071D02*
X1214758Y527071D01*
X1214758Y529262D02*
X1216722Y529262D01*
X1216722Y531453D02*
X1214758Y531453D01*
X1214758Y533644D02*
X1216722Y533644D01*
X1217258Y444998D02*
X1219222Y444998D01*
X1217258Y444998D02*
X1217258Y459462D01*
X1219222Y459462D01*
X1219222Y444998D01*
X1219222Y447189D02*
X1217258Y447189D01*
X1217258Y449380D02*
X1219222Y449380D01*
X1219222Y451571D02*
X1217258Y451571D01*
X1217258Y453762D02*
X1219222Y453762D01*
X1219222Y455953D02*
X1217258Y455953D01*
X1217258Y458144D02*
X1219222Y458144D01*
X1219758Y520498D02*
X1221722Y520498D01*
X1219758Y520498D02*
X1219758Y534962D01*
X1221722Y534962D01*
X1221722Y520498D01*
X1221722Y522689D02*
X1219758Y522689D01*
X1219758Y524880D02*
X1221722Y524880D01*
X1221722Y527071D02*
X1219758Y527071D01*
X1219758Y529262D02*
X1221722Y529262D01*
X1221722Y531453D02*
X1219758Y531453D01*
X1219758Y533644D02*
X1221722Y533644D01*
X1222258Y444998D02*
X1224222Y444998D01*
X1222258Y444998D02*
X1222258Y459462D01*
X1224222Y459462D01*
X1224222Y444998D01*
X1224222Y447189D02*
X1222258Y447189D01*
X1222258Y449380D02*
X1224222Y449380D01*
X1224222Y451571D02*
X1222258Y451571D01*
X1222258Y453762D02*
X1224222Y453762D01*
X1224222Y455953D02*
X1222258Y455953D01*
X1222258Y458144D02*
X1224222Y458144D01*
X1224758Y520498D02*
X1226722Y520498D01*
X1224758Y520498D02*
X1224758Y534962D01*
X1226722Y534962D01*
X1226722Y520498D01*
X1226722Y522689D02*
X1224758Y522689D01*
X1224758Y524880D02*
X1226722Y524880D01*
X1226722Y527071D02*
X1224758Y527071D01*
X1224758Y529262D02*
X1226722Y529262D01*
X1226722Y531453D02*
X1224758Y531453D01*
X1224758Y533644D02*
X1226722Y533644D01*
X1227258Y444998D02*
X1229222Y444998D01*
X1227258Y444998D02*
X1227258Y459462D01*
X1229222Y459462D01*
X1229222Y444998D01*
X1229222Y447189D02*
X1227258Y447189D01*
X1227258Y449380D02*
X1229222Y449380D01*
X1229222Y451571D02*
X1227258Y451571D01*
X1227258Y453762D02*
X1229222Y453762D01*
X1229222Y455953D02*
X1227258Y455953D01*
X1227258Y458144D02*
X1229222Y458144D01*
X1229758Y520498D02*
X1231722Y520498D01*
X1229758Y520498D02*
X1229758Y534962D01*
X1231722Y534962D01*
X1231722Y520498D01*
X1231722Y522689D02*
X1229758Y522689D01*
X1229758Y524880D02*
X1231722Y524880D01*
X1231722Y527071D02*
X1229758Y527071D01*
X1229758Y529262D02*
X1231722Y529262D01*
X1231722Y531453D02*
X1229758Y531453D01*
X1229758Y533644D02*
X1231722Y533644D01*
X1232258Y444998D02*
X1234222Y444998D01*
X1232258Y444998D02*
X1232258Y459462D01*
X1234222Y459462D01*
X1234222Y444998D01*
X1234222Y447189D02*
X1232258Y447189D01*
X1232258Y449380D02*
X1234222Y449380D01*
X1234222Y451571D02*
X1232258Y451571D01*
X1232258Y453762D02*
X1234222Y453762D01*
X1234222Y455953D02*
X1232258Y455953D01*
X1232258Y458144D02*
X1234222Y458144D01*
X1234758Y520498D02*
X1236722Y520498D01*
X1234758Y520498D02*
X1234758Y534962D01*
X1236722Y534962D01*
X1236722Y520498D01*
X1236722Y522689D02*
X1234758Y522689D01*
X1234758Y524880D02*
X1236722Y524880D01*
X1236722Y527071D02*
X1234758Y527071D01*
X1234758Y529262D02*
X1236722Y529262D01*
X1236722Y531453D02*
X1234758Y531453D01*
X1234758Y533644D02*
X1236722Y533644D01*
X1237258Y444998D02*
X1239222Y444998D01*
X1237258Y444998D02*
X1237258Y459462D01*
X1239222Y459462D01*
X1239222Y444998D01*
X1239222Y447189D02*
X1237258Y447189D01*
X1237258Y449380D02*
X1239222Y449380D01*
X1239222Y451571D02*
X1237258Y451571D01*
X1237258Y453762D02*
X1239222Y453762D01*
X1239222Y455953D02*
X1237258Y455953D01*
X1237258Y458144D02*
X1239222Y458144D01*
X1239758Y520498D02*
X1241722Y520498D01*
X1239758Y520498D02*
X1239758Y534962D01*
X1241722Y534962D01*
X1241722Y520498D01*
X1241722Y522689D02*
X1239758Y522689D01*
X1239758Y524880D02*
X1241722Y524880D01*
X1241722Y527071D02*
X1239758Y527071D01*
X1239758Y529262D02*
X1241722Y529262D01*
X1241722Y531453D02*
X1239758Y531453D01*
X1239758Y533644D02*
X1241722Y533644D01*
X1242258Y444998D02*
X1244222Y444998D01*
X1242258Y444998D02*
X1242258Y459462D01*
X1244222Y459462D01*
X1244222Y444998D01*
X1244222Y447189D02*
X1242258Y447189D01*
X1242258Y449380D02*
X1244222Y449380D01*
X1244222Y451571D02*
X1242258Y451571D01*
X1242258Y453762D02*
X1244222Y453762D01*
X1244222Y455953D02*
X1242258Y455953D01*
X1242258Y458144D02*
X1244222Y458144D01*
X1244758Y520498D02*
X1246722Y520498D01*
X1244758Y520498D02*
X1244758Y534962D01*
X1246722Y534962D01*
X1246722Y520498D01*
X1246722Y522689D02*
X1244758Y522689D01*
X1244758Y524880D02*
X1246722Y524880D01*
X1246722Y527071D02*
X1244758Y527071D01*
X1244758Y529262D02*
X1246722Y529262D01*
X1246722Y531453D02*
X1244758Y531453D01*
X1244758Y533644D02*
X1246722Y533644D01*
X1247258Y444998D02*
X1249222Y444998D01*
X1247258Y444998D02*
X1247258Y459462D01*
X1249222Y459462D01*
X1249222Y444998D01*
X1249222Y447189D02*
X1247258Y447189D01*
X1247258Y449380D02*
X1249222Y449380D01*
X1249222Y451571D02*
X1247258Y451571D01*
X1247258Y453762D02*
X1249222Y453762D01*
X1249222Y455953D02*
X1247258Y455953D01*
X1247258Y458144D02*
X1249222Y458144D01*
X1249758Y520498D02*
X1251722Y520498D01*
X1249758Y520498D02*
X1249758Y534962D01*
X1251722Y534962D01*
X1251722Y520498D01*
X1251722Y522689D02*
X1249758Y522689D01*
X1249758Y524880D02*
X1251722Y524880D01*
X1251722Y527071D02*
X1249758Y527071D01*
X1249758Y529262D02*
X1251722Y529262D01*
X1251722Y531453D02*
X1249758Y531453D01*
X1249758Y533644D02*
X1251722Y533644D01*
D17*
X893442Y622358D03*
X893442Y609658D03*
X893442Y596958D03*
X893442Y584258D03*
X893442Y635058D03*
X906142Y622358D03*
X906142Y609658D03*
X906142Y596958D03*
X906142Y584258D03*
X906142Y635058D03*
X1704340Y683260D03*
X895350Y77470D03*
D18*
X931386Y476726D02*
X931386Y483394D01*
X945674Y483394D01*
X945674Y476726D01*
X931386Y476726D01*
X931386Y478838D02*
X945674Y478838D01*
X945674Y480950D02*
X931386Y480950D01*
X931386Y483062D02*
X945674Y483062D01*
X875506Y483394D02*
X875506Y476726D01*
X875506Y483394D02*
X889794Y483394D01*
X889794Y476726D01*
X875506Y476726D01*
X875506Y478838D02*
X889794Y478838D01*
X889794Y480950D02*
X875506Y480950D01*
X875506Y483062D02*
X889794Y483062D01*
X931386Y514826D02*
X931386Y521494D01*
X945674Y521494D01*
X945674Y514826D01*
X931386Y514826D01*
X931386Y516938D02*
X945674Y516938D01*
X945674Y519050D02*
X931386Y519050D01*
X931386Y521162D02*
X945674Y521162D01*
X875506Y521494D02*
X875506Y514826D01*
X875506Y521494D02*
X889794Y521494D01*
X889794Y514826D01*
X875506Y514826D01*
X875506Y516938D02*
X889794Y516938D01*
X889794Y519050D02*
X875506Y519050D01*
X875506Y521162D02*
X889794Y521162D01*
X931386Y416084D02*
X931386Y409416D01*
X931386Y416084D02*
X945674Y416084D01*
X945674Y409416D01*
X931386Y409416D01*
X931386Y411528D02*
X945674Y411528D01*
X945674Y413640D02*
X931386Y413640D01*
X931386Y415752D02*
X945674Y415752D01*
X875506Y416084D02*
X875506Y409416D01*
X875506Y416084D02*
X889794Y416084D01*
X889794Y409416D01*
X875506Y409416D01*
X875506Y411528D02*
X889794Y411528D01*
X889794Y413640D02*
X875506Y413640D01*
X875506Y415752D02*
X889794Y415752D01*
X931386Y447516D02*
X931386Y454184D01*
X945674Y454184D01*
X945674Y447516D01*
X931386Y447516D01*
X931386Y449628D02*
X945674Y449628D01*
X945674Y451740D02*
X931386Y451740D01*
X931386Y453852D02*
X945674Y453852D01*
X875506Y454184D02*
X875506Y447516D01*
X875506Y454184D02*
X889794Y454184D01*
X889794Y447516D01*
X875506Y447516D01*
X875506Y449628D02*
X889794Y449628D01*
X889794Y451740D02*
X875506Y451740D01*
X875506Y453852D02*
X889794Y453852D01*
D19*
X909828Y537464D03*
D20*
X964392Y490284D02*
X974408Y490284D01*
X964392Y490284D02*
X964392Y499300D01*
X974408Y499300D01*
X974408Y490284D01*
X974408Y492425D02*
X964392Y492425D01*
X964392Y494566D02*
X974408Y494566D01*
X974408Y496707D02*
X964392Y496707D01*
X964392Y498848D02*
X974408Y498848D01*
X981392Y490284D02*
X991408Y490284D01*
X981392Y490284D02*
X981392Y499300D01*
X991408Y499300D01*
X991408Y490284D01*
X991408Y492425D02*
X981392Y492425D01*
X981392Y494566D02*
X991408Y494566D01*
X991408Y496707D02*
X981392Y496707D01*
X981392Y498848D02*
X991408Y498848D01*
X991408Y515556D02*
X981392Y515556D01*
X991408Y515556D02*
X991408Y506540D01*
X981392Y506540D01*
X981392Y515556D01*
X981392Y508681D02*
X991408Y508681D01*
X991408Y510822D02*
X981392Y510822D01*
X981392Y512963D02*
X991408Y512963D01*
X991408Y515104D02*
X981392Y515104D01*
X974408Y515556D02*
X964392Y515556D01*
X974408Y515556D02*
X974408Y506540D01*
X964392Y506540D01*
X964392Y515556D01*
X964392Y508681D02*
X974408Y508681D01*
X974408Y510822D02*
X964392Y510822D01*
X964392Y512963D02*
X974408Y512963D01*
X974408Y515104D02*
X964392Y515104D01*
D14*
X1390980Y632460D03*
D15*
X1590980Y632460D03*
D16*
X1399462Y677978D02*
X1397498Y677978D01*
X1397498Y692442D01*
X1399462Y692442D01*
X1399462Y677978D01*
X1399462Y680169D02*
X1397498Y680169D01*
X1397498Y682360D02*
X1399462Y682360D01*
X1399462Y684551D02*
X1397498Y684551D01*
X1397498Y686742D02*
X1399462Y686742D01*
X1399462Y688933D02*
X1397498Y688933D01*
X1397498Y691124D02*
X1399462Y691124D01*
D11*
X1392987Y664203D02*
X1381973Y664203D01*
X1381973Y690717D01*
X1392987Y690717D01*
X1392987Y664203D01*
X1392987Y666346D02*
X1381973Y666346D01*
X1381973Y668489D02*
X1392987Y668489D01*
X1392987Y670632D02*
X1381973Y670632D01*
X1381973Y672775D02*
X1392987Y672775D01*
X1392987Y674918D02*
X1381973Y674918D01*
X1381973Y677061D02*
X1392987Y677061D01*
X1392987Y679204D02*
X1381973Y679204D01*
X1381973Y681347D02*
X1392987Y681347D01*
X1392987Y683490D02*
X1381973Y683490D01*
X1381973Y685633D02*
X1392987Y685633D01*
X1392987Y687776D02*
X1381973Y687776D01*
X1381973Y689919D02*
X1392987Y689919D01*
X1588973Y664203D02*
X1599987Y664203D01*
X1588973Y664203D02*
X1588973Y690717D01*
X1599987Y690717D01*
X1599987Y664203D01*
X1599987Y666346D02*
X1588973Y666346D01*
X1588973Y668489D02*
X1599987Y668489D01*
X1599987Y670632D02*
X1588973Y670632D01*
X1588973Y672775D02*
X1599987Y672775D01*
X1599987Y674918D02*
X1588973Y674918D01*
X1588973Y677061D02*
X1599987Y677061D01*
X1599987Y679204D02*
X1588973Y679204D01*
X1588973Y681347D02*
X1599987Y681347D01*
X1599987Y683490D02*
X1588973Y683490D01*
X1588973Y685633D02*
X1599987Y685633D01*
X1599987Y687776D02*
X1588973Y687776D01*
X1588973Y689919D02*
X1599987Y689919D01*
D16*
X1401962Y602478D02*
X1399998Y602478D01*
X1399998Y616942D01*
X1401962Y616942D01*
X1401962Y602478D01*
X1401962Y604669D02*
X1399998Y604669D01*
X1399998Y606860D02*
X1401962Y606860D01*
X1401962Y609051D02*
X1399998Y609051D01*
X1399998Y611242D02*
X1401962Y611242D01*
X1401962Y613433D02*
X1399998Y613433D01*
X1399998Y615624D02*
X1401962Y615624D01*
X1402498Y677978D02*
X1404462Y677978D01*
X1402498Y677978D02*
X1402498Y692442D01*
X1404462Y692442D01*
X1404462Y677978D01*
X1404462Y680169D02*
X1402498Y680169D01*
X1402498Y682360D02*
X1404462Y682360D01*
X1404462Y684551D02*
X1402498Y684551D01*
X1402498Y686742D02*
X1404462Y686742D01*
X1404462Y688933D02*
X1402498Y688933D01*
X1402498Y691124D02*
X1404462Y691124D01*
X1404998Y602478D02*
X1406962Y602478D01*
X1404998Y602478D02*
X1404998Y616942D01*
X1406962Y616942D01*
X1406962Y602478D01*
X1406962Y604669D02*
X1404998Y604669D01*
X1404998Y606860D02*
X1406962Y606860D01*
X1406962Y609051D02*
X1404998Y609051D01*
X1404998Y611242D02*
X1406962Y611242D01*
X1406962Y613433D02*
X1404998Y613433D01*
X1404998Y615624D02*
X1406962Y615624D01*
X1407498Y677978D02*
X1409462Y677978D01*
X1407498Y677978D02*
X1407498Y692442D01*
X1409462Y692442D01*
X1409462Y677978D01*
X1409462Y680169D02*
X1407498Y680169D01*
X1407498Y682360D02*
X1409462Y682360D01*
X1409462Y684551D02*
X1407498Y684551D01*
X1407498Y686742D02*
X1409462Y686742D01*
X1409462Y688933D02*
X1407498Y688933D01*
X1407498Y691124D02*
X1409462Y691124D01*
X1409998Y602478D02*
X1411962Y602478D01*
X1409998Y602478D02*
X1409998Y616942D01*
X1411962Y616942D01*
X1411962Y602478D01*
X1411962Y604669D02*
X1409998Y604669D01*
X1409998Y606860D02*
X1411962Y606860D01*
X1411962Y609051D02*
X1409998Y609051D01*
X1409998Y611242D02*
X1411962Y611242D01*
X1411962Y613433D02*
X1409998Y613433D01*
X1409998Y615624D02*
X1411962Y615624D01*
X1412498Y677978D02*
X1414462Y677978D01*
X1412498Y677978D02*
X1412498Y692442D01*
X1414462Y692442D01*
X1414462Y677978D01*
X1414462Y680169D02*
X1412498Y680169D01*
X1412498Y682360D02*
X1414462Y682360D01*
X1414462Y684551D02*
X1412498Y684551D01*
X1412498Y686742D02*
X1414462Y686742D01*
X1414462Y688933D02*
X1412498Y688933D01*
X1412498Y691124D02*
X1414462Y691124D01*
X1414998Y602478D02*
X1416962Y602478D01*
X1414998Y602478D02*
X1414998Y616942D01*
X1416962Y616942D01*
X1416962Y602478D01*
X1416962Y604669D02*
X1414998Y604669D01*
X1414998Y606860D02*
X1416962Y606860D01*
X1416962Y609051D02*
X1414998Y609051D01*
X1414998Y611242D02*
X1416962Y611242D01*
X1416962Y613433D02*
X1414998Y613433D01*
X1414998Y615624D02*
X1416962Y615624D01*
X1417498Y677978D02*
X1419462Y677978D01*
X1417498Y677978D02*
X1417498Y692442D01*
X1419462Y692442D01*
X1419462Y677978D01*
X1419462Y680169D02*
X1417498Y680169D01*
X1417498Y682360D02*
X1419462Y682360D01*
X1419462Y684551D02*
X1417498Y684551D01*
X1417498Y686742D02*
X1419462Y686742D01*
X1419462Y688933D02*
X1417498Y688933D01*
X1417498Y691124D02*
X1419462Y691124D01*
X1419998Y602478D02*
X1421962Y602478D01*
X1419998Y602478D02*
X1419998Y616942D01*
X1421962Y616942D01*
X1421962Y602478D01*
X1421962Y604669D02*
X1419998Y604669D01*
X1419998Y606860D02*
X1421962Y606860D01*
X1421962Y609051D02*
X1419998Y609051D01*
X1419998Y611242D02*
X1421962Y611242D01*
X1421962Y613433D02*
X1419998Y613433D01*
X1419998Y615624D02*
X1421962Y615624D01*
X1422498Y677978D02*
X1424462Y677978D01*
X1422498Y677978D02*
X1422498Y692442D01*
X1424462Y692442D01*
X1424462Y677978D01*
X1424462Y680169D02*
X1422498Y680169D01*
X1422498Y682360D02*
X1424462Y682360D01*
X1424462Y684551D02*
X1422498Y684551D01*
X1422498Y686742D02*
X1424462Y686742D01*
X1424462Y688933D02*
X1422498Y688933D01*
X1422498Y691124D02*
X1424462Y691124D01*
X1424998Y602478D02*
X1426962Y602478D01*
X1424998Y602478D02*
X1424998Y616942D01*
X1426962Y616942D01*
X1426962Y602478D01*
X1426962Y604669D02*
X1424998Y604669D01*
X1424998Y606860D02*
X1426962Y606860D01*
X1426962Y609051D02*
X1424998Y609051D01*
X1424998Y611242D02*
X1426962Y611242D01*
X1426962Y613433D02*
X1424998Y613433D01*
X1424998Y615624D02*
X1426962Y615624D01*
X1427498Y677978D02*
X1429462Y677978D01*
X1427498Y677978D02*
X1427498Y692442D01*
X1429462Y692442D01*
X1429462Y677978D01*
X1429462Y680169D02*
X1427498Y680169D01*
X1427498Y682360D02*
X1429462Y682360D01*
X1429462Y684551D02*
X1427498Y684551D01*
X1427498Y686742D02*
X1429462Y686742D01*
X1429462Y688933D02*
X1427498Y688933D01*
X1427498Y691124D02*
X1429462Y691124D01*
X1429998Y602478D02*
X1431962Y602478D01*
X1429998Y602478D02*
X1429998Y616942D01*
X1431962Y616942D01*
X1431962Y602478D01*
X1431962Y604669D02*
X1429998Y604669D01*
X1429998Y606860D02*
X1431962Y606860D01*
X1431962Y609051D02*
X1429998Y609051D01*
X1429998Y611242D02*
X1431962Y611242D01*
X1431962Y613433D02*
X1429998Y613433D01*
X1429998Y615624D02*
X1431962Y615624D01*
X1432498Y677978D02*
X1434462Y677978D01*
X1432498Y677978D02*
X1432498Y692442D01*
X1434462Y692442D01*
X1434462Y677978D01*
X1434462Y680169D02*
X1432498Y680169D01*
X1432498Y682360D02*
X1434462Y682360D01*
X1434462Y684551D02*
X1432498Y684551D01*
X1432498Y686742D02*
X1434462Y686742D01*
X1434462Y688933D02*
X1432498Y688933D01*
X1432498Y691124D02*
X1434462Y691124D01*
X1434998Y602478D02*
X1436962Y602478D01*
X1434998Y602478D02*
X1434998Y616942D01*
X1436962Y616942D01*
X1436962Y602478D01*
X1436962Y604669D02*
X1434998Y604669D01*
X1434998Y606860D02*
X1436962Y606860D01*
X1436962Y609051D02*
X1434998Y609051D01*
X1434998Y611242D02*
X1436962Y611242D01*
X1436962Y613433D02*
X1434998Y613433D01*
X1434998Y615624D02*
X1436962Y615624D01*
X1437498Y677978D02*
X1439462Y677978D01*
X1437498Y677978D02*
X1437498Y692442D01*
X1439462Y692442D01*
X1439462Y677978D01*
X1439462Y680169D02*
X1437498Y680169D01*
X1437498Y682360D02*
X1439462Y682360D01*
X1439462Y684551D02*
X1437498Y684551D01*
X1437498Y686742D02*
X1439462Y686742D01*
X1439462Y688933D02*
X1437498Y688933D01*
X1437498Y691124D02*
X1439462Y691124D01*
X1439998Y602478D02*
X1441962Y602478D01*
X1439998Y602478D02*
X1439998Y616942D01*
X1441962Y616942D01*
X1441962Y602478D01*
X1441962Y604669D02*
X1439998Y604669D01*
X1439998Y606860D02*
X1441962Y606860D01*
X1441962Y609051D02*
X1439998Y609051D01*
X1439998Y611242D02*
X1441962Y611242D01*
X1441962Y613433D02*
X1439998Y613433D01*
X1439998Y615624D02*
X1441962Y615624D01*
X1442498Y677978D02*
X1444462Y677978D01*
X1442498Y677978D02*
X1442498Y692442D01*
X1444462Y692442D01*
X1444462Y677978D01*
X1444462Y680169D02*
X1442498Y680169D01*
X1442498Y682360D02*
X1444462Y682360D01*
X1444462Y684551D02*
X1442498Y684551D01*
X1442498Y686742D02*
X1444462Y686742D01*
X1444462Y688933D02*
X1442498Y688933D01*
X1442498Y691124D02*
X1444462Y691124D01*
X1444998Y602478D02*
X1446962Y602478D01*
X1444998Y602478D02*
X1444998Y616942D01*
X1446962Y616942D01*
X1446962Y602478D01*
X1446962Y604669D02*
X1444998Y604669D01*
X1444998Y606860D02*
X1446962Y606860D01*
X1446962Y609051D02*
X1444998Y609051D01*
X1444998Y611242D02*
X1446962Y611242D01*
X1446962Y613433D02*
X1444998Y613433D01*
X1444998Y615624D02*
X1446962Y615624D01*
X1447498Y677978D02*
X1449462Y677978D01*
X1447498Y677978D02*
X1447498Y692442D01*
X1449462Y692442D01*
X1449462Y677978D01*
X1449462Y680169D02*
X1447498Y680169D01*
X1447498Y682360D02*
X1449462Y682360D01*
X1449462Y684551D02*
X1447498Y684551D01*
X1447498Y686742D02*
X1449462Y686742D01*
X1449462Y688933D02*
X1447498Y688933D01*
X1447498Y691124D02*
X1449462Y691124D01*
X1449998Y602478D02*
X1451962Y602478D01*
X1449998Y602478D02*
X1449998Y616942D01*
X1451962Y616942D01*
X1451962Y602478D01*
X1451962Y604669D02*
X1449998Y604669D01*
X1449998Y606860D02*
X1451962Y606860D01*
X1451962Y609051D02*
X1449998Y609051D01*
X1449998Y611242D02*
X1451962Y611242D01*
X1451962Y613433D02*
X1449998Y613433D01*
X1449998Y615624D02*
X1451962Y615624D01*
X1452498Y677978D02*
X1454462Y677978D01*
X1452498Y677978D02*
X1452498Y692442D01*
X1454462Y692442D01*
X1454462Y677978D01*
X1454462Y680169D02*
X1452498Y680169D01*
X1452498Y682360D02*
X1454462Y682360D01*
X1454462Y684551D02*
X1452498Y684551D01*
X1452498Y686742D02*
X1454462Y686742D01*
X1454462Y688933D02*
X1452498Y688933D01*
X1452498Y691124D02*
X1454462Y691124D01*
X1474998Y602478D02*
X1476962Y602478D01*
X1474998Y602478D02*
X1474998Y616942D01*
X1476962Y616942D01*
X1476962Y602478D01*
X1476962Y604669D02*
X1474998Y604669D01*
X1474998Y606860D02*
X1476962Y606860D01*
X1476962Y609051D02*
X1474998Y609051D01*
X1474998Y611242D02*
X1476962Y611242D01*
X1476962Y613433D02*
X1474998Y613433D01*
X1474998Y615624D02*
X1476962Y615624D01*
X1477498Y677978D02*
X1479462Y677978D01*
X1477498Y677978D02*
X1477498Y692442D01*
X1479462Y692442D01*
X1479462Y677978D01*
X1479462Y680169D02*
X1477498Y680169D01*
X1477498Y682360D02*
X1479462Y682360D01*
X1479462Y684551D02*
X1477498Y684551D01*
X1477498Y686742D02*
X1479462Y686742D01*
X1479462Y688933D02*
X1477498Y688933D01*
X1477498Y691124D02*
X1479462Y691124D01*
X1479998Y602478D02*
X1481962Y602478D01*
X1479998Y602478D02*
X1479998Y616942D01*
X1481962Y616942D01*
X1481962Y602478D01*
X1481962Y604669D02*
X1479998Y604669D01*
X1479998Y606860D02*
X1481962Y606860D01*
X1481962Y609051D02*
X1479998Y609051D01*
X1479998Y611242D02*
X1481962Y611242D01*
X1481962Y613433D02*
X1479998Y613433D01*
X1479998Y615624D02*
X1481962Y615624D01*
X1482498Y677978D02*
X1484462Y677978D01*
X1482498Y677978D02*
X1482498Y692442D01*
X1484462Y692442D01*
X1484462Y677978D01*
X1484462Y680169D02*
X1482498Y680169D01*
X1482498Y682360D02*
X1484462Y682360D01*
X1484462Y684551D02*
X1482498Y684551D01*
X1482498Y686742D02*
X1484462Y686742D01*
X1484462Y688933D02*
X1482498Y688933D01*
X1482498Y691124D02*
X1484462Y691124D01*
X1484998Y602478D02*
X1486962Y602478D01*
X1484998Y602478D02*
X1484998Y616942D01*
X1486962Y616942D01*
X1486962Y602478D01*
X1486962Y604669D02*
X1484998Y604669D01*
X1484998Y606860D02*
X1486962Y606860D01*
X1486962Y609051D02*
X1484998Y609051D01*
X1484998Y611242D02*
X1486962Y611242D01*
X1486962Y613433D02*
X1484998Y613433D01*
X1484998Y615624D02*
X1486962Y615624D01*
X1487498Y677978D02*
X1489462Y677978D01*
X1487498Y677978D02*
X1487498Y692442D01*
X1489462Y692442D01*
X1489462Y677978D01*
X1489462Y680169D02*
X1487498Y680169D01*
X1487498Y682360D02*
X1489462Y682360D01*
X1489462Y684551D02*
X1487498Y684551D01*
X1487498Y686742D02*
X1489462Y686742D01*
X1489462Y688933D02*
X1487498Y688933D01*
X1487498Y691124D02*
X1489462Y691124D01*
X1489998Y602478D02*
X1491962Y602478D01*
X1489998Y602478D02*
X1489998Y616942D01*
X1491962Y616942D01*
X1491962Y602478D01*
X1491962Y604669D02*
X1489998Y604669D01*
X1489998Y606860D02*
X1491962Y606860D01*
X1491962Y609051D02*
X1489998Y609051D01*
X1489998Y611242D02*
X1491962Y611242D01*
X1491962Y613433D02*
X1489998Y613433D01*
X1489998Y615624D02*
X1491962Y615624D01*
X1492498Y677978D02*
X1494462Y677978D01*
X1492498Y677978D02*
X1492498Y692442D01*
X1494462Y692442D01*
X1494462Y677978D01*
X1494462Y680169D02*
X1492498Y680169D01*
X1492498Y682360D02*
X1494462Y682360D01*
X1494462Y684551D02*
X1492498Y684551D01*
X1492498Y686742D02*
X1494462Y686742D01*
X1494462Y688933D02*
X1492498Y688933D01*
X1492498Y691124D02*
X1494462Y691124D01*
X1494998Y602478D02*
X1496962Y602478D01*
X1494998Y602478D02*
X1494998Y616942D01*
X1496962Y616942D01*
X1496962Y602478D01*
X1496962Y604669D02*
X1494998Y604669D01*
X1494998Y606860D02*
X1496962Y606860D01*
X1496962Y609051D02*
X1494998Y609051D01*
X1494998Y611242D02*
X1496962Y611242D01*
X1496962Y613433D02*
X1494998Y613433D01*
X1494998Y615624D02*
X1496962Y615624D01*
X1497498Y677978D02*
X1499462Y677978D01*
X1497498Y677978D02*
X1497498Y692442D01*
X1499462Y692442D01*
X1499462Y677978D01*
X1499462Y680169D02*
X1497498Y680169D01*
X1497498Y682360D02*
X1499462Y682360D01*
X1499462Y684551D02*
X1497498Y684551D01*
X1497498Y686742D02*
X1499462Y686742D01*
X1499462Y688933D02*
X1497498Y688933D01*
X1497498Y691124D02*
X1499462Y691124D01*
X1499998Y602478D02*
X1501962Y602478D01*
X1499998Y602478D02*
X1499998Y616942D01*
X1501962Y616942D01*
X1501962Y602478D01*
X1501962Y604669D02*
X1499998Y604669D01*
X1499998Y606860D02*
X1501962Y606860D01*
X1501962Y609051D02*
X1499998Y609051D01*
X1499998Y611242D02*
X1501962Y611242D01*
X1501962Y613433D02*
X1499998Y613433D01*
X1499998Y615624D02*
X1501962Y615624D01*
X1502498Y677978D02*
X1504462Y677978D01*
X1502498Y677978D02*
X1502498Y692442D01*
X1504462Y692442D01*
X1504462Y677978D01*
X1504462Y680169D02*
X1502498Y680169D01*
X1502498Y682360D02*
X1504462Y682360D01*
X1504462Y684551D02*
X1502498Y684551D01*
X1502498Y686742D02*
X1504462Y686742D01*
X1504462Y688933D02*
X1502498Y688933D01*
X1502498Y691124D02*
X1504462Y691124D01*
X1504998Y602478D02*
X1506962Y602478D01*
X1504998Y602478D02*
X1504998Y616942D01*
X1506962Y616942D01*
X1506962Y602478D01*
X1506962Y604669D02*
X1504998Y604669D01*
X1504998Y606860D02*
X1506962Y606860D01*
X1506962Y609051D02*
X1504998Y609051D01*
X1504998Y611242D02*
X1506962Y611242D01*
X1506962Y613433D02*
X1504998Y613433D01*
X1504998Y615624D02*
X1506962Y615624D01*
X1507498Y677978D02*
X1509462Y677978D01*
X1507498Y677978D02*
X1507498Y692442D01*
X1509462Y692442D01*
X1509462Y677978D01*
X1509462Y680169D02*
X1507498Y680169D01*
X1507498Y682360D02*
X1509462Y682360D01*
X1509462Y684551D02*
X1507498Y684551D01*
X1507498Y686742D02*
X1509462Y686742D01*
X1509462Y688933D02*
X1507498Y688933D01*
X1507498Y691124D02*
X1509462Y691124D01*
X1509998Y602478D02*
X1511962Y602478D01*
X1509998Y602478D02*
X1509998Y616942D01*
X1511962Y616942D01*
X1511962Y602478D01*
X1511962Y604669D02*
X1509998Y604669D01*
X1509998Y606860D02*
X1511962Y606860D01*
X1511962Y609051D02*
X1509998Y609051D01*
X1509998Y611242D02*
X1511962Y611242D01*
X1511962Y613433D02*
X1509998Y613433D01*
X1509998Y615624D02*
X1511962Y615624D01*
X1512498Y677978D02*
X1514462Y677978D01*
X1512498Y677978D02*
X1512498Y692442D01*
X1514462Y692442D01*
X1514462Y677978D01*
X1514462Y680169D02*
X1512498Y680169D01*
X1512498Y682360D02*
X1514462Y682360D01*
X1514462Y684551D02*
X1512498Y684551D01*
X1512498Y686742D02*
X1514462Y686742D01*
X1514462Y688933D02*
X1512498Y688933D01*
X1512498Y691124D02*
X1514462Y691124D01*
X1514998Y602478D02*
X1516962Y602478D01*
X1514998Y602478D02*
X1514998Y616942D01*
X1516962Y616942D01*
X1516962Y602478D01*
X1516962Y604669D02*
X1514998Y604669D01*
X1514998Y606860D02*
X1516962Y606860D01*
X1516962Y609051D02*
X1514998Y609051D01*
X1514998Y611242D02*
X1516962Y611242D01*
X1516962Y613433D02*
X1514998Y613433D01*
X1514998Y615624D02*
X1516962Y615624D01*
X1517498Y677978D02*
X1519462Y677978D01*
X1517498Y677978D02*
X1517498Y692442D01*
X1519462Y692442D01*
X1519462Y677978D01*
X1519462Y680169D02*
X1517498Y680169D01*
X1517498Y682360D02*
X1519462Y682360D01*
X1519462Y684551D02*
X1517498Y684551D01*
X1517498Y686742D02*
X1519462Y686742D01*
X1519462Y688933D02*
X1517498Y688933D01*
X1517498Y691124D02*
X1519462Y691124D01*
X1519998Y602478D02*
X1521962Y602478D01*
X1519998Y602478D02*
X1519998Y616942D01*
X1521962Y616942D01*
X1521962Y602478D01*
X1521962Y604669D02*
X1519998Y604669D01*
X1519998Y606860D02*
X1521962Y606860D01*
X1521962Y609051D02*
X1519998Y609051D01*
X1519998Y611242D02*
X1521962Y611242D01*
X1521962Y613433D02*
X1519998Y613433D01*
X1519998Y615624D02*
X1521962Y615624D01*
X1522498Y677978D02*
X1524462Y677978D01*
X1522498Y677978D02*
X1522498Y692442D01*
X1524462Y692442D01*
X1524462Y677978D01*
X1524462Y680169D02*
X1522498Y680169D01*
X1522498Y682360D02*
X1524462Y682360D01*
X1524462Y684551D02*
X1522498Y684551D01*
X1522498Y686742D02*
X1524462Y686742D01*
X1524462Y688933D02*
X1522498Y688933D01*
X1522498Y691124D02*
X1524462Y691124D01*
X1524998Y602478D02*
X1526962Y602478D01*
X1524998Y602478D02*
X1524998Y616942D01*
X1526962Y616942D01*
X1526962Y602478D01*
X1526962Y604669D02*
X1524998Y604669D01*
X1524998Y606860D02*
X1526962Y606860D01*
X1526962Y609051D02*
X1524998Y609051D01*
X1524998Y611242D02*
X1526962Y611242D01*
X1526962Y613433D02*
X1524998Y613433D01*
X1524998Y615624D02*
X1526962Y615624D01*
X1527498Y677978D02*
X1529462Y677978D01*
X1527498Y677978D02*
X1527498Y692442D01*
X1529462Y692442D01*
X1529462Y677978D01*
X1529462Y680169D02*
X1527498Y680169D01*
X1527498Y682360D02*
X1529462Y682360D01*
X1529462Y684551D02*
X1527498Y684551D01*
X1527498Y686742D02*
X1529462Y686742D01*
X1529462Y688933D02*
X1527498Y688933D01*
X1527498Y691124D02*
X1529462Y691124D01*
X1529998Y602478D02*
X1531962Y602478D01*
X1529998Y602478D02*
X1529998Y616942D01*
X1531962Y616942D01*
X1531962Y602478D01*
X1531962Y604669D02*
X1529998Y604669D01*
X1529998Y606860D02*
X1531962Y606860D01*
X1531962Y609051D02*
X1529998Y609051D01*
X1529998Y611242D02*
X1531962Y611242D01*
X1531962Y613433D02*
X1529998Y613433D01*
X1529998Y615624D02*
X1531962Y615624D01*
X1532498Y677978D02*
X1534462Y677978D01*
X1532498Y677978D02*
X1532498Y692442D01*
X1534462Y692442D01*
X1534462Y677978D01*
X1534462Y680169D02*
X1532498Y680169D01*
X1532498Y682360D02*
X1534462Y682360D01*
X1534462Y684551D02*
X1532498Y684551D01*
X1532498Y686742D02*
X1534462Y686742D01*
X1534462Y688933D02*
X1532498Y688933D01*
X1532498Y691124D02*
X1534462Y691124D01*
X1534998Y602478D02*
X1536962Y602478D01*
X1534998Y602478D02*
X1534998Y616942D01*
X1536962Y616942D01*
X1536962Y602478D01*
X1536962Y604669D02*
X1534998Y604669D01*
X1534998Y606860D02*
X1536962Y606860D01*
X1536962Y609051D02*
X1534998Y609051D01*
X1534998Y611242D02*
X1536962Y611242D01*
X1536962Y613433D02*
X1534998Y613433D01*
X1534998Y615624D02*
X1536962Y615624D01*
X1537498Y677978D02*
X1539462Y677978D01*
X1537498Y677978D02*
X1537498Y692442D01*
X1539462Y692442D01*
X1539462Y677978D01*
X1539462Y680169D02*
X1537498Y680169D01*
X1537498Y682360D02*
X1539462Y682360D01*
X1539462Y684551D02*
X1537498Y684551D01*
X1537498Y686742D02*
X1539462Y686742D01*
X1539462Y688933D02*
X1537498Y688933D01*
X1537498Y691124D02*
X1539462Y691124D01*
X1539998Y602478D02*
X1541962Y602478D01*
X1539998Y602478D02*
X1539998Y616942D01*
X1541962Y616942D01*
X1541962Y602478D01*
X1541962Y604669D02*
X1539998Y604669D01*
X1539998Y606860D02*
X1541962Y606860D01*
X1541962Y609051D02*
X1539998Y609051D01*
X1539998Y611242D02*
X1541962Y611242D01*
X1541962Y613433D02*
X1539998Y613433D01*
X1539998Y615624D02*
X1541962Y615624D01*
X1542498Y677978D02*
X1544462Y677978D01*
X1542498Y677978D02*
X1542498Y692442D01*
X1544462Y692442D01*
X1544462Y677978D01*
X1544462Y680169D02*
X1542498Y680169D01*
X1542498Y682360D02*
X1544462Y682360D01*
X1544462Y684551D02*
X1542498Y684551D01*
X1542498Y686742D02*
X1544462Y686742D01*
X1544462Y688933D02*
X1542498Y688933D01*
X1542498Y691124D02*
X1544462Y691124D01*
X1544998Y602478D02*
X1546962Y602478D01*
X1544998Y602478D02*
X1544998Y616942D01*
X1546962Y616942D01*
X1546962Y602478D01*
X1546962Y604669D02*
X1544998Y604669D01*
X1544998Y606860D02*
X1546962Y606860D01*
X1546962Y609051D02*
X1544998Y609051D01*
X1544998Y611242D02*
X1546962Y611242D01*
X1546962Y613433D02*
X1544998Y613433D01*
X1544998Y615624D02*
X1546962Y615624D01*
X1547498Y677978D02*
X1549462Y677978D01*
X1547498Y677978D02*
X1547498Y692442D01*
X1549462Y692442D01*
X1549462Y677978D01*
X1549462Y680169D02*
X1547498Y680169D01*
X1547498Y682360D02*
X1549462Y682360D01*
X1549462Y684551D02*
X1547498Y684551D01*
X1547498Y686742D02*
X1549462Y686742D01*
X1549462Y688933D02*
X1547498Y688933D01*
X1547498Y691124D02*
X1549462Y691124D01*
X1549998Y602478D02*
X1551962Y602478D01*
X1549998Y602478D02*
X1549998Y616942D01*
X1551962Y616942D01*
X1551962Y602478D01*
X1551962Y604669D02*
X1549998Y604669D01*
X1549998Y606860D02*
X1551962Y606860D01*
X1551962Y609051D02*
X1549998Y609051D01*
X1549998Y611242D02*
X1551962Y611242D01*
X1551962Y613433D02*
X1549998Y613433D01*
X1549998Y615624D02*
X1551962Y615624D01*
X1552498Y677978D02*
X1554462Y677978D01*
X1552498Y677978D02*
X1552498Y692442D01*
X1554462Y692442D01*
X1554462Y677978D01*
X1554462Y680169D02*
X1552498Y680169D01*
X1552498Y682360D02*
X1554462Y682360D01*
X1554462Y684551D02*
X1552498Y684551D01*
X1552498Y686742D02*
X1554462Y686742D01*
X1554462Y688933D02*
X1552498Y688933D01*
X1552498Y691124D02*
X1554462Y691124D01*
X1554998Y602478D02*
X1556962Y602478D01*
X1554998Y602478D02*
X1554998Y616942D01*
X1556962Y616942D01*
X1556962Y602478D01*
X1556962Y604669D02*
X1554998Y604669D01*
X1554998Y606860D02*
X1556962Y606860D01*
X1556962Y609051D02*
X1554998Y609051D01*
X1554998Y611242D02*
X1556962Y611242D01*
X1556962Y613433D02*
X1554998Y613433D01*
X1554998Y615624D02*
X1556962Y615624D01*
X1557498Y677978D02*
X1559462Y677978D01*
X1557498Y677978D02*
X1557498Y692442D01*
X1559462Y692442D01*
X1559462Y677978D01*
X1559462Y680169D02*
X1557498Y680169D01*
X1557498Y682360D02*
X1559462Y682360D01*
X1559462Y684551D02*
X1557498Y684551D01*
X1557498Y686742D02*
X1559462Y686742D01*
X1559462Y688933D02*
X1557498Y688933D01*
X1557498Y691124D02*
X1559462Y691124D01*
X1559998Y602478D02*
X1561962Y602478D01*
X1559998Y602478D02*
X1559998Y616942D01*
X1561962Y616942D01*
X1561962Y602478D01*
X1561962Y604669D02*
X1559998Y604669D01*
X1559998Y606860D02*
X1561962Y606860D01*
X1561962Y609051D02*
X1559998Y609051D01*
X1559998Y611242D02*
X1561962Y611242D01*
X1561962Y613433D02*
X1559998Y613433D01*
X1559998Y615624D02*
X1561962Y615624D01*
X1562498Y677978D02*
X1564462Y677978D01*
X1562498Y677978D02*
X1562498Y692442D01*
X1564462Y692442D01*
X1564462Y677978D01*
X1564462Y680169D02*
X1562498Y680169D01*
X1562498Y682360D02*
X1564462Y682360D01*
X1564462Y684551D02*
X1562498Y684551D01*
X1562498Y686742D02*
X1564462Y686742D01*
X1564462Y688933D02*
X1562498Y688933D01*
X1562498Y691124D02*
X1564462Y691124D01*
X1564998Y602478D02*
X1566962Y602478D01*
X1564998Y602478D02*
X1564998Y616942D01*
X1566962Y616942D01*
X1566962Y602478D01*
X1566962Y604669D02*
X1564998Y604669D01*
X1564998Y606860D02*
X1566962Y606860D01*
X1566962Y609051D02*
X1564998Y609051D01*
X1564998Y611242D02*
X1566962Y611242D01*
X1566962Y613433D02*
X1564998Y613433D01*
X1564998Y615624D02*
X1566962Y615624D01*
X1567498Y677978D02*
X1569462Y677978D01*
X1567498Y677978D02*
X1567498Y692442D01*
X1569462Y692442D01*
X1569462Y677978D01*
X1569462Y680169D02*
X1567498Y680169D01*
X1567498Y682360D02*
X1569462Y682360D01*
X1569462Y684551D02*
X1567498Y684551D01*
X1567498Y686742D02*
X1569462Y686742D01*
X1569462Y688933D02*
X1567498Y688933D01*
X1567498Y691124D02*
X1569462Y691124D01*
X1569998Y602478D02*
X1571962Y602478D01*
X1569998Y602478D02*
X1569998Y616942D01*
X1571962Y616942D01*
X1571962Y602478D01*
X1571962Y604669D02*
X1569998Y604669D01*
X1569998Y606860D02*
X1571962Y606860D01*
X1571962Y609051D02*
X1569998Y609051D01*
X1569998Y611242D02*
X1571962Y611242D01*
X1571962Y613433D02*
X1569998Y613433D01*
X1569998Y615624D02*
X1571962Y615624D01*
X1572498Y677978D02*
X1574462Y677978D01*
X1572498Y677978D02*
X1572498Y692442D01*
X1574462Y692442D01*
X1574462Y677978D01*
X1574462Y680169D02*
X1572498Y680169D01*
X1572498Y682360D02*
X1574462Y682360D01*
X1574462Y684551D02*
X1572498Y684551D01*
X1572498Y686742D02*
X1574462Y686742D01*
X1574462Y688933D02*
X1572498Y688933D01*
X1572498Y691124D02*
X1574462Y691124D01*
X1574998Y602478D02*
X1576962Y602478D01*
X1574998Y602478D02*
X1574998Y616942D01*
X1576962Y616942D01*
X1576962Y602478D01*
X1576962Y604669D02*
X1574998Y604669D01*
X1574998Y606860D02*
X1576962Y606860D01*
X1576962Y609051D02*
X1574998Y609051D01*
X1574998Y611242D02*
X1576962Y611242D01*
X1576962Y613433D02*
X1574998Y613433D01*
X1574998Y615624D02*
X1576962Y615624D01*
X1577498Y677978D02*
X1579462Y677978D01*
X1577498Y677978D02*
X1577498Y692442D01*
X1579462Y692442D01*
X1579462Y677978D01*
X1579462Y680169D02*
X1577498Y680169D01*
X1577498Y682360D02*
X1579462Y682360D01*
X1579462Y684551D02*
X1577498Y684551D01*
X1577498Y686742D02*
X1579462Y686742D01*
X1579462Y688933D02*
X1577498Y688933D01*
X1577498Y691124D02*
X1579462Y691124D01*
X1579998Y602478D02*
X1581962Y602478D01*
X1579998Y602478D02*
X1579998Y616942D01*
X1581962Y616942D01*
X1581962Y602478D01*
X1581962Y604669D02*
X1579998Y604669D01*
X1579998Y606860D02*
X1581962Y606860D01*
X1581962Y609051D02*
X1579998Y609051D01*
X1579998Y611242D02*
X1581962Y611242D01*
X1581962Y613433D02*
X1579998Y613433D01*
X1579998Y615624D02*
X1581962Y615624D01*
X1582498Y677978D02*
X1584462Y677978D01*
X1582498Y677978D02*
X1582498Y692442D01*
X1584462Y692442D01*
X1584462Y677978D01*
X1584462Y680169D02*
X1582498Y680169D01*
X1582498Y682360D02*
X1584462Y682360D01*
X1584462Y684551D02*
X1582498Y684551D01*
X1582498Y686742D02*
X1584462Y686742D01*
X1584462Y688933D02*
X1582498Y688933D01*
X1582498Y691124D02*
X1584462Y691124D01*
D21*
X1126157Y161767D02*
X1126157Y146813D01*
X1120203Y146813D01*
X1120203Y161767D01*
X1126157Y161767D01*
X1126157Y149013D02*
X1120203Y149013D01*
X1120203Y151213D02*
X1126157Y151213D01*
X1126157Y153413D02*
X1120203Y153413D01*
X1120203Y155613D02*
X1126157Y155613D01*
X1126157Y157813D02*
X1120203Y157813D01*
X1120203Y160013D02*
X1126157Y160013D01*
X1137157Y161767D02*
X1137157Y146813D01*
X1131203Y146813D01*
X1131203Y161767D01*
X1137157Y161767D01*
X1137157Y149013D02*
X1131203Y149013D01*
X1131203Y151213D02*
X1137157Y151213D01*
X1137157Y153413D02*
X1131203Y153413D01*
X1131203Y155613D02*
X1137157Y155613D01*
X1137157Y157813D02*
X1131203Y157813D01*
X1131203Y160013D02*
X1137157Y160013D01*
X1148157Y161767D02*
X1148157Y146813D01*
X1142203Y146813D01*
X1142203Y161767D01*
X1148157Y161767D01*
X1148157Y149013D02*
X1142203Y149013D01*
X1142203Y151213D02*
X1148157Y151213D01*
X1148157Y153413D02*
X1142203Y153413D01*
X1142203Y155613D02*
X1148157Y155613D01*
X1148157Y157813D02*
X1142203Y157813D01*
X1142203Y160013D02*
X1148157Y160013D01*
X1115157Y161767D02*
X1115157Y146813D01*
X1109203Y146813D01*
X1109203Y161767D01*
X1115157Y161767D01*
X1115157Y149013D02*
X1109203Y149013D01*
X1109203Y151213D02*
X1115157Y151213D01*
X1115157Y153413D02*
X1109203Y153413D01*
X1109203Y155613D02*
X1115157Y155613D01*
X1115157Y157813D02*
X1109203Y157813D01*
X1109203Y160013D02*
X1115157Y160013D01*
X1104157Y161767D02*
X1104157Y146813D01*
X1098203Y146813D01*
X1098203Y161767D01*
X1104157Y161767D01*
X1104157Y149013D02*
X1098203Y149013D01*
X1098203Y151213D02*
X1104157Y151213D01*
X1104157Y153413D02*
X1098203Y153413D01*
X1098203Y155613D02*
X1104157Y155613D01*
X1104157Y157813D02*
X1098203Y157813D01*
X1098203Y160013D02*
X1104157Y160013D01*
X1093157Y161767D02*
X1093157Y146813D01*
X1087203Y146813D01*
X1087203Y161767D01*
X1093157Y161767D01*
X1093157Y149013D02*
X1087203Y149013D01*
X1087203Y151213D02*
X1093157Y151213D01*
X1093157Y153413D02*
X1087203Y153413D01*
X1087203Y155613D02*
X1093157Y155613D01*
X1093157Y157813D02*
X1087203Y157813D01*
X1087203Y160013D02*
X1093157Y160013D01*
X1082157Y161767D02*
X1082157Y146813D01*
X1076203Y146813D01*
X1076203Y161767D01*
X1082157Y161767D01*
X1082157Y149013D02*
X1076203Y149013D01*
X1076203Y151213D02*
X1082157Y151213D01*
X1082157Y153413D02*
X1076203Y153413D01*
X1076203Y155613D02*
X1082157Y155613D01*
X1082157Y157813D02*
X1076203Y157813D01*
X1076203Y160013D02*
X1082157Y160013D01*
X1071157Y161767D02*
X1071157Y146813D01*
X1065203Y146813D01*
X1065203Y161767D01*
X1071157Y161767D01*
X1071157Y149013D02*
X1065203Y149013D01*
X1065203Y151213D02*
X1071157Y151213D01*
X1071157Y153413D02*
X1065203Y153413D01*
X1065203Y155613D02*
X1071157Y155613D01*
X1071157Y157813D02*
X1065203Y157813D01*
X1065203Y160013D02*
X1071157Y160013D01*
X1060157Y161767D02*
X1060157Y146813D01*
X1054203Y146813D01*
X1054203Y161767D01*
X1060157Y161767D01*
X1060157Y149013D02*
X1054203Y149013D01*
X1054203Y151213D02*
X1060157Y151213D01*
X1060157Y153413D02*
X1054203Y153413D01*
X1054203Y155613D02*
X1060157Y155613D01*
X1060157Y157813D02*
X1054203Y157813D01*
X1054203Y160013D02*
X1060157Y160013D01*
D17*
X1153180Y49290D03*
X1073180Y49290D03*
D11*
X1194673Y42783D02*
X1205687Y42783D01*
X1194673Y42783D02*
X1194673Y63797D01*
X1205687Y63797D01*
X1205687Y42783D01*
X1205687Y44926D02*
X1194673Y44926D01*
X1194673Y47069D02*
X1205687Y47069D01*
X1205687Y49212D02*
X1194673Y49212D01*
X1194673Y51355D02*
X1205687Y51355D01*
X1205687Y53498D02*
X1194673Y53498D01*
X1194673Y55641D02*
X1205687Y55641D01*
X1205687Y57784D02*
X1194673Y57784D01*
X1194673Y59927D02*
X1205687Y59927D01*
X1205687Y62070D02*
X1194673Y62070D01*
X1050687Y42783D02*
X1039673Y42783D01*
X1039673Y63797D01*
X1050687Y63797D01*
X1050687Y42783D01*
X1050687Y44926D02*
X1039673Y44926D01*
X1039673Y47069D02*
X1050687Y47069D01*
X1050687Y49212D02*
X1039673Y49212D01*
X1039673Y51355D02*
X1050687Y51355D01*
X1050687Y53498D02*
X1039673Y53498D01*
X1039673Y55641D02*
X1050687Y55641D01*
X1050687Y57784D02*
X1039673Y57784D01*
X1039673Y59927D02*
X1050687Y59927D01*
X1050687Y62070D02*
X1039673Y62070D01*
D22*
X1183690Y142800D02*
X1198670Y142800D01*
X1183690Y142800D02*
X1183690Y155780D01*
X1198670Y155780D01*
X1198670Y142800D01*
X1198670Y144976D02*
X1183690Y144976D01*
X1183690Y147152D02*
X1198670Y147152D01*
X1198670Y149328D02*
X1183690Y149328D01*
X1183690Y151504D02*
X1198670Y151504D01*
X1198670Y153680D02*
X1183690Y153680D01*
D11*
X1050687Y140783D02*
X1039673Y140783D01*
X1039673Y155797D01*
X1050687Y155797D01*
X1050687Y140783D01*
X1050687Y142926D02*
X1039673Y142926D01*
X1039673Y145069D02*
X1050687Y145069D01*
X1050687Y147212D02*
X1039673Y147212D01*
X1039673Y149355D02*
X1050687Y149355D01*
X1050687Y151498D02*
X1039673Y151498D01*
X1039673Y153641D02*
X1050687Y153641D01*
X1050687Y155784D02*
X1039673Y155784D01*
D20*
X1115504Y169640D02*
X1115504Y179656D01*
X1115504Y169640D02*
X1106488Y169640D01*
X1106488Y179656D01*
X1115504Y179656D01*
X1115504Y171781D02*
X1106488Y171781D01*
X1106488Y173922D02*
X1115504Y173922D01*
X1115504Y176063D02*
X1106488Y176063D01*
X1106488Y178204D02*
X1115504Y178204D01*
X1115504Y186640D02*
X1115504Y196656D01*
X1115504Y186640D02*
X1106488Y186640D01*
X1106488Y196656D01*
X1115504Y196656D01*
X1115504Y188781D02*
X1106488Y188781D01*
X1106488Y190922D02*
X1115504Y190922D01*
X1115504Y193063D02*
X1106488Y193063D01*
X1106488Y195204D02*
X1115504Y195204D01*
D12*
X1300480Y209804D03*
D16*
X978762Y56126D02*
X976798Y56126D01*
X976798Y65090D01*
X978762Y65090D01*
X978762Y56126D01*
X978762Y58317D02*
X976798Y58317D01*
X976798Y60508D02*
X978762Y60508D01*
X978762Y62699D02*
X976798Y62699D01*
X976798Y64890D02*
X978762Y64890D01*
X973762Y56126D02*
X971798Y56126D01*
X971798Y65090D01*
X973762Y65090D01*
X973762Y56126D01*
X973762Y58317D02*
X971798Y58317D01*
X971798Y60508D02*
X973762Y60508D01*
X973762Y62699D02*
X971798Y62699D01*
X971798Y64890D02*
X973762Y64890D01*
D10*
X1000022Y56100D02*
X1005038Y56100D01*
X1000022Y56100D02*
X1000022Y65116D01*
X1005038Y65116D01*
X1005038Y56100D01*
X1005038Y58241D02*
X1000022Y58241D01*
X1000022Y60382D02*
X1005038Y60382D01*
X1005038Y62523D02*
X1000022Y62523D01*
X1000022Y64664D02*
X1005038Y64664D01*
X997288Y56100D02*
X992272Y56100D01*
X992272Y65116D01*
X997288Y65116D01*
X997288Y56100D01*
X997288Y58241D02*
X992272Y58241D01*
X992272Y60382D02*
X997288Y60382D01*
X997288Y62523D02*
X992272Y62523D01*
X992272Y64664D02*
X997288Y64664D01*
D16*
X988762Y56126D02*
X986798Y56126D01*
X986798Y65090D01*
X988762Y65090D01*
X988762Y56126D01*
X988762Y58317D02*
X986798Y58317D01*
X986798Y60508D02*
X988762Y60508D01*
X988762Y62699D02*
X986798Y62699D01*
X986798Y64890D02*
X988762Y64890D01*
X983762Y56126D02*
X981798Y56126D01*
X981798Y65090D01*
X983762Y65090D01*
X983762Y56126D01*
X983762Y58317D02*
X981798Y58317D01*
X981798Y60508D02*
X983762Y60508D01*
X983762Y62699D02*
X981798Y62699D01*
X981798Y64890D02*
X983762Y64890D01*
X963762Y65090D02*
X961798Y65090D01*
X963762Y65090D02*
X963762Y56126D01*
X961798Y56126D01*
X961798Y65090D01*
X961798Y58317D02*
X963762Y58317D01*
X963762Y60508D02*
X961798Y60508D01*
X961798Y62699D02*
X963762Y62699D01*
X963762Y64890D02*
X961798Y64890D01*
X966798Y65090D02*
X968762Y65090D01*
X968762Y56126D01*
X966798Y56126D01*
X966798Y65090D01*
X966798Y58317D02*
X968762Y58317D01*
X968762Y60508D02*
X966798Y60508D01*
X966798Y62699D02*
X968762Y62699D01*
X968762Y64890D02*
X966798Y64890D01*
D10*
X940538Y65116D02*
X935522Y65116D01*
X940538Y65116D02*
X940538Y56100D01*
X935522Y56100D01*
X935522Y65116D01*
X935522Y58241D02*
X940538Y58241D01*
X940538Y60382D02*
X935522Y60382D01*
X935522Y62523D02*
X940538Y62523D01*
X940538Y64664D02*
X935522Y64664D01*
X943272Y65116D02*
X948288Y65116D01*
X948288Y56100D01*
X943272Y56100D01*
X943272Y65116D01*
X943272Y58241D02*
X948288Y58241D01*
X948288Y60382D02*
X943272Y60382D01*
X943272Y62523D02*
X948288Y62523D01*
X948288Y64664D02*
X943272Y64664D01*
D16*
X951798Y65090D02*
X953762Y65090D01*
X953762Y56126D01*
X951798Y56126D01*
X951798Y65090D01*
X951798Y58317D02*
X953762Y58317D01*
X953762Y60508D02*
X951798Y60508D01*
X951798Y62699D02*
X953762Y62699D01*
X953762Y64890D02*
X951798Y64890D01*
X956798Y65090D02*
X958762Y65090D01*
X958762Y56126D01*
X956798Y56126D01*
X956798Y65090D01*
X956798Y58317D02*
X958762Y58317D01*
X958762Y60508D02*
X956798Y60508D01*
X956798Y62699D02*
X958762Y62699D01*
X958762Y64890D02*
X956798Y64890D01*
D23*
X941380Y49558D03*
X999180Y49558D03*
D20*
X914972Y92392D02*
X914972Y102408D01*
X923988Y102408D01*
X923988Y92392D01*
X914972Y92392D01*
X914972Y94533D02*
X923988Y94533D01*
X923988Y96674D02*
X914972Y96674D01*
X914972Y98815D02*
X923988Y98815D01*
X923988Y100956D02*
X914972Y100956D01*
X914972Y85408D02*
X914972Y75392D01*
X914972Y85408D02*
X923988Y85408D01*
X923988Y75392D01*
X914972Y75392D01*
X914972Y77533D02*
X923988Y77533D01*
X923988Y79674D02*
X914972Y79674D01*
X914972Y81815D02*
X923988Y81815D01*
X923988Y83956D02*
X914972Y83956D01*
X1006412Y92392D02*
X1006412Y102408D01*
X1015428Y102408D01*
X1015428Y92392D01*
X1006412Y92392D01*
X1006412Y94533D02*
X1015428Y94533D01*
X1015428Y96674D02*
X1006412Y96674D01*
X1006412Y98815D02*
X1015428Y98815D01*
X1015428Y100956D02*
X1006412Y100956D01*
X1006412Y85408D02*
X1006412Y75392D01*
X1006412Y85408D02*
X1015428Y85408D01*
X1015428Y75392D01*
X1006412Y75392D01*
X1006412Y77533D02*
X1015428Y77533D01*
X1015428Y79674D02*
X1006412Y79674D01*
X1006412Y81815D02*
X1015428Y81815D01*
X1015428Y83956D02*
X1006412Y83956D01*
D16*
X1005972Y315948D02*
X1007936Y315948D01*
X1007936Y310484D01*
X1005972Y310484D01*
X1005972Y315948D01*
X1005972Y312675D02*
X1007936Y312675D01*
X1007936Y314866D02*
X1005972Y314866D01*
X1001436Y315948D02*
X999472Y315948D01*
X1001436Y315948D02*
X1001436Y310484D01*
X999472Y310484D01*
X999472Y315948D01*
X999472Y312675D02*
X1001436Y312675D01*
X1001436Y314866D02*
X999472Y314866D01*
X994936Y315948D02*
X992972Y315948D01*
X994936Y315948D02*
X994936Y310484D01*
X992972Y310484D01*
X992972Y315948D01*
X992972Y312675D02*
X994936Y312675D01*
X994936Y314866D02*
X992972Y314866D01*
X988436Y315948D02*
X986472Y315948D01*
X988436Y315948D02*
X988436Y310484D01*
X986472Y310484D01*
X986472Y315948D01*
X986472Y312675D02*
X988436Y312675D01*
X988436Y314866D02*
X986472Y314866D01*
X986472Y282984D02*
X988436Y282984D01*
X986472Y282984D02*
X986472Y288448D01*
X988436Y288448D01*
X988436Y282984D01*
X988436Y285175D02*
X986472Y285175D01*
X986472Y287366D02*
X988436Y287366D01*
X992972Y282984D02*
X994936Y282984D01*
X992972Y282984D02*
X992972Y288448D01*
X994936Y288448D01*
X994936Y282984D01*
X994936Y285175D02*
X992972Y285175D01*
X992972Y287366D02*
X994936Y287366D01*
X999472Y282984D02*
X1001436Y282984D01*
X999472Y282984D02*
X999472Y288448D01*
X1001436Y288448D01*
X1001436Y282984D01*
X1001436Y285175D02*
X999472Y285175D01*
X999472Y287366D02*
X1001436Y287366D01*
X1005972Y282984D02*
X1007936Y282984D01*
X1005972Y282984D02*
X1005972Y288448D01*
X1007936Y288448D01*
X1007936Y282984D01*
X1007936Y285175D02*
X1005972Y285175D01*
X1005972Y287366D02*
X1007936Y287366D01*
D24*
X1008467Y306979D02*
X985941Y306979D01*
X1008467Y306979D02*
X1008467Y291953D01*
X985941Y291953D01*
X985941Y306979D01*
X985941Y294086D02*
X1008467Y294086D01*
X1008467Y296219D02*
X985941Y296219D01*
X985941Y298352D02*
X1008467Y298352D01*
X1008467Y300485D02*
X985941Y300485D01*
X985941Y302618D02*
X1008467Y302618D01*
X1008467Y304751D02*
X985941Y304751D01*
X985941Y306884D02*
X1008467Y306884D01*
D20*
X1009569Y247332D02*
X999553Y247332D01*
X1009569Y247332D02*
X1009569Y238316D01*
X999553Y238316D01*
X999553Y247332D01*
X999553Y240457D02*
X1009569Y240457D01*
X1009569Y242598D02*
X999553Y242598D01*
X999553Y244739D02*
X1009569Y244739D01*
X1009569Y246880D02*
X999553Y246880D01*
X992569Y247332D02*
X982553Y247332D01*
X992569Y247332D02*
X992569Y238316D01*
X982553Y238316D01*
X982553Y247332D01*
X982553Y240457D02*
X992569Y240457D01*
X992569Y242598D02*
X982553Y242598D01*
X982553Y244739D02*
X992569Y244739D01*
X992569Y246880D02*
X982553Y246880D01*
X999553Y230568D02*
X1009569Y230568D01*
X1009569Y221552D01*
X999553Y221552D01*
X999553Y230568D01*
X999553Y223693D02*
X1009569Y223693D01*
X1009569Y225834D02*
X999553Y225834D01*
X999553Y227975D02*
X1009569Y227975D01*
X1009569Y230116D02*
X999553Y230116D01*
X992569Y230568D02*
X982553Y230568D01*
X992569Y230568D02*
X992569Y221552D01*
X982553Y221552D01*
X982553Y230568D01*
X982553Y223693D02*
X992569Y223693D01*
X992569Y225834D02*
X982553Y225834D01*
X982553Y227975D02*
X992569Y227975D01*
X992569Y230116D02*
X982553Y230116D01*
X959658Y117270D02*
X959658Y108254D01*
X932642Y108254D01*
X932642Y117270D01*
X959658Y117270D01*
X959658Y110395D02*
X932642Y110395D01*
X932642Y112536D02*
X959658Y112536D01*
X959658Y114677D02*
X932642Y114677D01*
X932642Y116818D02*
X959658Y116818D01*
X959658Y138254D02*
X959658Y147270D01*
X959658Y138254D02*
X932642Y138254D01*
X932642Y147270D01*
X959658Y147270D01*
X959658Y140395D02*
X932642Y140395D01*
X932642Y142536D02*
X959658Y142536D01*
X959658Y144677D02*
X932642Y144677D01*
X932642Y146818D02*
X959658Y146818D01*
D25*
X991235Y343408D02*
X996569Y343408D01*
X996569Y331724D01*
X991235Y331724D01*
X991235Y343408D01*
X991235Y333896D02*
X996569Y333896D01*
X996569Y336068D02*
X991235Y336068D01*
X991235Y338240D02*
X996569Y338240D01*
X996569Y340412D02*
X991235Y340412D01*
X991235Y342584D02*
X996569Y342584D01*
X986409Y343408D02*
X981075Y343408D01*
X986409Y343408D02*
X986409Y331724D01*
X981075Y331724D01*
X981075Y343408D01*
X981075Y333896D02*
X986409Y333896D01*
X986409Y336068D02*
X981075Y336068D01*
X981075Y338240D02*
X986409Y338240D01*
X986409Y340412D02*
X981075Y340412D01*
X981075Y342584D02*
X986409Y342584D01*
D19*
X1001522Y337566D03*
X976122Y337566D03*
D20*
X982553Y257112D02*
X992569Y257112D01*
X982553Y257112D02*
X982553Y266128D01*
X992569Y266128D01*
X992569Y257112D01*
X992569Y259253D02*
X982553Y259253D01*
X982553Y261394D02*
X992569Y261394D01*
X992569Y263535D02*
X982553Y263535D01*
X982553Y265676D02*
X992569Y265676D01*
X999553Y257112D02*
X1009569Y257112D01*
X999553Y257112D02*
X999553Y266128D01*
X1009569Y266128D01*
X1009569Y257112D01*
X1009569Y259253D02*
X999553Y259253D01*
X999553Y261394D02*
X1009569Y261394D01*
X1009569Y263535D02*
X999553Y263535D01*
X999553Y265676D02*
X1009569Y265676D01*
D26*
X966310Y283030D02*
X966310Y288330D01*
X966310Y283030D02*
X959010Y283030D01*
X959010Y288330D01*
X966310Y288330D01*
X966310Y285187D02*
X959010Y285187D01*
X959010Y287344D02*
X966310Y287344D01*
X966310Y306030D02*
X966310Y311330D01*
X966310Y306030D02*
X959010Y306030D01*
X959010Y311330D01*
X966310Y311330D01*
X966310Y308187D02*
X959010Y308187D01*
X959010Y310344D02*
X966310Y310344D01*
D20*
X968692Y375348D02*
X978708Y375348D01*
X978708Y366332D01*
X968692Y366332D01*
X968692Y375348D01*
X968692Y368473D02*
X978708Y368473D01*
X978708Y370614D02*
X968692Y370614D01*
X968692Y372755D02*
X978708Y372755D01*
X978708Y374896D02*
X968692Y374896D01*
X961708Y375348D02*
X951692Y375348D01*
X961708Y375348D02*
X961708Y366332D01*
X951692Y366332D01*
X951692Y375348D01*
X951692Y368473D02*
X961708Y368473D01*
X961708Y370614D02*
X951692Y370614D01*
X951692Y372755D02*
X961708Y372755D01*
X961708Y374896D02*
X951692Y374896D01*
X968692Y360108D02*
X978708Y360108D01*
X978708Y351092D01*
X968692Y351092D01*
X968692Y360108D01*
X968692Y353233D02*
X978708Y353233D01*
X978708Y355374D02*
X968692Y355374D01*
X968692Y357515D02*
X978708Y357515D01*
X978708Y359656D02*
X968692Y359656D01*
X961708Y360108D02*
X951692Y360108D01*
X961708Y360108D02*
X961708Y351092D01*
X951692Y351092D01*
X951692Y360108D01*
X951692Y353233D02*
X961708Y353233D01*
X961708Y355374D02*
X951692Y355374D01*
X951692Y357515D02*
X961708Y357515D01*
X961708Y359656D02*
X951692Y359656D01*
X968692Y390588D02*
X978708Y390588D01*
X978708Y381572D01*
X968692Y381572D01*
X968692Y390588D01*
X968692Y383713D02*
X978708Y383713D01*
X978708Y385854D02*
X968692Y385854D01*
X968692Y387995D02*
X978708Y387995D01*
X978708Y390136D02*
X968692Y390136D01*
X961708Y390588D02*
X951692Y390588D01*
X961708Y390588D02*
X961708Y381572D01*
X951692Y381572D01*
X951692Y390588D01*
X951692Y383713D02*
X961708Y383713D01*
X961708Y385854D02*
X951692Y385854D01*
X951692Y387995D02*
X961708Y387995D01*
X961708Y390136D02*
X951692Y390136D01*
X906082Y326436D02*
X906082Y316420D01*
X906082Y326436D02*
X915098Y326436D01*
X915098Y316420D01*
X906082Y316420D01*
X906082Y318561D02*
X915098Y318561D01*
X915098Y320702D02*
X906082Y320702D01*
X906082Y322843D02*
X915098Y322843D01*
X915098Y324984D02*
X906082Y324984D01*
X906082Y309436D02*
X906082Y299420D01*
X906082Y309436D02*
X915098Y309436D01*
X915098Y299420D01*
X906082Y299420D01*
X906082Y301561D02*
X915098Y301561D01*
X915098Y303702D02*
X906082Y303702D01*
X906082Y305843D02*
X915098Y305843D01*
X915098Y307984D02*
X906082Y307984D01*
D27*
X891224Y307144D02*
X884236Y307144D01*
X891224Y307144D02*
X891224Y300156D01*
X884236Y300156D01*
X884236Y307144D01*
X884236Y304225D02*
X891224Y304225D01*
X891224Y324684D02*
X884236Y324684D01*
X891224Y324684D02*
X891224Y317696D01*
X884236Y317696D01*
X884236Y324684D01*
X884236Y321765D02*
X891224Y321765D01*
D28*
X1001204Y213756D02*
X1008156Y213756D01*
X1008156Y202804D01*
X1001204Y202804D01*
X1001204Y213756D01*
X1001204Y205006D02*
X1008156Y205006D01*
X1008156Y207208D02*
X1001204Y207208D01*
X1001204Y209410D02*
X1008156Y209410D01*
X1008156Y211612D02*
X1001204Y211612D01*
X990156Y213756D02*
X983204Y213756D01*
X990156Y213756D02*
X990156Y202804D01*
X983204Y202804D01*
X983204Y213756D01*
X983204Y205006D02*
X990156Y205006D01*
X990156Y207208D02*
X983204Y207208D01*
X983204Y209410D02*
X990156Y209410D01*
X990156Y211612D02*
X983204Y211612D01*
D26*
X1001428Y194236D02*
X1001428Y188936D01*
X1001428Y194236D02*
X1008728Y194236D01*
X1008728Y188936D01*
X1001428Y188936D01*
X1001428Y191093D02*
X1008728Y191093D01*
X1008728Y193250D02*
X1001428Y193250D01*
X1001428Y171236D02*
X1001428Y165936D01*
X1001428Y171236D02*
X1008728Y171236D01*
X1008728Y165936D01*
X1001428Y165936D01*
X1001428Y168093D02*
X1008728Y168093D01*
X1008728Y170250D02*
X1001428Y170250D01*
D20*
X907352Y277812D02*
X907352Y287828D01*
X916368Y287828D01*
X916368Y277812D01*
X907352Y277812D01*
X907352Y279953D02*
X916368Y279953D01*
X916368Y282094D02*
X907352Y282094D01*
X907352Y284235D02*
X916368Y284235D01*
X916368Y286376D02*
X907352Y286376D01*
X907352Y270828D02*
X907352Y260812D01*
X907352Y270828D02*
X916368Y270828D01*
X916368Y260812D01*
X907352Y260812D01*
X907352Y262953D02*
X916368Y262953D01*
X916368Y265094D02*
X907352Y265094D01*
X907352Y267235D02*
X916368Y267235D01*
X916368Y269376D02*
X907352Y269376D01*
D27*
X891224Y269044D02*
X884236Y269044D01*
X891224Y269044D02*
X891224Y262056D01*
X884236Y262056D01*
X884236Y269044D01*
X884236Y266125D02*
X891224Y266125D01*
X891224Y286584D02*
X884236Y286584D01*
X891224Y286584D02*
X891224Y279596D01*
X884236Y279596D01*
X884236Y286584D01*
X884236Y283665D02*
X891224Y283665D01*
D20*
X1027358Y694848D02*
X1027358Y703864D01*
X1072374Y703864D01*
X1072374Y694848D01*
X1027358Y694848D01*
X1027358Y696989D02*
X1072374Y696989D01*
X1072374Y699130D02*
X1027358Y699130D01*
X1027358Y701271D02*
X1072374Y701271D01*
X1072374Y703412D02*
X1027358Y703412D01*
X1027358Y683864D02*
X1027358Y674848D01*
X1027358Y683864D02*
X1072374Y683864D01*
X1072374Y674848D01*
X1027358Y674848D01*
X1027358Y676989D02*
X1072374Y676989D01*
X1072374Y679130D02*
X1027358Y679130D01*
X1027358Y681271D02*
X1072374Y681271D01*
X1072374Y683412D02*
X1027358Y683412D01*
D24*
X1085353Y715843D02*
X1118379Y715843D01*
X1085353Y715843D02*
X1085353Y730869D01*
X1118379Y730869D01*
X1118379Y715843D01*
X1118379Y717976D02*
X1085353Y717976D01*
X1085353Y720109D02*
X1118379Y720109D01*
X1118379Y722242D02*
X1085353Y722242D01*
X1085353Y724375D02*
X1118379Y724375D01*
X1118379Y726508D02*
X1085353Y726508D01*
X1085353Y728641D02*
X1118379Y728641D01*
X1118379Y730774D02*
X1085353Y730774D01*
X1085353Y647843D02*
X1118379Y647843D01*
X1085353Y647843D02*
X1085353Y662869D01*
X1118379Y662869D01*
X1118379Y647843D01*
X1118379Y649976D02*
X1085353Y649976D01*
X1085353Y652109D02*
X1118379Y652109D01*
X1118379Y654242D02*
X1085353Y654242D01*
X1085353Y656375D02*
X1118379Y656375D01*
X1118379Y658508D02*
X1085353Y658508D01*
X1085353Y660641D02*
X1118379Y660641D01*
X1118379Y662774D02*
X1085353Y662774D01*
D29*
X996927Y578492D02*
X996927Y573956D01*
X985891Y573956D01*
X985891Y578492D01*
X996927Y578492D01*
X996927Y576078D02*
X985891Y576078D01*
X985891Y578200D02*
X996927Y578200D01*
X996927Y583456D02*
X996927Y587992D01*
X996927Y583456D02*
X985891Y583456D01*
X985891Y587992D01*
X996927Y587992D01*
X996927Y585578D02*
X985891Y585578D01*
X985891Y587700D02*
X996927Y587700D01*
X996927Y592956D02*
X996927Y597492D01*
X996927Y592956D02*
X985891Y592956D01*
X985891Y597492D01*
X996927Y597492D01*
X996927Y595078D02*
X985891Y595078D01*
X985891Y597200D02*
X996927Y597200D01*
X970925Y597492D02*
X970925Y592956D01*
X959889Y592956D01*
X959889Y597492D01*
X970925Y597492D01*
X970925Y595078D02*
X959889Y595078D01*
X959889Y597200D02*
X970925Y597200D01*
X970925Y578492D02*
X970925Y573956D01*
X959889Y573956D01*
X959889Y578492D01*
X970925Y578492D01*
X970925Y576078D02*
X959889Y576078D01*
X959889Y578200D02*
X970925Y578200D01*
D20*
X906082Y362758D02*
X906082Y352742D01*
X906082Y362758D02*
X915098Y362758D01*
X915098Y352742D01*
X906082Y352742D01*
X906082Y354883D02*
X915098Y354883D01*
X915098Y357024D02*
X906082Y357024D01*
X906082Y359165D02*
X915098Y359165D01*
X915098Y361306D02*
X906082Y361306D01*
X906082Y345758D02*
X906082Y335742D01*
X906082Y345758D02*
X915098Y345758D01*
X915098Y335742D01*
X906082Y335742D01*
X906082Y337883D02*
X915098Y337883D01*
X915098Y340024D02*
X906082Y340024D01*
X906082Y342165D02*
X915098Y342165D01*
X915098Y344306D02*
X906082Y344306D01*
D27*
X891224Y345244D02*
X884236Y345244D01*
X891224Y345244D02*
X891224Y338256D01*
X884236Y338256D01*
X884236Y345244D01*
X884236Y342325D02*
X891224Y342325D01*
X891224Y362784D02*
X884236Y362784D01*
X891224Y362784D02*
X891224Y355796D01*
X884236Y355796D01*
X884236Y362784D01*
X884236Y359865D02*
X891224Y359865D01*
D20*
X938594Y589216D02*
X938594Y599232D01*
X947610Y599232D01*
X947610Y589216D01*
X938594Y589216D01*
X938594Y591357D02*
X947610Y591357D01*
X947610Y593498D02*
X938594Y593498D01*
X938594Y595639D02*
X947610Y595639D01*
X947610Y597780D02*
X938594Y597780D01*
X938594Y582232D02*
X938594Y572216D01*
X938594Y582232D02*
X947610Y582232D01*
X947610Y572216D01*
X938594Y572216D01*
X938594Y574357D02*
X947610Y574357D01*
X947610Y576498D02*
X938594Y576498D01*
X938594Y578639D02*
X947610Y578639D01*
X947610Y580780D02*
X938594Y580780D01*
X985982Y605092D02*
X995998Y605092D01*
X985982Y605092D02*
X985982Y614108D01*
X995998Y614108D01*
X995998Y605092D01*
X995998Y607233D02*
X985982Y607233D01*
X985982Y609374D02*
X995998Y609374D01*
X995998Y611515D02*
X985982Y611515D01*
X985982Y613656D02*
X995998Y613656D01*
X1002982Y605092D02*
X1012998Y605092D01*
X1002982Y605092D02*
X1002982Y614108D01*
X1012998Y614108D01*
X1012998Y605092D01*
X1012998Y607233D02*
X1002982Y607233D01*
X1002982Y609374D02*
X1012998Y609374D01*
X1012998Y611515D02*
X1002982Y611515D01*
X1002982Y613656D02*
X1012998Y613656D01*
D13*
X894080Y228600D03*
D18*
X964406Y716926D02*
X964406Y728674D01*
X971074Y728674D01*
X971074Y716926D01*
X964406Y716926D01*
X964406Y719038D02*
X971074Y719038D01*
X971074Y721150D02*
X964406Y721150D01*
X964406Y723262D02*
X971074Y723262D01*
X971074Y725374D02*
X964406Y725374D01*
X964406Y727486D02*
X971074Y727486D01*
X977106Y728674D02*
X977106Y716926D01*
X977106Y728674D02*
X983774Y728674D01*
X983774Y716926D01*
X977106Y716926D01*
X977106Y719038D02*
X983774Y719038D01*
X983774Y721150D02*
X977106Y721150D01*
X977106Y723262D02*
X983774Y723262D01*
X983774Y725374D02*
X977106Y725374D01*
X977106Y727486D02*
X983774Y727486D01*
X977106Y654674D02*
X977106Y642926D01*
X977106Y654674D02*
X983774Y654674D01*
X983774Y642926D01*
X977106Y642926D01*
X977106Y645038D02*
X983774Y645038D01*
X983774Y647150D02*
X977106Y647150D01*
X977106Y649262D02*
X983774Y649262D01*
X983774Y651374D02*
X977106Y651374D01*
X977106Y653486D02*
X983774Y653486D01*
X964406Y654674D02*
X964406Y642926D01*
X964406Y654674D02*
X971074Y654674D01*
X971074Y642926D01*
X964406Y642926D01*
X964406Y645038D02*
X971074Y645038D01*
X971074Y647150D02*
X964406Y647150D01*
X964406Y649262D02*
X971074Y649262D01*
X971074Y651374D02*
X964406Y651374D01*
X964406Y653486D02*
X971074Y653486D01*
D20*
X1011872Y727138D02*
X1021888Y727138D01*
X1021888Y718122D01*
X1011872Y718122D01*
X1011872Y727138D01*
X1011872Y720263D02*
X1021888Y720263D01*
X1021888Y722404D02*
X1011872Y722404D01*
X1011872Y724545D02*
X1021888Y724545D01*
X1021888Y726686D02*
X1011872Y726686D01*
X1004888Y727138D02*
X994872Y727138D01*
X1004888Y727138D02*
X1004888Y718122D01*
X994872Y718122D01*
X994872Y727138D01*
X994872Y720263D02*
X1004888Y720263D01*
X1004888Y722404D02*
X994872Y722404D01*
X994872Y724545D02*
X1004888Y724545D01*
X1004888Y726686D02*
X994872Y726686D01*
X936308Y718122D02*
X926292Y718122D01*
X926292Y727138D01*
X936308Y727138D01*
X936308Y718122D01*
X936308Y720263D02*
X926292Y720263D01*
X926292Y722404D02*
X936308Y722404D01*
X936308Y724545D02*
X926292Y724545D01*
X926292Y726686D02*
X936308Y726686D01*
X943292Y718122D02*
X953308Y718122D01*
X943292Y718122D02*
X943292Y727138D01*
X953308Y727138D01*
X953308Y718122D01*
X953308Y720263D02*
X943292Y720263D01*
X943292Y722404D02*
X953308Y722404D01*
X953308Y724545D02*
X943292Y724545D01*
X943292Y726686D02*
X953308Y726686D01*
D28*
X989336Y175586D02*
X989336Y168634D01*
X981384Y168634D01*
X981384Y175586D01*
X989336Y175586D01*
X989336Y170836D02*
X981384Y170836D01*
X981384Y173038D02*
X989336Y173038D01*
X989336Y175240D02*
X981384Y175240D01*
X989336Y187634D02*
X989336Y194586D01*
X989336Y187634D02*
X981384Y187634D01*
X981384Y194586D01*
X989336Y194586D01*
X989336Y189836D02*
X981384Y189836D01*
X981384Y192038D02*
X989336Y192038D01*
X989336Y194240D02*
X981384Y194240D01*
X968336Y185086D02*
X968336Y178134D01*
X960384Y178134D01*
X960384Y185086D01*
X968336Y185086D01*
X968336Y180336D02*
X960384Y180336D01*
X960384Y182538D02*
X968336Y182538D01*
X968336Y184740D02*
X960384Y184740D01*
D20*
X944182Y185102D02*
X944182Y195118D01*
X953198Y195118D01*
X953198Y185102D01*
X944182Y185102D01*
X944182Y187243D02*
X953198Y187243D01*
X953198Y189384D02*
X944182Y189384D01*
X944182Y191525D02*
X953198Y191525D01*
X953198Y193666D02*
X944182Y193666D01*
X944182Y178118D02*
X944182Y168102D01*
X944182Y178118D02*
X953198Y178118D01*
X953198Y168102D01*
X944182Y168102D01*
X944182Y170243D02*
X953198Y170243D01*
X953198Y172384D02*
X944182Y172384D01*
X944182Y174525D02*
X953198Y174525D01*
X953198Y176666D02*
X944182Y176666D01*
D17*
X68580Y795655D03*
X1663065Y795655D03*
D30*
X59525Y-59055D02*
X59528Y-58833D01*
X59536Y-58611D01*
X59550Y-58389D01*
X59569Y-58167D01*
X59593Y-57947D01*
X59623Y-57726D01*
X59658Y-57507D01*
X59699Y-57288D01*
X59745Y-57071D01*
X59796Y-56855D01*
X59853Y-56640D01*
X59915Y-56426D01*
X59982Y-56215D01*
X60054Y-56004D01*
X60132Y-55796D01*
X60214Y-55590D01*
X60302Y-55386D01*
X60394Y-55183D01*
X60492Y-54984D01*
X60594Y-54787D01*
X60701Y-54592D01*
X60813Y-54400D01*
X60930Y-54211D01*
X61051Y-54024D01*
X61177Y-53841D01*
X61307Y-53661D01*
X61442Y-53484D01*
X61580Y-53311D01*
X61723Y-53141D01*
X61871Y-52974D01*
X62022Y-52811D01*
X62177Y-52652D01*
X62336Y-52497D01*
X62499Y-52346D01*
X62666Y-52198D01*
X62836Y-52055D01*
X63009Y-51917D01*
X63186Y-51782D01*
X63366Y-51652D01*
X63549Y-51526D01*
X63736Y-51405D01*
X63925Y-51288D01*
X64117Y-51176D01*
X64312Y-51069D01*
X64509Y-50967D01*
X64708Y-50869D01*
X64911Y-50777D01*
X65115Y-50689D01*
X65321Y-50607D01*
X65529Y-50529D01*
X65740Y-50457D01*
X65951Y-50390D01*
X66165Y-50328D01*
X66380Y-50271D01*
X66596Y-50220D01*
X66813Y-50174D01*
X67032Y-50133D01*
X67251Y-50098D01*
X67472Y-50068D01*
X67692Y-50044D01*
X67914Y-50025D01*
X68136Y-50011D01*
X68358Y-50003D01*
X68580Y-50000D01*
X68802Y-50003D01*
X69024Y-50011D01*
X69246Y-50025D01*
X69468Y-50044D01*
X69688Y-50068D01*
X69909Y-50098D01*
X70128Y-50133D01*
X70347Y-50174D01*
X70564Y-50220D01*
X70780Y-50271D01*
X70995Y-50328D01*
X71209Y-50390D01*
X71420Y-50457D01*
X71631Y-50529D01*
X71839Y-50607D01*
X72045Y-50689D01*
X72249Y-50777D01*
X72452Y-50869D01*
X72651Y-50967D01*
X72848Y-51069D01*
X73043Y-51176D01*
X73235Y-51288D01*
X73424Y-51405D01*
X73611Y-51526D01*
X73794Y-51652D01*
X73974Y-51782D01*
X74151Y-51917D01*
X74324Y-52055D01*
X74494Y-52198D01*
X74661Y-52346D01*
X74824Y-52497D01*
X74983Y-52652D01*
X75138Y-52811D01*
X75289Y-52974D01*
X75437Y-53141D01*
X75580Y-53311D01*
X75718Y-53484D01*
X75853Y-53661D01*
X75983Y-53841D01*
X76109Y-54024D01*
X76230Y-54211D01*
X76347Y-54400D01*
X76459Y-54592D01*
X76566Y-54787D01*
X76668Y-54984D01*
X76766Y-55183D01*
X76858Y-55386D01*
X76946Y-55590D01*
X77028Y-55796D01*
X77106Y-56004D01*
X77178Y-56215D01*
X77245Y-56426D01*
X77307Y-56640D01*
X77364Y-56855D01*
X77415Y-57071D01*
X77461Y-57288D01*
X77502Y-57507D01*
X77537Y-57726D01*
X77567Y-57947D01*
X77591Y-58167D01*
X77610Y-58389D01*
X77624Y-58611D01*
X77632Y-58833D01*
X77635Y-59055D01*
X77632Y-59277D01*
X77624Y-59499D01*
X77610Y-59721D01*
X77591Y-59943D01*
X77567Y-60163D01*
X77537Y-60384D01*
X77502Y-60603D01*
X77461Y-60822D01*
X77415Y-61039D01*
X77364Y-61255D01*
X77307Y-61470D01*
X77245Y-61684D01*
X77178Y-61895D01*
X77106Y-62106D01*
X77028Y-62314D01*
X76946Y-62520D01*
X76858Y-62724D01*
X76766Y-62927D01*
X76668Y-63126D01*
X76566Y-63323D01*
X76459Y-63518D01*
X76347Y-63710D01*
X76230Y-63899D01*
X76109Y-64086D01*
X75983Y-64269D01*
X75853Y-64449D01*
X75718Y-64626D01*
X75580Y-64799D01*
X75437Y-64969D01*
X75289Y-65136D01*
X75138Y-65299D01*
X74983Y-65458D01*
X74824Y-65613D01*
X74661Y-65764D01*
X74494Y-65912D01*
X74324Y-66055D01*
X74151Y-66193D01*
X73974Y-66328D01*
X73794Y-66458D01*
X73611Y-66584D01*
X73424Y-66705D01*
X73235Y-66822D01*
X73043Y-66934D01*
X72848Y-67041D01*
X72651Y-67143D01*
X72452Y-67241D01*
X72249Y-67333D01*
X72045Y-67421D01*
X71839Y-67503D01*
X71631Y-67581D01*
X71420Y-67653D01*
X71209Y-67720D01*
X70995Y-67782D01*
X70780Y-67839D01*
X70564Y-67890D01*
X70347Y-67936D01*
X70128Y-67977D01*
X69909Y-68012D01*
X69688Y-68042D01*
X69468Y-68066D01*
X69246Y-68085D01*
X69024Y-68099D01*
X68802Y-68107D01*
X68580Y-68110D01*
X68358Y-68107D01*
X68136Y-68099D01*
X67914Y-68085D01*
X67692Y-68066D01*
X67472Y-68042D01*
X67251Y-68012D01*
X67032Y-67977D01*
X66813Y-67936D01*
X66596Y-67890D01*
X66380Y-67839D01*
X66165Y-67782D01*
X65951Y-67720D01*
X65740Y-67653D01*
X65529Y-67581D01*
X65321Y-67503D01*
X65115Y-67421D01*
X64911Y-67333D01*
X64708Y-67241D01*
X64509Y-67143D01*
X64312Y-67041D01*
X64117Y-66934D01*
X63925Y-66822D01*
X63736Y-66705D01*
X63549Y-66584D01*
X63366Y-66458D01*
X63186Y-66328D01*
X63009Y-66193D01*
X62836Y-66055D01*
X62666Y-65912D01*
X62499Y-65764D01*
X62336Y-65613D01*
X62177Y-65458D01*
X62022Y-65299D01*
X61871Y-65136D01*
X61723Y-64969D01*
X61580Y-64799D01*
X61442Y-64626D01*
X61307Y-64449D01*
X61177Y-64269D01*
X61051Y-64086D01*
X60930Y-63899D01*
X60813Y-63710D01*
X60701Y-63518D01*
X60594Y-63323D01*
X60492Y-63126D01*
X60394Y-62927D01*
X60302Y-62724D01*
X60214Y-62520D01*
X60132Y-62314D01*
X60054Y-62106D01*
X59982Y-61895D01*
X59915Y-61684D01*
X59853Y-61470D01*
X59796Y-61255D01*
X59745Y-61039D01*
X59699Y-60822D01*
X59658Y-60603D01*
X59623Y-60384D01*
X59593Y-60163D01*
X59569Y-59943D01*
X59550Y-59721D01*
X59536Y-59499D01*
X59528Y-59277D01*
X59525Y-59055D01*
D31*
X68580Y-59055D03*
M02*
