G04 EAGLE Gerber RS-274X export*
G75*
%MOMM*%
%FSLAX34Y34*%
%LPD*%
%INSoldermask Bottom*%
%IPPOS*%
%AMOC8*
5,1,8,0,0,1.08239X$1,22.5*%
G01*
%ADD10C,6.127000*%
%ADD11C,3.175000*%
%ADD12C,1.227000*%
%ADD13C,1.727000*%
%ADD14C,1.127000*%
%ADD15C,2.006600*%
%ADD16C,0.777000*%
%ADD17C,0.228600*%
%ADD18C,0.228344*%
%ADD19C,1.397000*%
%ADD20C,1.270000*%
%ADD21C,1.627000*%

G36*
X889827Y313956D02*
X889827Y313956D01*
X889893Y313958D01*
X889936Y313976D01*
X889983Y313984D01*
X890040Y314018D01*
X890100Y314043D01*
X890135Y314074D01*
X890176Y314099D01*
X890218Y314150D01*
X890266Y314194D01*
X890288Y314236D01*
X890317Y314273D01*
X890338Y314335D01*
X890369Y314394D01*
X890377Y314448D01*
X890389Y314485D01*
X890388Y314525D01*
X890396Y314579D01*
X890396Y318389D01*
X890385Y318454D01*
X890383Y318520D01*
X890365Y318563D01*
X890357Y318610D01*
X890323Y318667D01*
X890298Y318727D01*
X890267Y318762D01*
X890242Y318803D01*
X890191Y318845D01*
X890147Y318893D01*
X890105Y318915D01*
X890068Y318944D01*
X890006Y318965D01*
X889947Y318996D01*
X889893Y319004D01*
X889856Y319016D01*
X889816Y319015D01*
X889762Y319023D01*
X887222Y319023D01*
X887157Y319012D01*
X887091Y319010D01*
X887048Y318992D01*
X887001Y318984D01*
X886944Y318950D01*
X886884Y318925D01*
X886849Y318894D01*
X886808Y318869D01*
X886767Y318818D01*
X886718Y318774D01*
X886696Y318732D01*
X886667Y318695D01*
X886646Y318633D01*
X886615Y318574D01*
X886607Y318520D01*
X886595Y318483D01*
X886595Y318479D01*
X886595Y318478D01*
X886596Y318443D01*
X886588Y318389D01*
X886588Y314579D01*
X886599Y314514D01*
X886601Y314448D01*
X886619Y314405D01*
X886627Y314358D01*
X886661Y314301D01*
X886686Y314241D01*
X886717Y314206D01*
X886742Y314165D01*
X886793Y314124D01*
X886837Y314075D01*
X886879Y314053D01*
X886916Y314024D01*
X886978Y314003D01*
X887037Y313972D01*
X887091Y313964D01*
X887128Y313952D01*
X887168Y313953D01*
X887222Y313945D01*
X889762Y313945D01*
X889827Y313956D01*
G37*
G36*
X21147Y313956D02*
X21147Y313956D01*
X21213Y313958D01*
X21256Y313976D01*
X21303Y313984D01*
X21360Y314018D01*
X21420Y314043D01*
X21455Y314074D01*
X21496Y314099D01*
X21538Y314150D01*
X21586Y314194D01*
X21608Y314236D01*
X21637Y314273D01*
X21658Y314335D01*
X21689Y314394D01*
X21697Y314448D01*
X21709Y314485D01*
X21708Y314525D01*
X21716Y314579D01*
X21716Y318389D01*
X21705Y318454D01*
X21703Y318520D01*
X21685Y318563D01*
X21677Y318610D01*
X21643Y318667D01*
X21618Y318727D01*
X21587Y318762D01*
X21562Y318803D01*
X21511Y318845D01*
X21467Y318893D01*
X21425Y318915D01*
X21388Y318944D01*
X21326Y318965D01*
X21267Y318996D01*
X21213Y319004D01*
X21176Y319016D01*
X21136Y319015D01*
X21082Y319023D01*
X18542Y319023D01*
X18477Y319012D01*
X18411Y319010D01*
X18368Y318992D01*
X18321Y318984D01*
X18264Y318950D01*
X18204Y318925D01*
X18169Y318894D01*
X18128Y318869D01*
X18087Y318818D01*
X18038Y318774D01*
X18016Y318732D01*
X17987Y318695D01*
X17966Y318633D01*
X17935Y318574D01*
X17927Y318520D01*
X17915Y318483D01*
X17915Y318479D01*
X17915Y318478D01*
X17916Y318443D01*
X17908Y318389D01*
X17908Y314579D01*
X17919Y314514D01*
X17921Y314448D01*
X17939Y314405D01*
X17947Y314358D01*
X17981Y314301D01*
X18006Y314241D01*
X18037Y314206D01*
X18062Y314165D01*
X18113Y314124D01*
X18157Y314075D01*
X18199Y314053D01*
X18236Y314024D01*
X18298Y314003D01*
X18357Y313972D01*
X18411Y313964D01*
X18448Y313952D01*
X18488Y313953D01*
X18542Y313945D01*
X21082Y313945D01*
X21147Y313956D01*
G37*
G36*
X889319Y272300D02*
X889319Y272300D01*
X889385Y272302D01*
X889428Y272320D01*
X889475Y272328D01*
X889532Y272362D01*
X889592Y272387D01*
X889627Y272418D01*
X889668Y272443D01*
X889710Y272494D01*
X889758Y272538D01*
X889780Y272580D01*
X889809Y272617D01*
X889830Y272679D01*
X889861Y272738D01*
X889869Y272792D01*
X889881Y272829D01*
X889880Y272869D01*
X889888Y272923D01*
X889888Y276733D01*
X889877Y276798D01*
X889875Y276864D01*
X889857Y276907D01*
X889849Y276954D01*
X889815Y277011D01*
X889790Y277071D01*
X889759Y277106D01*
X889734Y277147D01*
X889683Y277189D01*
X889639Y277237D01*
X889597Y277259D01*
X889560Y277288D01*
X889498Y277309D01*
X889439Y277340D01*
X889385Y277348D01*
X889348Y277360D01*
X889308Y277359D01*
X889254Y277367D01*
X886714Y277367D01*
X886649Y277356D01*
X886583Y277354D01*
X886540Y277336D01*
X886493Y277328D01*
X886436Y277294D01*
X886376Y277269D01*
X886341Y277238D01*
X886300Y277213D01*
X886259Y277162D01*
X886210Y277118D01*
X886188Y277076D01*
X886159Y277039D01*
X886138Y276977D01*
X886107Y276918D01*
X886099Y276864D01*
X886087Y276827D01*
X886087Y276823D01*
X886087Y276822D01*
X886088Y276787D01*
X886080Y276733D01*
X886080Y272923D01*
X886091Y272858D01*
X886093Y272792D01*
X886111Y272749D01*
X886119Y272702D01*
X886153Y272645D01*
X886178Y272585D01*
X886209Y272550D01*
X886234Y272509D01*
X886285Y272468D01*
X886329Y272419D01*
X886371Y272397D01*
X886408Y272368D01*
X886470Y272347D01*
X886529Y272316D01*
X886583Y272308D01*
X886620Y272296D01*
X886660Y272297D01*
X886714Y272289D01*
X889254Y272289D01*
X889319Y272300D01*
G37*
G36*
X20639Y272300D02*
X20639Y272300D01*
X20705Y272302D01*
X20748Y272320D01*
X20795Y272328D01*
X20852Y272362D01*
X20912Y272387D01*
X20947Y272418D01*
X20988Y272443D01*
X21030Y272494D01*
X21078Y272538D01*
X21100Y272580D01*
X21129Y272617D01*
X21150Y272679D01*
X21181Y272738D01*
X21189Y272792D01*
X21201Y272829D01*
X21200Y272869D01*
X21208Y272923D01*
X21208Y276733D01*
X21197Y276798D01*
X21195Y276864D01*
X21177Y276907D01*
X21169Y276954D01*
X21135Y277011D01*
X21110Y277071D01*
X21079Y277106D01*
X21054Y277147D01*
X21003Y277189D01*
X20959Y277237D01*
X20917Y277259D01*
X20880Y277288D01*
X20818Y277309D01*
X20759Y277340D01*
X20705Y277348D01*
X20668Y277360D01*
X20628Y277359D01*
X20574Y277367D01*
X18034Y277367D01*
X17969Y277356D01*
X17903Y277354D01*
X17860Y277336D01*
X17813Y277328D01*
X17756Y277294D01*
X17696Y277269D01*
X17661Y277238D01*
X17620Y277213D01*
X17579Y277162D01*
X17530Y277118D01*
X17508Y277076D01*
X17479Y277039D01*
X17458Y276977D01*
X17427Y276918D01*
X17419Y276864D01*
X17407Y276827D01*
X17407Y276823D01*
X17407Y276822D01*
X17408Y276787D01*
X17400Y276733D01*
X17400Y272923D01*
X17411Y272858D01*
X17413Y272792D01*
X17431Y272749D01*
X17439Y272702D01*
X17473Y272645D01*
X17498Y272585D01*
X17529Y272550D01*
X17554Y272509D01*
X17605Y272468D01*
X17649Y272419D01*
X17691Y272397D01*
X17728Y272368D01*
X17790Y272347D01*
X17849Y272316D01*
X17903Y272308D01*
X17940Y272296D01*
X17980Y272297D01*
X18034Y272289D01*
X20574Y272289D01*
X20639Y272300D01*
G37*
D10*
X812800Y210058D03*
X249682Y272542D03*
D11*
X25400Y711200D03*
X838200Y711200D03*
X838200Y25400D03*
X25400Y25400D03*
D12*
X189560Y474980D03*
D13*
X389560Y474980D03*
D14*
X24762Y622358D03*
X24762Y609658D03*
X24762Y596958D03*
X24762Y584258D03*
X24762Y635058D03*
X37462Y622358D03*
X37462Y609658D03*
X37462Y596958D03*
X37462Y584258D03*
X37462Y635058D03*
X835660Y683260D03*
X26670Y77470D03*
D15*
X41148Y537464D03*
D12*
X522300Y632460D03*
D13*
X722300Y632460D03*
D14*
X284500Y49290D03*
X204500Y49290D03*
D10*
X431800Y209804D03*
D16*
X72700Y49558D03*
X130500Y49558D03*
D17*
X67310Y120269D02*
X67310Y125603D01*
X67310Y120269D02*
X55626Y120269D01*
X55626Y125603D01*
X67310Y125603D01*
X67310Y122441D02*
X55626Y122441D01*
X55626Y124613D02*
X67310Y124613D01*
X67310Y128397D02*
X67310Y133731D01*
X67310Y128397D02*
X55626Y128397D01*
X55626Y133731D01*
X67310Y133731D01*
X67310Y130569D02*
X55626Y130569D01*
X55626Y132741D02*
X67310Y132741D01*
D15*
X132842Y337566D03*
X107442Y337566D03*
D17*
X81788Y302895D02*
X81788Y297561D01*
X81788Y302895D02*
X93472Y302895D01*
X93472Y297561D01*
X81788Y297561D01*
X81788Y299733D02*
X93472Y299733D01*
X93472Y301905D02*
X81788Y301905D01*
X81788Y294767D02*
X81788Y289433D01*
X81788Y294767D02*
X93472Y294767D01*
X93472Y289433D01*
X81788Y289433D01*
X81788Y291605D02*
X93472Y291605D01*
X93472Y293777D02*
X81788Y293777D01*
D18*
X13968Y318895D02*
X13968Y324487D01*
X25656Y324487D01*
X25656Y318895D01*
X13968Y318895D01*
X13968Y321064D02*
X25656Y321064D01*
X25656Y323233D02*
X13968Y323233D01*
X13968Y314073D02*
X13968Y308481D01*
X13968Y314073D02*
X25656Y314073D01*
X25656Y308481D01*
X13968Y308481D01*
X13968Y310650D02*
X25656Y310650D01*
X25656Y312819D02*
X13968Y312819D01*
X13460Y282831D02*
X13460Y277239D01*
X13460Y282831D02*
X25148Y282831D01*
X25148Y277239D01*
X13460Y277239D01*
X13460Y279408D02*
X25148Y279408D01*
X25148Y281577D02*
X13460Y281577D01*
X13460Y272417D02*
X13460Y266825D01*
X13460Y272417D02*
X25148Y272417D01*
X25148Y266825D01*
X13460Y266825D01*
X13460Y268994D02*
X25148Y268994D01*
X25148Y271163D02*
X13460Y271163D01*
D19*
X62230Y558800D03*
X165100Y660400D03*
X36830Y130810D03*
X25400Y558800D03*
D11*
X25400Y228600D03*
D10*
X1681480Y210058D03*
X1118362Y272542D03*
D11*
X894080Y711200D03*
X1706880Y711200D03*
X1706880Y25400D03*
X894080Y25400D03*
D12*
X1058240Y474980D03*
D13*
X1258240Y474980D03*
D14*
X893442Y622358D03*
X893442Y609658D03*
X893442Y596958D03*
X893442Y584258D03*
X893442Y635058D03*
X906142Y622358D03*
X906142Y609658D03*
X906142Y596958D03*
X906142Y584258D03*
X906142Y635058D03*
X1704340Y683260D03*
X895350Y77470D03*
D15*
X909828Y537464D03*
D12*
X1390980Y632460D03*
D13*
X1590980Y632460D03*
D14*
X1153180Y49290D03*
X1073180Y49290D03*
D10*
X1300480Y209804D03*
D16*
X941380Y49558D03*
X999180Y49558D03*
D17*
X935990Y120269D02*
X935990Y125603D01*
X935990Y120269D02*
X924306Y120269D01*
X924306Y125603D01*
X935990Y125603D01*
X935990Y122441D02*
X924306Y122441D01*
X924306Y124613D02*
X935990Y124613D01*
X935990Y128397D02*
X935990Y133731D01*
X935990Y128397D02*
X924306Y128397D01*
X924306Y133731D01*
X935990Y133731D01*
X935990Y130569D02*
X924306Y130569D01*
X924306Y132741D02*
X935990Y132741D01*
D15*
X1001522Y337566D03*
X976122Y337566D03*
D17*
X950468Y302895D02*
X950468Y297561D01*
X950468Y302895D02*
X962152Y302895D01*
X962152Y297561D01*
X950468Y297561D01*
X950468Y299733D02*
X962152Y299733D01*
X962152Y301905D02*
X950468Y301905D01*
X950468Y294767D02*
X950468Y289433D01*
X950468Y294767D02*
X962152Y294767D01*
X962152Y289433D01*
X950468Y289433D01*
X950468Y291605D02*
X962152Y291605D01*
X962152Y293777D02*
X950468Y293777D01*
D18*
X882648Y318895D02*
X882648Y324487D01*
X894336Y324487D01*
X894336Y318895D01*
X882648Y318895D01*
X882648Y321064D02*
X894336Y321064D01*
X894336Y323233D02*
X882648Y323233D01*
X882648Y314073D02*
X882648Y308481D01*
X882648Y314073D02*
X894336Y314073D01*
X894336Y308481D01*
X882648Y308481D01*
X882648Y310650D02*
X894336Y310650D01*
X894336Y312819D02*
X882648Y312819D01*
X882140Y282831D02*
X882140Y277239D01*
X882140Y282831D02*
X893828Y282831D01*
X893828Y277239D01*
X882140Y277239D01*
X882140Y279408D02*
X893828Y279408D01*
X893828Y281577D02*
X882140Y281577D01*
X882140Y272417D02*
X882140Y266825D01*
X882140Y272417D02*
X893828Y272417D01*
X893828Y266825D01*
X882140Y266825D01*
X882140Y268994D02*
X893828Y268994D01*
X893828Y271163D02*
X882140Y271163D01*
D19*
X930910Y558800D03*
X1033780Y660400D03*
X905510Y130810D03*
X894080Y558800D03*
D11*
X894080Y228600D03*
D14*
X68580Y795655D03*
X1663065Y795655D03*
D20*
X59525Y-59055D02*
X59528Y-58833D01*
X59536Y-58611D01*
X59550Y-58389D01*
X59569Y-58167D01*
X59593Y-57947D01*
X59623Y-57726D01*
X59658Y-57507D01*
X59699Y-57288D01*
X59745Y-57071D01*
X59796Y-56855D01*
X59853Y-56640D01*
X59915Y-56426D01*
X59982Y-56215D01*
X60054Y-56004D01*
X60132Y-55796D01*
X60214Y-55590D01*
X60302Y-55386D01*
X60394Y-55183D01*
X60492Y-54984D01*
X60594Y-54787D01*
X60701Y-54592D01*
X60813Y-54400D01*
X60930Y-54211D01*
X61051Y-54024D01*
X61177Y-53841D01*
X61307Y-53661D01*
X61442Y-53484D01*
X61580Y-53311D01*
X61723Y-53141D01*
X61871Y-52974D01*
X62022Y-52811D01*
X62177Y-52652D01*
X62336Y-52497D01*
X62499Y-52346D01*
X62666Y-52198D01*
X62836Y-52055D01*
X63009Y-51917D01*
X63186Y-51782D01*
X63366Y-51652D01*
X63549Y-51526D01*
X63736Y-51405D01*
X63925Y-51288D01*
X64117Y-51176D01*
X64312Y-51069D01*
X64509Y-50967D01*
X64708Y-50869D01*
X64911Y-50777D01*
X65115Y-50689D01*
X65321Y-50607D01*
X65529Y-50529D01*
X65740Y-50457D01*
X65951Y-50390D01*
X66165Y-50328D01*
X66380Y-50271D01*
X66596Y-50220D01*
X66813Y-50174D01*
X67032Y-50133D01*
X67251Y-50098D01*
X67472Y-50068D01*
X67692Y-50044D01*
X67914Y-50025D01*
X68136Y-50011D01*
X68358Y-50003D01*
X68580Y-50000D01*
X68802Y-50003D01*
X69024Y-50011D01*
X69246Y-50025D01*
X69468Y-50044D01*
X69688Y-50068D01*
X69909Y-50098D01*
X70128Y-50133D01*
X70347Y-50174D01*
X70564Y-50220D01*
X70780Y-50271D01*
X70995Y-50328D01*
X71209Y-50390D01*
X71420Y-50457D01*
X71631Y-50529D01*
X71839Y-50607D01*
X72045Y-50689D01*
X72249Y-50777D01*
X72452Y-50869D01*
X72651Y-50967D01*
X72848Y-51069D01*
X73043Y-51176D01*
X73235Y-51288D01*
X73424Y-51405D01*
X73611Y-51526D01*
X73794Y-51652D01*
X73974Y-51782D01*
X74151Y-51917D01*
X74324Y-52055D01*
X74494Y-52198D01*
X74661Y-52346D01*
X74824Y-52497D01*
X74983Y-52652D01*
X75138Y-52811D01*
X75289Y-52974D01*
X75437Y-53141D01*
X75580Y-53311D01*
X75718Y-53484D01*
X75853Y-53661D01*
X75983Y-53841D01*
X76109Y-54024D01*
X76230Y-54211D01*
X76347Y-54400D01*
X76459Y-54592D01*
X76566Y-54787D01*
X76668Y-54984D01*
X76766Y-55183D01*
X76858Y-55386D01*
X76946Y-55590D01*
X77028Y-55796D01*
X77106Y-56004D01*
X77178Y-56215D01*
X77245Y-56426D01*
X77307Y-56640D01*
X77364Y-56855D01*
X77415Y-57071D01*
X77461Y-57288D01*
X77502Y-57507D01*
X77537Y-57726D01*
X77567Y-57947D01*
X77591Y-58167D01*
X77610Y-58389D01*
X77624Y-58611D01*
X77632Y-58833D01*
X77635Y-59055D01*
X77632Y-59277D01*
X77624Y-59499D01*
X77610Y-59721D01*
X77591Y-59943D01*
X77567Y-60163D01*
X77537Y-60384D01*
X77502Y-60603D01*
X77461Y-60822D01*
X77415Y-61039D01*
X77364Y-61255D01*
X77307Y-61470D01*
X77245Y-61684D01*
X77178Y-61895D01*
X77106Y-62106D01*
X77028Y-62314D01*
X76946Y-62520D01*
X76858Y-62724D01*
X76766Y-62927D01*
X76668Y-63126D01*
X76566Y-63323D01*
X76459Y-63518D01*
X76347Y-63710D01*
X76230Y-63899D01*
X76109Y-64086D01*
X75983Y-64269D01*
X75853Y-64449D01*
X75718Y-64626D01*
X75580Y-64799D01*
X75437Y-64969D01*
X75289Y-65136D01*
X75138Y-65299D01*
X74983Y-65458D01*
X74824Y-65613D01*
X74661Y-65764D01*
X74494Y-65912D01*
X74324Y-66055D01*
X74151Y-66193D01*
X73974Y-66328D01*
X73794Y-66458D01*
X73611Y-66584D01*
X73424Y-66705D01*
X73235Y-66822D01*
X73043Y-66934D01*
X72848Y-67041D01*
X72651Y-67143D01*
X72452Y-67241D01*
X72249Y-67333D01*
X72045Y-67421D01*
X71839Y-67503D01*
X71631Y-67581D01*
X71420Y-67653D01*
X71209Y-67720D01*
X70995Y-67782D01*
X70780Y-67839D01*
X70564Y-67890D01*
X70347Y-67936D01*
X70128Y-67977D01*
X69909Y-68012D01*
X69688Y-68042D01*
X69468Y-68066D01*
X69246Y-68085D01*
X69024Y-68099D01*
X68802Y-68107D01*
X68580Y-68110D01*
X68358Y-68107D01*
X68136Y-68099D01*
X67914Y-68085D01*
X67692Y-68066D01*
X67472Y-68042D01*
X67251Y-68012D01*
X67032Y-67977D01*
X66813Y-67936D01*
X66596Y-67890D01*
X66380Y-67839D01*
X66165Y-67782D01*
X65951Y-67720D01*
X65740Y-67653D01*
X65529Y-67581D01*
X65321Y-67503D01*
X65115Y-67421D01*
X64911Y-67333D01*
X64708Y-67241D01*
X64509Y-67143D01*
X64312Y-67041D01*
X64117Y-66934D01*
X63925Y-66822D01*
X63736Y-66705D01*
X63549Y-66584D01*
X63366Y-66458D01*
X63186Y-66328D01*
X63009Y-66193D01*
X62836Y-66055D01*
X62666Y-65912D01*
X62499Y-65764D01*
X62336Y-65613D01*
X62177Y-65458D01*
X62022Y-65299D01*
X61871Y-65136D01*
X61723Y-64969D01*
X61580Y-64799D01*
X61442Y-64626D01*
X61307Y-64449D01*
X61177Y-64269D01*
X61051Y-64086D01*
X60930Y-63899D01*
X60813Y-63710D01*
X60701Y-63518D01*
X60594Y-63323D01*
X60492Y-63126D01*
X60394Y-62927D01*
X60302Y-62724D01*
X60214Y-62520D01*
X60132Y-62314D01*
X60054Y-62106D01*
X59982Y-61895D01*
X59915Y-61684D01*
X59853Y-61470D01*
X59796Y-61255D01*
X59745Y-61039D01*
X59699Y-60822D01*
X59658Y-60603D01*
X59623Y-60384D01*
X59593Y-60163D01*
X59569Y-59943D01*
X59550Y-59721D01*
X59536Y-59499D01*
X59528Y-59277D01*
X59525Y-59055D01*
D21*
X68580Y-59055D03*
M02*
